<svg width="82" height="79" viewBox="0 0 82 79" fill="none" xmlns="http://www.w3.org/2000/svg">
<g clip-path="url(#clip0_1005_120072)">
<rect y="26.1035" width="81.0609" height="52.8957" rx="5.49565" fill="#F9F4EB"/>
<path opacity="0.5" d="M40.8013 57.8051L40.5305 57.9213L40.2596 57.8051L-47.68 20.0769L-47.4091 18.7586H128.47L128.741 20.0769L40.8013 57.8051Z" fill="#F8EFDC" stroke="#A56953" stroke-width="1.37391"/>
<path d="M35.6743 57.0337C35.1861 56.1448 34.8781 54.9459 35.5523 54.189C36.2154 53.4436 37.4522 53.5986 38.3052 54.1163C39.1509 54.6282 39.7982 55.4042 40.4288 56.1658C40.6784 55.3085 41.0171 54.478 41.4379 53.6895C41.725 53.1527 42.0806 52.6083 42.6336 52.3528C43.5854 51.9127 44.7469 52.5384 45.3008 53.4293C45.6228 53.9469 45.8045 54.5516 45.8212 55.1612C45.8546 56.3744 45.2528 57.5139 44.5684 58.5173C43.9669 59.3988 43.2883 60.2278 42.5427 60.9915C42.2912 61.2491 42.0214 61.5061 41.6839 61.6313C40.8179 61.9523 39.0277 60.5896 38.3414 60.0797C37.2499 59.2688 36.3294 58.2264 35.6743 57.0337Z" fill="#FAA685"/>
</g>
<rect x="1.03043" y="27.134" width="79" height="50.8348" rx="4.46522" stroke="#A56953" stroke-width="2.06087"/>
<defs>
<clipPath id="clip0_1005_120072">
<rect y="26.1035" width="81.0609" height="52.8957" rx="5.49565" fill="white"/>
</clipPath>
</defs>
</svg>
