<svg width="84" height="84" viewBox="0 0 84 84" fill="none" xmlns="http://www.w3.org/2000/svg">
<circle cx="42" cy="42" r="41" fill="#F9F4EB" stroke="#A56953" stroke-width="2"/>
<path fill-rule="evenodd" clip-rule="evenodd" d="M30.0849 42.3029C30.2412 42.0756 30.5599 42.0061 30.7968 42.1476L51.789 54.7082C52.0258 54.8499 52.0916 55.1495 51.9355 55.3771C51.7791 55.6048 51.4595 55.6742 51.2226 55.5324L30.2314 42.9719C29.9944 42.8301 29.9285 42.5306 30.0849 42.3029ZM52.3485 29.0734C52.5854 28.9318 52.9041 29.0013 53.0605 29.2287C53.2167 29.4562 53.1516 29.7558 52.9149 29.8976L31.9228 42.4582C31.6859 42.5999 31.3672 42.5304 31.2108 42.3029C31.0545 42.0753 31.1194 41.7758 31.3564 41.634L52.3485 29.0734Z" fill="#D9D9D9"/>
<path fill-rule="evenodd" clip-rule="evenodd" d="M30.0849 42.3029L28.4369 41.1696L28.4362 41.1707L30.0849 42.3029ZM30.7968 42.1476L31.8237 40.4314L31.8227 40.4308L30.7968 42.1476ZM51.789 54.7082L52.8159 52.992L51.789 54.7082ZM51.9355 55.3771L53.5841 56.5094L53.5848 56.5083L51.9355 55.3771ZM51.2226 55.5324L50.1956 57.2486L50.1957 57.2486L51.2226 55.5324ZM30.2314 42.9719L31.2583 41.2556L31.2583 41.2556L30.2314 42.9719ZM52.3485 29.0734L51.322 27.357L51.3216 27.3572L52.3485 29.0734ZM53.0605 29.2287L54.7091 28.0965L54.7085 28.0955L53.0605 29.2287ZM52.9149 29.8976L53.9418 31.6139L53.9432 31.6131L52.9149 29.8976ZM31.9228 42.4582L30.8959 40.742L30.8959 40.742L31.9228 42.4582ZM31.2108 42.3029L29.5622 43.4351L29.5628 43.436L31.2108 42.3029ZM31.3564 41.634L30.3294 39.9177L30.3293 39.9178L31.3564 41.634ZM30.0849 42.3029L31.7328 43.4362C31.2909 44.0787 30.4391 44.2638 29.7709 43.8645L30.7968 42.1476L31.8227 40.4308C30.6807 39.7484 29.1915 40.0724 28.4369 41.1696L30.0849 42.3029ZM30.7968 42.1476L29.7699 43.8639L50.7621 56.4244L51.789 54.7082L52.8159 52.992L31.8237 40.4314L30.7968 42.1476ZM51.789 54.7082L50.7621 56.4244C50.0108 55.9749 49.7889 54.9709 50.2861 54.2459L51.9355 55.3771L53.5848 56.5083C54.3942 55.3282 54.0409 53.7249 52.8159 52.992L51.789 54.7082ZM51.9355 55.3771L50.2868 54.2449C50.7296 53.6002 51.5822 53.4169 52.2495 53.8162L51.2226 55.5324L50.1957 57.2486C51.3369 57.9315 52.8287 57.6094 53.5841 56.5094L51.9355 55.3771ZM51.2226 55.5324L52.2495 53.8162L31.2583 41.2556L30.2314 42.9719L29.2044 44.6881L50.1956 57.2486L51.2226 55.5324ZM30.2314 42.9719L31.2583 41.2556C32.0083 41.7044 32.2324 42.7087 31.7335 43.4351L30.0849 42.3029L28.4362 41.1707C27.6247 42.3524 27.9805 43.9558 29.2044 44.6881L30.2314 42.9719ZM52.3485 29.0734L53.3751 30.7899C52.7061 31.19 51.8539 31.004 51.4124 30.3619L53.0605 29.2287L54.7085 28.0955C53.9542 26.9986 52.4648 26.6735 51.322 27.357L52.3485 29.0734ZM53.0605 29.2287L51.4118 30.3609C50.9161 29.6392 51.1329 28.634 51.8867 28.1822L52.9149 29.8976L53.9432 31.6131C55.1703 30.8775 55.5173 29.2733 54.7091 28.0965L53.0605 29.2287ZM52.9149 29.8976L51.888 28.1814L30.8959 40.742L31.9228 42.4582L32.9497 44.1744L53.9418 31.6139L52.9149 29.8976ZM31.9228 42.4582L30.8959 40.742C31.5653 40.3414 32.4176 40.5279 32.8589 41.1698L31.2108 42.3029L29.5628 43.436C30.3169 44.5328 31.8064 44.8585 32.9497 44.1744L31.9228 42.4582ZM31.2108 42.3029L32.8595 41.1707C33.3542 41.8911 33.1396 42.8976 32.3834 43.3501L31.3564 41.634L30.3293 39.9178C29.0992 40.6539 28.7548 42.2595 29.5622 43.4351L31.2108 42.3029ZM31.3564 41.634L32.3833 43.3502L53.3754 30.7897L52.3485 29.0734L51.3216 27.3572L30.3294 39.9177L31.3564 41.634Z" fill="#A56953"/>
</svg>
