<svg width="475" height="46" viewBox="0 0 475 46" fill="none" xmlns="http://www.w3.org/2000/svg">
<path d="M139.437 3.63086C100.471 1.5279 45.4801 6.47682 27.623 8.9248V39.8193H251.25V8.9248C233.393 6.47682 178.402 1.5279 139.437 3.63086Z" fill="#CEC392"/>
<path d="M119.654 3.12305C126.871 3.27856 133.749 3.62078 140.008 4.20117C145.957 3.68272 152.438 3.37072 159.219 3.22461C164.847 5.06206 170.56 6.53723 176.33 7.64258C183.479 9.03666 190.683 10.0192 197.892 10.8945C203.15 11.5337 208.494 12.1462 213.403 14.418C218.312 16.6896 222.82 20.9 224.536 26.6855C225.789 30.9102 225.434 35.5627 224.179 39.8203H130.678V39.7188H54.6943C53.4392 35.4611 53.0844 30.8086 54.3369 26.584C56.0527 20.7985 60.5606 16.588 65.4697 14.3164C70.379 12.0446 75.7231 11.4321 80.9814 10.793C88.1901 9.9176 95.394 8.9351 102.543 7.54102C108.313 6.43567 114.026 4.9605 119.654 3.12305Z" fill="#C2BB88"/>
<path d="M211.744 38.5947C212.48 38.5947 213.076 38.8882 213.076 39.25C213.076 39.6118 212.43 39.7676 211.694 39.7676C210.959 39.7675 210.193 39.4227 210.193 39.0605C210.193 38.6988 211.009 38.5947 211.744 38.5947ZM184.848 37.6465C185.412 37.6465 185.869 37.8717 185.869 38.1494C185.869 38.4271 185.373 38.5459 184.81 38.5459C184.246 38.5459 183.658 38.2817 183.658 38.0039C183.658 37.7266 184.283 37.6465 184.848 37.6465ZM192.4 36.4893C193.262 36.4893 193.961 36.8335 193.961 37.2578C193.961 37.6819 193.203 37.8642 192.342 37.8643C191.48 37.8643 190.582 37.46 190.582 37.0361C190.582 36.6117 191.538 36.4893 192.4 36.4893ZM180.366 33.583C181.734 33.5831 182.842 34.1292 182.842 34.8018C182.841 35.4741 181.641 35.7627 180.273 35.7627C178.906 35.7626 177.483 35.1222 177.483 34.4492C177.484 33.7767 178.999 33.583 180.366 33.583ZM146.285 26.6602C146.849 26.6602 147.307 26.8853 147.307 27.1631C147.307 27.4408 146.811 27.5595 146.247 27.5596C145.683 27.5596 145.096 27.2954 145.096 27.0176C145.096 26.7403 145.721 26.6602 146.285 26.6602ZM141.888 22.5977C143.255 22.5977 144.363 23.1438 144.363 23.8164C144.363 24.4887 143.162 24.7773 141.795 24.7773C140.428 24.7773 139.005 24.1369 139.005 23.4639C139.005 22.7914 140.52 22.5977 141.888 22.5977ZM151.346 17.2295C152.081 17.2295 152.678 17.5231 152.678 17.8848C152.678 18.2466 152.032 18.4023 151.296 18.4023C150.56 18.4023 149.795 18.0575 149.795 17.6953C149.795 17.3337 150.61 17.2295 151.346 17.2295ZM153.838 13.3594C154.699 13.3595 155.398 13.7028 155.398 14.127C155.398 14.5513 154.641 14.7343 153.779 14.7344C152.917 14.7344 152.02 14.3292 152.02 13.9053C152.02 13.4812 152.976 13.3594 153.838 13.3594ZM67.6387 13.2578C68.3742 13.2578 69.1895 13.3618 69.1895 13.7236C69.1894 14.0858 68.424 14.4306 67.6885 14.4307C66.9529 14.4307 66.3067 14.2749 66.3066 13.9131C66.3066 13.5513 66.9031 13.2578 67.6387 13.2578ZM94.2773 12.3096C94.8417 12.3096 95.4668 12.3896 95.4668 12.667C95.4668 12.9448 94.8795 13.209 94.3154 13.209C93.7517 13.2089 93.2561 13.0901 93.2559 12.8125C93.2559 12.5347 93.713 12.3096 94.2773 12.3096ZM86.7246 11.1523C87.5866 11.1523 88.543 11.2748 88.543 11.6992C88.5426 12.1231 87.645 12.5273 86.7832 12.5273C85.9216 12.5273 85.1645 12.345 85.1641 11.9209C85.1641 11.4966 85.8628 11.1524 86.7246 11.1523ZM98.9307 8.24609C100.298 8.24609 101.813 8.43999 101.813 9.1123C101.813 9.7853 100.391 10.4257 99.0234 10.4258C97.6561 10.4258 96.4553 10.1373 96.4551 9.46484C96.4551 8.79229 97.5633 8.24617 98.9307 8.24609Z" fill="#E1DB9C"/>
<path d="M125.991 0.550781C169.898 -1.73093 231.861 3.63971 251.982 6.2959V39.8184H0V6.2959C20.1213 3.63971 82.0842 -1.73093 125.991 0.550781Z" fill="#CEC392"/>
<path d="M159.658 3.12305C152.441 3.27856 145.563 3.62078 139.305 4.20117C133.355 3.68272 126.874 3.37072 120.094 3.22461C114.465 5.06206 108.752 6.53723 102.982 7.64258C95.8335 9.03666 88.6295 10.0192 81.4209 10.8945C76.1626 11.5337 70.8184 12.1462 65.9092 14.418C61 16.6896 56.4922 20.9 54.7764 26.6855C53.5238 30.9102 53.8787 35.5627 55.1338 39.8203H148.635V39.7188H224.618C225.873 35.4611 226.228 30.8086 224.976 26.584C223.26 20.7985 218.752 16.588 213.843 14.3164C208.934 12.0446 203.589 11.4321 198.331 10.793C191.122 9.9176 183.918 8.9351 176.77 7.54102C171 6.43567 165.287 4.9605 159.658 3.12305Z" fill="#C2BB88"/>
<path d="M67.1426 38.5947C66.4071 38.5947 65.8108 38.8883 65.8105 39.25C65.8105 39.6118 66.4568 39.7676 67.1924 39.7676C67.9279 39.7675 68.6934 39.4227 68.6934 39.0605C68.6931 38.6989 67.878 38.5947 67.1426 38.5947ZM93.7812 37.6465C93.2169 37.6465 92.7598 37.8717 92.7598 38.1494C92.76 38.427 93.2556 38.5459 93.8193 38.5459C94.3833 38.5459 94.9706 38.2817 94.9707 38.0039C94.9707 37.7265 94.3457 37.6465 93.7812 37.6465ZM86.2285 36.4893C85.3667 36.4893 84.668 36.8335 84.668 37.2578C84.6684 37.6819 85.4255 37.8642 86.2871 37.8643C87.1489 37.8643 88.0465 37.46 88.0469 37.0361C88.0469 36.6117 87.0905 36.4893 86.2285 36.4893ZM98.4346 33.583C97.0673 33.5831 95.959 34.1292 95.959 34.8018C95.9593 35.4742 97.16 35.7627 98.5273 35.7627C99.8947 35.7626 101.317 35.1222 101.317 34.4492C101.317 33.7769 99.8018 33.583 98.4346 33.583ZM132.26 26.6602C131.696 26.6602 131.238 26.8854 131.238 27.1631C131.238 27.4408 131.734 27.5605 132.298 27.5605C132.862 27.5605 133.449 27.2954 133.449 27.0176C133.449 26.7405 132.824 26.6602 132.26 26.6602ZM136.913 22.5977C135.546 22.5977 134.438 23.1438 134.438 23.8164C134.438 24.4887 135.639 24.7773 137.006 24.7773C138.373 24.7773 139.796 24.1369 139.796 23.4639C139.796 22.7914 138.28 22.5977 136.913 22.5977ZM127.197 17.2295C126.462 17.2295 125.865 17.5231 125.865 17.8848C125.865 18.2466 126.511 18.4023 127.247 18.4023C127.983 18.4023 128.748 18.0575 128.748 17.6953C128.748 17.3337 127.933 17.2295 127.197 17.2295ZM124.707 13.3594C123.845 13.3595 123.146 13.7036 123.146 14.1279C123.147 14.552 123.904 14.7343 124.766 14.7344C125.627 14.7344 126.525 14.3301 126.525 13.9062C126.525 13.4819 125.569 13.3594 124.707 13.3594ZM211.248 13.2578C210.513 13.2578 209.698 13.362 209.697 13.7236C209.697 14.0858 210.463 14.4306 211.198 14.4307C211.934 14.4307 212.58 14.2749 212.58 13.9131C212.58 13.5514 211.984 13.2578 211.248 13.2578ZM184.352 12.3096C183.787 12.3096 183.162 12.3896 183.162 12.667C183.162 12.9447 183.75 13.209 184.313 13.209C184.877 13.2089 185.373 13.09 185.373 12.8125C185.373 12.5347 184.916 12.3096 184.352 12.3096ZM191.904 11.1523C191.042 11.1523 190.086 11.2748 190.086 11.6992C190.086 12.1231 190.984 12.5273 191.846 12.5273C192.707 12.5273 193.464 12.345 193.465 11.9209C193.465 11.4966 192.766 11.1524 191.904 11.1523ZM179.87 8.24609C178.503 8.24609 176.988 8.43989 176.987 9.1123C176.987 9.7853 178.41 10.4257 179.777 10.4258C181.145 10.4258 182.345 10.1372 182.346 9.46484C182.346 8.79229 181.237 8.24617 179.87 8.24609Z" fill="#E1DB9C"/>
<path d="M362.561 3.63086C323.595 1.52803 268.605 6.47684 250.748 8.9248V39.8193H474.373V8.9248C456.516 6.47684 401.526 1.52803 362.561 3.63086Z" fill="#CEC392"/>
<path d="M342.202 3.62207C381.16 1.53695 436.049 6.47854 453.887 8.92383V39.8174H230.518V8.92383C248.355 6.47854 303.244 1.53695 342.202 3.62207Z" fill="#CEC392"/>
<path d="M342.779 3.12109C349.996 3.27661 356.874 3.61883 363.133 4.19922C369.082 3.68077 375.563 3.36877 382.344 3.22266C387.972 5.06011 393.685 6.53528 399.455 7.64062C406.604 9.0347 413.808 10.0172 421.017 10.8926C426.275 11.5317 431.619 12.1442 436.528 14.416C441.437 16.6876 445.945 20.8981 447.661 26.6836C448.914 30.9082 448.559 35.5607 447.304 39.8184H353.803V39.7168H277.819C276.564 35.4592 276.209 30.8066 277.462 26.582C279.178 20.7966 283.686 16.586 288.595 14.3145C293.504 12.0427 298.848 11.4301 304.106 10.791C311.315 9.91564 318.519 8.93314 325.668 7.53906C331.438 6.43372 337.151 4.95854 342.779 3.12109Z" fill="#C2BB88"/>
<path d="M434.611 38.5947C435.347 38.5947 435.943 38.8883 435.943 39.25C435.943 39.6118 435.297 39.7676 434.562 39.7676C433.826 39.7675 433.061 39.4227 433.061 39.0605C433.061 38.6989 433.876 38.5947 434.611 38.5947ZM407.973 37.6465C408.537 37.6465 408.994 37.8717 408.994 38.1494C408.994 38.427 408.498 38.5459 407.935 38.5459C407.371 38.5459 406.783 38.2817 406.783 38.0039C406.783 37.7265 407.408 37.6465 407.973 37.6465ZM415.525 36.4893C416.387 36.4893 417.086 36.8335 417.086 37.2578C417.086 37.6819 416.328 37.8642 415.467 37.8643C414.605 37.8643 413.707 37.46 413.707 37.0361C413.707 36.6117 414.663 36.4893 415.525 36.4893ZM403.319 33.583C404.687 33.5831 405.795 34.1292 405.795 34.8018C405.795 35.4742 404.594 35.7627 403.227 35.7627C401.859 35.7626 400.437 35.1222 400.437 34.4492C400.437 33.7769 401.952 33.583 403.319 33.583ZM369.408 26.6602C369.972 26.6602 370.43 26.8854 370.43 27.1631C370.43 27.4408 369.934 27.5605 369.37 27.5605C368.806 27.5605 368.219 27.2954 368.219 27.0176C368.219 26.7405 368.844 26.6602 369.408 26.6602ZM364.755 22.5977C366.122 22.5977 367.23 23.1438 367.23 23.8164C367.23 24.4887 366.029 24.7773 364.662 24.7773C363.295 24.7773 361.872 24.1369 361.872 23.4639C361.872 22.7914 363.388 22.5977 364.755 22.5977ZM374.471 17.2295C375.206 17.2295 375.803 17.5231 375.803 17.8848C375.803 18.2466 375.157 18.4023 374.421 18.4023C373.685 18.4023 372.92 18.0575 372.92 17.6953C372.92 17.3337 373.735 17.2295 374.471 17.2295ZM376.961 13.3594C377.823 13.3595 378.521 13.7036 378.521 14.1279C378.521 14.552 377.764 14.7343 376.902 14.7344C376.041 14.7344 375.143 14.3301 375.143 13.9062C375.143 13.4819 376.099 13.3594 376.961 13.3594ZM290.506 13.2578C291.241 13.2578 292.056 13.362 292.057 13.7236C292.057 14.0858 291.291 14.4306 290.556 14.4307C289.82 14.4307 289.174 14.2749 289.174 13.9131C289.174 13.5514 289.77 13.2578 290.506 13.2578ZM317.402 12.3096C317.967 12.3096 318.592 12.3896 318.592 12.667C318.592 12.9447 318.004 13.209 317.44 13.209C316.877 13.2089 316.381 13.09 316.381 12.8125C316.381 12.5347 316.838 12.3096 317.402 12.3096ZM309.85 11.1523C310.712 11.1523 311.668 11.2748 311.668 11.6992C311.668 12.1231 310.77 12.5273 309.908 12.5273C309.047 12.5273 308.289 12.345 308.289 11.9209C308.289 11.4966 308.988 11.1524 309.85 11.1523ZM322.056 8.24609C323.423 8.24609 324.938 8.43989 324.938 9.1123C324.938 9.7853 323.516 10.4257 322.148 10.4258C320.781 10.4258 319.58 10.1372 319.58 9.46484C319.58 8.79229 320.688 8.24617 322.056 8.24609Z" fill="#E1DB9C"/>
<path d="M361.162 3.12109C353.945 3.27661 347.067 3.61883 340.809 4.19922C334.859 3.68077 328.378 3.36877 321.598 3.22266C315.969 5.06011 310.256 6.53528 304.486 7.64062C297.337 9.0347 290.133 10.0172 282.925 10.8926C277.667 11.5317 272.322 12.1442 267.413 14.416C262.504 16.6876 257.996 20.8981 256.28 26.6836C255.028 30.9082 255.383 35.5607 256.638 39.8184H350.139V39.7168H426.122C427.377 35.4592 427.732 30.8066 426.479 26.582C424.764 20.7966 420.256 16.586 415.347 14.3145C410.437 12.0427 405.093 11.4301 399.835 10.791C392.626 9.91564 385.422 8.93314 378.273 7.53906C372.504 6.43372 366.791 4.95854 361.162 3.12109Z" fill="#C2BB88"/>
<path d="M206.316 38.5947C205.581 38.5947 204.985 38.8883 204.984 39.25C204.984 39.6118 205.631 39.7676 206.366 39.7676C207.102 39.7675 207.867 39.4227 207.867 39.0605C207.867 38.6989 207.052 38.5947 206.316 38.5947ZM232.955 37.6465C232.391 37.6465 231.934 37.8717 231.934 38.1494C231.934 38.427 232.429 38.5459 232.993 38.5459C233.557 38.5459 234.144 38.2817 234.145 38.0039C234.145 37.7265 233.519 37.6465 232.955 37.6465ZM225.402 36.4893C224.541 36.4893 223.842 36.8335 223.842 37.2578C223.842 37.6819 224.599 37.8642 225.461 37.8643C226.323 37.8643 227.22 37.46 227.221 37.0361C227.221 36.6117 226.264 36.4893 225.402 36.4893ZM237.608 33.583C236.241 33.5831 235.133 34.1292 235.133 34.8018C235.133 35.4742 236.334 35.7627 237.701 35.7627C239.069 35.7626 240.491 35.1222 240.491 34.4492C240.491 33.7769 238.976 33.583 237.608 33.583ZM271.434 26.6602C270.869 26.6602 270.412 26.8854 270.412 27.1631C270.412 27.4408 270.908 27.5605 271.472 27.5605C272.036 27.5605 272.623 27.2954 272.623 27.0176C272.623 26.7405 271.998 26.6602 271.434 26.6602ZM276.087 22.5977C274.72 22.5977 273.611 23.1438 273.611 23.8164C273.612 24.4887 274.813 24.7773 276.18 24.7773C277.547 24.7773 278.97 24.1369 278.97 23.4639C278.969 22.7914 277.454 22.5977 276.087 22.5977ZM266.371 17.2295C265.636 17.2295 265.039 17.5231 265.039 17.8848C265.039 18.2466 265.685 18.4023 266.421 18.4023C267.156 18.4023 267.922 18.0575 267.922 17.6953C267.922 17.3337 267.107 17.2295 266.371 17.2295ZM263.881 13.3594C263.019 13.3595 262.32 13.7036 262.32 14.1279C262.321 14.552 263.078 14.7343 263.939 14.7344C264.801 14.7344 265.699 14.3301 265.699 13.9062C265.699 13.4819 264.743 13.3594 263.881 13.3594ZM350.336 13.2578C349.6 13.2578 348.785 13.362 348.785 13.7236C348.785 14.0858 349.551 14.4306 350.286 14.4307C351.022 14.4307 351.668 14.2749 351.668 13.9131C351.668 13.5514 351.071 13.2578 350.336 13.2578ZM323.697 12.3096C323.133 12.3096 322.508 12.3896 322.508 12.667C322.508 12.9447 323.095 13.209 323.659 13.209C324.223 13.2089 324.718 13.09 324.719 12.8125C324.719 12.5347 324.262 12.3096 323.697 12.3096ZM330.992 11.1523C330.13 11.1523 329.174 11.2748 329.174 11.6992C329.174 12.1231 330.072 12.5273 330.934 12.5273C331.795 12.5273 332.552 12.345 332.553 11.9209C332.553 11.4966 331.854 11.1524 330.992 11.1523ZM319.044 8.24609C317.677 8.24609 316.161 8.43989 316.161 9.1123C316.161 9.7853 317.584 10.4257 318.951 10.4258C320.318 10.4258 321.519 10.1372 321.52 9.46484C321.52 8.79229 320.411 8.24617 319.044 8.24609Z" fill="#E1DB9C"/>
</svg>
