<svg width="210" height="38" viewBox="0 0 210 38" fill="none" xmlns="http://www.w3.org/2000/svg">
<g opacity="0.5">
<g filter="url(#filter0_d_4324_36662)">
<mask id="path-1-inside-1_4324_36662" fill="white">
<path d="M21.877 1.69141C24.5336 -0.101177 28.1142 1.80199 28.1143 5.00684C28.1143 5.32666 28.3735 5.58594 28.6934 5.58594H40.4805C42.6894 5.58606 44.4802 7.37709 44.4805 9.58594V21.749C44.4805 23.9581 42.6895 25.7489 40.4805 25.749H28.4209C28.2515 25.749 28.1143 25.8863 28.1143 26.0557C28.1142 29.2606 24.5336 31.1637 21.877 29.3711L6.28027 18.8467C3.93026 17.261 3.92959 13.8018 6.2793 12.2158L21.877 1.69141Z"/>
</mask>
<path d="M21.877 1.69141C24.5336 -0.101177 28.1142 1.80199 28.1143 5.00684C28.1143 5.32666 28.3735 5.58594 28.6934 5.58594H40.4805C42.6894 5.58606 44.4802 7.37709 44.4805 9.58594V21.749C44.4805 23.9581 42.6895 25.7489 40.4805 25.749H28.4209C28.2515 25.749 28.1143 25.8863 28.1143 26.0557C28.1142 29.2606 24.5336 31.1637 21.877 29.3711L6.28027 18.8467C3.93026 17.261 3.92959 13.8018 6.2793 12.2158L21.877 1.69141Z" fill="#FFFFEC"/>
<path d="M21.877 1.69141L24.1143 5.0072L24.1143 5.00718L21.877 1.69141ZM28.1143 5.00684L32.1143 5.00684L32.1143 5.00677L28.1143 5.00684ZM40.4805 5.58594L40.4807 1.58594H40.4805V5.58594ZM44.4805 9.58594L48.4805 9.58594L48.4805 9.58549L44.4805 9.58594ZM40.4805 25.749L40.4805 29.749L40.4807 29.749L40.4805 25.749ZM28.1143 26.0557L32.1143 26.0557V26.0557H28.1143ZM21.877 29.3711L19.6396 32.6868L19.6396 32.6869L21.877 29.3711ZM6.28027 18.8467L8.51768 15.531L8.51764 15.5309L6.28027 18.8467ZM6.2793 12.2158L4.04199 8.90003L4.04148 8.90038L6.2793 12.2158ZM21.877 1.69141L24.1143 5.00718C24.1257 4.99948 24.1325 4.99601 24.1346 4.995C24.1367 4.99398 24.1359 4.99454 24.1324 4.99566C24.1289 4.99677 24.1244 4.99794 24.1192 4.99884C24.114 4.99973 24.1093 5.00017 24.1052 5.0003C24.0971 5.00058 24.0943 4.99955 24.0971 5.0002C24.1002 5.00095 24.1066 5.00298 24.1144 5.00712C24.1222 5.01127 24.1274 5.01542 24.1298 5.0176C24.1319 5.01949 24.1294 5.01774 24.1251 5.01081C24.1229 5.00735 24.1206 5.00314 24.1185 4.99835C24.1163 4.9935 24.1147 4.98907 24.1137 4.98559C24.1127 4.98204 24.1127 4.98103 24.113 4.98332C24.1133 4.98558 24.1143 4.99316 24.1143 5.00691L28.1143 5.00684L32.1143 5.00677C32.1141 -1.40341 24.9525 -5.20928 19.6396 -1.62437L21.877 1.69141ZM28.6934 5.58594V9.58594H40.4805V5.58594V1.58594H28.6934V5.58594ZM40.4805 5.58594L40.4802 9.58594L40.4805 9.58639L44.4805 9.58594L48.4805 9.58549C48.48 5.16808 44.8988 1.58618 40.4807 1.58594L40.4805 5.58594ZM44.4805 9.58594H40.4805V21.749H44.4805H48.4805V9.58594H44.4805ZM44.4805 21.749H40.4805L40.4802 21.749L40.4805 25.749L40.4807 29.749C44.8985 29.7488 48.4805 26.1674 48.4805 21.749H44.4805ZM40.4805 25.749V21.749H28.4209V25.749V29.749H40.4805V25.749ZM28.1143 26.0557L24.1143 26.0556C24.1143 26.0694 24.1133 26.077 24.113 26.0792C24.1127 26.0815 24.1127 26.0805 24.1137 26.077C24.1147 26.0735 24.1163 26.0691 24.1185 26.0642C24.1206 26.0594 24.1229 26.0552 24.1251 26.0517C24.1295 26.0448 24.1319 26.043 24.1298 26.0449C24.1275 26.0471 24.1222 26.0513 24.1144 26.0554C24.1066 26.0595 24.1003 26.0616 24.0971 26.0623C24.0944 26.063 24.0971 26.0619 24.1053 26.0622C24.1093 26.0624 24.1141 26.0628 24.1192 26.0637C24.1244 26.0646 24.129 26.0658 24.1324 26.0669C24.1359 26.068 24.1367 26.0685 24.1346 26.0675C24.1325 26.0665 24.1257 26.063 24.1143 26.0553L21.877 29.3711L19.6396 32.6869C24.9525 36.2718 32.1142 32.466 32.1143 26.0557L28.1143 26.0557ZM21.877 29.3711L24.1144 26.0554L8.51768 15.531L6.28027 18.8467L4.04287 22.1624L19.6396 32.6868L21.877 29.3711ZM6.28027 18.8467L8.51764 15.5309L8.51711 15.5313L6.2793 12.2158L4.04148 8.90038C-0.658743 12.0729 -0.656347 18.9915 4.0429 22.1624L6.28027 18.8467ZM6.2793 12.2158L8.5166 15.5316L24.1143 5.0072L21.877 1.69141L19.6396 -1.62438L4.04199 8.90003L6.2793 12.2158ZM28.4209 25.749V21.749C26.0424 21.749 24.1143 23.6772 24.1143 26.0557H28.1143H32.1143C32.1143 28.0955 30.4607 29.749 28.4209 29.749V25.749ZM28.1143 5.00684H24.1143C24.1143 7.5358 26.1644 9.58594 28.6934 9.58594V5.58594V1.58594C30.5827 1.58594 32.1143 3.11753 32.1143 5.00684H28.1143Z" fill="#9A5858" fill-opacity="0.9" mask="url(#path-1-inside-1_4324_36662)"/>
</g>
<mask id="path-3-outside-2_4324_36662" maskUnits="userSpaceOnUse" x="55.4805" y="4.53125" width="155" height="22" fill="black">
<rect fill="white" x="55.4805" y="4.53125" width="155" height="22"/>
<path d="M70.7205 12.3312C70.7205 13.2112 70.4538 13.9646 69.9205 14.5912C69.4005 15.2046 68.5671 15.5112 67.4205 15.5112C66.2738 15.5112 65.4271 15.2179 64.8805 14.6312C64.3338 14.0312 64.0605 13.2979 64.0605 12.4313H66.5605C66.5605 12.8846 66.7738 13.1112 67.2005 13.1112C67.6805 13.1112 67.9205 12.8712 67.9205 12.3912C67.9205 11.9112 67.7138 11.5312 67.3005 11.2512C66.8871 10.9712 66.4138 10.8312 65.8805 10.8312C64.6671 10.8312 63.6938 11.2779 62.9605 12.1712C62.2405 13.0512 61.8805 14.1712 61.8805 15.5312C61.8805 16.8912 62.2405 18.0179 62.9605 18.9112C63.6938 19.7912 64.6205 20.2312 65.7405 20.2312C66.8605 20.2312 67.8071 19.7979 68.5805 18.9312H65.2005V16.5312H71.1805V22.5312H69.0405L68.7605 21.6512C67.8538 22.3712 66.7938 22.7313 65.5805 22.7313C63.5938 22.7313 62.0271 22.0712 60.8805 20.7512C59.7471 19.4179 59.1805 17.6912 59.1805 15.5712C59.1805 13.4512 59.7805 11.7179 60.9805 10.3712C62.1805 9.01125 63.8138 8.33125 65.8805 8.33125C67.1738 8.33125 68.3005 8.70458 69.2605 9.45125C70.2338 10.1979 70.7205 11.1579 70.7205 12.3312ZM74.242 21.2712C73.3487 20.2846 72.902 19.0379 72.902 17.5312C72.902 16.0246 73.3487 14.7846 74.242 13.8112C75.1354 12.8246 76.3887 12.3312 78.002 12.3312C79.6154 12.3312 80.8687 12.8246 81.762 13.8112C82.6554 14.7846 83.102 16.0246 83.102 17.5312C83.102 19.0379 82.6554 20.2846 81.762 21.2712C80.8687 22.2446 79.6154 22.7313 78.002 22.7313C76.3887 22.7313 75.1354 22.2446 74.242 21.2712ZM76.162 15.5312C75.722 16.0512 75.502 16.7179 75.502 17.5312C75.502 18.3446 75.722 19.0179 76.162 19.5512C76.602 20.0712 77.2154 20.3312 78.002 20.3312C78.7887 20.3312 79.402 20.0712 79.842 19.5512C80.282 19.0179 80.502 18.3446 80.502 17.5312C80.502 16.7179 80.282 16.0512 79.842 15.5312C79.402 14.9979 78.7887 14.7312 78.002 14.7312C77.2154 14.7312 76.602 14.9979 76.162 15.5312ZM90.975 9.73125H89.435V7.53125H93.575V13.3312C94.175 12.6646 94.9817 12.3312 95.995 12.3312C97.3283 12.3312 98.355 12.8246 99.075 13.8112C99.8083 14.7846 100.175 16.0312 100.175 17.5512C100.175 19.0579 99.7283 20.2979 98.835 21.2712C97.9417 22.2446 96.6483 22.7313 94.955 22.7313C93.7017 22.7313 92.375 22.5312 90.975 22.1312V9.73125ZM97.575 17.5912C97.575 16.7779 97.4083 16.0979 97.075 15.5512C96.7417 15.0046 96.2683 14.7312 95.655 14.7312C95.0417 14.7312 94.5417 15.0446 94.155 15.6712C93.7683 16.2979 93.575 17.0512 93.575 17.9312V20.0912C93.935 20.2512 94.3417 20.3312 94.795 20.3312C95.715 20.3312 96.4083 20.0779 96.875 19.5712C97.3417 19.0646 97.575 18.4046 97.575 17.5912ZM107.096 21.2312C106.269 22.2312 105.349 22.7313 104.336 22.7313C103.322 22.7313 102.529 22.4713 101.956 21.9512C101.382 21.4312 101.096 20.7046 101.096 19.7712C101.096 18.8246 101.469 18.0246 102.216 17.3712C102.962 16.7179 104.062 16.3912 105.516 16.3912H107.096V15.6712C107.096 15.0446 106.702 14.7312 105.916 14.7312C105.129 14.7312 104.429 14.8179 103.816 14.9912V16.1312H101.516V13.1512C102.169 12.8979 102.929 12.6979 103.796 12.5512C104.676 12.4046 105.409 12.3312 105.996 12.3312C107.156 12.3312 108.062 12.6379 108.716 13.2512C109.369 13.8512 109.696 14.6579 109.696 15.6712V20.4312H111.336V22.1712C110.762 22.4779 110.042 22.6313 109.176 22.6313C107.789 22.6313 107.096 22.1646 107.096 21.2312ZM104.516 20.3312C105.436 20.3312 106.296 19.7846 107.096 18.6912V18.6112H105.496C104.882 18.6112 104.429 18.7179 104.136 18.9312C103.842 19.1446 103.696 19.4312 103.696 19.7912C103.696 20.1512 103.969 20.3312 104.516 20.3312ZM120.751 21.3912C119.711 22.2846 118.397 22.7313 116.811 22.7313C115.224 22.7313 113.997 22.2446 113.131 21.2712C112.277 20.2846 111.851 19.0379 111.851 17.5312C111.851 16.0246 112.277 14.7846 113.131 13.8112C113.997 12.8246 115.144 12.3312 116.571 12.3312C118.011 12.3312 119.244 12.6046 120.271 13.1512V16.4312H117.971V14.8912C117.611 14.7846 117.204 14.7312 116.751 14.7312C116.031 14.7312 115.464 14.9912 115.051 15.5112C114.651 16.0312 114.451 16.7046 114.451 17.5312C114.451 18.3579 114.651 19.0312 115.051 19.5512C115.464 20.0712 115.977 20.3312 116.591 20.3312C117.217 20.3312 117.737 20.2712 118.151 20.1512C118.577 20.0312 118.871 19.9246 119.031 19.8312C119.204 19.7246 119.431 19.5712 119.711 19.3712L120.751 21.3912ZM120.893 9.73125V7.53125H125.033V16.3112L125.733 16.0512L127.073 14.7312H126.393V12.5312H131.593V14.7312H130.473L127.913 17.2712L130.493 20.4312H132.013V22.1712C131.72 22.3446 131.46 22.4646 131.233 22.5312C131.006 22.5979 130.64 22.6313 130.133 22.6313C129.626 22.6313 129.213 22.5446 128.893 22.3712C128.573 22.1846 128.273 21.9046 127.993 21.5312L125.673 18.4912L125.033 18.7512V20.3312H126.373V22.5312H120.873V20.3312H122.433V9.73125H120.893ZM137.852 14.7312V12.7312L139.592 12.5312C140.032 11.4246 140.319 10.5446 140.452 9.89125H142.192V12.5312H144.572V14.7312H142.192V19.6712C142.192 19.8979 142.226 20.0712 142.292 20.1912C142.372 20.2979 142.539 20.3512 142.792 20.3512C143.046 20.3512 143.486 20.2246 144.112 19.9712L145.072 22.0112C144.219 22.4913 143.306 22.7313 142.332 22.7313C141.372 22.7313 140.672 22.4779 140.232 21.9712C139.806 21.4646 139.592 20.8046 139.592 19.9912V14.7312H137.852ZM147.14 21.2712C146.246 20.2846 145.8 19.0379 145.8 17.5312C145.8 16.0246 146.246 14.7846 147.14 13.8112C148.033 12.8246 149.286 12.3312 150.9 12.3312C152.513 12.3312 153.766 12.8246 154.66 13.8112C155.553 14.7846 156 16.0246 156 17.5312C156 19.0379 155.553 20.2846 154.66 21.2712C153.766 22.2446 152.513 22.7313 150.9 22.7313C149.286 22.7313 148.033 22.2446 147.14 21.2712ZM149.06 15.5312C148.62 16.0512 148.4 16.7179 148.4 17.5312C148.4 18.3446 148.62 19.0179 149.06 19.5512C149.5 20.0712 150.113 20.3312 150.9 20.3312C151.686 20.3312 152.3 20.0712 152.74 19.5512C153.18 19.0179 153.4 18.3446 153.4 17.5312C153.4 16.7179 153.18 16.0512 152.74 15.5312C152.3 14.9979 151.686 14.7312 150.9 14.7312C150.113 14.7312 149.5 14.9979 149.06 15.5312ZM162.932 19.0512H165.232V20.2112C165.606 20.2779 166.046 20.3112 166.553 20.3112C167.593 20.3112 168.113 20.1379 168.113 19.7912C168.113 19.6579 167.799 19.4046 167.172 19.0312L164.772 17.5912C164.186 17.2312 163.752 16.8512 163.472 16.4512C163.192 16.0512 163.052 15.5512 163.052 14.9512C163.052 14.1246 163.406 13.4846 164.112 13.0312C164.819 12.5646 165.779 12.3312 166.993 12.3312C168.206 12.3312 169.359 12.6046 170.452 13.1512V16.1312H168.153V14.8912C167.766 14.7846 167.333 14.7312 166.853 14.7312C166.052 14.7312 165.652 14.8779 165.652 15.1712C165.652 15.2112 165.659 15.2446 165.672 15.2712C165.699 15.2846 165.719 15.3046 165.732 15.3312C165.746 15.3446 165.766 15.3646 165.792 15.3912C165.819 15.4046 165.846 15.4179 165.872 15.4312C165.899 15.4446 165.932 15.4646 165.972 15.4912C166.012 15.5179 166.046 15.5446 166.072 15.5712C166.112 15.5846 166.159 15.6112 166.212 15.6512C166.279 15.6912 166.339 15.7246 166.392 15.7512L169.093 17.3913C170.173 18.0579 170.713 18.8579 170.713 19.7912C170.713 20.7112 170.333 21.4312 169.572 21.9512C168.813 22.4579 167.746 22.7113 166.372 22.7113C164.999 22.7113 163.852 22.4579 162.932 21.9512V19.0512ZM171.528 14.7312V12.7312L173.268 12.5312C173.708 11.4246 173.994 10.5446 174.128 9.89125H175.868V12.5312H178.248V14.7312H175.868V19.6712C175.868 19.8979 175.901 20.0712 175.968 20.1912C176.048 20.2979 176.214 20.3512 176.468 20.3512C176.721 20.3512 177.161 20.2246 177.788 19.9712L178.748 22.0112C177.894 22.4913 176.981 22.7313 176.008 22.7313C175.048 22.7313 174.348 22.4779 173.908 21.9712C173.481 21.4646 173.268 20.8046 173.268 19.9912V14.7312H171.528ZM185.375 21.2312C184.548 22.2312 183.628 22.7313 182.615 22.7313C181.602 22.7313 180.808 22.4713 180.235 21.9512C179.662 21.4312 179.375 20.7046 179.375 19.7712C179.375 18.8246 179.748 18.0246 180.495 17.3712C181.242 16.7179 182.342 16.3912 183.795 16.3912H185.375V15.6712C185.375 15.0446 184.982 14.7312 184.195 14.7312C183.408 14.7312 182.708 14.8179 182.095 14.9912V16.1312H179.795V13.1512C180.448 12.8979 181.208 12.6979 182.075 12.5512C182.955 12.4046 183.688 12.3312 184.275 12.3312C185.435 12.3312 186.342 12.6379 186.995 13.2512C187.648 13.8512 187.975 14.6579 187.975 15.6712V20.4312H189.615V22.1712C189.042 22.4779 188.322 22.6313 187.455 22.6313C186.068 22.6313 185.375 22.1646 185.375 21.2312ZM182.795 20.3312C183.715 20.3312 184.575 19.7846 185.375 18.6912V18.6112H183.775C183.162 18.6112 182.708 18.7179 182.415 18.9312C182.122 19.1446 181.975 19.4312 181.975 19.7912C181.975 20.1512 182.248 20.3312 182.795 20.3312ZM193.97 20.3312H195.41V22.5312H189.83V20.3312H191.37V14.7312H189.83V12.5312H193.59L193.83 13.5912C195.07 12.7512 196.15 12.3312 197.07 12.3312L198.49 12.6312L197.73 15.1712L196.83 14.9312C195.923 14.9312 194.97 15.2112 193.97 15.7712V20.3312ZM198.473 14.7312V12.7312L200.213 12.5312C200.653 11.4246 200.94 10.5446 201.073 9.89125H202.813V12.5312H205.193V14.7312H202.813V19.6712C202.813 19.8979 202.847 20.0712 202.913 20.1912C202.993 20.2979 203.16 20.3512 203.413 20.3512C203.667 20.3512 204.107 20.2246 204.733 19.9712L205.693 22.0112C204.84 22.4913 203.927 22.7313 202.953 22.7313C201.993 22.7313 201.293 22.4779 200.853 21.9712C200.427 21.4646 200.213 20.8046 200.213 19.9912V14.7312H198.473Z"/>
</mask>
<path d="M70.7205 12.3312C70.7205 13.2112 70.4538 13.9646 69.9205 14.5912C69.4005 15.2046 68.5671 15.5112 67.4205 15.5112C66.2738 15.5112 65.4271 15.2179 64.8805 14.6312C64.3338 14.0312 64.0605 13.2979 64.0605 12.4313H66.5605C66.5605 12.8846 66.7738 13.1112 67.2005 13.1112C67.6805 13.1112 67.9205 12.8712 67.9205 12.3912C67.9205 11.9112 67.7138 11.5312 67.3005 11.2512C66.8871 10.9712 66.4138 10.8312 65.8805 10.8312C64.6671 10.8312 63.6938 11.2779 62.9605 12.1712C62.2405 13.0512 61.8805 14.1712 61.8805 15.5312C61.8805 16.8912 62.2405 18.0179 62.9605 18.9112C63.6938 19.7912 64.6205 20.2312 65.7405 20.2312C66.8605 20.2312 67.8071 19.7979 68.5805 18.9312H65.2005V16.5312H71.1805V22.5312H69.0405L68.7605 21.6512C67.8538 22.3712 66.7938 22.7313 65.5805 22.7313C63.5938 22.7313 62.0271 22.0712 60.8805 20.7512C59.7471 19.4179 59.1805 17.6912 59.1805 15.5712C59.1805 13.4512 59.7805 11.7179 60.9805 10.3712C62.1805 9.01125 63.8138 8.33125 65.8805 8.33125C67.1738 8.33125 68.3005 8.70458 69.2605 9.45125C70.2338 10.1979 70.7205 11.1579 70.7205 12.3312ZM74.242 21.2712C73.3487 20.2846 72.902 19.0379 72.902 17.5312C72.902 16.0246 73.3487 14.7846 74.242 13.8112C75.1354 12.8246 76.3887 12.3312 78.002 12.3312C79.6154 12.3312 80.8687 12.8246 81.762 13.8112C82.6554 14.7846 83.102 16.0246 83.102 17.5312C83.102 19.0379 82.6554 20.2846 81.762 21.2712C80.8687 22.2446 79.6154 22.7313 78.002 22.7313C76.3887 22.7313 75.1354 22.2446 74.242 21.2712ZM76.162 15.5312C75.722 16.0512 75.502 16.7179 75.502 17.5312C75.502 18.3446 75.722 19.0179 76.162 19.5512C76.602 20.0712 77.2154 20.3312 78.002 20.3312C78.7887 20.3312 79.402 20.0712 79.842 19.5512C80.282 19.0179 80.502 18.3446 80.502 17.5312C80.502 16.7179 80.282 16.0512 79.842 15.5312C79.402 14.9979 78.7887 14.7312 78.002 14.7312C77.2154 14.7312 76.602 14.9979 76.162 15.5312ZM90.975 9.73125H89.435V7.53125H93.575V13.3312C94.175 12.6646 94.9817 12.3312 95.995 12.3312C97.3283 12.3312 98.355 12.8246 99.075 13.8112C99.8083 14.7846 100.175 16.0312 100.175 17.5512C100.175 19.0579 99.7283 20.2979 98.835 21.2712C97.9417 22.2446 96.6483 22.7313 94.955 22.7313C93.7017 22.7313 92.375 22.5312 90.975 22.1312V9.73125ZM97.575 17.5912C97.575 16.7779 97.4083 16.0979 97.075 15.5512C96.7417 15.0046 96.2683 14.7312 95.655 14.7312C95.0417 14.7312 94.5417 15.0446 94.155 15.6712C93.7683 16.2979 93.575 17.0512 93.575 17.9312V20.0912C93.935 20.2512 94.3417 20.3312 94.795 20.3312C95.715 20.3312 96.4083 20.0779 96.875 19.5712C97.3417 19.0646 97.575 18.4046 97.575 17.5912ZM107.096 21.2312C106.269 22.2312 105.349 22.7313 104.336 22.7313C103.322 22.7313 102.529 22.4713 101.956 21.9512C101.382 21.4312 101.096 20.7046 101.096 19.7712C101.096 18.8246 101.469 18.0246 102.216 17.3712C102.962 16.7179 104.062 16.3912 105.516 16.3912H107.096V15.6712C107.096 15.0446 106.702 14.7312 105.916 14.7312C105.129 14.7312 104.429 14.8179 103.816 14.9912V16.1312H101.516V13.1512C102.169 12.8979 102.929 12.6979 103.796 12.5512C104.676 12.4046 105.409 12.3312 105.996 12.3312C107.156 12.3312 108.062 12.6379 108.716 13.2512C109.369 13.8512 109.696 14.6579 109.696 15.6712V20.4312H111.336V22.1712C110.762 22.4779 110.042 22.6313 109.176 22.6313C107.789 22.6313 107.096 22.1646 107.096 21.2312ZM104.516 20.3312C105.436 20.3312 106.296 19.7846 107.096 18.6912V18.6112H105.496C104.882 18.6112 104.429 18.7179 104.136 18.9312C103.842 19.1446 103.696 19.4312 103.696 19.7912C103.696 20.1512 103.969 20.3312 104.516 20.3312ZM120.751 21.3912C119.711 22.2846 118.397 22.7313 116.811 22.7313C115.224 22.7313 113.997 22.2446 113.131 21.2712C112.277 20.2846 111.851 19.0379 111.851 17.5312C111.851 16.0246 112.277 14.7846 113.131 13.8112C113.997 12.8246 115.144 12.3312 116.571 12.3312C118.011 12.3312 119.244 12.6046 120.271 13.1512V16.4312H117.971V14.8912C117.611 14.7846 117.204 14.7312 116.751 14.7312C116.031 14.7312 115.464 14.9912 115.051 15.5112C114.651 16.0312 114.451 16.7046 114.451 17.5312C114.451 18.3579 114.651 19.0312 115.051 19.5512C115.464 20.0712 115.977 20.3312 116.591 20.3312C117.217 20.3312 117.737 20.2712 118.151 20.1512C118.577 20.0312 118.871 19.9246 119.031 19.8312C119.204 19.7246 119.431 19.5712 119.711 19.3712L120.751 21.3912ZM120.893 9.73125V7.53125H125.033V16.3112L125.733 16.0512L127.073 14.7312H126.393V12.5312H131.593V14.7312H130.473L127.913 17.2712L130.493 20.4312H132.013V22.1712C131.72 22.3446 131.46 22.4646 131.233 22.5312C131.006 22.5979 130.64 22.6313 130.133 22.6313C129.626 22.6313 129.213 22.5446 128.893 22.3712C128.573 22.1846 128.273 21.9046 127.993 21.5312L125.673 18.4912L125.033 18.7512V20.3312H126.373V22.5312H120.873V20.3312H122.433V9.73125H120.893ZM137.852 14.7312V12.7312L139.592 12.5312C140.032 11.4246 140.319 10.5446 140.452 9.89125H142.192V12.5312H144.572V14.7312H142.192V19.6712C142.192 19.8979 142.226 20.0712 142.292 20.1912C142.372 20.2979 142.539 20.3512 142.792 20.3512C143.046 20.3512 143.486 20.2246 144.112 19.9712L145.072 22.0112C144.219 22.4913 143.306 22.7313 142.332 22.7313C141.372 22.7313 140.672 22.4779 140.232 21.9712C139.806 21.4646 139.592 20.8046 139.592 19.9912V14.7312H137.852ZM147.14 21.2712C146.246 20.2846 145.8 19.0379 145.8 17.5312C145.8 16.0246 146.246 14.7846 147.14 13.8112C148.033 12.8246 149.286 12.3312 150.9 12.3312C152.513 12.3312 153.766 12.8246 154.66 13.8112C155.553 14.7846 156 16.0246 156 17.5312C156 19.0379 155.553 20.2846 154.66 21.2712C153.766 22.2446 152.513 22.7313 150.9 22.7313C149.286 22.7313 148.033 22.2446 147.14 21.2712ZM149.06 15.5312C148.62 16.0512 148.4 16.7179 148.4 17.5312C148.4 18.3446 148.62 19.0179 149.06 19.5512C149.5 20.0712 150.113 20.3312 150.9 20.3312C151.686 20.3312 152.3 20.0712 152.74 19.5512C153.18 19.0179 153.4 18.3446 153.4 17.5312C153.4 16.7179 153.18 16.0512 152.74 15.5312C152.3 14.9979 151.686 14.7312 150.9 14.7312C150.113 14.7312 149.5 14.9979 149.06 15.5312ZM162.932 19.0512H165.232V20.2112C165.606 20.2779 166.046 20.3112 166.553 20.3112C167.593 20.3112 168.113 20.1379 168.113 19.7912C168.113 19.6579 167.799 19.4046 167.172 19.0312L164.772 17.5912C164.186 17.2312 163.752 16.8512 163.472 16.4512C163.192 16.0512 163.052 15.5512 163.052 14.9512C163.052 14.1246 163.406 13.4846 164.112 13.0312C164.819 12.5646 165.779 12.3312 166.993 12.3312C168.206 12.3312 169.359 12.6046 170.452 13.1512V16.1312H168.153V14.8912C167.766 14.7846 167.333 14.7312 166.853 14.7312C166.052 14.7312 165.652 14.8779 165.652 15.1712C165.652 15.2112 165.659 15.2446 165.672 15.2712C165.699 15.2846 165.719 15.3046 165.732 15.3312C165.746 15.3446 165.766 15.3646 165.792 15.3912C165.819 15.4046 165.846 15.4179 165.872 15.4312C165.899 15.4446 165.932 15.4646 165.972 15.4912C166.012 15.5179 166.046 15.5446 166.072 15.5712C166.112 15.5846 166.159 15.6112 166.212 15.6512C166.279 15.6912 166.339 15.7246 166.392 15.7512L169.093 17.3913C170.173 18.0579 170.713 18.8579 170.713 19.7912C170.713 20.7112 170.333 21.4312 169.572 21.9512C168.813 22.4579 167.746 22.7113 166.372 22.7113C164.999 22.7113 163.852 22.4579 162.932 21.9512V19.0512ZM171.528 14.7312V12.7312L173.268 12.5312C173.708 11.4246 173.994 10.5446 174.128 9.89125H175.868V12.5312H178.248V14.7312H175.868V19.6712C175.868 19.8979 175.901 20.0712 175.968 20.1912C176.048 20.2979 176.214 20.3512 176.468 20.3512C176.721 20.3512 177.161 20.2246 177.788 19.9712L178.748 22.0112C177.894 22.4913 176.981 22.7313 176.008 22.7313C175.048 22.7313 174.348 22.4779 173.908 21.9712C173.481 21.4646 173.268 20.8046 173.268 19.9912V14.7312H171.528ZM185.375 21.2312C184.548 22.2312 183.628 22.7313 182.615 22.7313C181.602 22.7313 180.808 22.4713 180.235 21.9512C179.662 21.4312 179.375 20.7046 179.375 19.7712C179.375 18.8246 179.748 18.0246 180.495 17.3712C181.242 16.7179 182.342 16.3912 183.795 16.3912H185.375V15.6712C185.375 15.0446 184.982 14.7312 184.195 14.7312C183.408 14.7312 182.708 14.8179 182.095 14.9912V16.1312H179.795V13.1512C180.448 12.8979 181.208 12.6979 182.075 12.5512C182.955 12.4046 183.688 12.3312 184.275 12.3312C185.435 12.3312 186.342 12.6379 186.995 13.2512C187.648 13.8512 187.975 14.6579 187.975 15.6712V20.4312H189.615V22.1712C189.042 22.4779 188.322 22.6313 187.455 22.6313C186.068 22.6313 185.375 22.1646 185.375 21.2312ZM182.795 20.3312C183.715 20.3312 184.575 19.7846 185.375 18.6912V18.6112H183.775C183.162 18.6112 182.708 18.7179 182.415 18.9312C182.122 19.1446 181.975 19.4312 181.975 19.7912C181.975 20.1512 182.248 20.3312 182.795 20.3312ZM193.97 20.3312H195.41V22.5312H189.83V20.3312H191.37V14.7312H189.83V12.5312H193.59L193.83 13.5912C195.07 12.7512 196.15 12.3312 197.07 12.3312L198.49 12.6312L197.73 15.1712L196.83 14.9312C195.923 14.9312 194.97 15.2112 193.97 15.7712V20.3312ZM198.473 14.7312V12.7312L200.213 12.5312C200.653 11.4246 200.94 10.5446 201.073 9.89125H202.813V12.5312H205.193V14.7312H202.813V19.6712C202.813 19.8979 202.847 20.0712 202.913 20.1912C202.993 20.2979 203.16 20.3512 203.413 20.3512C203.667 20.3512 204.107 20.2246 204.733 19.9712L205.693 22.0112C204.84 22.4913 203.927 22.7313 202.953 22.7313C201.993 22.7313 201.293 22.4779 200.853 21.9712C200.427 21.4646 200.213 20.8046 200.213 19.9912V14.7312H198.473Z" fill="#FFFFEC"/>
<path d="M69.9205 14.5912L67.6358 12.6469L67.6322 12.6512L69.9205 14.5912ZM64.8805 14.6312L62.6629 16.6517L62.6742 16.6641L62.6856 16.6764L64.8805 14.6312ZM64.0605 12.4313V9.43125H61.0605V12.4313H64.0605ZM66.5605 12.4313H69.5605V9.43125H66.5605V12.4313ZM67.3005 11.2512L65.6179 13.735L65.6179 13.735L67.3005 11.2512ZM62.9605 12.1712L60.6417 10.2678L60.6386 10.2715L62.9605 12.1712ZM62.9605 18.9112L60.6247 20.7938L60.6401 20.8129L60.6558 20.8318L62.9605 18.9112ZM68.5805 18.9312L70.8189 20.9286L75.2781 15.9312H68.5805V18.9312ZM65.2005 18.9312H62.2005V21.9312H65.2005V18.9312ZM65.2005 16.5312V13.5312H62.2005V16.5312H65.2005ZM71.1805 16.5312H74.1805V13.5312H71.1805V16.5312ZM71.1805 22.5312V25.5312H74.1805V22.5312H71.1805ZM69.0405 22.5312L66.1817 23.4409L66.8468 25.5312H69.0405V22.5312ZM68.7605 21.6512L71.6192 20.7416L70.3006 16.5973L66.8948 19.3019L68.7605 21.6512ZM60.8805 20.7512L58.5947 22.6942L58.6051 22.7065L58.6157 22.7187L60.8805 20.7512ZM60.9805 10.3712L63.2202 12.3671L63.2251 12.3616L63.23 12.3561L60.9805 10.3712ZM69.2605 9.45125L67.4186 11.8193L67.4265 11.8255L67.4345 11.8315L69.2605 9.45125ZM70.7205 12.3312H67.7205C67.7205 12.5522 67.6739 12.6022 67.6359 12.6469L69.9205 14.5912L72.2051 16.5356C73.2337 15.327 73.7205 13.8703 73.7205 12.3312H70.7205ZM69.9205 14.5912L67.6322 12.6512C67.6805 12.5942 67.7342 12.5474 67.7851 12.5127C67.8347 12.479 67.8674 12.4666 67.8694 12.4658C67.8699 12.4656 67.8379 12.4774 67.7625 12.4891C67.6869 12.5008 67.5749 12.5112 67.4205 12.5112V15.5112V18.5112C69.0598 18.5112 70.9079 18.0657 72.2087 16.5313L69.9205 14.5912ZM67.4205 15.5112V12.5112C67.0925 12.5112 66.9407 12.4681 66.9076 12.4566C66.8945 12.452 66.9122 12.4568 66.9487 12.4798C66.9864 12.5036 67.0315 12.539 67.0753 12.5861L64.8805 14.6312L62.6856 16.6764C64.0078 18.0954 65.8058 18.5112 67.4205 18.5112V15.5112ZM64.8805 14.6312L67.0981 12.6108C67.0831 12.5944 67.0777 12.5857 67.0771 12.5847C67.0767 12.5839 67.0769 12.5843 67.0766 12.5835C67.0762 12.5824 67.0726 12.5729 67.0689 12.5511C67.0651 12.5288 67.0605 12.49 67.0605 12.4313H64.0605H61.0605C61.0605 13.9901 61.5768 15.4597 62.6629 16.6517L64.8805 14.6312ZM64.0605 12.4313V15.4313H66.5605V12.4313V9.43125H64.0605V12.4313ZM66.5605 12.4313H63.5605C63.5605 13.0766 63.7088 14.1186 64.5359 14.9973C65.3951 15.9102 66.4766 16.1112 67.2005 16.1112V13.1112V10.1112C67.4976 10.1112 68.2592 10.1989 68.9051 10.8852C69.5188 11.5372 69.5605 12.2393 69.5605 12.4313H66.5605ZM67.2005 13.1112V16.1112C67.9029 16.1112 68.9808 15.9336 69.8618 15.0526C70.7428 14.1715 70.9205 13.0937 70.9205 12.3912H67.9205H64.9205C64.9205 12.1688 64.9781 11.451 65.6191 10.8099C66.2602 10.1689 66.978 10.1112 67.2005 10.1112V13.1112ZM67.9205 12.3912H70.9205C70.9205 10.8693 70.1808 9.57891 68.983 8.76749L67.3005 11.2512L65.6179 13.735C65.489 13.6477 65.2888 13.4715 65.13 13.1796C64.9687 12.883 64.9205 12.596 64.9205 12.3912H67.9205ZM67.3005 11.2512L68.983 8.7675C68.0385 8.12769 66.9706 7.83125 65.8805 7.83125V10.8312V13.8312C65.8821 13.8312 65.8454 13.8311 65.7846 13.8131C65.7221 13.7946 65.6637 13.766 65.6179 13.735L67.3005 11.2512ZM65.8805 10.8312V7.83125C63.8205 7.83125 61.9767 8.64146 60.6417 10.2678L62.9605 12.1712L65.2793 14.0747C65.4109 13.9144 65.5138 13.8312 65.8805 13.8312V10.8312ZM62.9605 12.1712L60.6386 10.2715C59.3982 11.7876 58.8805 13.6201 58.8805 15.5312H61.8805H64.8805C64.8805 14.7224 65.0827 14.3149 65.2823 14.071L62.9605 12.1712ZM61.8805 15.5312H58.8805C58.8805 17.444 59.3986 19.2726 60.6247 20.7938L62.9605 18.9112L65.2963 17.0287C65.0823 16.7632 64.8805 16.3385 64.8805 15.5312H61.8805ZM62.9605 18.9112L60.6558 20.8318C61.9441 22.3778 63.707 23.2312 65.7405 23.2312V20.2312V17.2312C65.5842 17.2312 65.5176 17.2033 65.4922 17.1912C65.465 17.1783 65.3863 17.1361 65.2651 16.9907L62.9605 18.9112ZM65.7405 20.2312V23.2312C67.7508 23.2312 69.5004 22.4063 70.8189 20.9286L68.5805 18.9312L66.342 16.9339C66.1139 17.1896 65.9701 17.2312 65.7405 17.2312V20.2312ZM68.5805 18.9312V15.9312H65.2005V18.9312V21.9312H68.5805V18.9312ZM65.2005 18.9312H68.2005V16.5312H65.2005H62.2005V18.9312H65.2005ZM65.2005 16.5312V19.5312H71.1805V16.5312V13.5312H65.2005V16.5312ZM71.1805 16.5312H68.1805V22.5312H71.1805H74.1805V16.5312H71.1805ZM71.1805 22.5312V19.5312H69.0405V22.5312V25.5312H71.1805V22.5312ZM69.0405 22.5312L71.8992 21.6216L71.6192 20.7416L68.7605 21.6512L65.9017 22.5609L66.1817 23.4409L69.0405 22.5312ZM68.7605 21.6512L66.8948 19.3019C66.5455 19.5793 66.1513 19.7313 65.5805 19.7313V22.7313V25.7313C67.4363 25.7313 69.1621 25.1632 70.6261 24.0006L68.7605 21.6512ZM65.5805 22.7313V19.7313C64.3308 19.7313 63.641 19.3546 63.1453 18.7838L60.8805 20.7512L58.6157 22.7187C60.4132 24.7879 62.8568 25.7313 65.5805 25.7313V22.7313ZM60.8805 20.7512L63.1663 18.8083C62.5863 18.126 62.1805 17.1362 62.1805 15.5712H59.1805H56.1805C56.1805 18.2463 56.908 20.7098 58.5947 22.6942L60.8805 20.7512ZM59.1805 15.5712H62.1805C62.1805 14.0506 62.5938 13.0701 63.2202 12.3671L60.9805 10.3712L58.7407 8.37541C56.9672 10.3657 56.1805 12.8519 56.1805 15.5712H59.1805ZM60.9805 10.3712L63.23 12.3561C63.7779 11.7351 64.5413 11.3312 65.8805 11.3312V8.33125V5.33125C63.0863 5.33125 60.583 6.28736 58.731 8.38638L60.9805 10.3712ZM65.8805 8.33125V11.3312C66.552 11.3312 67.0199 11.5092 67.4186 11.8193L69.2605 9.45125L71.1023 7.08319C69.581 5.89999 67.7956 5.33125 65.8805 5.33125V8.33125ZM69.2605 9.45125L67.4345 11.8315C67.6147 11.9698 67.6661 12.0609 67.6797 12.0877C67.6911 12.1103 67.7205 12.1726 67.7205 12.3312H70.7205H73.7205C73.7205 10.1767 72.7606 8.35526 71.0864 7.07095L69.2605 9.45125ZM74.242 21.2712L72.0181 23.2848L72.025 23.2923L72.0318 23.2998L74.242 21.2712ZM74.242 13.8112L76.4522 15.8398L76.4591 15.8323L76.4659 15.8248L74.242 13.8112ZM81.762 13.8112L79.5381 15.8248L79.545 15.8323L79.5518 15.8398L81.762 13.8112ZM81.762 21.2712L83.9722 23.2998L83.9791 23.2923L83.9859 23.2848L81.762 21.2712ZM76.162 15.5312L78.4522 17.4691L78.4643 17.4548L78.4762 17.4404L76.162 15.5312ZM76.162 19.5512L73.8479 21.4604L73.8598 21.4748L73.8719 21.4891L76.162 19.5512ZM79.842 19.5512L82.1322 21.4891L82.1443 21.4748L82.1562 21.4604L79.842 19.5512ZM79.842 15.5312L77.5279 17.4404L77.5398 17.4548L77.5519 17.4691L79.842 15.5312ZM74.242 21.2712L76.4659 19.2577C76.1386 18.8962 75.902 18.3991 75.902 17.5312H72.902H69.902C69.902 19.6767 70.5588 21.673 72.0181 23.2848L74.242 21.2712ZM72.902 17.5312H75.902C75.902 16.6626 76.1385 16.1816 76.4522 15.8398L74.242 13.8112L72.0318 11.7827C70.5588 13.3876 69.902 15.3866 69.902 17.5312H72.902ZM74.242 13.8112L76.4659 15.8248C76.6717 15.5975 77.0412 15.3312 78.002 15.3312V12.3312V9.33125C75.7362 9.33125 73.599 10.0517 72.0181 11.7977L74.242 13.8112ZM78.002 12.3312V15.3312C78.9629 15.3312 79.3324 15.5975 79.5381 15.8248L81.762 13.8112L83.9859 11.7977C82.405 10.0517 80.2678 9.33125 78.002 9.33125V12.3312ZM81.762 13.8112L79.5518 15.8398C79.8655 16.1816 80.102 16.6626 80.102 17.5312H83.102H86.102C86.102 15.3866 85.4452 13.3876 83.9722 11.7827L81.762 13.8112ZM83.102 17.5312H80.102C80.102 18.3991 79.8655 18.8962 79.5381 19.2577L81.762 21.2712L83.9859 23.2848C85.4453 21.673 86.102 19.6767 86.102 17.5312H83.102ZM81.762 21.2712L79.5518 19.2427C79.3494 19.4632 78.9756 19.7313 78.002 19.7313V22.7313V25.7313C80.2551 25.7313 82.388 25.0259 83.9722 23.2998L81.762 21.2712ZM78.002 22.7313V19.7313C77.0284 19.7313 76.6546 19.4632 76.4522 19.2427L74.242 21.2712L72.0318 23.2998C73.6161 25.0259 75.749 25.7313 78.002 25.7313V22.7313ZM76.162 15.5312L73.8719 13.5934C72.8884 14.7557 72.502 16.1524 72.502 17.5312H75.502H78.502C78.502 17.3944 78.5205 17.3476 78.5159 17.3614C78.5137 17.3681 78.5075 17.3846 78.4951 17.4069C78.4825 17.4294 78.4676 17.4508 78.4522 17.4691L76.162 15.5312ZM75.502 17.5312H72.502C72.502 18.9126 72.889 20.2981 73.8479 21.4604L76.162 19.5512L78.4762 17.6421C78.486 17.6541 78.4964 17.6691 78.5053 17.6854C78.5141 17.7015 78.518 17.7124 78.5187 17.7145C78.5203 17.7195 78.502 17.6675 78.502 17.5312H75.502ZM76.162 19.5512L73.8719 21.4891C74.9734 22.7908 76.4851 23.3312 78.002 23.3312V20.3312V17.3312C77.9394 17.3312 77.9985 17.3214 78.1229 17.3742C78.2587 17.4317 78.3759 17.5232 78.4522 17.6134L76.162 19.5512ZM78.002 20.3312V23.3312C79.519 23.3312 81.0307 22.7908 82.1322 21.4891L79.842 19.5512L77.5519 17.6134C77.6282 17.5232 77.7454 17.4317 77.8812 17.3742C78.0056 17.3214 78.0647 17.3312 78.002 17.3312V20.3312ZM79.842 19.5512L82.1562 21.4604C83.115 20.2981 83.502 18.9126 83.502 17.5312H80.502H77.502C77.502 17.6675 77.4838 17.7195 77.4854 17.7145C77.4861 17.7124 77.4899 17.7015 77.4988 17.6854C77.5077 17.6691 77.518 17.6541 77.5279 17.6421L79.842 19.5512ZM80.502 17.5312H83.502C83.502 16.1524 83.1157 14.7557 82.1322 13.5934L79.842 15.5312L77.5519 17.4691C77.5364 17.4508 77.5215 17.4294 77.509 17.4069C77.4966 17.3846 77.4904 17.3681 77.4881 17.3614C77.4836 17.3476 77.502 17.3944 77.502 17.5312H80.502ZM79.842 15.5312L82.1562 13.6221C81.0636 12.2977 79.5456 11.7312 78.002 11.7312V14.7312V17.7312C78.0554 17.7312 77.9872 17.7396 77.8559 17.6825C77.7138 17.6207 77.5984 17.5259 77.5279 17.4404L79.842 15.5312ZM78.002 14.7312V11.7312C76.4585 11.7312 74.9405 12.2977 73.8479 13.6221L76.162 15.5312L78.4762 17.4404C78.4056 17.5259 78.2903 17.6207 78.1482 17.6825C78.0169 17.7396 77.9487 17.7312 78.002 17.7312V14.7312ZM90.975 9.73125H93.975V6.73125H90.975V9.73125ZM89.435 9.73125H86.435V12.7312H89.435V9.73125ZM89.435 7.53125V4.53125H86.435V7.53125H89.435ZM93.575 7.53125H96.575V4.53125H93.575V7.53125ZM93.575 13.3312H90.575V21.1491L95.8049 15.3381L93.575 13.3312ZM99.075 13.8112L96.6516 15.5797L96.6651 15.5982L96.6789 15.6165L99.075 13.8112ZM98.835 21.2712L96.6248 19.2427L96.6248 19.2427L98.835 21.2712ZM90.975 22.1312H87.975V24.3942L90.1508 25.0158L90.975 22.1312ZM97.075 15.5512L94.5136 17.1131L94.5136 17.1131L97.075 15.5512ZM94.155 15.6712L91.6019 14.0959L91.6019 14.0959L94.155 15.6712ZM93.575 20.0912H90.575V22.0409L92.3566 22.8327L93.575 20.0912ZM96.875 19.5712L99.0816 21.6037L99.0816 21.6037L96.875 19.5712ZM90.975 9.73125V6.73125H89.435V9.73125V12.7312H90.975V9.73125ZM89.435 9.73125H92.435V7.53125H89.435H86.435V9.73125H89.435ZM89.435 7.53125V10.5312H93.575V7.53125V4.53125H89.435V7.53125ZM93.575 7.53125H90.575V13.3312H93.575H96.575V7.53125H93.575ZM93.575 13.3312L95.8049 15.3381C95.8134 15.3287 95.8125 15.3314 95.802 15.3389C95.7912 15.3465 95.7809 15.3517 95.7757 15.3539C95.7621 15.3595 95.8189 15.3312 95.995 15.3312V12.3312V9.33125C94.2536 9.33125 92.5911 9.93993 91.3451 11.3244L93.575 13.3312ZM95.995 12.3312V15.3312C96.2882 15.3312 96.4214 15.384 96.4657 15.4053C96.5008 15.4222 96.5617 15.4564 96.6516 15.5797L99.075 13.8112L101.498 12.0428C100.156 10.2033 98.1844 9.33125 95.995 9.33125V12.3312ZM99.075 13.8112L96.6789 15.6165C96.9321 15.9525 97.175 16.5189 97.175 17.5512H100.175H103.175C103.175 15.5436 102.685 13.6167 101.471 12.006L99.075 13.8112ZM100.175 17.5512H97.175C97.175 18.4199 96.9385 18.9009 96.6248 19.2427L98.835 21.2712L101.045 23.2998C102.518 21.6949 103.175 19.6959 103.175 17.5512H100.175ZM98.835 21.2712L96.6248 19.2427C96.4499 19.4333 96.0594 19.7313 94.955 19.7313V22.7313V25.7313C97.2372 25.7313 99.4335 25.0559 101.045 23.2998L98.835 21.2712ZM94.955 22.7313V19.7313C94.0212 19.7313 92.9734 19.5822 91.7992 19.2467L90.975 22.1312L90.1508 25.0158C91.7767 25.4803 93.3822 25.7313 94.955 25.7313V22.7313ZM90.975 22.1312H93.975V9.73125H90.975H87.975V22.1312H90.975ZM97.575 17.5912H100.575C100.575 16.374 100.325 15.118 99.6364 13.9894L97.075 15.5512L94.5136 17.1131C94.4921 17.0778 94.575 17.1818 94.575 17.5912H97.575ZM97.075 15.5512L99.6364 13.9894C98.7876 12.5973 97.3693 11.7312 95.655 11.7312V14.7312V17.7312C95.5007 17.7312 95.2429 17.6919 94.9698 17.5342C94.7024 17.3798 94.5634 17.1947 94.5136 17.1131L97.075 15.5512ZM95.655 14.7312V11.7312C93.7791 11.7312 92.4072 12.7908 91.6019 14.0959L94.155 15.6712L96.7081 17.2466C96.7183 17.23 96.6375 17.3677 96.413 17.5083C96.1662 17.6631 95.8885 17.7312 95.655 17.7312V14.7312ZM94.155 15.6712L91.6019 14.0959C90.8705 15.2813 90.575 16.6043 90.575 17.9312H93.575H96.575C96.575 17.4982 96.6662 17.3145 96.7081 17.2466L94.155 15.6712ZM93.575 17.9312H90.575V20.0912H93.575H96.575V17.9312H93.575ZM93.575 20.0912L92.3566 22.8327C93.1538 23.187 93.9849 23.3312 94.795 23.3312V20.3312V17.3312C94.7448 17.3312 94.7248 17.3268 94.7291 17.3277C94.7311 17.3281 94.7384 17.3296 94.75 17.3333C94.7616 17.3369 94.7764 17.3423 94.7934 17.3498L93.575 20.0912ZM94.795 20.3312V23.3312C96.2591 23.3312 97.8742 22.9146 99.0816 21.6037L96.875 19.5712L94.6684 17.5388C94.72 17.4828 94.7784 17.4337 94.8384 17.3944C94.8977 17.3555 94.9466 17.334 94.9754 17.3235C95.0286 17.304 94.9869 17.3312 94.795 17.3312V20.3312ZM96.875 19.5712L99.0816 21.6037C100.149 20.4452 100.575 19.013 100.575 17.5912H97.575H94.575C94.575 17.7114 94.558 17.7348 94.5716 17.6963C94.5782 17.6775 94.59 17.6503 94.6088 17.619C94.6276 17.5876 94.6485 17.5604 94.6684 17.5388L96.875 19.5712ZM107.096 21.2312H110.096V12.8937L104.783 19.3198L107.096 21.2312ZM101.956 21.9512L103.971 19.7291L103.971 19.7291L101.956 21.9512ZM102.216 17.3712L100.24 15.1135L100.24 15.1135L102.216 17.3712ZM107.096 16.3912V19.3912H110.096V16.3912H107.096ZM103.816 14.9912L103 12.1043L100.816 12.7216V14.9912H103.816ZM103.816 16.1312V19.1312H106.816V16.1312H103.816ZM101.516 16.1312H98.5156V19.1312H101.516V16.1312ZM101.516 13.1512L100.431 10.3542L98.5156 11.0969V13.1512H101.516ZM103.796 12.5512L103.302 9.59206L103.295 9.59331L103.796 12.5512ZM108.716 13.2512L106.662 15.4385L106.674 15.4497L106.686 15.4608L108.716 13.2512ZM109.696 20.4312H106.696V23.4312H109.696V20.4312ZM111.336 20.4312H114.336V17.4312H111.336V20.4312ZM111.336 22.1712L112.751 24.8166L114.336 23.9688V22.1712H111.336ZM107.096 18.6912L109.517 20.4628L110.096 19.6716V18.6912H107.096ZM107.096 18.6112H110.096V15.6112H107.096V18.6112ZM107.096 21.2312L104.783 19.3198C104.558 19.5927 104.406 19.6915 104.353 19.7204C104.328 19.7341 104.32 19.7348 104.327 19.7331C104.334 19.7312 104.339 19.7313 104.336 19.7313V22.7313V25.7313C106.483 25.7313 108.184 24.6231 109.408 23.1427L107.096 21.2312ZM104.336 22.7313V19.7313C104.081 19.7313 103.954 19.6981 103.915 19.6854C103.887 19.6763 103.922 19.6842 103.971 19.7291L101.956 21.9512L99.9402 24.1734C101.218 25.3327 102.813 25.7313 104.336 25.7313V22.7313ZM101.956 21.9512L103.971 19.7291C103.995 19.7505 104.023 19.7809 104.049 19.819C104.075 19.857 104.092 19.8913 104.101 19.9153C104.12 19.9636 104.096 19.9328 104.096 19.7712H101.096H98.0956C98.0956 21.3619 98.6123 22.969 99.9402 24.1734L101.956 21.9512ZM101.096 19.7712H104.096C104.096 19.7328 104.099 19.7161 104.099 19.7158C104.099 19.7152 104.099 19.7169 104.098 19.7202C104.097 19.7235 104.096 19.7269 104.094 19.7299C104.091 19.7371 104.091 19.7341 104.102 19.72C104.113 19.7052 104.14 19.6739 104.191 19.629L102.216 17.3712L100.24 15.1135C98.878 16.3054 98.0956 17.9133 98.0956 19.7712H101.096ZM102.216 17.3712L104.191 19.629C104.192 19.6279 104.254 19.5717 104.455 19.5121C104.665 19.4496 105.005 19.3912 105.516 19.3912V16.3912V13.3912C103.666 13.3912 101.74 13.8015 100.24 15.1135L102.216 17.3712ZM105.516 16.3912V19.3912H107.096V16.3912V13.3912H105.516V16.3912ZM107.096 16.3912H110.096V15.6712H107.096H104.096V16.3912H107.096ZM107.096 15.6712H110.096C110.096 14.6914 109.754 13.4835 108.67 12.6198C107.716 11.8597 106.627 11.7312 105.916 11.7312V14.7312V17.7312C105.915 17.7312 105.893 17.7313 105.853 17.7267C105.813 17.7221 105.747 17.7121 105.662 17.6895C105.493 17.6445 105.219 17.5418 104.931 17.3127C104.24 16.7623 104.096 16.0245 104.096 15.6712H107.096ZM105.916 14.7312V11.7312C104.915 11.7312 103.932 11.8408 103 12.1043L103.816 14.9912L104.631 17.8782C104.926 17.795 105.343 17.7312 105.916 17.7312V14.7312ZM103.816 14.9912H100.816V16.1312H103.816H106.816V14.9912H103.816ZM103.816 16.1312V13.1312H101.516V16.1312V19.1312H103.816V16.1312ZM101.516 16.1312H104.516V13.1512H101.516H98.5156V16.1312H101.516ZM101.516 13.1512L102.6 15.9483C103.024 15.7839 103.581 15.6302 104.296 15.5092L103.796 12.5512L103.295 9.59331C102.277 9.76564 101.314 10.0119 100.431 10.3542L101.516 13.1512ZM103.796 12.5512L104.289 15.5104C105.08 15.3785 105.636 15.3312 105.996 15.3312V12.3312V9.33125C105.182 9.33125 104.271 9.43068 103.302 9.59207L103.796 12.5512ZM105.996 12.3312V15.3312C106.316 15.3312 106.498 15.374 106.584 15.4031C106.626 15.4172 106.647 15.4287 106.654 15.4328C106.661 15.4367 106.662 15.4381 106.662 15.4385L108.716 13.2512L110.769 11.064C109.41 9.78874 107.686 9.33125 105.996 9.33125V12.3312ZM108.716 13.2512L106.686 15.4608C106.694 15.4674 106.69 15.4655 106.683 15.4549C106.675 15.4442 106.671 15.435 106.67 15.4323C106.667 15.4241 106.696 15.488 106.696 15.6712H109.696H112.696C112.696 13.9497 112.108 12.2932 110.745 11.0417L108.716 13.2512ZM109.696 15.6712H106.696V20.4312H109.696H112.696V15.6712H109.696ZM109.696 20.4312V23.4312H111.336V20.4312V17.4312H109.696V20.4312ZM111.336 20.4312H108.336V22.1712H111.336H114.336V20.4312H111.336ZM111.336 22.1712L109.921 19.5259C109.903 19.5352 109.707 19.6313 109.176 19.6313V22.6313V25.6313C110.378 25.6313 111.621 25.4207 112.751 24.8166L111.336 22.1712ZM109.176 22.6313V19.6313C108.988 19.6313 108.914 19.6146 108.922 19.6165C108.93 19.6183 109.083 19.6524 109.291 19.7925C109.519 19.9459 109.753 20.1874 109.914 20.5124C110.069 20.8243 110.096 21.0918 110.096 21.2312H107.096H104.096C104.096 22.5596 104.658 23.907 105.94 24.77C107.012 25.4909 108.24 25.6313 109.176 25.6313V22.6313ZM104.516 20.3312V23.3312C106.784 23.3312 108.432 21.9455 109.517 20.4628L107.096 18.6912L104.675 16.9197C104.427 17.2584 104.271 17.3709 104.241 17.3895C104.232 17.3955 104.256 17.3785 104.314 17.3609C104.373 17.3427 104.443 17.3312 104.516 17.3312V20.3312ZM107.096 18.6912H110.096V18.6112H107.096H104.096V18.6912H107.096ZM107.096 18.6112V15.6112H105.496V18.6112V21.6112H107.096V18.6112ZM105.496 18.6112V15.6112C104.643 15.6112 103.424 15.7393 102.371 16.505L104.136 18.9312L105.9 21.3575C105.647 21.5419 105.439 21.5983 105.383 21.6115C105.326 21.6248 105.352 21.6112 105.496 21.6112V18.6112ZM104.136 18.9312L102.371 16.505C101.308 17.2779 100.696 18.4629 100.696 19.7912H103.696H106.696C106.696 20.0296 106.644 20.3452 106.476 20.6727C106.309 20.9993 106.086 21.2223 105.9 21.3575L104.136 18.9312ZM103.696 19.7912H100.696C100.696 20.861 101.176 21.9942 102.251 22.7018C103.106 23.265 104.008 23.3312 104.516 23.3312V20.3312V17.3312C104.534 17.3312 104.639 17.3319 104.8 17.3673C104.96 17.4023 105.239 17.4856 105.551 17.6907C105.882 17.9091 106.202 18.236 106.424 18.6727C106.639 19.0977 106.696 19.4992 106.696 19.7912H103.696ZM120.751 21.3912L122.706 23.667L124.502 22.1237L123.418 20.018L120.751 21.3912ZM113.131 21.2712L110.862 23.2337L110.876 23.2501L110.89 23.2662L113.131 21.2712ZM113.131 13.8112L110.877 11.8314L110.875 11.8335L113.131 13.8112ZM120.271 13.1512H123.271V11.3499L121.681 10.5032L120.271 13.1512ZM120.271 16.4312V19.4312H123.271V16.4312H120.271ZM117.971 16.4312H114.971V19.4312H117.971V16.4312ZM117.971 14.8912H120.971V12.6512L118.823 12.0149L117.971 14.8912ZM115.051 15.5112L112.702 13.6445L112.687 13.6632L112.673 13.6821L115.051 15.5112ZM115.051 19.5512L112.673 21.3804L112.687 21.3993L112.702 21.418L115.051 19.5512ZM118.151 20.1512L117.339 17.2633L117.326 17.2667L117.314 17.2702L118.151 20.1512ZM119.031 19.8312L120.542 22.4226L120.573 22.4048L120.603 22.3862L119.031 19.8312ZM119.711 19.3712L122.378 17.998L120.79 14.9136L117.967 16.93L119.711 19.3712ZM120.751 21.3912L118.796 19.1155C118.384 19.4692 117.8 19.7313 116.811 19.7313V22.7313V25.7313C118.995 25.7313 121.037 25.1 122.706 23.667L120.751 21.3912ZM116.811 22.7313V19.7313C115.878 19.7313 115.547 19.4734 115.371 19.2763L113.131 21.2712L110.89 23.2662C112.448 25.0157 114.57 25.7313 116.811 25.7313V22.7313ZM113.131 21.2712L115.4 19.3088C115.09 18.9506 114.851 18.4356 114.851 17.5312H111.851H108.851C108.851 19.6402 109.465 21.6186 110.862 23.2337L113.131 21.2712ZM111.851 17.5312H114.851C114.851 16.6258 115.09 16.127 115.387 15.789L113.131 13.8112L110.875 11.8335C109.465 13.4422 108.851 15.4233 108.851 17.5312H111.851ZM113.131 13.8112L115.385 15.7911C115.629 15.5134 115.923 15.3312 116.571 15.3312V12.3312V9.33125C114.365 9.33125 112.366 10.1358 110.877 11.8314L113.131 13.8112ZM116.571 12.3312V15.3312C117.634 15.3312 118.36 15.5324 118.861 15.7993L120.271 13.1512L121.681 10.5032C120.129 9.67676 118.387 9.33125 116.571 9.33125V12.3312ZM120.271 13.1512H117.271V16.4312H120.271H123.271V13.1512H120.271ZM120.271 16.4312V13.4312H117.971V16.4312V19.4312H120.271V16.4312ZM117.971 16.4312H120.971V14.8912H117.971H114.971V16.4312H117.971ZM117.971 14.8912L118.823 12.0149C118.136 11.8113 117.435 11.7312 116.751 11.7312V14.7312V17.7312C116.973 17.7312 117.085 17.7579 117.119 17.7676L117.971 14.8912ZM116.751 14.7312V11.7312C115.204 11.7312 113.737 12.3423 112.702 13.6445L115.051 15.5112L117.399 17.378C117.332 17.4621 117.21 17.5737 117.037 17.6529C116.871 17.7289 116.756 17.7312 116.751 17.7312V14.7312ZM115.051 15.5112L112.673 13.6821C111.775 14.85 111.451 16.2177 111.451 17.5312H114.451H117.451C117.451 17.3575 117.472 17.2759 117.477 17.2605C117.479 17.2533 117.477 17.2605 117.469 17.2776C117.46 17.2951 117.447 17.3171 117.429 17.3404L115.051 15.5112ZM114.451 17.5312H111.451C111.451 18.8448 111.775 20.2125 112.673 21.3804L115.051 19.5512L117.429 17.7221C117.447 17.7454 117.46 17.7674 117.469 17.7849C117.477 17.802 117.479 17.8092 117.477 17.802C117.472 17.7866 117.451 17.705 117.451 17.5312H114.451ZM115.051 19.5512L112.702 21.418C113.631 22.5858 114.979 23.3312 116.591 23.3312V20.3312V17.3312C116.723 17.3312 116.91 17.3632 117.101 17.46C117.285 17.5531 117.378 17.6583 117.399 17.6845L115.051 19.5512ZM116.591 20.3312V23.3312C117.384 23.3312 118.209 23.2582 118.987 23.0323L118.151 20.1512L117.314 17.2702C117.266 17.2843 117.051 17.3312 116.591 17.3312V20.3312ZM118.151 20.1512L118.963 23.0392C119.39 22.9192 120.018 22.7285 120.542 22.4226L119.031 19.8312L117.519 17.2399C117.603 17.1913 117.66 17.1653 117.675 17.159C117.692 17.1512 117.691 17.1525 117.666 17.1619C117.611 17.1816 117.507 17.2159 117.339 17.2633L118.151 20.1512ZM119.031 19.8312L120.603 22.3862C120.861 22.2275 121.151 22.0292 121.454 21.8125L119.711 19.3712L117.967 16.93C117.711 17.1133 117.547 17.2217 117.458 17.2763L119.031 19.8312ZM119.711 19.3712L117.044 20.7445L118.084 22.7645L120.751 21.3912L123.418 20.018L122.378 17.998L119.711 19.3712ZM120.893 9.73125H117.893V12.7312H120.893V9.73125ZM120.893 7.53125V4.53125H117.893V7.53125H120.893ZM125.033 7.53125H128.033V4.53125H125.033V7.53125ZM125.033 16.3112H122.033V20.6258L126.078 19.1235L125.033 16.3112ZM125.733 16.0512L126.778 18.8635L127.38 18.6397L127.838 18.1885L125.733 16.0512ZM127.073 14.7312L129.178 16.8685L134.393 11.7312H127.073V14.7312ZM126.393 14.7312H123.393V17.7312H126.393V14.7312ZM126.393 12.5312V9.53125H123.393V12.5312H126.393ZM131.593 12.5312H134.593V9.53125H131.593V12.5312ZM131.593 14.7312V17.7312H134.593V14.7312H131.593ZM130.473 14.7312V11.7312H129.237L128.36 12.6016L130.473 14.7312ZM127.913 17.2712L125.8 15.1416L123.867 17.0594L125.589 19.1686L127.913 17.2712ZM130.493 20.4312L128.169 22.3286L129.07 23.4312H130.493V20.4312ZM132.013 20.4312H135.013V17.4312H132.013V20.4312ZM132.013 22.1712L133.539 24.754L135.013 23.8831V22.1712H132.013ZM131.233 22.5312L130.387 19.6532L130.387 19.6532L131.233 22.5312ZM128.893 22.3712L127.382 24.9626L127.423 24.9865L127.464 25.0091L128.893 22.3712ZM127.993 21.5312L130.393 19.7313L130.386 19.7212L130.378 19.7112L127.993 21.5312ZM125.673 18.4912L128.058 16.6712L126.667 14.8492L124.544 15.7119L125.673 18.4912ZM125.033 18.7512L123.904 15.9719L122.033 16.7319V18.7512H125.033ZM125.033 20.3312H122.033V23.3312H125.033V20.3312ZM126.373 20.3312H129.373V17.3312H126.373V20.3312ZM126.373 22.5312V25.5312H129.373V22.5312H126.373ZM120.873 22.5312H117.873V25.5312H120.873V22.5312ZM120.873 20.3312V17.3312H117.873V20.3312H120.873ZM122.433 20.3312V23.3312H125.433V20.3312H122.433ZM122.433 9.73125H125.433V6.73125H122.433V9.73125ZM120.893 9.73125H123.893V7.53125H120.893H117.893V9.73125H120.893ZM120.893 7.53125V10.5312H125.033V7.53125V4.53125H120.893V7.53125ZM125.033 7.53125H122.033V16.3112H125.033H128.033V7.53125H125.033ZM125.033 16.3112L126.078 19.1235L126.778 18.8635L125.733 16.0512L124.689 13.239L123.989 13.499L125.033 16.3112ZM125.733 16.0512L127.838 18.1885L129.178 16.8685L127.073 14.7312L124.968 12.594L123.628 13.914L125.733 16.0512ZM127.073 14.7312V11.7312H126.393V14.7312V17.7312H127.073V14.7312ZM126.393 14.7312H129.393V12.5312H126.393H123.393V14.7312H126.393ZM126.393 12.5312V15.5312H131.593V12.5312V9.53125H126.393V12.5312ZM131.593 12.5312H128.593V14.7312H131.593H134.593V12.5312H131.593ZM131.593 14.7312V11.7312H130.473V14.7312V17.7312H131.593V14.7312ZM130.473 14.7312L128.36 12.6016L125.8 15.1416L127.913 17.2712L130.026 19.4009L132.586 16.8609L130.473 14.7312ZM127.913 17.2712L125.589 19.1686L128.169 22.3286L130.493 20.4312L132.817 18.5339L130.237 15.3739L127.913 17.2712ZM130.493 20.4312V23.4312H132.013V20.4312V17.4312H130.493V20.4312ZM132.013 20.4312H129.013V22.1712H132.013H135.013V20.4312H132.013ZM132.013 22.1712L130.487 19.5885C130.412 19.6329 130.364 19.6569 130.341 19.6674C130.317 19.6784 130.334 19.6687 130.387 19.6532L131.233 22.5312L132.08 25.4093C132.623 25.2494 133.118 25.0031 133.539 24.754L132.013 22.1712ZM131.233 22.5312L130.387 19.6532C130.47 19.6286 130.525 19.619 130.538 19.6167C130.554 19.6141 130.548 19.6157 130.517 19.6186C130.45 19.6246 130.327 19.6313 130.133 19.6313V22.6313V25.6313C130.676 25.6313 131.412 25.6057 132.08 25.4093L131.233 22.5312ZM130.133 22.6313V19.6313C130.047 19.6313 130.028 19.6236 130.059 19.6301C130.092 19.637 130.19 19.6617 130.322 19.7334L128.893 22.3712L127.464 25.0091C128.361 25.495 129.313 25.6313 130.133 25.6313V22.6313ZM128.893 22.3712L130.405 19.7799C130.457 19.8103 130.479 19.832 130.475 19.8281C130.47 19.8236 130.441 19.7956 130.393 19.7313L127.993 21.5312L125.593 23.3312C126.053 23.9448 126.638 24.529 127.382 24.9626L128.893 22.3712ZM127.993 21.5312L130.378 19.7112L128.058 16.6712L125.673 18.4912L123.288 20.3113L125.608 23.3513L127.993 21.5312ZM125.673 18.4912L124.544 15.7119L123.904 15.9719L125.033 18.7512L126.162 21.5306L126.802 21.2706L125.673 18.4912ZM125.033 18.7512H122.033V20.3312H125.033H128.033V18.7512H125.033ZM125.033 20.3312V23.3312H126.373V20.3312V17.3312H125.033V20.3312ZM126.373 20.3312H123.373V22.5312H126.373H129.373V20.3312H126.373ZM126.373 22.5312V19.5312H120.873V22.5312V25.5312H126.373V22.5312ZM120.873 22.5312H123.873V20.3312H120.873H117.873V22.5312H120.873ZM120.873 20.3312V23.3312H122.433V20.3312V17.3312H120.873V20.3312ZM122.433 20.3312H125.433V9.73125H122.433H119.433V20.3312H122.433ZM122.433 9.73125V6.73125H120.893V9.73125V12.7312H122.433V9.73125ZM137.852 14.7312H134.852V17.7312H137.852V14.7312ZM137.852 12.7312L137.51 9.75087L134.852 10.0563V12.7312H137.852ZM139.592 12.5312L139.935 15.5116L141.717 15.3068L142.38 13.6396L139.592 12.5312ZM140.452 9.89125V6.89125H138.003L137.513 9.29137L140.452 9.89125ZM142.192 9.89125H145.192V6.89125H142.192V9.89125ZM142.192 12.5312H139.192V15.5312H142.192V12.5312ZM144.572 12.5312H147.572V9.53125H144.572V12.5312ZM144.572 14.7312V17.7312H147.572V14.7312H144.572ZM142.192 14.7312V11.7312H139.192V14.7312H142.192ZM142.292 20.1912L139.67 21.6482L139.769 21.8273L139.892 21.9912L142.292 20.1912ZM144.112 19.9712L146.827 18.6939L145.618 16.1265L142.988 17.1899L144.112 19.9712ZM145.072 22.0112L146.543 24.626L148.975 23.2582L147.787 20.7339L145.072 22.0112ZM140.232 21.9712L137.937 23.9037L137.952 23.9211L137.967 23.9383L140.232 21.9712ZM139.592 14.7312H142.592V11.7312H139.592V14.7312ZM137.852 14.7312H140.852V12.7312H137.852H134.852V14.7312H137.852ZM137.852 12.7312L138.195 15.7116L139.935 15.5116L139.592 12.5312L139.25 9.55087L137.51 9.75087L137.852 12.7312ZM139.592 12.5312L142.38 13.6396C142.843 12.4749 143.206 11.4027 143.392 10.4911L140.452 9.89125L137.513 9.29137C137.432 9.68642 137.221 10.3743 136.804 11.4229L139.592 12.5312ZM140.452 9.89125V12.8912H142.192V9.89125V6.89125H140.452V9.89125ZM142.192 9.89125H139.192V12.5312H142.192H145.192V9.89125H142.192ZM142.192 12.5312V15.5312H144.572V12.5312V9.53125H142.192V12.5312ZM144.572 12.5312H141.572V14.7312H144.572H147.572V12.5312H144.572ZM144.572 14.7312V11.7312H142.192V14.7312V17.7312H144.572V14.7312ZM142.192 14.7312H139.192V19.6712H142.192H145.192V14.7312H142.192ZM142.192 19.6712H139.192C139.192 20.1131 139.244 20.8812 139.67 21.6482L142.292 20.1912L144.915 18.7343C145.073 19.0185 145.136 19.2638 145.163 19.4047C145.191 19.5486 145.192 19.645 145.192 19.6712H142.192ZM142.292 20.1912L139.892 21.9912C140.887 23.3173 142.386 23.3512 142.792 23.3512V20.3512V17.3512C142.85 17.3512 143.079 17.3541 143.392 17.454C143.717 17.5582 144.258 17.8117 144.692 18.3913L142.292 20.1912ZM142.792 20.3512V23.3512C143.34 23.3512 143.832 23.2284 144.142 23.1392C144.497 23.0371 144.868 22.9017 145.237 22.7526L144.112 19.9712L142.988 17.1899C142.863 17.2404 142.758 17.2804 142.67 17.3115C142.582 17.3428 142.521 17.3622 142.482 17.3733C142.441 17.3851 142.443 17.3828 142.478 17.3763C142.497 17.3729 142.532 17.367 142.581 17.3619C142.629 17.3568 142.701 17.3512 142.792 17.3512V20.3512ZM144.112 19.9712L141.398 21.2486L142.358 23.2886L145.072 22.0112L147.787 20.7339L146.827 18.6939L144.112 19.9712ZM145.072 22.0112L143.601 19.3965C143.194 19.6255 142.787 19.7313 142.332 19.7313V22.7313V25.7313C143.824 25.7313 145.243 25.357 146.543 24.626L145.072 22.0112ZM142.332 22.7313V19.7313C142.105 19.7313 142.051 19.6998 142.108 19.7203C142.14 19.732 142.2 19.7579 142.275 19.8076C142.351 19.8582 142.428 19.9242 142.497 20.0042L140.232 21.9712L137.967 23.9383C139.188 25.3448 140.888 25.7313 142.332 25.7313V22.7313ZM140.232 21.9712L142.527 20.0388C142.549 20.0645 142.567 20.0924 142.582 20.1196C142.597 20.1466 142.604 20.1661 142.607 20.1736C142.611 20.188 142.592 20.1374 142.592 19.9912H139.592H136.592C136.592 21.3447 136.958 22.7408 137.937 23.9037L140.232 21.9712ZM139.592 19.9912H142.592V14.7312H139.592H136.592V19.9912H139.592ZM139.592 14.7312V11.7312H137.852V14.7312V17.7312H139.592V14.7312ZM147.14 21.2712L144.916 23.2848L144.922 23.2923L144.929 23.2998L147.14 21.2712ZM147.14 13.8112L149.35 15.8398L149.357 15.8323L149.363 15.8248L147.14 13.8112ZM154.66 13.8112L152.436 15.8248L152.442 15.8323L152.449 15.8398L154.66 13.8112ZM154.66 21.2712L156.87 23.2998L156.877 23.2923L156.883 23.2848L154.66 21.2712ZM149.06 15.5312L151.35 17.4691L151.362 17.4548L151.374 17.4404L149.06 15.5312ZM149.06 19.5512L146.745 21.4604L146.757 21.4748L146.769 21.4891L149.06 19.5512ZM152.74 19.5512L155.03 21.4891L155.042 21.4748L155.054 21.4604L152.74 19.5512ZM152.74 15.5312L150.425 17.4404L150.437 17.4548L150.449 17.4691L152.74 15.5312ZM147.14 21.2712L149.363 19.2577C149.036 18.8962 148.8 18.3991 148.8 17.5312H145.8H142.8C142.8 19.6767 143.456 21.673 144.916 23.2848L147.14 21.2712ZM145.8 17.5312H148.8C148.8 16.6626 149.036 16.1816 149.35 15.8398L147.14 13.8112L144.929 11.7827C143.456 13.3876 142.8 15.3866 142.8 17.5312H145.8ZM147.14 13.8112L149.363 15.8248C149.569 15.5975 149.939 15.3312 150.9 15.3312V12.3312V9.33125C148.634 9.33125 146.497 10.0517 144.916 11.7977L147.14 13.8112ZM150.9 12.3312V15.3312C151.86 15.3312 152.23 15.5975 152.436 15.8248L154.66 13.8112L156.883 11.7977C155.303 10.0517 153.165 9.33125 150.9 9.33125V12.3312ZM154.66 13.8112L152.449 15.8398C152.763 16.1816 153 16.6626 153 17.5312H156H159C159 15.3866 158.343 13.3876 156.87 11.7827L154.66 13.8112ZM156 17.5312H153C153 18.3991 152.763 18.8962 152.436 19.2577L154.66 21.2712L156.883 23.2848C158.343 21.673 159 19.6767 159 17.5312H156ZM154.66 21.2712L152.449 19.2427C152.247 19.4632 151.873 19.7313 150.9 19.7313V22.7313V25.7313C153.153 25.7313 155.285 25.0259 156.87 23.2998L154.66 21.2712ZM150.9 22.7313V19.7313C149.926 19.7313 149.552 19.4632 149.35 19.2427L147.14 21.2712L144.929 23.2998C146.514 25.0259 148.646 25.7313 150.9 25.7313V22.7313ZM149.06 15.5312L146.769 13.5934C145.786 14.7557 145.4 16.1524 145.4 17.5312H148.4H151.4C151.4 17.3944 151.418 17.3476 151.413 17.3614C151.411 17.3681 151.405 17.3846 151.393 17.4069C151.38 17.4294 151.365 17.4508 151.35 17.4691L149.06 15.5312ZM148.4 17.5312H145.4C145.4 18.9126 145.787 20.2981 146.745 21.4604L149.06 19.5512L151.374 17.6421C151.384 17.6541 151.394 17.6691 151.403 17.6854C151.412 17.7015 151.415 17.7124 151.416 17.7145C151.418 17.7195 151.4 17.6675 151.4 17.5312H148.4ZM149.06 19.5512L146.769 21.4891C147.871 22.7908 149.383 23.3312 150.9 23.3312V20.3312V17.3312C150.837 17.3312 150.896 17.3214 151.02 17.3742C151.156 17.4317 151.273 17.5232 151.35 17.6134L149.06 19.5512ZM150.9 20.3312V23.3312C152.416 23.3312 153.928 22.7908 155.03 21.4891L152.74 19.5512L150.449 17.6134C150.526 17.5232 150.643 17.4317 150.779 17.3742C150.903 17.3214 150.962 17.3312 150.9 17.3312V20.3312ZM152.74 19.5512L155.054 21.4604C156.013 20.2981 156.4 18.9126 156.4 17.5312H153.4H150.4C150.4 17.6675 150.381 17.7195 150.383 17.7145C150.384 17.7124 150.387 17.7015 150.396 17.6854C150.405 17.6691 150.416 17.6541 150.425 17.6421L152.74 19.5512ZM153.4 17.5312H156.4C156.4 16.1524 156.013 14.7557 155.03 13.5934L152.74 15.5312L150.449 17.4691C150.434 17.4508 150.419 17.4294 150.407 17.4069C150.394 17.3846 150.388 17.3681 150.386 17.3614C150.381 17.3476 150.4 17.3944 150.4 17.5312H153.4ZM152.74 15.5312L155.054 13.6221C153.961 12.2977 152.443 11.7312 150.9 11.7312V14.7312V17.7312C150.953 17.7312 150.885 17.7396 150.753 17.6825C150.611 17.6207 150.496 17.5259 150.425 17.4404L152.74 15.5312ZM150.9 14.7312V11.7312C149.356 11.7312 147.838 12.2977 146.745 13.6221L149.06 15.5312L151.374 17.4404C151.303 17.5259 151.188 17.6207 151.046 17.6825C150.914 17.7396 150.846 17.7312 150.9 17.7312V14.7312ZM162.932 19.0512V16.0512H159.932V19.0512H162.932ZM165.232 19.0512H168.232V16.0512H165.232V19.0512ZM165.232 20.2112H162.232V22.723L164.705 23.1645L165.232 20.2112ZM167.172 19.0312L165.629 21.6037L165.637 21.6086L167.172 19.0312ZM164.772 17.5912L163.203 20.1482L163.216 20.156L163.229 20.1637L164.772 17.5912ZM163.472 16.4512L161.015 18.1716L161.015 18.1716L163.472 16.4512ZM164.112 13.0312L165.732 15.5563L165.749 15.5456L165.766 15.5346L164.112 13.0312ZM170.452 13.1512H173.452V11.2971L171.794 10.468L170.452 13.1512ZM170.452 16.1312V19.1312H173.452V16.1312H170.452ZM168.153 16.1312H165.153V19.1312H168.153V16.1312ZM168.153 14.8912H171.153V12.6068L168.95 11.9993L168.153 14.8912ZM165.672 15.2712L162.989 16.6129L163.436 17.5073L164.331 17.9545L165.672 15.2712ZM165.732 15.3312L163.049 16.6729L163.267 17.1083L163.611 17.4526L165.732 15.3312ZM165.792 15.3912L163.671 17.5126L164.015 17.8568L164.451 18.0745L165.792 15.3912ZM165.872 15.4312L167.214 12.748L167.214 12.748L165.872 15.4312ZM165.972 15.4912L167.637 12.9951L167.637 12.9951L165.972 15.4912ZM166.072 15.5712L163.951 17.6926L164.452 18.1933L165.124 18.4173L166.072 15.5712ZM166.212 15.6512L164.413 18.0513L164.536 18.1441L164.669 18.2237L166.212 15.6512ZM166.392 15.7512L167.95 13.1872L167.844 13.1231L167.734 13.068L166.392 15.7512ZM169.093 17.3913L170.668 14.8384L170.659 14.8328L170.65 14.8272L169.093 17.3913ZM169.572 21.9512L171.237 24.4474L171.252 24.4374L171.267 24.4272L169.572 21.9512ZM162.932 21.9512H159.932V23.7239L161.485 24.5791L162.932 21.9512ZM162.932 19.0512V22.0512H165.232V19.0512V16.0512H162.932V19.0512ZM165.232 19.0512H162.232V20.2112H165.232H168.232V19.0512H165.232ZM165.232 20.2112L164.705 23.1645C165.299 23.2706 165.924 23.3112 166.553 23.3112V20.3112V17.3112C166.168 17.3112 165.912 17.2852 165.76 17.258L165.232 20.2112ZM166.553 20.3112V23.3112C167.16 23.3112 167.942 23.2703 168.671 23.0273C169.323 22.81 171.113 21.9574 171.113 19.7912H168.113H165.113C165.113 19.0303 165.434 18.3572 165.894 17.8974C166.28 17.5114 166.661 17.3728 166.774 17.3352C166.983 17.2655 166.985 17.3112 166.553 17.3112V20.3112ZM168.113 19.7912H171.113C171.113 18.6865 170.529 17.9586 170.385 17.78C170.158 17.4999 169.918 17.2934 169.764 17.1684C169.441 16.9075 169.063 16.6653 168.708 16.4539L167.172 19.0312L165.637 21.6086C165.909 21.7706 166.001 21.8416 165.991 21.8341C165.982 21.827 165.954 21.8038 165.914 21.7652C165.875 21.7288 165.805 21.6591 165.723 21.5575C165.646 21.4622 165.514 21.2854 165.393 21.0329C165.274 20.7859 165.113 20.3546 165.113 19.7912H168.113ZM167.172 19.0312L168.716 16.4588L166.316 15.0188L164.772 17.5912L163.229 20.1637L165.629 21.6037L167.172 19.0312ZM164.772 17.5912L166.342 15.0343C166.166 14.9265 166.053 14.8398 165.985 14.7807C165.918 14.7216 165.91 14.7023 165.93 14.7309L163.472 16.4512L161.015 18.1716C161.606 19.0166 162.4 19.655 163.203 20.1482L164.772 17.5912ZM163.472 16.4512L165.93 14.7309C165.996 14.8253 166.031 14.9122 166.046 14.9674C166.061 15.0178 166.052 15.0193 166.052 14.9512H163.052H160.052C160.052 16.0241 160.308 17.1619 161.015 18.1716L163.472 16.4512ZM163.052 14.9512H166.052C166.052 14.9777 166.043 15.1218 165.944 15.3012C165.898 15.3835 165.848 15.4482 165.803 15.4945C165.759 15.5394 165.73 15.5577 165.732 15.5563L164.112 13.0312L162.493 10.5062C160.942 11.5008 160.052 13.0835 160.052 14.9512H163.052ZM164.112 13.0312L165.766 15.5346C165.812 15.5038 166.124 15.3312 166.993 15.3312V12.3312V9.33125C165.434 9.33125 163.826 9.62537 162.459 10.5279L164.112 13.0312ZM166.993 12.3312V15.3312C167.736 15.3312 168.431 15.4945 169.111 15.8345L170.452 13.1512L171.794 10.468C170.287 9.71463 168.675 9.33125 166.993 9.33125V12.3312ZM170.452 13.1512H167.452V16.1312H170.452H173.452V13.1512H170.452ZM170.452 16.1312V13.1312H168.153V16.1312V19.1312H170.452V16.1312ZM168.153 16.1312H171.153V14.8912H168.153H165.153V16.1312H168.153ZM168.153 14.8912L168.95 11.9993C168.259 11.8085 167.551 11.7312 166.853 11.7312V14.7312V17.7312C167.114 17.7312 167.273 17.7607 167.355 17.7832L168.153 14.8912ZM166.853 14.7312V11.7312C166.353 11.7312 165.625 11.7659 164.92 12.0246C164.549 12.1605 163.993 12.4265 163.508 12.9607C162.963 13.5596 162.652 14.3405 162.652 15.1712H165.652H168.652C168.652 15.8554 168.392 16.5079 167.947 16.9968C167.562 17.421 167.156 17.5954 166.985 17.6579C166.68 17.7699 166.552 17.7312 166.853 17.7312V14.7312ZM165.652 15.1712H162.652C162.652 15.5252 162.709 16.0523 162.989 16.6129L165.672 15.2712L168.356 13.9296C168.609 14.4368 168.652 14.8973 168.652 15.1712H165.652ZM165.672 15.2712L164.331 17.9545C163.777 17.6776 163.326 17.2268 163.049 16.6729L165.732 15.3312L168.416 13.9896C168.112 13.3824 167.621 12.8916 167.014 12.588L165.672 15.2712ZM165.732 15.3312L163.611 17.4526C163.625 17.4659 163.645 17.4859 163.671 17.5126L165.792 15.3912L167.914 13.2699C167.887 13.2433 167.867 13.2233 167.854 13.2099L165.732 15.3312ZM165.792 15.3912L164.451 18.0745C164.478 18.0879 164.504 18.1012 164.531 18.1145L165.872 15.4312L167.214 12.748C167.187 12.7346 167.161 12.7213 167.134 12.708L165.792 15.3912ZM165.872 15.4312L164.531 18.1145C164.459 18.0784 164.405 18.0471 164.374 18.0287C164.342 18.0093 164.319 17.9946 164.308 17.9874L165.972 15.4912L167.637 12.9951C167.547 12.9357 167.398 12.84 167.214 12.748L165.872 15.4312ZM165.972 15.4912L164.308 17.9874C164.226 17.9328 164.096 17.8375 163.951 17.6926L166.072 15.5712L168.194 13.4499C167.996 13.2516 167.799 13.1031 167.637 12.9951L165.972 15.4912ZM166.072 15.5712L165.124 18.4173C164.914 18.3472 164.753 18.2654 164.649 18.206C164.542 18.145 164.463 18.089 164.413 18.0513L166.212 15.6512L168.012 13.2512C167.833 13.1165 167.492 12.882 167.021 12.7252L166.072 15.5712ZM166.212 15.6512L164.669 18.2237C164.783 18.2921 164.912 18.3651 165.051 18.4345L166.392 15.7512L167.734 13.068C167.752 13.0767 167.762 13.0824 167.764 13.0838C167.767 13.0852 167.764 13.0838 167.756 13.0788L166.212 15.6512ZM166.392 15.7512L164.835 18.3153L167.535 19.9553L169.093 17.3913L170.65 14.8272L167.95 13.1872L166.392 15.7512ZM169.093 17.3913L167.517 19.9441C167.655 20.0297 167.74 20.0974 167.788 20.1402C167.834 20.1823 167.838 20.1942 167.821 20.1697C167.803 20.1428 167.772 20.0881 167.747 20.0086C167.722 19.9282 167.713 19.8519 167.713 19.7912H170.713H173.713C173.713 17.4589 172.278 15.8321 170.668 14.8384L169.093 17.3913ZM170.713 19.7912H167.713C167.713 19.8142 167.71 19.8031 167.719 19.7666C167.727 19.7285 167.745 19.677 167.774 19.621C167.804 19.5649 167.837 19.5218 167.863 19.4934C167.888 19.4661 167.898 19.462 167.878 19.4753L169.572 21.9512L171.267 24.4272C172.843 23.3486 173.713 21.7026 173.713 19.7912H170.713ZM169.572 21.9512L167.908 19.4551C167.831 19.5065 167.433 19.7113 166.372 19.7113V22.7113V25.7113C168.059 25.7113 169.794 25.4094 171.237 24.4474L169.572 21.9512ZM166.372 22.7113V19.7113C165.354 19.7113 164.741 19.5222 164.38 19.3234L162.932 21.9512L161.485 24.5791C162.964 25.3936 164.644 25.7113 166.372 25.7113V22.7113ZM162.932 21.9512H165.932V19.0512H162.932H159.932V21.9512H162.932ZM171.528 14.7312H168.528V17.7312H171.528V14.7312ZM171.528 12.7312L171.185 9.75087L168.528 10.0563V12.7312H171.528ZM173.268 12.5312L173.61 15.5116L175.392 15.3068L176.055 13.6396L173.268 12.5312ZM174.128 9.89125V6.89125H171.678L171.188 9.29137L174.128 9.89125ZM175.868 9.89125H178.868V6.89125H175.868V9.89125ZM175.868 12.5312H172.868V15.5312H175.868V12.5312ZM178.248 12.5312H181.248V9.53125H178.248V12.5312ZM178.248 14.7312V17.7312H181.248V14.7312H178.248ZM175.868 14.7312V11.7312H172.868V14.7312H175.868ZM175.968 20.1912L173.345 21.6482L173.445 21.8273L173.568 21.9912L175.968 20.1912ZM177.788 19.9712L180.502 18.6939L179.294 16.1265L176.663 17.1899L177.788 19.9712ZM178.748 22.0112L180.218 24.626L182.65 23.2582L181.462 20.7339L178.748 22.0112ZM173.908 21.9712L171.613 23.9037L171.627 23.9211L171.642 23.9383L173.908 21.9712ZM173.268 14.7312H176.268V11.7312H173.268V14.7312ZM171.528 14.7312H174.528V12.7312H171.528H168.528V14.7312H171.528ZM171.528 12.7312L171.87 15.7116L173.61 15.5116L173.268 12.5312L172.925 9.55087L171.185 9.75087L171.528 12.7312ZM173.268 12.5312L176.055 13.6396C176.518 12.4749 176.881 11.4027 177.067 10.4911L174.128 9.89125L171.188 9.29137C171.107 9.68642 170.897 10.3743 170.48 11.4229L173.268 12.5312ZM174.128 9.89125V12.8912H175.868V9.89125V6.89125H174.128V9.89125ZM175.868 9.89125H172.868V12.5312H175.868H178.868V9.89125H175.868ZM175.868 12.5312V15.5312H178.248V12.5312V9.53125H175.868V12.5312ZM178.248 12.5312H175.248V14.7312H178.248H181.248V12.5312H178.248ZM178.248 14.7312V11.7312H175.868V14.7312V17.7312H178.248V14.7312ZM175.868 14.7312H172.868V19.6712H175.868H178.868V14.7312H175.868ZM175.868 19.6712H172.868C172.868 20.1131 172.919 20.8812 173.345 21.6482L175.968 20.1912L178.59 18.7343C178.748 19.0185 178.811 19.2638 178.839 19.4047C178.866 19.5486 178.868 19.645 178.868 19.6712H175.868ZM175.968 20.1912L173.568 21.9912C174.562 23.3173 176.061 23.3512 176.468 23.3512V20.3512V17.3512C176.525 17.3512 176.755 17.3541 177.067 17.454C177.393 17.5582 177.933 17.8117 178.368 18.3913L175.968 20.1912ZM176.468 20.3512V23.3512C177.015 23.3512 177.508 23.2284 177.817 23.1392C178.172 23.0371 178.543 22.9017 178.912 22.7526L177.788 19.9712L176.663 17.1899C176.538 17.2404 176.433 17.2804 176.346 17.3115C176.258 17.3428 176.196 17.3622 176.158 17.3733C176.117 17.3851 176.118 17.3828 176.153 17.3763C176.172 17.3729 176.207 17.367 176.256 17.3619C176.304 17.3568 176.376 17.3512 176.468 17.3512V20.3512ZM177.788 19.9712L175.073 21.2486L176.033 23.2886L178.748 22.0112L181.462 20.7339L180.502 18.6939L177.788 19.9712ZM178.748 22.0112L177.277 19.3965C176.87 19.6255 176.462 19.7313 176.008 19.7313V22.7313V25.7313C177.499 25.7313 178.919 25.357 180.218 24.626L178.748 22.0112ZM176.008 22.7313V19.7313C175.78 19.7313 175.727 19.6998 175.783 19.7203C175.816 19.732 175.876 19.7579 175.95 19.8076C176.026 19.8582 176.103 19.9242 176.173 20.0042L173.908 21.9712L171.642 23.9383C172.864 25.3448 174.564 25.7313 176.008 25.7313V22.7313ZM173.908 21.9712L176.202 20.0388C176.224 20.0645 176.243 20.0924 176.258 20.1196C176.273 20.1466 176.28 20.1661 176.282 20.1736C176.287 20.188 176.268 20.1374 176.268 19.9912H173.268H170.268C170.268 21.3447 170.634 22.7408 171.613 23.9037L173.908 21.9712ZM173.268 19.9912H176.268V14.7312H173.268H170.268V19.9912H173.268ZM173.268 14.7312V11.7312H171.528V14.7312V17.7312H173.268V14.7312ZM185.375 21.2312H188.375V12.8937L183.063 19.3198L185.375 21.2312ZM180.235 21.9512L182.25 19.7291L182.25 19.7291L180.235 21.9512ZM180.495 17.3712L178.519 15.1135L178.519 15.1135L180.495 17.3712ZM185.375 16.3912V19.3912H188.375V16.3912H185.375ZM182.095 14.9912L181.279 12.1043L179.095 12.7216V14.9912H182.095ZM182.095 16.1312V19.1312H185.095V16.1312H182.095ZM179.795 16.1312H176.795V19.1312H179.795V16.1312ZM179.795 13.1512L178.71 10.3542L176.795 11.0969V13.1512H179.795ZM182.075 12.5512L181.582 9.59206L181.574 9.59331L182.075 12.5512ZM186.995 13.2512L184.942 15.4385L184.954 15.4497L184.966 15.4608L186.995 13.2512ZM187.975 20.4312H184.975V23.4312H187.975V20.4312ZM189.615 20.4312H192.615V17.4312H189.615V20.4312ZM189.615 22.1712L191.03 24.8166L192.615 23.9688V22.1712H189.615ZM185.375 18.6912L187.796 20.4628L188.375 19.6716V18.6912H185.375ZM185.375 18.6112H188.375V15.6112H185.375V18.6112ZM185.375 21.2312L183.063 19.3198C182.837 19.5927 182.685 19.6915 182.632 19.7204C182.607 19.7341 182.599 19.7348 182.606 19.7331C182.614 19.7312 182.619 19.7313 182.615 19.7313V22.7313V25.7313C184.762 25.7313 186.463 24.6231 187.687 23.1427L185.375 21.2312ZM182.615 22.7313V19.7313C182.36 19.7313 182.233 19.6981 182.194 19.6854C182.166 19.6763 182.201 19.6842 182.25 19.7291L180.235 21.9512L178.219 24.1734C179.498 25.3327 181.092 25.7313 182.615 25.7313V22.7313ZM180.235 21.9512L182.25 19.7291C182.274 19.7505 182.302 19.7809 182.328 19.819C182.354 19.857 182.371 19.8913 182.381 19.9153C182.4 19.9636 182.375 19.9328 182.375 19.7712H179.375H176.375C176.375 21.3619 176.891 22.969 178.219 24.1734L180.235 21.9512ZM179.375 19.7712H182.375C182.375 19.7328 182.379 19.7161 182.379 19.7158C182.379 19.7152 182.378 19.7169 182.377 19.7202C182.376 19.7235 182.375 19.7269 182.373 19.7299C182.37 19.7371 182.37 19.7341 182.381 19.72C182.393 19.7052 182.419 19.6739 182.47 19.629L180.495 17.3712L178.519 15.1135C177.157 16.3054 176.375 17.9133 176.375 19.7712H179.375ZM180.495 17.3712L182.47 19.629C182.472 19.6279 182.533 19.5717 182.734 19.5121C182.944 19.4496 183.284 19.3912 183.795 19.3912V16.3912V13.3912C181.945 13.3912 180.019 13.8015 178.519 15.1135L180.495 17.3712ZM183.795 16.3912V19.3912H185.375V16.3912V13.3912H183.795V16.3912ZM185.375 16.3912H188.375V15.6712H185.375H182.375V16.3912H185.375ZM185.375 15.6712H188.375C188.375 14.6914 188.033 13.4835 186.949 12.6198C185.995 11.8597 184.906 11.7312 184.195 11.7312V14.7312V17.7312C184.195 17.7312 184.173 17.7313 184.132 17.7267C184.092 17.7221 184.026 17.7121 183.941 17.6895C183.772 17.6445 183.498 17.5418 183.211 17.3127C182.52 16.7623 182.375 16.0245 182.375 15.6712H185.375ZM184.195 14.7312V11.7312C183.194 11.7312 182.211 11.8408 181.279 12.1043L182.095 14.9912L182.911 17.8782C183.205 17.795 183.622 17.7312 184.195 17.7312V14.7312ZM182.095 14.9912H179.095V16.1312H182.095H185.095V14.9912H182.095ZM182.095 16.1312V13.1312H179.795V16.1312V19.1312H182.095V16.1312ZM179.795 16.1312H182.795V13.1512H179.795H176.795V16.1312H179.795ZM179.795 13.1512L180.879 15.9483C181.304 15.7839 181.86 15.6302 182.575 15.5092L182.075 12.5512L181.574 9.59331C180.556 9.76564 179.593 10.0119 178.71 10.3542L179.795 13.1512ZM182.075 12.5512L182.568 15.5104C183.36 15.3785 183.915 15.3312 184.275 15.3312V12.3312V9.33125C183.461 9.33125 182.55 9.43068 181.582 9.59207L182.075 12.5512ZM184.275 12.3312V15.3312C184.595 15.3312 184.778 15.374 184.864 15.4031C184.905 15.4172 184.926 15.4287 184.933 15.4328C184.94 15.4367 184.941 15.4381 184.942 15.4385L186.995 13.2512L189.048 11.064C187.69 9.78874 185.965 9.33125 184.275 9.33125V12.3312ZM186.995 13.2512L184.966 15.4608C184.973 15.4674 184.969 15.4655 184.962 15.4549C184.955 15.4442 184.95 15.435 184.949 15.4323C184.946 15.4241 184.975 15.488 184.975 15.6712H187.975H190.975C190.975 13.9497 190.387 12.2932 189.024 11.0417L186.995 13.2512ZM187.975 15.6712H184.975V20.4312H187.975H190.975V15.6712H187.975ZM187.975 20.4312V23.4312H189.615V20.4312V17.4312H187.975V20.4312ZM189.615 20.4312H186.615V22.1712H189.615H192.615V20.4312H189.615ZM189.615 22.1712L188.2 19.5259C188.183 19.5352 187.986 19.6313 187.455 19.6313V22.6313V25.6313C188.657 25.6313 189.9 25.4207 191.03 24.8166L189.615 22.1712ZM187.455 22.6313V19.6313C187.267 19.6313 187.193 19.6146 187.202 19.6165C187.21 19.6183 187.362 19.6524 187.57 19.7925C187.798 19.9459 188.032 20.1874 188.193 20.5124C188.348 20.8243 188.375 21.0918 188.375 21.2312H185.375H182.375C182.375 22.5596 182.938 23.907 184.22 24.77C185.291 25.4909 186.519 25.6313 187.455 25.6313V22.6313ZM182.795 20.3312V23.3312C185.063 23.3312 186.711 21.9455 187.796 20.4628L185.375 18.6912L182.954 16.9197C182.706 17.2584 182.55 17.3709 182.52 17.3895C182.511 17.3955 182.536 17.3785 182.593 17.3609C182.652 17.3427 182.723 17.3312 182.795 17.3312V20.3312ZM185.375 18.6912H188.375V18.6112H185.375H182.375V18.6912H185.375ZM185.375 18.6112V15.6112H183.775V18.6112V21.6112H185.375V18.6112ZM183.775 18.6112V15.6112C182.922 15.6112 181.703 15.7393 180.65 16.505L182.415 18.9312L184.179 21.3575C183.926 21.5419 183.718 21.5983 183.662 21.6115C183.605 21.6248 183.631 21.6112 183.775 21.6112V18.6112ZM182.415 18.9312L180.65 16.505C179.588 17.2779 178.975 18.4629 178.975 19.7912H181.975H184.975C184.975 20.0296 184.923 20.3452 184.756 20.6727C184.588 20.9993 184.365 21.2223 184.179 21.3575L182.415 18.9312ZM181.975 19.7912H178.975C178.975 20.861 179.455 21.9942 180.53 22.7018C181.385 23.265 182.288 23.3312 182.795 23.3312V20.3312V17.3312C182.813 17.3312 182.918 17.3319 183.079 17.3673C183.239 17.4023 183.518 17.4856 183.83 17.6907C184.161 17.9091 184.482 18.236 184.703 18.6727C184.918 19.0977 184.975 19.4992 184.975 19.7912H181.975ZM193.97 20.3312H190.97V23.3312H193.97V20.3312ZM195.41 20.3312H198.41V17.3312H195.41V20.3312ZM195.41 22.5312V25.5312H198.41V22.5312H195.41ZM189.83 22.5312H186.83V25.5312H189.83V22.5312ZM189.83 20.3312V17.3312H186.83V20.3312H189.83ZM191.37 20.3312V23.3312H194.37V20.3312H191.37ZM191.37 14.7312H194.37V11.7312H191.37V14.7312ZM189.83 14.7312H186.83V17.7312H189.83V14.7312ZM189.83 12.5312V9.53125H186.83V12.5312H189.83ZM193.59 12.5312L196.516 11.8688L195.987 9.53125H193.59V12.5312ZM193.83 13.5912L190.904 14.2537L191.874 18.5395L195.513 16.075L193.83 13.5912ZM197.07 12.3312L197.69 9.39604L197.383 9.33125H197.07V12.3312ZM198.49 12.6312L201.364 13.4912L202.298 10.3696L199.11 9.69604L198.49 12.6312ZM197.73 15.1712L196.957 18.07L199.77 18.82L200.604 16.0312L197.73 15.1712ZM196.83 14.9312L197.603 12.0325L197.223 11.9312H196.83V14.9312ZM193.97 15.7712L192.504 13.1537L190.97 14.0129V15.7712H193.97ZM193.97 20.3312V23.3312H195.41V20.3312V17.3312H193.97V20.3312ZM195.41 20.3312H192.41V22.5312H195.41H198.41V20.3312H195.41ZM195.41 22.5312V19.5312H189.83V22.5312V25.5312H195.41V22.5312ZM189.83 22.5312H192.83V20.3312H189.83H186.83V22.5312H189.83ZM189.83 20.3312V23.3312H191.37V20.3312V17.3312H189.83V20.3312ZM191.37 20.3312H194.37V14.7312H191.37H188.37V20.3312H191.37ZM191.37 14.7312V11.7312H189.83V14.7312V17.7312H191.37V14.7312ZM189.83 14.7312H192.83V12.5312H189.83H186.83V14.7312H189.83ZM189.83 12.5312V15.5312H193.59V12.5312V9.53125H189.83V12.5312ZM193.59 12.5312L190.664 13.1937L190.904 14.2537L193.83 13.5912L196.756 12.9288L196.516 11.8688L193.59 12.5312ZM193.83 13.5912L195.513 16.075C196.539 15.3794 197.019 15.3312 197.07 15.3312V12.3312V9.33125C195.281 9.33125 193.601 10.1231 192.147 11.1075L193.83 13.5912ZM197.07 12.3312L196.45 15.2665L197.87 15.5665L198.49 12.6312L199.11 9.69604L197.69 9.39604L197.07 12.3312ZM198.49 12.6312L195.616 11.7713L194.856 14.3113L197.73 15.1712L200.604 16.0312L201.364 13.4912L198.49 12.6312ZM197.73 15.1712L198.503 12.2725L197.603 12.0325L196.83 14.9312L196.057 17.83L196.957 18.07L197.73 15.1712ZM196.83 14.9312V11.9312C195.292 11.9312 193.836 12.408 192.504 13.1537L193.97 15.7712L195.436 18.3888C196.104 18.0145 196.555 17.9312 196.83 17.9312V14.9312ZM193.97 15.7712H190.97V20.3312H193.97H196.97V15.7712H193.97ZM198.473 14.7312H195.473V17.7312H198.473V14.7312ZM198.473 12.7312L198.131 9.75087L195.473 10.0563V12.7312H198.473ZM200.213 12.5312L200.556 15.5116L202.338 15.3068L203.001 13.6396L200.213 12.5312ZM201.073 9.89125V6.89125H198.624L198.134 9.29137L201.073 9.89125ZM202.813 9.89125H205.813V6.89125H202.813V9.89125ZM202.813 12.5312H199.813V15.5312H202.813V12.5312ZM205.193 12.5312H208.193V9.53125H205.193V12.5312ZM205.193 14.7312V17.7312H208.193V14.7312H205.193ZM202.813 14.7312V11.7312H199.813V14.7312H202.813ZM202.913 20.1912L200.291 21.6482L200.39 21.8273L200.513 21.9912L202.913 20.1912ZM204.733 19.9712L207.448 18.6939L206.24 16.1265L203.609 17.1899L204.733 19.9712ZM205.693 22.0112L207.164 24.626L209.596 23.2582L208.408 20.7339L205.693 22.0112ZM200.853 21.9712L198.559 23.9037L198.573 23.9211L198.588 23.9383L200.853 21.9712ZM200.213 14.7312H203.213V11.7312H200.213V14.7312ZM198.473 14.7312H201.473V12.7312H198.473H195.473V14.7312H198.473ZM198.473 12.7312L198.816 15.7116L200.556 15.5116L200.213 12.5312L199.871 9.55087L198.131 9.75087L198.473 12.7312ZM200.213 12.5312L203.001 13.6396C203.464 12.4749 203.827 11.4027 204.013 10.4911L201.073 9.89125L198.134 9.29137C198.053 9.68642 197.843 10.3743 197.426 11.4229L200.213 12.5312ZM201.073 9.89125V12.8912H202.813V9.89125V6.89125H201.073V9.89125ZM202.813 9.89125H199.813V12.5312H202.813H205.813V9.89125H202.813ZM202.813 12.5312V15.5312H205.193V12.5312V9.53125H202.813V12.5312ZM205.193 12.5312H202.193V14.7312H205.193H208.193V12.5312H205.193ZM205.193 14.7312V11.7312H202.813V14.7312V17.7312H205.193V14.7312ZM202.813 14.7312H199.813V19.6712H202.813H205.813V14.7312H202.813ZM202.813 19.6712H199.813C199.813 20.1131 199.865 20.8812 200.291 21.6482L202.913 20.1912L205.536 18.7343C205.694 19.0185 205.757 19.2638 205.784 19.4047C205.812 19.5486 205.813 19.645 205.813 19.6712H202.813ZM202.913 20.1912L200.513 21.9912C201.508 23.3173 203.007 23.3512 203.413 23.3512V20.3512V17.3512C203.471 17.3512 203.701 17.3541 204.013 17.454C204.339 17.5582 204.879 17.8117 205.313 18.3913L202.913 20.1912ZM203.413 20.3512V23.3512C203.961 23.3512 204.454 23.2284 204.763 23.1392C205.118 23.0371 205.489 22.9017 205.858 22.7526L204.733 19.9712L203.609 17.1899C203.484 17.2404 203.379 17.2804 203.292 17.3115C203.204 17.3428 203.142 17.3622 203.104 17.3733C203.063 17.3851 203.064 17.3828 203.099 17.3763C203.118 17.3729 203.153 17.367 203.202 17.3619C203.25 17.3568 203.322 17.3512 203.413 17.3512V20.3512ZM204.733 19.9712L202.019 21.2486L202.979 23.2886L205.693 22.0112L208.408 20.7339L207.448 18.6939L204.733 19.9712ZM205.693 22.0112L204.223 19.3965C203.816 19.6255 203.408 19.7313 202.953 19.7313V22.7313V25.7313C204.445 25.7313 205.865 25.357 207.164 24.626L205.693 22.0112ZM202.953 22.7313V19.7313C202.726 19.7313 202.673 19.6998 202.729 19.7203C202.762 19.732 202.822 19.7579 202.896 19.8076C202.972 19.8582 203.049 19.9242 203.119 20.0042L200.853 21.9712L198.588 23.9383C199.81 25.3448 201.51 25.7313 202.953 25.7313V22.7313ZM200.853 21.9712L203.148 20.0388C203.17 20.0645 203.189 20.0924 203.204 20.1196C203.218 20.1466 203.226 20.1661 203.228 20.1736C203.233 20.188 203.213 20.1374 203.213 19.9912H200.213H197.213C197.213 21.3447 197.579 22.7408 198.559 23.9037L200.853 21.9712ZM200.213 19.9912H203.213V14.7312H200.213H197.213V19.9912H200.213ZM200.213 14.7312V11.7312H198.473V14.7312V17.7312H200.213V14.7312Z" fill="#9A5858" fill-opacity="0.9" mask="url(#path-3-outside-2_4324_36662)"/>
</g>
<defs>
<filter id="filter0_d_4324_36662" x="0.517578" y="0" width="47.9629" height="37.0625" filterUnits="userSpaceOnUse" color-interpolation-filters="sRGB">
<feFlood flood-opacity="0" result="BackgroundImageFix"/>
<feColorMatrix in="SourceAlpha" type="matrix" values="0 0 0 0 0 0 0 0 0 0 0 0 0 0 0 0 0 0 127 0" result="hardAlpha"/>
<feOffset dy="3"/>
<feGaussianBlur stdDeviation="2"/>
<feComposite in2="hardAlpha" operator="out"/>
<feColorMatrix type="matrix" values="0 0 0 0 0 0 0 0 0 0 0 0 0 0 0 0 0 0 0.25 0"/>
<feBlend mode="normal" in2="BackgroundImageFix" result="effect1_dropShadow_4324_36662"/>
<feBlend mode="normal" in="SourceGraphic" in2="effect1_dropShadow_4324_36662" result="shape"/>
</filter>
</defs>
</svg>
