<svg width="55" height="55" viewBox="0 0 55 55" fill="none" xmlns="http://www.w3.org/2000/svg">
<path d="M22.9963 19.3442C24.8696 17.0214 27.5132 10.5567 23.6293 9.94949C19.7453 9.34229 16.4559 10.2359 14.5826 12.5587C12.7079 14.8832 13.0723 18.2844 15.3959 20.1584C17.7196 22.0324 21.1216 21.6687 22.9963 19.3442ZM31.5128 35.2971C31.5111 34.7008 31.4336 33.9497 31.3112 33.1287C31.3685 30.4619 30.2423 27.7983 28.0057 25.9946C26.0151 24.3892 23.5459 23.7889 21.198 24.112C19.9755 24.1577 18.8446 24.2527 18.0333 24.4268L17.4933 24.5396C14.9759 25.0635 11.8431 25.7148 9.21963 28.9915C6.78377 32.0347 7.2626 36.4976 10.2881 38.9376C11.1263 39.6166 12.1099 40.0927 13.1624 40.3289C14.2149 40.5651 16.1414 40.7057 16.6702 40.05C16.1414 40.7057 16.5491 42.4482 17.0031 43.427C17.457 44.4058 18.1311 45.2664 18.9727 45.9416C21.9969 48.3806 26.4592 47.9034 28.9182 44.8781C31.5649 41.6201 31.5374 38.4201 31.5166 35.8492L31.5128 35.2971Z" fill="#13BDA2"/>
<path d="M44.9761 27.1653C46.5235 31.1726 46.2164 34.2372 44.3431 36.56C42.4684 38.8845 39.0664 39.2482 36.7427 37.3742C34.4191 35.5002 34.0547 32.099 35.9294 29.7745C37.8027 27.4517 43.4286 23.1579 44.9761 27.1653Z" fill="#13BDA2"/>
<path d="M30.4608 23.547C33.0209 25.6116 36.7699 25.21 38.8345 22.65C40.8991 20.09 41.9798 13.927 39.7013 12.0894C37.4227 10.2518 31.6285 12.6133 29.5638 15.1734C27.4992 17.7334 27.9008 21.4824 30.4608 23.547Z" fill="#13BDA2"/>
</svg>
