<svg width="1401" height="1035" viewBox="0 0 1401 1035" fill="none" xmlns="http://www.w3.org/2000/svg">
<path opacity="0.13" d="M696.072 1034.3C-535.372 597.33 128.995 -350.964 696.243 135.196C697.362 136.155 698.846 136.738 700.32 136.738C701.794 136.738 703.278 136.155 704.397 135.196C1271.64 -350.964 1936.01 597.33 704.568 1034.3C703.317 1034.75 701.926 1035 700.599 1035H700.041C698.714 1035 697.323 1034.75 696.072 1034.3Z" fill="#FAA685"/>
<path opacity="0.13" d="M696.497 982.624C-411.803 589.348 186.128 -264.117 696.651 173.427C697.658 174.29 698.994 174.814 700.32 174.814C701.647 174.814 702.983 174.29 703.99 173.427C1214.51 -264.117 1812.44 589.348 704.144 982.624C703.018 983.024 701.766 983.25 700.571 983.25H700.069C698.875 983.25 697.622 983.024 696.497 982.624Z" fill="#FAA685"/>
</svg>
