<svg width="584" height="444" viewBox="0 0 584 444" fill="none" xmlns="http://www.w3.org/2000/svg">
<path d="M379.695 410.206L355.695 170.701L37.1953 181.408L46.6953 443.454L379.695 410.206Z" fill="#F0ABAB"/>
<path d="M279.694 3.89316C256.894 -6.02514 108.195 3.89316 78.1945 23.6174C48.1945 43.3416 -6.80469 196.624 0.695312 210.149C8.19531 223.674 384.694 176.899 396.194 174.082C407.694 171.264 308.194 16.291 279.694 3.89316Z" fill="#DE3A3A"/>
<mask id="mask0_5166_36348" style="mask-type:alpha" maskUnits="userSpaceOnUse" x="0" y="0" width="398" height="213">
<path d="M279.694 3.89316C256.894 -6.02514 108.195 3.89316 78.1945 23.6174C48.1945 43.3416 -6.80469 196.624 0.695312 210.149C8.19531 223.674 384.694 176.899 396.194 174.082C407.694 171.264 308.194 16.291 279.694 3.89316Z" fill="#DE3A3A"/>
</mask>
<g mask="url(#mask0_5166_36348)">
<path d="M94.6727 -1.73069C84.7732 -0.241064 56.2296 141.646 43.1953 212.403H70.9139C82.9583 140.404 104.572 -3.22031 94.6727 -1.73069Z" fill="#BA2A2A"/>
<path d="M249.324 -21.2401C259.31 -21.1213 302.983 115.787 323.571 184.227L296.059 188.034C276.32 118.226 239.337 -21.3589 249.324 -21.2401Z" fill="#BA2A2A"/>
<path d="M208.347 -14.029C218.194 -12.1509 242.327 130.772 253.162 201.999L225.46 200.909C215.653 128.48 198.499 -15.9071 208.347 -14.029Z" fill="#BA2A2A"/>
<path d="M145.041 -15.0014C135.47 -11.7846 126.971 133.388 123.918 205.572L151.295 200.685C153.198 127.449 154.611 -18.2181 145.041 -15.0014Z" fill="#BA2A2A"/>
</g>
<path d="M232.153 257.486C151.353 257.486 170.82 373.861 190.653 432.048L287.153 421.905C302.486 367.098 312.953 257.486 232.153 257.486Z" fill="#D97B7B"/>
<path d="M257.695 218.602C205.295 192.453 161.196 218.602 159.696 242.27C158.196 265.939 242.695 247.798 260.195 234.944C265.695 242.27 279.695 245.088 289.195 232.69C271.195 229.872 274.695 210.149 283.695 201.695C281.195 199.629 272.495 200.117 257.695 218.602Z" fill="#68A3C5"/>
<g filter="url(#filter0_d_5166_36348)">
<path d="M493 395.962C494.439 390.668 537.89 390.379 549.112 396.924C563.14 405.106 494.439 415.212 493 395.962Z" fill="#236E99" stroke="#68A3C5" stroke-width="4"/>
<path d="M499.592 392.89C491.097 386.798 462.734 413.622 470.256 423.735C477.778 433.848 564.132 433.342 569.548 429.297C576.318 424.24 557.888 389.35 545.853 397.441C534.984 404.747 510.875 400.98 499.592 392.89Z" fill="#68A3C5"/>
</g>
<defs>
<filter id="filter0_d_5166_36348" x="469" y="390" width="115" height="47" filterUnits="userSpaceOnUse" color-interpolation-filters="sRGB">
<feFlood flood-opacity="0" result="BackgroundImageFix"/>
<feColorMatrix in="SourceAlpha" type="matrix" values="0 0 0 0 0 0 0 0 0 0 0 0 0 0 0 0 0 0 127 0" result="hardAlpha"/>
<feOffset dx="13" dy="5"/>
<feComposite in2="hardAlpha" operator="out"/>
<feColorMatrix type="matrix" values="0 0 0 0 0 0 0 0 0 0 0 0 0 0 0 0 0 0 0.13 0"/>
<feBlend mode="normal" in2="BackgroundImageFix" result="effect1_dropShadow_5166_36348"/>
<feBlend mode="normal" in="SourceGraphic" in2="effect1_dropShadow_5166_36348" result="shape"/>
</filter>
</defs>
</svg>
