<svg width="393" height="322" viewBox="0 0 393 322" fill="none" xmlns="http://www.w3.org/2000/svg">
<g filter="url(#filter0_d_3738_91631)">
<path d="M48.75 12.6113C54.1738 12.9483 59.5555 13.6442 64.8369 14.7061C73.7367 16.5177 82.1995 19.4189 89.9385 23.2725C97.5649 27.105 104.405 31.8067 110.222 37.21C115.826 42.4353 120.583 48.1638 124.39 54.2793C128.059 60.1746 131.055 66.2898 133.352 72.583C135.511 78.709 137.171 84.9296 138.345 91.2021C139.318 96.9302 140.005 102.679 140.404 108.449C144.461 107.245 148.642 106.271 152.911 105.527C159.814 104.396 166.867 103.915 173.919 104.114C190.42 104.701 206.422 108.69 220.277 115.664C234.133 122.638 245.341 132.335 252.743 143.771C258.797 152.965 262.017 163.111 262.18 173.437C262.18 174.306 262.155 175.185 262.117 176.064C268.957 175.405 275.936 175.436 282.876 176.19C301.562 178.212 318.949 184.767 332.542 194.914C332.517 195.092 332.492 195.27 332.455 195.448C341.529 202.349 348.469 210.737 352.788 219.994C353.312 221.146 353.799 222.319 354.236 223.491L354.373 223.449C354.435 223.428 354.498 223.408 354.561 223.387C354.685 223.345 354.811 223.303 354.936 223.261C365.246 219.899 376.18 217.816 387.326 217.083C394.616 216.696 401.943 216.999 409.133 218.004L414.587 218.946C415.947 219.24 417.296 219.585 418.645 219.92C419.094 220.035 419.53 220.151 419.967 220.256C421.752 220.717 423.5 221.25 425.21 221.857C427.02 222.423 428.779 223.072 430.489 223.795C437.467 226.758 443.633 230.759 448.639 235.555C453.369 240.089 457.127 245.189 459.735 250.655C462.344 256.09 463.755 261.828 463.904 267.619C464.091 273.703 462.581 279.734 459.474 285.326C457.851 288.216 455.728 290.929 453.194 293.39C450.635 295.819 447.702 297.987 444.457 299.851C433.036 306.081 422.102 308.532 408.621 310.009C403.953 310.511 399.284 311.024 394.616 311.475C383.282 312.553 371.898 313.276 360.515 313.778C308.027 316.113 255.365 318.333 202.79 319.213L48.75 321.8L-105.29 319.213C-157.865 318.333 -210.527 316.113 -263.015 313.778C-274.398 313.276 -285.782 312.553 -297.116 311.475C-301.784 311.024 -306.453 310.511 -311.121 310.009C-324.602 308.532 -335.536 306.081 -346.957 299.851C-350.202 297.987 -353.136 295.819 -355.694 293.39C-358.228 290.929 -360.351 288.216 -361.974 285.326C-365.081 279.734 -366.591 273.703 -366.404 267.619C-366.255 261.828 -364.844 256.09 -362.235 250.655C-359.627 245.189 -355.869 240.089 -351.139 235.555C-346.133 230.759 -339.967 226.758 -332.989 223.795C-331.279 223.072 -329.52 222.423 -327.71 221.857C-326 221.25 -324.252 220.717 -322.467 220.256C-322.03 220.151 -321.594 220.035 -321.145 219.92C-319.796 219.585 -318.447 219.24 -317.087 218.946L-311.633 218.004C-304.443 216.999 -297.116 216.696 -289.826 217.083C-278.68 217.816 -267.746 219.899 -257.436 223.261C-257.311 223.303 -257.185 223.345 -257.061 223.387C-256.998 223.408 -256.935 223.428 -256.873 223.449L-256.736 223.491C-256.299 222.319 -255.812 221.146 -255.288 219.994C-250.969 210.737 -244.029 202.349 -234.955 195.448C-234.993 195.27 -235.017 195.092 -235.042 194.914C-221.449 184.767 -204.062 178.212 -185.376 176.19C-178.436 175.436 -171.457 175.405 -164.617 176.064C-164.655 175.185 -164.68 174.306 -164.68 173.437C-164.517 163.111 -161.297 152.965 -155.243 143.771C-147.841 132.335 -136.633 122.638 -122.777 115.664C-108.922 108.69 -92.9202 104.701 -76.4189 104.114C-69.3665 103.915 -62.3138 104.396 -55.4111 105.527C-51.1423 106.271 -46.9609 107.245 -42.9043 108.449C-42.5049 102.679 -41.8183 96.9302 -40.8447 91.2021C-39.6714 84.9296 -38.011 78.709 -35.8516 72.583C-33.5549 66.2898 -30.5592 60.1746 -26.8896 54.2793C-23.0826 48.1638 -18.3262 42.4353 -12.7217 37.21C-6.90506 31.8067 -0.0649414 27.105 7.56152 23.2725C15.3005 19.4189 23.7633 16.5177 32.6631 14.7061C37.9445 13.6442 43.3262 12.9483 48.75 12.6113Z" fill="#FFFAE9"/>
</g>
<path opacity="0.25" d="M92.0372 80.4265C93.6636 77.4651 94.6896 73.471 92.4434 70.9496C90.2346 68.4664 86.1141 68.9827 83.2724 70.7073C80.4549 72.4127 78.2987 74.9979 76.198 77.5353C75.3665 74.6791 74.2378 71.9122 72.8359 69.2856C71.8798 67.4973 70.695 65.6835 68.8528 64.8324C65.6818 63.3661 61.8122 65.4508 59.9672 68.4185C58.8943 70.1431 58.2892 72.1577 58.2334 74.1882C58.1221 78.2302 60.1269 82.0264 62.4071 85.3689C64.411 88.3057 66.6714 91.0675 69.1554 93.6116C69.9933 94.4697 70.8921 95.3259 72.0166 95.7432C74.9016 96.8123 80.8656 92.2728 83.1519 90.5741C86.7881 87.8725 89.8549 84.3999 92.0372 80.4265Z" fill="#F00E46" fill-opacity="0.5"/>
<defs>
<filter id="filter0_d_3738_91631" x="-368.42" y="0.611328" width="834.34" height="321.189" filterUnits="userSpaceOnUse" color-interpolation-filters="sRGB">
<feFlood flood-opacity="0" result="BackgroundImageFix"/>
<feColorMatrix in="SourceAlpha" type="matrix" values="0 0 0 0 0 0 0 0 0 0 0 0 0 0 0 0 0 0 127 0" result="hardAlpha"/>
<feOffset dy="-10"/>
<feGaussianBlur stdDeviation="1"/>
<feComposite in2="hardAlpha" operator="out"/>
<feColorMatrix type="matrix" values="0 0 0 0 0 0 0 0 0 0 0 0 0 0 0 0 0 0 0.1 0"/>
<feBlend mode="normal" in2="BackgroundImageFix" result="effect1_dropShadow_3738_91631"/>
<feBlend mode="normal" in="SourceGraphic" in2="effect1_dropShadow_3738_91631" result="shape"/>
</filter>
</defs>
</svg>
