<svg width="393" height="340" viewBox="0 0 393 340" fill="none" xmlns="http://www.w3.org/2000/svg">
<g filter="url(#filter0_d_3738_91631)">
<path d="M48.75 12.2285C54.1738 12.5655 59.5555 13.2614 64.8369 14.3232C73.7367 16.1348 82.1995 19.0361 89.9385 22.8896C97.5649 26.7222 104.405 31.4239 110.222 36.8271C115.826 42.0525 120.583 47.781 124.39 53.8965C128.059 59.7918 131.055 65.907 133.352 72.2002C135.511 78.3261 137.171 84.5468 138.345 90.8193C139.318 96.5473 140.005 102.297 140.404 108.066C144.461 106.862 148.642 105.888 152.911 105.145C159.814 104.014 166.867 103.532 173.919 103.731C190.42 104.318 206.422 108.307 220.277 115.281C234.133 122.255 245.341 131.953 252.743 143.388C258.797 152.582 262.017 162.729 262.18 173.054C262.18 173.923 262.155 174.802 262.117 175.682C268.957 175.022 275.936 175.054 282.876 175.808C301.562 177.829 318.949 184.384 332.542 194.531C332.517 194.709 332.492 194.887 332.455 195.065C341.529 201.966 348.469 210.354 352.788 219.611C353.312 220.763 353.799 221.936 354.236 223.108L354.373 223.066C354.435 223.045 354.498 223.025 354.561 223.004C354.685 222.962 354.811 222.92 354.936 222.878C365.246 219.517 376.18 217.433 387.326 216.7C394.616 216.313 401.943 216.616 409.133 217.621L414.587 218.563C415.947 218.857 417.296 219.202 418.645 219.537C419.094 219.652 419.53 219.768 419.967 219.873C421.752 220.334 423.5 220.867 425.21 221.475C427.02 222.04 428.779 222.69 430.489 223.412C437.467 226.376 443.633 230.376 448.639 235.172C453.369 239.706 457.127 244.806 459.735 250.272C462.344 255.707 463.755 261.446 463.904 267.236C464.091 273.32 462.581 279.352 459.474 284.943C457.851 287.834 455.728 290.546 453.194 293.007C450.635 295.436 447.702 297.604 444.457 299.468C433.036 305.698 422.102 308.149 408.621 309.626C403.953 310.129 399.284 310.642 394.616 311.092C383.282 312.17 371.898 312.893 360.515 313.396C308.027 315.731 255.365 317.95 202.79 318.83L48.75 321.417L-105.29 318.83C-157.865 317.95 -210.527 315.731 -263.015 313.396C-274.398 312.893 -285.782 312.17 -297.116 311.092C-301.784 310.642 -306.453 310.129 -311.121 309.626C-324.602 308.149 -335.536 305.698 -346.957 299.468C-350.202 297.604 -353.136 295.436 -355.694 293.007C-358.228 290.546 -360.351 287.834 -361.974 284.943C-365.081 279.352 -366.591 273.32 -366.404 267.236C-366.255 261.446 -364.844 255.707 -362.235 250.272C-359.627 244.806 -355.869 239.706 -351.139 235.172C-346.133 230.376 -339.967 226.376 -332.989 223.412C-331.279 222.69 -329.52 222.04 -327.71 221.475C-326 220.867 -324.252 220.334 -322.467 219.873C-322.03 219.768 -321.594 219.652 -321.145 219.537C-319.796 219.202 -318.447 218.857 -317.087 218.563L-311.633 217.621C-304.443 216.616 -297.116 216.313 -289.826 216.7C-278.68 217.433 -267.746 219.517 -257.436 222.878C-257.311 222.92 -257.185 222.962 -257.061 223.004C-256.998 223.025 -256.935 223.045 -256.873 223.066L-256.736 223.108C-256.299 221.936 -255.812 220.763 -255.288 219.611C-250.969 210.354 -244.029 201.966 -234.955 195.065C-234.993 194.887 -235.017 194.709 -235.042 194.531C-221.449 184.384 -204.062 177.829 -185.376 175.808C-178.436 175.054 -171.457 175.022 -164.617 175.682C-164.655 174.802 -164.68 173.923 -164.68 173.054C-164.517 162.729 -161.297 152.582 -155.243 143.388C-147.841 131.953 -136.633 122.255 -122.777 115.281C-108.922 108.307 -92.9202 104.318 -76.4189 103.731C-69.3665 103.532 -62.3138 104.014 -55.4111 105.145C-51.1423 105.888 -46.9609 106.862 -42.9043 108.066C-42.5049 102.297 -41.8183 96.5473 -40.8447 90.8193C-39.6714 84.5468 -38.011 78.3261 -35.8516 72.2002C-33.5549 65.907 -30.5592 59.7918 -26.8896 53.8965C-23.0826 47.781 -18.3262 42.0525 -12.7217 36.8271C-6.90506 31.4239 -0.0649414 26.7222 7.56152 22.8896C15.3005 19.0361 23.7633 16.1348 32.6631 14.3232C37.9445 13.2614 43.3262 12.5655 48.75 12.2285Z" fill="#FFFAE9"/>
</g>
<path opacity="0.25" d="M9.33313 299.839C5.20064 292.314 2.59364 282.165 8.30103 275.758C13.9136 269.448 24.3838 270.761 31.6045 275.143C38.7637 279.476 44.2426 286.045 49.5806 292.492C51.6934 285.235 54.5613 278.204 58.1234 271.53C60.553 266.986 63.5635 262.377 68.2444 260.215C76.302 256.489 86.1346 261.786 90.8228 269.327C93.5489 273.709 95.0866 278.828 95.2283 283.988C95.5111 294.258 90.4169 303.904 84.6229 312.398C79.5312 319.86 73.7873 326.878 67.4756 333.342C65.3466 335.523 63.0628 337.698 60.2055 338.759C52.8746 341.475 37.7202 329.94 31.9107 325.624C22.6712 318.759 14.8785 309.935 9.33313 299.839Z" fill="#F00E46" fill-opacity="0.5"/>
<path opacity="0.25" d="M92.0372 80.0437C93.6636 77.0823 94.6896 73.0882 92.4434 70.5667C90.2346 68.0835 86.1141 68.5999 83.2724 70.3245C80.4549 72.0299 78.2987 74.6151 76.198 77.1524C75.3665 74.2963 74.2378 71.5294 72.8359 68.9028C71.8798 67.1145 70.695 65.3007 68.8528 64.4496C65.6818 62.9833 61.8122 65.068 59.9672 68.0357C58.8943 69.7603 58.2892 71.7749 58.2334 73.8054C58.1221 77.8474 60.1269 81.6435 62.4071 84.9861C64.411 87.9229 66.6714 90.6847 69.1554 93.2288C69.9933 94.0869 70.8921 94.9431 72.0166 95.3604C74.9016 96.4295 80.8656 91.89 83.1519 90.1913C86.7881 87.4897 89.8549 84.0171 92.0372 80.0437Z" fill="#F00E46" fill-opacity="0.5"/>
<defs>
<filter id="filter0_d_3738_91631" x="-368.42" y="0.228516" width="834.34" height="321.189" filterUnits="userSpaceOnUse" color-interpolation-filters="sRGB">
<feFlood flood-opacity="0" result="BackgroundImageFix"/>
<feColorMatrix in="SourceAlpha" type="matrix" values="0 0 0 0 0 0 0 0 0 0 0 0 0 0 0 0 0 0 127 0" result="hardAlpha"/>
<feOffset dy="-10"/>
<feGaussianBlur stdDeviation="1"/>
<feComposite in2="hardAlpha" operator="out"/>
<feColorMatrix type="matrix" values="0 0 0 0 0 0 0 0 0 0 0 0 0 0 0 0 0 0 0.1 0"/>
<feBlend mode="normal" in2="BackgroundImageFix" result="effect1_dropShadow_3738_91631"/>
<feBlend mode="normal" in="SourceGraphic" in2="effect1_dropShadow_3738_91631" result="shape"/>
</filter>
</defs>
</svg>
