<svg width="154" height="91" viewBox="0 0 154 91" fill="none" xmlns="http://www.w3.org/2000/svg">
<g opacity="0.7">
<path d="M24.0138 46.0322C26.4976 43.4743 29.6756 41.8214 33.0926 41.3098C36.3743 40.8175 39.7076 41.5459 42.5374 43.3598C42.7304 43.4836 42.9212 43.6124 43.1094 43.7462L42.7276 44.1018L38.7907 47.7675L38.4192 48.1135C38.3323 47.9122 38.249 47.7095 38.1693 47.5053C37.3176 45.3238 36.8769 42.982 36.875 40.6142C36.904 38.0118 37.4944 35.4516 38.6003 33.1325C39.954 30.249 42.0023 27.8026 44.5347 26.0449C47.0671 24.2872 49.9923 23.2815 53.0093 23.1314C54.2981 23.0817 55.5877 23.2019 56.849 23.4893C59.3403 24.0843 61.6663 25.2947 63.6403 27.0234L59.0948 29.4661C58.9827 26.2628 59.1224 23.0551 59.5124 19.8767C59.7262 18.2938 60.0307 16.7263 60.4243 15.1831C60.8438 13.5972 61.3916 12.0532 62.0614 10.5686C62.7572 9.02649 63.6265 7.58078 64.6501 6.26344C65.7136 4.89984 66.9635 3.71512 68.3575 2.74916C69.771 1.77617 71.3191 1.04713 72.9451 0.588855C74.5443 0.146245 76.1948 -0.0486164 77.8459 0.0102534C81.0239 0.147293 84.1373 1.01112 86.9759 2.54338C89.7258 4.00932 92.2383 5.93568 94.4183 8.24945C96.5843 10.5288 98.4324 13.1287 99.9058 15.9695C101.382 18.8007 102.49 21.8332 103.199 24.9835C103.544 26.556 103.799 28.1494 103.962 29.7548C104.082 31.061 104.145 32.3722 104.15 33.6843C104.151 33.9819 104.149 34.2794 104.144 34.577L103.853 34.5305L98.123 33.6169L97.813 33.5674C97.9041 33.1972 98.0049 32.8303 98.1153 32.467C98.7278 30.4517 99.6347 28.5497 100.804 26.8324C102.326 24.6341 104.401 22.9426 106.788 21.9547C109.181 21.0212 111.77 20.8149 114.266 21.3588C116.62 21.8621 118.849 22.8858 120.81 24.364C124.554 27.2382 127.345 31.3096 128.779 35.9896C129.47 38.2499 129.892 40.5937 130.036 42.9662L130.097 44.7241C130.108 45.3092 130.063 45.8877 130.047 46.4699L130.01 47.3418C129.995 47.632 129.952 47.9158 129.923 48.2031L129.727 49.9216C129.574 50.865 129.387 51.7985 129.213 52.7364L128.505 55.4772L122.746 51.8411L122.696 51.8093C122.723 51.7792 122.749 51.7492 122.776 51.7194C124.159 50.1834 125.761 48.89 127.522 47.8874C129.438 46.8029 131.558 46.1957 133.725 46.1111C135.891 46.0266 138.047 46.467 140.032 47.3993C141.979 48.3034 143.734 49.6185 145.193 51.2655C146.652 52.9126 147.783 54.8576 148.52 56.9837C149.283 59.1563 149.576 61.4853 149.376 63.7959C149.177 66.1065 148.49 68.3389 147.368 70.3259C146.31 72.1906 144.977 73.861 143.421 75.2728C143.352 75.3366 143.281 75.396 143.208 75.4511L143.195 75.4612C142.175 76.2263 141.08 76.8716 139.931 77.386C138.831 77.8673 137.694 78.2427 136.532 78.5076C134.385 78.9739 132.2 79.2091 130.01 79.2097C127.911 79.2418 125.963 79.1571 124.011 79.1244L118.144 78.9931L94.6723 78.4592L47.7281 77.3705C40.7774 77.2107 33.7724 76.7858 26.9232 76.363C20.3634 75.9554 12.8884 76.047 10.3206 74.8207C9.04095 74.209 9.04914 73.4773 9.98775 72.7706C11.7906 71.4132 17.026 70.1481 23.1608 70.0025C29.0645 69.8612 35.4988 70.0051 41.5821 70.2452C69.5971 71.3435 97.5811 71.8984 125.534 71.91C128.081 71.9855 130.631 71.8737 133.164 71.5756C135.463 71.2416 137.46 70.5509 138.974 69.4191C139.011 69.3915 139.048 69.3635 139.084 69.3354L138.858 69.524C138.897 69.4893 138.935 69.4544 138.974 69.4191C140.271 68.2346 141.314 66.7637 142.029 65.1072C142.742 63.2273 142.767 61.1295 142.097 59.2312C141.367 57.2194 140.041 55.5172 138.323 54.3827C136.647 53.2705 134.644 52.8657 132.704 53.2473C130.79 53.6367 128.966 54.8767 127.395 56.5919L127.362 56.6282C126.886 57.1485 126.259 57.4818 125.583 57.5743C124.908 57.6667 124.222 57.5129 123.639 57.1378C123.055 56.7626 122.607 56.188 122.367 55.5071C122.127 54.8261 122.109 54.0786 122.317 53.3855C122.474 52.8747 122.617 52.3597 122.746 51.8411C122.756 51.8006 122.766 51.76 122.776 51.7194C123.391 49.205 123.673 46.6081 123.612 44.0046C123.572 42.4657 123.374 40.9361 123.024 39.4429C122.662 37.9851 122.151 36.5745 121.498 35.2372C120.826 33.9449 120.006 32.7473 119.056 31.6721C118.129 30.6282 117.05 29.7503 115.862 29.0719C113.547 27.7302 110.907 27.361 108.769 28.2614C107.509 28.8009 106.415 29.7072 105.613 30.8772C105.024 31.7503 104.533 32.6927 104.15 33.6843C104.042 33.9627 103.943 34.2449 103.853 34.5305C103.775 34.7758 103.704 35.0237 103.64 35.2738L103.617 35.3546C103.421 36.0554 102.993 36.6561 102.413 37.0442C101.833 37.4324 101.14 37.5813 100.464 37.4632C99.7884 37.3452 99.1762 36.9681 98.742 36.4027C98.3078 35.8373 98.0815 35.1223 98.1053 34.3915C98.1143 34.1332 98.1202 33.875 98.123 33.6169C98.1272 33.2333 98.1246 32.85 98.1153 32.467C98.0473 29.6662 97.619 26.8856 96.8404 24.2037C95.8817 20.9209 94.3768 17.8496 92.3979 15.137C90.4518 12.438 88.0268 10.175 85.2614 8.47735C82.5366 6.83652 79.486 5.86796 76.5741 5.99777C74.4291 6.0779 72.3568 6.84826 70.6289 8.20788C68.8659 9.67675 67.4789 11.5975 66.5966 13.7918C66.0999 14.9441 65.7004 16.1414 65.4029 17.3694C65.2313 17.9852 65.1184 18.6291 64.9813 19.2624C64.88 19.9098 64.75 20.5486 64.6789 21.2077C64.35 23.8702 64.2313 26.5575 64.3239 29.2412L64.325 29.2807C64.3397 29.7789 64.2198 30.271 63.9796 30.6984C63.7395 31.1258 63.3894 31.4704 62.9709 31.691C62.5524 31.9117 62.0833 31.9991 61.6196 31.9428C61.1559 31.8865 60.7172 31.6889 60.3558 31.3736C58.4709 29.6776 56.0879 28.7431 53.6233 28.7334C51.1108 28.8024 48.6845 29.7266 46.6984 31.3714C44.7122 33.0163 43.2698 35.2956 42.5816 37.8772C42.1478 39.6855 42.138 41.5671 42.5374 43.3598C42.5929 43.609 42.6563 43.8565 42.7276 44.1018C42.8804 44.6278 43.0695 45.144 43.2943 45.646L43.3125 45.6877C43.5089 46.1433 43.5606 46.6548 43.4599 47.1446C43.3592 47.6345 43.1116 48.0758 42.7546 48.4016C42.3976 48.7274 41.9508 48.9198 41.4821 48.9497C41.0133 48.9795 40.5483 48.8452 40.1575 48.567C39.7225 48.257 39.265 47.9899 38.7907 47.7675C38.5865 47.6718 38.3792 47.5843 38.1693 47.5053C37.1488 47.1212 36.0655 46.9363 34.9714 46.9665C33.0705 47.0442 31.2228 47.6579 29.616 48.7454C28.0092 49.8329 26.7006 51.3553 25.8233 53.1579C25.3592 54.1369 25.0569 55.1868 24.9233 56.2619C24.9142 56.3352 24.9058 56.4086 24.8983 56.4821C24.8148 57.2967 24.8278 58.124 24.9404 58.9441C24.9963 59.3533 24.9377 59.7711 24.7721 60.1449C24.6065 60.5187 24.3412 60.832 24.0095 61.0454C23.6778 61.2588 23.2945 61.3628 22.9076 61.3444C22.5208 61.326 22.1476 61.186 21.835 60.9419L21.8187 60.9292L21.209 60.4504C20.8202 60.1452 20.4204 59.8583 20.0107 59.5901C19.8699 59.4978 19.7279 59.4078 19.5848 59.32C17.7114 58.1709 15.6474 57.4044 13.4986 57.0669C12.2007 56.8993 10.885 56.9893 9.61784 57.3326C9.30852 57.4154 9.00437 57.5189 8.70722 57.6425C8.42256 57.747 8.14707 57.8781 7.88394 58.0342C7.34793 58.3462 6.85437 58.7349 6.41694 59.1896C5.50409 60.1261 4.80078 61.2704 4.35933 62.5373C3.91789 63.8043 3.7497 65.1613 3.86728 66.5072C4.01595 67.8395 4.59559 69.0745 5.5061 69.999C5.97908 70.504 6.48234 70.9757 7.01269 71.4109C7.54864 71.8247 8.14241 72.1456 8.77206 72.3616C9.2143 72.5214 9.62412 72.6509 9.98775 72.7706C10.1035 72.8087 10.2146 72.8459 10.3206 72.8827C10.6905 73.0072 11.0508 73.1618 11.3984 73.3453C11.955 73.6511 12.1873 73.9455 12.0804 74.1942C11.9735 74.4428 11.5266 74.646 10.7279 74.7678C10.2288 74.8449 9.7246 74.8775 9.22048 74.8653C8.41496 74.8531 7.61574 74.7116 6.84967 74.4454C6.2 74.2066 5.57693 73.8921 4.9917 73.5076C4.45304 73.1593 3.99663 72.8172 3.55715 72.4867C2.96319 72.0171 2.42697 71.4695 1.96113 70.8569C1.49717 70.2351 1.11111 69.5514 0.81275 68.823C0.244392 67.4159 -0.0318806 65.8941 0.00292388 64.3621C0.0309096 62.9011 0.288369 61.4555 0.764569 60.0855C1.242 58.7067 1.92706 57.4204 2.79272 56.2775C3.70667 55.0667 4.83399 54.0589 6.11093 53.3113C6.42373 53.1291 6.74578 52.9656 7.07557 52.8216C7.38739 52.6677 7.70731 52.5332 8.03373 52.4189C8.35969 52.3073 8.68592 52.1877 9.01553 52.0913L10.0132 51.853C11.328 51.601 12.6668 51.5231 13.9993 51.6209C16.0376 51.8052 18.036 52.3314 19.9208 53.1802C21.6981 53.9897 23.3776 55.0244 24.9233 56.2619C24.9706 56.2998 25.0178 56.3379 25.0649 56.3762L24.8983 56.4821L20.0107 59.5901L19.6453 59.8225C19.6227 59.6553 19.6026 59.4878 19.5848 59.32C19.4698 58.2349 19.4551 57.1399 19.5409 56.0509C19.6592 54.7913 19.9179 53.5513 20.3118 52.3573C21.1002 50.0225 22.3704 47.9072 24.0285 46.168C24.0214 46.1231 24.0165 46.0777 24.0138 46.0322Z" fill="#A0D8CF"/>
<path d="M42.5374 43.3598C42.7304 43.4836 42.9212 43.6124 43.1094 43.7462L42.7276 44.1018C42.8804 44.6278 43.0695 45.144 43.2943 45.646L43.3125 45.6877C43.5089 46.1433 43.5606 46.6548 43.4599 47.1446C43.3592 47.6345 43.1116 48.0758 42.7546 48.4016C42.3976 48.7274 41.9508 48.9198 41.4821 48.9497C41.0133 48.9795 40.5483 48.8452 40.1575 48.567C39.7225 48.257 39.265 47.9899 38.7907 47.7675L38.4192 48.1135C38.3323 47.9122 38.249 47.7095 38.1693 47.5053C37.1488 47.1212 36.0655 46.9363 34.9714 46.9665C33.0705 47.0442 31.2228 47.6579 29.616 48.7454C28.0092 49.8329 26.7006 51.3553 25.8233 53.1579C25.3592 54.1369 25.0569 55.1868 24.9233 56.2619C24.9706 56.2998 25.0178 56.3379 25.0649 56.3762L24.8983 56.4821C24.8148 57.2967 24.8278 58.124 24.9404 58.9441C24.9963 59.3533 24.9377 59.7711 24.7721 60.1449C24.6065 60.5187 24.3412 60.832 24.0095 61.0454C23.6778 61.2588 23.2945 61.3628 22.9076 61.3444C22.5208 61.326 22.1476 61.186 21.835 60.9419L21.8187 60.9292L21.209 60.4504C20.8202 60.1452 20.4204 59.8583 20.0107 59.5901L19.6453 59.8225C19.6227 59.6553 19.6026 59.4878 19.5848 59.32C17.7114 58.1709 15.6474 57.4044 13.4986 57.0669C12.2007 56.8993 10.885 56.9893 9.61784 57.3326C9.30852 57.4154 9.00437 57.5189 8.70722 57.6425C8.42256 57.747 8.14707 57.8781 7.88394 58.0342C7.34793 58.3462 6.85437 58.7349 6.41694 59.1896C5.50409 60.1261 4.80078 61.2704 4.35933 62.5373C3.91789 63.8043 3.7497 65.1613 3.86728 66.5072C4.01595 67.8395 4.59559 69.0745 5.5061 69.999C5.97908 70.504 6.48234 70.9757 7.01269 71.4109C7.54864 71.8247 8.14241 72.1456 8.77206 72.3616C9.2143 72.5214 9.62412 72.6509 9.98775 72.7706C11.7906 71.4132 17.026 70.1481 23.1608 70.0025C29.0645 69.8612 35.4988 70.0051 41.5821 70.2452C69.5971 71.3435 97.5811 71.8984 125.534 71.91C128.081 71.9855 130.631 71.8737 133.164 71.5756C135.463 71.2416 137.46 70.5509 138.974 69.4191C140.271 68.2346 141.314 66.7637 142.029 65.1072C142.742 63.2273 142.767 61.1295 142.097 59.2312C141.367 57.2194 140.041 55.5172 138.323 54.3827C136.647 53.2705 134.644 52.8657 132.704 53.2473C130.79 53.6367 128.966 54.8767 127.395 56.5919L127.362 56.6282C126.886 57.1485 126.259 57.4818 125.583 57.5743C124.908 57.6667 124.222 57.5129 123.639 57.1378C123.055 56.7626 122.607 56.188 122.367 55.5071C122.127 54.8261 122.109 54.0786 122.317 53.3855C122.474 52.8747 122.617 52.3597 122.746 51.8411L122.696 51.8093C122.723 51.7792 122.749 51.7492 122.776 51.7194C123.391 49.205 123.673 46.6081 123.612 44.0046C123.572 42.4657 123.374 40.9361 123.024 39.4429C122.662 37.9851 122.151 36.5745 121.498 35.2372C120.826 33.9449 120.006 32.7473 119.056 31.6721C118.129 30.6282 117.05 29.7503 115.862 29.0719C113.547 27.7302 110.907 27.361 108.769 28.2614C107.509 28.8009 106.415 29.7072 105.613 30.8772C105.024 31.7503 104.533 32.6927 104.15 33.6843C104.151 33.9819 104.149 34.2794 104.144 34.577L103.853 34.5305C103.775 34.7758 103.704 35.0237 103.64 35.2738L103.617 35.3546C103.421 36.0554 102.993 36.6561 102.413 37.0442C101.833 37.4324 101.14 37.5813 100.464 37.4632C99.7884 37.3452 99.1762 36.9681 98.742 36.4027C98.3078 35.8373 98.0815 35.1223 98.1053 34.3915C98.1143 34.1332 98.1202 33.875 98.123 33.6169L97.813 33.5674C97.9041 33.1972 98.0049 32.8303 98.1153 32.467C98.0473 29.6662 97.619 26.8856 96.8404 24.2037C95.8817 20.9209 94.3768 17.8496 92.3979 15.137C90.4518 12.438 88.0268 10.175 85.2614 8.47735C82.5366 6.83652 79.486 5.86796 76.5741 5.99777C74.4291 6.0779 72.3568 6.84826 70.6289 8.20788C68.8659 9.67675 67.4789 11.5975 66.5966 13.7918C66.0999 14.9441 65.7004 16.1414 65.4029 17.3694C65.2313 17.9852 65.1184 18.6291 64.9813 19.2624C64.88 19.9098 64.75 20.5486 64.6789 21.2077C64.35 23.8702 64.2313 26.5575 64.3239 29.2412L64.325 29.2807C64.3397 29.7789 64.2198 30.271 63.9796 30.6984C63.7395 31.1258 63.3894 31.4704 62.9709 31.691C62.5524 31.9117 62.0833 31.9991 61.6196 31.9428C61.1559 31.8865 60.7172 31.6889 60.3558 31.3736C58.4709 29.6776 56.0879 28.7431 53.6233 28.7334C51.1108 28.8024 48.6845 29.7266 46.6984 31.3714C44.7122 33.0163 43.2698 35.2956 42.5816 37.8772C42.1478 39.6855 42.138 41.5671 42.5374 43.3598Z" fill="#A0D8CF"/>
</g>
<path opacity="0.8" d="M28.5763 57.7182C31.0601 55.1604 34.2381 53.5074 37.6551 52.9959C41.1608 52.47 44.7252 53.337 47.6719 55.4323L42.9817 59.7995C41.9664 57.448 41.4396 54.8897 41.4375 52.3003C41.4665 49.6979 42.0569 47.1377 43.1628 44.8186C44.5165 41.9351 46.5648 39.4887 49.0972 37.731C51.6296 35.9732 54.5548 34.9676 57.5718 34.8175C58.8606 34.7677 60.1502 34.8879 61.4115 35.1754C63.9028 35.7703 66.2288 36.9807 68.2028 38.7095L63.6573 41.1521C63.5452 37.9489 63.6849 34.7412 64.0749 31.5628C64.2887 29.9798 64.5932 28.4123 64.9868 26.8692C65.4063 25.2833 65.9541 23.7393 66.6239 22.2546C67.3197 20.7125 68.189 19.2668 69.2126 17.9495C70.2761 16.5859 71.526 15.4012 72.92 14.4352C74.3335 13.4622 75.8816 12.7332 77.5076 12.2749C79.1068 11.8323 80.7573 11.6374 82.4084 11.6963C85.5864 11.8334 88.6998 12.6972 91.5384 14.2294C94.2883 15.6954 96.8008 17.6217 98.9808 19.9355C101.147 22.2148 102.995 24.8148 104.468 27.6555C105.944 30.4867 107.052 33.5192 107.762 36.6696C108.106 38.2421 108.361 39.8354 108.525 41.4409C108.672 43.0432 108.733 44.6532 108.707 46.263L102.375 45.2535C102.972 42.8294 103.986 40.5453 105.367 38.5184C106.889 36.3202 108.964 34.6287 111.35 33.6408C113.744 32.7073 116.332 32.501 118.829 33.0448C121.182 33.5482 123.412 34.5718 125.373 36.05C129.117 38.9242 131.908 42.9957 133.342 47.6756C134.032 49.9359 134.454 52.2797 134.598 54.6522L134.659 56.4102C134.67 56.9952 134.626 57.5738 134.609 58.156L134.572 59.0279C134.558 59.318 134.514 59.6019 134.486 59.8892L134.289 61.6076C134.136 62.551 133.949 63.4845 133.775 64.4224L133.068 67.1633L127.258 63.4953C128.66 61.9198 130.289 60.5956 132.085 59.5735C134 58.489 136.121 57.8817 138.287 57.7972C140.454 57.7127 142.61 58.1531 144.594 59.0853C146.541 59.9894 148.297 61.3045 149.755 62.9516C151.214 64.5986 152.346 66.5436 153.083 68.6697C153.846 70.8424 154.139 73.1713 153.939 75.4819C153.739 77.7926 153.053 80.025 151.93 82.0119C150.872 83.8766 149.539 85.547 147.983 86.9588C147.914 87.0226 147.844 87.0821 147.771 87.1372L147.757 87.1473C146.737 87.9123 145.643 88.5576 144.493 89.072C143.394 89.5534 142.256 89.9287 141.094 90.1937C138.948 90.6599 136.763 90.8951 134.572 90.8958C132.473 90.9279 130.526 90.8432 128.574 90.8105L122.706 90.6791L99.2348 90.1452L52.2906 89.0566C45.3399 88.8967 38.3349 88.4718 31.4857 88.0491C24.9259 87.6415 20.7224 86.6539 18.1546 85.4275C14.417 83.6408 18.3945 81.91 27.7233 81.6886C33.627 81.5472 40.0613 81.6912 46.1446 81.9313C74.1596 83.0296 102.144 83.5845 130.097 83.5961C132.644 83.6715 135.193 83.5598 137.726 83.2616C140.081 82.9195 142.12 82.203 143.647 81.0214L143.42 81.2101C144.771 80.0079 145.855 78.499 146.591 76.7933C147.305 74.9133 147.329 72.8155 146.66 70.9172C145.929 68.9055 144.604 67.2032 142.885 66.0688C141.21 64.9566 139.206 64.5517 137.266 64.9334C135.353 65.3228 133.528 66.5628 131.958 68.278L131.925 68.3143C131.448 68.8345 130.822 69.1679 130.146 69.2603C129.47 69.3528 128.785 69.199 128.201 68.8238C127.617 68.4487 127.169 67.8741 126.929 67.1931C126.689 66.5121 126.672 65.7646 126.879 65.0715C127.811 62.0469 128.249 58.8738 128.174 55.6907C128.134 54.1518 127.937 52.6222 127.586 51.1289C127.225 49.6711 126.713 48.2606 126.061 46.9232C125.389 45.631 124.568 44.4334 123.618 43.3582C122.691 42.3143 121.613 41.4364 120.425 40.758C118.11 39.4163 115.47 39.0471 113.332 39.9475C112.071 40.4869 110.978 41.3932 110.176 42.5633C109.279 43.8919 108.61 45.3807 108.202 46.9599L108.179 47.0407C107.984 47.7415 107.556 48.3422 106.976 48.7303C106.395 49.1184 105.702 49.2674 105.027 49.1493C104.351 49.0312 103.739 48.6542 103.305 48.0888C102.87 47.5234 102.644 46.8083 102.668 46.0775C102.787 42.6297 102.36 39.1852 101.403 35.8898C100.444 32.607 98.9393 29.5357 96.9604 26.8231C95.0143 24.1241 92.5893 21.8611 89.8239 20.1634C87.0991 18.5226 84.0485 17.554 81.1366 17.6838C78.9916 17.764 76.9193 18.5343 75.1914 19.8939C73.4284 21.3628 72.0414 23.2836 71.1591 25.4779C70.6624 26.6301 70.2629 27.8274 69.9654 29.0555C69.7938 29.6713 69.6809 30.3151 69.5438 30.9484C69.4425 31.5959 69.3125 32.2346 69.2414 32.8938C68.9125 35.5562 68.7938 38.2435 68.8864 40.9272L68.8875 40.9668C68.9022 41.465 68.7823 41.9571 68.5421 42.3845C68.302 42.8119 67.9519 43.1564 67.5334 43.3771C67.1149 43.5977 66.6458 43.6851 66.1821 43.6288C65.7184 43.5725 65.2797 43.3749 64.9183 43.0596C63.0334 41.3637 60.6504 40.4292 58.1858 40.4194C55.6733 40.4884 53.247 41.4127 51.2609 43.0575C49.2747 44.7023 47.8323 46.9817 47.1441 49.5633C46.5206 52.1619 46.7729 54.912 47.8568 57.332L47.875 57.3738C48.0714 57.8293 48.1231 58.3409 48.0224 58.8307C47.9217 59.3205 47.6741 59.7618 47.3171 60.0876C46.9601 60.4134 46.5133 60.6059 46.0446 60.6357C45.5758 60.6656 45.1108 60.5312 44.72 60.2531C43.1874 59.1607 41.3759 58.6017 39.5339 58.6526C37.633 58.7302 35.7853 59.344 34.1785 60.4315C32.5717 61.5189 31.2631 63.0413 30.3858 64.8439C29.5395 66.6292 29.2311 68.6503 29.5029 70.6302C29.5588 71.0394 29.5002 71.4571 29.3346 71.831C29.169 72.2048 28.9037 72.518 28.572 72.7314C28.2403 72.9448 27.857 73.0489 27.4701 73.0305C27.0833 73.0121 26.7101 72.872 26.3975 72.628L26.3812 72.6153L25.7715 72.1364C23.4987 70.3529 20.8514 69.1912 18.0611 68.753C16.7632 68.5853 15.4475 68.6754 14.1803 69.0186C13.871 69.1014 13.5669 69.2049 13.2697 69.3285C12.9851 69.4331 12.7096 69.5641 12.4464 69.7203C11.9104 70.0322 11.4169 70.4209 10.9794 70.8756C10.0666 71.8121 9.36328 72.9564 8.92183 74.2234C8.48039 75.4903 8.3122 76.8473 8.42978 78.1933C8.57845 79.5256 9.15809 80.7606 10.0686 81.685C10.5416 82.1901 11.0448 82.6617 11.5752 83.0969C12.1111 83.5108 12.7049 83.8316 13.3346 84.0477C13.9176 84.2584 14.4443 84.4163 14.8831 84.5688C15.253 84.6932 15.6133 84.8479 15.9609 85.0314C16.5175 85.3372 16.7498 85.6316 16.6429 85.8802C16.536 86.1289 16.0891 86.332 15.2904 86.4539C14.7913 86.5309 14.2871 86.5635 13.783 86.5513C12.9775 86.5392 12.1782 86.3977 11.4122 86.1315C10.7625 85.8926 10.1394 85.5781 9.5542 85.1937C9.01554 84.8454 8.55913 84.5032 8.11965 84.1727C7.52569 83.7032 6.98947 83.1556 6.52363 82.5429C6.05967 81.9212 5.67361 81.2375 5.37525 80.5091C4.80689 79.102 4.53062 77.5801 4.56542 76.0481C4.59341 74.5871 4.85087 73.1415 5.32707 71.7716C5.8045 70.3928 6.48956 69.1065 7.35522 67.9635C8.26917 66.7527 9.39649 65.745 10.6734 64.9973C10.9862 64.8152 11.3083 64.6517 11.6381 64.5077C11.9499 64.3537 12.2698 64.2193 12.5962 64.105C12.9222 63.9934 13.2484 63.8737 13.578 63.7774L14.5757 63.5391C15.8905 63.2871 17.2293 63.2091 18.5618 63.307C20.6001 63.4912 22.5985 64.0175 24.4833 64.8663C26.315 65.7006 28.0429 66.7741 29.6274 68.0622L24.2078 71.5085C24.0393 70.2596 24.0043 68.9943 24.1034 67.737C24.2217 66.4774 24.4804 65.2374 24.8743 64.0434C25.6627 61.7086 26.9329 59.5932 28.591 57.8541C28.5839 57.8091 28.579 57.7638 28.5763 57.7182Z" fill="#F7F8F8"/>
</svg>
