<svg width="382" height="344" viewBox="0 0 382 344" fill="none" xmlns="http://www.w3.org/2000/svg">
<g filter="url(#filter0_d_3738_91631)">
<path d="M418.104 12.6543C423.527 13.0147 428.909 13.76 434.19 14.8955C443.09 16.8327 451.553 19.9349 459.292 24.0557C466.919 28.1541 473.759 33.1819 479.576 38.96C485.18 44.5475 489.936 50.6726 493.743 57.2119C497.413 63.5163 500.408 70.0562 502.705 76.7861C504.864 83.3367 506.525 89.988 507.698 96.6953C508.672 102.821 509.358 108.969 509.758 115.139C513.814 113.851 517.996 112.81 522.265 112.015C529.167 110.805 536.22 110.29 543.272 110.503C559.774 111.13 575.776 115.396 589.631 122.854C603.486 130.311 614.696 140.681 622.098 152.909C628.151 162.741 631.371 173.591 631.533 184.632C631.533 185.561 631.509 186.503 631.472 187.443C638.312 186.738 645.29 186.771 652.229 187.577C670.915 189.738 688.303 196.748 701.896 207.599C701.871 207.789 701.846 207.98 701.809 208.17C710.883 215.549 717.823 224.519 722.142 234.418C722.666 235.65 723.153 236.904 723.59 238.158L723.727 238.113L724.289 237.911C734.599 234.317 745.533 232.089 756.68 231.305C763.969 230.89 771.297 231.215 778.486 232.29L783.941 233.298C785.302 233.611 786.65 233.982 787.998 234.34C788.447 234.463 788.885 234.585 789.321 234.697C791.106 235.19 792.854 235.762 794.563 236.411C796.373 237.016 798.134 237.71 799.844 238.482C806.821 241.651 812.987 245.929 817.992 251.058C822.723 255.906 826.48 261.36 829.089 267.205C831.698 273.017 833.108 279.153 833.258 285.346C833.445 291.852 831.935 298.302 828.827 304.281C827.205 307.372 825.083 310.272 822.549 312.903C819.99 315.501 817.056 317.819 813.811 319.812C802.39 326.475 791.455 329.095 777.975 330.674C773.306 331.211 768.638 331.761 763.97 332.242C752.636 333.396 741.252 334.168 729.868 334.705C677.381 337.202 624.718 339.577 572.144 340.518L418.104 343.284L264.063 340.518C211.489 339.577 158.826 337.202 106.339 334.705C94.9551 334.168 83.5711 333.396 72.2373 332.242C67.569 331.761 62.9007 331.211 58.2324 330.674C44.7519 329.095 33.8175 326.475 22.3965 319.812C19.1511 317.819 16.217 315.501 13.6582 312.903C11.1245 310.272 9.00251 307.372 7.37988 304.281C4.27185 298.302 2.76202 291.852 2.94922 285.346C3.099 279.153 4.50939 273.017 7.11816 267.205C9.72694 261.36 13.4841 255.906 18.2148 251.058C23.2201 245.929 29.386 241.651 36.3633 238.482C38.0733 237.71 39.8337 237.016 41.6436 236.411C43.3535 235.762 45.1009 235.19 46.8857 234.697C47.3225 234.585 47.7598 234.463 48.209 234.34C49.5569 233.982 50.9052 233.611 52.2656 233.298L57.7207 232.29C64.9104 231.215 72.2378 230.89 79.5273 231.305C90.6737 232.089 101.608 234.317 111.918 237.911L112.48 238.113L112.617 238.158C113.054 236.904 113.541 235.65 114.065 234.418C118.384 224.519 125.324 215.549 134.398 208.17C134.361 207.98 134.336 207.789 134.312 207.599C147.904 196.748 165.292 189.738 183.978 187.577C190.918 186.771 197.895 186.738 204.735 187.443C204.698 186.503 204.674 185.561 204.674 184.632C204.836 173.591 208.056 162.741 214.109 152.909C221.511 140.681 232.721 130.311 246.576 122.854C260.431 115.396 276.433 111.13 292.935 110.503C299.987 110.29 307.04 110.805 313.942 112.015C318.211 112.81 322.393 113.851 326.449 115.139C326.849 108.969 327.535 102.821 328.509 96.6953C329.682 89.988 331.343 83.3367 333.502 76.7861C335.799 70.0562 338.794 63.5163 342.464 57.2119C346.271 50.6726 351.027 44.5475 356.631 38.96C362.448 33.1819 369.288 28.1541 376.915 24.0557C384.654 19.9349 393.117 16.8327 402.017 14.8955C407.298 13.76 412.68 13.0147 418.104 12.6543Z" fill="#FFFAE9"/>
</g>
<path opacity="0.25" d="M304.186 186.026C305.812 183.065 306.838 179.071 304.592 176.549C302.383 174.066 298.263 174.582 295.421 176.307C292.603 178.012 290.447 180.597 288.346 183.135C287.515 180.279 286.386 177.512 284.984 174.885C284.028 173.097 282.843 171.283 281.001 170.432C277.83 168.966 273.961 171.05 272.116 174.018C271.043 175.743 270.438 177.757 270.382 179.788C270.271 183.83 272.275 187.626 274.556 190.969C276.559 193.905 278.82 196.667 281.304 199.211C282.142 200.069 283.04 200.926 284.165 201.343C287.05 202.412 293.014 197.872 295.3 196.174C298.937 193.472 302.003 190 304.186 186.026Z" fill="#F00E46" fill-opacity="0.5"/>
<defs>
<filter id="filter0_d_3738_91631" x="0.933594" y="0.654297" width="834.34" height="342.631" filterUnits="userSpaceOnUse" color-interpolation-filters="sRGB">
<feFlood flood-opacity="0" result="BackgroundImageFix"/>
<feColorMatrix in="SourceAlpha" type="matrix" values="0 0 0 0 0 0 0 0 0 0 0 0 0 0 0 0 0 0 127 0" result="hardAlpha"/>
<feOffset dy="-10"/>
<feGaussianBlur stdDeviation="1"/>
<feComposite in2="hardAlpha" operator="out"/>
<feColorMatrix type="matrix" values="0 0 0 0 0 0 0 0 0 0 0 0 0 0 0 0 0 0 0.1 0"/>
<feBlend mode="normal" in2="BackgroundImageFix" result="effect1_dropShadow_3738_91631"/>
<feBlend mode="normal" in="SourceGraphic" in2="effect1_dropShadow_3738_91631" result="shape"/>
</filter>
</defs>
</svg>
