<svg width="886" height="111" viewBox="0 0 886 111" fill="none" xmlns="http://www.w3.org/2000/svg">
<path d="M104.234 65.496C105.834 65.496 107.21 65.976 108.362 66.936C109.578 67.832 110.186 69.016 110.186 70.488C110.186 71.256 109.994 72.216 109.61 73.368C109.29 74.456 108.842 75.48 108.266 76.44C105.898 80.344 102.922 83.256 99.3379 85.176C95.8179 87.032 91.4979 87.96 86.3779 87.96C80.4259 87.96 75.2739 86.52 70.9219 83.64C66.5699 80.76 63.2099 76.696 60.8419 71.448C58.5379 66.136 57.3859 59.96 57.3859 52.92C57.3859 45.88 58.5379 39.8 60.8419 34.68C63.1459 29.56 66.4739 25.656 70.8259 22.968C75.1779 20.216 80.3939 18.84 86.4739 18.84C90.8899 18.84 94.8899 19.576 98.4739 21.048C102.122 22.456 104.97 24.44 107.018 27C109.13 29.56 110.186 32.408 110.186 35.544C110.186 38.168 109.418 40.28 107.882 41.88C106.41 43.48 104.458 44.28 102.026 44.28C99.6579 44.28 97.7059 43.608 96.1699 42.264C94.6979 40.92 93.9619 39.16 93.9619 36.984C93.9619 35.32 94.3459 33.88 95.1139 32.664C93.0659 30.936 90.2499 30.072 86.6659 30.072C81.2899 30.072 77.3539 31.928 74.8579 35.64C72.3619 39.288 71.1139 44.952 71.1139 52.632C71.1139 68.696 76.4899 76.728 87.2419 76.728C89.9299 76.728 92.2019 76.152 94.0579 75C95.9779 73.784 97.5779 71.928 98.8579 69.432C99.6259 67.896 100.394 66.872 101.162 66.36C101.93 65.784 102.954 65.496 104.234 65.496ZM159.255 75.768C160.471 75.768 161.463 76.088 162.231 76.728C162.999 77.304 163.383 78.232 163.383 79.512V83.256C163.383 84.536 162.999 85.496 162.231 86.136C161.463 86.712 160.471 87 159.255 87H148.599C147.383 87 146.327 86.584 145.431 85.752C144.599 84.856 144.183 83.8 144.183 82.584V77.976C142.903 80.92 140.951 83.32 138.327 85.176C135.767 87.032 133.015 87.96 130.071 87.96C125.655 87.96 122.071 86.648 119.319 84.024C116.631 81.4 115.287 77.944 115.287 73.656C115.287 68.792 116.855 65.208 119.991 62.904C123.127 60.536 127.863 59.352 134.199 59.352C137.143 59.352 140.471 59.704 144.183 60.408V56.856C144.183 54.104 143.447 51.992 141.975 50.52C140.567 49.048 138.519 48.312 135.831 48.312C134.103 48.312 132.823 48.6 131.991 49.176C131.863 51.16 131.127 52.824 129.783 54.168C128.439 55.448 126.775 56.088 124.791 56.088C122.615 56.088 120.855 55.448 119.511 54.168C118.167 52.824 117.495 51.096 117.495 48.984C117.495 45.656 119.191 43 122.583 41.016C125.975 39.032 130.391 38.04 135.831 38.04C142.935 38.04 148.311 39.864 151.959 43.512C155.607 47.096 157.431 52.152 157.431 58.68V75.768H159.255ZM134.103 78.168C136.663 78.168 138.903 77.112 140.823 75C142.807 72.824 143.927 70.232 144.183 67.224C142.071 66.84 139.415 66.648 136.215 66.648C133.527 66.648 131.575 67.16 130.359 68.184C129.143 69.144 128.535 70.712 128.535 72.888C128.535 74.488 129.047 75.768 130.071 76.728C131.095 77.688 132.439 78.168 134.103 78.168ZM199.634 70.296C201.106 70.296 202.386 70.776 203.474 71.736C204.562 72.632 205.106 73.752 205.106 75.096C205.106 76.632 204.626 78.136 203.666 79.608C199.89 85.176 195.154 87.96 189.458 87.96C177.426 87.96 171.41 81.208 171.41 67.704V50.04H167.282C166.002 50.04 164.946 49.656 164.114 48.888C163.282 48.056 162.866 47 162.866 45.72V43.32C162.866 42.04 163.282 41.016 164.114 40.248C164.946 39.416 166.002 39 167.282 39H171.41V30.36C171.41 29.08 171.794 28.024 172.562 27.192C173.394 26.36 174.45 25.944 175.73 25.944H180.338C181.618 25.944 182.642 26.36 183.41 27.192C184.242 28.024 184.658 29.08 184.658 30.36V39H195.218C196.498 39 197.554 39.416 198.386 40.248C199.218 41.016 199.634 42.04 199.634 43.32V45.72C199.634 47 199.218 48.056 198.386 48.888C197.554 49.656 196.498 50.04 195.218 50.04H184.658V69.432C184.658 71.8 185.138 73.656 186.098 75C187.058 76.28 188.37 76.92 190.034 76.92C191.378 76.92 192.434 76.6 193.202 75.96C194.034 75.32 194.898 74.232 195.794 72.696C196.37 71.864 196.914 71.256 197.426 70.872C198.002 70.488 198.738 70.296 199.634 70.296ZM231.066 57.24C237.274 59.032 241.626 61.08 244.122 63.384C246.618 65.688 247.866 68.792 247.866 72.696C247.866 75.64 247.002 78.264 245.274 80.568C243.61 82.872 241.242 84.696 238.17 86.04C235.098 87.32 231.578 87.96 227.61 87.96C221.53 87.96 216.666 86.968 213.018 84.984C209.434 82.936 207.642 80.248 207.642 76.92C207.642 74.808 208.314 73.112 209.658 71.832C211.002 70.488 212.762 69.816 214.938 69.816C216.986 69.816 218.682 70.52 220.026 71.928C221.434 73.336 222.138 75.064 222.138 77.112C222.138 77.624 222.106 78.008 222.042 78.264C223.322 78.968 225.082 79.32 227.322 79.32C229.626 79.32 231.418 78.936 232.698 78.168C233.978 77.336 234.618 76.216 234.618 74.808C234.618 73.336 234.138 72.216 233.178 71.448C232.218 70.68 230.266 69.88 227.322 69.048C222.586 67.704 218.842 66.296 216.09 64.824C213.402 63.352 211.45 61.688 210.234 59.832C209.082 57.976 208.506 55.672 208.506 52.92C208.506 49.976 209.338 47.384 211.002 45.144C212.73 42.904 215.098 41.176 218.106 39.96C221.178 38.68 224.698 38.04 228.666 38.04C234.298 38.04 238.81 39 242.202 40.92C245.594 42.84 247.29 45.4 247.29 48.6C247.29 50.712 246.618 52.408 245.274 53.688C243.93 54.968 242.17 55.608 239.994 55.608C237.946 55.608 236.218 54.936 234.81 53.592C233.466 52.184 232.794 50.456 232.794 48.408C232.794 48.024 232.826 47.736 232.89 47.544C231.802 46.904 230.298 46.584 228.378 46.584C226.394 46.584 224.794 47.032 223.578 47.928C222.426 48.76 221.85 49.912 221.85 51.384C221.85 52.664 222.458 53.72 223.674 54.552C224.954 55.32 227.418 56.216 231.066 57.24ZM313.344 70.872C314.752 70.872 315.968 71.288 316.992 72.12C318.016 72.952 318.528 74.072 318.528 75.48C318.528 77.016 317.984 78.552 316.896 80.088C315.168 82.456 312.896 84.376 310.08 85.848C307.328 87.256 303.968 87.96 300 87.96C295.008 87.96 290.656 86.904 286.944 84.792C283.296 82.68 280.48 79.736 278.496 75.96C276.576 72.12 275.616 67.704 275.616 62.712C275.616 57.656 276.608 53.272 278.592 49.56C280.64 45.848 283.456 43 287.04 41.016C290.688 39.032 294.816 38.04 299.424 38.04C303.2 38.04 306.592 38.712 309.6 40.056C312.672 41.4 315.072 43.256 316.8 45.624C318.528 47.928 319.392 50.52 319.392 53.4C319.392 55.768 318.624 57.688 317.088 59.16C315.552 60.632 313.568 61.368 311.136 61.368C308.704 61.368 306.752 60.696 305.28 59.352C303.808 57.944 303.072 56.152 303.072 53.976C303.072 52.632 303.296 51.48 303.744 50.52C302.528 49.56 300.896 49.08 298.848 49.08C295.648 49.08 293.216 50.232 291.552 52.536C289.952 54.84 289.152 58.2 289.152 62.616C289.152 66.968 290.144 70.456 292.128 73.08C294.176 75.64 296.992 76.92 300.576 76.92C302.624 76.92 304.256 76.632 305.472 76.056C306.752 75.416 308 74.392 309.216 72.984C310.496 71.576 311.872 70.872 313.344 70.872ZM347.145 87.96C339.721 87.96 333.929 85.816 329.769 81.528C325.609 77.176 323.529 71.16 323.529 63.48C323.529 55.608 325.705 49.4 330.057 44.856C334.409 40.312 340.361 38.04 347.913 38.04C355.337 38.04 361.129 40.216 365.289 44.568C369.449 48.856 371.529 54.808 371.529 62.424C371.529 70.296 369.353 76.536 365.001 81.144C360.649 85.688 354.697 87.96 347.145 87.96ZM347.241 76.92C354.409 76.92 357.993 72.12 357.993 62.52C357.993 53.56 354.601 49.08 347.817 49.08C344.361 49.08 341.705 50.328 339.849 52.824C337.993 55.256 337.065 58.776 337.065 63.384C337.065 67.8 337.929 71.16 339.657 73.464C341.385 75.768 343.913 76.92 347.241 76.92ZM456.867 75.768C458.147 75.768 459.171 76.088 459.939 76.728C460.707 77.304 461.091 78.232 461.091 79.512V83.256C461.091 84.536 460.707 85.496 459.939 86.136C459.171 86.712 458.147 87 456.867 87H440.739C437.987 87 436.611 85.752 436.611 83.256V79.512C436.611 77.016 437.987 75.768 440.739 75.768H441.891V61.464C441.891 56.792 441.411 53.56 440.451 51.768C439.555 49.976 437.891 49.08 435.459 49.08C433.667 49.08 431.971 49.656 430.371 50.808C428.771 51.96 427.491 53.528 426.531 55.512C425.635 57.432 425.187 59.48 425.187 61.656V75.768H426.339C427.555 75.768 428.547 76.088 429.315 76.728C430.083 77.304 430.467 78.232 430.467 79.512V83.256C430.467 84.536 430.083 85.496 429.315 86.136C428.547 86.712 427.555 87 426.339 87H410.787C408.035 87 406.659 85.752 406.659 83.256V79.512C406.659 77.016 408.035 75.768 410.787 75.768H411.939V61.464C411.939 56.792 411.459 53.56 410.499 51.768C409.603 49.976 407.939 49.08 405.507 49.08C403.715 49.08 402.019 49.656 400.419 50.808C398.819 51.96 397.539 53.528 396.579 55.512C395.683 57.432 395.235 59.48 395.235 61.656V75.768H396.387C397.603 75.768 398.595 76.088 399.363 76.728C400.131 77.304 400.515 78.232 400.515 79.512V83.256C400.515 84.536 400.131 85.496 399.363 86.136C398.595 86.712 397.603 87 396.387 87H380.163C378.947 87 377.955 86.712 377.187 86.136C376.419 85.496 376.035 84.536 376.035 83.256V79.512C376.035 78.232 376.419 77.304 377.187 76.728C377.955 76.088 378.947 75.768 380.163 75.768H381.987V50.232H380.163C378.947 50.232 377.955 49.944 377.187 49.368C376.419 48.728 376.035 47.768 376.035 46.488V42.744C376.035 40.248 377.411 39 380.163 39H390.819C392.099 39 393.155 39.416 393.987 40.248C394.819 41.08 395.235 42.136 395.235 43.416V48.6C396.515 45.464 398.435 42.936 400.995 41.016C403.555 39.032 406.307 38.04 409.251 38.04C413.155 38.04 416.355 39 418.851 40.92C421.347 42.84 423.107 45.624 424.131 49.272C425.987 45.688 428.227 42.936 430.851 41.016C433.539 39.032 436.323 38.04 439.203 38.04C444.387 38.04 448.323 39.736 451.011 43.128C453.763 46.456 455.139 51.32 455.139 57.72V75.768H456.867ZM508.522 60.6C508.522 61.56 508.426 63.288 508.234 65.784H477.418C477.93 69.24 479.146 71.96 481.066 73.944C482.986 75.928 485.514 76.92 488.65 76.92C490.698 76.92 492.33 76.632 493.546 76.056C494.826 75.416 496.074 74.392 497.29 72.984C498.57 71.576 499.946 70.872 501.418 70.872C502.826 70.872 504.042 71.288 505.066 72.12C506.09 72.952 506.602 74.072 506.602 75.48C506.602 77.016 506.058 78.552 504.97 80.088C503.242 82.456 500.97 84.376 498.154 85.848C495.402 87.256 492.042 87.96 488.074 87.96C483.082 87.96 478.73 86.904 475.018 84.792C471.37 82.68 468.554 79.736 466.57 75.96C464.65 72.12 463.69 67.704 463.69 62.712C463.69 57.656 464.65 53.272 466.57 49.56C468.554 45.848 471.306 43 474.826 41.016C478.41 39.032 482.538 38.04 487.21 38.04C491.178 38.04 494.762 38.904 497.962 40.632C501.162 42.296 503.722 44.824 505.642 48.216C507.562 51.608 508.522 55.736 508.522 60.6ZM486.922 48.12C481.674 48.12 478.57 51.256 477.61 57.528H494.986V56.472C494.986 53.72 494.25 51.64 492.778 50.232C491.37 48.824 489.418 48.12 486.922 48.12ZM579.945 75.768C581.161 75.768 582.153 76.088 582.921 76.728C583.689 77.304 584.073 78.232 584.073 79.512V83.256C584.073 84.536 583.689 85.496 582.921 86.136C582.153 86.712 581.161 87 579.945 87H569.289C568.073 87 567.017 86.584 566.121 85.752C565.289 84.856 564.873 83.8 564.873 82.584V77.976C563.593 80.92 561.641 83.32 559.017 85.176C556.457 87.032 553.705 87.96 550.761 87.96C546.345 87.96 542.761 86.648 540.009 84.024C537.321 81.4 535.977 77.944 535.977 73.656C535.977 68.792 537.545 65.208 540.681 62.904C543.817 60.536 548.553 59.352 554.889 59.352C557.833 59.352 561.161 59.704 564.873 60.408V56.856C564.873 54.104 564.137 51.992 562.665 50.52C561.257 49.048 559.209 48.312 556.521 48.312C554.793 48.312 553.513 48.6 552.681 49.176C552.553 51.16 551.817 52.824 550.473 54.168C549.129 55.448 547.465 56.088 545.481 56.088C543.305 56.088 541.545 55.448 540.201 54.168C538.857 52.824 538.185 51.096 538.185 48.984C538.185 45.656 539.881 43 543.273 41.016C546.665 39.032 551.081 38.04 556.521 38.04C563.625 38.04 569.001 39.864 572.649 43.512C576.297 47.096 578.121 52.152 578.121 58.68V75.768H579.945ZM554.793 78.168C557.353 78.168 559.593 77.112 561.513 75C563.497 72.824 564.617 70.232 564.873 67.224C562.761 66.84 560.105 66.648 556.905 66.648C554.217 66.648 552.265 67.16 551.049 68.184C549.833 69.144 549.225 70.712 549.225 72.888C549.225 74.488 549.737 75.768 550.761 76.728C551.785 77.688 553.129 78.168 554.793 78.168ZM638.637 75.768C641.389 75.768 642.765 77.016 642.765 79.512V83.256C642.765 85.752 641.389 87 638.637 87H622.509C621.229 87 620.205 86.712 619.437 86.136C618.669 85.496 618.285 84.536 618.285 83.256V79.512C618.285 78.232 618.669 77.304 619.437 76.728C620.205 76.088 621.229 75.768 622.509 75.768H623.565V61.464C623.565 56.856 623.053 53.656 622.029 51.864C621.069 50.008 619.309 49.08 616.749 49.08C614.893 49.08 613.133 49.656 611.469 50.808C609.869 51.96 608.557 53.528 607.533 55.512C606.573 57.432 606.093 59.48 606.093 61.656V75.768H607.245C608.461 75.768 609.453 76.088 610.221 76.728C610.989 77.304 611.373 78.232 611.373 79.512V83.256C611.373 84.536 610.989 85.496 610.221 86.136C609.453 86.712 608.461 87 607.245 87H591.021C589.805 87 588.813 86.712 588.045 86.136C587.277 85.496 586.893 84.536 586.893 83.256V79.512C586.893 78.232 587.277 77.304 588.045 76.728C588.813 76.088 589.805 75.768 591.021 75.768H592.845V50.232H591.021C589.805 50.232 588.813 49.944 588.045 49.368C587.277 48.728 586.893 47.768 586.893 46.488V42.744C586.893 40.248 588.269 39 591.021 39H601.677C602.957 39 604.013 39.416 604.845 40.248C605.677 41.08 606.093 42.136 606.093 43.416V48.6C607.309 45.528 609.261 43 611.949 41.016C614.701 39.032 617.549 38.04 620.493 38.04C625.741 38.04 629.773 39.736 632.589 43.128C635.469 46.52 636.909 51.384 636.909 57.72V75.768H638.637ZM694.542 75.768C695.822 75.768 696.846 76.088 697.614 76.728C698.382 77.304 698.766 78.232 698.766 79.512V83.256C698.766 84.536 698.382 85.496 697.614 86.136C696.846 86.712 695.822 87 694.542 87H683.982C682.766 87 681.71 86.584 680.814 85.752C679.982 84.856 679.566 83.8 679.566 82.584V77.976C678.414 80.984 676.462 83.416 673.71 85.272C670.958 87.064 667.918 87.96 664.59 87.96C658.83 87.96 654.254 85.816 650.862 81.528C647.534 77.176 645.87 71.32 645.87 63.96C645.87 55.768 647.758 49.4 651.534 44.856C655.31 40.312 660.59 38.04 667.374 38.04C669.806 38.04 672.046 38.552 674.094 39.576C676.206 40.536 678.03 41.912 679.566 43.704V27.192H677.742C676.526 27.192 675.534 26.904 674.766 26.328C673.998 25.688 673.614 24.728 673.614 23.448V19.704C673.614 18.424 673.998 17.496 674.766 16.92C675.534 16.28 676.526 15.96 677.742 15.96H688.494C689.71 15.96 690.734 16.376 691.566 17.208C692.398 18.04 692.814 19.096 692.814 20.376V75.768H694.542ZM668.718 76.92C670.702 76.92 672.526 76.312 674.19 75.096C675.854 73.88 677.166 72.216 678.126 70.104C679.086 67.992 679.566 65.688 679.566 63.192V53.688C678.286 52.216 676.75 51.096 674.958 50.328C673.166 49.496 671.31 49.08 669.39 49.08C666.19 49.08 663.726 50.36 661.998 52.92C660.27 55.416 659.406 59.032 659.406 63.768C659.406 67.928 660.206 71.16 661.806 73.464C663.47 75.768 665.774 76.92 668.718 76.92ZM773.956 39C775.236 39 776.26 39.32 777.028 39.96C777.796 40.536 778.18 41.464 778.18 42.744V46.488C778.18 47.768 777.796 48.728 777.028 49.368C776.26 49.944 775.236 50.232 773.956 50.232H772.228V83.928C772.228 92.376 770.052 98.84 765.7 103.32C761.412 107.8 755.236 110.04 747.172 110.04C741.284 110.04 736.548 108.952 732.964 106.776C729.444 104.6 727.684 101.752 727.684 98.232C727.684 96.12 728.356 94.424 729.7 93.144C731.044 91.864 732.804 91.224 734.98 91.224C737.028 91.224 738.724 91.896 740.068 93.24C741.476 94.648 742.18 96.376 742.18 98.424C743.396 98.808 744.996 99 746.98 99C754.98 99 758.98 94.36 758.98 85.08V77.976C757.828 80.984 755.876 83.416 753.124 85.272C750.372 87.064 747.332 87.96 744.004 87.96C738.244 87.96 733.668 85.816 730.276 81.528C726.948 77.176 725.284 71.32 725.284 63.96C725.284 55.768 727.172 49.4 730.948 44.856C734.724 40.312 740.004 38.04 746.788 38.04C752.548 38.04 757.124 40.6 760.516 45.72L761.38 42.072C761.636 40.92 762.084 40.12 762.724 39.672C763.364 39.224 764.196 39 765.22 39H773.956ZM748.132 76.92C750.116 76.92 751.94 76.312 753.604 75.096C755.268 73.88 756.58 72.216 757.54 70.104C758.5 67.992 758.98 65.688 758.98 63.192V53.688C757.7 52.216 756.164 51.096 754.372 50.328C752.58 49.496 750.724 49.08 748.804 49.08C745.604 49.08 743.14 50.36 741.412 52.92C739.684 55.416 738.82 59.032 738.82 63.768C738.82 67.928 739.62 71.16 741.22 73.464C742.884 75.768 745.188 76.92 748.132 76.92ZM804.866 87.96C797.442 87.96 791.65 85.816 787.49 81.528C783.33 77.176 781.25 71.16 781.25 63.48C781.25 55.608 783.426 49.4 787.778 44.856C792.13 40.312 798.082 38.04 805.634 38.04C813.058 38.04 818.85 40.216 823.01 44.568C827.17 48.856 829.25 54.808 829.25 62.424C829.25 70.296 827.074 76.536 822.722 81.144C818.37 85.688 812.418 87.96 804.866 87.96ZM804.962 76.92C812.13 76.92 815.714 72.12 815.714 62.52C815.714 53.56 812.322 49.08 805.538 49.08C802.082 49.08 799.426 50.328 797.57 52.824C795.714 55.256 794.786 58.776 794.786 63.384C794.786 67.8 795.65 71.16 797.378 73.464C799.106 75.768 801.634 76.92 804.962 76.92Z" fill="#E07329"/>
<path d="M76.3606 12.6755C74.7082 13.9207 75.7374 22.5031 78.3152 28.5945L89.8915 19.6791C85.5009 15.2715 78.013 11.4303 76.3606 12.6755Z" fill="#E07329"/>
<path d="M108.639 12.2411C110.334 13.4278 109.605 22.0409 107.242 28.2186L95.3613 19.7126C99.5954 15.1544 106.945 11.0543 108.639 12.2411Z" fill="#E07329"/>
</svg>
