<svg width="32" height="33" viewBox="0 0 32 33" fill="none" xmlns="http://www.w3.org/2000/svg">
<circle cx="16" cy="16.0586" r="16" fill="#F2DDAF"/>
<path d="M16.7723 15.653L16.3669 16.0575L16.7723 16.4621L20.3557 20.0371L20.3569 20.0383C20.3814 20.0626 20.4009 20.0916 20.4142 20.1235L20.9417 19.9037L20.4142 20.1235C20.4275 20.1554 20.4343 20.1896 20.4343 20.2242C20.4343 20.2588 20.4275 20.293 20.4142 20.3249L20.9417 20.5447L20.4142 20.3249C20.4009 20.3568 20.3814 20.3858 20.3569 20.4102L20.3535 20.4135C20.3292 20.438 20.3002 20.4575 20.2683 20.4708L20.4881 20.9983L20.2683 20.4708C20.2364 20.4841 20.2022 20.4909 20.1676 20.4909C20.133 20.4909 20.0988 20.4841 20.0669 20.4708L19.8471 20.9983L20.0669 20.4708C20.035 20.4575 20.006 20.438 19.9816 20.4135L19.9805 20.4123L16.4055 16.829L16.0009 16.4235L15.5964 16.829L12.0214 20.4123L12.0202 20.4135C11.9959 20.438 11.9669 20.4575 11.935 20.4708L12.1547 20.9983L11.935 20.4708C11.9031 20.4841 11.8688 20.4909 11.8343 20.4909C11.7997 20.4909 11.7655 20.4841 11.7335 20.4708L11.5138 20.9983L11.7335 20.4708C11.7016 20.4575 11.6727 20.438 11.6483 20.4135L11.645 20.4102C11.6204 20.3858 11.601 20.3568 11.5877 20.3249C11.5744 20.293 11.5675 20.2588 11.5675 20.2242C11.5675 20.1896 11.5744 20.1554 11.5877 20.1235C11.601 20.0916 11.6204 20.0626 11.645 20.0383L11.6462 20.0371L15.2295 16.4621L15.635 16.0575L15.2295 15.653L11.6467 12.0785C11.6466 12.0784 11.6465 12.0784 11.6465 12.0783C11.5968 12.0286 11.5689 11.9612 11.5689 11.8909C11.5689 11.8205 11.5969 11.753 11.6467 11.7033C11.6964 11.6535 11.7639 11.6256 11.8343 11.6256C11.9046 11.6256 11.972 11.6535 12.0217 11.7031C12.0218 11.7032 12.0218 11.7032 12.0219 11.7033L15.5964 15.2861L16.0009 15.6916L16.4055 15.2861L19.98 11.7033C19.9801 11.7032 19.9802 11.7031 19.9803 11.703C20.03 11.6534 20.0974 11.6256 20.1676 11.6256C20.238 11.6256 20.3054 11.6535 20.3552 11.7033C20.405 11.753 20.4329 11.8205 20.4329 11.8909C20.4329 11.9612 20.405 12.0286 20.3553 12.0784C20.3553 12.0784 20.3552 12.0784 20.3552 12.0785L16.7723 15.653Z" fill="#A0D8CF" stroke="#A56953" stroke-width="1.14286"/>
</svg>
