<svg width="481" height="179" viewBox="0 0 481 179" fill="none" xmlns="http://www.w3.org/2000/svg">
<path d="M33.4091 27.264C33.4091 32.192 32.0971 36.384 29.4731 39.84C26.8491 43.232 22.6571 44.928 16.8971 44.928C11.1371 44.928 6.88109 43.296 4.12909 40.032C1.37709 36.768 0.00109053 32.832 0.00109053 28.224C0.00109053 20.928 3.42509 15.2 10.2731 11.04C17.1211 6.88 28.0651 4.8 43.1051 4.8H82.4651V24.48H71.4251V16.32H50.3051V33.024H57.7931V27.264H68.8331V50.304H57.7931V44.544H50.3051V60.48H59.1371V72H28.5131V60.48H37.8251V16.416C28.2251 16.672 21.5051 17.728 17.6651 19.584C13.8891 21.376 12.0011 24.128 12.0011 27.84C12.0011 31.552 13.6331 33.408 16.8971 33.408C19.9051 33.408 21.4091 31.36 21.4091 27.264H33.4091ZM103.332 73.056C97.3156 73.056 93.1556 71.296 90.8516 67.776C88.5476 64.192 87.3956 59.296 87.3956 53.088V34.08H80.0036V24H99.8756V53.088C99.8756 55.904 100.26 58.016 101.028 59.424C101.86 60.832 103.62 61.536 106.308 61.536C108.996 61.536 112.964 59.584 118.212 55.68V34.56H112.26V24H130.692V61.92H138.564V70.272C135.812 71.744 132.196 72.48 127.716 72.48C123.3 72.48 120.452 70.848 119.172 67.584C113.284 71.232 108.004 73.056 103.332 73.056ZM157.464 61.44H164.376V72H137.592V61.44H144.984V34.56H137.592V24H155.64L156.792 29.088C162.744 25.056 167.928 23.04 172.344 23.04L179.16 24.48L175.512 36.672L171.192 35.52C166.84 35.52 162.264 36.864 157.464 39.552V61.44ZM210.665 49.824H180.905V38.592H210.665V49.824ZM234.347 61.44H240.299V72H214.475V61.44H221.867V34.56H214.475V24H231.467L232.907 28.704C237.771 24.928 242.251 23.04 246.347 23.04C252.747 23.04 257.355 24.896 260.171 28.608C266.315 24.896 271.691 23.04 276.299 23.04C282.315 23.04 286.475 24.8 288.779 28.32C291.083 31.84 292.235 36.704 292.235 42.912V61.92H300.107V70.272C297.355 71.744 294.027 72.48 290.123 72.48C286.219 72.48 283.499 71.616 281.963 69.888C280.491 68.16 279.755 65.344 279.755 61.44V42.912C279.755 40.096 279.371 38.016 278.603 36.672C277.835 35.264 276.139 34.56 273.515 34.56C270.891 34.56 267.563 35.968 263.531 38.784C263.659 40.576 263.723 41.952 263.723 42.912V61.92H271.595V72H246.251V61.44H251.243V42.912C251.243 40.096 250.859 38.016 250.091 36.672C249.323 35.264 247.595 34.56 244.907 34.56C242.219 34.56 238.699 36.48 234.347 40.32V61.44ZM301.151 34.56V24H321.023V61.44H329.375V72H301.055V61.44H308.543V34.56H301.151ZM314.783 19.296C312.799 19.296 311.167 18.592 309.887 17.184C308.671 15.776 308.063 14.08 308.063 12.096C308.063 10.112 308.735 8.416 310.079 7.008C311.423 5.536 313.087 4.8 315.071 4.8C317.119 4.8 318.751 5.504 319.967 6.912C321.183 8.32 321.791 10.016 321.791 12C321.791 13.984 321.119 15.712 319.775 17.184C318.431 18.592 316.767 19.296 314.783 19.296ZM329.985 10.56V-5.72205e-06H349.857V61.44H358.209V72H329.889V61.44H337.377V10.56H329.985ZM360.69 34.56V24H380.562V61.44H388.914V72H360.594V61.44H368.082V34.56H360.69ZM374.322 19.296C372.338 19.296 370.706 18.592 369.426 17.184C368.21 15.776 367.602 14.08 367.602 12.096C367.602 10.112 368.274 8.416 369.618 7.008C370.962 5.536 372.626 4.8 374.61 4.8C376.658 4.8 378.29 5.504 379.506 6.912C380.722 8.32 381.33 10.016 381.33 12C381.33 13.984 380.658 15.712 379.314 17.184C377.97 18.592 376.306 19.296 374.322 19.296ZM419.187 65.76C415.219 70.56 410.803 72.96 405.939 72.96C401.075 72.96 397.267 71.712 394.515 69.216C391.763 66.72 390.387 63.232 390.387 58.752C390.387 54.208 392.179 50.368 395.763 47.232C399.347 44.096 404.627 42.528 411.603 42.528H419.187V39.072C419.187 36.064 417.299 34.56 413.523 34.56C409.747 34.56 406.387 34.976 403.443 35.808V41.28H392.403V26.976C395.539 25.76 399.187 24.8 403.347 24.096C407.571 23.392 411.091 23.04 413.907 23.04C419.475 23.04 423.827 24.512 426.963 27.456C430.099 30.336 431.667 34.208 431.667 39.072V61.92H439.539V70.272C436.787 71.744 433.331 72.48 429.171 72.48C422.515 72.48 419.187 70.24 419.187 65.76ZM406.803 61.44C411.219 61.44 415.347 58.816 419.187 53.568V53.184H411.507C408.563 53.184 406.387 53.696 404.979 54.72C403.571 55.744 402.867 57.12 402.867 58.848C402.867 60.576 404.179 61.44 406.803 61.44ZM458.428 61.44H465.34V72H438.556V61.44H445.948V34.56H438.556V24H456.604L457.756 29.088C463.708 25.056 468.892 23.04 473.308 23.04L480.124 24.48L476.476 36.672L472.156 35.52C467.804 35.52 463.228 36.864 458.428 39.552V61.44ZM174.648 123.184V116.752C171.896 116.816 170.04 117.552 169.08 118.96C168.184 120.368 167.736 122.576 167.736 125.584V130H181.56V140.56H167.736V167.44H174.648V178H147.768V167.44H155.256V140.56H147.864V130.96L155.256 130V125.584C155.256 118.864 156.696 113.808 159.576 110.416C162.52 106.96 167.704 105.232 175.128 105.232C177.88 105.232 181.4 105.488 185.688 106V123.184H174.648ZM210.813 171.76C206.845 176.56 202.429 178.96 197.565 178.96C192.701 178.96 188.893 177.712 186.141 175.216C183.389 172.72 182.013 169.232 182.013 164.752C182.013 160.208 183.805 156.368 187.389 153.232C190.973 150.096 196.253 148.528 203.229 148.528H210.813V145.072C210.813 142.064 208.925 140.56 205.149 140.56C201.373 140.56 198.013 140.976 195.069 141.808V147.28H184.029V132.976C187.165 131.76 190.813 130.8 194.973 130.096C199.197 129.392 202.717 129.04 205.533 129.04C211.101 129.04 215.453 130.512 218.589 133.456C221.725 136.336 223.293 140.208 223.293 145.072V167.92H231.165V176.272C228.413 177.744 224.957 178.48 220.797 178.48C214.141 178.48 210.813 176.24 210.813 171.76ZM198.429 167.44C202.845 167.44 206.973 164.816 210.813 159.568V159.184H203.133C200.189 159.184 198.013 159.696 196.605 160.72C195.197 161.744 194.493 163.12 194.493 164.848C194.493 166.576 195.805 167.44 198.429 167.44ZM274.342 172.528C269.35 176.816 263.046 178.96 255.43 178.96C247.814 178.96 241.926 176.624 237.766 171.952C233.67 167.216 231.622 161.232 231.622 154C231.622 146.768 233.67 140.816 237.766 136.144C241.926 131.408 247.43 129.04 254.278 129.04C261.19 129.04 267.11 130.352 272.038 132.976V148.72H260.998V141.328C259.27 140.816 257.318 140.56 255.142 140.56C251.686 140.56 248.966 141.808 246.982 144.304C245.062 146.8 244.102 150.032 244.102 154C244.102 157.968 245.062 161.2 246.982 163.696C248.966 166.192 251.43 167.44 254.374 167.44C257.382 167.44 259.878 167.152 261.862 166.576C263.91 166 265.318 165.488 266.086 165.04C266.918 164.528 268.006 163.792 269.35 162.832L274.342 172.528ZM320.241 153.616V158.704H287.793C287.985 161.264 289.041 163.376 290.961 165.04C292.945 166.64 295.249 167.44 297.873 167.44C300.497 167.44 302.705 167.248 304.497 166.864C306.353 166.48 307.633 166.128 308.337 165.808C309.105 165.488 310.225 164.912 311.697 164.08L314.001 162.832L318.993 172.528C313.745 176.816 307.217 178.96 299.409 178.96C291.601 178.96 285.617 176.624 281.457 171.952C277.361 167.216 275.313 161.232 275.313 154C275.313 146.768 277.361 140.816 281.457 136.144C285.617 131.408 291.249 129.04 298.353 129.04C305.521 129.04 310.961 131.344 314.673 135.952C318.385 140.56 320.241 146.448 320.241 153.616ZM307.761 149.008C307.505 146.448 306.609 144.4 305.073 142.864C303.601 141.328 301.457 140.56 298.641 140.56C295.889 140.56 293.585 141.36 291.729 142.96C289.937 144.496 288.753 146.512 288.177 149.008H307.761ZM323.14 161.296H334.18V166.864C335.972 167.184 338.084 167.344 340.516 167.344C345.508 167.344 348.004 166.512 348.004 164.848C348.004 164.208 346.5 162.992 343.492 161.2L331.972 154.288C329.156 152.56 327.076 150.736 325.732 148.816C324.388 146.896 323.716 144.496 323.716 141.616C323.716 137.648 325.412 134.576 328.804 132.4C332.196 130.16 336.804 129.04 342.628 129.04C348.452 129.04 353.988 130.352 359.236 132.976V147.28H348.196V141.328C346.34 140.816 344.26 140.56 341.956 140.56C338.116 140.56 336.196 141.264 336.196 142.672C336.196 142.864 336.228 143.024 336.292 143.152C336.42 143.216 336.516 143.312 336.58 143.44C336.644 143.504 336.74 143.6 336.868 143.728C336.996 143.792 337.124 143.856 337.252 143.92C337.38 143.984 337.54 144.08 337.732 144.208C337.924 144.336 338.084 144.464 338.212 144.592C338.404 144.656 338.628 144.784 338.884 144.976C339.204 145.168 339.492 145.328 339.748 145.456L352.708 153.328C357.892 156.528 360.484 160.368 360.484 164.848C360.484 169.264 358.66 172.72 355.012 175.216C351.364 177.648 346.244 178.864 339.652 178.864C333.06 178.864 327.556 177.648 323.14 175.216V161.296Z" fill="#E07329"/>
</svg>
