<svg width="475" height="62" viewBox="0 0 475 62" fill="none" xmlns="http://www.w3.org/2000/svg">
<rect y="40" width="474" height="22" fill="#D1AF73"/>
<path d="M139.437 3.63086C100.471 1.5279 45.4801 6.47682 27.623 8.9248V39.8193H251.25V8.9248C233.393 6.47682 178.402 1.5279 139.437 3.63086Z" fill="#CEC392"/>
<path d="M119.654 3.12207C126.871 3.27759 133.749 3.6198 140.008 4.2002C145.957 3.68174 152.438 3.36974 159.219 3.22363C164.847 5.06108 170.56 6.53626 176.33 7.6416C183.479 9.03568 190.683 10.0182 197.892 10.8936C203.15 11.5327 208.494 12.1452 213.403 14.417C218.312 16.6886 222.82 20.8991 224.536 26.6846C225.789 30.9092 225.434 35.5617 224.179 39.8193H130.678V39.7178H54.6943C53.4392 35.4601 53.0844 30.8076 54.3369 26.583C56.0527 20.7975 60.5606 16.587 65.4697 14.3154C70.379 12.0436 75.7231 11.4311 80.9814 10.792C88.1901 9.91662 95.394 8.93412 102.543 7.54004C108.313 6.43469 114.026 4.95952 119.654 3.12207Z" fill="#C2BB88"/>
<path d="M211.744 38.5947C212.48 38.5947 213.076 38.8882 213.076 39.25C213.076 39.6118 212.43 39.7676 211.694 39.7676C210.959 39.7675 210.193 39.4227 210.193 39.0605C210.193 38.6988 211.009 38.5947 211.744 38.5947ZM184.848 37.6465C185.412 37.6465 185.869 37.8717 185.869 38.1494C185.869 38.4271 185.373 38.5459 184.81 38.5459C184.246 38.5459 183.658 38.2817 183.658 38.0039C183.658 37.7266 184.283 37.6465 184.848 37.6465ZM192.4 36.4893C193.262 36.4893 193.961 36.8335 193.961 37.2578C193.961 37.6819 193.203 37.8642 192.342 37.8643C191.48 37.8643 190.582 37.46 190.582 37.0361C190.582 36.6117 191.538 36.4893 192.4 36.4893ZM180.366 33.583C181.734 33.5831 182.842 34.1292 182.842 34.8018C182.841 35.4741 181.641 35.7627 180.273 35.7627C178.906 35.7626 177.483 35.1222 177.483 34.4492C177.484 33.7767 178.999 33.583 180.366 33.583ZM146.285 26.6602C146.849 26.6602 147.307 26.8853 147.307 27.1631C147.307 27.4408 146.811 27.5595 146.247 27.5596C145.683 27.5596 145.096 27.2954 145.096 27.0176C145.096 26.7403 145.721 26.6602 146.285 26.6602ZM141.888 22.5977C143.255 22.5977 144.363 23.1438 144.363 23.8164C144.363 24.4887 143.162 24.7773 141.795 24.7773C140.428 24.7773 139.005 24.1369 139.005 23.4639C139.005 22.7914 140.52 22.5977 141.888 22.5977ZM151.346 17.2295C152.081 17.2295 152.678 17.5231 152.678 17.8848C152.678 18.2466 152.032 18.4023 151.296 18.4023C150.56 18.4023 149.795 18.0575 149.795 17.6953C149.795 17.3337 150.61 17.2295 151.346 17.2295ZM153.838 13.3594C154.699 13.3595 155.398 13.7028 155.398 14.127C155.398 14.5513 154.641 14.7343 153.779 14.7344C152.917 14.7344 152.02 14.3292 152.02 13.9053C152.02 13.4812 152.976 13.3594 153.838 13.3594ZM67.6387 13.2578C68.3742 13.2578 69.1895 13.3618 69.1895 13.7236C69.1894 14.0858 68.424 14.4306 67.6885 14.4307C66.9529 14.4307 66.3067 14.2749 66.3066 13.9131C66.3066 13.5513 66.9031 13.2578 67.6387 13.2578ZM94.2773 12.3096C94.8417 12.3096 95.4668 12.3896 95.4668 12.667C95.4668 12.9448 94.8795 13.209 94.3154 13.209C93.7517 13.2089 93.2561 13.0901 93.2559 12.8125C93.2559 12.5347 93.713 12.3096 94.2773 12.3096ZM86.7246 11.1523C87.5866 11.1523 88.543 11.2748 88.543 11.6992C88.5426 12.1231 87.645 12.5273 86.7832 12.5273C85.9216 12.5273 85.1645 12.345 85.1641 11.9209C85.1641 11.4966 85.8628 11.1524 86.7246 11.1523ZM98.9307 8.24609C100.298 8.24609 101.813 8.43999 101.813 9.1123C101.813 9.7853 100.391 10.4257 99.0234 10.4258C97.6561 10.4258 96.4553 10.1373 96.4551 9.46484C96.4551 8.79229 97.5633 8.24617 98.9307 8.24609Z" fill="#E1DB9C"/>
<path d="M125.991 0.550781C169.898 -1.73093 231.861 3.63971 251.982 6.2959V39.8184H0V6.2959C20.1213 3.63971 82.0842 -1.73093 125.991 0.550781Z" fill="#CEC392"/>
<path d="M159.658 3.12207C152.441 3.27759 145.563 3.6198 139.305 4.2002C133.355 3.68174 126.874 3.36974 120.094 3.22363C114.465 5.06108 108.752 6.53626 102.982 7.6416C95.8335 9.03568 88.6295 10.0182 81.4209 10.8936C76.1626 11.5327 70.8184 12.1452 65.9092 14.417C61 16.6886 56.4922 20.8991 54.7764 26.6846C53.5238 30.9092 53.8787 35.5617 55.1338 39.8193H148.635V39.7178H224.618C225.873 35.4601 226.228 30.8076 224.976 26.583C223.26 20.7975 218.752 16.587 213.843 14.3154C208.934 12.0436 203.589 11.4311 198.331 10.792C191.122 9.91662 183.918 8.93412 176.77 7.54004C171 6.43469 165.287 4.95952 159.658 3.12207Z" fill="#C2BB88"/>
<path d="M67.1426 38.5938C66.4071 38.5938 65.8108 38.8873 65.8105 39.249C65.8105 39.6108 66.4568 39.7666 67.1924 39.7666C67.9279 39.7665 68.6934 39.4218 68.6934 39.0596C68.6931 38.6979 67.878 38.5938 67.1426 38.5938ZM93.7812 37.6455C93.2169 37.6456 92.7598 37.8707 92.7598 38.1484C92.76 38.426 93.2556 38.5449 93.8193 38.5449C94.3833 38.5449 94.9706 38.2807 94.9707 38.0029C94.9707 37.7256 94.3457 37.6455 93.7812 37.6455ZM86.2285 36.4883C85.3667 36.4884 84.668 36.8325 84.668 37.2568C84.6684 37.6809 85.4255 37.8632 86.2871 37.8633C87.1489 37.8633 88.0465 37.459 88.0469 37.0352C88.0469 36.6108 87.0905 36.4883 86.2285 36.4883ZM98.4346 33.582C97.0673 33.5821 95.959 34.1282 95.959 34.8008C95.9593 35.4732 97.16 35.7617 98.5273 35.7617C99.8947 35.7617 101.317 35.1212 101.317 34.4482C101.317 33.7759 99.8018 33.582 98.4346 33.582ZM132.26 26.6592C131.696 26.6592 131.238 26.8844 131.238 27.1621C131.238 27.4398 131.734 27.5595 132.298 27.5596C132.862 27.5596 133.449 27.2944 133.449 27.0166C133.449 26.7395 132.824 26.6592 132.26 26.6592ZM136.913 22.5967C135.546 22.5968 134.438 23.1429 134.438 23.8154C134.438 24.4877 135.639 24.7764 137.006 24.7764C138.373 24.7763 139.796 24.1359 139.796 23.4629C139.796 22.7904 138.28 22.5967 136.913 22.5967ZM127.197 17.2285C126.462 17.2285 125.865 17.5221 125.865 17.8838C125.865 18.2456 126.511 18.4014 127.247 18.4014C127.983 18.4013 128.748 18.0565 128.748 17.6943C128.748 17.3327 127.933 17.2285 127.197 17.2285ZM124.707 13.3584C123.845 13.3585 123.146 13.7026 123.146 14.127C123.147 14.551 123.904 14.7334 124.766 14.7334C125.627 14.7334 126.525 14.3291 126.525 13.9053C126.525 13.4809 125.569 13.3584 124.707 13.3584ZM211.248 13.2568C210.513 13.2569 209.698 13.361 209.697 13.7227C209.697 14.0848 210.463 14.4296 211.198 14.4297C211.934 14.4297 212.58 14.2739 212.58 13.9121C212.58 13.5504 211.984 13.2568 211.248 13.2568ZM184.352 12.3086C183.787 12.3086 183.162 12.3887 183.162 12.666C183.162 12.9438 183.75 13.208 184.313 13.208C184.877 13.208 185.373 13.089 185.373 12.8115C185.373 12.5338 184.916 12.3086 184.352 12.3086ZM191.904 11.1514C191.042 11.1514 190.086 11.2738 190.086 11.6982C190.086 12.1221 190.984 12.5264 191.846 12.5264C192.707 12.5263 193.464 12.344 193.465 11.9199C193.465 11.4956 192.766 11.1515 191.904 11.1514ZM179.87 8.24512C178.503 8.24512 176.988 8.43892 176.987 9.11133C176.987 9.78433 178.41 10.4247 179.777 10.4248C181.145 10.4248 182.345 10.1362 182.346 9.46387C182.346 8.79131 181.237 8.2452 179.87 8.24512Z" fill="#E1DB9C"/>
<path d="M362.561 3.63086C323.595 1.52803 268.605 6.47684 250.748 8.9248V39.8193H474.373V8.9248C456.516 6.47684 401.526 1.52803 362.561 3.63086Z" fill="#CEC392"/>
<path d="M342.202 3.62207C381.16 1.53695 436.049 6.47854 453.887 8.92383V39.8174H230.518V8.92383C248.355 6.47854 303.244 1.53695 342.202 3.62207Z" fill="#CEC392"/>
<path d="M342.779 3.12109C349.996 3.27661 356.874 3.61883 363.133 4.19922C369.082 3.68077 375.563 3.36877 382.344 3.22266C387.972 5.06011 393.685 6.53528 399.455 7.64062C406.604 9.0347 413.808 10.0172 421.017 10.8926C426.275 11.5317 431.619 12.1442 436.528 14.416C441.437 16.6876 445.945 20.8981 447.661 26.6836C448.914 30.9082 448.559 35.5607 447.304 39.8184H353.803V39.7168H277.819C276.564 35.4592 276.209 30.8066 277.462 26.582C279.178 20.7966 283.686 16.586 288.595 14.3145C293.504 12.0427 298.848 11.4301 304.106 10.791C311.315 9.91564 318.519 8.93314 325.668 7.53906C331.438 6.43372 337.151 4.95854 342.779 3.12109Z" fill="#C2BB88"/>
<path d="M434.611 38.5938C435.347 38.5938 435.943 38.8873 435.943 39.249C435.943 39.6108 435.297 39.7666 434.562 39.7666C433.826 39.7665 433.061 39.4218 433.061 39.0596C433.061 38.6979 433.876 38.5938 434.611 38.5938ZM407.973 37.6455C408.537 37.6456 408.994 37.8707 408.994 38.1484C408.994 38.426 408.498 38.5449 407.935 38.5449C407.371 38.5449 406.783 38.2807 406.783 38.0029C406.783 37.7256 407.408 37.6455 407.973 37.6455ZM415.525 36.4883C416.387 36.4884 417.086 36.8325 417.086 37.2568C417.086 37.6809 416.328 37.8632 415.467 37.8633C414.605 37.8633 413.707 37.459 413.707 37.0352C413.707 36.6108 414.663 36.4883 415.525 36.4883ZM403.319 33.582C404.687 33.5821 405.795 34.1282 405.795 34.8008C405.795 35.4732 404.594 35.7617 403.227 35.7617C401.859 35.7617 400.437 35.1212 400.437 34.4482C400.437 33.7759 401.952 33.582 403.319 33.582ZM369.408 26.6592C369.972 26.6592 370.43 26.8844 370.43 27.1621C370.43 27.4398 369.934 27.5595 369.37 27.5596C368.806 27.5596 368.219 27.2944 368.219 27.0166C368.219 26.7395 368.844 26.6592 369.408 26.6592ZM364.755 22.5967C366.122 22.5968 367.23 23.1429 367.23 23.8154C367.23 24.4877 366.029 24.7764 364.662 24.7764C363.295 24.7763 361.872 24.1359 361.872 23.4629C361.872 22.7904 363.388 22.5967 364.755 22.5967ZM374.471 17.2285C375.206 17.2285 375.803 17.5221 375.803 17.8838C375.803 18.2456 375.157 18.4014 374.421 18.4014C373.685 18.4013 372.92 18.0565 372.92 17.6943C372.92 17.3327 373.735 17.2285 374.471 17.2285ZM376.961 13.3584C377.823 13.3585 378.521 13.7026 378.521 14.127C378.521 14.551 377.764 14.7334 376.902 14.7334C376.041 14.7334 375.143 14.3291 375.143 13.9053C375.143 13.4809 376.099 13.3584 376.961 13.3584ZM290.506 13.2568C291.241 13.2569 292.056 13.361 292.057 13.7227C292.057 14.0848 291.291 14.4296 290.556 14.4297C289.82 14.4297 289.174 14.2739 289.174 13.9121C289.174 13.5504 289.77 13.2568 290.506 13.2568ZM317.402 12.3086C317.967 12.3086 318.592 12.3887 318.592 12.666C318.592 12.9438 318.004 13.208 317.44 13.208C316.877 13.208 316.381 13.089 316.381 12.8115C316.381 12.5338 316.838 12.3086 317.402 12.3086ZM309.85 11.1514C310.712 11.1514 311.668 11.2738 311.668 11.6982C311.668 12.1221 310.77 12.5264 309.908 12.5264C309.047 12.5263 308.289 12.344 308.289 11.9199C308.289 11.4956 308.988 11.1515 309.85 11.1514ZM322.056 8.24512C323.423 8.24512 324.938 8.43892 324.938 9.11133C324.938 9.78433 323.516 10.4247 322.148 10.4248C320.781 10.4248 319.58 10.1362 319.58 9.46387C319.58 8.79131 320.688 8.2452 322.056 8.24512Z" fill="#E1DB9C"/>
<path d="M361.162 3.12109C353.945 3.27661 347.067 3.61883 340.809 4.19922C334.859 3.68077 328.378 3.36877 321.598 3.22266C315.969 5.06011 310.256 6.53528 304.486 7.64062C297.337 9.0347 290.133 10.0172 282.925 10.8926C277.667 11.5317 272.322 12.1442 267.413 14.416C262.504 16.6876 257.996 20.8981 256.28 26.6836C255.028 30.9082 255.383 35.5607 256.638 39.8184H350.139V39.7168H426.122C427.377 35.4592 427.732 30.8066 426.479 26.582C424.764 20.7966 420.256 16.586 415.347 14.3145C410.437 12.0427 405.093 11.4301 399.835 10.791C392.626 9.91564 385.422 8.93314 378.273 7.53906C372.504 6.43372 366.791 4.95854 361.162 3.12109Z" fill="#C2BB88"/>
<path d="M206.316 38.5938C205.581 38.5938 204.985 38.8873 204.984 39.249C204.984 39.6108 205.631 39.7666 206.366 39.7666C207.102 39.7665 207.867 39.4218 207.867 39.0596C207.867 38.6979 207.052 38.5938 206.316 38.5938ZM232.955 37.6455C232.391 37.6456 231.934 37.8707 231.934 38.1484C231.934 38.426 232.429 38.5449 232.993 38.5449C233.557 38.5449 234.144 38.2807 234.145 38.0029C234.145 37.7256 233.519 37.6455 232.955 37.6455ZM225.402 36.4883C224.541 36.4884 223.842 36.8325 223.842 37.2568C223.842 37.6809 224.599 37.8632 225.461 37.8633C226.323 37.8633 227.22 37.459 227.221 37.0352C227.221 36.6108 226.264 36.4883 225.402 36.4883ZM237.608 33.582C236.241 33.5821 235.133 34.1282 235.133 34.8008C235.133 35.4732 236.334 35.7617 237.701 35.7617C239.069 35.7617 240.491 35.1212 240.491 34.4482C240.491 33.7759 238.976 33.582 237.608 33.582ZM271.434 26.6592C270.869 26.6592 270.412 26.8844 270.412 27.1621C270.412 27.4398 270.908 27.5595 271.472 27.5596C272.036 27.5596 272.623 27.2944 272.623 27.0166C272.623 26.7395 271.998 26.6592 271.434 26.6592ZM276.087 22.5967C274.72 22.5968 273.611 23.1429 273.611 23.8154C273.612 24.4877 274.813 24.7764 276.18 24.7764C277.547 24.7763 278.97 24.1359 278.97 23.4629C278.969 22.7904 277.454 22.5967 276.087 22.5967ZM266.371 17.2285C265.636 17.2285 265.039 17.5221 265.039 17.8838C265.039 18.2456 265.685 18.4014 266.421 18.4014C267.156 18.4013 267.922 18.0565 267.922 17.6943C267.922 17.3327 267.107 17.2285 266.371 17.2285ZM263.881 13.3584C263.019 13.3585 262.32 13.7026 262.32 14.127C262.321 14.551 263.078 14.7334 263.939 14.7334C264.801 14.7334 265.699 14.3291 265.699 13.9053C265.699 13.4809 264.743 13.3584 263.881 13.3584ZM350.336 13.2568C349.6 13.2569 348.785 13.361 348.785 13.7227C348.785 14.0848 349.551 14.4296 350.286 14.4297C351.022 14.4297 351.668 14.2739 351.668 13.9121C351.668 13.5504 351.071 13.2568 350.336 13.2568ZM323.697 12.3086C323.133 12.3086 322.508 12.3887 322.508 12.666C322.508 12.9438 323.095 13.208 323.659 13.208C324.223 13.208 324.718 13.089 324.719 12.8115C324.719 12.5338 324.262 12.3086 323.697 12.3086ZM330.992 11.1514C330.13 11.1514 329.174 11.2738 329.174 11.6982C329.174 12.1221 330.072 12.5264 330.934 12.5264C331.795 12.5263 332.552 12.344 332.553 11.9199C332.553 11.4956 331.854 11.1515 330.992 11.1514ZM319.044 8.24512C317.677 8.24512 316.161 8.43892 316.161 9.11133C316.161 9.78433 317.584 10.4247 318.951 10.4248C320.318 10.4248 321.519 10.1362 321.52 9.46387C321.52 8.79131 320.411 8.2452 319.044 8.24512Z" fill="#E1DB9C"/>
</svg>
