<svg width="481" height="125" viewBox="0 0 481 125" fill="none" xmlns="http://www.w3.org/2000/svg">
<path d="M456.671 42.8204C475.263 44.3042 477.359 61.7538 476.029 67.5744C457.735 71.7221 408.761 59.4205 355.53 65.8905C330.231 68.9654 335.105 4.76445 391.064 28.5153C373.24 5.07245 417.626 -9.02849 420.756 26.6872C430.504 0.520844 479.064 22.7239 456.671 42.8204Z" fill="#958E59"/>
<path d="M139.437 64.6328C100.471 62.5298 45.4801 67.4788 27.623 69.9268V100.821H251.25V69.9268C233.393 67.4788 178.402 62.5298 139.437 64.6328Z" fill="#CEC392"/>
<path d="M119.654 64.123C126.871 64.2786 133.749 64.6208 140.008 65.2012C145.957 64.6827 152.438 64.3707 159.219 64.2246C164.847 66.0621 170.56 67.5372 176.33 68.6426C183.479 70.0367 190.683 71.0192 197.892 71.8945C203.15 72.5337 208.494 73.1462 213.403 75.418C218.312 77.6896 222.82 81.9 224.536 87.6855C225.789 91.9102 225.434 96.5627 224.179 100.82H130.678V100.719H54.6943C53.4392 96.4611 53.0844 91.8086 54.3369 87.584C56.0527 81.7985 60.5606 77.588 65.4697 75.3164C70.379 73.0446 75.7231 72.4321 80.9814 71.793C88.1901 70.9176 95.394 69.9351 102.543 68.541C108.313 67.4357 114.026 65.9605 119.654 64.123Z" fill="#C2BB88"/>
<path d="M211.744 99.5957C212.48 99.5957 213.076 99.8892 213.076 100.251C213.076 100.613 212.43 100.769 211.694 100.769C210.959 100.768 210.193 100.424 210.193 100.062C210.193 99.6998 211.009 99.5957 211.744 99.5957ZM184.848 98.6475C185.412 98.6475 185.869 98.8726 185.869 99.1504C185.869 99.4281 185.373 99.5468 184.81 99.5469C184.246 99.5469 183.658 99.2827 183.658 99.0049C183.658 98.7276 184.283 98.6475 184.848 98.6475ZM192.4 97.4902C193.262 97.4903 193.961 97.8344 193.961 98.2588C193.961 98.6829 193.203 98.8652 192.342 98.8652C191.48 98.8652 190.582 98.461 190.582 98.0371C190.582 97.6127 191.538 97.4902 192.4 97.4902ZM180.366 94.584C181.734 94.5841 182.842 95.1302 182.842 95.8027C182.841 96.475 181.641 96.7637 180.273 96.7637C178.906 96.7636 177.483 96.1232 177.483 95.4502C177.484 94.7777 178.999 94.584 180.366 94.584ZM146.285 87.6611C146.849 87.6612 147.307 87.8863 147.307 88.1641C147.307 88.4417 146.811 88.5605 146.247 88.5605C145.683 88.5605 145.096 88.2963 145.096 88.0186C145.096 87.7413 145.721 87.6611 146.285 87.6611ZM141.888 83.5986C143.255 83.5987 144.363 84.1448 144.363 84.8174C144.363 85.4897 143.162 85.7783 141.795 85.7783C140.428 85.7783 139.005 85.1378 139.005 84.4648C139.005 83.7924 140.52 83.5986 141.888 83.5986ZM151.346 78.2305C152.081 78.2305 152.678 78.524 152.678 78.8857C152.678 79.2476 152.032 79.4033 151.296 79.4033C150.56 79.4032 149.795 79.0585 149.795 78.6963C149.795 78.3346 150.61 78.2305 151.346 78.2305ZM153.838 74.3604C154.699 74.3604 155.398 74.7038 155.398 75.1279C155.398 75.5523 154.641 75.7353 153.779 75.7354C152.917 75.7354 152.02 75.3302 152.02 74.9062C152.02 74.4822 152.976 74.3604 153.838 74.3604ZM67.6387 74.2588C68.3742 74.2588 69.1895 74.3628 69.1895 74.7246C69.1894 75.0868 68.424 75.4316 67.6885 75.4316C66.9529 75.4316 66.3067 75.2759 66.3066 74.9141C66.3066 74.5523 66.9031 74.2588 67.6387 74.2588ZM94.2773 73.3105C94.8417 73.3105 95.4668 73.3906 95.4668 73.668C95.4668 73.9458 94.8795 74.21 94.3154 74.21C93.7517 74.2099 93.2561 74.0911 93.2559 73.8135C93.2559 73.5357 93.713 73.3106 94.2773 73.3105ZM86.7246 72.1533C87.5866 72.1533 88.543 72.2758 88.543 72.7002C88.5426 73.1241 87.645 73.5283 86.7832 73.5283C85.9216 73.5283 85.1645 73.346 85.1641 72.9219C85.1641 72.4975 85.8628 72.1534 86.7246 72.1533ZM98.9307 69.2471C100.298 69.2471 101.813 69.441 101.813 70.1133C101.813 70.7863 100.391 71.4267 99.0234 71.4268C97.6561 71.4268 96.4553 71.1383 96.4551 70.4658C96.4551 69.7933 97.5633 69.2472 98.9307 69.2471Z" fill="#E1DB9C"/>
<path d="M125.991 61.5518C169.898 59.27 231.861 64.6407 251.982 67.2969V100.819H0V67.2969C20.1213 64.6407 82.0842 59.27 125.991 61.5518Z" fill="#CEC392"/>
<path d="M159.658 64.123C152.441 64.2786 145.563 64.6208 139.305 65.2012C133.355 64.6827 126.874 64.3707 120.094 64.2246C114.465 66.0621 108.752 67.5372 102.982 68.6426C95.8335 70.0367 88.6295 71.0192 81.4209 71.8945C76.1626 72.5337 70.8184 73.1462 65.9092 75.418C61 77.6896 56.4922 81.9 54.7764 87.6855C53.5238 91.9102 53.8787 96.5627 55.1338 100.82H148.635V100.719H224.618C225.873 96.4611 226.228 91.8086 224.976 87.584C223.26 81.7985 218.752 77.588 213.843 75.3164C208.934 73.0446 203.589 72.4321 198.331 71.793C191.122 70.9176 183.918 69.9351 176.77 68.541C171 67.4357 165.287 65.9605 159.658 64.123Z" fill="#C2BB88"/>
<path d="M67.1426 99.5947C66.4071 99.5947 65.8108 99.8883 65.8105 100.25C65.8105 100.612 66.4568 100.768 67.1924 100.768C67.9279 100.767 68.6934 100.423 68.6934 100.061C68.6931 99.6989 67.878 99.5947 67.1426 99.5947ZM93.7812 98.6465C93.2169 98.6465 92.7598 98.8717 92.7598 99.1494C92.76 99.427 93.2556 99.5459 93.8193 99.5459C94.3833 99.5459 94.9706 99.2817 94.9707 99.0039C94.9707 98.7265 94.3457 98.6465 93.7812 98.6465ZM86.2285 97.4893C85.3667 97.4893 84.668 97.8335 84.668 98.2578C84.6684 98.6819 85.4255 98.8642 86.2871 98.8643C87.1489 98.8643 88.0465 98.46 88.0469 98.0361C88.0469 97.6117 87.0905 97.4893 86.2285 97.4893ZM98.4346 94.583C97.0673 94.5831 95.959 95.1292 95.959 95.8018C95.9593 96.4742 97.16 96.7627 98.5273 96.7627C99.8947 96.7626 101.317 96.1222 101.317 95.4492C101.317 94.7769 99.8018 94.583 98.4346 94.583ZM132.26 87.6602C131.696 87.6602 131.238 87.8854 131.238 88.1631C131.238 88.4408 131.734 88.5605 132.298 88.5605C132.862 88.5605 133.449 88.2954 133.449 88.0176C133.449 87.7405 132.824 87.6602 132.26 87.6602ZM136.913 83.5977C135.546 83.5977 134.438 84.1438 134.438 84.8164C134.438 85.4887 135.639 85.7773 137.006 85.7773C138.373 85.7773 139.796 85.1369 139.796 84.4639C139.796 83.7914 138.28 83.5977 136.913 83.5977ZM127.197 78.2295C126.462 78.2295 125.865 78.5231 125.865 78.8848C125.865 79.2466 126.511 79.4023 127.247 79.4023C127.983 79.4023 128.748 79.0575 128.748 78.6953C128.748 78.3337 127.933 78.2295 127.197 78.2295ZM124.707 74.3594C123.845 74.3595 123.146 74.7036 123.146 75.1279C123.147 75.552 123.904 75.7343 124.766 75.7344C125.627 75.7344 126.525 75.3301 126.525 74.9062C126.525 74.4819 125.569 74.3594 124.707 74.3594ZM211.248 74.2578C210.513 74.2578 209.698 74.362 209.697 74.7236C209.697 75.0858 210.463 75.4306 211.198 75.4307C211.934 75.4307 212.58 75.2749 212.58 74.9131C212.58 74.5514 211.984 74.2578 211.248 74.2578ZM184.352 73.3096C183.787 73.3096 183.162 73.3896 183.162 73.667C183.162 73.9447 183.75 74.209 184.313 74.209C184.877 74.2089 185.373 74.09 185.373 73.8125C185.373 73.5347 184.916 73.3096 184.352 73.3096ZM191.904 72.1523C191.042 72.1523 190.086 72.2748 190.086 72.6992C190.086 73.1231 190.984 73.5273 191.846 73.5273C192.707 73.5273 193.464 73.345 193.465 72.9209C193.465 72.4966 192.766 72.1524 191.904 72.1523ZM179.87 69.2461C178.503 69.2461 176.988 69.4399 176.987 70.1123C176.987 70.7853 178.41 71.4257 179.777 71.4258C181.145 71.4258 182.345 71.1372 182.346 70.4648C182.346 69.7923 181.237 69.2462 179.87 69.2461Z" fill="#E1DB9C"/>
<path d="M362.561 64.6318C323.595 62.529 268.605 67.4778 250.748 69.9258V100.82H474.373V69.9258C456.516 67.4778 401.526 62.529 362.561 64.6318Z" fill="#CEC392"/>
<path d="M342.202 64.623C381.16 62.5379 436.049 67.4795 453.887 69.9248V100.818H230.518V69.9248C248.355 67.4795 303.244 62.5379 342.202 64.623Z" fill="#CEC392"/>
<path d="M342.779 64.1221C349.996 64.2776 356.874 64.6198 363.133 65.2002C369.082 64.6817 375.563 64.3697 382.344 64.2236C387.972 66.0611 393.685 67.5363 399.455 68.6416C406.604 70.0357 413.808 71.0182 421.017 71.8936C426.275 72.5327 431.619 73.1452 436.528 75.417C441.437 77.6886 445.945 81.8991 447.661 87.6846C448.914 91.9092 448.559 96.5617 447.304 100.819H353.803V100.718H277.819C276.564 96.4602 276.209 91.8076 277.462 87.583C279.178 81.7976 283.686 77.587 288.595 75.3154C293.504 73.0436 298.848 72.4311 304.106 71.792C311.315 70.9166 318.519 69.9341 325.668 68.54C331.438 67.4347 337.151 65.9595 342.779 64.1221Z" fill="#C2BB88"/>
<path d="M434.611 99.5947C435.347 99.5947 435.943 99.8883 435.943 100.25C435.943 100.612 435.297 100.768 434.562 100.768C433.826 100.767 433.061 100.423 433.061 100.061C433.061 99.6989 433.876 99.5947 434.611 99.5947ZM407.973 98.6465C408.537 98.6465 408.994 98.8717 408.994 99.1494C408.994 99.427 408.498 99.5459 407.935 99.5459C407.371 99.5459 406.783 99.2817 406.783 99.0039C406.783 98.7265 407.408 98.6465 407.973 98.6465ZM415.525 97.4893C416.387 97.4893 417.086 97.8335 417.086 98.2578C417.086 98.6819 416.328 98.8642 415.467 98.8643C414.605 98.8643 413.707 98.46 413.707 98.0361C413.707 97.6117 414.663 97.4893 415.525 97.4893ZM403.319 94.583C404.687 94.5831 405.795 95.1292 405.795 95.8018C405.795 96.4742 404.594 96.7627 403.227 96.7627C401.859 96.7626 400.437 96.1222 400.437 95.4492C400.437 94.7769 401.952 94.583 403.319 94.583ZM369.408 87.6602C369.972 87.6602 370.43 87.8854 370.43 88.1631C370.43 88.4408 369.934 88.5605 369.37 88.5605C368.806 88.5605 368.219 88.2954 368.219 88.0176C368.219 87.7405 368.844 87.6602 369.408 87.6602ZM364.755 83.5977C366.122 83.5977 367.23 84.1438 367.23 84.8164C367.23 85.4887 366.029 85.7773 364.662 85.7773C363.295 85.7773 361.872 85.1369 361.872 84.4639C361.872 83.7914 363.388 83.5977 364.755 83.5977ZM374.471 78.2295C375.206 78.2295 375.803 78.5231 375.803 78.8848C375.803 79.2466 375.157 79.4023 374.421 79.4023C373.685 79.4023 372.92 79.0575 372.92 78.6953C372.92 78.3337 373.735 78.2295 374.471 78.2295ZM376.961 74.3594C377.823 74.3595 378.521 74.7036 378.521 75.1279C378.521 75.552 377.764 75.7343 376.902 75.7344C376.041 75.7344 375.143 75.3301 375.143 74.9062C375.143 74.4819 376.099 74.3594 376.961 74.3594ZM290.506 74.2578C291.241 74.2578 292.056 74.362 292.057 74.7236C292.057 75.0858 291.291 75.4306 290.556 75.4307C289.82 75.4307 289.174 75.2749 289.174 74.9131C289.174 74.5514 289.77 74.2578 290.506 74.2578ZM317.402 73.3096C317.967 73.3096 318.592 73.3896 318.592 73.667C318.592 73.9447 318.004 74.209 317.44 74.209C316.877 74.2089 316.381 74.09 316.381 73.8125C316.381 73.5347 316.838 73.3096 317.402 73.3096ZM309.85 72.1523C310.712 72.1523 311.668 72.2748 311.668 72.6992C311.668 73.1231 310.77 73.5273 309.908 73.5273C309.047 73.5273 308.289 73.345 308.289 72.9209C308.289 72.4966 308.988 72.1524 309.85 72.1523ZM322.056 69.2461C323.423 69.2461 324.938 69.4399 324.938 70.1123C324.938 70.7853 323.516 71.4257 322.148 71.4258C320.781 71.4258 319.58 71.1372 319.58 70.4648C319.58 69.7923 320.688 69.2462 322.056 69.2461Z" fill="#E1DB9C"/>
<path d="M361.162 64.1221C353.945 64.2776 347.067 64.6198 340.809 65.2002C334.859 64.6817 328.378 64.3697 321.598 64.2236C315.969 66.0611 310.256 67.5363 304.486 68.6416C297.337 70.0357 290.133 71.0182 282.925 71.8936C277.667 72.5327 272.322 73.1452 267.413 75.417C262.504 77.6886 257.996 81.8991 256.28 87.6846C255.028 91.9092 255.383 96.5617 256.638 100.819H350.139V100.718H426.122C427.377 96.4602 427.732 91.8076 426.479 87.583C424.764 81.7976 420.256 77.587 415.347 75.3154C410.437 73.0436 405.093 72.4311 399.835 71.792C392.626 70.9166 385.422 69.9341 378.273 68.54C372.504 67.4347 366.791 65.9595 361.162 64.1221Z" fill="#C2BB88"/>
<path d="M206.316 99.5947C205.581 99.5947 204.985 99.8883 204.984 100.25C204.984 100.612 205.631 100.768 206.366 100.768C207.102 100.767 207.867 100.423 207.867 100.061C207.867 99.6989 207.052 99.5947 206.316 99.5947ZM232.955 98.6465C232.391 98.6465 231.934 98.8717 231.934 99.1494C231.934 99.427 232.429 99.5459 232.993 99.5459C233.557 99.5459 234.144 99.2817 234.145 99.0039C234.145 98.7265 233.519 98.6465 232.955 98.6465ZM225.402 97.4893C224.541 97.4893 223.842 97.8335 223.842 98.2578C223.842 98.6819 224.599 98.8642 225.461 98.8643C226.323 98.8643 227.22 98.46 227.221 98.0361C227.221 97.6117 226.264 97.4893 225.402 97.4893ZM237.608 94.583C236.241 94.5831 235.133 95.1292 235.133 95.8018C235.133 96.4742 236.334 96.7627 237.701 96.7627C239.069 96.7626 240.491 96.1222 240.491 95.4492C240.491 94.7769 238.976 94.583 237.608 94.583ZM271.434 87.6602C270.869 87.6602 270.412 87.8854 270.412 88.1631C270.412 88.4408 270.908 88.5605 271.472 88.5605C272.036 88.5605 272.623 88.2954 272.623 88.0176C272.623 87.7405 271.998 87.6602 271.434 87.6602ZM276.087 83.5977C274.72 83.5977 273.611 84.1438 273.611 84.8164C273.612 85.4887 274.813 85.7773 276.18 85.7773C277.547 85.7773 278.97 85.1369 278.97 84.4639C278.969 83.7914 277.454 83.5977 276.087 83.5977ZM266.371 78.2295C265.636 78.2295 265.039 78.5231 265.039 78.8848C265.039 79.2466 265.685 79.4023 266.421 79.4023C267.156 79.4023 267.922 79.0575 267.922 78.6953C267.922 78.3337 267.107 78.2295 266.371 78.2295ZM263.881 74.3594C263.019 74.3595 262.32 74.7036 262.32 75.1279C262.321 75.552 263.078 75.7343 263.939 75.7344C264.801 75.7344 265.699 75.3301 265.699 74.9062C265.699 74.4819 264.743 74.3594 263.881 74.3594ZM350.336 74.2578C349.6 74.2578 348.785 74.362 348.785 74.7236C348.785 75.0858 349.551 75.4306 350.286 75.4307C351.022 75.4307 351.668 75.2749 351.668 74.9131C351.668 74.5514 351.071 74.2578 350.336 74.2578ZM323.697 73.3096C323.133 73.3096 322.508 73.3896 322.508 73.667C322.508 73.9447 323.095 74.209 323.659 74.209C324.223 74.2089 324.718 74.09 324.719 73.8125C324.719 73.5347 324.262 73.3096 323.697 73.3096ZM330.992 72.1523C330.13 72.1523 329.174 72.2748 329.174 72.6992C329.174 73.1231 330.072 73.5273 330.934 73.5273C331.795 73.5273 332.552 73.345 332.553 72.9209C332.553 72.4966 331.854 72.1524 330.992 72.1523ZM319.044 69.2461C317.677 69.2461 316.161 69.4399 316.161 70.1123C316.161 70.7853 317.584 71.4257 318.951 71.4258C320.318 71.4258 321.519 71.1372 321.52 70.4648C321.52 69.7923 320.411 69.2462 319.044 69.2461Z" fill="#E1DB9C"/>
<rect x="0.0703125" y="98.7344" width="475" height="26" fill="#D1AF73"/>
<path d="M20.5632 51.078C2.62921 51.078 -0.715134 67.643 0.115143 73.3239C17.3325 78.6989 65.2148 70.654 115.742 80.9275C139.756 85.81 139.995 23.9007 84.5413 42.3852C103.419 21.2788 61.9542 4.36774 56.2214 38.3616C48.88 12.5356 0.636549 30.1026 20.5632 51.078Z" fill="#958E59"/>
</svg>
