<svg width="91" height="81" viewBox="0 0 91 81" fill="none" xmlns="http://www.w3.org/2000/svg">
<path opacity="0.25" d="M4.33313 41.2218C0.200644 33.6971 -2.40636 23.548 3.30103 17.1411C8.91363 10.8313 19.3838 12.1434 26.6045 16.5254C33.7637 20.8588 39.2426 27.4278 44.5806 33.8753C46.6934 26.6178 49.5613 19.5872 53.1234 12.9129C55.553 8.36895 58.5635 3.76013 63.2444 1.59748C71.302 -2.12843 81.1346 3.16885 85.8228 10.7098C88.5489 15.0918 90.0866 20.2109 90.2283 25.3705C90.5111 35.641 85.4169 45.2871 79.6229 53.7806C74.5312 61.2429 68.7873 68.2606 62.4756 74.7251C60.3466 76.9056 58.0628 79.0812 55.2055 80.1414C47.8746 82.8581 32.7202 71.3232 26.9107 67.0068C17.6712 60.1422 9.8785 51.3182 4.33313 41.2218Z" fill="#F00E46" fill-opacity="0.5"/>
</svg>
