<svg width="91" height="81" viewBox="0 0 91 81" fill="none" xmlns="http://www.w3.org/2000/svg">
<path id="path40" opacity="0.25" d="M4.60657 40.8679C0.474082 33.3431 -2.13293 23.1941 3.57446 16.7871C9.18707 10.4774 19.6572 11.7895 26.8779 16.1715C34.0371 20.5049 39.516 27.0739 44.854 33.5213C46.9668 26.2639 49.8347 19.2333 53.3969 12.559C55.8265 8.01501 58.8369 3.40619 63.5179 1.24354C71.5754 -2.48238 81.408 2.8149 86.0963 10.3558C88.8224 14.7378 90.36 19.8569 90.5018 25.0165C90.7845 35.2871 85.6904 44.9332 79.8963 53.4266C74.8046 60.889 69.0608 67.9067 62.749 74.3711C60.62 76.5516 58.3362 78.7272 55.4789 79.7875C48.148 82.5042 32.9936 70.9692 27.1842 66.6528C17.9446 59.7882 10.1519 50.9643 4.60657 40.8679Z" fill="#F00E46" fill-opacity="0.5"/>
</svg>
