<svg width="274" height="262" viewBox="0 0 274 262" fill="none" xmlns="http://www.w3.org/2000/svg">
<path opacity="0.25" d="M136.06 261.476C-104.69 150.981 25.2559 -88.7785 136.167 34.2219C136.357 34.433 136.642 34.57 136.926 34.57C137.21 34.57 137.495 34.433 137.686 34.2219C248.596 -88.7785 378.543 150.981 137.792 261.476C137.525 261.599 137.221 261.668 136.926 261.668C136.632 261.668 136.327 261.599 136.06 261.476Z" fill="#F00E46" fill-opacity="0.5"/>
<path opacity="0.25" d="M136.425 222.103C-39.1365 144.909 55.6197 -22.5865 136.501 63.3329C136.643 63.4842 136.852 63.5813 137.06 63.5813C137.267 63.5813 137.476 63.4842 137.618 63.3329C218.499 -22.5865 313.256 144.909 137.694 222.103C137.497 222.19 137.274 222.239 137.06 222.239C136.845 222.239 136.622 222.19 136.425 222.103Z" fill="#F00E46" fill-opacity="0.5"/>
</svg>
