<svg width="355" height="194" viewBox="0 0 355 194" fill="none" xmlns="http://www.w3.org/2000/svg">
<g clip-path="url(#clip0_1438_90945)">
<rect width="355" height="194" rx="12" fill="#F9F4EB"/>
<g opacity="0.5" filter="url(#filter0_d_1438_90945)">
<path d="M177.999 122.374L468.742 -2.36142H-112.743L177.999 122.374Z" fill="#F2DDAF"/>
</g>
<path d="M164.6 122.649C163.255 120.2 162.406 116.897 164.264 114.811C166.091 112.758 169.498 113.185 171.848 114.611C174.178 116.021 175.962 118.159 177.699 120.258C178.387 117.896 179.32 115.608 180.479 113.435C181.27 111.956 182.25 110.456 183.774 109.752C186.396 108.54 189.596 110.264 191.122 112.718C192.009 114.144 192.51 115.811 192.556 117.49C192.648 120.833 190.99 123.972 189.104 126.736C187.447 129.165 185.578 131.449 183.523 133.553C182.83 134.263 182.087 134.971 181.157 135.316C178.771 136.2 173.839 132.446 171.948 131.041C168.941 128.807 166.405 125.935 164.6 122.649" fill="#FAA685"/>
</g>
<defs>
<filter id="filter0_d_1438_90945" x="-114.044" y="-2.36142" width="584.088" height="127.339" filterUnits="userSpaceOnUse" color-interpolation-filters="sRGB">
<feFlood flood-opacity="0" result="BackgroundImageFix"/>
<feColorMatrix in="SourceAlpha" type="matrix" values="0 0 0 0 0 0 0 0 0 0 0 0 0 0 0 0 0 0 127 0" result="hardAlpha"/>
<feOffset dy="1.30187"/>
<feGaussianBlur stdDeviation="0.650936"/>
<feComposite in2="hardAlpha" operator="out"/>
<feColorMatrix type="matrix" values="0 0 0 0 0 0 0 0 0 0 0 0 0 0 0 0 0 0 0.25 0"/>
<feBlend mode="normal" in2="BackgroundImageFix" result="effect1_dropShadow_1438_90945"/>
<feBlend mode="normal" in="SourceGraphic" in2="effect1_dropShadow_1438_90945" result="shape"/>
</filter>
<clipPath id="clip0_1438_90945">
<rect width="355" height="194" rx="12" fill="white"/>
</clipPath>
</defs>
</svg>
