<svg width="295" height="92" viewBox="0 0 295 92" fill="none" xmlns="http://www.w3.org/2000/svg">
<mask id="path-1-outside-1_885_120519" maskUnits="userSpaceOnUse" x="-21" y="-24" width="338" height="130" fill="black">
<rect fill="white" x="-21" y="-24" width="338" height="130"/>
<path d="M62.32 89L55.96 69.56H25.72L19.24 89H0.88L31.72 4.99999H49.96L80.8 89H62.32ZM30.28 55.76H51.4L40.84 23.84L30.28 55.76ZM88.7416 89V49.4C88.7416 46.12 87.1416 44.48 83.9416 44.48V31.28C85.6216 30.64 88.2216 30.32 91.7416 30.32C95.5816 30.32 98.5416 31.16 100.622 32.84C102.702 34.52 103.782 36.56 103.862 38.96L103.982 39.32C105.102 36.36 107.022 34.04 109.742 32.36C112.542 30.6 115.862 29.72 119.702 29.72C123.622 29.72 126.422 30.44 128.102 31.88L121.982 47.96C120.542 47 118.582 46.52 116.102 46.52C112.982 46.52 110.542 47.64 108.782 49.88C107.102 52.12 106.262 55.2 106.262 59.12V89H88.7416ZM173.196 69.56L183.276 78.2C177.836 86.84 169.116 90.96 157.116 90.56C148.556 90.4 141.836 87.84 136.956 82.88C132.156 77.84 129.756 70.76 129.756 61.64C129.756 51.96 132.516 44.2 138.036 38.36C143.636 32.44 150.796 29.48 159.516 29.48C166.316 29.48 171.676 31.12 175.596 34.4C179.516 37.6 181.476 42.08 181.476 47.84C181.476 60.16 170.356 66.68 148.116 67.4C149.556 73.32 153.476 76.28 159.876 76.28C165.396 76.28 169.836 74.04 173.196 69.56ZM159.276 43.64C155.996 43.64 153.316 44.8 151.236 47.12C149.236 49.44 148.036 52.72 147.636 56.96C159.396 56.56 165.276 53.92 165.276 49.04C165.276 45.44 163.276 43.64 159.276 43.64ZM220.608 89.72C212.608 89.72 206.688 87.6 202.848 83.36C199.088 79.04 197.208 72.44 197.208 63.56V45.2H187.248V31.16H197.688V14.24H214.728V31.16H233.928V45.2H214.728V62.48C214.728 70.16 217.648 74 223.488 74C226.528 74 229.368 73.08 232.008 71.24L237.408 84.2C235.488 85.8 232.968 87.12 229.848 88.16C226.728 89.2 223.648 89.72 220.608 89.72ZM288.496 0.0799932L272.896 24.08H258.256L267.976 0.0799932H288.496ZM284.056 69.56L294.136 78.2C288.696 86.84 279.976 90.96 267.976 90.56C259.416 90.4 252.696 87.84 247.816 82.88C243.016 77.84 240.616 70.76 240.616 61.64C240.616 51.96 243.376 44.2 248.896 38.36C254.496 32.44 261.656 29.48 270.376 29.48C277.176 29.48 282.536 31.12 286.456 34.4C290.376 37.6 292.336 42.08 292.336 47.84C292.336 60.16 281.216 66.68 258.976 67.4C260.416 73.32 264.336 76.28 270.736 76.28C276.256 76.28 280.696 74.04 284.056 69.56ZM270.136 43.64C266.856 43.64 264.176 44.8 262.096 47.12C260.096 49.44 258.896 52.72 258.496 56.96C270.256 56.56 276.136 53.92 276.136 49.04C276.136 45.44 274.136 43.64 270.136 43.64Z"/>
</mask>
<path d="M62.32 89L55.96 69.56H25.72L19.24 89H0.88L31.72 4.99999H49.96L80.8 89H62.32ZM30.28 55.76H51.4L40.84 23.84L30.28 55.76ZM88.7416 89V49.4C88.7416 46.12 87.1416 44.48 83.9416 44.48V31.28C85.6216 30.64 88.2216 30.32 91.7416 30.32C95.5816 30.32 98.5416 31.16 100.622 32.84C102.702 34.52 103.782 36.56 103.862 38.96L103.982 39.32C105.102 36.36 107.022 34.04 109.742 32.36C112.542 30.6 115.862 29.72 119.702 29.72C123.622 29.72 126.422 30.44 128.102 31.88L121.982 47.96C120.542 47 118.582 46.52 116.102 46.52C112.982 46.52 110.542 47.64 108.782 49.88C107.102 52.12 106.262 55.2 106.262 59.12V89H88.7416ZM173.196 69.56L183.276 78.2C177.836 86.84 169.116 90.96 157.116 90.56C148.556 90.4 141.836 87.84 136.956 82.88C132.156 77.84 129.756 70.76 129.756 61.64C129.756 51.96 132.516 44.2 138.036 38.36C143.636 32.44 150.796 29.48 159.516 29.48C166.316 29.48 171.676 31.12 175.596 34.4C179.516 37.6 181.476 42.08 181.476 47.84C181.476 60.16 170.356 66.68 148.116 67.4C149.556 73.32 153.476 76.28 159.876 76.28C165.396 76.28 169.836 74.04 173.196 69.56ZM159.276 43.64C155.996 43.64 153.316 44.8 151.236 47.12C149.236 49.44 148.036 52.72 147.636 56.96C159.396 56.56 165.276 53.92 165.276 49.04C165.276 45.44 163.276 43.64 159.276 43.64ZM220.608 89.72C212.608 89.72 206.688 87.6 202.848 83.36C199.088 79.04 197.208 72.44 197.208 63.56V45.2H187.248V31.16H197.688V14.24H214.728V31.16H233.928V45.2H214.728V62.48C214.728 70.16 217.648 74 223.488 74C226.528 74 229.368 73.08 232.008 71.24L237.408 84.2C235.488 85.8 232.968 87.12 229.848 88.16C226.728 89.2 223.648 89.72 220.608 89.72ZM288.496 0.0799932L272.896 24.08H258.256L267.976 0.0799932H288.496ZM284.056 69.56L294.136 78.2C288.696 86.84 279.976 90.96 267.976 90.56C259.416 90.4 252.696 87.84 247.816 82.88C243.016 77.84 240.616 70.76 240.616 61.64C240.616 51.96 243.376 44.2 248.896 38.36C254.496 32.44 261.656 29.48 270.376 29.48C277.176 29.48 282.536 31.12 286.456 34.4C290.376 37.6 292.336 42.08 292.336 47.84C292.336 60.16 281.216 66.68 258.976 67.4C260.416 73.32 264.336 76.28 270.736 76.28C276.256 76.28 280.696 74.04 284.056 69.56ZM270.136 43.64C266.856 43.64 264.176 44.8 262.096 47.12C260.096 49.44 258.896 52.72 258.496 56.96C270.256 56.56 276.136 53.92 276.136 49.04C276.136 45.44 274.136 43.64 270.136 43.64Z" fill="#106EA2"/>
<path d="M62.32 89L48.0636 93.6641L51.4451 104H62.32V89ZM55.96 69.56L70.2164 64.8959L66.8349 54.56H55.96V69.56ZM25.72 69.56V54.56H14.9086L11.4898 64.8166L25.72 69.56ZM19.24 89V104H30.0514L33.4702 93.7434L19.24 89ZM0.88 89L-13.201 83.8303L-20.6061 104H0.88V89ZM31.72 4.99999V-10H21.2481L17.639 -0.169735L31.72 4.99999ZM49.96 4.99999L64.041 -0.169735L60.4319 -10H49.96V4.99999ZM80.8 89V104H102.286L94.881 83.8303L80.8 89ZM30.28 55.76L16.0391 51.0487L9.51806 70.76H30.28V55.76ZM51.4 55.76V70.76H72.1619L65.6409 51.0487L51.4 55.76ZM40.84 23.84L55.0809 19.1287L40.84 -23.9177L26.5991 19.1287L40.84 23.84ZM76.5764 84.3359L70.2164 64.8959L41.7036 74.2241L48.0636 93.6641L76.5764 84.3359ZM55.96 54.56H25.72V84.56H55.96V54.56ZM11.4898 64.8166L5.00975 84.2566L33.4702 93.7434L39.9503 74.3034L11.4898 64.8166ZM19.24 74H0.88V104H19.24V74ZM14.961 94.1697L45.801 10.1697L17.639 -0.169735L-13.201 83.8303L14.961 94.1697ZM31.72 20H49.96V-10H31.72V20ZM35.879 10.1697L66.719 94.1697L94.881 83.8303L64.041 -0.169735L35.879 10.1697ZM80.8 74H62.32V104H80.8V74ZM30.28 70.76H51.4V40.76H30.28V70.76ZM65.6409 51.0487L55.0809 19.1287L26.5991 28.5513L37.1591 60.4713L65.6409 51.0487ZM26.5991 19.1287L16.0391 51.0487L44.5209 60.4713L55.0809 28.5513L26.5991 19.1287ZM88.7416 89H73.7416V104H88.7416V89ZM83.9416 44.48H68.9416V59.48H83.9416V44.48ZM83.9416 31.28L78.6016 17.2627L68.9416 20.9427V31.28H83.9416ZM100.622 32.84L91.1965 44.5091H91.1965L100.622 32.84ZM103.862 38.96L88.8699 39.4597L88.9425 41.6369L89.6313 43.7034L103.862 38.96ZM103.982 39.32L89.7513 44.0634L103.087 84.0701L118.011 44.6284L103.982 39.32ZM109.742 32.36L117.624 45.122L117.674 45.091L117.724 45.0595L109.742 32.36ZM128.102 31.88L142.121 37.2156L145.873 27.3564L137.863 20.4912L128.102 31.88ZM121.982 47.96L113.661 60.4408L129.31 70.8736L136.001 53.2956L121.982 47.96ZM108.782 49.88L96.9868 40.6127L96.8827 40.7452L96.7816 40.88L108.782 49.88ZM106.262 89V104H121.262V89H106.262ZM103.742 89V49.4H73.7416V89H103.742ZM103.742 49.4C103.742 45.5395 102.802 39.8717 98.2783 35.2351C93.6879 30.53 87.949 29.48 83.9416 29.48V59.48C83.1342 59.48 79.7952 59.25 76.8048 56.1849C73.8814 53.1883 73.7416 49.9805 73.7416 49.4H103.742ZM98.9416 44.48V31.28H68.9416V44.48H98.9416ZM89.2815 45.2973C88.9048 45.4408 88.6755 45.4922 88.657 45.4963C88.6316 45.502 88.7309 45.4788 88.9839 45.4477C89.5103 45.3829 90.4007 45.32 91.7416 45.32V15.32C87.8022 15.32 82.9347 15.612 78.6016 17.2627L89.2815 45.2973ZM91.7416 45.32C92.6038 45.32 92.8804 45.4182 92.7465 45.3802C92.5729 45.3309 91.9484 45.1164 91.1965 44.5091L110.047 21.1709C104.349 16.5692 97.5523 15.32 91.7416 15.32V45.32ZM91.1965 44.5091C90.9054 44.274 90.2827 43.6833 89.7347 42.6483C89.1657 41.5734 88.9026 40.4416 88.8699 39.4597L118.853 38.4603C118.611 31.1803 115.085 25.2405 110.047 21.1709L91.1965 44.5091ZM89.6313 43.7034L89.7513 44.0634L118.212 34.5766L118.092 34.2166L89.6313 43.7034ZM118.011 44.6284C118.017 44.6111 118.007 44.6414 117.971 44.7045C117.934 44.7684 117.883 44.8449 117.817 44.9235C117.752 45.002 117.691 45.0618 117.646 45.1011C117.601 45.1397 117.588 45.1442 117.624 45.122L101.859 19.598C96.3553 22.9975 92.256 27.9232 89.9523 34.0116L118.011 44.6284ZM117.724 45.0595C117.769 45.0316 118.222 44.72 119.702 44.72V14.72C113.501 14.72 107.315 16.1684 101.759 19.6604L117.724 45.0595ZM119.702 44.72C120.816 44.72 121.171 44.8299 121.006 44.7874C120.839 44.7444 119.692 44.4276 118.34 43.2688L137.863 20.4912C132.036 15.4966 124.714 14.72 119.702 14.72V44.72ZM114.083 26.5444L107.963 42.6244L136.001 53.2956L142.121 37.2156L114.083 26.5444ZM130.302 35.4792C125.546 32.3084 120.319 31.52 116.102 31.52V61.52C116.402 61.52 116.281 61.5518 115.864 61.4495C115.426 61.3422 114.611 61.0737 113.661 60.4408L130.302 35.4792ZM116.102 31.52C108.881 31.52 101.887 34.3759 96.9868 40.6127L120.576 59.1473C120.076 59.784 119.267 60.4975 118.189 60.9924C117.153 61.4682 116.354 61.52 116.102 61.52V31.52ZM96.7816 40.88C92.511 46.5741 91.2616 53.2212 91.2616 59.12H121.262C121.262 58.6721 121.286 58.3452 121.312 58.1247C121.339 57.9046 121.365 57.8095 121.363 57.8168C121.36 57.826 121.328 57.9437 121.235 58.1388C121.141 58.3371 120.995 58.5948 120.782 58.88L96.7816 40.88ZM91.2616 59.12V89H121.262V59.12H91.2616ZM106.262 74H88.7416V104H106.262V74ZM173.196 69.56L182.958 58.1712L170.802 47.7519L161.196 60.56L173.196 69.56ZM183.276 78.2L195.97 86.1922L202.868 75.2365L193.038 66.8111L183.276 78.2ZM157.116 90.56L157.616 75.5683L157.506 75.5647L157.397 75.5626L157.116 90.56ZM136.956 82.88L126.094 93.2248L126.178 93.3131L126.264 93.4L136.956 82.88ZM138.036 38.36L127.139 28.052L127.135 28.0563L138.036 38.36ZM175.596 34.4L165.97 45.9041L166.04 45.9624L166.111 46.0199L175.596 34.4ZM148.116 67.4L147.631 52.4079L129.177 53.0053L133.541 70.9453L148.116 67.4ZM151.236 47.12L140.068 37.1068L139.97 37.2154L139.875 37.3259L151.236 47.12ZM147.636 56.96L132.703 55.5512L131.101 72.5311L148.146 71.9513L147.636 56.96ZM163.434 80.9488L173.514 89.5889L193.038 66.8111L182.958 58.1712L163.434 80.9488ZM170.583 70.2078C168.531 73.4672 165.399 75.8278 157.616 75.5683L156.617 105.552C172.834 106.092 187.142 100.213 195.97 86.1922L170.583 70.2078ZM157.397 75.5626C151.803 75.4581 149.172 73.9082 147.649 72.36L126.264 93.4C134.5 101.772 145.31 105.342 156.836 105.557L157.397 75.5626ZM147.818 72.5352C146.418 71.065 144.756 68.1417 144.756 61.64H114.756C114.756 73.3783 117.894 84.615 126.094 93.2248L147.818 72.5352ZM144.756 61.64C144.756 54.9611 146.57 51.1685 148.937 48.6637L127.135 28.0563C118.463 37.2315 114.756 48.9589 114.756 61.64H144.756ZM148.933 48.668C151.486 45.9697 154.596 44.48 159.516 44.48V14.48C146.996 14.48 135.787 18.9103 127.139 28.052L148.933 48.668ZM159.516 44.48C163.969 44.48 165.529 45.5349 165.97 45.9041L185.222 22.8959C177.823 16.7051 168.664 14.48 159.516 14.48V44.48ZM166.111 46.0199C166.173 46.0708 166.211 46.1076 166.231 46.1284C166.242 46.139 166.249 46.1467 166.253 46.1513C166.257 46.1559 166.258 46.1583 166.259 46.1587C166.259 46.159 166.258 46.1581 166.257 46.1564C166.256 46.1547 166.255 46.1531 166.254 46.1521C166.253 46.149 166.256 46.1543 166.264 46.1723C166.28 46.2096 166.476 46.666 166.476 47.84H196.476C196.476 38.2762 193.001 29.2444 185.082 22.7801L166.111 46.0199ZM166.476 47.84C166.476 48.5843 166.334 48.6037 166.474 48.368C166.594 48.1647 166.523 48.4591 165.549 49.0302C163.191 50.4129 157.829 52.0777 147.631 52.4079L148.602 82.3921C160.644 82.0023 171.961 80.0471 180.723 74.9098C190.615 69.1102 196.476 59.6184 196.476 47.84H166.476ZM133.541 70.9453C134.877 76.4368 137.762 82.0018 143.097 86.0306C148.353 89.9995 154.404 91.28 159.876 91.28V61.28C158.948 61.28 159.839 61.0805 161.175 62.0894C161.804 62.5641 162.242 63.1003 162.503 63.5336C162.745 63.9343 162.752 64.1049 162.691 63.8547L133.541 70.9453ZM159.876 91.28C170.198 91.28 179.052 86.7525 185.196 78.56L161.196 60.56C160.949 60.8896 160.77 61.0606 160.683 61.1359C160.601 61.2069 160.572 61.2169 160.59 61.2078C160.608 61.1985 160.598 61.2086 160.522 61.2255C160.441 61.2438 160.238 61.28 159.876 61.28V91.28ZM159.276 28.64C151.988 28.64 145.158 31.4288 140.068 37.1068L162.405 57.1332C162.098 57.4755 161.543 57.9389 160.765 58.2758C160.005 58.6046 159.433 58.64 159.276 58.64V28.64ZM139.875 37.3259C135.189 42.7622 133.284 49.3888 132.703 55.5512L162.57 58.3688C162.675 57.2595 162.849 56.6772 162.923 56.4737C162.988 56.2966 162.932 56.5263 162.597 56.9141L139.875 37.3259ZM148.146 71.9513C154.633 71.7307 161.385 70.8898 167.01 68.364C173.269 65.5539 180.276 59.3635 180.276 49.04H150.276C150.276 46.9924 150.98 44.8019 152.357 43.0405C153.557 41.5062 154.713 41.0002 154.722 40.996C154.748 40.9847 154.213 41.2155 152.806 41.4579C151.446 41.6923 149.582 41.8851 147.126 41.9687L148.146 71.9513ZM180.276 49.04C180.276 44.4957 178.941 38.4582 173.811 33.8406C168.981 29.4934 163.221 28.64 159.276 28.64V58.64C159.199 58.64 158.564 58.6368 157.591 58.3449C156.565 58.0371 155.138 57.396 153.742 56.1394C150.611 53.3218 150.276 49.9843 150.276 49.04H180.276ZM202.848 83.36L191.533 93.2079L191.63 93.3195L191.729 93.4292L202.848 83.36ZM197.208 45.2H212.208V30.2H197.208V45.2ZM187.247 45.2H172.247V60.2H187.247V45.2ZM187.247 31.16V16.16H172.247V31.16H187.247ZM197.688 31.16V46.16H212.688V31.16H197.688ZM197.688 14.24V-0.760002H182.688V14.24H197.688ZM214.728 14.24H229.728V-0.760002H214.728V14.24ZM214.728 31.16H199.728V46.16H214.728V31.16ZM233.928 31.16H248.928V16.16H233.928V31.16ZM233.928 45.2V60.2H248.928V45.2H233.928ZM214.728 45.2V30.2H199.728V45.2H214.728ZM232.008 71.24L245.854 65.4708L238.697 48.294L223.431 58.934L232.008 71.24ZM237.408 84.2L247.01 95.7233L255.508 88.6417L251.254 78.4308L237.408 84.2ZM229.848 88.16L234.591 102.39L229.848 88.16ZM220.607 74.72C215.102 74.72 213.972 73.2982 213.966 73.2908L191.729 93.4292C199.403 101.902 210.113 104.72 220.607 104.72V74.72ZM214.162 73.5121C213.786 73.0797 212.208 70.7248 212.208 63.56H182.208C182.208 74.1552 184.389 85.0003 191.533 93.2079L214.162 73.5121ZM212.208 63.56V45.2H182.208V63.56H212.208ZM197.208 30.2H187.247V60.2H197.208V30.2ZM202.247 45.2V31.16H172.247V45.2H202.247ZM187.247 46.16H197.688V16.16H187.247V46.16ZM212.688 31.16V14.24H182.688V31.16H212.688ZM197.688 29.24H214.728V-0.760002H197.688V29.24ZM199.728 14.24V31.16H229.728V14.24H199.728ZM214.728 46.16H233.928V16.16H214.728V46.16ZM218.928 31.16V45.2H248.928V31.16H218.928ZM233.928 30.2H214.728V60.2H233.928V30.2ZM199.728 45.2V62.48H229.728V45.2H199.728ZM199.728 62.48C199.728 67.7951 200.664 74.5265 204.977 80.1994C209.881 86.6483 216.985 89 223.488 89V59C223.653 59 224.503 59.0271 225.677 59.542C226.94 60.0956 228.057 60.9883 228.858 62.0406C229.596 63.0113 229.796 63.7602 229.815 63.8345C229.829 63.8903 229.728 63.4984 229.728 62.48H199.728ZM223.488 89C229.779 89 235.584 87.0312 240.584 83.546L223.431 58.934C223.326 59.0072 223.263 59.0406 223.243 59.0507C223.224 59.0603 223.235 59.0528 223.275 59.0401C223.293 59.034 223.315 59.0278 223.34 59.0219C223.364 59.0161 223.388 59.0114 223.411 59.0078C223.46 59.0002 223.488 59 223.488 59V89ZM218.161 77.0092L223.561 89.9692L251.254 78.4308L245.854 65.4708L218.161 77.0092ZM227.805 72.6767C227.696 72.7669 226.98 73.3043 225.104 73.9297L234.591 102.39C238.955 100.936 243.279 98.8331 247.01 95.7233L227.805 72.6767ZM225.104 73.9297C223.389 74.5016 221.909 74.72 220.607 74.72V104.72C225.386 104.72 230.066 103.898 234.591 102.39L225.104 73.9297ZM288.496 0.0799942L301.072 8.25482L316.136 -14.92H288.496V0.0799942ZM272.896 24.08V39.08H281.036L285.472 32.2548L272.896 24.08ZM258.256 24.08L244.353 18.4493L235.997 39.08H258.256V24.08ZM267.976 0.0799942V-14.92H257.867L254.073 -5.55074L267.976 0.0799942ZM284.056 69.56L293.818 58.1712L281.662 47.7519L272.056 60.56L284.056 69.56ZM294.136 78.2L306.829 86.1922L313.727 75.2365L303.897 66.8111L294.136 78.2ZM267.976 90.56L268.475 75.5683L268.366 75.5647L268.256 75.5626L267.976 90.56ZM247.816 82.88L236.954 93.2248L237.038 93.3131L237.123 93.4L247.816 82.88ZM248.896 38.36L237.999 28.052L237.995 28.0563L248.896 38.36ZM286.456 34.4L276.83 45.9041L276.9 45.9624L276.97 46.0199L286.456 34.4ZM258.976 67.4L258.49 52.4079L240.037 53.0053L244.401 70.9453L258.976 67.4ZM262.096 47.12L250.927 37.1068L250.83 37.2154L250.734 37.3259L262.096 47.12ZM258.496 56.96L243.562 55.5512L241.96 72.5311L259.006 71.9513L258.496 56.96ZM275.919 -8.09483L260.319 15.9052L285.472 32.2548L301.072 8.25482L275.919 -8.09483ZM272.896 9.08H258.256V39.08H272.896V9.08ZM272.159 29.7107L281.879 5.71073L254.073 -5.55074L244.353 18.4493L272.159 29.7107ZM267.976 15.08H288.496V-14.92H267.976V15.08ZM274.294 80.9488L284.374 89.5889L303.897 66.8111L293.818 58.1712L274.294 80.9488ZM281.442 70.2078C279.39 73.4672 276.258 75.8278 268.475 75.5683L267.476 105.552C283.693 106.092 298.001 100.213 306.829 86.1922L281.442 70.2078ZM268.256 75.5626C262.662 75.4581 260.031 73.9082 258.508 72.36L237.123 93.4C245.36 101.772 256.169 105.342 267.695 105.557L268.256 75.5626ZM258.678 72.5352C257.278 71.065 255.616 68.1417 255.616 61.64H225.616C225.616 73.3783 228.754 84.615 236.954 93.2248L258.678 72.5352ZM255.616 61.64C255.616 54.9611 257.429 51.1685 259.797 48.6637L237.995 28.0563C229.322 37.2315 225.616 48.9589 225.616 61.64H255.616ZM259.793 48.668C262.345 45.9697 265.456 44.48 270.376 44.48V14.48C257.856 14.48 246.646 18.9103 237.999 28.052L259.793 48.668ZM270.376 44.48C274.828 44.48 276.389 45.5349 276.83 45.9041L296.081 22.8959C288.683 16.7051 279.523 14.48 270.376 14.48V44.48ZM276.97 46.0199C277.032 46.0708 277.07 46.1076 277.091 46.1284C277.101 46.139 277.108 46.1467 277.112 46.1513C277.116 46.1559 277.118 46.1583 277.118 46.1587C277.118 46.159 277.118 46.1581 277.116 46.1564C277.115 46.1547 277.114 46.1531 277.114 46.1521C277.112 46.149 277.115 46.1543 277.123 46.1723C277.14 46.2096 277.336 46.666 277.336 47.84H307.336C307.336 38.2762 303.86 29.2444 295.941 22.7801L276.97 46.0199ZM277.336 47.84C277.336 48.5843 277.194 48.6037 277.333 48.368C277.453 48.1647 277.383 48.4591 276.409 49.0302C274.05 50.4129 268.688 52.0777 258.49 52.4079L259.461 82.3921C271.503 82.0023 282.821 80.0471 291.583 74.9098C301.474 69.1102 307.336 59.6184 307.336 47.84H277.336ZM244.401 70.9453C245.736 76.4368 248.621 82.0018 253.957 86.0306C259.213 89.9995 265.263 91.28 270.736 91.28V61.28C269.808 61.28 270.699 61.0805 272.035 62.0894C272.663 62.5641 273.101 63.1003 273.363 63.5336C273.604 63.9343 273.611 64.1049 273.551 63.8547L244.401 70.9453ZM270.736 91.28C281.057 91.28 289.911 86.7525 296.056 78.56L272.056 60.56C271.808 60.8896 271.63 61.0606 271.542 61.1359C271.46 61.2069 271.431 61.2169 271.449 61.2078C271.468 61.1985 271.457 61.2086 271.382 61.2255C271.301 61.2438 271.098 61.28 270.736 61.28V91.28ZM270.136 28.64C262.847 28.64 256.018 31.4288 250.927 37.1068L273.264 57.1332C272.957 57.4755 272.402 57.9389 271.624 58.2758C270.864 58.6046 270.293 58.64 270.136 58.64V28.64ZM250.734 37.3259C246.048 42.7622 244.143 49.3888 243.562 55.5512L273.429 58.3688C273.534 57.2595 273.708 56.6772 273.782 56.4737C273.847 56.2966 273.791 56.5263 273.457 56.9141L250.734 37.3259ZM259.006 71.9513C265.493 71.7307 272.244 70.8898 277.869 68.364C284.128 65.5539 291.136 59.3635 291.136 49.04H261.136C261.136 46.9924 261.839 44.8019 263.217 43.0405C264.416 41.5062 265.572 41.0002 265.582 40.996C265.607 40.9847 265.072 41.2155 263.666 41.4579C262.306 41.6923 260.442 41.8851 257.986 41.9687L259.006 71.9513ZM291.136 49.04C291.136 44.4957 289.801 38.4582 284.67 33.8406C279.84 29.4934 274.08 28.64 270.136 28.64V58.64C270.059 58.64 269.423 58.6368 268.45 58.3449C267.424 58.0371 265.997 57.396 264.601 56.1394C261.47 53.3218 261.136 49.9843 261.136 49.04H291.136Z" fill="white" mask="url(#path-1-outside-1_885_120519)"/>
</svg>
