<svg width="560" height="263" viewBox="0 0 560 263" fill="none" xmlns="http://www.w3.org/2000/svg">
<path d="M553.1 21.668V0.167969H540.2H333.6H320.7V21.668H333.6V94.868H226V21.668H238.9V0.167969H226H19.4H6.5V21.668H19.4V234.768H6.5V262.768H19.4H226V234.768V219.668H333.6V234.768V262.768H540.2H553.1V234.768H540.2V21.668H553.1ZM226 120.668H333.6V137.868H226V120.668ZM226 193.868V163.768H333.6V193.868H226Z" fill="#FFF9EF"/>
<path d="M217.4 64.768H174.4V21.768H217.4V64.768ZM385.3 21.668H342.3V64.668H385.3V21.668ZM494.3 21.668H434V64.668H494.3V21.668ZM531.6 21.668H505.8V64.668H531.6V21.668ZM422.6 21.668H396.8V64.668H422.6V21.668ZM144.2 21.668H40.9004V64.668H144.2V21.668ZM217.4 86.268H40.9004V120.668H217.4V86.268ZM217.4 129.268H40.9004V163.668H217.4V129.268ZM217.4 219.668H40.9004V249.768H217.4V219.668ZM540.2 86.268H342.2V120.668H540.2V86.268ZM540.2 129.268H342.2V163.668H540.2V129.268ZM540.2 219.668H342.2V249.768H540.2V219.668Z" fill="#675C56"/>
<path d="M245.4 10.968H0V0.167969H245.4V10.968ZM559.6 0.167969H314.2V10.968H559.6V0.167969ZM381 56.168V249.868H398.2V90.568H424V249.868H441.2V73.368H492.9V249.868H510.1V73.368H535.9V249.868H553.1V56.168H381ZM6.5 56.168V249.868H45.2V77.668H144.2V249.868H178.6V56.168H6.5Z" fill="#FB7807"/>
</svg>
