<svg width="332" height="117" viewBox="0 0 332 117" fill="none" xmlns="http://www.w3.org/2000/svg">
<mask id="path-1-outside-1_1436_90934" maskUnits="userSpaceOnUse" x="-1" y="-1" width="332" height="116" fill="black">
<rect fill="white" x="-1" y="-1" width="332" height="116"/>
<path d="M14.76 98V14H68.88V30.32H32.52V51.2H63V67.28H32.52V98H14.76ZM95.3381 99.56C88.4581 99.56 82.8981 96.84 78.6581 91.4C74.4181 85.88 72.2981 78.6 72.2981 69.56C72.2981 60.36 74.6181 52.88 79.2581 47.12C83.9781 41.36 89.9781 38.48 97.2581 38.48C104.058 38.48 109.058 40.76 112.258 45.32V40.16H128.698V79.64C128.698 81.48 129.058 82.8 129.778 83.6C130.498 84.4 131.738 84.8 133.498 84.8V98C131.818 98.64 129.178 98.96 125.578 98.96C118.218 98.96 114.138 95.96 113.338 89.96L113.218 89.84C109.698 96.32 103.738 99.56 95.3381 99.56ZM101.218 84.92C106.578 84.92 110.018 81.92 111.538 75.92V61.64C109.938 55.96 106.498 53.12 101.218 53.12C93.7781 53.12 90.0581 58.52 90.0581 69.32C90.0581 74.36 91.0181 78.24 92.9381 80.96C94.8581 83.6 97.6181 84.92 101.218 84.92ZM162.447 99.56C149.967 99.56 143.727 92.6 143.727 78.68V40.16H161.247V74.36C161.247 80.76 163.927 83.96 169.287 83.96C172.087 83.96 174.327 82.96 176.007 80.96C177.767 78.96 178.647 76.6 178.647 73.88V40.16H196.167V79.76C196.167 83.12 197.727 84.8 200.847 84.8V98C199.247 98.64 196.687 98.96 193.167 98.96C185.727 98.96 181.607 95.88 180.807 89.72L180.687 89.6C177.087 96.24 171.007 99.56 162.447 99.56ZM213.273 98V58.4C213.273 55.12 211.673 53.48 208.473 53.48V40.28C210.153 39.64 212.753 39.32 216.273 39.32C220.113 39.32 223.073 40.16 225.153 41.84C227.233 43.52 228.313 45.56 228.393 47.96L228.513 48.32C229.633 45.36 231.553 43.04 234.273 41.36C237.073 39.6 240.393 38.72 244.233 38.72C248.153 38.72 250.953 39.44 252.633 40.88L246.513 56.96C245.073 56 243.113 55.52 240.633 55.52C237.513 55.52 235.073 56.64 233.313 58.88C231.633 61.12 230.793 64.2 230.793 68.12V98H213.273ZM277.448 99.56C270.568 99.56 265.008 96.84 260.768 91.4C256.528 85.88 254.408 78.6 254.408 69.56C254.408 60.36 256.728 52.88 261.368 47.12C266.088 41.36 272.088 38.48 279.368 38.48C286.168 38.48 291.168 40.76 294.368 45.32V40.16H310.808V79.64C310.808 81.48 311.168 82.8 311.888 83.6C312.608 84.4 313.848 84.8 315.608 84.8V98C313.928 98.64 311.288 98.96 307.688 98.96C300.328 98.96 296.248 95.96 295.448 89.96L295.328 89.84C291.808 96.32 285.848 99.56 277.448 99.56ZM283.328 84.92C288.688 84.92 292.128 81.92 293.648 75.92V61.64C292.048 55.96 288.608 53.12 283.328 53.12C275.888 53.12 272.168 58.52 272.168 69.32C272.168 74.36 273.128 78.24 275.048 80.96C276.968 83.6 279.728 84.92 283.328 84.92Z"/>
</mask>
<path d="M14.76 98V14H68.88V30.32H32.52V51.2H63V67.28H32.52V98H14.76ZM95.3381 99.56C88.4581 99.56 82.8981 96.84 78.6581 91.4C74.4181 85.88 72.2981 78.6 72.2981 69.56C72.2981 60.36 74.6181 52.88 79.2581 47.12C83.9781 41.36 89.9781 38.48 97.2581 38.48C104.058 38.48 109.058 40.76 112.258 45.32V40.16H128.698V79.64C128.698 81.48 129.058 82.8 129.778 83.6C130.498 84.4 131.738 84.8 133.498 84.8V98C131.818 98.64 129.178 98.96 125.578 98.96C118.218 98.96 114.138 95.96 113.338 89.96L113.218 89.84C109.698 96.32 103.738 99.56 95.3381 99.56ZM101.218 84.92C106.578 84.92 110.018 81.92 111.538 75.92V61.64C109.938 55.96 106.498 53.12 101.218 53.12C93.7781 53.12 90.0581 58.52 90.0581 69.32C90.0581 74.36 91.0181 78.24 92.9381 80.96C94.8581 83.6 97.6181 84.92 101.218 84.92ZM162.447 99.56C149.967 99.56 143.727 92.6 143.727 78.68V40.16H161.247V74.36C161.247 80.76 163.927 83.96 169.287 83.96C172.087 83.96 174.327 82.96 176.007 80.96C177.767 78.96 178.647 76.6 178.647 73.88V40.16H196.167V79.76C196.167 83.12 197.727 84.8 200.847 84.8V98C199.247 98.64 196.687 98.96 193.167 98.96C185.727 98.96 181.607 95.88 180.807 89.72L180.687 89.6C177.087 96.24 171.007 99.56 162.447 99.56ZM213.273 98V58.4C213.273 55.12 211.673 53.48 208.473 53.48V40.28C210.153 39.64 212.753 39.32 216.273 39.32C220.113 39.32 223.073 40.16 225.153 41.84C227.233 43.52 228.313 45.56 228.393 47.96L228.513 48.32C229.633 45.36 231.553 43.04 234.273 41.36C237.073 39.6 240.393 38.72 244.233 38.72C248.153 38.72 250.953 39.44 252.633 40.88L246.513 56.96C245.073 56 243.113 55.52 240.633 55.52C237.513 55.52 235.073 56.64 233.313 58.88C231.633 61.12 230.793 64.2 230.793 68.12V98H213.273ZM277.448 99.56C270.568 99.56 265.008 96.84 260.768 91.4C256.528 85.88 254.408 78.6 254.408 69.56C254.408 60.36 256.728 52.88 261.368 47.12C266.088 41.36 272.088 38.48 279.368 38.48C286.168 38.48 291.168 40.76 294.368 45.32V40.16H310.808V79.64C310.808 81.48 311.168 82.8 311.888 83.6C312.608 84.4 313.848 84.8 315.608 84.8V98C313.928 98.64 311.288 98.96 307.688 98.96C300.328 98.96 296.248 95.96 295.448 89.96L295.328 89.84C291.808 96.32 285.848 99.56 277.448 99.56ZM283.328 84.92C288.688 84.92 292.128 81.92 293.648 75.92V61.64C292.048 55.96 288.608 53.12 283.328 53.12C275.888 53.12 272.168 58.52 272.168 69.32C272.168 74.36 273.128 78.24 275.048 80.96C276.968 83.6 279.728 84.92 283.328 84.92Z" fill="#106EA2"/>
<path d="M14.76 98H-0.239999V113H14.76V98ZM14.76 14V-1.00001H-0.239999V14H14.76ZM68.88 14H83.88V-1.00001H68.88V14ZM68.88 30.32V45.32H83.88V30.32H68.88ZM32.52 30.32V15.32H17.52V30.32H32.52ZM32.52 51.2H17.52V66.2H32.52V51.2ZM63 51.2H78V36.2H63V51.2ZM63 67.28V82.28H78V67.28H63ZM32.52 67.28V52.28H17.52V67.28H32.52ZM32.52 98V113H47.52V98H32.52ZM29.76 98V14H-0.239999V98H29.76ZM14.76 29H68.88V-1.00001H14.76V29ZM53.88 14V30.32H83.88V14H53.88ZM68.88 15.32H32.52V45.32H68.88V15.32ZM17.52 30.32V51.2H47.52V30.32H17.52ZM32.52 66.2H63V36.2H32.52V66.2ZM48 51.2V67.28H78V51.2H48ZM63 52.28H32.52V82.28H63V52.28ZM17.52 67.28V98H47.52V67.28H17.52ZM32.52 83H14.76V113H32.52V83ZM78.6581 91.4L66.7624 100.537L66.7946 100.579L66.8272 100.621L78.6581 91.4ZM79.2581 47.12L67.6559 37.6127L67.6162 37.6612L67.5768 37.7101L79.2581 47.12ZM112.258 45.32L99.9798 53.9364L127.258 92.808V45.32H112.258ZM112.258 40.16V25.16H97.2581V40.16H112.258ZM128.698 40.16H143.698V25.16H128.698V40.16ZM129.778 83.6L118.629 93.6345L118.629 93.6345L129.778 83.6ZM133.498 84.8H148.498V69.8H133.498V84.8ZM133.498 98L138.838 112.017L148.498 108.337V98H133.498ZM113.338 89.96L128.207 87.9775L127.535 82.944L123.945 79.3533L113.338 89.96ZM113.218 89.84L123.825 79.2333L109.624 65.0325L100.037 82.68L113.218 89.84ZM111.538 75.92L126.079 79.6036L126.538 77.7905V75.92H111.538ZM111.538 61.64H126.538V59.5677L125.976 57.5729L111.538 61.64ZM92.9381 80.96L80.6836 89.6102L80.7447 89.6968L80.8071 89.7826L92.9381 80.96ZM95.3381 84.56C93.0952 84.56 91.8951 83.9829 90.489 82.1789L66.8272 100.621C73.9011 109.697 83.8211 114.56 95.3381 114.56V84.56ZM90.5539 82.2627C88.8576 80.0543 87.2981 76.2877 87.2981 69.56H57.2981C57.2981 80.9123 59.9787 91.7057 66.7624 100.537L90.5539 82.2627ZM87.2981 69.56C87.2981 62.9271 88.9289 59.0258 90.9394 56.5299L67.5768 37.7101C60.3073 46.7342 57.2981 57.7929 57.2981 69.56H87.2981ZM90.8603 56.6273C92.8069 54.2518 94.5912 53.48 97.2581 53.48V23.48C85.3651 23.48 75.1493 28.4682 67.6559 37.6127L90.8603 56.6273ZM97.2581 53.48C99.0075 53.48 99.7448 53.7743 99.8846 53.838C99.9522 53.8688 99.9453 53.8737 99.9123 53.8462C99.8803 53.8195 99.9052 53.8301 99.9798 53.9364L124.536 36.7036C117.894 27.2374 107.726 23.48 97.2581 23.48V53.48ZM127.258 45.32V40.16H97.2581V45.32H127.258ZM112.258 55.16H128.698V25.16H112.258V55.16ZM113.698 40.16V79.64H143.698V40.16H113.698ZM113.698 79.64C113.698 82.7639 114.184 88.6959 118.629 93.6345L140.928 73.5655C142.502 75.3149 143.166 77.0585 143.44 78.0632C143.58 78.5778 143.641 78.9789 143.669 79.2246C143.697 79.4726 143.698 79.6185 143.698 79.64H113.698ZM118.629 93.6345C123.569 99.1235 130.104 99.8 133.498 99.8V69.8C133.671 69.8 134.567 69.8094 135.853 70.2244C137.221 70.6656 139.18 71.6237 140.928 73.5655L118.629 93.6345ZM118.498 84.8V98H148.498V84.8H118.498ZM128.158 83.9827C128.551 83.833 128.79 83.7804 128.804 83.7772C128.827 83.7722 128.72 83.7967 128.453 83.829C127.899 83.8962 126.97 83.96 125.578 83.96V113.96C129.548 113.96 134.482 113.677 138.838 112.017L128.158 83.9827ZM125.578 83.96C123.704 83.96 124.417 83.5465 125.884 84.6252C126.663 85.1981 127.308 85.9528 127.739 86.7476C128.143 87.4921 128.208 87.9904 128.207 87.9775L98.4697 91.9425C99.295 98.1323 102.156 104.415 108.112 108.795C113.659 112.873 120.092 113.96 125.578 113.96V83.96ZM123.945 79.3533L123.825 79.2333L102.612 100.447L102.732 100.567L123.945 79.3533ZM100.037 82.68C99.5343 83.6059 99.158 83.8351 98.9439 83.9514C98.6271 84.1237 97.6235 84.56 95.3381 84.56V114.56C108.308 114.56 119.839 109.076 126.399 97L100.037 82.68ZM101.218 99.92C106.856 99.92 112.761 98.2621 117.677 93.9749C122.385 89.8694 124.831 84.531 126.079 79.6036L96.9975 72.2364C96.7257 73.309 96.6915 72.4706 97.9592 71.3651C98.5958 70.8099 99.3279 70.4019 100.038 70.1598C100.714 69.9292 101.159 69.92 101.218 69.92V99.92ZM126.538 75.92V61.64H96.5381V75.92H126.538ZM125.976 57.5729C124.612 52.7301 122.036 47.5859 117.308 43.6827C112.426 39.6521 106.674 38.12 101.218 38.12V68.12C101.195 68.12 100.806 68.1163 100.188 67.9151C99.5394 67.7039 98.8404 67.3391 98.2084 66.8173C96.9206 65.7541 96.8642 64.8699 97.1 65.7071L125.976 57.5729ZM101.218 38.12C93.3354 38.12 85.5659 41.3002 80.4955 48.6604C76.1203 55.0115 75.0581 62.6628 75.0581 69.32H105.058C105.058 67.4333 105.225 66.2427 105.375 65.5896C105.525 64.9364 105.59 65.1151 105.201 65.6796C104.745 66.3416 103.95 67.1119 102.869 67.6349C101.859 68.1234 101.174 68.12 101.218 68.12V38.12ZM75.0581 69.32C75.0581 75.9607 76.2738 83.3631 80.6836 89.6102L105.193 72.3098C105.501 72.7463 105.459 72.8902 105.339 72.4073C105.215 71.9052 105.058 70.9255 105.058 69.32H75.0581ZM80.8071 89.7826C85.8703 96.7445 93.3914 99.92 101.218 99.92V69.92C101.265 69.92 101.953 69.9353 102.92 70.398C103.939 70.8851 104.664 71.581 105.069 72.1374L80.8071 89.7826ZM143.727 40.16V25.16H128.727V40.16H143.727ZM161.247 40.16H176.247V25.16H161.247V40.16ZM176.007 80.96L164.746 71.0506L164.633 71.1801L164.522 71.3121L176.007 80.96ZM178.647 40.16V25.16H163.647V40.16H178.647ZM196.167 40.16H211.167V25.16H196.167V40.16ZM200.847 84.8H215.847V69.8H200.847V84.8ZM200.847 98L206.418 111.927L215.847 108.156V98H200.847ZM180.807 89.72L195.682 87.7882L195.025 82.7243L191.414 79.1134L180.807 89.72ZM180.687 89.6L191.294 78.9934L177.081 64.7804L167.501 82.4506L180.687 89.6ZM162.447 84.56C160.683 84.56 159.793 84.3099 159.485 84.1953C159.264 84.1132 159.402 84.1335 159.576 84.3268C159.889 84.6768 158.727 83.7074 158.727 78.68H128.727C128.727 87.5726 130.685 97.0432 137.239 104.353C144.072 111.975 153.446 114.56 162.447 114.56V84.56ZM158.727 78.68V40.16H128.727V78.68H158.727ZM143.727 55.16H161.247V25.16H143.727V55.16ZM146.247 40.16V74.36H176.247V40.16H146.247ZM146.247 74.36C146.247 79.2877 147.224 85.7774 151.757 91.191C156.718 97.1142 163.528 98.96 169.287 98.96V68.96C169.408 68.96 170.19 68.9751 171.317 69.4233C172.534 69.908 173.771 70.7514 174.757 71.929C176.611 74.1426 176.247 75.8323 176.247 74.36H146.247ZM169.287 98.96C176.155 98.96 182.737 96.2696 187.493 90.6079L164.522 71.3121C165.046 70.6884 165.866 69.9981 166.952 69.5129C168.011 69.0405 168.877 68.96 169.287 68.96V98.96ZM187.268 90.8694C191.493 86.0683 193.647 80.1638 193.647 73.88H163.647C163.647 73.5942 163.699 73.0752 163.932 72.4493C164.168 71.8185 164.489 71.3434 164.746 71.0506L187.268 90.8694ZM193.647 73.88V40.16H163.647V73.88H193.647ZM178.647 55.16H196.167V25.16H178.647V55.16ZM181.167 40.16V79.76H211.167V40.16H181.167ZM181.167 79.76C181.167 83.4874 182.01 89.0777 186.345 93.7468C190.876 98.6255 196.678 99.8 200.847 99.8V69.8C201.896 69.8 205.359 70.1345 208.329 73.3332C211.105 76.3223 211.167 79.3926 211.167 79.76H181.167ZM185.847 84.8V98H215.847V84.8H185.847ZM195.276 84.0728C195.735 83.8894 196.034 83.818 196.094 83.8041C196.164 83.7882 196.099 83.8068 195.867 83.8358C195.38 83.8967 194.512 83.96 193.167 83.96V113.96C197.025 113.96 202.014 113.689 206.418 111.927L195.276 84.0728ZM193.167 83.96C191.292 83.96 192.016 83.543 193.479 84.636C194.248 85.211 194.866 85.955 195.27 86.7126C195.646 87.4184 195.692 87.8644 195.682 87.7882L165.932 91.6518C166.738 97.8556 169.552 104.205 175.516 108.664C181.098 112.837 187.602 113.96 193.167 113.96V83.96ZM191.414 79.1134L191.294 78.9934L170.081 100.207L170.201 100.327L191.414 79.1134ZM167.501 82.4506C166.949 83.4683 166.513 83.755 166.238 83.9049C165.865 84.1089 164.799 84.56 162.447 84.56V114.56C175.618 114.56 187.251 108.964 193.874 96.7494L167.501 82.4506ZM213.273 98H198.273V113H213.273V98ZM208.473 53.48H193.473V68.48H208.473V53.48ZM208.473 40.28L203.133 26.2627L193.473 29.9427V40.28H208.473ZM225.153 41.84L215.728 53.5091L215.728 53.5091L225.153 41.84ZM228.393 47.96L213.401 48.4597L213.474 50.6369L214.163 52.7034L228.393 47.96ZM228.513 48.32L214.283 53.0634L227.618 93.0701L242.542 53.6284L228.513 48.32ZM234.273 41.36L242.155 54.122L242.205 54.091L242.255 54.0595L234.273 41.36ZM252.633 40.88L266.652 46.2156L270.404 36.3564L262.395 29.4912L252.633 40.88ZM246.513 56.96L238.192 69.4408L253.842 79.8736L260.532 62.2956L246.513 56.96ZM233.313 58.88L221.518 49.6127L221.414 49.7452L221.313 49.88L233.313 58.88ZM230.793 98V113H245.793V98H230.793ZM228.273 98V58.4H198.273V98H228.273ZM228.273 58.4C228.273 54.5395 227.333 48.8717 222.81 44.2351C218.219 39.53 212.48 38.48 208.473 38.48V68.48C207.665 68.48 204.326 68.25 201.336 65.1849C198.413 62.1883 198.273 58.9805 198.273 58.4H228.273ZM223.473 53.48V40.28H193.473V53.48H223.473ZM213.813 54.2973C213.436 54.4408 213.207 54.4922 213.188 54.4963C213.163 54.502 213.262 54.4788 213.515 54.4477C214.042 54.3829 214.932 54.32 216.273 54.32V24.32C212.333 24.32 207.466 24.612 203.133 26.2627L213.813 54.2973ZM216.273 54.32C217.135 54.32 217.412 54.4182 217.278 54.3802C217.104 54.3309 216.48 54.1164 215.728 53.5091L234.578 30.1709C228.881 25.5692 222.084 24.32 216.273 24.32V54.32ZM215.728 53.5091C215.437 53.274 214.814 52.6832 214.266 51.6483C213.697 50.5734 213.434 49.4416 213.401 48.4597L243.384 47.4603C243.142 40.1803 239.616 34.2405 234.578 30.1709L215.728 53.5091ZM214.163 52.7034L214.283 53.0634L242.743 43.5766L242.623 43.2166L214.163 52.7034ZM242.542 53.6284C242.549 53.6111 242.538 53.6414 242.502 53.7045C242.465 53.7684 242.414 53.8449 242.349 53.9235C242.284 54.002 242.223 54.0618 242.177 54.1011C242.132 54.1397 242.119 54.1442 242.155 54.122L226.39 28.598C220.887 31.9975 216.787 36.9232 214.484 43.0116L242.542 53.6284ZM242.255 54.0595C242.3 54.0316 242.753 53.72 244.233 53.72V23.72C238.032 23.72 231.846 25.1684 226.29 28.6604L242.255 54.0595ZM244.233 53.72C245.347 53.72 245.703 53.8299 245.537 53.7874C245.37 53.7444 244.223 53.4276 242.871 52.2688L262.395 29.4912C256.568 24.4966 249.246 23.72 244.233 23.72V53.72ZM238.614 35.5444L232.494 51.6244L260.532 62.2956L266.652 46.2156L238.614 35.5444ZM254.833 44.4792C250.077 41.3084 244.85 40.52 240.633 40.52V70.52C240.933 70.52 240.813 70.5518 240.395 70.4495C239.957 70.3422 239.142 70.0737 238.192 69.4408L254.833 44.4792ZM240.633 40.52C233.412 40.52 226.418 43.3759 221.518 49.6127L245.108 68.1473C244.607 68.784 243.799 69.4975 242.72 69.9924C241.684 70.4682 240.885 70.52 240.633 70.52V40.52ZM221.313 49.88C217.042 55.5741 215.793 62.2212 215.793 68.12H245.793C245.793 67.6721 245.817 67.3452 245.843 67.1247C245.87 66.9046 245.896 66.8095 245.894 66.8168C245.892 66.826 245.859 66.9437 245.766 67.1388C245.672 67.3371 245.527 67.5948 245.313 67.88L221.313 49.88ZM215.793 68.12V98H245.793V68.12H215.793ZM230.793 83H213.273V113H230.793V83ZM260.768 91.4L248.872 100.537L248.904 100.579L248.937 100.621L260.768 91.4ZM261.368 47.12L249.765 37.6127L249.726 37.6612L249.686 37.7101L261.368 47.12ZM294.368 45.32L282.089 53.9364L309.368 92.808V45.32H294.368ZM294.368 40.16V25.16H279.368V40.16H294.368ZM310.808 40.16H325.808V25.16H310.808V40.16ZM311.888 83.6L300.738 93.6345L300.738 93.6345L311.888 83.6ZM315.608 84.8H330.608V69.8H315.608V84.8ZM315.608 98L320.947 112.017L330.608 108.337V98H315.608ZM295.448 89.96L310.316 87.9775L309.645 82.944L306.054 79.3533L295.448 89.96ZM295.328 89.84L305.934 79.2333L291.733 65.0325L282.147 82.68L295.328 89.84ZM293.648 75.92L308.188 79.6036L308.648 77.7905V75.92H293.648ZM293.648 61.64H308.648V59.5677L308.086 57.5729L293.648 61.64ZM275.048 80.96L262.793 89.6102L262.854 89.6968L262.916 89.7826L275.048 80.96ZM277.448 84.56C275.205 84.56 274.004 83.9829 272.598 82.1789L248.937 100.621C256.011 109.697 265.93 114.56 277.448 114.56V84.56ZM272.663 82.2627C270.967 80.0543 269.408 76.2877 269.408 69.56H239.408C239.408 80.9123 242.088 91.7057 248.872 100.537L272.663 82.2627ZM269.408 69.56C269.408 62.9271 271.038 59.0258 273.049 56.5299L249.686 37.7101C242.417 46.7342 239.408 57.7929 239.408 69.56H269.408ZM272.97 56.6273C274.916 54.2518 276.701 53.48 279.368 53.48V23.48C267.474 23.48 257.259 28.4682 249.765 37.6127L272.97 56.6273ZM279.368 53.48C281.117 53.48 281.854 53.7743 281.994 53.838C282.062 53.8688 282.055 53.8737 282.022 53.8462C281.99 53.8195 282.015 53.8301 282.089 53.9364L306.646 36.7036C300.003 27.2374 289.835 23.48 279.368 23.48V53.48ZM309.368 45.32V40.16H279.368V45.32H309.368ZM294.368 55.16H310.808V25.16H294.368V55.16ZM295.808 40.16V79.64H325.808V40.16H295.808ZM295.808 79.64C295.808 82.7639 296.293 88.6959 300.738 93.6345L323.037 73.5655C324.611 75.3149 325.275 77.0585 325.549 78.0632C325.689 78.5778 325.751 78.9789 325.779 79.2246C325.807 79.4726 325.808 79.6185 325.808 79.64H295.808ZM300.738 93.6345C305.678 99.1235 312.213 99.8 315.608 99.8V69.8C315.78 69.8 316.676 69.8094 317.963 70.2244C319.33 70.6656 321.289 71.6237 323.037 73.5655L300.738 93.6345ZM300.608 84.8V98H330.608V84.8H300.608ZM310.268 83.9827C310.661 83.833 310.899 83.7804 310.914 83.7772C310.936 83.7722 310.829 83.7967 310.563 83.829C310.008 83.8962 309.08 83.96 307.688 83.96V113.96C311.657 113.96 316.591 113.677 320.947 112.017L310.268 83.9827ZM307.688 83.96C305.813 83.96 306.526 83.5465 307.993 84.6252C308.772 85.1981 309.418 85.9528 309.849 86.7476C310.252 87.4921 310.318 87.9904 310.316 87.9775L280.579 91.9425C281.404 98.1323 284.265 104.415 290.222 108.795C295.769 112.873 302.202 113.96 307.688 113.96V83.96ZM306.054 79.3533L305.934 79.2333L284.721 100.447L284.841 100.567L306.054 79.3533ZM282.147 82.68C281.644 83.6059 281.267 83.8351 281.053 83.9514C280.736 84.1237 279.733 84.56 277.448 84.56V114.56C290.417 114.56 301.948 109.076 308.508 97L282.147 82.68ZM283.328 99.92C288.965 99.92 294.87 98.2621 299.786 93.9749C304.494 89.8694 306.94 84.531 308.188 79.6036L279.107 72.2364C278.835 73.309 278.801 72.4706 280.069 71.3651C280.705 70.8099 281.437 70.4019 282.147 70.1598C282.824 69.9292 283.268 69.92 283.328 69.92V99.92ZM308.648 75.92V61.64H278.648V75.92H308.648ZM308.086 57.5729C306.721 52.7301 304.145 47.5859 299.417 43.6827C294.535 39.6521 288.784 38.12 283.328 38.12V68.12C283.304 68.12 282.915 68.1163 282.297 67.9151C281.649 67.7039 280.95 67.3391 280.318 66.8173C279.03 65.7541 278.974 64.8699 279.209 65.7071L308.086 57.5729ZM283.328 38.12C275.445 38.12 267.675 41.3002 262.605 48.6604C258.23 55.0115 257.168 62.6628 257.168 69.32H287.168C287.168 67.4333 287.335 66.2427 287.485 65.5896C287.634 64.9364 287.699 65.1151 287.31 65.6796C286.854 66.3416 286.059 67.1119 284.978 67.6349C283.969 68.1234 283.283 68.12 283.328 68.12V38.12ZM257.168 69.32C257.168 75.9607 258.383 83.3631 262.793 89.6102L287.302 72.3098C287.61 72.7463 287.568 72.8902 287.448 72.4073C287.324 71.9052 287.168 70.9255 287.168 69.32H257.168ZM262.916 89.7826C267.98 96.7445 275.501 99.92 283.328 99.92V69.92C283.374 69.92 284.062 69.9353 285.029 70.398C286.048 70.8851 286.774 71.581 287.179 72.1374L262.916 89.7826Z" fill="white" mask="url(#path-1-outside-1_1436_90934)"/>
</svg>
