<svg width="538" height="116" viewBox="0 0 538 116" fill="none" xmlns="http://www.w3.org/2000/svg">
<mask id="path-1-outside-1_1436_90928" maskUnits="userSpaceOnUse" x="-1" y="-1" width="539" height="118" fill="black">
<rect fill="white" x="-1" y="-1" width="539" height="118"/>
<path d="M52.24 101.32C40.56 101.32 31.32 97.56 24.52 90.04C17.8 82.44 14.44 71.92 14.44 58.48C14.44 45.04 17.84 34.4 24.64 26.56C31.44 18.64 40.64 14.68 52.24 14.68C60.72 14.68 67.72 16.84 73.24 21.16C78.84 25.4 81.64 31.68 81.64 40C81.64 42.16 81.32 44.6 80.68 47.32H64.12C64.52 45.72 64.72 44.2 64.72 42.76C64.72 39 63.56 36.04 61.24 33.88C59 31.64 55.84 30.52 51.76 30.52C45.84 30.52 41.24 32.88 37.96 37.6C34.68 42.32 33.04 49.16 33.04 58.12C33.04 66.92 34.88 73.76 38.56 78.64C42.24 83.44 47.32 85.84 53.8 85.84C57.8 85.84 61.08 85.08 63.64 83.56C66.28 81.96 68.68 79.4 70.84 75.88L82.84 84.4C76.52 95.68 66.32 101.32 52.24 101.32ZM111.629 100V32.08H87.0288V16H153.149V32.08H129.389V100H111.629ZM194.388 101.32C182.708 101.32 173.468 97.56 166.668 90.04C159.948 82.44 156.588 71.92 156.588 58.48C156.588 45.04 159.988 34.4 166.788 26.56C173.588 18.64 182.788 14.68 194.388 14.68C202.868 14.68 209.868 16.84 215.388 21.16C220.988 25.4 223.788 31.68 223.788 40C223.788 42.16 223.468 44.6 222.828 47.32H206.268C206.668 45.72 206.868 44.2 206.868 42.76C206.868 39 205.708 36.04 203.388 33.88C201.148 31.64 197.988 30.52 193.908 30.52C187.988 30.52 183.388 32.88 180.108 37.6C176.828 42.32 175.188 49.16 175.188 58.12C175.188 66.92 177.028 73.76 180.708 78.64C184.388 83.44 189.468 85.84 195.948 85.84C199.948 85.84 203.228 85.08 205.788 83.56C208.428 81.96 210.828 79.4 212.988 75.88L224.988 84.4C218.668 95.68 208.468 101.32 194.388 101.32ZM231.742 73.72V61.12H266.542V73.72H231.742ZM306.153 101.32C290.713 101.32 279.553 96.8 272.673 87.76L283.833 75.88C289.753 82.84 297.273 86.32 306.393 86.32C316.553 86.32 321.633 83.2 321.633 76.96C321.633 73.68 320.273 71.24 317.553 69.64C314.833 68.04 309.753 66.44 302.313 64.84C298.313 63.96 294.873 63 291.993 61.96C289.113 60.84 286.313 59.36 283.593 57.52C280.873 55.68 278.793 53.28 277.353 50.32C275.993 47.36 275.313 43.88 275.313 39.88C275.313 32.44 278.153 26.4 283.833 21.76C289.593 17.04 297.193 14.68 306.633 14.68C315.593 14.68 322.913 16.48 328.593 20.08C334.353 23.68 337.233 29.44 337.233 37.36C337.233 39.28 337.033 41 336.633 42.52L320.553 42.4C320.713 41.6 320.793 40.56 320.793 39.28C320.793 36.08 319.473 33.68 316.833 32.08C314.273 30.48 310.993 29.68 306.993 29.68C297.633 29.68 292.953 32.84 292.953 39.16C292.953 42.36 294.273 44.64 296.913 46C299.633 47.36 304.753 48.88 312.273 50.56C316.513 51.52 320.073 52.56 322.953 53.68C325.913 54.8 328.713 56.32 331.353 58.24C333.993 60.08 335.953 62.44 337.233 65.32C338.593 68.2 339.273 71.64 339.273 75.64C339.273 83.64 336.273 89.92 330.273 94.48C324.353 99.04 316.313 101.32 306.153 101.32ZM386.121 101.32C374.761 101.32 365.481 97.72 358.281 90.52C351.161 83.32 347.601 72.56 347.601 58.24C347.601 44.24 351.241 33.48 358.521 25.96C365.881 18.44 375.201 14.68 386.481 14.68C397.841 14.68 407.081 18.32 414.201 25.6C421.401 32.88 425.001 43.72 425.001 58.12C425.001 72.04 421.321 82.72 413.961 90.16C406.681 97.6 397.401 101.32 386.121 101.32ZM386.121 85.84C392.121 85.84 397.001 83.64 400.761 79.24C404.521 74.76 406.401 67.72 406.401 58.12C406.401 48.44 404.561 41.44 400.881 37.12C397.201 32.72 392.401 30.52 386.481 30.52C380.481 30.52 375.601 32.72 371.841 37.12C368.081 41.52 366.201 48.56 366.201 58.24C366.201 67.84 368.041 74.84 371.721 79.24C375.401 83.64 380.201 85.84 386.121 85.84ZM438.057 100V16H455.337L480.417 69.4L505.977 16H522.057V100H505.497V45.76L503.817 50.32L485.697 89.68H473.697L456.177 50.32L454.617 46V100H438.057Z"/>
</mask>
<path d="M52.24 101.32C40.56 101.32 31.32 97.56 24.52 90.04C17.8 82.44 14.44 71.92 14.44 58.48C14.44 45.04 17.84 34.4 24.64 26.56C31.44 18.64 40.64 14.68 52.24 14.68C60.72 14.68 67.72 16.84 73.24 21.16C78.84 25.4 81.64 31.68 81.64 40C81.64 42.16 81.32 44.6 80.68 47.32H64.12C64.52 45.72 64.72 44.2 64.72 42.76C64.72 39 63.56 36.04 61.24 33.88C59 31.64 55.84 30.52 51.76 30.52C45.84 30.52 41.24 32.88 37.96 37.6C34.68 42.32 33.04 49.16 33.04 58.12C33.04 66.92 34.88 73.76 38.56 78.64C42.24 83.44 47.32 85.84 53.8 85.84C57.8 85.84 61.08 85.08 63.64 83.56C66.28 81.96 68.68 79.4 70.84 75.88L82.84 84.4C76.52 95.68 66.32 101.32 52.24 101.32ZM111.629 100V32.08H87.0288V16H153.149V32.08H129.389V100H111.629ZM194.388 101.32C182.708 101.32 173.468 97.56 166.668 90.04C159.948 82.44 156.588 71.92 156.588 58.48C156.588 45.04 159.988 34.4 166.788 26.56C173.588 18.64 182.788 14.68 194.388 14.68C202.868 14.68 209.868 16.84 215.388 21.16C220.988 25.4 223.788 31.68 223.788 40C223.788 42.16 223.468 44.6 222.828 47.32H206.268C206.668 45.72 206.868 44.2 206.868 42.76C206.868 39 205.708 36.04 203.388 33.88C201.148 31.64 197.988 30.52 193.908 30.52C187.988 30.52 183.388 32.88 180.108 37.6C176.828 42.32 175.188 49.16 175.188 58.12C175.188 66.92 177.028 73.76 180.708 78.64C184.388 83.44 189.468 85.84 195.948 85.84C199.948 85.84 203.228 85.08 205.788 83.56C208.428 81.96 210.828 79.4 212.988 75.88L224.988 84.4C218.668 95.68 208.468 101.32 194.388 101.32ZM231.742 73.72V61.12H266.542V73.72H231.742ZM306.153 101.32C290.713 101.32 279.553 96.8 272.673 87.76L283.833 75.88C289.753 82.84 297.273 86.32 306.393 86.32C316.553 86.32 321.633 83.2 321.633 76.96C321.633 73.68 320.273 71.24 317.553 69.64C314.833 68.04 309.753 66.44 302.313 64.84C298.313 63.96 294.873 63 291.993 61.96C289.113 60.84 286.313 59.36 283.593 57.52C280.873 55.68 278.793 53.28 277.353 50.32C275.993 47.36 275.313 43.88 275.313 39.88C275.313 32.44 278.153 26.4 283.833 21.76C289.593 17.04 297.193 14.68 306.633 14.68C315.593 14.68 322.913 16.48 328.593 20.08C334.353 23.68 337.233 29.44 337.233 37.36C337.233 39.28 337.033 41 336.633 42.52L320.553 42.4C320.713 41.6 320.793 40.56 320.793 39.28C320.793 36.08 319.473 33.68 316.833 32.08C314.273 30.48 310.993 29.68 306.993 29.68C297.633 29.68 292.953 32.84 292.953 39.16C292.953 42.36 294.273 44.64 296.913 46C299.633 47.36 304.753 48.88 312.273 50.56C316.513 51.52 320.073 52.56 322.953 53.68C325.913 54.8 328.713 56.32 331.353 58.24C333.993 60.08 335.953 62.44 337.233 65.32C338.593 68.2 339.273 71.64 339.273 75.64C339.273 83.64 336.273 89.92 330.273 94.48C324.353 99.04 316.313 101.32 306.153 101.32ZM386.121 101.32C374.761 101.32 365.481 97.72 358.281 90.52C351.161 83.32 347.601 72.56 347.601 58.24C347.601 44.24 351.241 33.48 358.521 25.96C365.881 18.44 375.201 14.68 386.481 14.68C397.841 14.68 407.081 18.32 414.201 25.6C421.401 32.88 425.001 43.72 425.001 58.12C425.001 72.04 421.321 82.72 413.961 90.16C406.681 97.6 397.401 101.32 386.121 101.32ZM386.121 85.84C392.121 85.84 397.001 83.64 400.761 79.24C404.521 74.76 406.401 67.72 406.401 58.12C406.401 48.44 404.561 41.44 400.881 37.12C397.201 32.72 392.401 30.52 386.481 30.52C380.481 30.52 375.601 32.72 371.841 37.12C368.081 41.52 366.201 48.56 366.201 58.24C366.201 67.84 368.041 74.84 371.721 79.24C375.401 83.64 380.201 85.84 386.121 85.84ZM438.057 100V16H455.337L480.417 69.4L505.977 16H522.057V100H505.497V45.76L503.817 50.32L485.697 89.68H473.697L456.177 50.32L454.617 46V100H438.057Z" fill="#106EA2"/>
<path d="M24.52 90.04L13.2828 99.9761L13.3381 100.039L13.3942 100.101L24.52 90.04ZM24.64 26.56L35.9715 36.3884L35.9962 36.3599L36.0207 36.3313L24.64 26.56ZM73.24 21.16L63.9954 32.9726L64.0898 33.0465L64.1854 33.1189L73.24 21.16ZM80.68 47.32V62.32H92.5602L95.2813 50.7556L80.68 47.32ZM64.12 47.32L49.5679 43.682L44.9084 62.32H64.12V47.32ZM61.24 33.88L50.6334 44.4866L50.8227 44.6759L51.0187 44.8584L61.24 33.88ZM38.56 78.64L26.5836 87.6714L26.6196 87.7191L26.6559 87.7665L38.56 78.64ZM63.64 83.56L71.2981 96.4578L71.3565 96.4232L71.4145 96.388L63.64 83.56ZM70.84 75.88L79.5238 63.6493L66.4446 54.363L58.0552 68.0348L70.84 75.88ZM82.84 84.4L95.926 91.7319L102.515 79.9726L91.5238 72.1693L82.84 84.4ZM52.24 86.32C44.0898 86.32 39.1582 83.8636 35.6458 79.9794L13.3942 100.101C23.4818 111.256 37.0302 116.32 52.24 116.32V86.32ZM35.7572 80.1039C32.158 76.0334 29.44 69.4687 29.44 58.48H-0.56C-0.56 74.3713 3.44205 88.8466 13.2828 99.9761L35.7572 80.1039ZM29.44 58.48C29.44 47.562 32.1648 40.7773 35.9715 36.3884L13.3085 16.7316C3.51522 28.0227 -0.56 42.518 -0.56 58.48H29.44ZM36.0207 36.3313C39.6332 32.1239 44.4678 29.68 52.24 29.68V-0.320003C36.8122 -0.320003 23.2468 5.15614 13.2593 16.7887L36.0207 36.3313ZM52.24 29.68C58.0939 29.68 61.6335 31.1242 63.9954 32.9726L82.4846 9.34743C73.8065 2.55582 63.3461 -0.320003 52.24 -0.320003V29.68ZM64.1854 33.1189C65.3249 33.9817 66.64 35.4008 66.64 40H96.64C96.64 27.9592 92.3551 16.8183 82.2946 9.20112L64.1854 33.1189ZM66.64 40C66.64 40.7233 66.5267 41.9806 66.0787 43.8844L95.2813 50.7556C96.1133 47.2194 96.64 43.5967 96.64 40H66.64ZM80.68 32.32H64.12V62.32H80.68V32.32ZM78.6721 50.958C79.3275 48.3367 79.72 45.5888 79.72 42.76H49.72C49.72 42.8112 49.7125 43.1033 49.5679 43.682L78.6721 50.958ZM79.72 42.76C79.72 35.6783 77.3952 28.4263 71.4613 22.9016L51.0187 44.8584C50.5289 44.4023 50.1217 43.7992 49.8841 43.1931C49.6682 42.6422 49.72 42.4176 49.72 42.76H79.72ZM71.8466 23.2734C66.0468 17.4736 58.6204 15.52 51.76 15.52V45.52C52.451 45.52 52.5142 45.6171 52.179 45.4982C52.0051 45.4366 51.754 45.327 51.463 45.1458C51.1694 44.9631 50.8863 44.7395 50.6334 44.4866L71.8466 23.2734ZM51.76 15.52C41.1026 15.52 31.8244 20.1438 25.6422 29.0401L50.2778 46.1598C50.4922 45.8514 50.6393 45.7082 50.6926 45.6604C50.7406 45.6172 50.7442 45.6221 50.7171 45.636C50.6913 45.6493 50.7207 45.6279 50.8509 45.5987C50.9888 45.5678 51.2778 45.52 51.76 45.52V15.52ZM25.6422 29.0401C19.8884 37.32 18.04 47.687 18.04 58.12H48.04C48.04 50.633 49.4716 47.32 50.2778 46.1598L25.6422 29.0401ZM18.04 58.12C18.04 68.7941 20.2453 79.2663 26.5836 87.6714L50.5364 69.6086C49.5147 68.2537 48.04 65.0459 48.04 58.12H18.04ZM26.6559 87.7665C33.4012 96.5647 43.0401 100.84 53.8 100.84V70.84C51.5999 70.84 51.0788 70.3153 50.4641 69.5135L26.6559 87.7665ZM53.8 100.84C59.6003 100.84 65.7561 99.7483 71.2981 96.4578L55.9819 70.6622C56.4039 70.4116 55.9998 70.84 53.8 70.84V100.84ZM71.4145 96.388C76.6691 93.2034 80.6193 88.6232 83.6248 83.7252L58.0552 68.0348C56.7407 70.1768 55.8909 70.7166 55.8655 70.732L71.4145 96.388ZM62.1562 88.1107L74.1562 96.6307L91.5238 72.1693L79.5238 63.6493L62.1562 88.1107ZM69.754 77.0681C66.3639 83.1189 61.4824 86.32 52.24 86.32V116.32C71.1576 116.32 86.6762 108.241 95.926 91.7319L69.754 77.0681ZM111.629 100H96.6288V115H111.629V100ZM111.629 32.08H126.629V17.08H111.629V32.08ZM87.0288 32.08H72.0288V47.08H87.0288V32.08ZM87.0288 16V0.999994H72.0288V16H87.0288ZM153.149 16H168.149V0.999994H153.149V16ZM153.149 32.08V47.08H168.149V32.08H153.149ZM129.389 32.08V17.08H114.389V32.08H129.389ZM129.389 100V115H144.389V100H129.389ZM126.629 100V32.08H96.6288V100H126.629ZM111.629 17.08H87.0288V47.08H111.629V17.08ZM102.029 32.08V16H72.0288V32.08H102.029ZM87.0288 31H153.149V0.999994H87.0288V31ZM138.149 16V32.08H168.149V16H138.149ZM153.149 17.08H129.389V47.08H153.149V17.08ZM114.389 32.08V100H144.389V32.08H114.389ZM129.389 85H111.629V115H129.389V85ZM166.668 90.04L155.431 99.9761L155.487 100.039L155.543 100.101L166.668 90.04ZM166.788 26.56L178.12 36.3884L178.145 36.3599L178.169 36.3313L166.788 26.56ZM215.388 21.16L206.144 32.9726L206.238 33.0465L206.334 33.1189L215.388 21.16ZM222.828 47.32V62.32H234.709L237.43 50.7556L222.828 47.32ZM206.268 47.32L191.716 43.682L187.057 62.32H206.268V47.32ZM203.388 33.88L192.782 44.4866L192.971 44.6759L193.167 44.8584L203.388 33.88ZM180.708 78.64L168.732 87.6714L168.768 87.7191L168.804 87.7665L180.708 78.64ZM205.788 83.56L213.447 96.4578L213.505 96.4232L213.563 96.388L205.788 83.56ZM212.988 75.88L221.672 63.6493L208.593 54.363L200.204 68.0348L212.988 75.88ZM224.988 84.4L238.074 91.7319L244.663 79.9726L233.672 72.1693L224.988 84.4ZM194.388 86.32C186.238 86.32 181.307 83.8636 177.794 79.9794L155.543 100.101C165.63 111.256 179.179 116.32 194.388 116.32V86.32ZM177.906 80.1039C174.306 76.0334 171.588 69.4687 171.588 58.48H141.588C141.588 74.3713 145.59 88.8466 155.431 99.9761L177.906 80.1039ZM171.588 58.48C171.588 47.562 174.313 40.7773 178.12 36.3884L155.457 16.7316C145.664 28.0227 141.588 42.518 141.588 58.48H171.588ZM178.169 36.3313C181.782 32.1239 186.616 29.68 194.388 29.68V-0.320003C178.961 -0.320003 165.395 5.15614 155.408 16.7887L178.169 36.3313ZM194.388 29.68C200.242 29.68 203.782 31.1242 206.144 32.9726L224.633 9.34743C215.955 2.55582 205.495 -0.320003 194.388 -0.320003V29.68ZM206.334 33.1189C207.473 33.9817 208.788 35.4008 208.788 40H238.788C238.788 27.9592 234.503 16.8183 224.443 9.20112L206.334 33.1189ZM208.788 40C208.788 40.7233 208.675 41.9806 208.227 43.8844L237.43 50.7556C238.262 47.2194 238.788 43.5967 238.788 40H208.788ZM222.828 32.32H206.268V62.32H222.828V32.32ZM220.821 50.958C221.476 48.3367 221.868 45.5888 221.868 42.76H191.868C191.868 42.8112 191.861 43.1033 191.716 43.682L220.821 50.958ZM221.868 42.76C221.868 35.6783 219.544 28.4263 213.61 22.9016L193.167 44.8584C192.677 44.4023 192.27 43.7992 192.033 43.1931C191.817 42.6422 191.868 42.4176 191.868 42.76H221.868ZM213.995 23.2734C208.195 17.4736 200.769 15.52 193.908 15.52V45.52C194.599 45.52 194.663 45.6171 194.327 45.4982C194.154 45.4366 193.902 45.327 193.611 45.1458C193.318 44.9631 193.035 44.7395 192.782 44.4866L213.995 23.2734ZM193.908 15.52C183.251 15.52 173.973 20.1438 167.791 29.0401L192.426 46.1598C192.641 45.8514 192.788 45.7082 192.841 45.6604C192.889 45.6172 192.893 45.6221 192.866 45.636C192.84 45.6493 192.869 45.6279 192.999 45.5987C193.137 45.5678 193.426 45.52 193.908 45.52V15.52ZM167.791 29.0401C162.037 37.32 160.188 47.687 160.188 58.12H190.188C190.188 50.633 191.62 47.32 192.426 46.1598L167.791 29.0401ZM160.188 58.12C160.188 68.7941 162.394 79.2663 168.732 87.6714L192.685 69.6086C191.663 68.2537 190.188 65.0459 190.188 58.12H160.188ZM168.804 87.7665C175.55 96.5647 185.189 100.84 195.948 100.84V70.84C193.748 70.84 193.227 70.3153 192.613 69.5135L168.804 87.7665ZM195.948 100.84C201.749 100.84 207.905 99.7483 213.447 96.4578L198.13 70.6622C198.552 70.4116 198.148 70.84 195.948 70.84V100.84ZM213.563 96.388C218.818 93.2034 222.768 88.6232 225.773 83.7252L200.204 68.0348C198.889 70.1768 198.039 70.7166 198.014 70.732L213.563 96.388ZM204.305 88.1107L216.305 96.6307L233.672 72.1693L221.672 63.6493L204.305 88.1107ZM211.902 77.0681C208.512 83.1189 203.631 86.32 194.388 86.32V116.32C213.306 116.32 228.825 108.241 238.074 91.7319L211.902 77.0681ZM231.742 73.72H216.742V88.72H231.742V73.72ZM231.742 61.12V46.12H216.742V61.12H231.742ZM266.542 61.12H281.542V46.12H266.542V61.12ZM266.542 73.72V88.72H281.542V73.72H266.542ZM246.742 73.72V61.12H216.742V73.72H246.742ZM231.742 76.12H266.542V46.12H231.742V76.12ZM251.542 61.12V73.72H281.542V61.12H251.542ZM266.542 58.72H231.742V88.72H266.542V58.72ZM272.673 87.76L261.741 77.4899L253.049 86.7424L260.737 96.8443L272.673 87.76ZM283.833 75.88L295.259 66.1615L284.388 53.3809L272.901 65.6099L283.833 75.88ZM317.553 69.64L325.159 56.711L325.159 56.711L317.553 69.64ZM302.313 64.84L299.091 79.4897L299.125 79.4973L299.16 79.5047L302.313 64.84ZM291.993 61.96L286.557 75.9401L286.727 76.0063L286.899 76.0683L291.993 61.96ZM283.593 57.52L275.189 69.9443L275.189 69.9443L283.593 57.52ZM277.353 50.32L263.723 56.5825L263.792 56.733L263.865 56.882L277.353 50.32ZM283.833 21.76L293.323 33.3766L293.332 33.3694L293.341 33.3622L283.833 21.76ZM328.593 20.08L320.563 32.7496L320.603 32.7749L320.643 32.8L328.593 20.08ZM336.633 42.52L336.522 57.5196L348.174 57.6065L351.14 46.3374L336.633 42.52ZM320.553 42.4L305.845 39.4582L302.284 57.2641L320.442 57.3996L320.553 42.4ZM316.833 32.08L308.883 44.8L308.971 44.8546L309.059 44.908L316.833 32.08ZM296.913 46L290.044 59.3346L290.124 59.376L290.205 59.4164L296.913 46ZM312.273 50.56L315.586 35.9303L315.565 35.9256L315.544 35.9209L312.273 50.56ZM322.953 53.68L317.517 67.6601L317.581 67.685L317.645 67.7093L322.953 53.68ZM331.353 58.24L322.531 70.371L322.653 70.4597L322.777 70.546L331.353 58.24ZM337.233 65.32L323.526 71.4121L323.596 71.5694L323.67 71.7251L337.233 65.32ZM330.273 94.48L321.197 82.5376L321.159 82.567L321.12 82.5966L330.273 94.48ZM306.153 86.32C293.591 86.32 287.713 82.7535 284.61 78.6757L260.737 96.8443C271.394 110.846 287.836 116.32 306.153 116.32V86.32ZM283.606 98.0301L294.766 86.1501L272.901 65.6099L261.741 77.4899L283.606 98.0301ZM272.408 85.5985C281.171 95.9019 292.865 101.32 306.393 101.32V71.32C301.682 71.32 298.336 69.7781 295.259 66.1615L272.408 85.5985ZM306.393 101.32C312.521 101.32 319.641 100.467 325.674 96.7618C332.903 92.3219 336.633 84.9978 336.633 76.96H306.633C306.633 76.4517 306.75 75.2762 307.497 73.8999C308.261 72.4925 309.277 71.6259 309.973 71.1982C310.57 70.8319 310.738 70.8994 310.052 71.0398C309.385 71.1765 308.211 71.32 306.393 71.32V101.32ZM336.633 76.96C336.633 68.6215 332.678 61.1338 325.159 56.711L309.948 82.569C309.313 82.1951 308.292 81.3742 307.511 79.9729C306.746 78.5994 306.633 77.4289 306.633 76.96H336.633ZM325.159 56.711C320.135 53.7556 312.883 51.77 305.467 50.1753L299.16 79.5047C302.599 80.2444 305.246 80.9325 307.197 81.5471C309.286 82.2049 310.006 82.6031 309.948 82.569L325.159 56.711ZM305.536 50.1903C301.974 49.4066 299.192 48.6115 297.088 47.8517L286.899 76.0683C290.555 77.3885 294.653 78.5134 299.091 79.4897L305.536 50.1903ZM297.43 47.9799C295.658 47.2906 293.848 46.347 291.998 45.0957L275.189 69.9443C278.779 72.373 282.569 74.3894 286.557 75.9401L297.43 47.9799ZM291.998 45.0957C291.463 44.7338 291.134 44.3577 290.842 43.758L263.865 56.882C266.453 62.2022 270.284 66.6262 275.189 69.9443L291.998 45.0957ZM290.984 44.0575C290.708 43.4568 290.313 42.1997 290.313 39.88H260.313C260.313 45.5603 261.279 51.2632 263.723 56.5825L290.984 44.0575ZM290.313 39.88C290.313 36.8676 291.188 35.1205 293.323 33.3766L274.344 10.1434C265.118 17.6795 260.313 28.0124 260.313 39.88H290.313ZM293.341 33.3622C295.768 31.3732 299.712 29.68 306.633 29.68V-0.320003C294.675 -0.320003 283.419 2.70679 274.326 10.1578L293.341 33.3622ZM306.633 29.68C313.672 29.68 317.96 31.0997 320.563 32.7496L336.623 7.4104C327.867 1.86033 317.515 -0.320003 306.633 -0.320003V29.68ZM320.643 32.8C321.317 33.2208 321.52 33.5343 321.657 33.8082C321.844 34.1813 322.233 35.203 322.233 37.36H352.233C352.233 25.2757 347.481 14.1957 336.543 7.36002L320.643 32.8ZM322.233 37.36C322.233 38.2648 322.137 38.6677 322.127 38.7026L351.14 46.3374C351.93 43.3323 352.233 40.2952 352.233 37.36H322.233ZM336.745 27.5204L320.665 27.4004L320.442 57.3996L336.522 57.5196L336.745 27.5204ZM335.262 45.3417C335.693 43.1889 335.793 41.0584 335.793 39.28H305.793C305.793 39.4449 305.791 39.5767 305.787 39.6781C305.784 39.7798 305.78 39.8424 305.778 39.8695C305.775 39.8974 305.776 39.8772 305.784 39.8149C305.792 39.7538 305.81 39.6315 305.845 39.4582L335.262 45.3417ZM335.793 39.28C335.793 31.0693 331.931 23.69 324.608 19.252L309.059 44.908C308.421 44.5212 307.423 43.695 306.66 42.3088C305.911 40.9475 305.793 39.78 305.793 39.28H335.793ZM324.783 19.36C319.182 15.8592 312.913 14.68 306.993 14.68V44.68C309.074 44.68 309.365 45.1008 308.883 44.8L324.783 19.36ZM306.993 14.68C301.096 14.68 294.036 15.59 288.07 19.6185C281.054 24.3555 277.953 31.7116 277.953 39.16H307.953C307.953 39.4371 307.896 40.4067 307.281 41.6525C306.634 42.9641 305.695 43.916 304.857 44.4815C304.119 44.9799 303.734 44.9989 304.145 44.9064C304.552 44.8147 305.45 44.68 306.993 44.68V14.68ZM277.953 39.16C277.953 42.8341 278.723 46.9178 280.962 50.7855C283.238 54.7169 286.506 57.5121 290.044 59.3346L303.783 32.6654C304.681 33.1279 305.969 34.1031 306.925 35.7545C307.844 37.3422 307.953 38.6859 307.953 39.16H277.953ZM290.205 59.4164C294.767 61.6971 301.562 63.5369 309.003 65.1991L315.544 35.9209C311.987 35.1262 309.184 34.4101 307.062 33.7803C306.008 33.4671 305.189 33.1954 304.576 32.97C304.273 32.8586 304.042 32.7668 303.874 32.6961C303.792 32.6612 303.729 32.6337 303.686 32.6138C303.642 32.5938 303.622 32.5835 303.622 32.5836L290.205 59.4164ZM308.961 65.1897C312.744 66.0462 315.543 66.8923 317.517 67.6601L328.39 39.6999C324.604 38.2277 320.283 36.9938 315.586 35.9303L308.961 65.1897ZM317.645 67.7093C319.315 68.3413 320.938 69.2127 322.531 70.371L340.176 46.109C336.489 43.4273 332.512 41.2587 328.262 39.6507L317.645 67.7093ZM322.777 70.546C323.221 70.856 323.382 71.0873 323.526 71.4121L350.941 59.2279C348.525 53.7927 344.765 49.304 339.93 45.934L322.777 70.546ZM323.67 71.7251C323.874 72.1577 324.273 73.3041 324.273 75.64H354.273C354.273 69.9759 353.313 64.2423 350.797 58.9149L323.67 71.7251ZM324.273 75.64C324.273 79.2878 323.206 81.0111 321.197 82.5376L339.35 106.422C349.341 98.8289 354.273 87.9922 354.273 75.64H324.273ZM321.12 82.5966C318.625 84.5186 314.18 86.32 306.153 86.32V116.32C318.447 116.32 330.082 113.561 339.427 106.363L321.12 82.5966ZM358.281 90.52L347.616 101.067L347.645 101.097L347.675 101.127L358.281 90.52ZM358.521 25.96L347.801 15.468L347.773 15.4973L347.744 15.5268L358.521 25.96ZM414.201 25.6L403.477 36.0881L403.507 36.1181L403.536 36.1478L414.201 25.6ZM413.961 90.16L403.297 79.6109L403.269 79.64L403.24 79.6693L413.961 90.16ZM400.761 79.24L412.165 88.9848L412.208 88.9341L412.251 88.8831L400.761 79.24ZM400.881 37.12L389.375 46.7433L389.419 46.7954L389.463 46.847L400.881 37.12ZM371.841 37.12L360.438 27.3752L360.438 27.3752L371.841 37.12ZM371.721 79.24L360.215 88.8633L360.215 88.8633L371.721 79.24ZM386.121 86.32C378.236 86.32 372.938 83.9633 368.888 79.9134L347.675 101.127C358.025 111.477 371.286 116.32 386.121 116.32V86.32ZM368.947 79.9728C365.581 76.5696 362.601 70.2618 362.601 58.24H332.601C332.601 74.8582 336.741 90.0704 347.616 101.067L368.947 79.9728ZM362.601 58.24C362.601 46.7842 365.539 40.2761 369.298 36.3932L347.744 15.5268C336.943 26.6839 332.601 41.6958 332.601 58.24H362.601ZM369.241 36.4519C373.562 32.0377 378.913 29.68 386.481 29.68V-0.320003C371.49 -0.320003 358.201 4.84232 347.801 15.468L369.241 36.4519ZM386.481 29.68C394.317 29.68 399.519 32.0403 403.477 36.0881L424.925 15.1119C414.644 4.5997 401.365 -0.320003 386.481 -0.320003V29.68ZM403.536 36.1478C406.995 39.645 410.001 46.0461 410.001 58.12H440.001C440.001 41.3939 435.808 26.115 424.866 15.0522L403.536 36.1478ZM410.001 58.12C410.001 69.4359 407.058 75.8096 403.297 79.6109L424.625 100.709C435.585 89.6304 440.001 74.6441 440.001 58.12H410.001ZM403.24 79.6693C399.033 83.9689 393.74 86.32 386.121 86.32V116.32C401.062 116.32 414.33 111.231 424.683 100.651L403.24 79.6693ZM386.121 100.84C396.324 100.84 405.437 96.8574 412.165 88.9848L389.358 69.4952C388.565 70.4226 387.919 70.84 386.121 70.84V100.84ZM412.251 88.8831C419.337 80.4399 421.401 69.146 421.401 58.12H391.401C391.401 66.294 389.705 69.0801 389.272 69.5969L412.251 88.8831ZM421.401 58.12C421.401 47.1776 419.441 35.7759 412.3 27.393L389.463 46.847C389.682 47.1041 391.401 49.7024 391.401 58.12H421.401ZM412.387 27.4967C405.754 19.5652 396.68 15.52 386.481 15.52V45.52C388.123 45.52 388.649 45.8748 389.375 46.7433L412.387 27.4967ZM386.481 15.52C376.279 15.52 367.165 19.5026 360.438 27.3752L383.245 46.8648C384.037 45.9374 384.684 45.52 386.481 45.52V15.52ZM360.438 27.3752C353.237 35.8021 351.201 47.206 351.201 58.24H381.201C381.201 49.914 382.926 47.2379 383.245 46.8648L360.438 27.3752ZM351.201 58.24C351.201 69.1764 353.191 80.4647 360.215 88.8633L383.227 69.6167C382.892 69.2153 381.201 66.5036 381.201 58.24H351.201ZM360.215 88.8633C366.849 96.7948 375.923 100.84 386.121 100.84V70.84C384.48 70.84 383.954 70.4852 383.227 69.6167L360.215 88.8633ZM438.057 100H423.057V115H438.057V100ZM438.057 16V0.999994H423.057V16H438.057ZM455.337 16L468.914 9.62333L464.864 0.999994H455.337V16ZM480.417 69.4L466.84 75.7767L480.288 104.411L493.947 75.8761L480.417 69.4ZM505.977 16V0.999994H496.527L492.447 9.52386L505.977 16ZM522.057 16H537.057V0.999994H522.057V16ZM522.057 100V115H537.057V100H522.057ZM505.497 100H490.497V115H505.497V100ZM505.497 45.76H520.497L491.422 40.5744L505.497 45.76ZM503.817 50.32L517.442 56.5927L517.689 56.058L517.892 55.5056L503.817 50.32ZM485.697 89.68V104.68H495.305L499.322 95.9527L485.697 89.68ZM473.697 89.68L459.993 95.7798L463.955 104.68H473.697V89.68ZM456.177 50.32L442.069 55.4147L442.253 55.9246L442.473 56.4198L456.177 50.32ZM454.617 46L468.725 40.9053L439.617 46H454.617ZM454.617 100V115H469.617V100H454.617ZM453.057 100V16H423.057V100H453.057ZM438.057 31H455.337V0.999994H438.057V31ZM441.76 22.3767L466.84 75.7767L493.994 63.0233L468.914 9.62333L441.76 22.3767ZM493.947 75.8761L519.507 22.4761L492.447 9.52386L466.887 62.9239L493.947 75.8761ZM505.977 31H522.057V0.999994H505.977V31ZM507.057 16V100H537.057V16H507.057ZM522.057 85H505.497V115H522.057V85ZM520.497 100V45.76H490.497V100H520.497ZM491.422 40.5744L489.742 45.1344L517.892 55.5056L519.572 50.9456L491.422 40.5744ZM490.191 44.0473L472.071 83.4073L499.322 95.9527L517.442 56.5927L490.191 44.0473ZM485.697 74.68H473.697V104.68H485.697V74.68ZM487.401 83.5802L469.881 44.2202L442.473 56.4198L459.993 95.7798L487.401 83.5802ZM470.285 45.2253L468.725 40.9053L440.509 51.0947L442.069 55.4147L470.285 45.2253ZM439.617 46V100H469.617V46H439.617ZM454.617 85H438.057V115H454.617V85Z" fill="white" mask="url(#path-1-outside-1_1436_90928)"/>
</svg>
