<svg width="143" height="131" viewBox="0 0 143 131" fill="none" xmlns="http://www.w3.org/2000/svg">
<path d="M120.836 58.6034C120.832 31.3895 98.7868 9.31783 71.577 9.31783C44.3672 9.31783 22.3217 31.3894 22.3179 58.6033C22.3085 64.666 23.4202 70.6281 25.5495 76.2054H20.4537L34.2251 90.8379L58.3039 116.422L58.3044 116.423C60.0083 118.233 62.0645 119.676 64.3469 120.662C66.6292 121.649 69.0893 122.157 71.5758 122.157C74.0623 122.157 76.5223 121.649 78.8047 120.662C81.087 119.676 83.1432 118.233 84.8472 116.423L84.8473 116.423L108.929 90.8383L122.702 76.2054H117.603C119.743 70.6016 120.845 64.6364 120.836 58.6034ZM120.836 58.6034C120.836 58.6057 120.836 58.608 120.836 58.6103H112.154L120.836 58.5966C120.836 58.5989 120.836 58.6011 120.836 58.6034ZM71.5889 65.4532C70.0956 65.4532 68.6621 64.8596 67.604 63.8006C66.5457 62.7414 65.9498 61.3034 65.9498 59.8023C65.9498 58.3013 66.5457 56.8632 67.604 55.804C68.6621 54.7451 70.0956 54.1515 71.5889 54.1515C73.0822 54.1515 74.5157 54.7451 75.5738 55.804C76.6321 56.8632 77.228 58.3013 77.228 59.8023C77.228 61.3034 76.6321 62.7415 75.5738 63.8006C74.5157 64.8596 73.0822 65.4532 71.5889 65.4532Z" fill="#2074A4" stroke="white" stroke-width="17.3643"/>
</svg>
