<svg width="338" height="131" viewBox="0 0 338 131" fill="none" xmlns="http://www.w3.org/2000/svg">
<mask id="path-1-outside-1_1436_90932" maskUnits="userSpaceOnUse" x="0" y="0" width="338" height="130" fill="black">
<rect fill="white" width="338" height="130"/>
<path d="M83.32 113L76.96 93.56H46.72L40.24 113H21.88L52.72 29H70.96L101.8 113H83.32ZM51.28 79.76H72.4L61.84 47.84L51.28 79.76ZM109.742 113V73.4C109.742 70.12 108.142 68.48 104.942 68.48V55.28C106.622 54.64 109.222 54.32 112.742 54.32C116.582 54.32 119.542 55.16 121.622 56.84C123.702 58.52 124.782 60.56 124.862 62.96L124.982 63.32C126.102 60.36 128.022 58.04 130.742 56.36C133.542 54.6 136.862 53.72 140.702 53.72C144.622 53.72 147.422 54.44 149.102 55.88L142.982 71.96C141.542 71 139.582 70.52 137.102 70.52C133.982 70.52 131.542 71.64 129.782 73.88C128.102 76.12 127.262 79.2 127.262 83.12V113H109.742ZM194.196 93.56L204.276 102.2C198.836 110.84 190.116 114.96 178.116 114.56C169.556 114.4 162.836 111.84 157.956 106.88C153.156 101.84 150.756 94.76 150.756 85.64C150.756 75.96 153.516 68.2 159.036 62.36C164.636 56.44 171.796 53.48 180.516 53.48C187.316 53.48 192.676 55.12 196.596 58.4C200.516 61.6 202.476 66.08 202.476 71.84C202.476 84.16 191.356 90.68 169.116 91.4C170.556 97.32 174.476 100.28 180.876 100.28C186.396 100.28 190.836 98.04 194.196 93.56ZM180.276 67.64C176.996 67.64 174.316 68.8 172.236 71.12C170.236 73.44 169.036 76.72 168.636 80.96C180.396 80.56 186.276 77.92 186.276 73.04C186.276 69.44 184.276 67.64 180.276 67.64ZM241.608 113.72C233.608 113.72 227.688 111.6 223.848 107.36C220.088 103.04 218.208 96.44 218.208 87.56V69.2H208.248V55.16H218.688V38.24H235.728V55.16H254.928V69.2H235.728V86.48C235.728 94.16 238.648 98 244.488 98C247.528 98 250.368 97.08 253.008 95.24L258.408 108.2C256.488 109.8 253.968 111.12 250.848 112.16C247.728 113.2 244.648 113.72 241.608 113.72ZM309.496 24.08L293.896 48.08H279.256L288.976 24.08H309.496ZM305.056 93.56L315.136 102.2C309.696 110.84 300.976 114.96 288.976 114.56C280.416 114.4 273.696 111.84 268.816 106.88C264.016 101.84 261.616 94.76 261.616 85.64C261.616 75.96 264.376 68.2 269.896 62.36C275.496 56.44 282.656 53.48 291.376 53.48C298.176 53.48 303.536 55.12 307.456 58.4C311.376 61.6 313.336 66.08 313.336 71.84C313.336 84.16 302.216 90.68 279.976 91.4C281.416 97.32 285.336 100.28 291.736 100.28C297.256 100.28 301.696 98.04 305.056 93.56ZM291.136 67.64C287.856 67.64 285.176 68.8 283.096 71.12C281.096 73.44 279.896 76.72 279.496 80.96C291.256 80.56 297.136 77.92 297.136 73.04C297.136 69.44 295.136 67.64 291.136 67.64Z"/>
</mask>
<path d="M83.32 113L76.96 93.56H46.72L40.24 113H21.88L52.72 29H70.96L101.8 113H83.32ZM51.28 79.76H72.4L61.84 47.84L51.28 79.76ZM109.742 113V73.4C109.742 70.12 108.142 68.48 104.942 68.48V55.28C106.622 54.64 109.222 54.32 112.742 54.32C116.582 54.32 119.542 55.16 121.622 56.84C123.702 58.52 124.782 60.56 124.862 62.96L124.982 63.32C126.102 60.36 128.022 58.04 130.742 56.36C133.542 54.6 136.862 53.72 140.702 53.72C144.622 53.72 147.422 54.44 149.102 55.88L142.982 71.96C141.542 71 139.582 70.52 137.102 70.52C133.982 70.52 131.542 71.64 129.782 73.88C128.102 76.12 127.262 79.2 127.262 83.12V113H109.742ZM194.196 93.56L204.276 102.2C198.836 110.84 190.116 114.96 178.116 114.56C169.556 114.4 162.836 111.84 157.956 106.88C153.156 101.84 150.756 94.76 150.756 85.64C150.756 75.96 153.516 68.2 159.036 62.36C164.636 56.44 171.796 53.48 180.516 53.48C187.316 53.48 192.676 55.12 196.596 58.4C200.516 61.6 202.476 66.08 202.476 71.84C202.476 84.16 191.356 90.68 169.116 91.4C170.556 97.32 174.476 100.28 180.876 100.28C186.396 100.28 190.836 98.04 194.196 93.56ZM180.276 67.64C176.996 67.64 174.316 68.8 172.236 71.12C170.236 73.44 169.036 76.72 168.636 80.96C180.396 80.56 186.276 77.92 186.276 73.04C186.276 69.44 184.276 67.64 180.276 67.64ZM241.608 113.72C233.608 113.72 227.688 111.6 223.848 107.36C220.088 103.04 218.208 96.44 218.208 87.56V69.2H208.248V55.16H218.688V38.24H235.728V55.16H254.928V69.2H235.728V86.48C235.728 94.16 238.648 98 244.488 98C247.528 98 250.368 97.08 253.008 95.24L258.408 108.2C256.488 109.8 253.968 111.12 250.848 112.16C247.728 113.2 244.648 113.72 241.608 113.72ZM309.496 24.08L293.896 48.08H279.256L288.976 24.08H309.496ZM305.056 93.56L315.136 102.2C309.696 110.84 300.976 114.96 288.976 114.56C280.416 114.4 273.696 111.84 268.816 106.88C264.016 101.84 261.616 94.76 261.616 85.64C261.616 75.96 264.376 68.2 269.896 62.36C275.496 56.44 282.656 53.48 291.376 53.48C298.176 53.48 303.536 55.12 307.456 58.4C311.376 61.6 313.336 66.08 313.336 71.84C313.336 84.16 302.216 90.68 279.976 91.4C281.416 97.32 285.336 100.28 291.736 100.28C297.256 100.28 301.696 98.04 305.056 93.56ZM291.136 67.64C287.856 67.64 285.176 68.8 283.096 71.12C281.096 73.44 279.896 76.72 279.496 80.96C291.256 80.56 297.136 77.92 297.136 73.04C297.136 69.44 295.136 67.64 291.136 67.64Z" fill="#106EA2"/>
<path d="M83.32 113L69.0636 117.664L72.4451 128H83.32V113ZM76.96 93.56L91.2164 88.8959L87.8349 78.56H76.96V93.56ZM46.72 93.56V78.56H35.9086L32.4898 88.8166L46.72 93.56ZM40.24 113V128H51.0514L54.4703 117.743L40.24 113ZM21.88 113L7.79902 107.83L0.393852 128H21.88V113ZM52.72 29V14H42.2481L38.639 23.8303L52.72 29ZM70.96 29L85.041 23.8303L81.4319 14H70.96V29ZM101.8 113V128H123.286L115.881 107.83L101.8 113ZM51.28 79.76L37.0391 75.0487L30.5181 94.76H51.28V79.76ZM72.4 79.76V94.76H93.1619L86.6409 75.0487L72.4 79.76ZM61.84 47.84L76.0809 43.1287L61.84 0.0822881L47.5991 43.1287L61.84 47.84ZM97.5764 108.336L91.2164 88.8959L62.7036 98.2241L69.0636 117.664L97.5764 108.336ZM76.96 78.56H46.72V108.56H76.96V78.56ZM32.4898 88.8166L26.0098 108.257L54.4703 117.743L60.9503 98.3034L32.4898 88.8166ZM40.24 98H21.88V128H40.24V98ZM35.961 118.17L66.801 34.1697L38.639 23.8303L7.79902 107.83L35.961 118.17ZM52.72 44H70.96V14H52.72V44ZM56.879 34.1697L87.719 118.17L115.881 107.83L85.041 23.8303L56.879 34.1697ZM101.8 98H83.32V128H101.8V98ZM51.28 94.76H72.4V64.76H51.28V94.76ZM86.6409 75.0487L76.0809 43.1287L47.5991 52.5513L58.1591 84.4713L86.6409 75.0487ZM47.5991 43.1287L37.0391 75.0487L65.5209 84.4713L76.0809 52.5513L47.5991 43.1287ZM109.742 113H94.7416V128H109.742V113ZM104.942 68.48H89.9416V83.48H104.942V68.48ZM104.942 55.28L99.6016 41.2627L89.9416 44.9427V55.28H104.942ZM121.622 56.84L112.197 68.5091L112.197 68.5091L121.622 56.84ZM124.862 62.96L109.87 63.4597L109.942 65.6369L110.631 67.7034L124.862 62.96ZM124.982 63.32L110.751 68.0634L124.087 108.07L139.011 68.6284L124.982 63.32ZM130.742 56.36L138.624 69.122L138.674 69.091L138.724 69.0595L130.742 56.36ZM149.102 55.88L163.121 61.2156L166.873 51.3564L158.863 44.4912L149.102 55.88ZM142.982 71.96L134.661 84.4408L150.31 94.8736L157.001 77.2956L142.982 71.96ZM129.782 73.88L117.987 64.6127L117.883 64.7452L117.782 64.88L129.782 73.88ZM127.262 113V128H142.262V113H127.262ZM124.742 113V73.4H94.7416V113H124.742ZM124.742 73.4C124.742 69.5395 123.802 63.8717 119.278 59.2351C114.688 54.53 108.949 53.48 104.942 53.48V83.48C104.134 83.48 100.795 83.25 97.8048 80.1849C94.8814 77.1883 94.7416 73.9805 94.7416 73.4H124.742ZM119.942 68.48V55.28H89.9416V68.48H119.942ZM110.281 69.2973C109.905 69.4408 109.676 69.4922 109.657 69.4963C109.632 69.502 109.731 69.4788 109.984 69.4477C110.51 69.3829 111.401 69.32 112.742 69.32V39.32C108.802 39.32 103.935 39.612 99.6016 41.2627L110.281 69.2973ZM112.742 69.32C113.604 69.32 113.88 69.4182 113.747 69.3802C113.573 69.3309 112.948 69.1164 112.197 68.5091L131.047 45.1709C125.349 40.5692 118.552 39.32 112.742 39.32V69.32ZM112.197 68.5091C111.905 68.274 111.283 67.6832 110.735 66.6483C110.166 65.5734 109.903 64.4416 109.87 63.4597L139.853 62.4603C139.611 55.1803 136.085 49.2405 131.047 45.1709L112.197 68.5091ZM110.631 67.7034L110.751 68.0634L139.212 58.5766L139.092 58.2166L110.631 67.7034ZM139.011 68.6284C139.017 68.6111 139.007 68.6414 138.971 68.7045C138.934 68.7684 138.883 68.8449 138.817 68.9235C138.752 69.002 138.691 69.0618 138.646 69.1011C138.601 69.1397 138.588 69.1442 138.624 69.122L122.859 43.598C117.355 46.9975 113.256 51.9232 110.952 58.0116L139.011 68.6284ZM138.724 69.0595C138.769 69.0316 139.222 68.72 140.702 68.72V38.72C134.501 38.72 128.315 40.1684 122.759 43.6604L138.724 69.0595ZM140.702 68.72C141.816 68.72 142.171 68.8299 142.006 68.7874C141.839 68.7444 140.692 68.4276 139.34 67.2688L158.863 44.4912C153.036 39.4966 145.714 38.72 140.702 38.72V68.72ZM135.083 50.5444L128.963 66.6244L157.001 77.2956L163.121 61.2156L135.083 50.5444ZM151.302 59.4792C146.546 56.3084 141.319 55.52 137.102 55.52V85.52C137.402 85.52 137.281 85.5518 136.864 85.4495C136.426 85.3422 135.611 85.0737 134.661 84.4408L151.302 59.4792ZM137.102 55.52C129.881 55.52 122.887 58.3759 117.987 64.6127L141.576 83.1473C141.076 83.784 140.267 84.4975 139.189 84.9924C138.153 85.4682 137.354 85.52 137.102 85.52V55.52ZM117.782 64.88C113.511 70.5741 112.262 77.2212 112.262 83.12H142.262C142.262 82.6721 142.286 82.3452 142.312 82.1247C142.339 81.9046 142.365 81.8095 142.363 81.8168C142.36 81.826 142.328 81.9437 142.235 82.1388C142.141 82.3371 141.995 82.5948 141.782 82.88L117.782 64.88ZM112.262 83.12V113H142.262V83.12H112.262ZM127.262 98H109.742V128H127.262V98ZM194.196 93.56L203.958 82.1712L191.802 71.7519L182.196 84.56L194.196 93.56ZM204.276 102.2L216.97 110.192L223.868 99.2365L214.038 90.8112L204.276 102.2ZM178.116 114.56L178.616 99.5683L178.506 99.5647L178.397 99.5626L178.116 114.56ZM157.956 106.88L147.094 117.225L147.178 117.313L147.264 117.4L157.956 106.88ZM159.036 62.36L148.139 52.052L148.135 52.0563L159.036 62.36ZM196.596 58.4L186.97 69.9041L187.04 69.9624L187.111 70.0199L196.596 58.4ZM169.116 91.4L168.631 76.4079L150.177 77.0053L154.541 94.9453L169.116 91.4ZM172.236 71.12L161.068 61.1068L160.97 61.2154L160.875 61.3259L172.236 71.12ZM168.636 80.96L153.703 79.5512L152.101 96.5311L169.146 95.9513L168.636 80.96ZM184.434 104.949L194.514 113.589L214.038 90.8112L203.958 82.1712L184.434 104.949ZM191.583 94.2078C189.531 97.4672 186.399 99.8278 178.616 99.5683L177.617 129.552C193.834 130.092 208.142 124.213 216.97 110.192L191.583 94.2078ZM178.397 99.5626C172.803 99.4581 170.172 97.9082 168.649 96.36L147.264 117.4C155.5 125.772 166.31 129.342 177.836 129.557L178.397 99.5626ZM168.818 96.5352C167.418 95.065 165.756 92.1417 165.756 85.64H135.756C135.756 97.3783 138.894 108.615 147.094 117.225L168.818 96.5352ZM165.756 85.64C165.756 78.9611 167.57 75.1685 169.937 72.6637L148.135 52.0563C139.463 61.2315 135.756 72.9589 135.756 85.64H165.756ZM169.933 72.668C172.486 69.9697 175.596 68.48 180.516 68.48V38.48C167.996 38.48 156.787 42.9103 148.139 52.052L169.933 72.668ZM180.516 68.48C184.969 68.48 186.529 69.5349 186.97 69.9041L206.222 46.8959C198.823 40.7051 189.664 38.48 180.516 38.48V68.48ZM187.111 70.0199C187.173 70.0708 187.211 70.1076 187.231 70.1284C187.242 70.139 187.249 70.1467 187.253 70.1513C187.257 70.1559 187.258 70.1583 187.259 70.1587C187.259 70.159 187.258 70.1581 187.257 70.1564C187.256 70.1547 187.255 70.1531 187.254 70.1521C187.253 70.149 187.256 70.1543 187.264 70.1723C187.28 70.2096 187.476 70.666 187.476 71.84H217.476C217.476 62.2762 214.001 53.2444 206.082 46.7801L187.111 70.0199ZM187.476 71.84C187.476 72.5843 187.334 72.6037 187.474 72.368C187.594 72.1647 187.523 72.4591 186.549 73.0302C184.191 74.4129 178.829 76.0777 168.631 76.4079L169.602 106.392C181.644 106.002 192.961 104.047 201.723 98.9098C211.615 93.1102 217.476 83.6184 217.476 71.84H187.476ZM154.541 94.9453C155.877 100.437 158.762 106.002 164.097 110.031C169.353 113.999 175.404 115.28 180.876 115.28V85.28C179.948 85.28 180.839 85.0805 182.175 86.0894C182.804 86.5641 183.242 87.1003 183.503 87.5336C183.745 87.9343 183.752 88.1049 183.691 87.8547L154.541 94.9453ZM180.876 115.28C191.198 115.28 200.052 110.753 206.196 102.56L182.196 84.56C181.949 84.8896 181.77 85.0606 181.683 85.1359C181.601 85.2069 181.572 85.2168 181.59 85.2078C181.608 85.1985 181.598 85.2086 181.522 85.2255C181.441 85.2438 181.238 85.28 180.876 85.28V115.28ZM180.276 52.64C172.988 52.64 166.158 55.4288 161.068 61.1068L183.405 81.1332C183.098 81.4755 182.543 81.9389 181.765 82.2758C181.005 82.6046 180.433 82.64 180.276 82.64V52.64ZM160.875 61.3259C156.189 66.7622 154.284 73.3888 153.703 79.5512L183.57 82.3688C183.675 81.2595 183.849 80.6772 183.923 80.4737C183.988 80.2966 183.932 80.5263 183.597 80.9141L160.875 61.3259ZM169.146 95.9513C175.633 95.7307 182.385 94.8898 188.01 92.364C194.269 89.5539 201.276 83.3635 201.276 73.04H171.276C171.276 70.9924 171.98 68.8019 173.357 67.0405C174.557 65.5062 175.713 65.0002 175.722 64.996C175.748 64.9847 175.213 65.2155 173.806 65.4579C172.446 65.6923 170.582 65.8851 168.126 65.9687L169.146 95.9513ZM201.276 73.04C201.276 68.4957 199.941 62.4582 194.811 57.8406C189.981 53.4934 184.221 52.64 180.276 52.64V82.64C180.199 82.64 179.564 82.6368 178.591 82.3449C177.565 82.0371 176.138 81.396 174.742 80.1394C171.611 77.3218 171.276 73.9843 171.276 73.04H201.276ZM223.848 107.36L212.533 117.208L212.63 117.319L212.729 117.429L223.848 107.36ZM218.208 69.2H233.208V54.2H218.208V69.2ZM208.248 69.2H193.248V84.2H208.248V69.2ZM208.248 55.16V40.16H193.248V55.16H208.248ZM218.688 55.16V70.16H233.688V55.16H218.688ZM218.688 38.24V23.24H203.688V38.24H218.688ZM235.728 38.24H250.728V23.24H235.728V38.24ZM235.728 55.16H220.728V70.16H235.728V55.16ZM254.928 55.16H269.928V40.16H254.928V55.16ZM254.928 69.2V84.2H269.928V69.2H254.928ZM235.728 69.2V54.2H220.728V69.2H235.728ZM253.008 95.24L266.854 89.4708L259.697 72.294L244.431 82.934L253.008 95.24ZM258.408 108.2L268.01 119.723L276.508 112.642L272.254 102.431L258.408 108.2ZM250.848 112.16L255.591 126.39L255.591 126.39L250.848 112.16ZM241.608 98.72C236.102 98.72 234.972 97.2982 234.966 97.2908L212.729 117.429C220.403 125.902 231.113 128.72 241.608 128.72V98.72ZM235.162 97.5121C234.786 97.0797 233.208 94.7248 233.208 87.56H203.208C203.208 98.1552 205.389 109 212.533 117.208L235.162 97.5121ZM233.208 87.56V69.2H203.208V87.56H233.208ZM218.208 54.2H208.248V84.2H218.208V54.2ZM223.248 69.2V55.16H193.248V69.2H223.248ZM208.248 70.16H218.688V40.16H208.248V70.16ZM233.688 55.16V38.24H203.688V55.16H233.688ZM218.688 53.24H235.728V23.24H218.688V53.24ZM220.728 38.24V55.16H250.728V38.24H220.728ZM235.728 70.16H254.928V40.16H235.728V70.16ZM239.928 55.16V69.2H269.928V55.16H239.928ZM254.928 54.2H235.728V84.2H254.928V54.2ZM220.728 69.2V86.48H250.728V69.2H220.728ZM220.728 86.48C220.728 91.7951 221.664 98.5265 225.977 104.199C230.881 110.648 237.985 113 244.488 113V83C244.653 83 245.503 83.0271 246.677 83.542C247.94 84.0956 249.057 84.9883 249.858 86.0406C250.596 87.0113 250.796 87.7602 250.815 87.8345C250.829 87.8903 250.728 87.4984 250.728 86.48H220.728ZM244.488 113C250.779 113 256.584 111.031 261.584 107.546L244.431 82.934C244.326 83.0072 244.263 83.0406 244.243 83.0507C244.224 83.0603 244.235 83.0528 244.275 83.0401C244.293 83.034 244.315 83.0278 244.34 83.022C244.364 83.0161 244.388 83.0114 244.411 83.0078C244.46 83.0002 244.488 83 244.488 83V113ZM239.161 101.009L244.561 113.969L272.254 102.431L266.854 89.4708L239.161 101.009ZM248.805 96.6767C248.696 96.7669 247.98 97.3043 246.104 97.9298L255.591 126.39C259.955 124.936 264.279 122.833 268.01 119.723L248.805 96.6767ZM246.104 97.9298C244.389 98.5016 242.909 98.72 241.608 98.72V128.72C246.386 128.72 251.066 127.898 255.591 126.39L246.104 97.9298ZM309.496 24.08L322.072 32.2548L337.136 9.07999H309.496V24.08ZM293.896 48.08V63.08H302.036L306.472 56.2548L293.896 48.08ZM279.256 48.08L265.353 42.4493L256.997 63.08H279.256V48.08ZM288.976 24.08V9.07999H278.867L275.073 18.4493L288.976 24.08ZM305.056 93.56L314.817 82.1712L302.662 71.7519L293.056 84.56L305.056 93.56ZM315.136 102.2L327.829 110.192L334.727 99.2365L324.897 90.8112L315.136 102.2ZM288.976 114.56L289.475 99.5683L289.366 99.5647L289.256 99.5626L288.976 114.56ZM268.816 106.88L257.954 117.225L258.038 117.313L258.123 117.4L268.816 106.88ZM269.896 62.36L258.999 52.052L258.995 52.0563L269.896 62.36ZM307.456 58.4L297.83 69.9041L297.9 69.9624L297.97 70.0199L307.456 58.4ZM279.976 91.4L279.49 76.4079L261.037 77.0053L265.401 94.9453L279.976 91.4ZM283.096 71.12L271.927 61.1068L271.83 61.2154L271.734 61.3259L283.096 71.12ZM279.496 80.96L264.562 79.5512L262.96 96.5311L280.006 95.9513L279.496 80.96ZM296.919 15.9052L281.319 39.9052L306.472 56.2548L322.072 32.2548L296.919 15.9052ZM293.896 33.08H279.256V63.08H293.896V33.08ZM293.159 53.7107L302.879 29.7107L275.073 18.4493L265.353 42.4493L293.159 53.7107ZM288.976 39.08H309.496V9.07999H288.976V39.08ZM295.294 104.949L305.374 113.589L324.897 90.8112L314.817 82.1712L295.294 104.949ZM302.442 94.2078C300.39 97.4672 297.258 99.8278 289.475 99.5683L288.476 129.552C304.693 130.092 319.001 124.213 327.829 110.192L302.442 94.2078ZM289.256 99.5626C283.662 99.4581 281.031 97.9082 279.508 96.36L258.123 117.4C266.36 125.772 277.169 129.342 288.695 129.557L289.256 99.5626ZM279.678 96.5352C278.278 95.065 276.616 92.1417 276.616 85.64H246.616C246.616 97.3783 249.754 108.615 257.954 117.225L279.678 96.5352ZM276.616 85.64C276.616 78.9611 278.429 75.1685 280.797 72.6637L258.995 52.0563C250.322 61.2315 246.616 72.9589 246.616 85.64H276.616ZM280.793 72.668C283.345 69.9697 286.456 68.48 291.376 68.48V38.48C278.856 38.48 267.646 42.9103 258.999 52.052L280.793 72.668ZM291.376 68.48C295.828 68.48 297.389 69.5349 297.83 69.9041L317.081 46.8959C309.683 40.7051 300.523 38.48 291.376 38.48V68.48ZM297.97 70.0199C298.032 70.0708 298.07 70.1076 298.091 70.1284C298.101 70.139 298.108 70.1467 298.112 70.1513C298.116 70.1559 298.118 70.1583 298.118 70.1587C298.118 70.159 298.118 70.1581 298.116 70.1564C298.115 70.1547 298.114 70.1531 298.114 70.1521C298.112 70.149 298.115 70.1543 298.123 70.1723C298.14 70.2096 298.336 70.666 298.336 71.84H328.336C328.336 62.2762 324.86 53.2444 316.941 46.7801L297.97 70.0199ZM298.336 71.84C298.336 72.5843 298.194 72.6037 298.333 72.368C298.453 72.1647 298.383 72.4591 297.409 73.0302C295.05 74.4129 289.688 76.0777 279.49 76.4079L280.461 106.392C292.503 106.002 303.821 104.047 312.583 98.9098C322.474 93.1102 328.336 83.6184 328.336 71.84H298.336ZM265.401 94.9453C266.736 100.437 269.621 106.002 274.957 110.031C280.213 113.999 286.263 115.28 291.736 115.28V85.28C290.808 85.28 291.699 85.0805 293.035 86.0894C293.663 86.5641 294.101 87.1003 294.363 87.5336C294.604 87.9343 294.611 88.1049 294.551 87.8547L265.401 94.9453ZM291.736 115.28C302.057 115.28 310.911 110.753 317.056 102.56L293.056 84.56C292.808 84.8896 292.63 85.0606 292.542 85.1359C292.46 85.2069 292.431 85.2168 292.449 85.2078C292.468 85.1985 292.457 85.2086 292.382 85.2255C292.301 85.2438 292.098 85.28 291.736 85.28V115.28ZM291.136 52.64C283.847 52.64 277.018 55.4288 271.927 61.1068L294.264 81.1332C293.957 81.4755 293.402 81.9389 292.624 82.2758C291.864 82.6046 291.293 82.64 291.136 82.64V52.64ZM271.734 61.3259C267.048 66.7622 265.143 73.3888 264.562 79.5512L294.429 82.3688C294.534 81.2595 294.708 80.6772 294.782 80.4737C294.847 80.2966 294.791 80.5263 294.457 80.9141L271.734 61.3259ZM280.006 95.9513C286.493 95.7307 293.244 94.8898 298.869 92.364C305.128 89.5539 312.136 83.3635 312.136 73.04H282.136C282.136 70.9924 282.839 68.8019 284.217 67.0405C285.416 65.5062 286.572 65.0002 286.582 64.996C286.607 64.9847 286.072 65.2155 284.666 65.4579C283.306 65.6923 281.442 65.8851 278.986 65.9687L280.006 95.9513ZM312.136 73.04C312.136 68.4957 310.801 62.4582 305.67 57.8406C300.84 53.4934 295.08 52.64 291.136 52.64V82.64C291.059 82.64 290.423 82.6368 289.45 82.3449C288.425 82.0371 286.997 81.396 285.601 80.1394C282.47 77.3218 282.136 73.9843 282.136 73.04H312.136Z" fill="white" mask="url(#path-1-outside-1_1436_90932)"/>
</svg>
