<svg width="664" height="114" viewBox="0 0 664 114" fill="none" xmlns="http://www.w3.org/2000/svg">
<mask id="path-1-outside-1_1436_90930" maskUnits="userSpaceOnUse" x="-1" y="-1" width="663" height="114" fill="black">
<rect fill="white" x="-1" y="-1" width="663" height="114"/>
<path d="M50.488 97.232C36.0773 97.232 25.6613 93.0133 19.24 84.576L29.656 73.488C35.1813 79.984 42.2 83.232 50.712 83.232C60.1947 83.232 64.936 80.32 64.936 74.496C64.936 71.4347 63.6667 69.1573 61.128 67.664C58.5893 66.1707 53.848 64.6773 46.904 63.184C43.1707 62.3627 39.96 61.4667 37.272 60.496C34.584 59.4507 31.9707 58.0693 29.432 56.352C26.8933 54.6347 24.952 52.3947 23.608 49.632C22.3387 46.8693 21.704 43.6213 21.704 39.888C21.704 32.944 24.3547 27.3067 29.656 22.976C35.032 18.5707 42.1253 16.368 50.936 16.368C59.2987 16.368 66.1307 18.048 71.432 21.408C76.808 24.768 79.496 30.144 79.496 37.536C79.496 39.328 79.3093 40.9333 78.936 42.352L63.928 42.24C64.0773 41.4933 64.152 40.5227 64.152 39.328C64.152 36.3413 62.92 34.1013 60.456 32.608C58.0667 31.1147 55.0053 30.368 51.272 30.368C42.536 30.368 38.168 33.3173 38.168 39.216C38.168 42.2027 39.4 44.3307 41.864 45.6C44.4027 46.8693 49.1813 48.288 56.2 49.856C60.1573 50.752 63.48 51.7227 66.168 52.768C68.9307 53.8133 71.544 55.232 74.008 57.024C76.472 58.7413 78.3013 60.944 79.496 63.632C80.7653 66.32 81.4 69.5307 81.4 73.264C81.4 80.7307 78.6 86.592 73 90.848C67.4747 95.104 59.9707 97.232 50.488 97.232ZM115.381 97.456C107.018 97.456 100.447 94.9547 95.6686 89.952C90.89 84.9493 88.5006 77.968 88.5006 69.008C88.5006 60.048 90.89 53.0667 95.6686 48.064C100.447 42.9867 106.981 40.448 115.269 40.448C122.063 40.448 127.365 41.9787 131.173 45.04C135.055 48.1013 136.997 52.5813 136.997 58.48C136.997 61.392 136.661 63.632 135.989 65.2L122.101 65.312C122.474 64.192 122.661 62.8107 122.661 61.168C122.661 56.464 120.122 54.112 115.045 54.112C108.325 54.112 104.965 58.928 104.965 68.56C104.965 73.488 105.973 77.2587 107.989 79.872C110.079 82.4853 113.029 83.792 116.837 83.792C119.674 83.792 121.951 83.2693 123.669 82.224C125.386 81.104 126.991 79.4987 128.485 77.408L137.893 85.92C135.877 89.4293 132.927 92.2293 129.045 94.32C125.162 96.4107 120.607 97.456 115.381 97.456ZM192.903 96.784C183.794 96.784 179.239 92.1173 179.239 82.784V63.632C179.239 61.0933 178.53 59.04 177.111 57.472C175.767 55.904 173.938 55.12 171.623 55.12C168.786 55.12 166.62 56.016 165.127 57.808C163.708 59.5253 162.999 61.504 162.999 63.744V96H146.647V14.688H162.999V46.272C165.986 42.3893 170.466 40.448 176.439 40.448C182.935 40.448 187.751 42.4267 190.887 46.384C194.023 50.3413 195.591 55.5307 195.591 61.952V78.864C195.591 82 197.084 83.568 200.071 83.568V95.888C198.279 96.4853 195.89 96.784 192.903 96.784ZM289.29 96.784C284.66 96.784 281.226 95.664 278.986 93.424C276.746 91.1093 275.626 87.5627 275.626 82.784V63.744C275.626 61.056 274.954 58.9653 273.61 57.472C272.266 55.904 270.399 55.12 268.01 55.12C265.546 55.12 263.567 55.9787 262.073 57.696C260.655 59.3387 259.946 61.4667 259.946 64.08V96H243.482V63.632C243.482 61.0933 242.772 59.04 241.354 57.472C240.01 55.904 238.106 55.12 235.642 55.12C233.028 55.12 230.975 55.9787 229.482 57.696C228.063 59.4133 227.354 61.5413 227.354 64.08V96H211.002V59.04C211.002 55.9787 209.508 54.448 206.522 54.448V42.128C208.09 41.5307 210.516 41.232 213.802 41.232C220.074 41.232 223.882 43.808 225.226 48.96V49.072C226.495 46.5333 228.474 44.48 231.162 42.912C233.924 41.2693 237.135 40.448 240.794 40.448C248.708 40.448 254.196 43.5467 257.258 49.744C260.244 43.5467 265.508 40.448 273.05 40.448C279.322 40.448 284.026 42.352 287.162 46.16C290.372 49.968 291.978 55.232 291.978 61.952V78.864C291.978 82 293.471 83.568 296.458 83.568V95.888C294.666 96.4853 292.276 96.784 289.29 96.784ZM313.966 34.176C311.278 34.176 308.926 33.2053 306.91 31.264C304.894 29.3227 303.886 27.008 303.886 24.32C303.886 21.5573 304.894 19.2053 306.91 17.264C308.926 15.248 311.278 14.24 313.966 14.24C316.729 14.24 319.081 15.248 321.022 17.264C322.964 19.2053 323.934 21.5573 323.934 24.32C323.934 27.0827 322.964 29.4347 321.022 31.376C319.081 33.2427 316.729 34.176 313.966 34.176ZM305.79 96V42.016H322.142V96H305.79ZM361.092 96.672C353.625 96.672 348.1 94.6933 344.516 90.736C341.007 86.704 339.252 80.544 339.252 72.256V55.12H329.956V42.016H339.7V26.224H355.604V42.016H373.524V55.12H355.604V71.248C355.604 78.416 358.329 82 363.78 82C366.617 82 369.268 81.1413 371.732 79.424L376.772 91.52C374.98 93.0133 372.628 94.2453 369.716 95.216C366.804 96.1867 363.929 96.672 361.092 96.672ZM409.436 96.672C401.969 96.672 396.444 94.6933 392.86 90.736C389.35 86.704 387.596 80.544 387.596 72.256V55.12H378.3V42.016H388.044V26.224H403.948V42.016H421.868V55.12H403.948V71.248C403.948 78.416 406.673 82 412.124 82C414.961 82 417.612 81.1413 420.076 79.424L425.116 91.52C423.324 93.0133 420.972 94.2453 418.06 95.216C415.148 96.1867 412.273 96.672 409.436 96.672ZM455.129 96V17.6H471.705V48.736H500.713V17.6H517.289V96H500.713V63.968H471.705V96H455.129ZM549.367 97.456C542.945 97.456 537.756 94.9173 533.799 89.84C529.841 84.688 527.863 77.8933 527.863 69.456C527.863 60.8693 530.028 53.888 534.359 48.512C538.764 43.136 544.364 40.448 551.159 40.448C557.505 40.448 562.172 42.576 565.159 46.832V42.016H580.503V78.864C580.503 80.5813 580.839 81.8133 581.511 82.56C582.183 83.3067 583.34 83.68 584.983 83.68V96C583.415 96.5973 580.951 96.896 577.591 96.896C570.721 96.896 566.913 94.096 566.167 88.496L566.055 88.384C562.769 94.432 557.207 97.456 549.367 97.456ZM554.855 83.792C559.857 83.792 563.068 80.992 564.487 75.392V62.064C562.993 56.7627 559.783 54.112 554.855 54.112C547.911 54.112 544.439 59.152 544.439 69.232C544.439 73.936 545.335 77.5573 547.127 80.096C548.919 82.56 551.495 83.792 554.855 83.792ZM608.53 96.784C603.9 96.784 600.466 95.7013 598.226 93.536C595.986 91.296 594.866 87.6747 594.866 82.672V14.688H611.218V78.752C611.218 80.3947 611.591 81.552 612.338 82.224C613.084 82.896 614.316 83.232 616.034 83.232V95.888C613.794 96.4853 611.292 96.784 608.53 96.784ZM639.483 96.784C634.854 96.784 631.419 95.7013 629.179 93.536C626.939 91.296 625.819 87.6747 625.819 82.672V14.688H642.171V78.752C642.171 80.3947 642.544 81.552 643.291 82.224C644.038 82.896 645.27 83.232 646.987 83.232V95.888C644.747 96.4853 642.246 96.784 639.483 96.784Z"/>
</mask>
<path d="M50.488 97.232C36.0773 97.232 25.6613 93.0133 19.24 84.576L29.656 73.488C35.1813 79.984 42.2 83.232 50.712 83.232C60.1947 83.232 64.936 80.32 64.936 74.496C64.936 71.4347 63.6667 69.1573 61.128 67.664C58.5893 66.1707 53.848 64.6773 46.904 63.184C43.1707 62.3627 39.96 61.4667 37.272 60.496C34.584 59.4507 31.9707 58.0693 29.432 56.352C26.8933 54.6347 24.952 52.3947 23.608 49.632C22.3387 46.8693 21.704 43.6213 21.704 39.888C21.704 32.944 24.3547 27.3067 29.656 22.976C35.032 18.5707 42.1253 16.368 50.936 16.368C59.2987 16.368 66.1307 18.048 71.432 21.408C76.808 24.768 79.496 30.144 79.496 37.536C79.496 39.328 79.3093 40.9333 78.936 42.352L63.928 42.24C64.0773 41.4933 64.152 40.5227 64.152 39.328C64.152 36.3413 62.92 34.1013 60.456 32.608C58.0667 31.1147 55.0053 30.368 51.272 30.368C42.536 30.368 38.168 33.3173 38.168 39.216C38.168 42.2027 39.4 44.3307 41.864 45.6C44.4027 46.8693 49.1813 48.288 56.2 49.856C60.1573 50.752 63.48 51.7227 66.168 52.768C68.9307 53.8133 71.544 55.232 74.008 57.024C76.472 58.7413 78.3013 60.944 79.496 63.632C80.7653 66.32 81.4 69.5307 81.4 73.264C81.4 80.7307 78.6 86.592 73 90.848C67.4747 95.104 59.9707 97.232 50.488 97.232ZM115.381 97.456C107.018 97.456 100.447 94.9547 95.6686 89.952C90.89 84.9493 88.5006 77.968 88.5006 69.008C88.5006 60.048 90.89 53.0667 95.6686 48.064C100.447 42.9867 106.981 40.448 115.269 40.448C122.063 40.448 127.365 41.9787 131.173 45.04C135.055 48.1013 136.997 52.5813 136.997 58.48C136.997 61.392 136.661 63.632 135.989 65.2L122.101 65.312C122.474 64.192 122.661 62.8107 122.661 61.168C122.661 56.464 120.122 54.112 115.045 54.112C108.325 54.112 104.965 58.928 104.965 68.56C104.965 73.488 105.973 77.2587 107.989 79.872C110.079 82.4853 113.029 83.792 116.837 83.792C119.674 83.792 121.951 83.2693 123.669 82.224C125.386 81.104 126.991 79.4987 128.485 77.408L137.893 85.92C135.877 89.4293 132.927 92.2293 129.045 94.32C125.162 96.4107 120.607 97.456 115.381 97.456ZM192.903 96.784C183.794 96.784 179.239 92.1173 179.239 82.784V63.632C179.239 61.0933 178.53 59.04 177.111 57.472C175.767 55.904 173.938 55.12 171.623 55.12C168.786 55.12 166.62 56.016 165.127 57.808C163.708 59.5253 162.999 61.504 162.999 63.744V96H146.647V14.688H162.999V46.272C165.986 42.3893 170.466 40.448 176.439 40.448C182.935 40.448 187.751 42.4267 190.887 46.384C194.023 50.3413 195.591 55.5307 195.591 61.952V78.864C195.591 82 197.084 83.568 200.071 83.568V95.888C198.279 96.4853 195.89 96.784 192.903 96.784ZM289.29 96.784C284.66 96.784 281.226 95.664 278.986 93.424C276.746 91.1093 275.626 87.5627 275.626 82.784V63.744C275.626 61.056 274.954 58.9653 273.61 57.472C272.266 55.904 270.399 55.12 268.01 55.12C265.546 55.12 263.567 55.9787 262.073 57.696C260.655 59.3387 259.946 61.4667 259.946 64.08V96H243.482V63.632C243.482 61.0933 242.772 59.04 241.354 57.472C240.01 55.904 238.106 55.12 235.642 55.12C233.028 55.12 230.975 55.9787 229.482 57.696C228.063 59.4133 227.354 61.5413 227.354 64.08V96H211.002V59.04C211.002 55.9787 209.508 54.448 206.522 54.448V42.128C208.09 41.5307 210.516 41.232 213.802 41.232C220.074 41.232 223.882 43.808 225.226 48.96V49.072C226.495 46.5333 228.474 44.48 231.162 42.912C233.924 41.2693 237.135 40.448 240.794 40.448C248.708 40.448 254.196 43.5467 257.258 49.744C260.244 43.5467 265.508 40.448 273.05 40.448C279.322 40.448 284.026 42.352 287.162 46.16C290.372 49.968 291.978 55.232 291.978 61.952V78.864C291.978 82 293.471 83.568 296.458 83.568V95.888C294.666 96.4853 292.276 96.784 289.29 96.784ZM313.966 34.176C311.278 34.176 308.926 33.2053 306.91 31.264C304.894 29.3227 303.886 27.008 303.886 24.32C303.886 21.5573 304.894 19.2053 306.91 17.264C308.926 15.248 311.278 14.24 313.966 14.24C316.729 14.24 319.081 15.248 321.022 17.264C322.964 19.2053 323.934 21.5573 323.934 24.32C323.934 27.0827 322.964 29.4347 321.022 31.376C319.081 33.2427 316.729 34.176 313.966 34.176ZM305.79 96V42.016H322.142V96H305.79ZM361.092 96.672C353.625 96.672 348.1 94.6933 344.516 90.736C341.007 86.704 339.252 80.544 339.252 72.256V55.12H329.956V42.016H339.7V26.224H355.604V42.016H373.524V55.12H355.604V71.248C355.604 78.416 358.329 82 363.78 82C366.617 82 369.268 81.1413 371.732 79.424L376.772 91.52C374.98 93.0133 372.628 94.2453 369.716 95.216C366.804 96.1867 363.929 96.672 361.092 96.672ZM409.436 96.672C401.969 96.672 396.444 94.6933 392.86 90.736C389.35 86.704 387.596 80.544 387.596 72.256V55.12H378.3V42.016H388.044V26.224H403.948V42.016H421.868V55.12H403.948V71.248C403.948 78.416 406.673 82 412.124 82C414.961 82 417.612 81.1413 420.076 79.424L425.116 91.52C423.324 93.0133 420.972 94.2453 418.06 95.216C415.148 96.1867 412.273 96.672 409.436 96.672ZM455.129 96V17.6H471.705V48.736H500.713V17.6H517.289V96H500.713V63.968H471.705V96H455.129ZM549.367 97.456C542.945 97.456 537.756 94.9173 533.799 89.84C529.841 84.688 527.863 77.8933 527.863 69.456C527.863 60.8693 530.028 53.888 534.359 48.512C538.764 43.136 544.364 40.448 551.159 40.448C557.505 40.448 562.172 42.576 565.159 46.832V42.016H580.503V78.864C580.503 80.5813 580.839 81.8133 581.511 82.56C582.183 83.3067 583.34 83.68 584.983 83.68V96C583.415 96.5973 580.951 96.896 577.591 96.896C570.721 96.896 566.913 94.096 566.167 88.496L566.055 88.384C562.769 94.432 557.207 97.456 549.367 97.456ZM554.855 83.792C559.857 83.792 563.068 80.992 564.487 75.392V62.064C562.993 56.7627 559.783 54.112 554.855 54.112C547.911 54.112 544.439 59.152 544.439 69.232C544.439 73.936 545.335 77.5573 547.127 80.096C548.919 82.56 551.495 83.792 554.855 83.792ZM608.53 96.784C603.9 96.784 600.466 95.7013 598.226 93.536C595.986 91.296 594.866 87.6747 594.866 82.672V14.688H611.218V78.752C611.218 80.3947 611.591 81.552 612.338 82.224C613.084 82.896 614.316 83.232 616.034 83.232V95.888C613.794 96.4853 611.292 96.784 608.53 96.784ZM639.483 96.784C634.854 96.784 631.419 95.7013 629.179 93.536C626.939 91.296 625.819 87.6747 625.819 82.672V14.688H642.171V78.752C642.171 80.3947 642.544 81.552 643.291 82.224C644.038 82.896 645.27 83.232 646.987 83.232V95.888C644.747 96.4853 642.246 96.784 639.483 96.784Z" fill="#106EA2"/>
<path d="M19.24 84.576L8.30728 74.3059L-0.384487 83.5584L7.30368 93.6603L19.24 84.576ZM29.656 73.488L41.0818 63.7695L30.2111 50.9889L18.7233 63.2179L29.656 73.488ZM61.128 67.664L68.7333 54.735L68.7333 54.735L61.128 67.664ZM46.904 63.184L43.6811 77.8337L43.7157 77.8413L43.7503 77.8487L46.904 63.184ZM37.272 60.496L31.8353 74.4761L32.0055 74.5423L32.1773 74.6043L37.272 60.496ZM29.432 56.352L21.0274 68.7763L21.0274 68.7763L29.432 56.352ZM23.608 49.632L9.97785 55.8945L10.047 56.045L10.1195 56.194L23.608 49.632ZM29.656 22.976L39.1457 34.5926L39.1545 34.5854L39.1633 34.5782L29.656 22.976ZM71.432 21.408L63.402 34.0776L63.4419 34.1029L63.482 34.128L71.432 21.408ZM78.936 42.352L78.8241 57.3516L90.4766 57.4385L93.4421 46.1694L78.936 42.352ZM63.928 42.24L49.2193 39.2982L45.6581 57.1041L63.8161 57.2396L63.928 42.24ZM60.456 32.608L52.506 45.328L52.5934 45.3826L52.6815 45.436L60.456 32.608ZM41.864 45.6L34.9947 58.9346L35.075 58.976L35.1558 59.0164L41.864 45.6ZM56.2 49.856L59.5124 35.2263L59.4914 35.2216L59.4704 35.2169L56.2 49.856ZM66.168 52.768L60.7313 66.7481L60.7954 66.773L60.8596 66.7973L66.168 52.768ZM74.008 57.024L65.1854 69.155L65.3074 69.2437L65.4311 69.33L74.008 57.024ZM79.496 63.632L65.7888 69.7241L65.8588 69.8814L65.9323 70.0371L79.496 63.632ZM73 90.848L63.9238 78.9056L63.8851 78.935L63.8466 78.9646L73 90.848ZM50.488 82.232C38.9546 82.232 33.8211 78.9669 31.1763 75.4917L7.30368 93.6603C17.5015 107.06 33.2 112.232 50.488 112.232V82.232ZM30.1727 94.8461L40.5887 83.7581L18.7233 63.2179L8.30728 74.3059L30.1727 94.8461ZM18.2302 83.2065C26.5993 93.0459 37.7916 98.232 50.712 98.232V68.232C46.6084 68.232 43.7634 66.9221 41.0818 63.7695L18.2302 83.2065ZM50.712 98.232C56.5012 98.232 63.3673 97.4306 69.2302 93.8298C76.2899 89.4939 79.936 82.3258 79.936 74.496H49.936C49.936 73.8837 50.0742 72.6172 50.8635 71.1629C51.6697 69.6775 52.7488 68.7459 53.5298 68.2662C54.2109 67.8479 54.4854 67.8764 53.9265 67.9908C53.3859 68.1015 52.3605 68.232 50.712 68.232V98.232ZM79.936 74.496C79.936 66.3762 76.0708 59.0512 68.7333 54.735L53.5227 80.593C52.7964 80.1658 51.7082 79.2775 50.8818 77.7949C50.0709 76.3401 49.936 75.0742 49.936 74.496H79.936ZM68.7333 54.735C63.8904 51.8862 56.9771 50.0073 50.0577 48.5193L43.7503 77.8487C46.9417 78.5351 49.3797 79.1698 51.1618 79.7311C53.0809 80.3356 53.6713 80.6804 53.5227 80.593L68.7333 54.735ZM50.1269 48.5343C46.8313 47.8093 44.2788 47.0782 42.3667 46.3877L32.1773 74.6043C35.6412 75.8552 39.51 76.916 43.6811 77.8337L50.1269 48.5343ZM42.7087 46.5159C41.1281 45.9013 39.505 45.0564 37.8366 43.9277L21.0274 68.7763C24.4363 71.0823 28.0399 73.0001 31.8353 74.4761L42.7087 46.5159ZM37.8366 43.9277C37.4829 43.6884 37.2923 43.4724 37.0965 43.07L10.1195 56.194C12.6117 61.3169 16.3038 65.5809 21.0274 68.7763L37.8366 43.9277ZM37.2382 43.3695C37.0528 42.9662 36.704 41.941 36.704 39.888H6.704C6.704 45.3017 7.6245 50.7725 9.97785 55.8945L37.2382 43.3695ZM36.704 39.888C36.704 37.3716 37.3896 36.0271 39.1457 34.5926L20.1663 11.3594C11.3197 18.5862 6.704 28.5164 6.704 39.888H36.704ZM39.1633 34.5782C41.2066 32.9039 44.644 31.368 50.936 31.368V1.368C39.6067 1.368 28.8574 4.23745 20.1487 11.3738L39.1633 34.5782ZM50.936 31.368C57.3771 31.368 61.1774 32.6677 63.402 34.0776L79.462 8.7384C71.0839 3.42833 61.2203 1.368 50.936 1.368V31.368ZM63.482 34.128C63.7683 34.3069 63.8942 34.4328 63.938 34.4802C63.9781 34.5236 64.0156 34.5722 64.0636 34.6682C64.1541 34.8493 64.496 35.643 64.496 37.536H94.496C94.496 25.9797 89.9351 15.2837 79.382 8.68802L63.482 34.128ZM64.496 37.536C64.496 38.3128 64.4124 38.601 64.4299 38.5346L93.4421 46.1694C94.2063 43.2657 94.496 40.3432 94.496 37.536H64.496ZM79.0479 27.3524L64.0399 27.2404L63.8161 57.2396L78.8241 57.3516L79.0479 27.3524ZM78.6367 45.1817C79.0566 43.0822 79.152 41.021 79.152 39.328H49.152C49.152 39.4716 49.1497 39.5831 49.1469 39.6651C49.1441 39.7475 49.1409 39.7917 49.1402 39.8015C49.1394 39.8121 49.1419 39.7755 49.152 39.6979C49.1572 39.6582 49.1647 39.605 49.1754 39.5394C49.1861 39.4738 49.2004 39.393 49.2193 39.2982L78.6367 45.1817ZM79.152 39.328C79.152 31.3306 75.3771 24.1113 68.2305 19.78L52.6815 45.436C51.9554 44.9959 50.8912 44.103 50.0848 42.6368C49.292 41.1955 49.152 39.9347 49.152 39.328H79.152ZM68.406 19.888C62.9753 16.4938 56.925 15.368 51.272 15.368V45.368C53.0857 45.368 53.158 45.7355 52.506 45.328L68.406 19.888ZM51.272 15.368C45.6866 15.368 38.8603 16.2254 33.0501 20.1485C26.1905 24.7802 23.168 31.9783 23.168 39.216H53.168C53.168 39.5984 53.0913 40.6602 52.4373 41.985C51.7508 43.3756 50.7534 44.3934 49.8379 45.0115C49.0217 45.5626 48.5388 45.6211 48.8327 45.5549C49.1231 45.4896 49.8846 45.368 51.272 45.368V15.368ZM23.168 39.216C23.168 42.7835 23.9154 46.7758 26.1106 50.5675C28.3427 54.4229 31.5449 57.1575 34.9947 58.9346L48.7333 32.2654C49.7191 32.7732 51.0733 33.8091 52.0734 35.5365C53.0366 37.2002 53.168 38.6352 53.168 39.216H23.168ZM35.1558 59.0164C39.5359 61.2065 45.9904 62.9449 52.9296 64.4951L59.4704 35.2169C56.164 34.4782 53.5717 33.8154 51.621 33.2363C50.6514 32.9485 49.9086 32.7014 49.3603 32.5C48.7914 32.291 48.5626 32.1788 48.5722 32.1836L35.1558 59.0164ZM52.8876 64.4857C56.388 65.2782 58.9491 66.055 60.7313 66.7481L71.6047 38.7879C68.0109 37.3903 63.9267 36.2258 59.5124 35.2263L52.8876 64.4857ZM60.8596 66.7973C62.3326 67.3546 63.7688 68.1247 65.1854 69.155L82.8306 44.893C79.3192 42.3393 75.5288 40.272 71.4764 38.7387L60.8596 66.7973ZM65.4311 69.33C65.612 69.4561 65.6759 69.5322 65.6887 69.5475C65.7001 69.5612 65.7351 69.6032 65.7888 69.7241L93.2032 57.5399C90.8728 52.2967 87.244 47.9653 82.5849 44.718L65.4311 69.33ZM65.9323 70.0371C66.0459 70.2777 66.4 71.1948 66.4 73.264H96.4C96.4 67.8665 95.4848 62.3623 93.0597 57.2269L65.9323 70.0371ZM66.4 73.264C66.4 76.3784 65.5323 77.6831 63.9238 78.9056L82.0762 102.79C91.6677 95.5009 96.4 85.0829 96.4 73.264H66.4ZM63.8466 78.9646C61.7461 80.5826 57.8374 82.232 50.488 82.232V112.232C62.1039 112.232 73.2033 109.625 82.1534 102.731L63.8466 78.9646ZM95.6686 89.952L84.822 100.313L84.822 100.313L95.6686 89.952ZM95.6686 48.064L106.515 58.425L106.554 58.3849L106.592 58.3445L95.6686 48.064ZM131.173 45.04L121.774 56.7306L121.83 56.7751L121.885 56.819L131.173 45.04ZM135.989 65.2L136.11 80.1995L145.914 80.1204L149.776 71.1088L135.989 65.2ZM122.101 65.312L107.87 60.5686L101.233 80.4808L122.222 80.3115L122.101 65.312ZM107.989 79.872L96.1119 89.0341L96.1928 89.139L96.2756 89.2424L107.989 79.872ZM123.669 82.224L131.468 95.037L131.667 94.9156L131.863 94.7882L123.669 82.224ZM128.485 77.408L138.548 66.285L126.064 54.9897L116.279 68.6894L128.485 77.408ZM137.893 85.92L150.899 93.3919L156.922 82.9084L147.956 74.797L137.893 85.92ZM115.381 82.456C110.195 82.456 107.885 81.0255 106.515 79.591L84.822 100.313C93.0091 108.884 103.841 112.456 115.381 112.456V82.456ZM106.515 79.591C105.119 78.1296 103.501 75.2891 103.501 69.008H73.5006C73.5006 80.6469 76.6606 91.769 84.822 100.313L106.515 79.591ZM103.501 69.008C103.501 62.7269 105.119 59.8864 106.515 58.425L84.822 37.703C76.6606 46.247 73.5006 57.3691 73.5006 69.008H103.501ZM106.592 58.3445C108.004 56.844 110.271 55.448 115.269 55.448V25.448C103.691 25.448 92.8908 29.1293 84.7456 37.7835L106.592 58.3445ZM115.269 55.448C119.962 55.448 121.502 56.512 121.774 56.7306L140.571 33.3494C133.227 27.4454 124.164 25.448 115.269 25.448V55.448ZM121.885 56.819C121.927 56.8522 121.9 56.8367 121.849 56.7704C121.797 56.7033 121.775 56.654 121.777 56.6601C121.781 56.6686 121.997 57.1645 121.997 58.48H151.997C151.997 48.9769 148.662 39.7278 140.46 33.261L121.885 56.819ZM121.997 58.48C121.997 59.3898 121.942 59.9087 121.911 60.1189C121.896 60.2141 121.895 60.1866 121.929 60.0596C121.962 59.9344 122.042 59.6643 122.201 59.2912L149.776 71.1088C151.622 66.8002 151.997 62.1879 151.997 58.48H121.997ZM135.868 50.2005L121.98 50.3125L122.222 80.3115L136.11 80.1995L135.868 50.2005ZM136.331 70.0554C137.37 66.9373 137.661 63.8409 137.661 61.168H107.661C107.661 61.4325 107.645 61.5074 107.656 61.4272C107.666 61.35 107.713 61.0405 107.87 60.5686L136.331 70.0554ZM137.661 61.168C137.661 56.1974 136.266 49.7967 130.951 44.8726C125.852 40.1488 119.623 39.112 115.045 39.112V69.112C115.544 69.112 113.122 69.2512 110.562 66.8794C107.786 64.3073 107.661 61.4346 107.661 61.168H137.661ZM115.045 39.112C107.6 39.112 100.106 42.0848 95.1827 49.1413C90.9449 55.2154 89.9646 62.4609 89.9646 68.56H119.965C119.965 66.9761 120.107 66.0554 120.205 65.6367C120.302 65.2203 120.285 65.5928 119.787 66.3067C119.221 67.1168 118.303 67.9752 117.101 68.5496C115.973 69.0884 115.154 69.112 115.045 69.112V39.112ZM89.9646 68.56C89.9646 75.2415 91.2885 82.7815 96.1119 89.0341L119.865 70.7099C120.27 71.2351 120.295 71.5214 120.212 71.2101C120.12 70.8682 119.965 70.0414 119.965 68.56H89.9646ZM96.2756 89.2424C101.628 95.9334 109.181 98.792 116.837 98.792V68.792C116.653 68.792 117.092 68.7643 117.845 69.0977C118.654 69.4563 119.302 70.0019 119.702 70.5016L96.2756 89.2424ZM116.837 98.792C121.348 98.792 126.625 97.9847 131.468 95.037L115.869 69.411C116.588 68.9737 117.136 68.8216 117.317 68.7801C117.484 68.7419 117.357 68.792 116.837 68.792V98.792ZM131.863 94.7882C135.486 92.4252 138.376 89.3675 140.691 86.1266L116.279 68.6894C115.607 69.6299 115.286 69.7828 115.475 69.6598L131.863 94.7882ZM118.421 88.531L127.829 97.043L147.956 74.797L138.548 66.285L118.421 88.531ZM124.886 78.4481C124.386 79.3182 123.583 80.2243 121.933 81.1129L136.156 107.527C142.271 104.234 147.367 99.5405 150.899 93.3919L124.886 78.4481ZM121.933 81.1129C120.608 81.8266 118.584 82.456 115.381 82.456V112.456C122.63 112.456 129.716 110.995 136.156 107.527L121.933 81.1129ZM177.111 57.472L165.722 67.2339L165.853 67.3866L165.988 67.5357L177.111 57.472ZM165.127 57.808L153.604 48.2052L153.583 48.23L153.563 48.2548L165.127 57.808ZM162.999 96V111H177.999V96H162.999ZM146.647 96H131.647V111H146.647V96ZM146.647 14.688V-0.312001H131.647V14.688H146.647ZM162.999 14.688H177.999V-0.312001H162.999V14.688ZM162.999 46.272H147.999V90.3738L174.888 55.4177L162.999 46.272ZM190.887 46.384L202.643 37.0678L202.643 37.0678L190.887 46.384ZM200.071 83.568H215.071V68.568H200.071V83.568ZM200.071 95.888L204.814 110.118L215.071 106.699V95.888H200.071ZM192.903 81.784C191.863 81.784 191.573 81.6457 191.773 81.714C191.887 81.7531 192.125 81.8477 192.432 82.0368C192.745 82.229 193.076 82.4859 193.39 82.807C193.702 83.1275 193.938 83.4512 194.104 83.7353C194.267 84.0138 194.338 84.2089 194.357 84.2684C194.386 84.3564 194.239 83.9431 194.239 82.784H164.239C164.239 89.6726 165.918 97.6113 171.92 103.761C177.988 109.978 185.942 111.784 192.903 111.784V81.784ZM194.239 82.784V63.632H164.239V82.784H194.239ZM194.239 63.632C194.239 58.1605 192.63 52.2666 188.234 47.4083L165.988 67.5357C165.304 66.7797 164.816 65.9158 164.529 65.0858C164.256 64.2965 164.239 63.7547 164.239 63.632H194.239ZM188.5 47.7101C183.942 42.3922 177.724 40.12 171.623 40.12V70.12C171.077 70.12 170.054 70.0231 168.822 69.4952C167.546 68.9481 166.487 68.1258 165.722 67.2339L188.5 47.7101ZM171.623 40.12C165.392 40.12 158.561 42.2562 153.604 48.2052L176.65 67.4108C175.834 68.3908 174.759 69.1754 173.606 69.6523C172.531 70.0974 171.768 70.12 171.623 70.12V40.12ZM153.563 48.2548C149.91 52.6768 147.999 58.0384 147.999 63.744H177.999C177.999 64.2354 177.916 64.9032 177.651 65.6419C177.386 66.3818 177.021 66.9624 176.691 67.3612L153.563 48.2548ZM147.999 63.744V96H177.999V63.744H147.999ZM162.999 81H146.647V111H162.999V81ZM161.647 96V14.688H131.647V96H161.647ZM146.647 29.688H162.999V-0.312001H146.647V29.688ZM147.999 14.688V46.272H177.999V14.688H147.999ZM174.888 55.4177C174.89 55.4149 174.843 55.4749 174.744 55.5515C174.7 55.5864 174.657 55.6152 174.62 55.6369C174.583 55.6585 174.562 55.6676 174.563 55.6673C174.564 55.6668 174.594 55.6539 174.659 55.6344C174.725 55.6147 174.829 55.5875 174.978 55.5598C175.278 55.504 175.754 55.448 176.439 55.448V25.448C166.946 25.448 157.564 28.7357 151.11 37.1263L174.888 55.4177ZM176.439 55.448C178.199 55.448 179.011 55.7196 179.223 55.8066C179.32 55.8465 179.31 55.8545 179.247 55.8073C179.219 55.7866 179.192 55.7631 179.168 55.7394C179.156 55.7282 179.147 55.7186 179.14 55.7113C179.134 55.704 179.131 55.7 179.131 55.7002L202.643 37.0678C195.88 28.5331 186.089 25.448 176.439 25.448V55.448ZM179.131 55.7002C179.652 56.3573 180.591 57.979 180.591 61.952H210.591C210.591 53.0823 208.395 44.3254 202.643 37.0678L179.131 55.7002ZM180.591 61.952V78.864H210.591V61.952H180.591ZM180.591 78.864C180.591 82.5664 181.46 88.1285 185.849 92.7368C190.368 97.4821 196.074 98.568 200.071 98.568V68.568C201.082 68.568 204.547 68.8699 207.573 72.0472C210.469 75.0875 210.591 78.2976 210.591 78.864H180.591ZM185.071 83.568V95.888H215.071V83.568H185.071ZM195.328 81.6577C195.583 81.5726 195.542 81.6174 195.074 81.6758C194.623 81.7323 193.915 81.784 192.903 81.784V111.784C196.679 111.784 200.87 111.433 204.814 110.118L195.328 81.6577ZM278.986 93.424L268.206 103.855L268.292 103.944L268.379 104.031L278.986 93.424ZM273.61 57.472L262.221 67.2339L262.339 67.3716L262.46 67.5065L273.61 57.472ZM262.073 57.696L250.754 47.8533L250.738 47.8725L250.721 47.8917L262.073 57.696ZM259.946 96V111H274.946V96H259.946ZM243.482 96H228.482V111H243.482V96ZM241.354 57.472L229.965 67.2339L230.096 67.3866L230.23 67.5357L241.354 57.472ZM229.482 57.696L218.162 47.8533L218.038 47.9965L217.917 48.1428L229.482 57.696ZM227.354 96V111H242.354V96H227.354ZM211.002 96H196.002V111H211.002V96ZM206.522 54.448H191.522V69.448H206.522V54.448ZM206.522 42.128L201.182 28.1107L191.522 31.7907V42.128H206.522ZM225.226 48.96H240.226V47.0357L239.74 45.1737L225.226 48.96ZM225.226 49.072H210.226L238.642 55.7802L225.226 49.072ZM231.162 42.912L238.72 55.8687L238.774 55.8371L238.828 55.805L231.162 42.912ZM257.258 49.744L243.809 56.3873L257.424 83.9496L270.77 56.2561L257.258 49.744ZM287.162 46.16L275.583 55.6956L275.638 55.7626L275.694 55.829L287.162 46.16ZM296.458 83.568H311.458V68.568H296.458V83.568ZM296.458 95.888L301.201 110.118L311.458 106.699V95.888H296.458ZM289.29 81.784C288.731 81.784 288.344 81.7498 288.105 81.7166C287.867 81.6835 287.809 81.6562 287.892 81.6831C287.979 81.7114 288.211 81.7971 288.532 81.9869C288.859 82.1804 289.229 82.4539 289.592 82.8174L268.379 104.031C274.506 110.158 282.514 111.784 289.29 111.784V81.784ZM289.765 82.9927C290.111 83.3505 290.36 83.703 290.529 83.9971C290.694 84.2846 290.758 84.4751 290.769 84.511C290.779 84.5429 290.741 84.4315 290.702 84.1371C290.662 83.8423 290.626 83.3991 290.626 82.784H260.626C260.626 89.5965 262.195 97.6437 268.206 103.855L289.765 82.9927ZM290.626 82.784V63.744H260.626V82.784H290.626ZM290.626 63.744C290.626 58.6224 289.318 52.5034 284.759 47.4375L262.46 67.5065C260.589 65.4273 260.626 63.4896 260.626 63.744H290.626ZM284.998 47.7101C280.343 42.2787 274.015 40.12 268.01 40.12V70.12C267.563 70.12 266.599 70.0442 265.393 69.5377C264.131 69.0077 263.036 68.1846 262.221 67.2339L284.998 47.7101ZM268.01 40.12C261.609 40.12 255.352 42.5658 250.754 47.8533L273.393 67.5387C272.754 68.2731 271.825 69.0139 270.649 69.5242C269.504 70.0211 268.541 70.12 268.01 70.12V40.12ZM250.721 47.8917C246.492 52.7891 244.946 58.6353 244.946 64.08H274.946C274.946 64.1254 274.939 64.5732 274.708 65.2674C274.464 65.9987 274.04 66.789 273.426 67.5003L250.721 47.8917ZM244.946 64.08V96H274.946V64.08H244.946ZM259.946 81H243.482V111H259.946V81ZM258.482 96V63.632H228.482V96H258.482ZM258.482 63.632C258.482 58.1605 256.872 52.2666 252.477 47.4083L230.23 67.5357C229.546 66.7797 229.058 65.9158 228.772 65.0858C228.499 64.2965 228.482 63.7547 228.482 63.632H258.482ZM252.742 47.7101C247.994 42.1708 241.554 40.12 235.642 40.12V70.12C235.291 70.12 234.385 70.0635 233.206 69.5782C231.961 69.0655 230.83 68.2429 229.965 67.2339L252.742 47.7101ZM235.642 40.12C229.401 40.12 222.942 42.3564 218.162 47.8533L240.801 67.5387C240.07 68.3788 239.078 69.1222 237.929 69.6027C236.832 70.0614 235.981 70.12 235.642 70.12V40.12ZM217.917 48.1428C213.97 52.9204 212.354 58.5695 212.354 64.08H242.354C242.354 64.2134 242.333 64.6711 242.116 65.3234C241.89 66.0007 241.522 66.6724 241.046 67.2492L217.917 48.1428ZM212.354 64.08V96H242.354V64.08H212.354ZM227.354 81H211.002V111H227.354V81ZM226.002 96V59.04H196.002V96H226.002ZM226.002 59.04C226.002 55.2888 225.088 49.703 220.618 45.1211C216.081 40.4706 210.422 39.448 206.522 39.448V69.448C205.607 69.448 202.189 69.1907 199.145 66.0709C196.168 63.0197 196.002 59.7298 196.002 59.04H226.002ZM221.522 54.448V42.128H191.522V54.448H221.522ZM211.861 56.1453C211.457 56.2995 211.196 56.3602 211.141 56.3723C211.08 56.386 211.14 56.3695 211.35 56.3437C211.79 56.2895 212.578 56.232 213.802 56.232V26.232C210.097 26.232 205.403 26.5027 201.182 28.1107L211.861 56.1453ZM213.802 56.232C215.004 56.232 214.289 56.4891 212.957 55.5882C212.28 55.1305 211.699 54.5361 211.275 53.8995C210.869 53.2908 210.736 52.8396 210.711 52.7463L239.74 45.1737C238.302 39.6636 235.159 34.3879 229.766 30.7397C224.626 27.2629 218.871 26.232 213.802 26.232V56.232ZM210.226 48.96V49.072H240.226V48.96H210.226ZM238.642 55.7802C238.622 55.8192 238.594 55.8686 238.557 55.921C238.52 55.9733 238.486 56.0125 238.463 56.0364C238.44 56.0598 238.44 56.0563 238.474 56.0295C238.51 56.0021 238.587 55.946 238.72 55.8687L223.603 29.9553C218.649 32.8452 214.507 36.9674 211.809 42.3638L238.642 55.7802ZM238.828 55.805C238.964 55.7238 239.453 55.448 240.794 55.448V25.448C234.817 25.448 228.884 26.8149 223.495 30.019L238.828 55.805ZM240.794 55.448C241.801 55.448 242.48 55.5473 242.896 55.6435C243.298 55.7366 243.458 55.8266 243.471 55.8337C243.473 55.8353 243.457 55.8217 243.466 55.8309C243.482 55.849 243.616 55.9968 243.809 56.3873L270.706 43.1007C267.976 37.5742 263.841 32.8836 258.221 29.7102C252.72 26.6046 246.684 25.448 240.794 25.448V55.448ZM270.77 56.2561C270.979 55.8237 271.124 55.6552 271.143 55.6341C271.152 55.6237 271.113 55.6642 271.055 55.6987C270.897 55.7917 271.331 55.448 273.05 55.448V25.448C267.227 25.448 261.258 26.6536 255.836 29.8453C250.33 33.0868 246.359 37.8073 243.745 43.2319L270.77 56.2561ZM273.05 55.448C274.697 55.448 275.457 55.7007 275.654 55.7802C275.745 55.8172 275.739 55.8256 275.683 55.7845C275.658 55.7667 275.634 55.7465 275.613 55.7264C275.592 55.7065 275.582 55.6944 275.583 55.6956L298.74 36.6244C292.011 28.4527 282.484 25.448 273.05 25.448V55.448ZM275.694 55.829C275.934 56.1145 276.978 57.5306 276.978 61.952H306.978C306.978 52.9334 304.81 43.8215 298.629 36.491L275.694 55.829ZM276.978 61.952V78.864H306.978V61.952H276.978ZM276.978 78.864C276.978 82.5664 277.847 88.1285 282.235 92.7368C286.755 97.4821 292.46 98.568 296.458 98.568V68.568C297.468 68.568 300.934 68.8699 303.96 72.0472C306.855 75.0875 306.978 78.2976 306.978 78.864H276.978ZM281.458 83.568V95.888H311.458V83.568H281.458ZM291.714 81.6578C291.969 81.5726 291.928 81.6174 291.461 81.6758C291.009 81.7323 290.302 81.784 289.29 81.784V111.784C293.065 111.784 297.257 111.433 301.201 110.118L291.714 81.6578ZM306.91 31.264L296.506 42.0688L296.506 42.0688L306.91 31.264ZM306.91 17.264L317.315 28.0688L317.417 27.9707L317.517 27.8706L306.91 17.264ZM321.022 17.264L310.217 27.6686L310.316 27.7706L310.416 27.8706L321.022 17.264ZM321.022 31.376L331.419 42.1885L331.525 42.0866L331.629 41.9826L321.022 31.376ZM305.79 96H290.79V111H305.79V96ZM305.79 42.016V27.016H290.79V42.016H305.79ZM322.142 42.016H337.142V27.016H322.142V42.016ZM322.142 96V111H337.142V96H322.142ZM313.966 19.176C314.473 19.176 315.169 19.277 315.909 19.5824C316.637 19.8832 317.103 20.2556 317.315 20.4592L296.506 42.0688C301.189 46.5787 307.224 49.176 313.966 49.176V19.176ZM317.315 20.4592C317.574 20.7089 318.029 21.2434 318.395 22.083C318.766 22.9355 318.886 23.7386 318.886 24.32H288.886C288.886 31.2691 291.689 37.4306 296.506 42.0688L317.315 20.4592ZM318.886 24.32C318.886 24.8065 318.788 25.557 318.429 26.3928C318.073 27.2244 317.614 27.7809 317.315 28.0688L296.506 6.45919C291.597 11.1863 288.886 17.4211 288.886 24.32H318.886ZM317.517 27.8706C317.329 28.0581 316.862 28.4543 316.095 28.7832C315.31 29.1195 314.549 29.24 313.966 29.24V-0.760002C307.04 -0.760002 300.943 2.01773 296.304 6.6574L317.517 27.8706ZM313.966 29.24C313.48 29.24 312.729 29.1414 311.893 28.7832C311.062 28.4268 310.505 27.9676 310.217 27.6686L331.827 6.85938C327.1 1.95041 320.865 -0.760002 313.966 -0.760002V29.24ZM310.416 27.8706C310.1 27.5552 309.667 26.9975 309.341 26.2063C309.015 25.417 308.934 24.7323 308.934 24.32H338.934C338.934 17.6071 336.403 11.4315 331.629 6.65739L310.416 27.8706ZM308.934 24.32C308.934 23.9077 309.015 23.223 309.341 22.4337C309.667 21.6425 310.1 21.0848 310.416 20.7694L331.629 41.9826C336.403 37.2084 338.934 31.0329 338.934 24.32H308.934ZM310.626 20.5635C310.967 20.2357 311.522 19.8301 312.27 19.5336C313.01 19.2399 313.628 19.176 313.966 19.176V49.176C320.494 49.176 326.604 46.8181 331.419 42.1885L310.626 20.5635ZM320.79 96V42.016H290.79V96H320.79ZM305.79 57.016H322.142V27.016H305.79V57.016ZM307.142 42.016V96H337.142V42.016H307.142ZM322.142 81H305.79V111H322.142V81ZM344.516 90.736L333.201 100.584L333.299 100.695L333.398 100.805L344.516 90.736ZM339.252 55.12H354.252V40.12H339.252V55.12ZM329.956 55.12H314.956V70.12H329.956V55.12ZM329.956 42.016V27.016H314.956V42.016H329.956ZM339.7 42.016V57.016H354.7V42.016H339.7ZM339.7 26.224V11.224H324.7V26.224H339.7ZM355.604 26.224H370.604V11.224H355.604V26.224ZM355.604 42.016H340.604V57.016H355.604V42.016ZM373.524 42.016H388.524V27.016H373.524V42.016ZM373.524 55.12V70.12H388.524V55.12H373.524ZM355.604 55.12V40.12H340.604V55.12H355.604ZM371.732 79.424L385.578 73.6548L378.421 56.478L363.155 67.118L371.732 79.424ZM376.772 91.52L386.375 103.043L394.873 95.9617L390.618 85.7508L376.772 91.52ZM369.716 95.216L374.459 109.446L374.459 109.446L369.716 95.216ZM361.092 81.672C358.635 81.672 357.171 81.3406 356.405 81.0662C356.038 80.9348 355.842 80.8208 355.757 80.7658C355.678 80.7143 355.649 80.6837 355.634 80.6668L333.398 100.805C340.815 108.995 351.13 111.672 361.092 111.672V81.672ZM355.831 80.8881C355.705 80.7437 354.252 78.8288 354.252 72.256H324.252C324.252 82.2592 326.308 92.6643 333.201 100.584L355.831 80.8881ZM354.252 72.256V55.12H324.252V72.256H354.252ZM339.252 40.12H329.956V70.12H339.252V40.12ZM344.956 55.12V42.016H314.956V55.12H344.956ZM329.956 57.016H339.7V27.016H329.956V57.016ZM354.7 42.016V26.224H324.7V42.016H354.7ZM339.7 41.224H355.604V11.224H339.7V41.224ZM340.604 26.224V42.016H370.604V26.224H340.604ZM355.604 57.016H373.524V27.016H355.604V57.016ZM358.524 42.016V55.12H388.524V42.016H358.524ZM373.524 40.12H355.604V70.12H373.524V40.12ZM340.604 55.12V71.248H370.604V55.12H340.604ZM340.604 71.248C340.604 76.3071 341.492 82.8465 345.708 88.3914C350.514 94.7123 357.472 97 363.78 97V67C364.043 67 364.978 67.0431 366.225 67.59C367.561 68.1756 368.739 69.1163 369.588 70.2326C371.079 72.1935 370.604 73.3569 370.604 71.248H340.604ZM363.78 97C369.869 97 375.484 95.0925 380.309 91.73L363.155 67.118C363.043 67.1963 363.086 67.1469 363.273 67.0861C363.361 67.0578 363.456 67.0346 363.554 67.0193C363.652 67.0041 363.73 67 363.78 67V97ZM357.886 85.1932L362.926 97.2892L390.618 85.7508L385.578 73.6548L357.886 85.1932ZM367.169 79.9967C367.189 79.9803 366.641 80.4297 364.973 80.9858L374.459 109.446C378.615 108.061 382.771 106.046 386.375 103.043L367.169 79.9967ZM364.973 80.9858C363.465 81.4883 362.19 81.672 361.092 81.672V111.672C365.668 111.672 370.143 110.885 374.459 109.446L364.973 80.9858ZM392.86 90.736L381.545 100.584L381.642 100.695L381.742 100.805L392.86 90.736ZM387.596 55.12H402.596V40.12H387.596V55.12ZM378.3 55.12H363.3V70.12H378.3V55.12ZM378.3 42.016V27.016H363.3V42.016H378.3ZM388.044 42.016V57.016H403.044V42.016H388.044ZM388.044 26.224V11.224H373.044V26.224H388.044ZM403.948 26.224H418.948V11.224H403.948V26.224ZM403.948 42.016H388.948V57.016H403.948V42.016ZM421.868 42.016H436.868V27.016H421.868V42.016ZM421.868 55.12V70.12H436.868V55.12H421.868ZM403.948 55.12V40.12H388.948V55.12H403.948ZM420.076 79.424L433.922 73.6548L426.765 56.478L411.499 67.118L420.076 79.424ZM425.116 91.52L434.719 103.043L443.216 95.9617L438.962 85.7508L425.116 91.52ZM418.06 95.216L422.803 109.446L422.803 109.446L418.06 95.216ZM409.436 81.672C406.979 81.672 405.515 81.3406 404.749 81.0662C404.382 80.9348 404.186 80.8208 404.101 80.7658C404.022 80.7143 403.993 80.6837 403.978 80.6668L381.742 100.805C389.159 108.995 399.474 111.672 409.436 111.672V81.672ZM404.174 80.8881C404.049 80.7437 402.596 78.8288 402.596 72.256H372.596C372.596 82.2592 374.652 92.6643 381.545 100.584L404.174 80.8881ZM402.596 72.256V55.12H372.596V72.256H402.596ZM387.596 40.12H378.3V70.12H387.596V40.12ZM393.3 55.12V42.016H363.3V55.12H393.3ZM378.3 57.016H388.044V27.016H378.3V57.016ZM403.044 42.016V26.224H373.044V42.016H403.044ZM388.044 41.224H403.948V11.224H388.044V41.224ZM388.948 26.224V42.016H418.948V26.224H388.948ZM403.948 57.016H421.868V27.016H403.948V57.016ZM406.868 42.016V55.12H436.868V42.016H406.868ZM421.868 40.12H403.948V70.12H421.868V40.12ZM388.948 55.12V71.248H418.948V55.12H388.948ZM388.948 71.248C388.948 76.3071 389.835 82.8465 394.052 88.3914C398.858 94.7123 405.816 97 412.124 97V67C412.387 67 413.321 67.0431 414.569 67.59C415.905 68.1756 417.083 69.1163 417.932 70.2326C419.423 72.1935 418.948 73.3569 418.948 71.248H388.948ZM412.124 97C418.213 97 423.828 95.0925 428.653 91.73L411.499 67.118C411.387 67.1963 411.429 67.1469 411.617 67.0861C411.704 67.0578 411.8 67.0346 411.898 67.0193C411.995 67.0041 412.073 67 412.124 67V97ZM406.23 85.1932L411.27 97.2892L438.962 85.7508L433.922 73.6548L406.23 85.1932ZM415.513 79.9967C415.533 79.9803 414.985 80.4297 413.316 80.9858L422.803 109.446C426.959 108.061 431.115 106.046 434.719 103.043L415.513 79.9967ZM413.316 80.9858C411.809 81.4883 410.534 81.672 409.436 81.672V111.672C414.012 111.672 418.487 110.885 422.803 109.446L413.316 80.9858ZM455.129 96H440.129V111H455.129V96ZM455.129 17.6V2.59999H440.129V17.6H455.129ZM471.705 17.6H486.705V2.59999H471.705V17.6ZM471.705 48.736H456.705V63.736H471.705V48.736ZM500.713 48.736V63.736H515.713V48.736H500.713ZM500.713 17.6V2.59999H485.713V17.6H500.713ZM517.289 17.6H532.289V2.59999H517.289V17.6ZM517.289 96V111H532.289V96H517.289ZM500.713 96H485.713V111H500.713V96ZM500.713 63.968H515.713V48.968H500.713V63.968ZM471.705 63.968V48.968H456.705V63.968H471.705ZM471.705 96V111H486.705V96H471.705ZM470.129 96V17.6H440.129V96H470.129ZM455.129 32.6H471.705V2.59999H455.129V32.6ZM456.705 17.6V48.736H486.705V17.6H456.705ZM471.705 63.736H500.713V33.736H471.705V63.736ZM515.713 48.736V17.6H485.713V48.736H515.713ZM500.713 32.6H517.289V2.59999H500.713V32.6ZM502.289 17.6V96H532.289V17.6H502.289ZM517.289 81H500.713V111H517.289V81ZM515.713 96V63.968H485.713V96H515.713ZM500.713 48.968H471.705V78.968H500.713V48.968ZM456.705 63.968V96H486.705V63.968H456.705ZM471.705 81H455.129V111H471.705V81ZM533.799 89.84L521.903 98.9773L521.935 99.0194L521.968 99.0611L533.799 89.84ZM534.359 48.512L522.756 39.0047L522.717 39.0532L522.677 39.1021L534.359 48.512ZM565.159 46.832L552.88 55.4484L580.159 94.32V46.832H565.159ZM565.159 42.016V27.016H550.159V42.016H565.159ZM580.503 42.016H595.503V27.016H580.503V42.016ZM581.511 82.56L570.361 92.5945L570.361 92.5945L581.511 82.56ZM584.983 83.68H599.983V68.68H584.983V83.68ZM584.983 96L590.323 110.017L599.983 106.337V96H584.983ZM566.167 88.496L581.035 86.5135L580.364 81.48L576.773 77.8893L566.167 88.496ZM566.055 88.384L576.661 77.7773L562.46 63.5765L552.874 81.224L566.055 88.384ZM564.487 75.392L579.027 79.0756L579.487 77.2625V75.392H564.487ZM564.487 62.064H579.487V59.9917L578.925 57.9969L564.487 62.064ZM547.127 80.096L534.872 88.7462L534.933 88.8328L534.996 88.9186L547.127 80.096ZM549.367 82.456C547.582 82.456 546.753 82.0602 545.63 80.6189L521.968 99.0611C528.759 107.774 538.308 112.456 549.367 112.456V82.456ZM545.694 80.7027C544.281 78.8623 542.863 75.581 542.863 69.456H512.863C512.863 80.2056 515.402 90.5137 521.903 98.9773L545.694 80.7027ZM542.863 69.456C542.863 63.4365 544.339 60.0338 546.04 57.9219L522.677 39.1021C515.717 47.7422 512.863 58.3022 512.863 69.456H542.863ZM545.961 58.0193C547.593 56.0278 548.977 55.448 551.159 55.448V25.448C539.751 25.448 529.935 30.2442 522.756 39.0047L545.961 58.0193ZM551.159 55.448C552.681 55.448 553.222 55.7043 553.195 55.692C553.179 55.6848 553.097 55.6422 552.995 55.5577C552.895 55.474 552.859 55.4181 552.88 55.4484L577.437 38.2156C571.007 29.0534 561.173 25.448 551.159 25.448V55.448ZM580.159 46.832V42.016H550.159V46.832H580.159ZM565.159 57.016H580.503V27.016H565.159V57.016ZM565.503 42.016V78.864H595.503V42.016H565.503ZM565.503 78.864C565.503 81.8653 565.965 87.7093 570.361 92.5945L592.66 72.5255C594.258 74.3016 594.94 76.0805 595.226 77.1292C595.506 78.1546 595.503 78.816 595.503 78.864H565.503ZM570.361 92.5945C575.253 98.0302 581.706 98.68 584.983 98.68V68.68C585.214 68.68 586.16 68.6961 587.488 69.1244C588.897 69.579 590.888 70.557 592.66 72.5255L570.361 92.5945ZM569.983 83.68V96H599.983V83.68H569.983ZM579.643 81.9827C580.064 81.8223 580.334 81.7604 580.385 81.7492C580.443 81.7362 580.376 81.754 580.154 81.781C579.688 81.8375 578.863 81.896 577.591 81.896V111.896C581.32 111.896 586.078 111.634 590.323 110.017L579.643 81.9827ZM577.591 81.896C575.962 81.896 576.865 81.5325 578.468 82.7112C579.316 83.3341 580.015 84.1513 580.487 85.0211C580.931 85.8406 581.023 86.4264 581.035 86.5135L551.298 90.4785C552.097 96.4683 554.876 102.601 560.697 106.881C566.108 110.859 572.35 111.896 577.591 111.896V81.896ZM576.773 77.8893L576.661 77.7773L555.448 98.9907L555.56 99.1027L576.773 77.8893ZM552.874 81.224C552.654 81.6283 552.49 81.8138 552.425 81.8798C552.368 81.9389 552.324 81.9717 552.254 82.0094C552.136 82.0737 551.372 82.456 549.367 82.456V112.456C561.777 112.456 572.91 107.188 579.235 95.544L552.874 81.224ZM554.855 98.792C560.314 98.792 566.072 97.1841 570.874 92.9969C575.467 88.9914 577.83 83.803 579.027 79.0756L549.946 71.7084C549.725 72.581 549.773 71.5926 551.156 70.3871C551.85 69.7819 552.647 69.3364 553.431 69.0693C554.18 68.8137 554.706 68.792 554.855 68.792V98.792ZM579.487 75.392V62.064H549.487V75.392H579.487ZM578.925 57.9969C577.614 53.3434 575.121 48.3412 570.508 44.5327C565.741 40.5968 560.135 39.112 554.855 39.112V69.112C554.743 69.112 554.274 69.0964 553.583 68.8716C552.862 68.6367 552.098 68.2364 551.409 67.6673C550.006 66.5095 549.866 65.4833 550.049 66.1311L578.925 57.9969ZM554.855 39.112C547.22 39.112 539.636 42.2022 534.69 49.3824C530.439 55.5535 529.439 62.9348 529.439 69.232H559.439C559.439 67.5253 559.59 66.4922 559.709 65.9741C559.828 65.4559 559.846 65.7471 559.395 66.4016C558.877 67.1536 558.005 67.9914 556.831 68.5594C555.728 69.0929 554.934 69.112 554.855 69.112V39.112ZM529.439 69.232C529.439 75.5367 530.59 82.6804 534.872 88.7462L559.381 71.4458C559.753 71.973 559.759 72.2269 559.672 71.8733C559.579 71.5005 559.439 70.6695 559.439 69.232H529.439ZM534.996 88.9186C539.931 95.7045 547.268 98.792 554.855 98.792V68.792C555.022 68.792 555.815 68.8293 556.874 69.336C557.985 69.8671 558.789 70.629 559.258 71.2734L534.996 88.9186ZM598.226 93.536L587.619 104.143L587.709 104.232L587.8 104.321L598.226 93.536ZM594.866 14.688V-0.312001H579.866V14.688H594.866ZM611.218 14.688H626.218V-0.312001H611.218V14.688ZM616.034 83.232H631.034V68.232H616.034V83.232ZM616.034 95.888L619.899 110.382L631.034 107.412V95.888H616.034ZM608.53 81.784C607.951 81.784 607.541 81.7498 607.278 81.7144C607.015 81.6791 606.932 81.6473 606.991 81.6659C607.054 81.6858 607.27 81.7606 607.581 81.9386C607.899 82.1204 608.273 82.3859 608.651 82.7512L587.8 104.321C593.94 110.256 601.876 111.784 608.53 111.784V81.784ZM608.832 82.9294C609.27 83.3673 609.573 83.7951 609.769 84.1371C609.96 84.4702 610.029 84.6846 610.036 84.708C610.042 84.7276 609.996 84.5845 609.951 84.2332C609.905 83.8826 609.866 83.3706 609.866 82.672H579.866C579.866 89.4233 581.307 97.8307 587.619 104.143L608.832 82.9294ZM609.866 82.672V14.688H579.866V82.672H609.866ZM594.866 29.688H611.218V-0.312001H594.866V29.688ZM596.218 14.688V78.752H626.218V14.688H596.218ZM596.218 78.752C596.218 82.029 596.868 88.4813 602.303 93.3734L622.372 71.0746C624.341 72.8462 625.319 74.8378 625.773 76.247C626.202 77.5746 626.218 78.5205 626.218 78.752H596.218ZM602.303 93.3734C607.188 97.7701 613.032 98.232 616.034 98.232V68.232C616.082 68.232 616.743 68.2289 617.769 68.5085C618.817 68.7946 620.596 69.4761 622.372 71.0746L602.303 93.3734ZM601.034 83.232V95.888H631.034V83.232H601.034ZM612.169 81.3945C611.403 81.5986 610.229 81.784 608.53 81.784V111.784C612.356 111.784 616.184 111.372 619.899 110.382L612.169 81.3945ZM629.179 93.536L618.572 104.143L618.662 104.232L618.754 104.321L629.179 93.536ZM625.819 14.688V-0.312001H610.819V14.688H625.819ZM642.171 14.688H657.171V-0.312001H642.171V14.688ZM646.987 83.232H661.987V68.232H646.987V83.232ZM646.987 95.888L650.852 110.382L661.987 107.412V95.888H646.987ZM639.483 81.784C638.904 81.784 638.494 81.7498 638.231 81.7144C637.968 81.6791 637.885 81.6473 637.944 81.6659C638.007 81.6858 638.223 81.7606 638.534 81.9386C638.852 82.1204 639.226 82.3859 639.604 82.7512L618.754 104.321C624.893 110.256 632.829 111.784 639.483 111.784V81.784ZM639.785 82.9294C640.223 83.3673 640.526 83.7951 640.722 84.1371C640.913 84.4702 640.982 84.6846 640.989 84.708C640.995 84.7276 640.95 84.5845 640.904 84.2332C640.858 83.8826 640.819 83.3706 640.819 82.672H610.819C610.819 89.4233 612.26 97.8307 618.572 104.143L639.785 82.9294ZM640.819 82.672V14.688H610.819V82.672H640.819ZM625.819 29.688H642.171V-0.312001H625.819V29.688ZM627.171 14.688V78.752H657.171V14.688H627.171ZM627.171 78.752C627.171 82.029 627.821 88.4813 633.256 93.3734L653.325 71.0746C655.294 72.8462 656.272 74.8378 656.727 76.247C657.155 77.5746 657.171 78.5205 657.171 78.752H627.171ZM633.256 93.3734C638.142 97.7701 643.986 98.232 646.987 98.232V68.232C647.035 68.232 647.696 68.2289 648.722 68.5085C649.77 68.7946 651.549 69.4761 653.325 71.0746L633.256 93.3734ZM631.987 83.232V95.888H661.987V83.232H631.987ZM643.122 81.3945C642.356 81.5986 641.182 81.784 639.483 81.784V111.784C643.309 111.784 647.137 111.372 650.852 110.382L643.122 81.3945Z" fill="white" mask="url(#path-1-outside-1_1436_90930)"/>
</svg>
