<svg width="273" height="131" viewBox="0 0 273 131" fill="none" xmlns="http://www.w3.org/2000/svg">
<mask id="path-1-outside-1_1436_90926" maskUnits="userSpaceOnUse" x="-1" y="0" width="273" height="131" fill="black">
<rect fill="white" x="-1" width="273" height="131"/>
<path d="M14.76 99V15H32.04L57.12 68.4L82.68 15H98.76V99H82.2V44.76L80.52 49.32L62.4 88.68H50.4L32.88 49.32L31.32 45V99H14.76ZM137.364 99L107.484 15H127.404L146.724 79.2L166.284 15H185.004L155.124 99H137.364ZM193.94 99V15H223.46C234.02 15 242.22 17.4 248.06 22.2C253.9 26.92 256.82 34.08 256.82 43.68C256.82 52.96 253.86 60.04 247.94 64.92C242.1 69.72 234.58 72.12 225.38 72.12H211.7V99H193.94ZM211.7 57.96H222.62C233.5 57.96 238.94 53.24 238.94 43.8C238.94 39.32 237.5 35.8 234.62 33.24C231.82 30.6 227.62 29.28 222.02 29.28H211.7V57.96Z"/>
</mask>
<path d="M14.76 99V15H32.04L57.12 68.4L82.68 15H98.76V99H82.2V44.76L80.52 49.32L62.4 88.68H50.4L32.88 49.32L31.32 45V99H14.76ZM137.364 99L107.484 15H127.404L146.724 79.2L166.284 15H185.004L155.124 99H137.364ZM193.94 99V15H223.46C234.02 15 242.22 17.4 248.06 22.2C253.9 26.92 256.82 34.08 256.82 43.68C256.82 52.96 253.86 60.04 247.94 64.92C242.1 69.72 234.58 72.12 225.38 72.12H211.7V99H193.94ZM211.7 57.96H222.62C233.5 57.96 238.94 53.24 238.94 43.8C238.94 39.32 237.5 35.8 234.62 33.24C231.82 30.6 227.62 29.28 222.02 29.28H211.7V57.96Z" fill="#106EA2"/>
<path d="M14.76 99H-0.239999V114H14.76V99ZM14.76 15V-5.72205e-06H-0.239999V15H14.76ZM32.04 15L45.6171 8.62333L41.5671 -5.72205e-06H32.04V15ZM57.12 68.4L43.5429 74.7767L56.9915 103.411L70.65 74.8761L57.12 68.4ZM82.68 15V-5.72205e-06H73.23L69.1501 8.52386L82.68 15ZM98.76 15H113.76V-5.72205e-06H98.76V15ZM98.76 99V114H113.76V99H98.76ZM82.2 99H67.2V114H82.2V99ZM82.2 44.76H97.2L68.1249 39.5744L82.2 44.76ZM80.52 49.32L94.1455 55.5927L94.3916 55.058L94.5952 54.5056L80.52 49.32ZM62.4 88.68V103.68H72.0077L76.0255 94.9527L62.4 88.68ZM50.4 88.68L36.6963 94.7798L40.6579 103.68H50.4V88.68ZM32.88 49.32L18.7717 54.4147L18.9558 54.9246L19.1763 55.4198L32.88 49.32ZM31.32 45L45.4283 39.9053L16.32 45H31.32ZM31.32 99V114H46.32V99H31.32ZM29.76 99V15H-0.239999V99H29.76ZM14.76 30H32.04V-5.72205e-06H14.76V30ZM18.4629 21.3767L43.5429 74.7767L70.6971 62.0233L45.6171 8.62333L18.4629 21.3767ZM70.65 74.8761L96.21 21.4761L69.1501 8.52386L43.59 61.9239L70.65 74.8761ZM82.68 30H98.76V-5.72205e-06H82.68V30ZM83.76 15V99H113.76V15H83.76ZM98.76 84H82.2V114H98.76V84ZM97.2 99V44.76H67.2V99H97.2ZM68.1249 39.5744L66.4449 44.1344L94.5952 54.5056L96.2752 49.9456L68.1249 39.5744ZM66.8945 43.0473L48.7745 82.4073L76.0255 94.9527L94.1455 55.5927L66.8945 43.0473ZM62.4 73.68H50.4V103.68H62.4V73.68ZM64.1037 82.5802L46.5837 43.2202L19.1763 55.4198L36.6963 94.7798L64.1037 82.5802ZM46.9883 44.2253L45.4283 39.9053L17.2117 50.0947L18.7717 54.4147L46.9883 44.2253ZM16.32 45V99H46.32V45H16.32ZM31.32 84H14.76V114H31.32V84ZM137.364 99L123.232 104.027L126.779 114H137.364V99ZM107.484 15V-5.72205e-06H86.2279L93.3519 20.0271L107.484 15ZM127.404 15L141.768 10.6775L138.555 -5.72205e-06H127.404V15ZM146.724 79.2L132.361 83.5225L146.636 130.958L161.073 83.5717L146.724 79.2ZM166.284 15V-5.72205e-06H155.174L151.936 10.6283L166.284 15ZM185.004 15L199.137 20.0271L206.261 -5.72205e-06H185.004V15ZM155.124 99V114H165.709L169.257 104.027L155.124 99ZM151.497 93.9729L121.617 9.97286L93.3519 20.0271L123.232 104.027L151.497 93.9729ZM107.484 30H127.404V-5.72205e-06H107.484V30ZM113.041 19.3225L132.361 83.5225L161.088 74.8775L141.768 10.6775L113.041 19.3225ZM161.073 83.5717L180.633 19.3717L151.936 10.6283L132.376 74.8283L161.073 83.5717ZM166.284 30H185.004V-5.72205e-06H166.284V30ZM170.872 9.97286L140.992 93.9729L169.257 104.027L199.137 20.0271L170.872 9.97286ZM155.124 84H137.364V114H155.124V84ZM193.94 99H178.94V114H193.94V99ZM193.94 15V-5.72205e-06H178.94V15H193.94ZM248.06 22.2L238.535 33.7881L238.583 33.8273L238.631 33.8661L248.06 22.2ZM247.94 64.92L257.464 76.5081L257.472 76.5013L257.481 76.4944L247.94 64.92ZM211.7 72.12V57.12H196.7V72.12H211.7ZM211.7 99V114H226.7V99H211.7ZM211.7 57.96H196.7V72.96H211.7V57.96ZM234.62 33.24L224.33 44.1538L224.49 44.3049L224.654 44.4511L234.62 33.24ZM211.7 29.28V14.28H196.7V29.28H211.7ZM208.94 99V15H178.94V99H208.94ZM193.94 30H223.46V-5.72205e-06H193.94V30ZM223.46 30C231.908 30 236.271 31.9268 238.535 33.7881L257.584 10.6119C248.169 2.8732 236.132 -5.72205e-06 223.46 -5.72205e-06V30ZM238.631 33.8661C240.004 34.9761 241.82 37.2402 241.82 43.68H271.82C271.82 30.9198 267.795 18.8639 257.488 10.5339L238.631 33.8661ZM241.82 43.68C241.82 49.5153 240.136 51.9138 238.399 53.3456L257.481 76.4944C267.584 68.1662 271.82 56.4047 271.82 43.68H241.82ZM238.415 53.3319C235.806 55.4763 231.886 57.12 225.38 57.12V87.12C237.273 87.12 248.393 83.9637 257.464 76.5081L238.415 53.3319ZM225.38 57.12H211.7V87.12H225.38V57.12ZM196.7 72.12V99H226.7V72.12H196.7ZM211.7 84H193.94V114H211.7V84ZM211.7 72.96H222.62V42.96H211.7V72.96ZM222.62 72.96C229.891 72.96 238.145 71.4286 244.69 65.7498C251.642 59.7178 253.94 51.4306 253.94 43.8H223.94C223.94 44.7544 223.799 44.9253 223.917 44.6156C223.981 44.451 224.101 44.1949 224.307 43.8971C224.515 43.5963 224.764 43.3208 225.029 43.0902C225.58 42.6123 225.915 42.5723 225.592 42.6655C225.224 42.7719 224.304 42.96 222.62 42.96V72.96ZM253.94 43.8C253.94 35.8032 251.2 27.9085 244.585 22.0289L224.654 44.4511C224.555 44.3634 224.42 44.2221 224.282 44.0281C224.144 43.8334 224.043 43.6413 223.976 43.4795C223.84 43.1461 223.94 43.1669 223.94 43.8H253.94ZM244.91 22.3261C238.283 16.0782 229.719 14.28 222.02 14.28V44.28C223.688 44.28 224.561 44.482 224.872 44.5799C225.122 44.6583 224.802 44.5989 224.33 44.1538L244.91 22.3261ZM222.02 14.28H211.7V44.28H222.02V14.28ZM196.7 29.28V57.96H226.7V29.28H196.7Z" fill="white" mask="url(#path-1-outside-1_1436_90926)"/>
</svg>
