<svg width="273" height="114" viewBox="0 0 273 114" fill="none" xmlns="http://www.w3.org/2000/svg">
<path d="M194.9 99V15H224.42C234.98 15 243.18 17.4 249.02 22.2C254.86 26.92 257.78 34.08 257.78 43.68C257.78 52.96 254.82 60.04 248.9 64.92C243.06 69.72 235.54 72.12 226.34 72.12H212.66V99H194.9ZM212.66 57.96H223.58C234.46 57.96 239.9 53.24 239.9 43.8C239.9 39.32 238.46 35.8 235.58 33.24C232.78 30.6 228.58 29.28 222.98 29.28H212.66V57.96Z" fill="#106EA2"/>
<path d="M138.325 99L108.445 15H128.365L147.685 79.2L167.245 15H185.965L156.085 99H138.325Z" fill="#106EA2"/>
<path d="M15.7202 99V15H33.0002L58.0802 68.4L83.6402 15H99.7202V99H83.1602V44.76L81.4802 49.32L63.3602 88.68H51.3602L33.8402 49.32L32.2802 45V99H15.7202Z" fill="#106EA2"/>
<path fill-rule="evenodd" clip-rule="evenodd" d="M179.9 114V32.0493L185.965 15H179.9V0H224.42C237.07 0 249.088 2.86349 258.497 10.5726C268.768 18.9013 272.78 30.9395 272.78 43.68C272.78 56.4047 268.544 68.1662 258.441 76.4944L258.433 76.5013L258.424 76.5081C249.69 83.6872 239.055 86.88 227.66 87.1069V114H179.9ZM236.381 71.0144C241.176 69.8705 245.348 67.8391 248.9 64.92C254.82 60.04 257.78 52.96 257.78 43.68C257.78 34.08 254.86 26.92 249.02 22.2C245.186 19.0489 240.335 16.9321 234.467 15.8496C231.396 15.2832 228.047 15 224.42 15H194.9V99H212.66V72.12H226.34C229.945 72.12 233.292 71.7515 236.381 71.0144ZM212.66 57.96H223.58C224.542 57.96 225.462 57.9231 226.34 57.8492C226.791 57.8112 227.231 57.7634 227.66 57.7058C229.328 57.4819 230.826 57.11 232.153 56.5902C237.318 54.5673 239.9 50.3039 239.9 43.8C239.9 39.32 238.46 35.8 235.58 33.24C234.302 32.0353 232.733 31.1055 230.872 30.4506C229.884 30.1026 228.813 29.8322 227.66 29.6394C226.644 29.4695 225.564 29.3598 224.42 29.3104C223.951 29.2901 223.471 29.28 222.98 29.28H212.66V57.96Z" fill="white"/>
<path fill-rule="evenodd" clip-rule="evenodd" d="M127.74 114L99.7203 35.2308V15H92.5239L87.1882 0H139.515L147.773 27.4417L156.134 0H207.221L201.885 15H194.9V34.6377L166.67 114H152.763H147.685H142.493H127.74ZM138.325 99H156.085L185.965 15H167.245L147.685 79.2L128.365 15H108.445L138.325 99Z" fill="white"/>
<path fill-rule="evenodd" clip-rule="evenodd" d="M0.720215 114V0H42.5273L58.2087 33.3887L74.1902 0H114.72V15H108.445L114.72 32.6423V114H68.1602V103.68H47.2802V114H0.720215ZM32.2802 45L33.8402 49.32L51.3602 88.68H63.3602L81.4802 49.32L83.1602 44.76V99H99.7202V15H83.6402L58.0802 68.4L33.0002 15H15.7202V99H32.2802V45Z" fill="white"/>
</svg>
