<svg width="50" height="45" viewBox="0 0 50 45" fill="none" xmlns="http://www.w3.org/2000/svg">
<path d="M19.5674 3.41846L32.2285 7.229L44.8779 4.37354L47.4512 3.79248L47.3154 6.42725L45.7588 36.5757L45.6787 38.1226L44.1611 38.4321L30.998 41.1216L30.5137 41.2202L30.04 41.0825L17.3311 37.3931L4.77539 39.7134L2.30664 40.1694L2.41406 37.6616L3.6875 7.93701L3.75488 6.37256L5.29004 6.06201L18.5947 3.37354L19.0869 3.27393L19.5674 3.41846Z" stroke="#A56953" stroke-width="4"/>
<g filter="url(#filter0_dd_8724_5684)">
<path d="M4.39737 37.7084C4.81838 28.0575 5.67901 8.61547 5.75345 8.05436L19.1879 5.33944L17.4445 35.3607L4.39737 37.7084Z" fill="#F2DDAF"/>
<path d="M17.4341 35.3406C18.0233 25.5192 19.1464 5.79739 19.0938 5.3335L32.2846 9.22541L30.6015 39.1294L17.4341 35.3406Z" fill="#DAC086"/>
<path d="M30.5982 39.1267L32.2221 9.24135L45.3077 6.38674L43.7834 36.4278L30.5982 39.1267Z" fill="#F2DDAF"/>
</g>
<defs>
<filter id="filter0_dd_8724_5684" x="4.39648" y="3.3335" width="40.9121" height="37.7959" filterUnits="userSpaceOnUse" color-interpolation-filters="sRGB">
<feFlood flood-opacity="0" result="BackgroundImageFix"/>
<feColorMatrix in="SourceAlpha" type="matrix" values="0 0 0 0 0 0 0 0 0 0 0 0 0 0 0 0 0 0 127 0" result="hardAlpha"/>
<feOffset dy="2"/>
<feComposite in2="hardAlpha" operator="out"/>
<feColorMatrix type="matrix" values="0 0 0 0 0.486275 0 0 0 0 0.309804 0 0 0 0 0.243137 0 0 0 1 0"/>
<feBlend mode="normal" in2="BackgroundImageFix" result="effect1_dropShadow_8724_5684"/>
<feColorMatrix in="SourceAlpha" type="matrix" values="0 0 0 0 0 0 0 0 0 0 0 0 0 0 0 0 0 0 127 0" result="hardAlpha"/>
<feOffset dy="-2"/>
<feComposite in2="hardAlpha" operator="out"/>
<feColorMatrix type="matrix" values="0 0 0 0 0.486275 0 0 0 0 0.309804 0 0 0 0 0.243137 0 0 0 1 0"/>
<feBlend mode="normal" in2="effect1_dropShadow_8724_5684" result="effect2_dropShadow_8724_5684"/>
<feBlend mode="normal" in="SourceGraphic" in2="effect2_dropShadow_8724_5684" result="shape"/>
</filter>
</defs>
</svg>
