<svg width="55" height="55" viewBox="0 0 55 55" fill="none" xmlns="http://www.w3.org/2000/svg">
<path d="M22.9965 19.3446C24.8699 17.0217 27.5135 10.557 23.6295 9.94985C19.7456 9.34266 16.4562 10.2362 14.5828 12.5591C12.7082 14.8836 13.0725 18.2847 15.3962 20.1588C17.7199 22.0328 21.1218 21.6691 22.9965 19.3446ZM31.513 35.2975C31.5113 34.7012 31.4339 33.95 31.3115 33.1291C31.3687 30.4623 30.2425 27.7987 28.0059 25.9949C26.0153 24.3895 23.5462 23.7893 21.1983 24.1124C19.9757 24.1581 18.8448 24.2531 18.0336 24.4272L17.4935 24.54C14.9761 25.0639 11.8433 25.7152 9.21987 28.9919C6.78402 32.0351 7.26285 36.498 10.2884 38.938C11.1265 39.617 12.1102 40.0931 13.1627 40.3293C14.2151 40.5654 16.1416 40.706 16.6705 40.0503C16.1416 40.706 16.5493 42.4486 17.0033 43.4274C17.4573 44.4062 18.1314 45.2667 18.9729 45.942C21.9972 48.381 26.4594 47.9037 28.9184 44.8785C31.5651 41.6205 31.5376 38.4205 31.5169 35.8496L31.513 35.2975Z" fill="#EACE9E"/>
<path d="M44.9763 27.1656C46.5238 31.173 46.2167 34.2375 44.3433 36.5604C42.4686 38.8849 39.0667 39.2486 36.743 37.3745C34.4193 35.5005 34.055 32.0994 35.9297 29.7749C37.803 27.452 43.4289 23.1583 44.9763 27.1656Z" fill="#EACE9E"/>
<path d="M30.4594 23.5475C33.0194 25.6121 36.7684 25.2105 38.833 22.6505C40.8976 20.0905 41.9783 13.9275 39.6998 12.0899C37.4213 10.2523 31.627 12.6138 29.5624 15.1738C27.4978 17.7339 27.8994 21.4829 30.4594 23.5475Z" fill="#EACE9E"/>
</svg>
