<svg width="199" height="15" viewBox="0 0 199 15" fill="none" xmlns="http://www.w3.org/2000/svg">
<path opacity="0.5" d="M81.2372 9.45153C78.0876 7.66721 74.9557 5.94493 71.8894 4.14044C66.5077 0.975462 60.7245 0.705253 54.7132 2.28262C50.3978 3.41425 46.6501 5.36203 43.5541 8.15708C42.9599 8.69383 42.3396 9.20933 41.6089 9.84062C40.3089 9.2045 39.1135 8.64932 37.9537 8.04593C35.0492 6.53321 32.2185 4.9098 29.253 3.48968C21.9976 0.0187786 14.4109 -0.122587 6.72307 2.07949C5.1512 2.52877 3.655 3.30838 2.32702 4.15843C1.48214 4.70031 0.826796 5.58809 0.413382 6.43561C-0.204102 7.69981 0.366465 9.00827 1.46355 9.51142C2.67107 10.0649 4.84294 9.81124 5.74245 8.97558C6.06474 8.67716 6.29656 8.31051 6.56651 7.97163C8.86234 5.08803 12.5429 3.87259 16.4723 5.01061C18.7518 5.67068 20.9144 6.67606 23.0257 7.68818C26.0631 9.14318 28.9735 10.7873 31.9932 12.2685C34.5475 13.523 37.2821 14.3397 40.275 14.4623C45.1337 14.6589 49.3319 13.4603 52.874 10.6247C54.5617 9.27423 56.4107 8.06376 58.2027 6.80654C59.3271 6.01629 60.4872 6.01875 61.7624 6.67056C64.332 7.985 66.942 9.24932 69.5446 10.5155C71.3029 11.3698 73.0196 12.3173 74.8653 13.0101C80.3155 15.0551 85.4617 14.4682 90.1889 11.5271C91.6127 10.6429 92.8999 9.60296 94.2412 8.62612C94.9119 8.13668 95.5684 7.63453 96.2224 7.1323C98.7193 5.21229 101.28 4.5575 104.487 6.27169C107.223 7.7324 110.175 8.93883 113.142 10.0411C115.874 11.0566 118.688 12.0622 121.582 12.5697C126.159 13.3693 130.701 12.7221 134.738 10.7969C139.144 8.69572 143.356 8.78148 147.944 10.4532C151.728 11.8331 155.68 12.9554 159.662 13.8447C164.812 14.9972 169.787 14.3766 174.362 12.0013C176.349 10.9692 178.376 9.98736 180.385 8.98451C182.095 8.13308 183.832 8.0331 185.723 8.67588C187.601 9.31627 189.55 9.81508 191.48 10.34C193.208 10.81 194.978 11.0227 196.727 10.5005C198.542 9.95773 198.759 8.94048 197.163 8.019C190.985 4.44565 184.409 2.64936 176.963 4.72915C173.089 5.8119 169.548 7.41488 166.273 9.41312C165.066 10.1497 163.998 10.234 162.711 9.73975C160.567 8.91745 158.385 8.16583 156.26 7.31123C146.416 3.3519 136.804 3.7063 127.438 8.17797C126.171 8.78364 125.071 8.89366 123.811 8.29356C122.681 7.7546 121.515 7.2659 120.375 6.73897C117.384 5.35094 114.409 3.94079 111.408 2.56683C106.816 0.464312 102.003 0.193179 97.026 1.23819C92.3868 2.21083 88.2814 3.99249 84.7972 6.76001C83.6872 7.64092 82.5297 8.4815 81.2395 9.45774L81.2372 9.45153Z" fill="#F08F68"/>
</svg> 
