<svg width="177" height="83" viewBox="0 0 177 83" fill="none" xmlns="http://www.w3.org/2000/svg">
<rect x="0.5" y="19" width="176" height="64" rx="32" fill="#FFFFEC"/>
<path d="M53.1278 48.8862C55.3129 49.566 56.9882 50.2458 58.1536 50.9256C59.319 51.6054 60.1445 52.4067 60.63 53.3293C61.1156 54.2276 61.3584 55.393 61.3584 56.8255C61.3584 58.2337 60.9578 59.5205 60.1566 60.6859C59.3797 61.827 58.2992 62.7253 56.9153 63.3809C55.5314 64.0364 53.9775 64.3642 52.2537 64.3642C50.4328 64.3642 48.8182 64.1214 47.41 63.6358C46.0018 63.1259 44.9092 62.4097 44.1323 61.4871C43.3796 60.5645 43.0033 59.5083 43.0033 58.3187C43.0033 57.3232 43.2825 56.522 43.841 55.915C44.4237 55.308 45.1763 55.0045 46.0989 55.0045C47.0215 55.0045 47.762 55.2595 48.3205 55.7693C48.8789 56.2792 49.1581 56.9469 49.1581 57.7724C49.1581 58.2822 49.0367 58.78 48.7939 59.2655C49.668 59.824 50.7363 60.1032 51.9988 60.1032C53.3827 60.1032 54.4388 59.8483 55.1672 59.3384C55.8956 58.8042 56.2598 58.0637 56.2598 57.1168C56.2598 56.5584 56.1505 56.1092 55.932 55.7693C55.7135 55.4294 55.3008 55.1138 54.6938 54.8224C54.1111 54.5311 53.2006 54.1912 51.9624 53.8027C49.8501 53.1229 48.1748 52.4309 46.9366 51.7268C45.6983 50.9985 44.7878 50.1608 44.2051 49.2139C43.6467 48.2428 43.3675 47.0652 43.3675 45.6813C43.3675 44.2003 43.7681 42.8892 44.5693 41.7481C45.3705 40.607 46.4874 39.7208 47.9199 39.0895C49.3766 38.4582 51.0276 38.1426 52.8728 38.1426C54.451 38.1426 55.847 38.3975 57.061 38.9074C58.2992 39.4173 59.2583 40.1214 59.9381 41.0197C60.6422 41.918 60.9942 42.9499 60.9942 44.1153C60.9942 45.1108 60.7029 45.912 60.1202 46.5189C59.5375 47.1259 58.7848 47.4294 57.8622 47.4294C56.9639 47.4294 56.2234 47.1745 55.6407 46.6646C55.0822 46.1548 54.803 45.4871 54.803 44.6616C54.803 44.1517 54.9244 43.654 55.1672 43.1684C54.6574 42.6586 53.7347 42.4036 52.3994 42.4036C51.2097 42.4036 50.2628 42.6707 49.5587 43.2048C48.8546 43.7147 48.5026 44.4188 48.5026 45.3171C48.5026 45.8998 48.624 46.3854 48.8668 46.7739C49.1338 47.1381 49.583 47.478 50.2143 47.7936C50.8698 48.1092 51.841 48.4734 53.1278 48.8862ZM77.3895 57.6631C77.948 57.6631 78.4336 57.8452 78.8463 58.2094C79.259 58.5493 79.4654 58.9742 79.4654 59.4841C79.4654 60.0668 79.2833 60.6373 78.9191 61.1957C77.4867 63.308 75.69 64.3642 73.5291 64.3642C68.9647 64.3642 66.6824 61.8027 66.6824 56.6798V49.9787H65.1164C64.6308 49.9787 64.2302 49.8331 63.9146 49.5417C63.5989 49.2261 63.4411 48.8255 63.4411 48.3399V47.4294C63.4411 46.9438 63.5989 46.5554 63.9146 46.264C64.2302 45.9484 64.6308 45.7906 65.1164 45.7906H66.6824V42.5129C66.6824 42.0273 66.8281 41.6267 67.1194 41.3111C67.4351 40.9954 67.8357 40.8376 68.3213 40.8376H70.0694C70.5549 40.8376 70.9434 40.9954 71.2348 41.3111C71.5504 41.6267 71.7082 42.0273 71.7082 42.5129V45.7906H75.7143C76.1999 45.7906 76.6005 45.9484 76.9161 46.264C77.2317 46.5554 77.3895 46.9438 77.3895 47.4294V48.3399C77.3895 48.8255 77.2317 49.2261 76.9161 49.5417C76.6005 49.8331 76.1999 49.9787 75.7143 49.9787H71.7082V57.3353C71.7082 58.2337 71.8903 58.9378 72.2545 59.4476C72.6187 59.9332 73.1164 60.176 73.7477 60.176C74.2575 60.176 74.6581 60.0546 74.9495 59.8118C75.2651 59.569 75.5929 59.1563 75.9328 58.5736C76.1513 58.258 76.3577 58.0273 76.5519 57.8816C76.7704 57.736 77.0496 57.6631 77.3895 57.6631ZM97.7995 59.739C98.2608 59.739 98.6371 59.8604 98.9285 60.1032C99.2198 60.3217 99.3655 60.6737 99.3655 61.1593V62.5797C99.3655 63.0652 99.2198 63.4294 98.9285 63.6722C98.6371 63.8907 98.2608 64 97.7995 64H93.757C93.2957 64 92.8951 63.8422 92.5552 63.5266C92.2395 63.1866 92.0817 62.786 92.0817 62.3247V60.5766C91.5961 61.6935 90.8556 62.6039 89.8602 63.308C88.889 64.0121 87.845 64.3642 86.7281 64.3642C85.0529 64.3642 83.6932 63.8665 82.6492 62.871C81.6295 61.8756 81.1196 60.5645 81.1196 58.9378C81.1196 57.0926 81.7145 55.7329 82.9042 54.8589C84.0938 53.9605 85.8905 53.5114 88.2941 53.5114C89.411 53.5114 90.6735 53.6449 92.0817 53.912V52.5645C92.0817 51.5205 91.8025 50.7193 91.2441 50.1608C90.7099 49.6024 89.933 49.3232 88.9133 49.3232C88.2577 49.3232 87.7721 49.4325 87.4565 49.651C87.408 50.4036 87.1287 51.0349 86.6189 51.5448C86.109 52.0303 85.4778 52.2731 84.7251 52.2731C83.8996 52.2731 83.2319 52.0303 82.7221 51.5448C82.2122 51.0349 81.9573 50.3793 81.9573 49.5781C81.9573 48.3156 82.6007 47.308 83.8875 46.5554C85.1743 45.8027 86.8495 45.4264 88.9133 45.4264C91.6083 45.4264 93.6477 46.1183 95.0316 47.5023C96.4156 48.8619 97.1075 50.78 97.1075 53.2564V59.739H97.7995ZM88.2577 60.6495C89.2289 60.6495 90.0787 60.2489 90.807 59.4476C91.5597 58.6221 91.9846 57.6388 92.0817 56.4977C91.2805 56.352 90.2729 56.2792 89.0589 56.2792C88.0392 56.2792 87.2987 56.4734 86.8374 56.8619C86.3761 57.2261 86.1454 57.8209 86.1454 58.6464C86.1454 59.2534 86.3397 59.739 86.7281 60.1032C87.1166 60.4674 87.6265 60.6495 88.2577 60.6495ZM113.765 45.4264C114.93 45.4264 115.816 45.742 116.423 46.3733C117.03 46.9803 117.334 47.8057 117.334 48.8498C117.334 49.7724 117.043 50.5372 116.46 51.1441C115.877 51.7511 115.125 52.0546 114.202 52.0546C113.474 52.0546 112.854 51.8482 112.345 51.4355C111.859 51.0227 111.543 50.4643 111.398 49.7602C110.572 50.0273 109.88 50.6221 109.322 51.5448C108.763 52.4431 108.484 53.4628 108.484 54.6039V59.739H109.832C110.876 59.739 111.398 60.2124 111.398 61.1593V62.5797C111.398 63.5266 110.876 64 109.832 64H102.766C102.305 64 101.929 63.8907 101.637 63.6722C101.346 63.4294 101.2 63.0652 101.2 62.5797V61.1593C101.2 60.6737 101.346 60.3217 101.637 60.1032C101.929 59.8604 102.305 59.739 102.766 59.739H103.458V50.0516H102.766C102.305 50.0516 101.929 49.9423 101.637 49.7238C101.346 49.481 101.2 49.1168 101.2 48.6312V47.2109C101.2 46.264 101.722 45.7906 102.766 45.7906H106.809C107.294 45.7906 107.695 45.9484 108.011 46.264C108.326 46.5796 108.484 46.9803 108.484 47.4658V50.0516C108.897 48.6191 109.577 47.4901 110.524 46.6646C111.495 45.8391 112.575 45.4264 113.765 45.4264ZM133.107 57.6631C133.666 57.6631 134.151 57.8452 134.564 58.2094C134.977 58.5493 135.183 58.9742 135.183 59.4841C135.183 60.0668 135.001 60.6373 134.637 61.1957C133.204 63.308 131.408 64.3642 129.247 64.3642C124.682 64.3642 122.4 61.8027 122.4 56.6798V49.9787H120.834C120.349 49.9787 119.948 49.8331 119.632 49.5417C119.317 49.2261 119.159 48.8255 119.159 48.3399V47.4294C119.159 46.9438 119.317 46.5554 119.632 46.264C119.948 45.9484 120.349 45.7906 120.834 45.7906H122.4V42.5129C122.4 42.0273 122.546 41.6267 122.837 41.3111C123.153 40.9954 123.553 40.8376 124.039 40.8376H125.787C126.273 40.8376 126.661 40.9954 126.952 41.3111C127.268 41.6267 127.426 42.0273 127.426 42.5129V45.7906H131.432C131.918 45.7906 132.318 45.9484 132.634 46.264C132.949 46.5554 133.107 46.9438 133.107 47.4294V48.3399C133.107 48.8255 132.949 49.2261 132.634 49.5417C132.318 49.8331 131.918 49.9787 131.432 49.9787H127.426V57.3353C127.426 58.2337 127.608 58.9378 127.972 59.4476C128.336 59.9332 128.834 60.176 129.465 60.176C129.975 60.176 130.376 60.0546 130.667 59.8118C130.983 59.569 131.311 59.1563 131.651 58.5736C131.869 58.258 132.075 58.0273 132.27 57.8816C132.488 57.736 132.767 57.6631 133.107 57.6631Z" fill="#205950"/>
<path d="M56.6211 6.16699C58.8371 1.73489 65.1629 1.73489 67.3789 6.16699L73.2363 17.8818L75.0449 21.5H48.9551L50.7637 17.8818L56.6211 6.16699Z" fill="#FAA685" stroke="#FFFFEC" stroke-width="5"/>
<path d="M110.621 6.16699C112.837 1.73489 119.163 1.73489 121.379 6.16699L127.236 17.8818L129.045 21.5H102.955L104.764 17.8818L110.621 6.16699Z" fill="#FAA685" stroke="#FFFFEC" stroke-width="5"/>
</svg>
