<svg width="1235" height="218" viewBox="0 0 1235 218" fill="none" xmlns="http://www.w3.org/2000/svg">
<path d="M147.534 44.6346C147.534 49.7421 146.174 54.0868 143.454 57.6687C140.735 61.1842 136.39 62.942 130.42 62.942C124.451 62.942 120.04 61.2506 117.187 57.8677C114.335 54.4848 112.909 50.4054 112.909 45.6296C112.909 38.0679 116.458 32.1312 123.555 27.8197C130.653 23.5082 141.995 21.3525 157.583 21.3525H170.915V33.292H165.244L174.597 70.0062L186.835 21.3525H197.083L209.222 70.0062L218.674 33.292H213.003V21.3525H238.076V33.292H231.907L216.385 91H203.152L191.909 50.7039L180.766 91H167.533L152.011 33.3915C142.062 33.6569 135.13 34.7513 131.216 36.6749C127.303 38.5322 125.346 41.3844 125.346 45.2316C125.346 49.0788 127.038 51.0024 130.42 51.0024C133.538 51.0024 135.097 48.8798 135.097 44.6346H147.534ZM261.148 80.0554H269.804V91H240.552V80.0554H248.213V27.3222H240.552V16.3776H261.148V44.6346C266.852 41.7161 271.993 40.2568 276.57 40.2568C282.805 40.2568 287.117 42.0809 289.504 45.7291C291.892 49.3773 293.086 54.4185 293.086 60.8526V80.5529H301.245V89.2091C298.393 90.7347 294.944 91.4975 290.897 91.4975C286.851 91.4975 284.032 90.602 282.44 88.8111C280.915 87.0201 280.152 84.1016 280.152 80.0554V60.8526C280.152 57.934 279.754 55.7782 278.958 54.3853C278.162 52.926 276.305 52.1964 273.386 52.1964C270.467 52.1964 266.388 54.1863 261.148 58.1662V80.0554ZM335.536 84.5327C331.424 89.5076 326.847 91.995 321.806 91.995C316.765 91.995 312.818 90.7015 309.966 88.1146C307.113 85.5277 305.687 81.9127 305.687 77.2695C305.687 72.56 307.545 68.5801 311.259 65.3299C314.974 62.0797 320.446 60.4546 327.676 60.4546H335.536V56.8727C335.536 53.7551 333.58 52.1964 329.666 52.1964C325.752 52.1964 322.27 52.6275 319.219 53.4898V59.1611H307.777V44.3361C311.027 43.0759 314.808 42.0809 319.119 41.3513C323.497 40.6216 327.145 40.2568 330.064 40.2568C335.835 40.2568 340.345 41.7824 343.596 44.8336C346.846 47.8185 348.471 51.8315 348.471 56.8727V80.5529H356.63V89.2091C353.777 90.7347 350.195 91.4975 345.884 91.4975C338.986 91.4975 335.536 89.1759 335.536 84.5327ZM322.701 80.0554C327.278 80.0554 331.556 77.3358 335.536 71.8967V71.4987H327.577C324.525 71.4987 322.27 72.0293 320.811 73.0906C319.352 74.1519 318.622 75.578 318.622 77.369C318.622 79.1599 319.982 80.0554 322.701 80.0554ZM360.088 52.1964V42.2467L368.744 41.2518C370.933 35.7463 372.359 31.3684 373.022 28.1182H381.679V41.2518H393.519V52.1964H381.679V76.772C381.679 77.8996 381.844 78.7619 382.176 79.3589C382.574 79.8896 383.403 80.1549 384.663 80.1549C385.924 80.1549 388.113 79.5247 391.23 78.2644L396.006 88.4131C391.761 90.801 387.217 91.995 382.375 91.995C377.599 91.995 374.117 90.7347 371.928 88.2141C369.805 85.6935 368.744 82.4101 368.744 78.3639V52.1964H360.088ZM431.819 52.1964V42.2467L440.475 41.2518C442.664 35.7463 444.09 31.3684 444.753 28.1182H453.409V41.2518H465.249V52.1964H453.409V76.772C453.409 77.8996 453.575 78.7619 453.907 79.3589C454.305 79.8896 455.134 80.1549 456.394 80.1549C457.654 80.1549 459.843 79.5247 462.961 78.2644L467.737 88.4131C463.492 90.801 458.948 91.995 454.106 91.995C449.33 91.995 445.848 90.7347 443.659 88.2141C441.536 85.6935 440.475 82.4101 440.475 78.3639V52.1964H431.819ZM492.846 80.0554H501.503V91H472.251V80.0554H479.912V27.3222H472.251V16.3776H492.846V44.6346C498.551 41.7161 503.692 40.2568 508.268 40.2568C514.504 40.2568 518.815 42.0809 521.203 45.7291C523.591 49.3773 524.785 54.4185 524.785 60.8526V80.5529H532.944V89.2091C530.091 90.7347 526.642 91.4975 522.596 91.4975C518.55 91.4975 515.731 90.602 514.139 88.8111C512.613 87.0201 511.85 84.1016 511.85 80.0554V60.8526C511.85 57.934 511.452 55.7782 510.656 54.3853C509.86 52.926 508.003 52.1964 505.085 52.1964C502.166 52.1964 498.087 54.1863 492.846 58.1662V80.0554ZM584.448 65.7279V71.0012H550.818C551.017 73.6544 552.111 75.8434 554.101 77.568C556.158 79.2262 558.545 80.0554 561.265 80.0554C563.985 80.0554 566.273 79.8564 568.13 79.4584C570.054 79.0604 571.381 78.6956 572.11 78.3639C572.906 78.0323 574.067 77.4353 575.593 76.573L577.98 75.2796L583.154 85.3287C577.715 89.7729 570.949 91.995 562.857 91.995C554.765 91.995 548.563 89.5739 544.251 84.7317C540.006 79.8232 537.883 73.6213 537.883 66.1259C537.883 58.6305 540.006 52.4617 544.251 47.6195C548.563 42.711 554.4 40.2568 561.763 40.2568C569.192 40.2568 574.83 42.6447 578.677 47.4205C582.524 52.1964 584.448 58.2988 584.448 65.7279ZM571.513 60.9521C571.248 58.2988 570.319 56.1762 568.727 54.5843C567.202 52.9923 564.98 52.1964 562.061 52.1964C559.209 52.1964 556.821 53.0255 554.897 54.6838C553.04 56.2757 551.813 58.3652 551.216 60.9521H571.513ZM115.967 142.292V188.06H125.619V200H94.2772V188.06H103.033V142.292H96.0681C87.3788 142.292 81.2431 143.32 77.6613 145.376C74.0794 147.433 72.2885 150.384 72.2885 154.232C72.2885 158.079 73.9799 160.002 77.3628 160.002C80.4803 160.002 82.0391 157.88 82.0391 153.635H94.4762C94.4762 158.742 93.1164 163.087 90.3968 166.669C87.6772 170.184 83.3326 171.942 77.3628 171.942C71.393 171.942 66.982 170.251 64.1297 166.868C61.2775 163.485 59.8514 159.405 59.8514 154.63C59.8514 147.068 63.2674 141.131 70.0995 136.82C76.998 132.508 87.9757 130.352 103.033 130.352H138.056V150.948H126.216V142.292H115.967ZM192.022 174.728V180.001H158.392C158.591 182.654 159.685 184.843 161.675 186.568C163.731 188.226 166.119 189.055 168.839 189.055C171.558 189.055 173.847 188.856 175.704 188.458C177.628 188.06 178.954 187.696 179.684 187.364C180.48 187.032 181.641 186.435 183.166 185.573L185.554 184.28L190.728 194.329C185.289 198.773 178.523 200.995 170.431 200.995C162.338 200.995 156.137 198.574 151.825 193.732C147.58 188.823 145.457 182.621 145.457 175.126C145.457 167.63 147.58 161.462 151.825 156.62C156.137 151.711 161.974 149.257 169.336 149.257C176.765 149.257 182.404 151.645 186.251 156.421C190.098 161.196 192.022 167.299 192.022 174.728ZM179.087 169.952C178.822 167.299 177.893 165.176 176.301 163.584C174.776 161.992 172.553 161.196 169.635 161.196C166.783 161.196 164.395 162.026 162.471 163.684C160.614 165.276 159.387 167.365 158.79 169.952H179.087ZM228.358 193.533C224.246 198.508 219.669 200.995 214.628 200.995C209.586 200.995 205.64 199.702 202.787 197.115C199.935 194.528 198.509 190.913 198.509 186.269C198.509 181.56 200.366 177.58 204.081 174.33C207.795 171.08 213.268 169.455 220.498 169.455H228.358V165.873C228.358 162.755 226.401 161.196 222.488 161.196C218.574 161.196 215.092 161.628 212.041 162.49V168.161H200.599V153.336C203.849 152.076 207.63 151.081 211.941 150.351C216.319 149.622 219.967 149.257 222.886 149.257C228.657 149.257 233.167 150.782 236.417 153.834C239.667 156.819 241.293 160.832 241.293 165.873V189.553H249.451V198.209C246.599 199.735 243.017 200.497 238.706 200.497C231.807 200.497 228.358 198.176 228.358 193.533ZM215.523 189.055C220.1 189.055 224.378 186.336 228.358 180.897V180.499H220.398C217.347 180.499 215.092 181.029 213.633 182.091C212.173 183.152 211.444 184.578 211.444 186.369C211.444 188.16 212.803 189.055 215.523 189.055ZM298.678 194.329C293.504 198.773 286.971 200.995 279.077 200.995C271.184 200.995 265.081 198.574 260.77 193.732C256.525 188.823 254.402 182.621 254.402 175.126C254.402 167.63 256.525 161.462 260.77 156.62C265.081 151.711 270.786 149.257 277.883 149.257C285.047 149.257 291.183 150.617 296.29 153.336V169.654H284.848V161.992C283.057 161.462 281.034 161.196 278.779 161.196C275.197 161.196 272.378 162.49 270.321 165.077C268.332 167.664 267.337 171.013 267.337 175.126C267.337 179.238 268.332 182.588 270.321 185.175C272.378 187.762 274.931 189.055 277.983 189.055C281.1 189.055 283.687 188.757 285.743 188.16C287.866 187.563 289.325 187.032 290.121 186.568C290.984 186.037 292.111 185.275 293.504 184.28L298.678 194.329ZM323.265 189.055H331.921V200H302.669V189.055H310.331V136.322H302.669V125.378H323.265V153.635C328.97 150.716 334.11 149.257 338.687 149.257C344.922 149.257 349.234 151.081 351.622 154.729C354.01 158.377 355.204 163.418 355.204 169.853V189.553H363.362V198.209C360.51 199.735 357.061 200.497 353.015 200.497C348.968 200.497 346.149 199.602 344.557 197.811C343.032 196.02 342.269 193.102 342.269 189.055V169.853C342.269 166.934 341.871 164.778 341.075 163.385C340.279 161.926 338.422 161.196 335.503 161.196C332.585 161.196 328.505 163.186 323.265 167.166V189.055ZM426.266 153.635C426.266 158.742 424.906 163.087 422.186 166.669C419.467 170.184 415.122 171.942 409.152 171.942C403.183 171.942 398.772 170.251 395.919 166.868C393.067 163.485 391.641 159.405 391.641 154.63C391.641 147.068 395.19 141.131 402.287 136.82C409.385 132.508 420.727 130.352 436.315 130.352H452.433V142.292H443.777V176.618C443.777 180.001 445.17 182.853 447.956 185.175C450.808 187.43 454.457 188.558 458.901 188.558C463.411 188.558 467.126 187.43 470.044 185.175C472.963 182.853 474.422 180.001 474.422 176.618V142.292H465.766V130.352H497.008V142.292H487.357V176.618C487.357 183.517 484.77 189.321 479.596 194.03C474.488 198.673 467.59 200.995 458.901 200.995C450.278 200.995 443.446 198.673 438.404 194.03C433.363 189.387 430.843 183.583 430.843 176.618V142.392C420.893 142.657 413.928 143.751 409.948 145.675C406.035 147.532 404.078 150.384 404.078 154.232C404.078 158.079 405.77 160.002 409.152 160.002C412.27 160.002 413.829 157.88 413.829 153.635H426.266ZM501.355 182.688H512.797V188.458C514.655 188.79 516.844 188.956 519.364 188.956C524.538 188.956 527.125 188.094 527.125 186.369C527.125 185.706 525.566 184.445 522.449 182.588L510.509 175.424C507.59 173.633 505.435 171.743 504.042 169.753C502.649 167.763 501.952 165.276 501.952 162.291C501.952 158.178 503.71 154.994 507.226 152.739C510.741 150.418 515.517 149.257 521.553 149.257C527.589 149.257 533.327 150.617 538.766 153.336V168.161H527.324V161.992C525.4 161.462 523.245 161.196 520.857 161.196C516.877 161.196 514.887 161.926 514.887 163.385C514.887 163.584 514.92 163.75 514.986 163.883C515.119 163.949 515.219 164.049 515.285 164.181C515.351 164.248 515.451 164.347 515.583 164.48C515.716 164.546 515.849 164.612 515.981 164.679C516.114 164.745 516.28 164.845 516.479 164.977C516.678 165.11 516.844 165.243 516.976 165.375C517.175 165.442 517.407 165.574 517.673 165.773C518.004 165.972 518.303 166.138 518.568 166.271L532 174.429C537.373 177.746 540.06 181.726 540.06 186.369C540.06 190.946 538.169 194.528 534.388 197.115C530.607 199.635 525.301 200.895 518.469 200.895C511.637 200.895 505.932 199.635 501.355 197.115V182.688ZM605.958 153.635C605.958 158.808 604.598 163.153 601.879 166.669C599.159 170.184 594.814 171.942 588.845 171.942C582.875 171.942 578.464 170.251 575.612 166.868C572.759 163.485 571.333 159.405 571.333 154.63C571.333 147.068 575.114 141.131 582.676 136.82C590.238 132.508 602.343 130.352 618.992 130.352H646.254V142.292H640.384L658.492 188.06H665.059V200H639.488V188.06H645.359L643.269 182.489H617.201L615.112 188.06H621.082V200H595.511V188.06H601.978L619.987 142.292H618.992C605.66 142.292 596.44 143.221 591.332 145.078C586.291 146.935 583.77 150.119 583.77 154.63C583.77 158.211 585.462 160.002 588.845 160.002C591.962 160.002 593.521 157.88 593.521 153.635H605.958ZM630.235 147.864L621.281 171.544H639.09L630.235 147.864ZM674.258 136.322H666.597V125.378H687.193V154.232C690.178 150.915 694.191 149.257 699.232 149.257C705.865 149.257 710.973 151.711 714.555 156.62C718.203 161.462 720.027 167.664 720.027 175.225C720.027 182.721 717.805 188.89 713.361 193.732C708.916 198.574 702.482 200.995 694.058 200.995C687.823 200.995 681.223 200 674.258 198.01V136.322ZM707.092 175.424C707.092 171.378 706.263 167.995 704.605 165.276C702.947 162.556 700.592 161.196 697.541 161.196C694.489 161.196 692.002 162.755 690.078 165.873C688.155 168.99 687.193 172.738 687.193 177.116V187.861C688.984 188.657 691.007 189.055 693.262 189.055C697.839 189.055 701.288 187.795 703.61 185.275C705.932 182.754 707.092 179.471 707.092 175.424ZM734.158 193.732C729.714 188.823 727.492 182.621 727.492 175.126C727.492 167.63 729.714 161.462 734.158 156.62C738.603 151.711 744.838 149.257 752.864 149.257C760.89 149.257 767.125 151.711 771.569 156.62C776.013 161.462 778.235 167.63 778.235 175.126C778.235 182.621 776.013 188.823 771.569 193.732C767.125 198.574 760.89 200.995 752.864 200.995C744.838 200.995 738.603 198.574 734.158 193.732ZM743.71 165.176C741.521 167.763 740.427 171.08 740.427 175.126C740.427 179.172 741.521 182.522 743.71 185.175C745.899 187.762 748.95 189.055 752.864 189.055C756.777 189.055 759.829 187.762 762.017 185.175C764.206 182.522 765.301 179.172 765.301 175.126C765.301 171.08 764.206 167.763 762.017 165.176C759.829 162.523 756.777 161.196 752.864 161.196C748.95 161.196 745.899 162.523 743.71 165.176ZM807.396 201.094C801.161 201.094 796.849 199.27 794.461 195.622C792.073 191.908 790.879 186.833 790.879 180.399V160.699H783.218V150.252H803.814V180.399C803.814 183.318 804.212 185.507 805.008 186.966C805.87 188.425 807.694 189.155 810.48 189.155C813.266 189.155 817.379 187.132 822.818 183.086V161.196H816.649V150.252H835.752V189.553H843.911V198.209C841.059 199.735 837.311 200.497 832.668 200.497C828.091 200.497 825.139 198.806 823.813 195.423C817.71 199.204 812.238 201.094 807.396 201.094ZM847.382 161.196V151.247L856.038 150.252C858.227 144.746 859.653 140.368 860.316 137.118H868.972V150.252H880.812V161.196H868.972V185.772C868.972 186.9 869.138 187.762 869.47 188.359C869.868 188.89 870.697 189.155 871.957 189.155C873.218 189.155 875.406 188.525 878.524 187.264L883.3 197.413C879.055 199.801 874.511 200.995 869.669 200.995C864.893 200.995 861.411 199.735 859.222 197.214C857.099 194.694 856.038 191.41 856.038 187.364V161.196H847.382ZM947.27 153.635C947.27 158.742 945.91 163.087 943.191 166.669C940.471 170.184 936.126 171.942 930.156 171.942C924.187 171.942 919.776 170.251 916.923 166.868C914.071 163.485 912.645 159.405 912.645 154.63C912.645 147.068 916.194 141.131 923.291 136.82C930.389 132.508 941.731 130.352 957.319 130.352H971.945V142.292H964.781V188.06H986.571V179.603H998.013V200H942.196V188.06H951.847V142.392C941.897 142.657 934.932 143.751 930.952 145.675C927.039 147.532 925.082 150.384 925.082 154.232C925.082 158.079 926.774 160.002 930.156 160.002C933.274 160.002 934.833 157.88 934.833 153.635H947.27ZM1011.23 193.732C1006.79 188.823 1004.57 182.621 1004.57 175.126C1004.57 167.63 1006.79 161.462 1011.23 156.62C1015.68 151.711 1021.91 149.257 1029.94 149.257C1037.96 149.257 1044.2 151.711 1048.64 156.62C1053.09 161.462 1055.31 167.63 1055.31 175.126C1055.31 182.621 1053.09 188.823 1048.64 193.732C1044.2 198.574 1037.96 200.995 1029.94 200.995C1021.91 200.995 1015.68 198.574 1011.23 193.732ZM1020.78 165.176C1018.6 167.763 1017.5 171.08 1017.5 175.126C1017.5 179.172 1018.6 182.522 1020.78 185.175C1022.97 187.762 1026.02 189.055 1029.94 189.055C1033.85 189.055 1036.9 187.762 1039.09 185.175C1041.28 182.522 1042.38 179.172 1042.38 175.126C1042.38 171.08 1041.28 167.763 1039.09 165.176C1036.9 162.523 1033.85 161.196 1029.94 161.196C1026.02 161.196 1022.97 162.523 1020.78 165.176ZM1060.29 161.196V150.252H1083.87V161.196H1080.59L1087.95 182.787L1095.32 161.196H1092.03V150.252H1115.61V161.196H1109.44L1095.12 200H1080.79L1066.46 161.196H1060.29ZM1167.17 174.728V180.001H1133.54C1133.74 182.654 1134.83 184.843 1136.82 186.568C1138.88 188.226 1141.27 189.055 1143.99 189.055C1146.71 189.055 1148.99 188.856 1150.85 188.458C1152.77 188.06 1154.1 187.696 1154.83 187.364C1155.63 187.032 1156.79 186.435 1158.31 185.573L1160.7 184.28L1165.88 194.329C1160.44 198.773 1153.67 200.995 1145.58 200.995C1137.49 200.995 1131.28 198.574 1126.97 193.732C1122.73 188.823 1120.6 182.621 1120.6 175.126C1120.6 167.63 1122.73 161.462 1126.97 156.62C1131.28 151.711 1137.12 149.257 1144.48 149.257C1151.91 149.257 1157.55 151.645 1161.4 156.421C1165.25 161.196 1167.17 167.299 1167.17 174.728ZM1154.23 169.952C1153.97 167.299 1153.04 165.176 1151.45 163.584C1149.92 161.992 1147.7 161.196 1144.78 161.196C1141.93 161.196 1139.54 162.026 1137.62 163.684C1135.76 165.276 1134.53 167.365 1133.94 169.952H1154.23Z" fill="#2074A4"/>
<path d="M680.141 41.7492C680.141 46.5251 678.715 50.6044 675.862 53.9873C673.01 57.3702 668.599 59.0616 662.629 59.0616C656.66 59.0616 652.315 57.3039 649.595 53.7883C646.876 50.2064 645.516 45.8618 645.516 40.7543H657.953C657.953 44.9995 659.512 47.122 662.629 47.122C665.017 47.122 666.211 45.3311 666.211 41.7492C666.211 39.096 665.183 36.9402 663.127 35.282C661.071 33.6237 658.716 32.7946 656.063 32.7946C650.027 32.7946 645.184 35.0166 641.536 39.4608C637.954 43.8387 636.163 49.4105 636.163 56.1762C636.163 62.942 637.954 68.547 641.536 72.9911C645.184 77.369 650.226 79.5579 656.66 79.5579C663.094 79.5579 669.03 76.7057 674.47 71.0012L682.031 80.4534C675.862 88.1478 667.405 91.995 656.66 91.995C645.98 91.995 637.656 88.7116 631.686 82.1448C625.716 75.5117 622.731 66.9218 622.731 56.3752C622.731 45.8286 625.716 37.2056 631.686 30.5061C637.656 23.7404 645.781 20.3575 656.063 20.3575C662.497 20.3575 668.102 22.3474 672.878 26.3273C677.72 30.3071 680.141 35.4478 680.141 41.7492ZM716.709 84.5327C712.596 89.5076 708.019 91.995 702.978 91.995C697.937 91.995 693.99 90.7015 691.138 88.1146C688.286 85.5277 686.86 81.9127 686.86 77.2695C686.86 72.56 688.717 68.5801 692.432 65.3299C696.146 62.0797 701.619 60.4546 708.849 60.4546H716.709V56.8727C716.709 53.7551 714.752 52.1964 710.839 52.1964C706.925 52.1964 703.443 52.6275 700.391 53.4898V59.1611H688.949V44.3361C692.2 43.0759 695.98 42.0809 700.292 41.3513C704.67 40.6216 708.318 40.2568 711.237 40.2568C717.007 40.2568 721.518 41.7824 724.768 44.8336C728.018 47.8185 729.643 51.8315 729.643 56.8727V80.5529H737.802V89.2091C734.95 90.7347 731.368 91.4975 727.056 91.4975C720.158 91.4975 716.709 89.1759 716.709 84.5327ZM703.874 80.0554C708.451 80.0554 712.729 77.3358 716.709 71.8967V71.4987H708.749C705.698 71.4987 703.443 72.0293 701.983 73.0906C700.524 74.1519 699.794 75.578 699.794 77.369C699.794 79.1599 701.154 80.0554 703.874 80.0554ZM741.26 52.1964V42.2467L749.917 41.2518C752.106 35.7463 753.532 31.3684 754.195 28.1182H762.851V41.2518H774.691V52.1964H762.851V76.772C762.851 77.8996 763.017 78.7619 763.349 79.3589C763.747 79.8896 764.576 80.1549 765.836 80.1549C767.096 80.1549 769.285 79.5247 772.403 78.2644L777.179 88.4131C772.933 90.801 768.39 91.995 763.548 91.995C758.772 91.995 755.289 90.7347 753.101 88.2141C750.978 85.6935 749.917 82.4101 749.917 78.3639V52.1964H741.26ZM829.749 65.7279V71.0012H796.12C796.319 73.6544 797.413 75.8434 799.403 77.568C801.459 79.2262 803.847 80.0554 806.567 80.0554C809.286 80.0554 811.575 79.8564 813.432 79.4584C815.356 79.0604 816.682 78.6956 817.412 78.3639C818.208 78.0323 819.369 77.4353 820.894 76.573L823.282 75.2796L828.456 85.3287C823.017 89.7729 816.251 91.995 808.159 91.995C800.066 91.995 793.864 89.5739 789.553 84.7317C785.308 79.8232 783.185 73.6213 783.185 66.1259C783.185 58.6305 785.308 52.4617 789.553 47.6195C793.864 42.711 799.701 40.2568 807.064 40.2568C814.493 40.2568 820.131 42.6447 823.979 47.4205C827.826 52.1964 829.749 58.2988 829.749 65.7279ZM816.815 60.9521C816.55 58.2988 815.621 56.1762 814.029 54.5843C812.503 52.9923 810.281 52.1964 807.363 52.1964C804.51 52.1964 802.123 53.0255 800.199 54.6838C798.342 56.2757 797.115 58.3652 796.518 60.9521H816.815ZM855.838 80.0554H864.494V91H835.242V80.0554H842.903V52.1964H835.242V41.2518H852.853L854.345 46.1271C860.58 42.2136 866.218 40.2568 871.26 40.2568C877.495 40.2568 881.806 42.0809 884.194 45.7291C886.582 49.3773 887.776 54.4185 887.776 60.8526V80.5529H895.935V89.2091C893.083 90.7347 889.633 91.4975 885.587 91.4975C881.541 91.4975 878.722 90.602 877.13 88.8111C875.604 87.0201 874.841 84.1016 874.841 80.0554V60.8526C874.841 57.934 874.443 55.7782 873.648 54.3853C872.852 52.926 870.994 52.1964 868.076 52.1964C865.157 52.1964 861.078 54.1863 855.838 58.1662V80.0554ZM947.439 65.7279V71.0012H913.809C914.008 73.6544 915.103 75.8434 917.093 77.568C919.149 79.2262 921.537 80.0554 924.256 80.0554C926.976 80.0554 929.264 79.8564 931.122 79.4584C933.045 79.0604 934.372 78.6956 935.101 78.3639C935.897 78.0323 937.058 77.4353 938.584 76.573L940.972 75.2796L946.145 85.3287C940.706 89.7729 933.941 91.995 925.848 91.995C917.756 91.995 911.554 89.5739 907.242 84.7317C902.997 79.8232 900.875 73.6213 900.875 66.1259C900.875 58.6305 902.997 52.4617 907.242 47.6195C911.554 42.711 917.391 40.2568 924.754 40.2568C932.183 40.2568 937.821 42.6447 941.668 47.4205C945.515 52.1964 947.439 58.2988 947.439 65.7279ZM934.504 60.9521C934.239 58.2988 933.31 56.1762 931.719 54.5843C930.193 52.9923 927.971 52.1964 925.052 52.1964C922.2 52.1964 919.812 53.0255 917.888 54.6838C916.031 56.2757 914.804 58.3652 914.207 60.9521H934.504ZM983.775 84.5327C979.663 89.5076 975.086 91.995 970.045 91.995C965.004 91.995 961.057 90.7015 958.205 88.1146C955.353 85.5277 953.926 81.9127 953.926 77.2695C953.926 72.56 955.784 68.5801 959.498 65.3299C963.213 62.0797 968.685 60.4546 975.915 60.4546H983.775V56.8727C983.775 53.7551 981.819 52.1964 977.905 52.1964C973.992 52.1964 970.509 52.6275 967.458 53.4898V59.1611H956.016V44.3361C959.266 43.0759 963.047 42.0809 967.358 41.3513C971.736 40.6216 975.384 40.2568 978.303 40.2568C984.074 40.2568 988.584 41.7824 991.835 44.8336C995.085 47.8185 996.71 51.8315 996.71 56.8727V80.5529H1004.87V89.2091C1002.02 90.7347 998.435 91.4975 994.123 91.4975C987.225 91.4975 983.775 89.1759 983.775 84.5327ZM970.94 80.0554C975.517 80.0554 979.796 77.3358 983.775 71.8967V71.4987H975.816C972.764 71.4987 970.509 72.0293 969.05 73.0906C967.591 74.1519 966.861 75.578 966.861 77.369C966.861 79.1599 968.221 80.0554 970.94 80.0554ZM1028.92 80.0554H1037.58V91H1008.33V80.0554H1015.99V52.1964H1008.33V41.2518H1025.94L1027.43 46.1271C1033.67 42.2136 1039.3 40.2568 1044.34 40.2568C1050.58 40.2568 1054.89 42.0809 1057.28 45.7291C1059.67 49.3773 1060.86 54.4185 1060.86 60.8526V80.5529H1069.02V89.2091C1066.17 90.7347 1062.72 91.4975 1058.67 91.4975C1054.63 91.4975 1051.81 90.602 1050.21 88.8111C1048.69 87.0201 1047.93 84.1016 1047.93 80.0554V60.8526C1047.93 57.934 1047.53 55.7782 1046.73 54.3853C1045.94 52.926 1044.08 52.1964 1041.16 52.1964C1038.24 52.1964 1034.16 54.1863 1028.92 58.1662V80.0554ZM1074.46 73.6876H1085.9V79.4584C1087.76 79.7901 1089.95 79.9559 1092.47 79.9559C1097.64 79.9559 1100.23 79.0936 1100.23 77.369C1100.23 76.7057 1098.67 75.4454 1095.55 73.5881L1083.61 66.4244C1080.69 64.6334 1078.54 62.743 1077.14 60.7531C1075.75 58.7631 1075.05 56.2757 1075.05 53.2908C1075.05 49.1783 1076.81 45.9944 1080.33 43.7392C1083.84 41.4176 1088.62 40.2568 1094.65 40.2568C1100.69 40.2568 1106.43 41.6166 1111.87 44.3361V59.1611H1100.43V52.9923C1098.5 52.4617 1096.35 52.1964 1093.96 52.1964C1089.98 52.1964 1087.99 52.926 1087.99 54.3853C1087.99 54.5843 1088.02 54.7501 1088.09 54.8828C1088.22 54.9491 1088.32 55.0486 1088.39 55.1813C1088.45 55.2476 1088.55 55.3471 1088.69 55.4798C1088.82 55.5461 1088.95 55.6124 1089.08 55.6787C1089.22 55.7451 1089.38 55.8446 1089.58 55.9772C1089.78 56.1099 1089.95 56.2426 1090.08 56.3752C1090.28 56.4416 1090.51 56.5742 1090.77 56.7732C1091.11 56.9722 1091.4 57.138 1091.67 57.2707L1105.1 65.4294C1110.47 68.746 1113.16 72.7258 1113.16 77.369C1113.16 81.9458 1111.27 85.5277 1107.49 88.1146C1103.71 90.6352 1098.4 91.8955 1091.57 91.8955C1084.74 91.8955 1079.03 90.6352 1074.46 88.1146V73.6876Z" fill="#F08F68"/>
<path opacity="0.5" d="M818.235 106.823C810.336 109.24 802.485 111.568 794.79 114.017C781.285 118.312 766.993 118.461 752.269 115.965C741.699 114.175 732.587 111.244 725.144 107.13C723.716 106.34 722.221 105.58 720.462 104.649C717.209 105.504 714.22 106.247 711.315 107.06C704.04 109.099 696.939 111.299 689.52 113.204C671.369 117.858 652.635 117.75 633.818 114.295C629.97 113.59 626.333 112.417 623.115 111.15C621.069 110.343 619.514 109.049 618.554 107.824C617.119 105.995 618.62 104.152 621.363 103.479C624.382 102.739 629.724 103.19 631.885 104.418C632.659 104.857 633.205 105.39 633.848 105.884C639.31 110.091 648.308 111.975 658.085 110.512C663.758 109.664 669.166 108.318 674.448 106.961C682.047 105.009 689.346 102.783 696.903 100.794C703.295 99.1084 710.102 98.0552 717.497 98.0026C729.502 97.9206 739.778 99.8018 748.319 103.991C752.389 105.986 756.867 107.789 761.201 109.655C763.92 110.828 766.783 110.872 769.976 109.994C776.411 108.224 782.941 106.528 789.454 104.828C793.854 103.681 798.157 102.4 802.761 101.487C816.357 98.7925 829.016 99.8398 840.474 104.228C843.926 105.548 847.029 107.083 850.27 108.532C851.891 109.257 853.475 110 855.054 110.743C861.08 113.584 867.353 114.623 875.39 112.309C882.245 110.337 889.616 108.736 897.017 107.285C903.83 105.948 910.846 104.629 918.025 104.023C929.376 103.07 940.54 104.178 950.366 107.089C961.092 110.266 971.495 110.316 982.935 108.119C992.371 106.305 1002.2 104.866 1012.09 103.76C1024.89 102.327 1037.12 103.415 1048.24 106.99C1053.07 108.543 1058.01 110.027 1062.89 111.539C1067.05 112.823 1071.33 113.037 1076.04 112.197C1080.73 111.361 1085.57 110.729 1090.37 110.059C1094.67 109.459 1099.05 109.228 1103.33 110.044C1107.77 110.893 1108.24 112.352 1104.23 113.602C1088.73 118.446 1072.38 120.74 1054.15 117.469C1044.66 115.767 1036.04 113.335 1028.1 110.351C1025.17 109.251 1022.54 109.087 1019.33 109.74C1013.98 110.825 1008.54 111.808 1003.24 112.94C978.661 118.186 954.964 117.288 932.167 110.527C929.082 109.611 926.375 109.409 923.223 110.214C920.396 110.936 917.485 111.586 914.634 112.291C907.155 114.149 899.712 116.039 892.209 117.876C880.726 120.687 868.83 120.877 856.621 119.184C845.24 117.607 835.234 114.898 826.831 110.808C824.154 109.506 821.357 108.26 818.241 106.814L818.235 106.823Z" fill="#F08F68"/>
<path d="M623.773 12.0291C620.785 14.2805 622.646 29.7988 627.307 40.8129L648.238 24.6926C640.3 16.723 626.76 9.77766 623.773 12.0291Z" fill="#F08F68"/>
<path d="M682.139 11.241C685.203 13.3868 683.885 28.9605 679.611 40.1306L658.13 24.7506C665.786 16.5087 679.074 9.09516 682.139 11.241Z" fill="#F08F68"/>
</svg>
