<svg width="73" height="59" viewBox="0 0 73 59" fill="none" xmlns="http://www.w3.org/2000/svg">
<g filter="url(#filter0_d_5408_4892)">
<mask id="path-1-inside-1_5408_4892" fill="white">
<path d="M36.6445 2.34668C39.3012 0.554078 42.8818 2.45726 42.8818 5.66211C42.8818 8.54003 45.2149 10.873 48.0928 10.873H64.5996C66.8087 10.873 68.5996 12.6639 68.5996 14.873V38.5576C68.5996 40.7667 66.8087 42.5576 64.5996 42.5576H47.6631C45.0225 42.5576 42.8818 44.6983 42.8818 47.3389C42.8817 50.5436 39.3011 52.4468 36.6445 50.6543L5.7627 29.8164C3.41252 28.2306 3.41252 24.7704 5.7627 23.1846L36.6445 2.34668Z"/>
</mask>
<path d="M36.6445 2.34668C39.3012 0.554078 42.8818 2.45726 42.8818 5.66211C42.8818 8.54003 45.2149 10.873 48.0928 10.873H64.5996C66.8087 10.873 68.5996 12.6639 68.5996 14.873V38.5576C68.5996 40.7667 66.8087 42.5576 64.5996 42.5576H47.6631C45.0225 42.5576 42.8818 44.6983 42.8818 47.3389C42.8817 50.5436 39.3011 52.4468 36.6445 50.6543L5.7627 29.8164C3.41252 28.2306 3.41252 24.7704 5.7627 23.1846L36.6445 2.34668Z" fill="#FFFFEC"/>
<path d="M36.6445 2.34668L34.4072 -0.969083L34.4072 -0.969081L36.6445 2.34668ZM42.8818 5.66211L46.8818 5.66211L46.8818 5.66203L42.8818 5.66211ZM68.5996 38.5576L72.5996 38.5577V38.5576H68.5996ZM42.8818 47.3389L46.8818 47.3391V47.3389H42.8818ZM36.6445 50.6543L34.4072 53.9701L34.4073 53.9701L36.6445 50.6543ZM5.7627 29.8164L3.52533 33.1322L3.52535 33.1322L5.7627 29.8164ZM5.7627 23.1846L3.52535 19.8688L3.52533 19.8688L5.7627 23.1846ZM36.6445 2.34668L38.8819 5.66244C38.8933 5.65475 38.9001 5.65128 38.9022 5.65027C38.9043 5.64925 38.9034 5.64981 38.9 5.65093C38.8965 5.65203 38.892 5.6532 38.8868 5.6541C38.8816 5.65499 38.8769 5.65543 38.8728 5.65557C38.8647 5.65584 38.8619 5.65482 38.8646 5.65547C38.8678 5.65621 38.8742 5.65825 38.882 5.66239C38.8898 5.66653 38.895 5.67068 38.8974 5.67286C38.8994 5.67476 38.897 5.67301 38.8927 5.66607C38.8905 5.66262 38.8882 5.65841 38.886 5.65362C38.8839 5.64877 38.8823 5.64434 38.8813 5.64086C38.8803 5.63732 38.8803 5.6363 38.8806 5.6386C38.8809 5.64086 38.8818 5.64844 38.8818 5.66219L42.8818 5.66211L46.8818 5.66203C46.8817 -0.748096 39.7201 -4.55406 34.4072 -0.969083L36.6445 2.34668ZM48.0928 10.873V14.873H64.5996V10.873V6.87305H48.0928V10.873ZM64.5996 10.873V14.873H68.5996H72.5996C72.5996 10.4548 69.0179 6.87305 64.5996 6.87305V10.873ZM68.5996 14.873H64.5996V38.5576H68.5996H72.5996V14.873H68.5996ZM68.5996 38.5576L64.5996 38.5576L64.5996 38.5576V42.5576V46.5576C69.0179 46.5576 72.5996 42.9758 72.5996 38.5577L68.5996 38.5576ZM64.5996 42.5576V38.5576H47.6631V42.5576V46.5576H64.5996V42.5576ZM42.8818 47.3389L38.8818 47.3387C38.8818 47.3524 38.8809 47.36 38.8806 47.3622C38.8803 47.3645 38.8803 47.3635 38.8813 47.36C38.8823 47.3565 38.8839 47.3521 38.886 47.3472C38.8882 47.3424 38.8905 47.3382 38.8927 47.3348C38.897 47.3279 38.8994 47.3261 38.8974 47.328C38.895 47.3302 38.8897 47.3344 38.8819 47.3385C38.8741 47.3427 38.8677 47.3447 38.8646 47.3454C38.8618 47.3461 38.8646 47.3451 38.8727 47.3453C38.8768 47.3455 38.8815 47.3459 38.8867 47.3468C38.8919 47.3477 38.8964 47.3489 38.8999 47.35C38.9034 47.3511 38.9042 47.3517 38.9021 47.3507C38.9 47.3496 38.8932 47.3462 38.8818 47.3385L36.6445 50.6543L34.4073 53.9701C39.7202 57.5549 46.8815 53.7489 46.8818 47.3391L42.8818 47.3389ZM36.6445 50.6543L38.8819 47.3385L8.00004 26.5006L5.7627 29.8164L3.52535 33.1322L34.4072 53.9701L36.6445 50.6543ZM5.7627 29.8164L8.00006 26.5007L8.00006 26.5003L5.7627 23.1846L3.52533 19.8688C-1.17503 23.0405 -1.17502 29.9605 3.52533 33.1322L5.7627 29.8164ZM5.7627 23.1846L8.00004 26.5003L38.8819 5.66244L36.6445 2.34668L34.4072 -0.969081L3.52535 19.8688L5.7627 23.1846ZM47.6631 42.5576V38.5576C42.8133 38.5576 38.8818 42.4891 38.8818 47.3389H42.8818H46.8818C46.8818 46.9074 47.2316 46.5576 47.6631 46.5576V42.5576ZM42.8818 5.66211H38.8818C38.8818 10.7492 43.0057 14.873 48.0928 14.873V10.873V6.87305C47.424 6.87305 46.8818 6.33089 46.8818 5.66211H42.8818Z" fill="#9A5858" fill-opacity="0.9" mask="url(#path-1-inside-1_5408_4892)"/>
</g>
<defs>
<filter id="filter0_d_5408_4892" x="0" y="0.655273" width="72.6016" height="57.6904" filterUnits="userSpaceOnUse" color-interpolation-filters="sRGB">
<feFlood flood-opacity="0" result="BackgroundImageFix"/>
<feColorMatrix in="SourceAlpha" type="matrix" values="0 0 0 0 0 0 0 0 0 0 0 0 0 0 0 0 0 0 127 0" result="hardAlpha"/>
<feOffset dy="3"/>
<feGaussianBlur stdDeviation="2"/>
<feComposite in2="hardAlpha" operator="out"/>
<feColorMatrix type="matrix" values="0 0 0 0 0 0 0 0 0 0 0 0 0 0 0 0 0 0 0.25 0"/>
<feBlend mode="normal" in2="BackgroundImageFix" result="effect1_dropShadow_5408_4892"/>
<feBlend mode="normal" in="SourceGraphic" in2="effect1_dropShadow_5408_4892" result="shape"/>
</filter>
</defs>
</svg>
