<svg width="84" height="76" viewBox="0 0 84 76" fill="none" xmlns="http://www.w3.org/2000/svg">
<path d="M12.8148 0.93743C12.976 1.15279 12.5308 1.75332 11.8206 2.27901C11.1105 2.8047 10.4039 3.05572 10.2425 2.84071C10.0811 2.62571 10.5266 2.02482 11.2367 1.49913C11.9468 0.973441 12.6534 0.72207 12.8148 0.93743Z" fill="#3B756C"/>
<path d="M6.32759 50.9396L6.17029 50.8589C6.11981 50.8299 6.07936 50.7863 6.05426 50.734C6.02916 50.6816 6.02059 50.623 6.02968 50.5657C6.09058 49.7803 6.09945 47.8119 4.87429 46.4998C3.64007 45.1784 3.58788 43.2341 3.54279 41.5178C3.53338 41.17 3.52503 40.8417 3.50728 40.5269C3.43183 39.2256 3.18772 39.063 2.37941 38.5245C2.1353 38.3619 1.83153 38.1596 1.48197 37.8881C-0.257865 36.5386 -0.0980841 30.4855 0.155612 28.4333C0.599448 24.8555 1.26023 22.4844 2.12056 21.3838C3.39881 19.7495 3.99088 18.4062 3.83696 18.1989C3.82147 18.1932 3.80517 18.19 3.78867 18.1894C2.7279 18.1084 2.7927 17.1382 2.82377 16.6713C2.82892 16.5952 2.83389 16.5257 2.83389 16.4667C2.83389 16.016 3.64203 14.1493 3.88986 13.5878C5.7561 9.37343 11.1349 2.8085 11.189 2.74265L11.4667 2.40479L11.6399 2.80567C15.0926 10.801 17.5586 12.0239 19.5411 13.0075C19.7259 13.0993 19.907 13.1892 20.0845 13.2819L20.3393 13.415L20.1863 13.6573C18.0008 17.1126 12.196 21.2733 11.1812 21.4837L11.0905 21.5024L11.1082 21.5165L11.1998 21.5857C11.6763 21.9434 12.3288 22.433 12.3659 23.8346C12.3985 25.0703 10.4561 27.6652 8.57765 30.1765C8.24495 30.6213 7.92273 31.0518 7.62767 31.4545C6.07513 33.5728 6.44405 33.9733 7.0553 34.636C7.11957 34.7055 7.18561 34.7772 7.25218 34.8529C8.10435 35.8206 8.10311 36.0247 7.23674 39.2191C6.57986 41.6419 6.74639 42.33 7.07838 43.7003C7.17354 44.0924 7.28112 44.537 7.38551 45.0883C7.81159 47.3365 6.77249 50.6225 6.46464 50.842L6.32759 50.9396ZM11.3271 3.41786C10.2056 4.81399 5.9727 10.1983 4.3756 13.8019C3.88951 14.9036 3.36472 16.2363 3.36472 16.4674C3.36472 16.5363 3.35939 16.618 3.35353 16.7071C3.31039 17.3513 3.36685 17.6261 3.82773 17.6614C3.9332 17.6639 4.03584 17.6959 4.12379 17.7538C4.21175 17.8118 4.28144 17.8932 4.32482 17.9889C4.72108 18.8798 2.76412 21.4219 2.53972 21.7089C1.7504 22.718 1.10826 25.0657 0.68271 28.4981C0.497303 30.1929 0.476495 31.9016 0.620573 33.6005C0.801303 35.6422 1.22312 37.0166 1.80828 37.4706C2.14257 37.7303 2.42521 37.9183 2.67429 38.0846C3.57971 38.6874 3.95023 38.9921 4.03757 40.4964C4.05639 40.8193 4.06527 41.1518 4.07468 41.5038C4.11817 43.1257 4.16753 44.9637 5.26416 46.1395C6.11348 47.049 6.4334 48.2211 6.53814 49.1837C6.82859 48.0892 7.11051 46.4938 6.8625 45.1854C6.76059 44.6472 6.6546 44.2098 6.56069 43.8235C6.21858 42.4113 6.03004 41.6346 6.7226 39.0803C7.55701 36.003 7.53073 35.9735 6.85131 35.201C6.78775 35.1287 6.72438 35.0598 6.66277 34.9931C5.87221 34.1364 5.47524 33.4926 7.19715 31.1422C7.49327 30.738 7.81657 30.3058 8.15033 29.8598C9.8037 27.6499 11.8608 24.8994 11.8335 23.8477C11.8031 22.7015 11.3122 22.3328 10.879 22.0078L10.7835 21.9356C10.6983 21.8705 10.622 21.8191 10.56 21.7767C10.3993 21.6687 10.2333 21.5571 10.2749 21.3476C10.3202 21.1195 10.4945 21.0828 11.0718 20.9637C11.8475 20.803 17.3033 16.9848 19.5757 13.6162C19.4855 13.5708 19.3943 13.5258 19.3021 13.4801C17.2779 12.4762 14.7658 11.2305 11.3271 3.41786Z" fill="#3B756C"/>
<path d="M3.62744 40.2969C3.62744 40.2969 4.85331 42.3047 5.50238 43.165C6.15144 44.0254 7.23316 45.7464 7.23316 45.7464L7.01675 48.1842C7.01675 48.1842 6.87259 46.3917 6.00711 45.8187C5.14163 45.2457 3.91593 44.6713 3.91593 44.3846C3.91593 44.098 3.62744 40.2969 3.62744 40.2969Z" fill="#3B756C"/>
<path d="M72.5874 12.1081C72.3397 11.7509 72.0504 11.4241 71.7257 11.1344C71.5717 10.9809 71.3676 10.8873 71.1503 10.8706C70.983 10.8698 70.8164 10.8928 70.6556 10.9389C70.3936 11.0102 70.1643 11.1691 70.0064 11.3889C69.9207 11.5307 69.8648 11.6882 69.8421 11.8521C69.8194 12.0159 69.8303 12.1826 69.8741 12.3421C69.9701 12.7242 70.1719 13.0719 70.4566 13.3457C70.7062 13.6173 71.03 13.8107 71.3883 13.9021C71.592 13.943 71.8029 13.9286 71.999 13.8602C72.195 13.7919 72.3689 13.6722 72.5022 13.5137C72.8395 13.0947 72.8134 12.5736 72.5874 12.1081C72.5335 12.0176 72.4458 11.9519 72.3435 11.9252C72.2412 11.8985 72.1324 11.913 72.0408 11.9656C71.9514 12.0207 71.8866 12.1078 71.86 12.2089C71.8333 12.3101 71.8467 12.4175 71.8975 12.5091C71.9027 12.5195 71.9298 12.5797 71.9044 12.5185C71.9113 12.5353 71.9174 12.5524 71.9232 12.5695C71.9367 12.6076 71.948 12.6465 71.9572 12.6858C71.9664 12.7262 71.9627 12.7769 71.9632 12.7075C71.9632 12.7474 71.965 12.7882 71.9657 12.8283C71.9657 12.8989 71.9872 12.7559 71.9625 12.85C71.9536 12.876 71.9462 12.9025 71.9401 12.9293C71.9328 12.9796 71.9767 12.8659 71.9499 12.909C71.943 12.9199 71.9382 12.933 71.9321 12.9443C71.9261 12.9556 71.9185 12.9667 71.9121 12.9781C71.8714 13.0511 71.9231 12.9781 71.9213 12.9723C71.924 12.9799 71.8751 13.0235 71.868 13.03C71.8707 13.0274 71.8311 13.0662 71.8295 13.0654C71.8249 13.0622 71.8989 13.0226 71.8588 13.0433C71.832 13.0572 71.8077 13.0775 71.7809 13.0922C71.7697 13.0984 71.7562 13.1031 71.7454 13.1098C71.7077 13.1347 71.8341 13.0825 71.7542 13.1056C71.7281 13.1132 71.7026 13.122 71.6761 13.1285C71.6694 13.1301 71.6229 13.1391 71.6229 13.1397C71.6239 13.133 71.7068 13.1379 71.6687 13.1333C71.6422 13.1317 71.6157 13.1317 71.5893 13.1333C71.5275 13.1333 71.6754 13.1541 71.5893 13.1333C71.5604 13.1261 71.5316 13.1195 71.5032 13.1107C71.4879 13.106 71.3951 13.0678 71.4499 13.0931C71.5048 13.1183 71.4219 13.0784 71.4088 13.0717C71.3742 13.0539 71.3403 13.0349 71.307 13.0145C71.2768 12.9969 71.2474 12.9767 71.2183 12.9564C71.1891 12.9361 71.1485 12.8996 71.2005 12.9441C71.14 12.8911 71.0789 12.8405 71.023 12.7833C70.9731 12.733 70.9269 12.6796 70.8809 12.6255C70.9307 12.6849 70.8712 12.6112 70.8554 12.5886C70.8306 12.5533 70.8073 12.517 70.7853 12.4798C70.75 12.4206 70.7182 12.3594 70.6901 12.2966C70.7224 12.3672 70.6912 12.2939 70.6805 12.2613C70.6699 12.2286 70.6599 12.1937 70.6517 12.1593C70.6487 12.1465 70.6235 12.0357 70.6372 12.0952C70.6498 12.1501 70.6345 12.0599 70.6336 12.0387C70.6324 12.0136 70.6322 11.9884 70.6336 11.9631C70.6336 11.9472 70.6358 11.9315 70.6365 11.9157C70.6386 11.8556 70.6386 11.9478 70.6308 11.9541C70.6411 11.9458 70.643 11.8971 70.6475 11.8818C70.6624 11.8299 70.6928 11.8256 70.6375 11.8927C70.6645 11.8588 70.6866 11.8213 70.7031 11.7813C70.6975 11.8166 70.6352 11.8544 70.6922 11.8014C70.7048 11.7898 70.7178 11.778 70.73 11.7661C70.786 11.7104 70.6608 11.8081 70.7102 11.7813C70.7297 11.7705 70.748 11.7566 70.7675 11.746C70.7822 11.7377 70.7973 11.7307 70.8122 11.7227C70.8833 11.6851 70.7723 11.7367 70.7851 11.7329C70.8238 11.7218 70.8609 11.7061 70.8999 11.6959C70.9319 11.6874 70.9642 11.6802 70.9965 11.6743C71.0127 11.6713 71.0304 11.6705 71.046 11.666C71.0203 11.6733 70.9307 11.6786 70.9995 11.6728C71.0478 11.6687 71.0959 11.6646 71.1444 11.6645C71.2369 11.6645 71.1622 11.666 71.1105 11.6563C71.1726 11.6682 71.0345 11.6119 71.075 11.6413C71.0881 11.6507 71.1043 11.6574 71.1181 11.6659C71.1359 11.677 71.1536 11.6908 71.1714 11.7012C71.2041 11.7209 71.1275 11.6659 71.13 11.6689C71.1425 11.6811 71.156 11.6921 71.1705 11.7019C71.3578 11.8662 71.5301 12.0468 71.6854 12.2413C71.7503 12.319 71.8135 12.3983 71.8766 12.4777C71.9103 12.5202 71.8077 12.3879 71.8551 12.4503C71.8631 12.4608 71.8711 12.471 71.8789 12.4814C71.8867 12.4918 71.8924 12.4991 71.8989 12.5081C71.9542 12.597 72.0418 12.6615 72.1436 12.688C72.2453 12.7145 72.3535 12.7011 72.4456 12.6505C72.5356 12.5963 72.6008 12.5093 72.6273 12.4079C72.6538 12.3066 72.6395 12.199 72.5874 12.1081V12.1081Z" fill="#3B756C"/>
<path d="M11.993 1.02772C11.993 1.23099 11.9324 1.42969 11.8188 1.5987C11.7052 1.7677 11.5438 1.89943 11.3549 1.97722C11.1661 2.055 10.9582 2.07536 10.7577 2.0357C10.5572 1.99605 10.3731 1.89816 10.2285 1.75443C10.084 1.6107 9.98552 1.42758 9.94564 1.22822C9.90576 1.02886 9.92623 0.822223 10.0045 0.634431C10.0827 0.446639 10.2152 0.28613 10.3851 0.173202C10.5551 0.0602746 10.755 1.51667e-08 10.9594 1.51667e-08C11.0951 -2.31734e-05 11.2295 0.0265438 11.355 0.0781835C11.4804 0.129823 11.5943 0.205524 11.6903 0.300961C11.7863 0.396399 11.8624 0.509704 11.9144 0.634403C11.9663 0.759103 11.993 0.892754 11.993 1.02772V1.02772Z" fill="#3B756C"/>
<path d="M53.5561 23.1878C53.8151 23.4361 53.9869 23.7606 54.0462 24.1135L71.8226 2.55724L70.2361 1.19482L52.5732 22.6999C52.9423 22.7619 53.2845 22.9317 53.5561 23.1878V23.1878Z" fill="#3B756C"/>
<path d="M0.7435 25.8125C0.7435 25.8125 2.54636 28.1073 3.33958 29.8996C4.1328 31.6918 6.58473 34.7037 6.58473 34.7037L7.52211 35.6359L7.59436 36.8548C7.59436 36.8548 6.51265 36.2094 5.50301 35.5642C4.49338 34.919 3.98865 34.0585 3.33958 33.1988C2.69052 32.3391 1.82521 31.5497 0.23877 30.761C0.30582 29.1028 0.474376 27.4503 0.7435 25.8125V25.8125Z" fill="#3B756C"/>
<path d="M80.3743 53.7358L79.8772 53.5708C79.8896 53.4892 81.0901 45.3753 79.1403 41.9823C78.3444 40.5976 77.2841 39.2501 76.2591 37.947C74.6776 35.9369 73.312 34.2009 73.312 32.8165C73.3358 31.866 73.4608 30.9208 73.6848 29.9965C73.8725 29.1052 74.0344 28.3352 73.895 27.7112C73.8122 27.3522 73.7107 26.9978 73.5909 26.6492C73.3724 25.9811 73.1245 25.2242 72.8808 23.3862C72.4969 20.4847 72.2638 19.3046 70.3243 19.2425C67.9819 19.1673 66.5124 18.6342 62.2727 13.8468L62.0386 13.582L62.359 13.432C62.3956 13.4143 66.0437 11.6814 67.9972 8.81447C71.0671 4.30834 71.2198 2.91097 71.221 2.89738L71.2895 2.10938L71.7122 2.77505C72.7347 4.39748 75.7245 8.61976 77.2651 8.67431L77.2891 8.67519C79.455 8.75198 79.8811 8.87131 80.4746 12.1908C80.5989 12.8835 80.7365 13.7601 80.8964 14.7753C81.4823 18.4968 82.2856 23.5936 83.3619 25.8676C84.1091 27.4466 83.4233 29.7407 82.8424 31.3289L82.8229 31.3819C81.4612 35.0246 82.5674 37.4116 83.1069 38.2689C84.3727 40.2829 84.2928 43.5064 82.8692 47.85C82.1943 49.874 81.3601 51.842 80.3743 53.7358V53.7358ZM62.9016 13.7543C66.8428 18.1683 68.1534 18.643 70.3417 18.7132C72.8108 18.7923 73.0491 20.5923 73.4096 23.3173C73.6465 25.1066 73.8861 25.8392 74.0976 26.4854C74.2228 26.85 74.3288 27.2209 74.415 27.5965C74.5794 28.3319 74.4065 29.1536 74.2064 30.1051C73.9904 30.9937 73.8691 31.9025 73.8444 32.8165C73.8444 34.0184 75.221 35.7681 76.6784 37.6206C77.7154 38.9387 78.7877 40.3014 79.6026 41.7196C81.1253 44.3689 80.8512 49.513 80.592 52.0984C81.9913 49.1118 84.862 42.061 82.6549 38.5496C82.0744 37.6259 80.8796 35.0604 82.324 31.1974L82.3417 31.1485C82.6578 30.2846 83.62 27.6558 82.8798 26.0935C81.7713 23.7511 80.9614 18.6109 80.3702 14.8578C80.2104 13.8454 80.073 12.9713 79.9502 12.2842C79.4131 9.28085 79.2104 9.27361 77.2694 9.20494H77.2454C76.3263 9.17246 75.0341 8.11614 73.4043 6.06599C72.6354 5.09899 71.9663 4.12669 71.5876 3.55934C71.3036 4.36412 70.5334 6.03633 68.4373 9.11297C66.7225 11.6297 63.8556 13.2592 62.9016 13.7543Z" fill="#3B756C"/>
<path d="M70.5356 1.09901C70.5356 1.30228 70.5963 1.50098 70.7098 1.66999C70.8234 1.83899 70.9848 1.97072 71.1737 2.04851C71.3626 2.12629 71.5704 2.14664 71.7709 2.10699C71.9714 2.06733 72.1556 1.96945 72.3001 1.82572C72.4447 1.68199 72.5431 1.49887 72.583 1.29951C72.6229 1.10015 72.6024 0.893512 72.5242 0.70572C72.4459 0.517928 72.3135 0.35742 72.1435 0.244492C71.9735 0.131564 71.7737 0.0712891 71.5693 0.0712891C71.2951 0.0713359 71.0323 0.179629 70.8384 0.372354C70.6446 0.56508 70.5357 0.826458 70.5356 1.09901V1.09901Z" fill="#3B756C"/>
<path d="M8.96357 6.09521C8.96357 6.09521 10.9828 12.1901 10.4779 21.2962C10.936 21.7039 11.3472 22.1609 11.704 22.6587C11.479 22.4375 11.2059 22.2707 10.9058 22.1713C10.6057 22.0718 10.2866 22.0423 9.97321 22.085C8.89149 22.2285 8.02619 22.7303 7.88185 20.651C7.73752 18.5718 8.81941 13.409 6.29541 9.8956C8.09827 7.09911 8.96357 6.09521 8.96357 6.09521Z" fill="#3B756C"/>
<path d="M67.319 10.1786C67.6829 10.7641 68.4263 11.5939 69.2063 11.306C69.4619 11.2065 69.6799 11.0303 69.83 10.8019C69.9801 10.5734 70.0548 10.3042 70.0438 10.0315C70.0001 9.58043 69.831 9.15036 69.5554 8.78948C69.3899 8.54856 69.2013 8.32425 68.9921 8.11975C68.9171 8.04526 68.8155 8.00342 68.7096 8.00342C68.6037 8.00342 68.502 8.04526 68.4271 8.11975C68.3522 8.19424 68.3101 8.29526 68.3101 8.4006C68.3101 8.50594 68.3522 8.60696 68.4271 8.68145C68.5562 8.80889 68.6774 8.94406 68.7898 9.08622C68.8403 9.14747 68.732 9.00767 68.7795 9.07316C68.7925 9.09081 68.8062 9.10846 68.8191 9.12611C68.8417 9.15671 68.8638 9.1876 68.8854 9.21879C68.9395 9.29699 68.9908 9.37766 69.038 9.45957C69.0892 9.53311 69.13 9.61329 69.1593 9.69788C69.158 9.69205 69.1238 9.60626 69.1472 9.66998C69.1556 9.69258 69.165 9.71482 69.173 9.73759C69.1891 9.78243 69.2035 9.82797 69.2157 9.87405C69.2234 9.90247 69.2566 9.98384 69.2454 10.0114C69.2523 9.99373 69.2379 9.91906 69.2404 9.97431C69.2404 9.99726 69.2445 10.02 69.2454 10.0428C69.2473 10.0846 69.2454 10.1258 69.2434 10.1674C69.241 10.2437 69.2555 10.1498 69.2482 10.1402C69.256 10.1503 69.2323 10.2162 69.2289 10.2285C69.2237 10.2462 69.217 10.2638 69.2111 10.2829C69.1953 10.3367 69.2236 10.3145 69.2211 10.2631C69.2227 10.2951 69.1724 10.3514 69.1566 10.3778C69.116 10.4485 69.1634 10.363 69.1673 10.3681C69.1514 10.3889 69.1341 10.4086 69.1154 10.4269C69.0966 10.4467 69.0771 10.4658 69.0569 10.4841C69.0391 10.5 68.9681 10.5507 69.048 10.4954C69.0268 10.5101 69.0059 10.5242 68.9841 10.538L68.9626 10.55C68.9241 10.5688 68.9344 10.5654 68.9933 10.5399C68.9591 10.5562 68.9224 10.5664 68.8846 10.5703C68.8775 10.5597 68.999 10.5703 68.9036 10.5643C68.8891 10.563 68.8745 10.5627 68.86 10.5634C68.7836 10.571 68.953 10.5899 68.8793 10.5667C68.8516 10.5579 68.8213 10.5517 68.793 10.5445C68.691 10.5184 68.8561 10.584 68.7611 10.5328C68.7227 10.5122 68.6846 10.4924 68.6476 10.4691C68.6089 10.4472 68.5722 10.4218 68.5381 10.3932C68.6308 10.4792 68.5081 10.365 68.4866 10.3455C68.4098 10.2759 68.3371 10.2019 68.2688 10.124C68.2395 10.091 68.2111 10.0573 68.1832 10.0232C68.1717 10.0062 68.1587 9.99012 68.1445 9.9752C68.155 9.97343 68.2072 10.058 68.1601 9.99479C68.1069 9.92418 68.0547 9.85251 68.0082 9.77749C67.9547 9.68652 67.8671 9.6204 67.7646 9.59367C67.6621 9.56694 67.5531 9.58178 67.4616 9.63494C67.3701 9.6881 67.3036 9.77523 67.2767 9.87714C67.2499 9.97905 67.2648 10.0874 67.3183 10.1784L67.319 10.1786Z" fill="#3B756C"/>
<path d="M14.7092 9.22695C14.7092 9.22695 15.767 11.0672 14.469 18.8828C12.3054 20.5559 11.969 20.7949 11.969 20.7949C11.969 20.7949 12.7857 16.8274 12.6901 13.3378C12.5946 9.84832 11.1758 3.10827 11.1758 3.10827L11.3959 2.91162L14.7092 9.22695Z" fill="#3B756C"/>
<path d="M28.9493 23.0453C29.2108 22.7936 29.5416 22.625 29.8998 22.5608L12.293 1.12402L10.7061 2.48644L28.4547 24.0093C28.5094 23.643 28.6831 23.3044 28.9493 23.0453V23.0453Z" fill="#3B756C"/>
<path d="M3.48262 19.9336C3.48262 19.9336 4.78058 20.794 5.06907 24.3792C5.35756 27.9644 8.9631 29.1831 8.9631 29.1831L6.94401 31.9796C6.94401 31.9796 5.14115 30.2587 4.7085 28.6813C4.27585 27.1038 4.42 23.7338 1.24658 24.021C1.53543 22.6582 2.97772 20.6515 3.48262 19.9336Z" fill="#3B756C"/>
<path d="M75.5916 14.7029C75.3642 14.3573 75.1106 14.0296 74.833 13.7225C74.6965 13.5603 74.5147 13.4422 74.3105 13.383C74.0971 13.3306 73.8739 13.3313 73.6609 13.3852C73.5311 13.4181 73.4094 13.4768 73.3031 13.5576C73.1967 13.6385 73.1078 13.7399 73.0418 13.8558C72.8869 14.1722 72.852 14.5336 72.9437 14.8736C73.0406 15.2354 73.229 15.5664 73.491 15.8353C73.7145 16.092 74.0092 16.2773 74.3382 16.3681C74.5334 16.4104 74.7363 16.4023 74.9274 16.3443C75.1186 16.2863 75.2915 16.1804 75.4297 16.0369C75.5751 15.869 75.6709 15.6644 75.7066 15.4458C75.7423 15.2271 75.7164 15.0028 75.6319 14.7979C75.6018 14.6975 75.5338 14.6127 75.4422 14.5609C75.3507 14.5092 75.2426 14.4947 75.1405 14.5204C75.039 14.5495 74.953 14.6169 74.9009 14.7082C74.8488 14.7995 74.8346 14.9075 74.8615 15.009C74.8862 15.0798 74.9069 15.1518 74.9235 15.2249C74.9349 15.2699 74.9203 15.2023 74.9201 15.1974C74.9201 15.2125 74.9226 15.2277 74.9233 15.2429C74.9249 15.2814 74.9184 15.3207 74.9205 15.3589C74.923 15.4065 74.9192 15.3193 74.9249 15.3218C74.9227 15.3351 74.9198 15.3482 74.9161 15.3612C74.9089 15.3912 74.8995 15.4207 74.888 15.4494C74.88 15.4473 74.9287 15.3778 74.9017 15.4127C74.8904 15.4352 74.8777 15.457 74.8635 15.4778C74.847 15.5162 74.9264 15.4117 74.8731 15.4667C74.8553 15.4844 74.8395 15.5031 74.8213 15.5197C74.8122 15.528 74.8017 15.5354 74.793 15.544C74.7636 15.5735 74.8218 15.5174 74.8244 15.5195C74.8225 15.5179 74.7589 15.5589 74.7495 15.5647C74.6748 15.6094 74.801 15.5523 74.7403 15.5702C74.7114 15.5788 74.6831 15.5878 74.6537 15.5952C74.6409 15.5982 74.6279 15.6004 74.6153 15.6034C74.5711 15.6132 74.6118 15.6109 74.6153 15.6034C74.6244 15.5885 74.659 15.6016 74.6153 15.6014C74.6027 15.6014 74.5901 15.6027 74.5775 15.6027C74.5629 15.6013 74.5483 15.6008 74.5336 15.6012C74.4917 15.6062 74.6144 15.6189 74.5725 15.6067C74.5548 15.6018 74.4261 15.5592 74.4216 15.5628C74.425 15.5601 74.4944 15.5991 74.4571 15.5774C74.4461 15.5707 74.4332 15.5659 74.4216 15.5598C74.3891 15.5433 74.3574 15.5245 74.3265 15.5068C74.3025 15.4918 74.2794 15.4754 74.2554 15.4598C74.1931 15.4189 74.3014 15.4999 74.2432 15.4512C74.1885 15.406 74.1361 15.3581 74.0863 15.3077C74.0608 15.2818 74.0361 15.2552 74.0122 15.2279C74.0026 15.2169 73.9428 15.1474 73.9732 15.1834C74.0035 15.2194 73.9705 15.1801 73.9659 15.1737C73.9535 15.156 73.941 15.1396 73.929 15.1223C73.908 15.0922 73.888 15.0614 73.8688 15.0298C73.8333 14.9721 73.8022 14.9124 73.7724 14.8517C73.7385 14.7827 73.7901 14.9047 73.7649 14.8341C73.7516 14.7963 73.7381 14.7587 73.7271 14.7202C73.7192 14.692 73.7121 14.6634 73.706 14.6346C73.703 14.6206 73.7015 14.6056 73.6978 14.5919C73.6856 14.547 73.7063 14.6251 73.7023 14.6272C73.7039 14.6272 73.6939 14.4357 73.6948 14.4154C73.6948 14.4011 73.6969 14.2941 73.6975 14.3624C73.6975 14.4236 73.7012 14.3518 73.706 14.3319C73.7122 14.3063 73.7211 14.2817 73.7282 14.2565C73.7459 14.1975 73.6836 14.3349 73.7252 14.2658C73.7367 14.2468 73.7493 14.227 73.7607 14.2074C73.7898 14.1544 73.7001 14.2695 73.7429 14.2295C73.7559 14.2175 73.7681 14.2039 73.7805 14.1912C73.8407 14.1296 73.7273 14.2199 73.7678 14.1995C73.7829 14.1919 73.7965 14.1818 73.8114 14.1728C73.8263 14.1638 73.8972 14.1334 73.8244 14.1636C73.7543 14.1929 73.8145 14.1679 73.8317 14.1636C73.853 14.1578 73.8739 14.1511 73.8956 14.146C73.9119 14.1437 73.9281 14.1405 73.9441 14.1364C73.9661 14.1287 73.8329 14.1453 73.9025 14.1424C73.9394 14.141 73.9758 14.1382 74.0129 14.1393C74.0307 14.1393 74.0484 14.1414 74.0662 14.1423C74.1328 14.1454 74.0378 14.1423 74.0176 14.1347C74.046 14.1446 74.0795 14.1451 74.109 14.1523C74.1319 14.162 74.1557 14.1696 74.18 14.1747C74.1922 14.1747 74.0857 14.1218 74.1196 14.1502C74.1327 14.1602 74.1468 14.1688 74.1617 14.1758C74.177 14.1827 74.0808 14.1052 74.1294 14.1509C74.1441 14.165 74.1603 14.1777 74.1752 14.1917C74.2072 14.2215 74.2375 14.2528 74.2673 14.2845C74.3483 14.3709 74.4239 14.4611 74.4981 14.5541C74.5111 14.5702 74.5729 14.651 74.5361 14.6016C74.4994 14.5522 74.5539 14.6259 74.5647 14.6392C74.6002 14.6863 74.6353 14.7333 74.67 14.7804C74.7488 14.8874 74.8264 14.9952 74.9008 15.105C74.9268 15.1509 74.9618 15.1913 75.0036 15.2236C75.0455 15.256 75.0934 15.2797 75.1445 15.2935C75.1957 15.3072 75.2491 15.3107 75.3017 15.3038C75.3542 15.2968 75.4048 15.2795 75.4506 15.2529C75.4964 15.2263 75.5364 15.1909 75.5682 15.1488C75.6001 15.1067 75.6232 15.0587 75.6363 15.0076C75.6493 14.9565 75.652 14.9034 75.6442 14.8512C75.6363 14.7991 75.6182 14.749 75.5907 14.704L75.5916 14.7029Z" fill="#3B756C"/>
<path d="M4.27591 13.2656C4.27591 13.2656 5.93443 14.843 6.295 17.6394C6.65558 20.4357 6.43916 23.519 8.67396 23.8059C10.9088 24.0927 12.1004 23.8412 12.1004 23.8412L10.8383 26.8169C10.8383 26.8169 7.80955 27.3906 6.65575 24.6657C5.50196 21.9409 6.15085 18.3571 3.80704 17.9262C2.76154 17.5677 3.09797 16.4683 3.09797 16.4683L4.27591 13.2656Z" fill="#3B756C"/>
<path d="M0.310059 32.8413C0.310059 32.8413 2.04084 35.2076 2.68902 35.5661C3.33719 35.9247 5.50151 36.5699 6.0785 37.6454C6.65548 38.721 7.01588 39.438 7.01588 39.438L6.51115 42.0193C6.51115 42.0193 5.86208 39.9399 4.85245 39.2947C3.84281 38.6495 1.39053 37.7889 1.10257 37.1436C0.814611 36.4982 0.310059 32.8413 0.310059 32.8413Z" fill="#3B756C"/>
<path d="M78.6988 22.7537C78.6523 22.3445 78.5963 21.9355 78.5269 21.5297C78.4547 21.1085 78.3957 20.4781 77.9015 20.3348C77.1532 20.1177 76.9389 21.1291 76.8895 21.6442C76.8634 21.9312 76.8583 22.2197 76.8744 22.5074C76.8788 22.8556 76.9374 23.201 77.0482 23.5313C77.1053 23.7392 77.2374 23.919 77.4193 24.0363C77.5215 24.0878 77.6354 24.1117 77.7498 24.1055C77.8642 24.0993 77.9749 24.0632 78.0708 24.001C78.4852 23.7447 78.6709 23.2155 78.6986 22.7548C78.6986 22.6494 78.6565 22.5484 78.5816 22.4739C78.5067 22.3994 78.4051 22.3576 78.2991 22.3576C78.1932 22.3576 78.0916 22.3994 78.0167 22.4739C77.9418 22.5484 77.8997 22.6494 77.8997 22.7548C77.8997 22.7537 77.8839 22.891 77.8956 22.8183C77.8888 22.8595 77.8799 22.9002 77.8688 22.9405C77.8583 22.98 77.845 23.0181 77.8324 23.0568C77.7969 23.168 77.866 23.0063 77.8111 23.1057C77.7816 23.1586 77.7525 23.2116 77.7183 23.2619C77.7664 23.1913 77.7081 23.2723 77.6973 23.2836C77.6833 23.2984 77.6687 23.3124 77.6536 23.326C77.6975 23.2947 77.7023 23.2907 77.6677 23.315L77.6451 23.3286C77.6142 23.3442 77.6152 23.3442 77.6481 23.3286L77.6735 23.3175C77.6309 23.3279 77.6444 23.3272 77.714 23.315C77.6538 23.3189 77.7946 23.3339 77.8127 23.345L77.8558 23.3804C77.8273 23.3516 77.8308 23.3588 77.8665 23.4024C77.8422 23.3625 77.8202 23.3213 77.8006 23.2789C77.8443 23.3744 77.804 23.2804 77.7978 23.2621C77.7841 23.2218 77.772 23.1809 77.7612 23.1398C77.7452 23.0797 77.7323 23.019 77.7207 22.9579C77.7154 22.9292 77.7112 22.9002 77.7058 22.8714C77.6852 22.7555 77.7133 22.953 77.7007 22.8347C77.6851 22.6896 77.6737 22.5449 77.6689 22.3991C77.6602 22.1622 77.6654 21.925 77.6843 21.6887C77.6877 21.6488 77.6966 21.607 77.6968 21.5669C77.6968 21.7323 77.6954 21.5817 77.7023 21.5411C77.71 21.4962 77.7185 21.4513 77.728 21.4065C77.7419 21.3429 77.7577 21.2797 77.7772 21.2176C77.7871 21.186 77.7989 21.1553 77.8097 21.124C77.7758 21.2213 77.8154 21.1152 77.8274 21.0937C77.8385 21.0778 77.8486 21.0615 77.858 21.0446C77.8779 20.9985 77.7918 21.1203 77.8393 21.0697C77.8654 21.0419 77.9103 21.0223 77.8097 21.0873C77.8452 21.0644 77.8752 21.0659 77.7655 21.1002C77.8475 21.0746 77.654 21.0986 77.7349 21.1027C77.6043 21.0961 77.6391 21.085 77.6771 21.097C77.7323 21.1134 77.569 21.0402 77.6384 21.0829C77.6897 21.1147 77.553 21.0112 77.5988 21.0515C77.6071 21.0585 77.6149 21.066 77.6222 21.0741C77.6705 21.1283 77.5556 20.9724 77.6045 21.0545C77.6435 21.1203 77.5689 20.9452 77.6045 21.0573C77.6164 21.0951 77.6282 21.1328 77.6385 21.171C77.6918 21.3676 77.7273 21.5694 77.7616 21.7699C77.7826 21.8954 77.8023 22.0211 77.8207 22.147C77.8301 22.2107 77.8384 22.2744 77.8479 22.3382C77.8514 22.3638 77.8699 22.4538 77.8479 22.3341C77.8521 22.3576 77.8541 22.3818 77.8573 22.4047C77.8725 22.5207 77.8873 22.6368 77.9004 22.7532C77.9034 22.8575 77.9465 22.9568 78.0208 23.0307C78.095 23.1045 78.1949 23.1473 78.2999 23.1503C78.4054 23.1496 78.5064 23.1075 78.5811 23.0333C78.6557 22.9591 78.698 22.8586 78.6988 22.7537Z" fill="#3B756C"/>
<path d="M41.3409 56.2913C37.5463 56.2913 33.8369 55.1725 30.6817 53.0764C27.5266 50.9802 25.0675 48.0008 23.6153 44.515C22.1631 41.0292 21.7832 37.1935 22.5234 33.4929C23.2637 29.7924 25.091 26.3932 27.7742 23.7252C30.4574 21.0573 33.876 19.2404 37.5977 18.5043C41.3194 17.7682 45.1771 18.1459 48.6828 19.5898C52.1886 21.0337 55.1851 23.4788 57.2932 26.616C59.4014 29.7531 60.5267 33.4415 60.5267 37.2145C60.5209 42.2722 58.4977 47.1211 54.9009 50.6974C51.3042 54.2738 46.4275 56.2855 41.3409 56.2913ZM41.3409 19.197C37.757 19.197 34.2535 20.2537 31.2735 22.2335C28.2935 24.2133 25.9709 27.0272 24.5994 30.3195C23.2279 33.6118 22.869 37.2346 23.5682 40.7297C24.2674 44.2248 25.9932 47.4353 28.5274 49.9551C31.0617 52.4749 34.2905 54.1909 37.8056 54.8861C41.3207 55.5813 44.9642 55.2245 48.2753 53.8608C51.5865 52.497 54.4165 50.1876 56.4077 47.2246C58.3988 44.2616 59.4615 40.7781 59.4615 37.2145C59.456 32.4376 57.5451 27.858 54.1481 24.4802C50.751 21.1024 46.1451 19.2024 41.3409 19.197V19.197Z" fill="#3B756C"/>
<path d="M71.79 13.416C72.4319 13.807 73.0716 14.206 73.6887 14.6349C73.7803 14.6876 73.8891 14.7022 73.9915 14.6755C74.0938 14.6488 74.1815 14.583 74.2353 14.4925C74.2861 14.4009 74.2995 14.2934 74.2729 14.1923C74.2462 14.0911 74.1815 14.004 74.092 13.949C73.4748 13.5202 72.8351 13.1211 72.1924 12.7301C72.1471 12.7037 72.0971 12.6865 72.0451 12.6795C71.9931 12.6724 71.9402 12.6755 71.8895 12.6888C71.8387 12.702 71.7911 12.7251 71.7493 12.7566C71.7075 12.7881 71.6724 12.8276 71.6459 12.8726C71.6194 12.9176 71.6021 12.9674 71.595 13.0191C71.5879 13.0708 71.5911 13.1234 71.6044 13.1738C71.6177 13.2243 71.6409 13.2717 71.6726 13.3132C71.7043 13.3548 71.744 13.3897 71.7893 13.416H71.79Z" fill="#3B756C"/>
<path d="M41.3898 54.493C37.9622 54.493 34.6115 53.4823 31.7616 51.5889C28.9116 49.6954 26.6904 47.0042 25.3787 43.8555C24.0671 40.7069 23.7239 37.2421 24.3926 33.8995C25.0613 30.5569 26.7119 27.4865 29.1356 25.0767C31.5593 22.6668 34.6473 21.0257 38.009 20.3609C41.3708 19.696 44.8553 20.0373 48.022 21.3416C51.1886 22.6458 53.8952 24.8545 55.7994 27.6883C57.7037 30.522 58.72 33.8536 58.7199 37.2617C58.7147 41.8302 56.8871 46.21 53.6382 49.4404C50.3893 52.6708 45.9844 54.4878 41.3898 54.493V54.493ZM41.3898 20.3828C38.0324 20.3828 34.7505 21.3727 31.9589 23.2274C29.1674 25.082 26.9916 27.718 25.7068 30.8022C24.422 33.8863 24.0858 37.28 24.7408 40.5541C25.3958 43.8282 27.0124 46.8357 29.3864 49.1962C31.7604 51.5567 34.785 53.1643 38.0779 53.8156C41.3707 54.4669 44.7838 54.1327 47.8856 52.8552C50.9874 51.5778 53.6386 49.4145 55.5039 46.6388C57.3692 43.8632 58.3648 40.6 58.3649 37.2617C58.3599 32.7868 56.5699 28.4965 53.3875 25.3321C50.2051 22.1678 45.8903 20.3879 41.3898 20.3828Z" fill="#3B756C"/>
<path d="M77.3894 18.2973C77.3085 17.9266 77.2181 17.5559 77.1008 17.1953C77.046 16.9753 76.9425 16.7702 76.7979 16.5951C76.6515 16.4367 76.4585 16.3283 76.2465 16.2855C75.4703 16.1566 75.0925 17.049 75.1152 17.6889C75.1281 18.0191 75.1964 18.3448 75.3173 18.6527C75.4136 18.948 75.5806 19.2157 75.8041 19.4326C75.9498 19.5618 76.1334 19.6411 76.3278 19.6591C76.5222 19.6771 76.7173 19.6327 76.8845 19.5325C77.2621 19.2853 77.3816 18.8264 77.4038 18.4027C77.4031 18.2976 77.3608 18.197 77.2861 18.1226C77.2113 18.0483 77.1101 18.0062 77.0044 18.0055C76.8991 18.0078 76.7988 18.0504 76.7244 18.1244C76.65 18.1984 76.6072 18.2981 76.6049 18.4027C76.603 18.4398 76.6001 18.4767 76.5969 18.5136C76.5969 18.5205 76.5872 18.5784 76.5952 18.5312C76.6039 18.4802 76.5909 18.5499 76.5884 18.5619C76.5753 18.6283 76.5501 18.6905 76.5351 18.7561C76.5492 18.6975 76.5529 18.7208 76.5304 18.7632C76.5167 18.7897 76.4968 18.8142 76.4842 18.8408C76.4664 18.8762 76.5039 18.8107 76.5099 18.8096C76.5046 18.8096 76.4909 18.832 76.4865 18.8363C76.4783 18.844 76.4687 18.8525 76.4622 18.861C76.4226 18.9067 76.4822 18.8356 76.4911 18.8419C76.4911 18.8419 76.44 18.8733 76.4356 18.8772C76.3846 18.9125 76.5243 18.8477 76.4409 18.8726C76.4305 18.8756 76.4199 18.8781 76.4093 18.88C76.4068 18.8719 76.5027 18.8786 76.4609 18.873C76.4551 18.873 76.3812 18.873 76.3814 18.873C76.3844 18.8636 76.4817 18.8935 76.3922 18.8707C76.3711 18.8652 76.2752 18.831 76.35 18.8599C76.4183 18.8864 76.3601 18.8599 76.3429 18.8509C76.2761 18.8137 76.3945 18.9039 76.3544 18.8606C76.3223 18.8267 76.2898 18.7916 76.2571 18.7584C76.2296 18.7305 76.2836 18.7904 76.2834 18.7923C76.2834 18.7863 76.2657 18.7676 76.2621 18.7625C76.2459 18.7376 76.2293 18.7134 76.2138 18.6882C76.1831 18.638 76.1552 18.5865 76.1293 18.5339C76.1169 18.5085 76.1062 18.482 76.0938 18.4569C76.0734 18.4175 76.1046 18.4832 76.1053 18.4852C76.0982 18.4675 76.0906 18.4488 76.0835 18.4306C76.0362 18.3082 75.9975 18.1828 75.9676 18.0551C75.9525 17.9912 75.9402 17.9268 75.9292 17.862C75.9261 17.8474 75.9238 17.8326 75.9225 17.8177C75.9225 17.819 75.9296 17.8959 75.9274 17.8498C75.926 17.8161 75.9205 17.7822 75.9184 17.7485C75.9145 17.6881 75.9131 17.6276 75.915 17.5671C75.915 17.5404 75.918 17.5141 75.9198 17.4874C75.9257 17.3949 75.9061 17.543 75.9198 17.4795C75.9322 17.4208 75.948 17.3629 75.967 17.306C75.9729 17.2892 76.0096 17.2001 75.994 17.2329C75.9784 17.2657 76.0219 17.1799 76.0313 17.1635C76.0475 17.1347 76.0679 17.1086 76.0846 17.0802C76.1062 17.0428 76.0652 17.1111 76.0613 17.1104C76.0638 17.1104 76.0824 17.0867 76.0853 17.0843C76.0979 17.0728 76.1563 17.023 76.1016 17.0645C76.0469 17.106 76.1133 17.0624 76.1274 17.0527C76.1767 17.0188 76.0306 17.0867 76.1071 17.0638C76.1732 17.044 76.0491 17.0638 76.0675 17.0668C76.0839 17.069 76.1005 17.069 76.1169 17.0668C76.1455 17.0613 76.0533 17.0578 76.0514 17.0569C76.0619 17.0597 76.0725 17.0618 76.0833 17.0631C76.1011 17.0695 76.1193 17.0749 76.1378 17.0791C76.1584 17.0825 76.0436 17.0311 76.1023 17.0643C76.1323 17.082 76.162 17.0978 76.1911 17.1162C76.2552 17.1565 76.1517 17.0818 76.1645 17.095C76.174 17.1051 76.1863 17.1136 76.1968 17.1231C76.2172 17.1407 76.2344 17.1635 76.2546 17.1822C76.2932 17.2175 76.1955 17.0844 76.2223 17.1409C76.2277 17.1522 76.2358 17.1632 76.242 17.1741C76.2483 17.1851 76.2554 17.2008 76.2623 17.2142C76.2916 17.2716 76.2649 17.2336 76.2532 17.1903C76.2772 17.2786 76.3184 17.366 76.3463 17.4539C76.4556 17.8009 76.5428 18.1559 76.6205 18.5111C76.6494 18.6123 76.7171 18.6981 76.809 18.75C76.901 18.802 77.0098 18.8158 77.112 18.7886C77.2132 18.7583 77.2986 18.6902 77.3504 18.5986C77.4021 18.507 77.4161 18.399 77.3894 18.2973V18.2973Z" fill="#3B756C"/>
<path d="M68.8098 10.5494C69.1536 11.0089 69.5564 11.4217 70.0078 11.7775C70.1783 11.9153 70.365 12.0323 70.5636 12.1259C70.6578 12.1765 70.7674 12.1908 70.8715 12.166C70.9472 12.1453 71.0152 12.1028 71.0668 12.0438C71.1184 11.9849 71.1513 11.9121 71.1615 11.8346C71.1717 11.7571 71.1587 11.6784 71.1241 11.6082C71.0895 11.538 71.0348 11.4796 70.967 11.4401C70.8679 11.3958 70.7724 11.344 70.6813 11.2852C70.633 11.2543 70.5856 11.2218 70.5393 11.1882C70.5155 11.1706 70.4928 11.1529 70.4683 11.1353C70.5725 11.2084 70.4844 11.1471 70.4622 11.1293C70.2831 10.983 70.1131 10.826 69.9533 10.659C69.8254 10.5269 69.7024 10.3904 69.5842 10.2495C69.5487 10.2067 69.5131 10.1633 69.4776 10.1196C69.4677 10.1074 69.4581 10.0949 69.4482 10.0827C69.4173 10.0435 69.5272 10.1847 69.4989 10.1478C69.4435 10.0608 69.3589 9.99618 69.2602 9.96529C69.1562 9.93782 69.0456 9.95222 68.9523 10.0054C68.8616 10.0592 68.7958 10.1463 68.769 10.2479C68.7423 10.3495 68.7566 10.4575 68.809 10.5487L68.8098 10.5494Z" fill="#3B756C"/>
<path d="M74.5198 15.6731C74.6666 15.8243 74.8039 15.9858 74.9365 16.1489C74.9674 16.1867 74.998 16.2247 75.0283 16.2629C75.043 16.2806 75.0574 16.3003 75.0721 16.3189C74.9986 16.2264 75.0615 16.3053 75.0771 16.3261C75.146 16.4165 75.2132 16.5082 75.2786 16.6011C75.4243 16.8078 75.5593 17.0218 75.683 17.2421C75.7365 17.333 75.8242 17.3991 75.9266 17.4258C76.0291 17.4525 76.1381 17.4376 76.2296 17.3845C76.321 17.3313 76.3875 17.2441 76.4144 17.1422C76.4412 17.0403 76.4262 16.932 76.3728 16.841C76.1232 16.405 75.8363 15.9911 75.5153 15.604C75.3778 15.435 75.2365 15.2686 75.0847 15.1114C75.0476 15.0746 75.0036 15.0453 74.9552 15.0254C74.9067 15.0054 74.8547 14.9951 74.8023 14.9951C74.7498 14.9951 74.6979 15.0054 74.6494 15.0254C74.601 15.0453 74.5569 15.0746 74.5198 15.1114C74.4827 15.1483 74.4533 15.1921 74.4332 15.2403C74.4132 15.2885 74.4028 15.3401 74.4028 15.3923C74.4028 15.4445 74.4132 15.4961 74.4332 15.5443C74.4533 15.5925 74.4827 15.6363 74.5198 15.6731V15.6731Z" fill="#3B756C"/>
<path d="M76.3959 19.138C76.4078 19.1507 76.4192 19.1639 76.4305 19.1771C76.4419 19.1904 76.4556 19.2066 76.4676 19.2216C76.476 19.2319 76.4838 19.2425 76.4923 19.2525C76.5298 19.2974 76.425 19.1621 76.4616 19.2132C76.5644 19.3536 76.6601 19.4991 76.7481 19.6492C76.8053 19.7491 76.8586 19.8511 76.9079 19.9553C76.9247 19.9906 76.9412 20.0259 76.9573 20.0612C76.9663 20.0811 77.0032 20.1671 76.966 20.0788C76.9951 20.1483 77.0227 20.2182 77.0487 20.2887C77.1633 20.6028 77.2482 20.9269 77.302 21.2568C77.3305 21.3581 77.3982 21.4442 77.4903 21.4962C77.5823 21.5481 77.6913 21.5618 77.7935 21.5341C77.8939 21.5036 77.9789 21.436 78.0307 21.3451C78.0826 21.2542 78.0975 21.1471 78.0724 21.0457C77.9687 20.4139 77.7536 19.8052 77.4371 19.2478C77.3049 19.0062 77.1448 18.7807 76.9601 18.5759C76.8848 18.5022 76.7833 18.4609 76.6777 18.4609C76.572 18.4609 76.4705 18.5022 76.3952 18.5759C76.3224 18.6515 76.2817 18.7521 76.2817 18.8568C76.2817 18.9614 76.3224 19.062 76.3952 19.1376L76.3959 19.138Z" fill="#3B756C"/>
<path d="M72.0118 73.5104L72.0262 73.4963L53.4062 50.8262C53.3702 50.9446 53.3207 51.0585 53.2587 51.1658C53.1267 51.4008 52.9389 51.6003 52.7118 51.7468C52.4847 51.8934 52.2251 51.9826 51.9554 52.0068C51.8896 52.0403 51.8217 52.0693 51.752 52.0936L70.393 74.6981C70.4571 74.8354 70.5511 74.9568 70.6682 75.0536C70.7853 75.1504 70.9225 75.22 71.07 75.2576C71.2175 75.2951 71.3716 75.2995 71.521 75.2706C71.6704 75.2416 71.8115 75.18 71.9341 75.0901C72.0566 75.0002 72.1575 74.8844 72.2294 74.751C72.3014 74.6176 72.3426 74.47 72.3502 74.3188C72.3577 74.1676 72.3313 74.0166 72.2729 73.8768C72.2145 73.737 72.1255 73.6118 72.0125 73.5104H72.0118Z" fill="#3B756C"/>
<path d="M75.4338 21.5455C75.4338 21.5455 75.2741 21.1353 75.0415 21.1519C75.1038 21.7407 75.1105 21.8027 75.15 22.1743C75.1894 22.5459 75.1927 23.2363 75.3452 24.4527C75.4978 25.6691 76.0321 28.7129 75.4972 31.5986C75.145 32.0266 74.8879 32.2445 74.9067 31.322C74.9256 30.3994 75.1326 25.9733 74.8801 25.3538C74.6277 24.7344 74.1513 24.4343 73.8916 24.4123C74.2843 24.9524 74.5072 25.5961 74.5323 26.2621C74.5446 26.5952 74.4865 30.89 74.5261 31.2618C74.5657 31.6335 74.6216 32.8191 75.2135 32.2277C75.3101 32.9174 75.3378 32.9557 75.6057 33.2803C75.8736 33.6049 75.6481 34.3421 75.459 34.7615C75.27 35.1809 76.0463 36.6274 76.1727 36.937C76.2991 37.2466 77.0922 37.8871 77.5428 37.0445C77.8201 36.3536 76.9095 36.9114 76.8577 36.8653C76.8058 36.8193 76.335 36.83 75.7804 35.5815C76.2938 34.696 76.4905 33.6794 76.3778 33.2847C76.2651 32.89 75.7488 32.427 75.7488 32.427C75.7488 32.427 76.3712 31.9048 76.533 32.1057C76.6947 32.3066 76.8728 32.6627 76.6791 33.2604C76.9581 33.4683 77.5454 33.7139 77.6575 34.1087C77.7695 34.5036 78.1368 34.2309 78.1437 33.844C78.1313 33.6478 78.0656 33.4587 77.9536 33.2967C77.8416 33.1348 77.6875 33.006 77.5078 32.9243C77.2177 32.8325 77.2981 32.708 77.3835 32.1961C77.4689 31.6842 77.2692 30.2436 75.9673 31.6286C76.0675 31.0312 77.0959 27.7325 76.6104 25.362C76.9315 24.8645 77.2749 23.9674 77.3081 23.6183C77.3413 23.2691 77.1279 22.0228 77.1279 22.0228C77.1279 22.0228 76.9063 24.4071 76.5015 24.998C76.3488 24.4403 76.0755 23.8449 76.062 23.7208C76.0485 23.5967 75.9808 22.7367 75.9808 22.7367C75.9808 22.7367 76.5626 22.0523 76.6539 21.8115C76.7451 21.5708 76.9289 20.8798 76.7584 21.0359C76.588 21.1919 76.2775 21.5731 76.1532 21.5037C76.0289 21.4343 75.861 21.1716 75.4338 21.5455Z" fill="#3B756C"/>
<path d="M79.1532 16.8996C79.1833 16.5262 79.2621 16.1583 79.3877 15.8052C79.4502 16.3941 79.4571 16.456 79.4965 16.828C79.5359 17.1999 79.6643 17.7496 79.7754 19.0124C79.8866 20.2753 80.044 23.7398 81.0139 24.9449C81.3723 24.579 81.6163 24.2372 81.4261 23.5479C81.236 22.8586 80.3874 19.786 80.3132 18.793C80.2448 17.9868 80.3573 17.1756 80.6425 16.4179C80.5463 17.9236 80.7057 18.5277 80.7597 18.8146C80.8136 19.1014 81.675 22.3683 81.7144 22.7403C81.7539 23.1122 81.9353 24.1579 81.3567 24.8738C81.4116 25.6099 81.3974 25.6951 81.2477 26.4863C81.0981 27.2775 81.416 27.4079 81.6447 27.3604C81.8733 27.313 81.829 29.755 81.7881 30.2514C81.7473 30.7478 81.5591 32.2752 80.7677 32.7437C80.4179 32.7533 80.9942 31.7976 81.0261 31.6574C81.3852 30.6948 81.562 29.6744 81.5476 28.6478C80.9747 28.9756 80.6272 28.5666 80.6407 28.0316C80.6542 27.4966 80.9724 26.1004 80.9724 26.1004C80.9724 26.1004 80.3828 26.9322 80.2935 27.4132C80.2042 27.8943 80.1319 28.5305 80.398 28.6145C80.2175 29.3361 79.8015 30.7021 79.7884 31.2369C79.7752 31.7718 79.4333 32.2924 79.355 31.9983C79.2767 31.7042 79.4695 30.6567 79.681 30.0046C79.8924 29.3525 79.8052 29.4154 79.64 29.1836C79.4747 28.9518 79.3593 27.4169 80.6478 25.908C80.4554 25.6378 79.0188 25.0932 78.9508 22.2564C78.6032 22.5062 78.214 22.8022 78.1213 22.5934C78.0392 22.3304 77.9793 22.061 77.9424 21.7881C77.9424 21.7881 78.5361 22.0954 78.9671 21.7528C78.9815 21.0086 79.0839 19.9925 79.0708 19.8688C79.0576 19.745 78.9479 18.9312 78.9479 18.9312C78.9479 18.9312 78.3594 19.5538 78.2419 19.5464C78.1244 19.539 77.8479 19.3623 78.0111 19.1445C78.1742 18.9267 78.4918 18.6073 78.5764 18.3048C78.6699 17.8021 78.8662 17.3238 79.1532 16.8996Z" fill="#3B756C"/>
<path d="M77.255 25.8065C77.255 25.8065 78.7454 24.952 79.106 24.6175C79.4665 24.283 79.178 25.2627 79.178 25.2627C79.3414 25.8437 79.4402 26.4408 79.4726 27.0433C79.4903 29.5887 79.0579 30.2341 78.2405 30.5688C78.2405 30.5688 77.1575 30.9512 77.0629 28.9914C76.9846 27.3659 77.3272 26.5236 77.3272 26.5236C77.3272 26.5236 76.8946 25.9499 77.255 25.8065Z" fill="#3B756C"/>
<path d="M76.57 25.6463C76.57 25.6463 77.0929 25.9332 77.4353 25.9332C77.7778 25.9332 77.3272 26.3454 77.3272 26.3454C77.0533 26.2132 76.7884 26.0635 76.534 25.8972L76.3896 25.7718L76.588 25.5566L76.57 25.6463Z" fill="#3B756C"/>
<path d="M69.7586 0.93743C69.5974 1.15279 70.0426 1.75332 70.7528 2.27901C71.4629 2.8047 72.1695 3.05572 72.3309 2.84071C72.4922 2.62571 72.0468 2.02482 71.3367 1.49913C70.6265 0.973441 69.92 0.72207 69.7586 0.93743Z" fill="#3B756C"/>
<path d="M35.7852 22.6768L34.7431 22.9092L33.8458 23.236L33.0412 23.6085L32.3311 24.0296L31.763 24.5428L31.2426 25.1022L30.8174 25.6611L30.4393 26.3147L30.155 27.014L29.9182 27.7153L29.7774 28.4613L29.683 29.2067L29.6345 30.0468L29.5876 30.8405L29.6345 31.6804L29.683 32.5196L29.8236 34.2458L30.0609 35.9251L30.2964 37.5585L30.4393 39.144L30.4854 39.89L30.5332 40.6372L30.4854 41.2903L30.4393 41.9435L30.3441 42.5491L30.2019 43.1085L29.9665 43.5755L29.683 44.042L29.4454 43.9017L29.1612 43.7154L28.878 43.3431L28.5455 42.9221L28.4047 42.5954L28.2625 42.2688L28.1674 41.8958L28.0735 41.5227L27.9781 41.0559L27.932 40.5429V39.9837V39.3763L27.3626 39.4707L27.0796 39.5627L26.8437 39.6571L26.6544 39.7514L26.4653 39.89L26.3224 40.0776L26.228 40.2162L26.0389 40.6372L25.9436 41.0559L25.8979 41.5227L25.992 42.0362L26.0865 42.5491L26.2763 43.0625L26.5117 43.5755L26.749 44.1345L27.0796 44.6016L27.4109 45.1151L27.7429 45.5352L28.121 45.9082L29.3971 45.4417L30.4854 44.928L30.9582 44.6957L31.3372 44.4154L31.7168 44.1345L32.0474 43.8558L32.3311 43.5755L32.6146 43.2487L32.8037 42.9698L32.9929 42.6432L33.1357 42.3168L33.2303 41.9903L33.4194 41.2903L33.4676 40.5906L33.4194 39.7973L33.3725 39.0037L33.2303 38.1179L32.9466 36.2516L32.8037 35.2253L32.7085 34.1531L32.6629 33.8266L32.5675 32.8929L32.5194 31.4934L32.5675 30.7L32.6146 29.8138L32.7085 28.8802L32.8976 27.9483L33.1357 26.9681L33.4676 26.0362L33.8928 25.1022L34.1295 24.6831L34.4132 24.2621L34.6974 23.8432L35.0275 23.4222L35.407 23.0496L35.7852 22.6768Z" fill="#3B756C"/>
<path d="M43.4027 46.7027V46.0494L43.4496 45.4425L43.6379 44.2758L43.8741 43.1568L44.206 42.1773L44.87 40.3108L45.1985 39.425L45.4834 38.5856L45.6727 37.698L45.7188 37.2788V36.8593V36.4387L45.6727 35.9718L45.6263 35.5068L45.4834 35.0399L45.2943 34.5728L45.1054 34.0597L44.8201 33.5467L44.491 33.0341L44.1093 32.4745L43.6843 31.9135L43.1639 31.3078L42.5497 30.6549L41.2721 31.6812L39.8994 32.7068L38.292 33.8274L38.2444 32.1938L38.292 30.5145L38.3865 28.556L38.4328 27.5758L38.5757 26.6421L38.765 25.7562L38.9539 24.963L39.2376 24.2629L39.3807 23.9844L39.5696 23.7496L39.7586 23.5634L39.9479 23.377L40.1838 23.2827H40.4214L40.6103 23.4714L40.8469 23.6578L41.1294 23.844L41.4612 24.0305L41.7932 24.1704L42.1715 24.2629L42.5967 24.309L42.9748 24.3567L43.4027 24.309L43.827 24.217L44.2524 24.0305L44.7271 23.7964L45.1516 23.4714L45.5759 23.0504L46.0045 22.4912L46.3828 21.8839L46.0508 22.0243L45.7188 22.1646L45.3868 22.2105L45.0593 22.3049H44.3951L43.7808 22.2564L43.1178 22.0702L42.5035 21.8378L41.8857 21.5575L41.2721 21.231L40.562 21.5109L39.9479 21.8378L39.3322 22.2105L38.765 22.6315L38.292 23.0965L37.8193 23.6093L37.4413 24.217L37.063 24.8243L36.7771 25.5231L36.4934 26.2693L36.3045 27.1092L36.163 27.9491L36.0208 28.881L35.974 29.9089V30.9811L36.0208 32.0997L36.3521 36.9061L36.4473 39.425L36.5412 41.8966V43.0633V44.1832L36.4473 45.2562L36.3521 46.1897L36.2099 47.0757L36.0208 47.8215L35.7847 48.4286L35.6427 48.6609L35.5017 48.8955L34.8862 48.5205L34.3644 48.1941L33.8453 47.9618L33.4189 47.7749L33.0407 47.6346L32.6624 47.5428L32.3306 47.4949H32.0469L31.7163 47.5428L31.4788 47.6346L30.9577 47.8215L29.8716 48.3341L30.4388 48.5205L30.9577 48.7075L31.3843 48.9881L31.7625 49.2681L32.3782 49.8273L32.6624 50.0604L32.9461 50.2944L33.2298 50.481L33.5128 50.573L33.8924 50.621L34.3174 50.5269L34.7911 50.3869L35.3126 50.0604L35.974 49.6411L36.7303 49.0342L37.0145 48.7551L37.2982 48.4745L37.5356 48.1941L37.771 47.8693L38.1493 47.168L38.4328 46.422L38.6221 45.6287L38.765 44.8368L38.8601 43.9969V43.1568V42.3635L38.8131 41.5701L38.7165 40.0784L38.5274 38.772L38.4328 37.838L38.3382 35.0858L38.5757 34.8537L38.8131 34.5728L39.1431 34.3866L39.4274 34.1998L39.7586 34.0597L40.0892 34.0136L40.4214 34.0597L40.7525 34.1539L41.0367 34.3866L41.3687 34.7132L41.6041 35.1802L41.8857 35.7854L42.079 36.5331L42.264 37.465L42.4074 38.5856L42.5035 39.8908L42.5497 40.7785V41.6636L42.4572 43.1094L42.3604 44.3235L42.1715 45.3957L42.079 46.2817L41.9822 47.168V47.6346L42.0295 48.0556L42.079 48.5205L42.1715 49.0342L42.4572 50.108L42.5967 50.621L42.7858 51.0401L42.9748 51.4132L43.2136 51.7396L43.4027 52.0203L43.6843 52.2526L43.9204 52.4395L44.206 52.5333L44.491 52.5799H44.7733L45.1054 52.4874L45.4365 52.3469L45.8154 52.114L46.1937 51.7873L46.6189 51.4132L46.8082 51.1343L46.9039 51.0401V50.8995V50.8078L46.8543 50.7133L46.7148 50.573L46.476 50.481L45.7657 50.2007L45.3868 50.0138L44.9625 49.8273L44.5842 49.5467L44.206 49.1744L43.8741 48.7551L43.7311 48.4745L43.5918 48.1941L43.4957 47.8693L43.4496 47.5428L43.4027 47.1216V46.7027Z" fill="#3B756C"/>
<path d="M53.5735 36.0656H53.4769L52.628 35.4122L52.1532 34.9932L51.7281 34.5263L51.2539 34.059L50.8287 33.546L50.4505 32.9866L50.1185 32.4262L49.837 31.8667L49.6445 31.3072L49.505 30.7462V30.1873L49.5513 29.9082L49.5982 29.6279L49.6942 29.3933L49.837 29.1144L50.0262 28.8341L50.2146 28.6014L50.4505 28.367L50.7328 28.1347L51.397 28.4614L52.06 28.928L52.7207 29.4876L53.3844 30.1405L53.998 30.8865L54.2837 31.3072L54.5196 31.7264L54.755 32.1931L54.9443 32.66L55.1333 33.1252L55.2755 33.6403L55.4181 33.3596L55.5612 33.0793L55.7006 32.5197L55.7503 31.9128V31.3072L55.6081 30.7462L55.4181 30.1405L55.1333 29.5336L54.755 28.9739L54.3298 28.4153L53.9057 27.854L53.3844 27.3414L52.8172 26.8755L52.2491 26.4088L51.6322 25.988L51.0185 25.6153L50.4044 25.2886L49.837 26.0822L49.3621 26.8279L48.937 27.5274L48.6052 28.1806L48.2738 28.8341L48.0384 29.4417L47.799 30.047L47.6595 30.6076L47.5636 31.1668L47.4706 31.6805L47.4209 32.1471V32.6124L47.4706 33.0334L47.5175 33.4516L47.6098 33.8726L47.7527 34.2459L48.0384 34.8989L48.4167 35.5061L48.7948 36.0656L49.2195 36.5325L49.6942 36.9055L50.0724 37.2781L50.7328 37.7913L51.3506 38.3503L51.8708 38.9111L52.296 39.5168L52.6743 40.0778L52.9564 40.6834L53.2421 41.2905L53.4308 41.896L53.5735 42.503L53.6658 43.0626V43.6218V44.1346L53.6197 44.648L53.5267 45.1152L53.3844 45.5354L53.2421 45.9084L53.0525 46.2351L52.8172 46.5156L52.5783 46.7479L52.296 46.8882L52.0103 46.9347H51.7281L51.397 46.8406L51.0648 46.702L50.7328 46.4213L50.4044 46.0946L50.0724 45.628L49.7409 45.0685L49.4091 44.3694L49.0764 43.5756L48.748 42.6893L48.463 41.6171L48.1813 40.4504L47.9915 41.1044L47.8495 41.8035L47.799 42.5493V43.3433L47.8958 44.1346L48.0384 44.9281L48.2276 45.722L48.463 46.4679L48.748 47.1673L49.0764 47.7742L49.4554 48.3335L49.837 48.8005L50.0262 48.9407L50.2616 49.1271L50.4505 49.2215L50.6866 49.3139L50.9219 49.3598H51.1607L51.397 49.3139L51.6322 49.2215L52.06 48.9875L52.5314 48.6602L53.0995 48.2417L53.6658 47.7283L54.2341 47.1209L54.8021 46.4213L55.3224 45.628L55.7971 44.7881L55.9864 44.3228L56.1291 43.8559L56.2685 43.3892L56.3645 42.8762L56.4114 42.3629V41.8501L56.3645 41.3364L56.3182 40.7779L56.1755 40.2163L55.9864 39.6573L55.7503 39.0499L55.4653 38.4906L55.0863 37.885L54.6625 37.2781L54.1409 36.6712L53.5735 36.0656Z" fill="#3B756C"/>
<path d="M35.1567 67.696V67.5769C35.3367 67.5725 35.5148 67.5404 35.6849 67.4819C35.8088 67.4403 35.9164 67.3611 35.9927 67.2556C36.0501 67.1343 36.081 67.0024 36.0835 66.8685C36.1006 66.6768 36.1093 66.3649 36.1094 65.9329V64.5451C36.1151 64.2866 36.1037 64.028 36.0753 63.771C36.0648 63.6566 36.024 63.5469 35.9571 63.4533C35.8756 63.3729 35.7737 63.3163 35.6622 63.2894C35.4978 63.2407 35.3281 63.2116 35.1567 63.2028V63.0769C35.2409 63.0791 35.3338 63.0808 35.4355 63.0819C35.5371 63.0829 35.6872 63.0834 35.8857 63.0834C36.1299 63.0834 36.3119 63.0829 36.4318 63.0819C36.5517 63.0808 36.6613 63.0781 36.7606 63.0737C36.7456 63.3003 36.7342 63.4992 36.7267 63.6706C36.7191 63.8419 36.7153 63.9804 36.7153 64.0859V66.3154C36.7083 66.5655 36.7208 66.8157 36.7526 67.0639C36.7668 67.1713 36.8111 67.2726 36.8804 67.3562C36.9658 67.4335 37.0697 67.4876 37.1822 67.5135C37.3455 67.5542 37.513 67.5759 37.6813 67.5779V67.6971C37.338 67.6906 37.0799 67.6868 36.9069 67.6856C36.7338 67.6844 36.5729 67.684 36.424 67.6842C36.2751 67.6842 36.1142 67.6847 35.9413 67.6856C35.7683 67.6865 35.5068 67.69 35.1567 67.696Z" fill="#3B756C"/>
<path d="M38.4321 67.8602L38.3673 67.7218C38.8547 67.4938 39.3008 67.1873 39.6878 66.8149C40.0102 66.4956 40.2526 66.1055 40.3957 65.6761C40.243 65.7667 40.0798 65.8386 39.9098 65.8902C39.7551 65.9359 39.5947 65.9592 39.4334 65.9594C39.2501 65.9684 39.0669 65.9389 38.8957 65.873C38.7245 65.8071 38.5691 65.7062 38.4396 65.5769C38.3101 65.4475 38.2094 65.2925 38.1439 65.122C38.0784 64.9515 38.0497 64.7692 38.0595 64.5869C38.0521 64.3778 38.0884 64.1694 38.1662 63.9749C38.244 63.7804 38.3616 63.6041 38.5115 63.4572C38.6656 63.3102 38.8478 63.1955 39.0474 63.12C39.2469 63.0444 39.4597 63.0096 39.6731 63.0175C39.8901 63.0057 40.1072 63.0387 40.3107 63.1144C40.5143 63.19 40.6999 63.3067 40.8558 63.4572C41.0049 63.6203 41.1197 63.8113 41.1937 64.019C41.2677 64.2268 41.2993 64.4471 41.2867 64.6671C41.2881 65.374 41.0201 66.0552 40.5366 66.5735C39.9627 67.1809 39.2362 67.625 38.4321 67.8602ZM40.4637 65.453C40.4977 65.3181 40.5243 65.1815 40.5432 65.0438C40.5612 64.9124 40.5704 64.7801 40.5707 64.6475C40.5897 64.2774 40.5032 63.9095 40.3213 63.586C40.2546 63.4665 40.1568 63.3671 40.038 63.2982C39.9193 63.2293 39.7841 63.1935 39.6467 63.1945C39.5176 63.191 39.3897 63.2186 39.2737 63.275C39.1578 63.3314 39.0573 63.4148 38.9809 63.5183C38.8061 63.7915 38.7189 64.111 38.7307 64.4346C38.7426 64.7582 38.853 65.0706 39.0473 65.3305C39.1477 65.4485 39.2735 65.5425 39.4154 65.6055C39.5573 65.6686 39.7116 65.699 39.867 65.6946C39.9779 65.6961 40.088 65.6758 40.191 65.635C40.2928 65.5924 40.3854 65.5306 40.4637 65.453V65.453Z" fill="#3B756C"/>
<path d="M41.5814 67.7091L41.5361 67.6157C42.1694 67.1064 42.7423 66.5271 43.2437 65.8888C43.6044 65.3945 43.7848 64.9478 43.7848 64.5486C43.8 64.2906 43.7206 64.0358 43.5613 63.8316C43.4844 63.7448 43.3888 63.6764 43.2817 63.6315C43.1745 63.5866 43.0585 63.5663 42.9424 63.5723C42.7455 63.5747 42.5527 63.6286 42.3833 63.7285C42.1768 63.8514 41.9932 64.009 41.8406 64.1942L41.7403 64.1135C41.8935 63.7955 42.116 63.5154 42.3915 63.2935C42.6273 63.1191 42.9143 63.0269 43.2081 63.031C43.3724 63.0274 43.5356 63.0588 43.6867 63.123C43.8379 63.1871 43.9735 63.2827 44.0845 63.4032C44.3202 63.6548 44.4466 63.9888 44.436 64.3325C44.436 64.7301 44.2659 65.157 43.9257 65.6132C43.4596 66.1935 42.9225 66.7135 42.3267 67.1613L43.5062 67.1485C43.673 67.1528 43.8399 67.1432 44.0051 67.1195C44.0896 67.1065 44.1696 67.0733 44.2384 67.0228C44.3201 66.9486 44.3935 66.8657 44.4571 66.7756C44.55 66.6465 44.636 66.5127 44.7147 66.3746L44.8281 66.4293L44.3291 67.6955C44.0308 67.6912 43.7986 67.6879 43.6325 67.6858C43.4663 67.6837 43.3119 67.6826 43.1693 67.6826C42.8775 67.6826 42.601 67.6847 42.3397 67.689C42.0783 67.6932 41.8256 67.6999 41.5814 67.7091Z" fill="#3B756C"/>
<path d="M45.4082 67.861L45.3434 67.7226C45.8307 67.4946 46.2768 67.1881 46.6637 66.8157C46.9861 66.4964 47.2286 66.1063 47.3717 65.6769C47.219 65.7676 47.0558 65.8395 46.8857 65.891C46.7311 65.9367 46.5707 65.96 46.4095 65.9602C46.2262 65.9691 46.043 65.9397 45.8718 65.8738C45.7006 65.8079 45.5452 65.707 45.4157 65.5777C45.2862 65.4483 45.1855 65.2933 45.12 65.1228C45.0545 64.9523 45.0257 64.77 45.0356 64.5877C45.0282 64.3786 45.0645 64.1701 45.1424 63.9756C45.2202 63.7812 45.3378 63.6049 45.4878 63.458C45.8116 63.1748 46.2282 63.0186 46.6595 63.0186C47.0908 63.0186 47.5073 63.1748 47.8312 63.458C47.9802 63.6211 48.0951 63.8121 48.1691 64.0198C48.243 64.2276 48.2747 64.4479 48.2621 64.6679C48.2635 65.3748 47.9955 66.056 47.512 66.5743C46.9382 67.1815 46.212 67.6257 45.4082 67.861V67.861ZM47.4397 65.4538C47.4738 65.3189 47.5004 65.1823 47.5193 65.0446C47.5373 64.9132 47.5464 64.7808 47.5466 64.6483C47.5657 64.2782 47.4792 63.9102 47.2972 63.5868C47.2306 63.4672 47.1328 63.3677 47.014 63.2988C46.8953 63.2299 46.76 63.1941 46.6226 63.1953C46.4935 63.1918 46.3655 63.2194 46.2495 63.2757C46.1336 63.3321 46.0331 63.4156 45.9566 63.5191C45.7819 63.7923 45.6947 64.1119 45.7066 64.4354C45.7185 64.759 45.8289 65.0714 46.0232 65.3313C46.1235 65.4493 46.2493 65.5433 46.3912 65.6063C46.5331 65.6694 46.6875 65.6998 46.8429 65.6954C46.9538 65.6969 47.064 65.6766 47.1671 65.6358C47.2689 65.5931 47.3615 65.5313 47.4397 65.4538V65.4538Z" fill="#3B756C"/>
<path d="M32.9509 65.4937H28.1582V65.6702H32.9509V65.4937Z" fill="#3B756C"/>
<path d="M55.5575 65.4937H50.7646V65.6702H55.5575V65.4937Z" fill="#3B756C"/>
<path d="M28.2305 61.6655L28.228 61.5728C28.4133 61.5809 28.5957 61.5254 28.7447 61.4155C28.8305 61.3274 28.8733 61.1214 28.8732 60.7977V58.9767C28.8732 58.6488 28.8321 58.4391 28.7498 58.3475C28.6116 58.2341 28.4374 58.1729 28.2582 58.1749V58.082C28.4212 58.082 28.6472 58.0837 28.9362 58.0871C29.2252 58.0906 29.4327 58.0922 29.5586 58.0921C29.7755 58.0921 29.9977 58.0913 30.2253 58.0896C30.4529 58.088 30.7162 58.0854 31.0153 58.082L30.9372 58.9189H30.8616C30.8689 58.8177 30.8533 58.7161 30.816 58.6216C30.7787 58.5271 30.7207 58.4421 30.646 58.3728C30.5125 58.2725 30.2534 58.2224 29.8686 58.2224H29.3596V59.7811H29.9517C30.1434 59.7957 30.3351 59.752 30.5012 59.6557C30.5619 59.6076 30.6105 59.5461 30.6433 59.4761C30.6761 59.4061 30.6922 59.3296 30.6902 59.2524L30.7733 59.2549C30.7651 59.4186 30.7588 59.5727 30.7545 59.7172C30.7503 59.8617 30.7481 60.0016 30.7481 60.1368C30.7481 60.2506 30.7486 60.3367 30.7495 60.395C30.7505 60.4534 30.7508 60.5076 30.7506 60.5578H30.6752C30.6829 60.4794 30.6721 60.4002 30.6436 60.3267C30.6152 60.2531 30.5699 60.1872 30.5113 60.1341C30.3482 60.0348 30.1575 59.9901 29.967 60.0065H29.3596V60.7723C29.3596 61.0847 29.41 61.2891 29.5107 61.3855C29.6114 61.4819 29.8206 61.5443 30.1383 61.5726V61.6653H30.1081C29.6813 61.6586 29.3646 61.6552 29.158 61.6552C29.0436 61.6552 28.9214 61.6561 28.7913 61.6577L28.2305 61.6655Z" fill="#3B756C"/>
<path d="M31.3037 59.8586C31.2924 59.6116 31.334 59.3649 31.4258 59.1351C31.5176 58.9053 31.6576 58.6975 31.8363 58.5255C32.2265 58.1803 32.7373 58.0012 33.2589 58.0268C33.5151 58.0147 33.7711 58.054 34.0117 58.1425C34.2522 58.231 34.4724 58.3668 34.659 58.5417C34.8364 58.7219 34.9747 58.9365 35.065 59.1721C35.1554 59.4077 35.196 59.6593 35.1843 59.9112C35.1947 60.1567 35.1523 60.4016 35.06 60.6296C34.9676 60.8575 34.8275 61.0632 34.6488 61.233C34.2596 61.5783 33.7496 61.7578 33.2286 61.733C32.9726 61.745 32.7169 61.7059 32.4764 61.618C32.2359 61.5301 32.0156 61.3951 31.8285 61.221C31.6513 61.0422 31.5132 60.8289 31.4229 60.5944C31.3325 60.3599 31.292 60.1094 31.3037 59.8586ZM31.9187 59.7859C31.8982 60.2469 32.0329 60.7015 32.3017 61.0777C32.4115 61.2338 32.558 61.3609 32.7284 61.448C32.8988 61.5351 33.0879 61.5796 33.2795 61.5776C33.4603 61.5829 33.6398 61.5455 33.8032 61.4684C33.9666 61.3913 34.1093 61.2768 34.2196 61.1342C34.471 60.7922 34.5963 60.3746 34.5746 59.9515C34.5754 59.7383 34.5474 59.5259 34.4915 59.32C34.4418 59.1306 34.3618 58.9504 34.2545 58.7862C34.1373 58.5991 33.9783 58.4414 33.7898 58.3253C33.5426 58.1887 33.255 58.1432 32.9774 58.1968C32.6999 58.2504 32.4503 58.3997 32.2725 58.6184C32.0232 58.9558 31.8982 59.3682 31.9187 59.7864V59.7859Z" fill="#3B756C"/>
<path d="M35.8511 60.2905V58.9744C35.8565 58.8227 35.8468 58.671 35.8222 58.5212C35.8083 58.452 35.7715 58.3893 35.7176 58.3433C35.6527 58.2935 35.5793 58.2558 35.5009 58.2319C35.4066 58.204 35.3092 58.1876 35.2109 58.183V58.0903C35.3202 58.0937 35.4369 58.0962 35.5612 58.0977C35.6855 58.0993 35.8737 58.1002 36.1258 58.1004C36.3811 58.1004 36.5722 58.0995 36.699 58.0977C36.8259 58.096 36.9443 58.0935 37.0541 58.0903L37.0566 58.183C36.8519 58.1659 36.6482 58.2258 36.4858 58.3509C36.3875 58.4543 36.3383 58.6603 36.3383 58.9687V60.2407C36.3323 60.4352 36.3514 60.6296 36.3951 60.8192C36.429 60.9474 36.4944 61.0653 36.5854 61.1622C36.6948 61.2752 36.8295 61.361 36.9785 61.4125C37.1508 61.4733 37.3325 61.5032 37.5153 61.5008C37.7272 61.5092 37.9377 61.463 38.1264 61.3668C38.2949 61.2666 38.4275 61.1164 38.5056 60.9373C38.5619 60.8013 38.5955 60.6572 38.6052 60.5105C38.6245 60.3244 38.6342 60.0277 38.6342 59.6203C38.6395 59.3437 38.629 59.067 38.6027 58.7917C38.5928 58.6701 38.5565 58.5522 38.4962 58.446C38.4344 58.358 38.3475 58.2904 38.2468 58.2518C38.1167 58.2051 37.9794 58.1818 37.8411 58.183V58.0903C37.9334 58.0937 38.0318 58.0963 38.136 58.0977C38.2402 58.0992 38.398 58.1004 38.6097 58.1004C38.8213 58.1004 38.9825 58.1004 39.0872 58.0977C39.192 58.0951 39.2893 58.0937 39.3784 58.0903V58.183H39.3683C39.283 58.175 39.1973 58.1931 39.1226 58.2347C39.0479 58.2763 38.9877 58.3396 38.95 58.416C38.8744 58.5711 38.8365 58.9626 38.8365 59.5904C38.8365 59.6437 38.8357 59.7238 38.8341 59.8307C38.8273 60.4117 38.7785 60.8064 38.6878 61.015C38.5863 61.2526 38.4032 61.4465 38.1711 61.5622C37.8915 61.6951 37.5838 61.759 37.2741 61.7486C37.0238 61.7546 36.7745 61.7156 36.5382 61.6335C36.3499 61.5677 36.1851 61.4484 36.0643 61.2904C35.9868 61.1829 35.9316 61.0611 35.9019 60.9322C35.8619 60.7207 35.8449 60.5056 35.8511 60.2905V60.2905Z" fill="#3B756C"/>
<path d="M39.6243 61.6647L39.6217 61.5721C39.7268 61.5783 39.8319 61.5578 39.9269 61.5126C40.0219 61.4673 40.1038 61.3988 40.1649 61.3134C40.2614 61.1543 40.3097 60.8258 40.3098 60.3277V59.3433C40.3098 59.2984 40.3098 59.2384 40.3123 59.1636C40.3148 59.0887 40.3148 59.0361 40.3148 59.0061C40.3198 58.8792 40.3027 58.7524 40.2643 58.6313C40.2283 58.5396 40.1714 58.4575 40.098 58.3914C40.0291 58.3294 39.9492 58.2806 39.8624 58.2477C39.7642 58.2106 39.661 58.1882 39.5562 58.1815V58.0889C39.6117 58.0889 39.6923 58.0905 39.7981 58.0938C39.9039 58.0971 39.9812 58.0988 40.03 58.0989C40.0804 58.0989 40.1535 58.0972 40.2492 58.0938C40.345 58.0904 40.4147 58.0888 40.4584 58.0889L43.039 60.8324V59.6508C43.0459 59.3513 43.0337 59.0516 43.0024 58.7537C42.9902 58.6295 42.9454 58.5106 42.8727 58.4089C42.8146 58.3379 42.7378 58.2843 42.6509 58.2541C42.5366 58.2135 42.417 58.1891 42.2959 58.1815V58.0889C42.3868 58.0922 42.484 58.0949 42.5883 58.0963C42.6925 58.0977 42.8444 58.0989 43.0445 58.0989C43.2446 58.0989 43.3893 58.0989 43.4843 58.0963C43.5792 58.0936 43.6661 58.0922 43.7451 58.0889V58.1815H43.7048C43.6192 58.179 43.5352 58.2045 43.4657 58.2542C43.3962 58.3039 43.345 58.3749 43.3202 58.4564C43.2285 58.7889 43.1915 59.134 43.2107 59.4783V60.5727C43.2107 60.8276 43.2128 61.0536 43.2171 61.2506C43.2213 61.4476 43.2268 61.63 43.2336 61.7978H43.2031C43.099 61.6781 42.9861 61.549 42.8641 61.4104L42.6614 61.18L40.4786 58.8838V59.8954C40.4786 60.3936 40.4883 60.729 40.5076 60.9016C40.5145 61.0307 40.5485 61.1569 40.6072 61.2723C40.6588 61.3504 40.7324 61.4118 40.8188 61.4488C40.951 61.5058 41.0898 61.5461 41.2321 61.5687V61.664H41.217C40.8619 61.6573 40.5973 61.654 40.4232 61.654C40.3257 61.654 40.2207 61.6548 40.1081 61.6564C39.9955 61.6581 39.8343 61.6608 39.6243 61.6647Z" fill="#3B756C"/>
<path d="M43.9976 61.6647V61.572C44.1907 61.576 44.3798 61.5165 44.5355 61.4027C44.6461 61.2483 44.6952 61.0586 44.6731 60.8703V58.8429C44.692 58.6705 44.6462 58.4971 44.5444 58.3563C44.4039 58.2467 44.2315 58.1854 44.053 58.1815V58.0888C44.342 58.0854 44.6494 58.0808 44.9752 58.0751C45.3011 58.0693 45.4859 58.0664 45.5299 58.0664C46.2824 58.0664 46.8721 58.2293 47.299 58.555C47.5066 58.7099 47.6733 58.9126 47.7848 59.1456C47.8964 59.3787 47.9493 59.6352 47.9392 59.8931C47.9497 60.144 47.8997 60.3937 47.7934 60.6215C47.6871 60.8493 47.5275 61.0484 47.3279 61.2024C46.9205 61.5201 46.3589 61.679 45.6431 61.679C45.5054 61.679 45.2513 61.6769 44.881 61.6728C44.5106 61.6687 44.2162 61.666 43.9976 61.6647ZM45.1693 60.7249C45.1693 61.0574 45.2231 61.2784 45.3307 61.3877C45.4382 61.497 45.639 61.5518 45.9329 61.5519C46.1203 61.5573 46.3067 61.5213 46.4784 61.4463C46.6502 61.3713 46.803 61.2593 46.9258 61.1183C47.2028 60.7585 47.3383 60.3106 47.307 59.8586C47.2757 59.4066 47.0797 58.9814 46.7557 58.6627C46.3853 58.3436 45.8716 58.184 45.2147 58.1842H45.1693V60.7249Z" fill="#3B756C"/>
<path d="M47.9971 61.6655V61.5728C48.1923 61.5677 48.382 61.5072 48.5439 61.3986C48.6328 61.3162 48.6773 61.1387 48.6774 60.866V58.899C48.6774 58.6112 48.6333 58.4212 48.5451 58.3288C48.4059 58.2184 48.2302 58.1635 48.0525 58.1749V58.082C48.2204 58.0862 48.3993 58.0889 48.5891 58.0901C48.779 58.0914 49.0546 58.0921 49.4159 58.0921C49.8376 58.0921 50.1463 58.0914 50.3419 58.0901C50.5376 58.0889 50.7136 58.087 50.8699 58.0847C50.8547 58.1981 50.8416 58.32 50.8309 58.4504C50.8201 58.5808 50.8096 58.7303 50.7994 58.899H50.7206C50.7243 58.8016 50.7072 58.7044 50.6705 58.614C50.6338 58.5236 50.5782 58.442 50.5076 58.3744C50.3057 58.2577 50.0722 58.2065 49.8397 58.2278H49.1651V59.7062H49.6842C49.8865 59.7233 50.0897 59.686 50.2725 59.5984C50.3328 59.5513 50.3824 59.4922 50.4182 59.4249C50.454 59.3576 50.4752 59.2835 50.4804 59.2076H50.5637C50.5637 59.3011 50.5599 59.4482 50.5523 59.6489C50.5447 59.8495 50.541 60.0057 50.5411 60.1175V60.4132H50.4653C50.4651 60.3402 50.4477 60.2683 50.4145 60.2033C50.3812 60.1382 50.3331 60.0818 50.2739 60.0386C50.0917 59.953 49.89 59.9164 49.6891 59.9327H49.1651V60.8448C49.1651 61.1237 49.2222 61.3075 49.3364 61.3961C49.4506 61.4847 49.6732 61.529 50.0043 61.5288C50.2626 61.5438 50.5175 61.464 50.7206 61.3047C50.9119 61.1201 51.0341 60.8762 51.0672 60.6132L51.1504 60.6231C51.1412 60.8093 51.1197 60.9948 51.0862 61.1783C51.0553 61.3473 51.011 61.5136 50.9537 61.6757C50.7104 61.669 50.4441 61.6639 50.1548 61.6605C49.8656 61.6571 49.5506 61.6555 49.2098 61.6556C48.8924 61.6556 48.6487 61.6564 48.4789 61.6581C48.3091 61.6597 48.1484 61.6622 47.9971 61.6655Z" fill="#3B756C"/>
<path d="M51.3779 61.6647V61.572C51.5711 61.576 51.7602 61.5165 51.9159 61.4027C52.0265 61.2483 52.0755 61.0586 52.0534 60.8703V58.8429C52.0723 58.6705 52.0265 58.4972 51.9247 58.3563C51.7842 58.2467 51.6118 58.1854 51.4333 58.1815V58.0888C51.7221 58.0854 52.0298 58.0808 52.3565 58.0751C52.6832 58.0693 52.8679 58.0664 52.9108 58.0664C53.6635 58.0664 54.2533 58.2293 54.6801 58.555C54.8876 58.71 55.0543 58.9126 55.1658 59.1457C55.2773 59.3787 55.3302 59.6352 55.3201 59.8931C55.3306 60.144 55.2806 60.3937 55.1743 60.6214C55.068 60.8492 54.9085 61.0484 54.709 61.2024C54.3015 61.5201 53.7399 61.679 53.0242 61.679C52.8864 61.679 52.6323 61.6769 52.2619 61.6728C51.8914 61.6687 51.5968 61.666 51.3779 61.6647ZM52.5497 60.7249C52.5497 61.0574 52.6034 61.2784 52.711 61.3877C52.8186 61.497 53.0194 61.5518 53.3134 61.5519C53.5009 61.5573 53.6872 61.5213 53.859 61.4463C54.0307 61.3713 54.1835 61.2593 54.3064 61.1183C54.5832 60.7585 54.7187 60.3106 54.6873 59.8586C54.656 59.4065 54.46 58.9814 54.1361 58.6627C53.7658 58.3436 53.2521 58.184 52.5951 58.1842H52.5497V60.7249Z" fill="#3B756C"/>
<path d="M29.8145 51.382C29.74 51.3133 29.6988 51.2734 29.6764 51.2501C29.6556 51.2348 29.631 51.2164 29.601 51.1938C29.4023 51.0438 29.2116 50.8967 29.0277 50.7349L10.3332 73.4945L10.3474 73.5086C10.2344 73.61 10.1455 73.7352 10.0872 73.875C10.0289 74.0148 10.0025 74.1657 10.0101 74.3169C10.0176 74.4681 10.0588 74.6157 10.1308 74.7491C10.2028 74.8824 10.3037 74.9982 10.4262 75.088C10.5487 75.1779 10.6897 75.2395 10.8392 75.2685C10.9886 75.2974 11.1426 75.293 11.2901 75.2555C11.4375 75.218 11.5748 75.1484 11.6919 75.0517C11.8089 74.9549 11.9029 74.8335 11.967 74.6963L30.7975 51.8623C30.4294 51.802 30.0874 51.6349 29.8145 51.382Z" fill="#3B756C"/>
</svg>
