<svg width="217" height="67" viewBox="0 0 217 67" fill="none" xmlns="http://www.w3.org/2000/svg">
<mask id="path-1-outside-1_885_122710" maskUnits="userSpaceOnUse" x="0" y="1" width="217" height="66" fill="black">
<rect fill="white" y="1" width="217" height="66"/>
<path fill-rule="evenodd" clip-rule="evenodd" d="M40.9593 4.5C42.114 2.5 45.0007 2.5 46.1554 4.5L53.9497 18H168.165L175.959 4.5C177.114 2.5 180.001 2.5 181.155 4.5L188.95 18H191.5C204.479 18 215 28.5213 215 41.5C215 54.4787 204.479 65 191.5 65H25.5C12.5213 65 2 54.4787 2 41.5C2 28.5213 12.5213 18 25.5 18H33.1651L40.9593 4.5Z"/>
</mask>
<path fill-rule="evenodd" clip-rule="evenodd" d="M40.9593 4.5C42.114 2.5 45.0007 2.5 46.1554 4.5L53.9497 18H168.165L175.959 4.5C177.114 2.5 180.001 2.5 181.155 4.5L188.95 18H191.5C204.479 18 215 28.5213 215 41.5C215 54.4787 204.479 65 191.5 65H25.5C12.5213 65 2 54.4787 2 41.5C2 28.5213 12.5213 18 25.5 18H33.1651L40.9593 4.5Z" fill="#FAA685"/>
<path d="M46.1554 4.5L47.8875 3.5V3.5L46.1554 4.5ZM40.9593 4.5L39.2272 3.5V3.5L40.9593 4.5ZM53.9497 18L52.2176 19L52.795 20H53.9497V18ZM168.165 18V20H169.32L169.897 19L168.165 18ZM175.959 4.5L174.227 3.49999L174.227 3.5L175.959 4.5ZM181.155 4.5L179.423 5.5V5.5L181.155 4.5ZM188.95 18L187.218 19L187.795 20H188.95V18ZM33.1651 18V20H34.3198L34.8971 19L33.1651 18ZM47.8875 3.5C45.963 0.16667 41.1517 0.166664 39.2272 3.5L42.6913 5.5C43.0762 4.83333 44.0385 4.83333 44.4234 5.5L47.8875 3.5ZM55.6817 17L47.8875 3.5L44.4234 5.5L52.2176 19L55.6817 17ZM168.165 16H53.9497V20H168.165V16ZM174.227 3.5L166.433 17L169.897 19L177.691 5.5L174.227 3.5ZM182.887 3.50001C180.963 0.16666 176.152 0.166674 174.227 3.49999L177.691 5.5C178.076 4.83332 179.038 4.83334 179.423 5.5L182.887 3.50001ZM190.682 17L182.887 3.5L179.423 5.5L187.218 19L190.682 17ZM191.5 16H188.95V20H191.5V16ZM217 41.5C217 27.4167 205.583 16 191.5 16V20C203.374 20 213 29.6259 213 41.5H217ZM191.5 67C205.583 67 217 55.5833 217 41.5H213C213 53.3741 203.374 63 191.5 63V67ZM25.5 67H191.5V63H25.5V67ZM0 41.5C0 55.5833 11.4167 67 25.5 67V63C13.6259 63 4 53.3741 4 41.5H0ZM25.5 16C11.4167 16 0 27.4167 0 41.5H4C4 29.6259 13.6259 20 25.5 20V16ZM33.1651 16H25.5V20H33.1651V16ZM39.2272 3.5L31.433 17L34.8971 19L42.6913 5.5L39.2272 3.5Z" fill="#A56953" mask="url(#path-1-outside-1_885_122710)"/>
<rect x="2" y="18" width="213" height="47" rx="23.5" fill="#FFFEFC"/>
<path d="M40.9593 4.5C42.114 2.5 45.0007 2.5 46.1554 4.5L56.1147 21.75H31L40.9593 4.5Z" fill="#FFFEFC"/>
<path d="M40.9014 9.50416C42.0559 7.50305 44.9441 7.50305 46.0986 9.50416L51 18H36L40.9014 9.50416Z" fill="#FAA685"/>
<path d="M175.959 4.5C177.114 2.5 180.001 2.5 181.155 4.5L191.115 21.75H166L175.959 4.5Z" fill="#FFFEFC"/>
<path d="M175.901 9.50416C177.056 7.50305 179.944 7.50305 181.099 9.50416L186 18H171L175.901 9.50416Z" fill="#FAA685"/>
<path d="M35.0075 44.0003C35.6613 42.7711 36.0022 41.3995 36 40.007C36 35.3086 32.1945 31.5 27.5 31.5C22.8055 31.5 19 35.3086 19 40.007C18.9966 42.0138 19.7054 43.9566 21 45.489L21.01 45.5015C21.0135 45.5045 21.0165 45.5085 21.019 45.5115H21L26.044 50.8709C26.231 51.0695 26.4566 51.2278 26.7069 51.336C26.9573 51.4442 27.2271 51.5 27.4998 51.5C27.7724 51.5 28.0422 51.4442 28.2926 51.336C28.5429 51.2278 28.7685 51.0695 28.9555 50.8709L34 45.5115H33.981L33.989 45.502L33.99 45.501C34.026 45.458 34.062 45.4149 34.0975 45.3709C34.4443 44.9443 34.7491 44.4856 35.0075 44.0003ZM27.5025 43.2592C26.7069 43.2592 25.9438 42.9428 25.3812 42.3798C24.8186 41.8167 24.5025 41.053 24.5025 40.2567C24.5025 39.4604 24.8186 38.6967 25.3812 38.1336C25.9438 37.5706 26.7069 37.2542 27.5025 37.2542C28.2981 37.2542 29.0612 37.5706 29.6238 38.1336C30.1864 38.6967 30.5025 39.4604 30.5025 40.2567C30.5025 41.053 30.1864 41.8167 29.6238 42.3798C29.0612 42.9428 28.2981 43.2592 27.5025 43.2592Z" fill="#A56953"/>
<path d="M65.9754 34.5337C64.0104 40.4529 62.618 45.293 61.7982 49.0542H58.3083C57.7899 46.8361 57.0967 44.2322 56.2287 41.2425C55.3849 38.2889 54.6374 35.8839 53.9865 34.0274H56.6627C56.9882 35.4861 57.5186 37.4933 58.254 40.049C59.0014 42.5927 59.6283 44.5697 60.1346 45.9802C60.6289 44.6541 61.2136 42.7916 61.8887 40.3926C62.5517 38.0418 63.046 36.0889 63.3714 34.5337H65.9754ZM69.077 36.559C69.077 36.9327 68.9263 37.2522 68.6249 37.5174C68.3356 37.7706 67.98 37.8971 67.558 37.8971C67.1361 37.8971 66.7745 37.7706 66.4731 37.5174C66.1838 37.2522 66.0391 36.9327 66.0391 36.559C66.0391 36.1853 66.1838 35.8719 66.4731 35.6187C66.7745 35.3535 67.1361 35.2209 67.558 35.2209C67.98 35.2209 68.3356 35.3535 68.6249 35.6187C68.9263 35.8719 69.077 36.1853 69.077 36.559ZM68.7696 49H66.238C66.3706 47.8306 66.4369 46.1309 66.4369 43.9006C66.4369 41.6584 66.3706 39.9827 66.238 38.8736H68.7696C68.6249 40.0189 68.5586 41.6765 68.5707 43.8464C68.5827 45.7993 68.649 47.5172 68.7696 49ZM76.4073 46.6492C76.347 47.3725 76.0999 47.9633 75.6659 48.4213C75.0993 49.0241 74.2735 49.3255 73.1886 49.3255C72.0192 49.3255 71.1573 48.9819 70.6027 48.2948C70.2049 47.8005 70.006 47.246 70.006 46.6312V45.6366H72.1579V46.5407C72.1579 46.7698 72.2483 46.9687 72.4291 47.1375C72.622 47.3062 72.8812 47.3906 73.2067 47.3906C73.8456 47.3906 74.1952 47.1435 74.2555 46.6492C74.3037 46.2032 73.9722 45.8114 73.2609 45.4739L71.9409 44.841C70.663 44.2261 70.0241 43.2436 70.0241 41.8935C70.0241 41.7126 70.0361 41.5197 70.0603 41.3148C70.1808 40.3986 70.5605 39.6753 71.1995 39.1449C71.7661 38.6627 72.4291 38.4216 73.1886 38.4216C73.9842 38.4216 74.6533 38.6807 75.1958 39.1991C75.7865 39.7657 76.0818 40.5312 76.0818 41.4956V42.3817H74.0746V41.4956C74.0746 41.1943 73.9842 40.9592 73.8034 40.7904C73.6226 40.6216 73.3995 40.5372 73.1343 40.5372C72.5557 40.5372 72.2121 40.8386 72.1036 41.4414C72.0916 41.5378 72.0855 41.6282 72.0855 41.7126C72.0855 42.1707 72.3327 42.5505 72.8269 42.8518C72.8631 42.876 73.3031 43.0809 74.147 43.4667C75.7744 44.202 76.5279 45.2629 76.4073 46.6492ZM80.1861 36.559C80.1861 36.9327 80.0354 37.2522 79.734 37.5174C79.4447 37.7706 79.089 37.8971 78.6671 37.8971C78.2452 37.8971 77.8835 37.7706 77.5821 37.5174C77.2928 37.2522 77.1482 36.9327 77.1482 36.559C77.1482 36.1853 77.2928 35.8719 77.5821 35.6187C77.8835 35.3535 78.2452 35.2209 78.6671 35.2209C79.089 35.2209 79.4447 35.3535 79.734 35.6187C80.0354 35.8719 80.1861 36.1853 80.1861 36.559ZM79.8787 49H77.3471C77.4797 47.8306 77.546 46.1309 77.546 43.9006C77.546 41.6584 77.4797 39.9827 77.3471 38.8736H79.8787C79.734 40.0189 79.6677 41.6765 79.6797 43.8464C79.6918 45.7993 79.7581 47.5172 79.8787 49ZM88.6737 46.2152C88.6255 46.806 88.4808 47.3123 88.2397 47.7342C87.6369 48.7468 86.5761 49.2532 85.0571 49.2532C83.948 49.2532 83.1042 48.771 82.5255 47.8065C81.983 46.9265 81.7419 45.8054 81.8022 44.4431C81.8263 43.8645 81.8504 42.7433 81.8745 41.0797C81.3441 41.1038 80.9403 41.1279 80.663 41.1521V38.8736C80.7233 38.8857 81.1211 38.9218 81.8565 38.9821C81.8444 38.3311 81.8143 37.4391 81.7661 36.3059H84.2796C84.2193 37.1497 84.1892 38.0659 84.1892 39.0545C85.3947 39.0545 86.5038 38.9942 87.5164 38.8736V41.1521C86.0577 41.0677 84.9547 41.0255 84.2072 41.0255C84.2072 41.4715 84.2133 42.008 84.2253 42.6348C84.2615 43.551 84.2796 44.1659 84.2796 44.4793C84.3157 46.3599 84.7075 47.3304 85.4549 47.3906C86.0939 47.4389 86.4616 47.0471 86.558 46.2152H88.6737ZM100.101 49.6148C98.4499 49.6148 97.2323 49.1507 96.4487 48.2224C95.8942 47.5835 95.6169 46.8542 95.6169 46.0344V44.9856H98.0943V45.9078C98.0943 46.39 98.2872 46.7879 98.6729 47.1013C99.0587 47.4147 99.5469 47.5715 100.138 47.5715C101.379 47.5715 102.054 47.0772 102.163 46.0887C102.259 45.2207 101.669 44.4974 100.391 43.9187L98.3655 42.9965C96.5693 42.1768 95.6712 40.8446 95.6712 39.0002C95.6712 38.735 95.6893 38.4637 95.7254 38.1865C95.8942 37.0051 96.3764 36.0587 97.172 35.3475C97.9797 34.6242 98.9321 34.2565 100.029 34.2444C101.271 34.2324 102.265 34.6181 103.013 35.4017C103.772 36.1733 104.152 37.1738 104.152 38.4035V39.3076H101.91V38.4035C101.91 37.8851 101.741 37.4511 101.403 37.1015C101.03 36.7157 100.554 36.5349 99.9749 36.559C99.4806 36.5831 99.0527 36.7459 98.691 37.0473C98.3293 37.3366 98.1063 37.7344 98.0219 38.2407C97.9978 38.4095 97.9858 38.5662 97.9858 38.7109C97.9858 39.6753 98.5162 40.3986 99.5771 40.8808L101.422 41.7126C103.591 42.6891 104.676 43.973 104.676 45.5643C104.676 46.8903 104.248 47.909 103.393 48.6203C102.597 49.2833 101.5 49.6148 100.101 49.6148ZM113.523 45.2388C113.499 46.2755 113.143 47.1977 112.456 48.0054C111.708 48.8734 110.786 49.3074 109.689 49.3074C108.46 49.3074 107.429 48.8373 106.597 47.8969C105.705 46.8843 105.265 45.5462 105.277 43.8826C105.289 42.2551 105.705 40.9411 106.525 39.9405C107.344 38.9399 108.429 38.4336 109.78 38.4216C111.021 38.4095 111.968 38.8254 112.619 39.6693C113.161 40.3805 113.45 41.3088 113.487 42.454L111.262 42.5806C111.238 41.146 110.702 40.4287 109.653 40.4287C108.966 40.4287 108.435 40.7904 108.062 41.5137C107.712 42.1888 107.537 43.0809 107.537 44.19C107.537 45.1182 107.742 45.8536 108.152 46.3961C108.562 46.9386 109.062 47.2098 109.653 47.2098C110.557 47.2098 111.063 46.4805 111.172 45.0218L113.523 45.2388ZM122.581 49.4702H120.086C120.194 48.2767 120.23 46.7035 120.194 44.7505C120.17 43.316 120.134 42.3033 120.086 41.7126C120.049 41.2184 119.856 40.8627 119.507 40.6457C119.169 40.4287 118.784 40.3504 118.35 40.4107C117.843 40.4709 117.313 40.8627 116.758 41.586C116.758 44.1176 116.825 46.589 116.957 49H114.426C114.558 47.3364 114.618 44.8711 114.606 41.6041C114.606 39.386 114.546 37.0292 114.426 34.5337H116.957C116.849 35.8478 116.782 37.6259 116.758 39.8682C117.313 39.1449 118.024 38.729 118.892 38.6205C119.097 38.5964 119.296 38.5843 119.489 38.5843C120.381 38.5843 121.11 38.8013 121.677 39.2353C122.316 39.7175 122.617 40.3926 122.581 41.2606C122.545 42.0321 122.503 43.2135 122.454 44.8048C122.43 46.8662 122.472 48.4213 122.581 49.4702ZM136.727 49.0181H134.231C134.352 47.8728 134.394 46.2996 134.358 44.2985C134.334 43.0929 134.292 42.0803 134.231 41.2606C134.195 40.8145 134.032 40.4709 133.743 40.2298C133.478 40.0249 133.158 39.9224 132.785 39.9224C132.375 39.9224 131.929 40.0671 131.446 40.3564C131.495 40.5614 131.513 40.8025 131.501 41.0797C131.44 42.6107 131.404 43.7921 131.392 44.624C131.368 46.6492 131.404 48.2044 131.501 49.2893H129.023C129.132 48.0959 129.168 46.5227 129.132 44.5697C129.108 43.1472 129.072 42.1346 129.023 41.5318C128.987 41.0978 128.824 40.7603 128.535 40.5192C128.27 40.3142 127.95 40.2118 127.577 40.2118C127.046 40.2118 126.51 40.4167 125.967 40.8266C125.943 41.4534 125.937 42.4962 125.949 43.9549C125.961 45.7391 126.022 47.4208 126.13 49H123.599C123.695 47.5654 123.749 45.8235 123.761 43.7741C123.773 41.4474 123.719 39.621 123.599 38.295H126.13C126.082 38.6687 126.04 39.0545 126.004 39.4523C126.474 38.8495 127.082 38.512 127.83 38.4396C128.011 38.4276 128.192 38.4216 128.372 38.4216C129.469 38.4216 130.265 38.6687 130.759 39.1629C131.326 38.5964 132.091 38.2648 133.056 38.1684C133.249 38.1443 133.436 38.1322 133.616 38.1322C134.533 38.1322 135.268 38.3432 135.823 38.7651C136.461 39.2353 136.763 39.9164 136.727 40.8085C136.678 41.9296 136.642 43.105 136.618 44.3346C136.582 46.384 136.618 47.9452 136.727 49.0181ZM140.541 36.559C140.541 36.9327 140.39 37.2522 140.089 37.5174C139.8 37.7706 139.444 37.8971 139.022 37.8971C138.6 37.8971 138.239 37.7706 137.937 37.5174C137.648 37.2522 137.503 36.9327 137.503 36.559C137.503 36.1853 137.648 35.8719 137.937 35.6187C138.239 35.3535 138.6 35.2209 139.022 35.2209C139.444 35.2209 139.8 35.3535 140.089 35.6187C140.39 35.8719 140.541 36.1853 140.541 36.559ZM140.234 49H137.702C137.835 47.8306 137.901 46.1309 137.901 43.9006C137.901 41.6584 137.835 39.9827 137.702 38.8736H140.234C140.089 40.0189 140.023 41.6765 140.035 43.8464C140.047 45.7993 140.113 47.5172 140.234 49ZM149.029 46.2152C148.981 46.806 148.836 47.3123 148.595 47.7342C147.992 48.7468 146.931 49.2532 145.412 49.2532C144.303 49.2532 143.459 48.771 142.881 47.8065C142.338 46.9265 142.097 45.8054 142.157 44.4431C142.181 43.8645 142.206 42.7433 142.23 41.0797C141.699 41.1038 141.295 41.1279 141.018 41.1521V38.8736C141.078 38.8857 141.476 38.9218 142.212 38.9821C142.199 38.3311 142.169 37.4391 142.121 36.3059H144.635C144.574 37.1497 144.544 38.0659 144.544 39.0545C145.75 39.0545 146.859 38.9942 147.871 38.8736V41.1521C146.413 41.0677 145.31 41.0255 144.562 41.0255C144.562 41.4715 144.568 42.008 144.58 42.6348C144.617 43.551 144.635 44.1659 144.635 44.4793C144.671 46.3599 145.063 47.3304 145.81 47.3906C146.449 47.4389 146.817 47.0471 146.913 46.2152H149.029ZM156.579 46.2152C156.531 46.806 156.386 47.3123 156.145 47.7342C155.542 48.7468 154.481 49.2532 152.962 49.2532C151.853 49.2532 151.009 48.771 150.431 47.8065C149.888 46.9265 149.647 45.8054 149.707 44.4431C149.731 43.8645 149.756 42.7433 149.78 41.0797C149.249 41.1038 148.845 41.1279 148.568 41.1521V38.8736C148.628 38.8857 149.026 38.9218 149.762 38.9821C149.749 38.3311 149.719 37.4391 149.671 36.3059H152.185C152.124 37.1497 152.094 38.0659 152.094 39.0545C153.3 39.0545 154.409 38.9942 155.421 38.8736V41.1521C153.963 41.0677 152.86 41.0255 152.112 41.0255C152.112 41.4715 152.118 42.008 152.13 42.6348C152.167 43.551 152.185 44.1659 152.185 44.4793C152.221 46.3599 152.613 47.3304 153.36 47.3906C153.999 47.4389 154.367 47.0471 154.463 46.2152H156.579ZM172.618 49H170.104C170.152 47.5654 170.189 45.6426 170.213 43.2316C169.248 43.1592 168.314 43.1291 167.41 43.1412C166.578 43.1532 165.77 43.1834 164.987 43.2316C164.999 44.9073 165.047 46.7577 165.131 48.783H162.618C162.726 46.3237 162.787 43.8223 162.799 41.2786C162.799 38.5542 162.738 36.3059 162.618 34.5337H165.131C165.023 36.2456 164.969 38.3673 164.969 40.8989C165.849 40.9351 166.644 40.9592 167.356 40.9712C168.344 40.9833 169.296 40.9592 170.213 40.8989C170.213 37.9695 170.176 35.6549 170.104 33.9551H172.618C172.509 36.3661 172.455 38.735 172.455 41.0616C172.455 44.6179 172.509 47.264 172.618 49ZM182.2 49.2532C181.875 49.3496 181.567 49.3978 181.278 49.3978C180.555 49.3978 179.964 49.0784 179.506 48.4394C178.759 49.1869 177.903 49.5485 176.938 49.5244C175.938 49.5003 175.16 49.1748 174.605 48.5479C174.135 48.0175 173.9 47.4208 173.9 46.7577C173.9 46.0706 174.093 45.4919 174.479 45.0218C174.961 44.419 175.696 44.1176 176.685 44.1176C177.649 44.1176 178.469 44.3587 179.144 44.841V42.7976C179.144 41.3389 178.596 40.6096 177.499 40.6096C176.896 40.6096 176.426 40.9652 176.088 41.6765C175.823 42.2431 175.69 42.876 175.69 43.5752H173.521C173.496 42.1647 173.834 40.9953 174.533 40.0671C175.293 39.0545 176.335 38.5481 177.661 38.5481C180.326 38.5481 181.61 40.0852 181.513 43.1592C181.453 45.0881 181.453 46.3599 181.513 46.9747C181.561 47.4569 181.79 47.698 182.2 47.698V49.2532ZM179.144 46.8662V46.5769C178.397 46.2032 177.812 46.0163 177.39 46.0163C176.703 46.0163 176.36 46.2996 176.36 46.8662C176.36 47.3484 176.727 47.5895 177.463 47.5895C177.812 47.5895 178.373 47.3484 179.144 46.8662ZM185.983 49H183.451C183.584 47.3364 183.644 44.8711 183.632 41.6041C183.632 39.386 183.572 37.0292 183.451 34.5337H185.983C185.838 36.3541 185.772 38.6988 185.784 41.568C185.784 44.1116 185.85 46.589 185.983 49ZM190.46 49H187.929C188.061 47.3364 188.121 44.8711 188.109 41.6041C188.109 39.386 188.049 37.0292 187.929 34.5337H190.46C190.316 36.3541 190.249 38.6988 190.261 41.568C190.261 44.1116 190.328 46.589 190.46 49Z" fill="#A56953"/>
</svg>
