<svg width="128" height="57" viewBox="0 0 128 57" fill="none" xmlns="http://www.w3.org/2000/svg">
<mask id="path-1-outside-1_1048_91368" maskUnits="userSpaceOnUse" x="-0.0732422" y="0.65625" width="128" height="56" fill="black">
<rect fill="white" x="-0.0732422" y="0.65625" width="128" height="56"/>
<path fill-rule="evenodd" clip-rule="evenodd" d="M32.1999 3.91906C33.172 2.23531 35.6023 2.23532 36.5744 3.91906L43.1362 15.2843H85.4111L91.9729 3.91906C92.945 2.23531 95.3753 2.23532 96.3474 3.91906L102.909 15.2843H105.898C116.824 15.2843 125.682 24.142 125.682 35.0684C125.682 45.9948 116.824 54.8524 105.898 54.8524H21.7108C10.7844 54.8524 1.92676 45.9948 1.92676 35.0684C1.92676 24.142 10.7844 15.2843 21.7108 15.2843H25.6382L32.1999 3.91906Z"/>
</mask>
<path fill-rule="evenodd" clip-rule="evenodd" d="M32.1999 3.91906C33.172 2.23531 35.6023 2.23532 36.5744 3.91906L43.1362 15.2843H85.4111L91.9729 3.91906C92.945 2.23531 95.3753 2.23532 96.3474 3.91906L102.909 15.2843H105.898C116.824 15.2843 125.682 24.142 125.682 35.0684C125.682 45.9948 116.824 54.8524 105.898 54.8524H21.7108C10.7844 54.8524 1.92676 45.9948 1.92676 35.0684C1.92676 24.142 10.7844 15.2843 21.7108 15.2843H25.6382L32.1999 3.91906Z" fill="#FAA685"/>
<path d="M36.5744 3.91906L35.1162 4.76093V4.76093L36.5744 3.91906ZM32.1999 3.91906L33.6581 4.76093L32.1999 3.91906ZM43.1362 15.2843L41.678 16.1262L42.164 16.9681H43.1362V15.2843ZM85.4111 15.2843V16.9681H86.3833L86.8693 16.1262L85.4111 15.2843ZM91.9729 3.91906L93.4311 4.76093V4.76093L91.9729 3.91906ZM96.3474 3.91906L97.8056 3.07719V3.07719L96.3474 3.91906ZM102.909 15.2843L101.451 16.1262L101.937 16.9681H102.909V15.2843ZM25.6382 15.2843V16.9681H26.6103L27.0963 16.1262L25.6382 15.2843ZM38.0326 3.07719C36.4124 0.270951 32.3619 0.270936 30.7417 3.07718L33.6581 4.76093C33.9821 4.19969 34.7922 4.19968 35.1162 4.76093L38.0326 3.07719ZM44.5943 14.4425L38.0326 3.07719L35.1162 4.76093L41.678 16.1262L44.5943 14.4425ZM85.4111 13.6006H43.1362V16.9681H85.4111V13.6006ZM90.5147 3.07718L83.953 14.4425L86.8693 16.1262L93.4311 4.76093L90.5147 3.07718ZM97.8056 3.07719C96.1854 0.270956 92.1349 0.270931 90.5147 3.07719L93.4311 4.76093C93.7551 4.19969 94.5652 4.19968 94.8892 4.76094L97.8056 3.07719ZM104.367 14.4425L97.8056 3.07719L94.8892 4.76093L101.451 16.1262L104.367 14.4425ZM105.898 13.6006H102.909V16.9681H105.898V13.6006ZM127.366 35.0684C127.366 23.212 117.754 13.6006 105.898 13.6006V16.9681C115.895 16.9681 123.998 25.0719 123.998 35.0684H127.366ZM105.898 56.5361C117.754 56.5361 127.366 46.9247 127.366 35.0684H123.998C123.998 45.0648 115.895 53.1686 105.898 53.1686V56.5361ZM21.7108 56.5361H105.898V53.1686H21.7108V56.5361ZM0.243012 35.0684C0.243012 46.9247 9.85444 56.5361 21.7108 56.5361V53.1686C11.7143 53.1686 3.6105 45.0648 3.6105 35.0684H0.243012ZM21.7108 13.6006C9.85445 13.6006 0.243012 23.212 0.243012 35.0684H3.6105C3.6105 25.0719 11.7143 16.9681 21.7108 16.9681V13.6006ZM25.6382 13.6006H21.7108V16.9681H25.6382V13.6006ZM30.7417 3.07718L24.18 14.4425L27.0963 16.1262L33.6581 4.76093L30.7417 3.07718Z" fill="#A56953" mask="url(#path-1-outside-1_1048_91368)"/>
<rect x="1.92676" y="15.2852" width="123.755" height="39.568" rx="19.784" fill="#FFFEFC"/>
<path d="M32.1999 3.91928C33.172 2.23554 35.6023 2.23554 36.5744 3.91929L44.9588 18.4416H23.8154L32.1999 3.91928Z" fill="#FFFEFC"/>
<path d="M32.1513 8.13178C33.1232 6.4471 35.5547 6.4471 36.5266 8.13178L40.653 15.2842H28.0249L32.1513 8.13178Z" fill="#FAA685"/>
<path d="M91.9728 3.91928C92.9449 2.23554 95.3752 2.23554 96.3473 3.91929L104.732 18.4416H83.5884L91.9728 3.91928Z" fill="#FFFEFC"/>
<path d="M91.9242 8.13178C92.8962 6.4471 95.3276 6.4471 96.2996 8.13178L100.426 15.2842H87.7979L91.9242 8.13178Z" fill="#FAA685"/>
<path d="M29.7148 37.174C30.2652 36.1392 30.5522 34.9845 30.5504 33.8122C30.5504 29.8568 27.3466 26.6504 23.3944 26.6504C19.4423 26.6504 16.2385 29.8568 16.2385 33.8122C16.2356 35.5016 16.8323 37.1372 17.9223 38.4273L17.9307 38.4379C17.9336 38.4404 17.9362 38.4438 17.9383 38.4463H17.9223L22.1687 42.9582C22.3261 43.1255 22.516 43.2587 22.7268 43.3498C22.9375 43.4409 23.1647 43.4878 23.3942 43.4878C23.6238 43.4878 23.8509 43.4409 24.0617 43.3498C24.2725 43.2587 24.4624 43.1255 24.6198 42.9582L28.8666 38.4463H28.8506L28.8573 38.4383L28.8582 38.4374C28.8885 38.4012 28.9188 38.365 28.9487 38.3279C29.2407 37.9688 29.4972 37.5826 29.7148 37.174ZM23.3965 36.5501C22.7267 36.5501 22.0843 36.2838 21.6107 35.8098C21.137 35.3357 20.8709 34.6928 20.8709 34.0224C20.8709 33.352 21.137 32.7091 21.6107 32.2351C22.0843 31.761 22.7267 31.4947 23.3965 31.4947C24.0664 31.4947 24.7088 31.761 25.1824 32.2351C25.6561 32.7091 25.9222 33.352 25.9222 34.0224C25.9222 34.6928 25.6561 35.3357 25.1824 35.8098C24.7088 36.2838 24.0664 36.5501 23.3965 36.5501Z" fill="#A56953"/>
<path d="M47.1572 29.5244C45.5029 34.5075 44.3307 38.5823 43.6405 41.7488H40.7024C40.266 39.8814 39.6824 37.6892 38.9517 35.1723C38.2413 32.6858 37.6121 30.6611 37.064 29.0981H39.3171C39.5911 30.3261 40.0377 32.0159 40.6567 34.1675C41.286 36.309 41.8137 37.9734 42.24 39.1608C42.6561 38.0444 43.1483 36.4764 43.7167 34.4568C44.2748 32.4777 44.691 30.8336 44.965 29.5244H47.1572ZM49.7683 31.2294C49.7683 31.544 49.6415 31.813 49.3877 32.0362C49.1442 32.2494 48.8448 32.3559 48.4896 32.3559C48.1343 32.3559 47.8299 32.2494 47.5762 32.0362C47.3326 31.813 47.2108 31.544 47.2108 31.2294C47.2108 30.9148 47.3326 30.6509 47.5762 30.4378C47.8299 30.2145 48.1343 30.1029 48.4896 30.1029C48.8448 30.1029 49.1442 30.2145 49.3877 30.4378C49.6415 30.6509 49.7683 30.9148 49.7683 31.2294ZM49.5095 41.7031H47.3782C47.4899 40.7187 47.5457 39.2877 47.5457 37.4101C47.5457 35.5224 47.4899 34.1117 47.3782 33.178H49.5095C49.3877 34.1422 49.3319 35.5376 49.3421 37.3644C49.3522 39.0086 49.408 40.4548 49.5095 41.7031ZM55.9395 39.7241C55.8888 40.333 55.6807 40.8303 55.3154 41.216C54.8384 41.7234 54.1432 41.9771 53.2298 41.9771C52.2453 41.9771 51.5197 41.6879 51.0528 41.1094C50.7179 40.6933 50.5504 40.2265 50.5504 39.7089V38.8716H52.362V39.6327C52.362 39.8256 52.4381 39.993 52.5904 40.1351C52.7528 40.2772 52.971 40.3482 53.245 40.3482C53.7829 40.3482 54.0772 40.1402 54.1279 39.7241C54.1685 39.3486 53.8894 39.0187 53.2906 38.7346L52.1793 38.2017C51.1035 37.6841 50.5657 36.857 50.5657 35.7203C50.5657 35.5681 50.5758 35.4057 50.5961 35.2332C50.6976 34.4618 51.0173 33.8529 51.5552 33.4064C52.0322 33.0004 52.5904 32.7974 53.2298 32.7974C53.8996 32.7974 54.4629 33.0156 54.9196 33.452C55.4169 33.929 55.6655 34.5735 55.6655 35.3854V36.1313H53.9757V35.3854C53.9757 35.1317 53.8996 34.9338 53.7474 34.7917C53.5951 34.6496 53.4074 34.5786 53.1841 34.5786C52.6969 34.5786 52.4077 34.8323 52.3163 35.3397C52.3062 35.4209 52.3011 35.497 52.3011 35.5681C52.3011 35.9537 52.5092 36.2734 52.9253 36.5272C52.9557 36.5475 53.3262 36.72 54.0366 37.0448C55.4067 37.6638 56.041 38.5569 55.9395 39.7241ZM59.1207 31.2294C59.1207 31.544 58.9939 31.813 58.7402 32.0362C58.4966 32.2494 58.1972 32.3559 57.842 32.3559C57.4868 32.3559 57.1823 32.2494 56.9286 32.0362C56.685 31.813 56.5632 31.544 56.5632 31.2294C56.5632 30.9148 56.685 30.6509 56.9286 30.4378C57.1823 30.2145 57.4868 30.1029 57.842 30.1029C58.1972 30.1029 58.4966 30.2145 58.7402 30.4378C58.9939 30.6509 59.1207 30.9148 59.1207 31.2294ZM58.8619 41.7031H56.7307C56.8423 40.7187 56.8981 39.2877 56.8981 37.4101C56.8981 35.5224 56.8423 34.1117 56.7307 33.178H58.8619C58.7402 34.1422 58.6843 35.5376 58.6945 37.3644C58.7046 39.0086 58.7605 40.4548 58.8619 41.7031ZM66.2662 39.3587C66.2256 39.856 66.1039 40.2823 65.9009 40.6375C65.3934 41.49 64.5003 41.9163 63.2216 41.9163C62.2879 41.9163 61.5774 41.5103 61.0903 40.6984C60.6336 39.9575 60.4306 39.0137 60.4813 37.8668C60.5016 37.3797 60.5219 36.4358 60.5422 35.0353C60.0957 35.0556 59.7557 35.0759 59.5223 35.0962V33.178C59.573 33.1882 59.9079 33.2186 60.527 33.2693C60.5169 32.7213 60.4915 31.9703 60.4509 31.0163H62.5669C62.5162 31.7267 62.4908 32.498 62.4908 33.3302C63.5057 33.3302 64.4394 33.2795 65.2919 33.178V35.0962C64.0639 35.0251 63.1353 34.9896 62.5061 34.9896C62.5061 35.3651 62.5111 35.8167 62.5213 36.3445C62.5517 37.1158 62.5669 37.6334 62.5669 37.8973C62.5974 39.4805 62.9272 40.2975 63.5565 40.3482C64.0944 40.3888 64.4039 40.059 64.4851 39.3587H66.2662ZM82.0525 41.7031H79.4645C79.3224 41.1145 79.1194 40.3787 78.8555 39.4957C78.0741 39.3841 77.2419 39.3333 76.3589 39.3435C75.6891 39.3536 74.9431 39.4298 74.1211 39.5718C73.9282 40.1402 73.6694 40.947 73.3447 41.9924L70.9089 41.9771C71.8832 39.6327 72.6596 37.608 73.2381 35.903C73.8064 34.2284 74.4509 32.1022 75.1715 29.5244H77.8051C78.1603 30.7829 78.7845 32.7974 79.6776 35.5681C80.246 37.2021 81.0376 39.2471 82.0525 41.7031ZM78.2618 37.6537C77.6833 35.8675 77.0795 34.198 76.4502 32.6452C76.1356 33.4165 75.7601 34.4213 75.3237 35.6594C75.1816 36.0958 74.9583 36.7606 74.6539 37.6537C74.7757 37.6638 75.07 37.6892 75.5368 37.7298C75.9123 37.7603 76.2117 37.7755 76.435 37.7755C76.6887 37.7755 77.0034 37.7603 77.3789 37.7298C77.8762 37.6791 78.1705 37.6537 78.2618 37.6537ZM88.464 36.9534H86.622C86.6626 36.3039 86.6778 35.7863 86.6677 35.4006C86.6474 34.883 86.4292 34.6242 86.0131 34.6242C85.9319 34.6242 85.8557 34.6344 85.7847 34.6547C85.2062 34.8475 84.7394 35.3955 84.3841 36.2988V37.3644C84.3943 39.0796 84.4501 40.5258 84.5516 41.7031H82.4355C82.5269 40.7491 82.5776 39.3181 82.5878 37.4101C82.5979 35.6341 82.5472 34.2233 82.4355 33.178H84.5516C84.5212 33.452 84.4907 33.7819 84.4603 34.1675C84.6328 33.8529 84.8916 33.584 85.2367 33.3607C85.5919 33.1273 85.9623 33.0055 86.348 32.9953C86.9975 32.9852 87.4999 33.2085 87.8551 33.6652C88.1697 34.0711 88.3321 34.5786 88.3422 35.1875C88.3524 35.8573 88.393 36.446 88.464 36.9534ZM95.9077 37.3644C94.2128 37.2528 92.5078 37.2376 90.7926 37.3188V37.6537C90.7926 38.4352 90.9651 39.0542 91.3102 39.511C91.6553 39.9677 92.0765 40.196 92.5738 40.196C93.3349 40.196 93.7612 39.582 93.8525 38.354L95.8316 38.5367C95.8113 39.4095 95.5119 40.1859 94.9334 40.8658C94.3042 41.5966 93.5278 41.9619 92.6042 41.9619C91.569 41.9619 90.7013 41.5661 90.001 40.7745C89.25 39.922 88.8795 38.7954 88.8897 37.3949C88.8998 36.0248 89.25 34.9185 89.9401 34.0762C90.6404 33.2237 91.5538 32.7974 92.6803 32.7974C93.8678 32.7974 94.7355 33.3201 95.2835 34.3654C95.6793 35.1368 95.8874 36.1364 95.9077 37.3644ZM93.9134 36.0248C93.7206 34.9997 93.274 34.4872 92.5738 34.4872C91.8227 34.4872 91.295 34.9896 90.9905 35.9943C91.772 36.0349 92.7463 36.0451 93.9134 36.0248ZM102.864 39.3587C102.823 39.856 102.701 40.2823 102.498 40.6375C101.991 41.49 101.098 41.9163 99.819 41.9163C98.8853 41.9163 98.1749 41.5103 97.6878 40.6984C97.2311 39.9575 97.0281 39.0137 97.0788 37.8668C97.0991 37.3797 97.1194 36.4358 97.1397 35.0353C96.6932 35.0556 96.3532 35.0759 96.1197 35.0962V33.178C96.1705 33.1882 96.5054 33.2186 97.1245 33.2693C97.1143 32.7213 97.089 31.9703 97.0484 31.0163H99.1644C99.1137 31.7267 99.0883 32.498 99.0883 33.3302C100.103 33.3302 101.037 33.2795 101.889 33.178V35.0962C100.661 35.0251 99.7328 34.9896 99.1035 34.9896C99.1035 35.3651 99.1086 35.8167 99.1188 36.3445C99.1492 37.1158 99.1644 37.6334 99.1644 37.8973C99.1949 39.4805 99.5247 40.2975 100.154 40.3482C100.692 40.3888 101.001 40.059 101.083 39.3587H102.864ZM109.087 29.7984L106.894 32.4168H105.798L107.397 29.7984H109.087ZM110.107 37.3644C108.412 37.2528 106.707 37.2376 104.992 37.3188V37.6537C104.992 38.4352 105.164 39.0542 105.509 39.511C105.854 39.9677 106.275 40.196 106.773 40.196C107.534 40.196 107.96 39.582 108.051 38.354L110.031 38.5367C110.01 39.4095 109.711 40.1859 109.132 40.8658C108.503 41.5966 107.727 41.9619 106.803 41.9619C105.768 41.9619 104.9 41.5661 104.2 40.7745C103.449 39.922 103.078 38.7954 103.089 37.3949C103.099 36.0248 103.449 34.9185 104.139 34.0762C104.839 33.2237 105.753 32.7974 106.879 32.7974C108.067 32.7974 108.934 33.3201 109.482 34.3654C109.878 35.1368 110.086 36.1364 110.107 37.3644ZM108.112 36.0248C107.92 34.9997 107.473 34.4872 106.773 34.4872C106.022 34.4872 105.494 34.9896 105.189 35.9943C105.971 36.0349 106.945 36.0451 108.112 36.0248Z" fill="#A56953"/>
</svg>
