<svg width="151" height="67" viewBox="0 0 151 67" fill="none" xmlns="http://www.w3.org/2000/svg">
<mask id="path-1-outside-1_885_122713" maskUnits="userSpaceOnUse" x="0" y="1" width="151" height="66" fill="black">
<rect fill="white" y="1" width="151" height="66"/>
<path fill-rule="evenodd" clip-rule="evenodd" d="M37.9593 4.5C39.114 2.5 42.0007 2.5 43.1554 4.5L50.9497 18H101.165L108.959 4.5C110.114 2.5 113.001 2.5 114.155 4.5L121.95 18H125.5C138.479 18 149 28.5213 149 41.5C149 54.4787 138.479 65 125.5 65H25.5C12.5213 65 2 54.4787 2 41.5C2 28.5213 12.5213 18 25.5 18H30.1651L37.9593 4.5Z"/>
</mask>
<path fill-rule="evenodd" clip-rule="evenodd" d="M37.9593 4.5C39.114 2.5 42.0007 2.5 43.1554 4.5L50.9497 18H101.165L108.959 4.5C110.114 2.5 113.001 2.5 114.155 4.5L121.95 18H125.5C138.479 18 149 28.5213 149 41.5C149 54.4787 138.479 65 125.5 65H25.5C12.5213 65 2 54.4787 2 41.5C2 28.5213 12.5213 18 25.5 18H30.1651L37.9593 4.5Z" fill="#FAA685"/>
<path d="M43.1554 4.5L44.8875 3.5V3.5L43.1554 4.5ZM37.9593 4.5L36.2272 3.5V3.5L37.9593 4.5ZM50.9497 18L49.2176 19L49.795 20H50.9497V18ZM101.165 18V20H102.32L102.897 19L101.165 18ZM108.959 4.5L110.691 5.5L110.691 5.49999L108.959 4.5ZM114.155 4.5L112.423 5.5L114.155 4.5ZM121.95 18L120.218 19L120.795 20H121.95V18ZM30.1651 18V20H31.3198L31.8971 19L30.1651 18ZM44.8875 3.5C42.963 0.16667 38.1517 0.166664 36.2272 3.5L39.6913 5.5C40.0762 4.83333 41.0385 4.83333 41.4234 5.5L44.8875 3.5ZM52.6817 17L44.8875 3.5L41.4234 5.5L49.2176 19L52.6817 17ZM101.165 16H50.9497V20H101.165V16ZM107.227 3.5L99.433 17L102.897 19L110.691 5.5L107.227 3.5ZM115.887 3.5C113.963 0.166675 109.152 0.166657 107.227 3.5L110.691 5.49999C111.076 4.83334 112.038 4.83333 112.423 5.5L115.887 3.5ZM123.682 17L115.887 3.5L112.423 5.5L120.218 19L123.682 17ZM125.5 16H121.95V20H125.5V16ZM151 41.5C151 27.4167 139.583 16 125.5 16V20C137.374 20 147 29.6259 147 41.5H151ZM125.5 67C139.583 67 151 55.5833 151 41.5H147C147 53.3741 137.374 63 125.5 63V67ZM25.5 67H125.5V63H25.5V67ZM0 41.5C0 55.5833 11.4167 67 25.5 67V63C13.6259 63 4 53.3741 4 41.5H0ZM25.5 16C11.4167 16 0 27.4167 0 41.5H4C4 29.6259 13.6259 20 25.5 20V16ZM30.1651 16H25.5V20H30.1651V16ZM36.2272 3.5L28.433 17L31.8971 19L39.6913 5.5L36.2272 3.5Z" fill="#A56953" mask="url(#path-1-outside-1_885_122713)"/>
<rect x="2" y="18" width="147" height="47" rx="23.5" fill="#FFFEFC"/>
<path d="M37.9593 4.5C39.114 2.5 42.0007 2.5 43.1554 4.5L53.1147 21.75H28L37.9593 4.5Z" fill="#FFFEFC"/>
<path d="M37.9014 9.50416C39.0559 7.50305 41.9441 7.50305 43.0986 9.50416L48 18H33L37.9014 9.50416Z" fill="#FAA685"/>
<path d="M108.959 4.5C110.114 2.5 113.001 2.5 114.155 4.5L124.115 21.75H99L108.959 4.5Z" fill="#FFFEFC"/>
<path d="M108.901 9.50416C110.056 7.50305 112.944 7.50305 114.099 9.50416L119 18H104L108.901 9.50416Z" fill="#FAA685"/>
<path d="M35.0075 44.0003C35.6613 42.7711 36.0022 41.3995 36 40.007C36 35.3086 32.1945 31.5 27.5 31.5C22.8055 31.5 19 35.3086 19 40.007C18.9966 42.0138 19.7054 43.9566 21 45.489L21.01 45.5015C21.0135 45.5045 21.0165 45.5085 21.019 45.5115H21L26.044 50.8709C26.231 51.0695 26.4566 51.2278 26.7069 51.336C26.9573 51.4442 27.2271 51.5 27.4998 51.5C27.7724 51.5 28.0422 51.4442 28.2926 51.336C28.5429 51.2278 28.7685 51.0695 28.9555 50.8709L34 45.5115H33.981L33.989 45.502L33.99 45.501C34.026 45.458 34.062 45.4149 34.0975 45.3709C34.4443 44.9443 34.7491 44.4856 35.0075 44.0003ZM27.5025 43.2592C26.7069 43.2592 25.9438 42.9428 25.3812 42.3798C24.8186 41.8167 24.5025 41.053 24.5025 40.2567C24.5025 39.4604 24.8186 38.6967 25.3812 38.1336C25.9438 37.5706 26.7069 37.2542 27.5025 37.2542C28.2981 37.2542 29.0612 37.5706 29.6238 38.1336C30.1864 38.6967 30.5025 39.4604 30.5025 40.2567C30.5025 41.053 30.1864 41.8167 29.6238 42.3798C29.0612 42.9428 28.2981 43.2592 27.5025 43.2592Z" fill="#A56953"/>
<path d="M60.7861 34.5337C58.8211 40.4529 57.4288 45.293 56.609 49.0542H53.119C52.6006 46.8361 51.9075 44.2322 51.0395 41.2425C50.1956 38.2889 49.4482 35.8839 48.7972 34.0274H51.4735C51.799 35.4861 52.3294 37.4933 53.0648 40.049C53.8122 42.5927 54.4391 44.5697 54.9454 45.9802C55.4396 44.6541 56.0243 42.7916 56.6994 40.3926C57.3625 38.0418 57.8567 36.0889 58.1822 34.5337H60.7861ZM63.8878 36.559C63.8878 36.9327 63.7371 37.2522 63.4357 37.5174C63.1464 37.7706 62.7907 37.8971 62.3688 37.8971C61.9469 37.8971 61.5852 37.7706 61.2838 37.5174C60.9945 37.2522 60.8498 36.9327 60.8498 36.559C60.8498 36.1853 60.9945 35.8719 61.2838 35.6187C61.5852 35.3535 61.9469 35.2209 62.3688 35.2209C62.7907 35.2209 63.1464 35.3535 63.4357 35.6187C63.7371 35.8719 63.8878 36.1853 63.8878 36.559ZM63.5804 49H61.0488C61.1814 47.8306 61.2477 46.1309 61.2477 43.9006C61.2477 41.6584 61.1814 39.9827 61.0488 38.8736H63.5804C63.4357 40.0189 63.3694 41.6765 63.3814 43.8464C63.3935 45.7993 63.4598 47.5172 63.5804 49ZM71.2181 46.6492C71.1578 47.3725 70.9107 47.9633 70.4767 48.4213C69.9101 49.0241 69.0843 49.3255 67.9993 49.3255C66.83 49.3255 65.968 48.9819 65.4135 48.2948C65.0157 47.8005 64.8168 47.246 64.8168 46.6312V45.6366H66.9686V46.5407C66.9686 46.7698 67.059 46.9687 67.2399 47.1375C67.4327 47.3062 67.6919 47.3906 68.0174 47.3906C68.6563 47.3906 69.0059 47.1435 69.0662 46.6492C69.1144 46.2032 68.7829 45.8114 68.0717 45.4739L66.7516 44.841C65.4738 44.2261 64.8348 43.2436 64.8348 41.8935C64.8348 41.7126 64.8469 41.5197 64.871 41.3148C64.9916 40.3986 65.3713 39.6753 66.0102 39.1449C66.5768 38.6627 67.2399 38.4216 67.9993 38.4216C68.795 38.4216 69.464 38.6807 70.0065 39.1991C70.5972 39.7657 70.8926 40.5312 70.8926 41.4956V42.3817H68.8854V41.4956C68.8854 41.1943 68.795 40.9592 68.6142 40.7904C68.4333 40.6216 68.2103 40.5372 67.9451 40.5372C67.3664 40.5372 67.0229 40.8386 66.9144 41.4414C66.9023 41.5378 66.8963 41.6282 66.8963 41.7126C66.8963 42.1707 67.1434 42.5505 67.6377 42.8518C67.6738 42.876 68.1139 43.0809 68.9577 43.4667C70.5852 44.202 71.3386 45.2629 71.2181 46.6492ZM74.9968 36.559C74.9968 36.9327 74.8461 37.2522 74.5448 37.5174C74.2554 37.7706 73.8998 37.8971 73.4779 37.8971C73.0559 37.8971 72.6943 37.7706 72.3929 37.5174C72.1036 37.2522 71.9589 36.9327 71.9589 36.559C71.9589 36.1853 72.1036 35.8719 72.3929 35.6187C72.6943 35.3535 73.0559 35.2209 73.4779 35.2209C73.8998 35.2209 74.2554 35.3535 74.5448 35.6187C74.8461 35.8719 74.9968 36.1853 74.9968 36.559ZM74.6894 49H72.1578C72.2904 47.8306 72.3567 46.1309 72.3567 43.9006C72.3567 41.6584 72.2904 39.9827 72.1578 38.8736H74.6894C74.5448 40.0189 74.4784 41.6765 74.4905 43.8464C74.5026 45.7993 74.5689 47.5172 74.6894 49ZM83.4844 46.2152C83.4362 46.806 83.2916 47.3123 83.0505 47.7342C82.4477 48.7468 81.3868 49.2532 79.8679 49.2532C78.7588 49.2532 77.9149 48.771 77.3363 47.8065C76.7938 46.9265 76.5527 45.8054 76.613 44.4431C76.6371 43.8645 76.6612 42.7433 76.6853 41.0797C76.1549 41.1038 75.751 41.1279 75.4738 41.1521V38.8736C75.534 38.8857 75.9319 38.9218 76.6672 38.9821C76.6552 38.3311 76.625 37.4391 76.5768 36.3059H79.0903C79.03 37.1497 78.9999 38.0659 78.9999 39.0545C80.2054 39.0545 81.3145 38.9942 82.3271 38.8736V41.1521C80.8685 41.0677 79.7654 41.0255 79.018 41.0255C79.018 41.4715 79.024 42.008 79.0361 42.6348C79.0722 43.551 79.0903 44.1659 79.0903 44.4793C79.1265 46.3599 79.5183 47.3304 80.2657 47.3906C80.9046 47.4389 81.2723 47.0471 81.3688 46.2152H83.4844ZM103.447 49H100.898C100.982 48.0235 101.024 46.7155 101.024 45.076C101.024 43.4968 100.982 42.1587 100.898 41.0616C100.283 42.231 99.6379 43.6053 98.9628 45.1845C98.5891 46.0646 98.0948 47.3364 97.48 49H95.2558C95.0147 48.2285 94.6229 47.035 94.0804 45.4196C93.4294 43.6716 92.8026 42.237 92.1998 41.1159C92.1154 42.3455 92.0792 43.9308 92.0913 45.8717C92.1034 47.2701 92.1395 48.5057 92.1998 49.5787H89.6501C89.7466 47.6378 89.7948 45.2327 89.7948 42.3636C89.7948 38.9399 89.7466 36.33 89.6501 34.5337H92.5615C92.9954 36.0165 93.6525 37.8851 94.5325 40.1394C95.304 42.1165 95.9731 43.6776 96.5397 44.8229C97.1183 43.5932 97.7934 42.014 98.565 40.0852C99.0592 38.8555 99.7403 37.0051 100.608 34.5337H103.447C103.375 37.8248 103.333 40.3444 103.321 42.0924C103.321 45.4196 103.363 47.7221 103.447 49ZM116.285 34.5337C114.32 40.4529 112.928 45.293 112.108 49.0542H108.618C108.099 46.8361 107.406 44.2322 106.538 41.2425C105.694 38.2889 104.947 35.8839 104.296 34.0274H106.972C107.298 35.4861 107.828 37.4933 108.564 40.049C109.311 42.5927 109.938 44.5697 110.444 45.9802C110.938 44.6541 111.523 42.7916 112.198 40.3926C112.861 38.0418 113.356 36.0889 113.681 34.5337H116.285ZM125.679 38.729C125.679 40.0912 125.312 41.1521 124.576 41.9115C123.925 42.5866 123.148 42.9121 122.244 42.888C120.954 42.8639 119.965 42.8639 119.278 42.888C119.326 45.3955 119.393 47.4328 119.477 49H116.964C117.096 47.0953 117.156 44.63 117.144 41.6041C117.144 39.386 117.084 37.0292 116.964 34.5337C118.253 34.7025 120.013 34.6965 122.244 34.5157C123.208 34.4433 124.022 34.805 124.685 35.6006C125.348 36.3963 125.679 37.4391 125.679 38.729ZM123.528 38.6928C123.54 38.1262 123.335 37.65 122.913 37.2643C122.503 36.8785 121.972 36.6856 121.321 36.6856H119.35C119.302 38.3733 119.278 39.7537 119.278 40.8266C119.579 40.8627 120.261 40.8627 121.321 40.8266C122.021 40.8025 122.539 40.6578 122.877 40.3926C123.299 40.0671 123.516 39.5005 123.528 38.6928Z" fill="#A56953"/>
</svg>
