<svg width="200" height="67" viewBox="0 0 200 67" fill="none" xmlns="http://www.w3.org/2000/svg">
<mask id="path-1-outside-1_885_122712" maskUnits="userSpaceOnUse" x="0" y="1" width="200" height="66" fill="black">
<rect fill="white" y="1" width="200" height="66"/>
<path fill-rule="evenodd" clip-rule="evenodd" d="M28.9593 4.5C30.114 2.5 33.0007 2.5 34.1554 4.5L41.9497 18H156.165L163.959 4.5C165.114 2.5 168.001 2.5 169.155 4.5L177.027 18.1343C188.817 19.3949 198 29.3751 198 41.5C198 54.4787 187.479 65 174.5 65H25.5C12.5213 65 2 54.4787 2 41.5C2 30.0935 10.1267 20.5851 20.9059 18.4488L28.9593 4.5Z"/>
</mask>
<path fill-rule="evenodd" clip-rule="evenodd" d="M28.9593 4.5C30.114 2.5 33.0007 2.5 34.1554 4.5L41.9497 18H156.165L163.959 4.5C165.114 2.5 168.001 2.5 169.155 4.5L177.027 18.1343C188.817 19.3949 198 29.3751 198 41.5C198 54.4787 187.479 65 174.5 65H25.5C12.5213 65 2 54.4787 2 41.5C2 30.0935 10.1267 20.5851 20.9059 18.4488L28.9593 4.5Z" fill="#FAA685"/>
<path d="M34.1554 4.5L35.8875 3.5V3.5L34.1554 4.5ZM28.9593 4.5L27.2272 3.5V3.5L28.9593 4.5ZM41.9497 18L40.2176 19L40.795 20H41.9497V18ZM156.165 18V20H157.32L157.897 19L156.165 18ZM163.959 4.5L162.227 3.49999L162.227 3.5L163.959 4.5ZM169.155 4.5L167.423 5.5V5.5L169.155 4.5ZM177.027 18.1343L175.295 19.1343L175.804 20.0149L176.815 20.123L177.027 18.1343ZM20.9059 18.4488L21.2947 20.4107L22.1845 20.2344L22.638 19.4488L20.9059 18.4488ZM35.8875 3.5C33.963 0.16667 29.1517 0.166664 27.2272 3.5L30.6913 5.5C31.0762 4.83333 32.0385 4.83333 32.4234 5.5L35.8875 3.5ZM43.6817 17L35.8875 3.5L32.4234 5.5L40.2176 19L43.6817 17ZM156.165 16H41.9497V20H156.165V16ZM162.227 3.5L154.433 17L157.897 19L165.691 5.5L162.227 3.5ZM170.887 3.50001C168.963 0.16666 164.152 0.166674 162.227 3.49999L165.691 5.5C166.076 4.83332 167.038 4.83334 167.423 5.5L170.887 3.50001ZM178.759 17.1343L170.887 3.5L167.423 5.5L175.295 19.1343L178.759 17.1343ZM200 41.5C200 28.3419 190.036 17.5138 177.24 16.1456L176.815 20.123C187.599 21.2761 196 30.4083 196 41.5H200ZM174.5 67C188.583 67 200 55.5833 200 41.5H196C196 53.3741 186.374 63 174.5 63V67ZM25.5 67H174.5V63H25.5V67ZM0 41.5C0 55.5833 11.4167 67 25.5 67V63C13.6259 63 4 53.3741 4 41.5H0ZM20.5171 16.487C8.81954 18.8052 0 29.1205 0 41.5H4C4 31.0666 11.4338 22.3649 21.2947 20.4107L20.5171 16.487ZM27.2272 3.5L19.1739 17.4488L22.638 19.4488L30.6913 5.5L27.2272 3.5Z" fill="#A56953" mask="url(#path-1-outside-1_885_122712)"/>
<rect x="2" y="18" width="196" height="47" rx="23.5" fill="#FFFEFC"/>
<path d="M28.9593 4.5C30.114 2.5 33.0007 2.5 34.1554 4.5L44.1147 21.75H19L28.9593 4.5Z" fill="#FFFEFC"/>
<path d="M28.9014 9.50416C30.0559 7.50305 32.9441 7.50305 34.0986 9.50416L39 18H24L28.9014 9.50416Z" fill="#FAA685"/>
<path d="M163.959 4.5C165.114 2.5 168.001 2.5 169.155 4.5L179.115 21.75H154L163.959 4.5Z" fill="#FFFEFC"/>
<path d="M163.901 9.50416C165.056 7.50305 167.944 7.50305 169.099 9.50416L174 18H159L163.901 9.50416Z" fill="#FAA685"/>
<path d="M35.0075 44.0003C35.6613 42.7711 36.0022 41.3995 36 40.007C36 35.3086 32.1945 31.5 27.5 31.5C22.8055 31.5 19 35.3086 19 40.007C18.9966 42.0138 19.7054 43.9566 21 45.489L21.01 45.5015C21.0135 45.5045 21.0165 45.5085 21.019 45.5115H21L26.044 50.8709C26.231 51.0695 26.4566 51.2278 26.7069 51.336C26.9573 51.4442 27.2271 51.5 27.4998 51.5C27.7724 51.5 28.0422 51.4442 28.2926 51.336C28.5429 51.2278 28.7685 51.0695 28.9555 50.8709L34 45.5115H33.981L33.989 45.502L33.99 45.501C34.026 45.458 34.062 45.4149 34.0975 45.3709C34.4443 44.9443 34.7491 44.4856 35.0075 44.0003ZM27.5025 43.2592C26.7069 43.2592 25.9438 42.9428 25.3812 42.3798C24.8186 41.8167 24.5025 41.053 24.5025 40.2567C24.5025 39.4604 24.8186 38.6967 25.3812 38.1336C25.9438 37.5706 26.7069 37.2542 27.5025 37.2542C28.2981 37.2542 29.0612 37.5706 29.6238 38.1336C30.1864 38.6967 30.5025 39.4604 30.5025 40.2567C30.5025 41.053 30.1864 41.8167 29.6238 42.3798C29.0612 42.9428 28.2981 43.2592 27.5025 43.2592Z" fill="#A56953"/>
<path d="M58.2307 34.5337C56.2658 40.4529 54.8734 45.293 54.0536 49.0542H50.5636C50.0453 46.8361 49.3521 44.2322 48.4841 41.2425C47.6402 38.2889 46.8928 35.8839 46.2418 34.0274H48.9181C49.2436 35.4861 49.774 37.4933 50.5094 40.049C51.2568 42.5927 51.8837 44.5697 52.39 45.9802C52.8843 44.6541 53.4689 42.7916 54.144 40.3926C54.8071 38.0418 55.3013 36.0889 55.6268 34.5337H58.2307ZM61.3324 36.559C61.3324 36.9327 61.1817 37.2522 60.8803 37.5174C60.591 37.7706 60.2354 37.8971 59.8134 37.8971C59.3915 37.8971 59.0298 37.7706 58.7285 37.5174C58.4391 37.2522 58.2945 36.9327 58.2945 36.559C58.2945 36.1853 58.4391 35.8719 58.7285 35.6187C59.0298 35.3535 59.3915 35.2209 59.8134 35.2209C60.2354 35.2209 60.591 35.3535 60.8803 35.6187C61.1817 35.8719 61.3324 36.1853 61.3324 36.559ZM61.025 49H58.4934C58.626 47.8306 58.6923 46.1309 58.6923 43.9006C58.6923 41.6584 58.626 39.9827 58.4934 38.8736H61.025C60.8803 40.0189 60.814 41.6765 60.8261 43.8464C60.8381 45.7993 60.9044 47.5172 61.025 49ZM68.6627 46.6492C68.6024 47.3725 68.3553 47.9633 67.9213 48.4213C67.3547 49.0241 66.5289 49.3255 65.444 49.3255C64.2746 49.3255 63.4127 48.9819 62.8581 48.2948C62.4603 47.8005 62.2614 47.246 62.2614 46.6312V45.6366H64.4132V46.5407C64.4132 46.7698 64.5036 46.9687 64.6845 47.1375C64.8774 47.3062 65.1365 47.3906 65.462 47.3906C66.101 47.3906 66.4506 47.1435 66.5108 46.6492C66.5591 46.2032 66.2275 45.8114 65.5163 45.4739L64.1962 44.841C62.9184 44.2261 62.2795 43.2436 62.2795 41.8935C62.2795 41.7126 62.2915 41.5197 62.3156 41.3148C62.4362 40.3986 62.8159 39.6753 63.4548 39.1449C64.0214 38.6627 64.6845 38.4216 65.444 38.4216C66.2396 38.4216 66.9087 38.6807 67.4511 39.1991C68.0419 39.7657 68.3372 40.5312 68.3372 41.4956V42.3817H66.33V41.4956C66.33 41.1943 66.2396 40.9592 66.0588 40.7904C65.8779 40.6216 65.6549 40.5372 65.3897 40.5372C64.8111 40.5372 64.4675 40.8386 64.359 41.4414C64.3469 41.5378 64.3409 41.6282 64.3409 41.7126C64.3409 42.1707 64.588 42.5505 65.0823 42.8518C65.1185 42.876 65.5585 43.0809 66.4023 43.4667C68.0298 44.202 68.7832 45.2629 68.6627 46.6492ZM72.4414 36.559C72.4414 36.9327 72.2908 37.2522 71.9894 37.5174C71.7 37.7706 71.3444 37.8971 70.9225 37.8971C70.5006 37.8971 70.1389 37.7706 69.8375 37.5174C69.5482 37.2522 69.4035 36.9327 69.4035 36.559C69.4035 36.1853 69.5482 35.8719 69.8375 35.6187C70.1389 35.3535 70.5006 35.2209 70.9225 35.2209C71.3444 35.2209 71.7 35.3535 71.9894 35.6187C72.2908 35.8719 72.4414 36.1853 72.4414 36.559ZM72.134 49H69.6024C69.735 47.8306 69.8014 46.1309 69.8014 43.9006C69.8014 41.6584 69.735 39.9827 69.6024 38.8736H72.134C71.9894 40.0189 71.9231 41.6765 71.9351 43.8464C71.9472 45.7993 72.0135 47.5172 72.134 49ZM80.9291 46.2152C80.8808 46.806 80.7362 47.3123 80.4951 47.7342C79.8923 48.7468 78.8315 49.2532 77.3125 49.2532C76.2034 49.2532 75.3596 48.771 74.7809 47.8065C74.2384 46.9265 73.9973 45.8054 74.0576 44.4431C74.0817 43.8645 74.1058 42.7433 74.1299 41.0797C73.5995 41.1038 73.1956 41.1279 72.9184 41.1521V38.8736C72.9787 38.8857 73.3765 38.9218 74.1118 38.9821C74.0998 38.3311 74.0696 37.4391 74.0214 36.3059H76.5349C76.4747 37.1497 76.4445 38.0659 76.4445 39.0545C77.65 39.0545 78.7591 38.9942 79.7718 38.8736V41.1521C78.3131 41.0677 77.21 41.0255 76.4626 41.0255C76.4626 41.4715 76.4686 42.008 76.4807 42.6348C76.5169 43.551 76.5349 44.1659 76.5349 44.4793C76.5711 46.3599 76.9629 47.3304 77.7103 47.3906C78.3492 47.4389 78.7169 47.0471 78.8134 46.2152H80.9291ZM98.7582 39.9043C98.3121 39.8923 97.4682 39.8742 96.2266 39.8501C96.2266 38.9098 95.9372 38.1081 95.3586 37.4451C94.7799 36.77 94.0205 36.4324 93.0802 36.4324C90.6812 36.4324 89.4817 38.2407 89.4817 41.8573C89.4817 43.75 89.8433 45.1664 90.5666 46.1067C91.1573 46.8903 91.953 47.2882 92.9536 47.3002C94.4002 47.3243 95.4068 46.5588 95.9734 45.0037C95.9975 45.0037 96.8595 45.076 98.5592 45.2207C97.6792 48.0778 95.8107 49.5063 92.9536 49.5063C91.1935 49.5063 89.771 48.8734 88.686 47.6076C87.5046 46.2454 86.9139 44.3166 86.9139 41.8211C86.9139 39.4462 87.5046 37.5536 88.686 36.1431C89.8072 34.805 91.2297 34.1299 92.9536 34.1178C94.6775 34.1058 96.0759 34.6362 97.1488 35.7091C98.2217 36.77 98.7582 38.1684 98.7582 39.9043ZM109.268 37.0473C107.701 36.9508 106.417 36.8966 105.416 36.8845C105.247 41.6825 105.272 45.715 105.488 48.9819H102.957C103.126 45.6908 103.15 41.6523 103.029 36.8664C101.486 36.8905 100.208 36.9508 99.1957 37.0473V34.5337C101.004 34.6422 102.842 34.6965 104.711 34.6965C106.543 34.6965 108.062 34.6422 109.268 34.5337V37.0473ZM121.681 39.9043C121.235 39.8923 120.391 39.8742 119.149 39.8501C119.149 38.9098 118.86 38.1081 118.282 37.4451C117.703 36.77 116.943 36.4324 116.003 36.4324C113.604 36.4324 112.405 38.2407 112.405 41.8573C112.405 43.75 112.766 45.1664 113.49 46.1067C114.08 46.8903 114.876 47.2882 115.877 47.3002C117.323 47.3243 118.33 46.5588 118.896 45.0037C118.92 45.0037 119.782 45.076 121.482 45.2207C120.602 48.0778 118.734 49.5063 115.877 49.5063C114.116 49.5063 112.694 48.8734 111.609 47.6076C110.428 46.2454 109.837 44.3166 109.837 41.8211C109.837 39.4462 110.428 37.5536 111.609 36.1431C112.73 34.805 114.153 34.1299 115.877 34.1178C117.6 34.1058 118.999 34.6362 120.072 35.7091C121.145 36.77 121.681 38.1684 121.681 39.9043ZM129.84 43.9368C127.658 43.7439 125.175 43.7439 122.39 43.9368V41.7669C123.487 41.8754 124.747 41.9296 126.169 41.9296C127.628 41.9296 128.851 41.8754 129.84 41.7669V43.9368ZM136.313 49.6148C134.662 49.6148 133.444 49.1507 132.66 48.2224C132.106 47.5835 131.829 46.8542 131.829 46.0344V44.9856H134.306V45.9078C134.306 46.39 134.499 46.7879 134.885 47.1013C135.27 47.4147 135.759 47.5715 136.349 47.5715C137.591 47.5715 138.266 47.0772 138.375 46.0887C138.471 45.2207 137.88 44.4974 136.603 43.9187L134.577 42.9965C132.781 42.1768 131.883 40.8446 131.883 39.0002C131.883 38.735 131.901 38.4637 131.937 38.1865C132.106 37.0051 132.588 36.0587 133.384 35.3475C134.191 34.6242 135.144 34.2565 136.241 34.2444C137.483 34.2324 138.477 34.6181 139.225 35.4017C139.984 36.1733 140.364 37.1738 140.364 38.4035V39.3076H138.121V38.4035C138.121 37.8851 137.953 37.4511 137.615 37.1015C137.241 36.7157 136.765 36.5349 136.187 36.559C135.692 36.5831 135.264 36.7459 134.903 37.0473C134.541 37.3366 134.318 37.7344 134.234 38.2407C134.21 38.4095 134.198 38.5662 134.198 38.7109C134.198 39.6753 134.728 40.3986 135.789 40.8808L137.633 41.7126C139.803 42.6891 140.888 43.973 140.888 45.5643C140.888 46.8903 140.46 47.909 139.604 48.6203C138.809 49.2833 137.712 49.6148 136.313 49.6148ZM153.857 41.8211C153.857 44.4974 153.273 46.4865 152.103 47.7885C151.067 48.9337 149.644 49.5063 147.836 49.5063C146.076 49.5063 144.659 48.8734 143.586 47.6076C142.405 46.2454 141.814 44.3166 141.814 41.8211C141.814 39.4462 142.405 37.5536 143.586 36.1431C144.695 34.805 146.112 34.1299 147.836 34.1178C149.692 34.1058 151.139 34.7085 152.176 35.9261C153.297 37.2401 153.857 39.2051 153.857 41.8211ZM151.326 41.8573C151.326 38.2407 150.168 36.4324 147.854 36.4324C145.539 36.4324 144.382 38.2407 144.382 41.8573C144.382 43.75 144.744 45.1664 145.467 46.1067C146.058 46.8783 146.853 47.2761 147.854 47.3002C148.866 47.3243 149.668 46.9325 150.259 46.1248C150.97 45.1966 151.326 43.7741 151.326 41.8573ZM168.795 49H166.246C166.33 48.0235 166.372 46.7155 166.372 45.076C166.372 43.4968 166.33 42.1587 166.246 41.0616C165.631 42.231 164.986 43.6053 164.311 45.1845C163.937 46.0646 163.443 47.3364 162.828 49H160.604C160.363 48.2285 159.971 47.035 159.429 45.4196C158.778 43.6716 158.151 42.237 157.548 41.1159C157.464 42.3455 157.427 43.9308 157.439 45.8717C157.451 47.2701 157.488 48.5057 157.548 49.5787H154.998C155.095 47.6378 155.143 45.2327 155.143 42.3636C155.143 38.9399 155.095 36.33 154.998 34.5337H157.91C158.344 36.0165 159.001 37.8851 159.881 40.1394C160.652 42.1165 161.321 43.6776 161.888 44.8229C162.466 43.5932 163.142 42.014 163.913 40.0852C164.407 38.8555 165.088 37.0051 165.956 34.5337H168.795C168.723 37.8248 168.681 40.3444 168.669 42.0924C168.669 45.4196 168.711 47.7221 168.795 49Z" fill="#A56953"/>
</svg>
