<svg width="172" height="75" viewBox="0 0 172 75" fill="none" xmlns="http://www.w3.org/2000/svg">
<mask id="path-1-outside-1_885_122719" maskUnits="userSpaceOnUse" x="0" y="0" width="157" height="72" fill="black">
<rect fill="white" width="157" height="72"/>
<path fill-rule="evenodd" clip-rule="evenodd" d="M40.9593 6.5C42.114 4.5 45.0007 4.5 46.1554 6.5L53.9497 20H104.165L111.959 6.5C113.114 4.5 116.001 4.5 117.155 6.5L124.95 20H128.5C141.479 20 152 30.5213 152 43.5C152 56.4787 141.479 67 128.5 67H28.5C15.5213 67 5 56.4787 5 43.5C5 30.5213 15.5213 20 28.5 20H33.1651L40.9593 6.5Z"/>
</mask>
<path fill-rule="evenodd" clip-rule="evenodd" d="M40.9593 6.5C42.114 4.5 45.0007 4.5 46.1554 6.5L53.9497 20H104.165L111.959 6.5C113.114 4.5 116.001 4.5 117.155 6.5L124.95 20H128.5C141.479 20 152 30.5213 152 43.5C152 56.4787 141.479 67 128.5 67H28.5C15.5213 67 5 56.4787 5 43.5C5 30.5213 15.5213 20 28.5 20H33.1651L40.9593 6.5Z" fill="#FAA685"/>
<path d="M46.1554 6.5L50.0526 4.25V4.25L46.1554 6.5ZM40.9593 6.5L37.0622 4.25V4.25L40.9593 6.5ZM53.9497 20L50.0526 22.25L51.3516 24.5H53.9497V20ZM104.165 20V24.5H106.763L108.062 22.25L104.165 20ZM111.959 6.5L115.856 8.75L115.856 8.74999L111.959 6.5ZM117.155 6.5L113.258 8.75L117.155 6.5ZM124.95 20L121.053 22.25L122.352 24.5H124.95V20ZM33.1651 20V24.5H35.7631L37.0622 22.25L33.1651 20ZM50.0526 4.25C47.1658 -0.749993 39.9489 -0.750006 37.0622 4.25L44.8564 8.75C44.2791 9.75 42.8357 9.75 42.2583 8.75L50.0526 4.25ZM57.8468 17.75L50.0526 4.25L42.2583 8.75L50.0526 22.25L57.8468 17.75ZM104.165 15.5H53.9497V24.5H104.165V15.5ZM108.062 4.25L100.268 17.75L108.062 22.25L115.856 8.75L108.062 4.25ZM121.053 4.25C118.166 -0.749983 110.949 -0.75002 108.062 4.25001L115.856 8.74999C115.279 9.75002 113.836 9.74999 113.258 8.75L121.053 4.25ZM128.847 17.75L121.053 4.25L113.258 8.75L121.053 22.25L128.847 17.75ZM128.5 15.5H124.95V24.5H128.5V15.5ZM156.5 43.5C156.5 28.036 143.964 15.5 128.5 15.5V24.5C138.993 24.5 147.5 33.0066 147.5 43.5H156.5ZM128.5 71.5C143.964 71.5 156.5 58.964 156.5 43.5H147.5C147.5 53.9934 138.993 62.5 128.5 62.5V71.5ZM28.5 71.5H128.5V62.5H28.5V71.5ZM0.5 43.5C0.5 58.964 13.036 71.5 28.5 71.5V62.5C18.0066 62.5 9.5 53.9934 9.5 43.5H0.5ZM28.5 15.5C13.036 15.5 0.5 28.036 0.5 43.5H9.5C9.5 33.0066 18.0066 24.5 28.5 24.5V15.5ZM33.1651 15.5H28.5V24.5H33.1651V15.5ZM37.0622 4.25L29.268 17.75L37.0622 22.25L44.8564 8.75L37.0622 4.25Z" fill="#2074A4" mask="url(#path-1-outside-1_885_122719)"/>
<rect x="5" y="20" width="147" height="47" rx="23.5" fill="#FFFEFC"/>
<path d="M40.9593 6.5C42.114 4.5 45.0007 4.5 46.1554 6.5L56.1147 23.75H31L40.9593 6.5Z" fill="#FFFEFC"/>
<path d="M40.9014 11.5042C42.0559 9.50305 44.9441 9.50305 46.0986 11.5042L51 20H36L40.9014 11.5042Z" fill="#FAA685"/>
<path d="M111.959 6.5C113.114 4.5 116.001 4.5 117.155 6.5L127.115 23.75H102L111.959 6.5Z" fill="#FFFEFC"/>
<path d="M111.901 11.5042C113.056 9.50305 115.944 9.50305 117.099 11.5042L122 20H107L111.901 11.5042Z" fill="#FAA685"/>
<path d="M38.0075 46.0003C38.6613 44.7711 39.0022 43.3995 39 42.007C39 37.3086 35.1945 33.5 30.5 33.5C25.8055 33.5 22 37.3086 22 42.007C21.9966 44.0138 22.7054 45.9566 24 47.489L24.01 47.5015C24.0135 47.5045 24.0165 47.5085 24.019 47.5115H24L29.044 52.8709C29.231 53.0695 29.4566 53.2278 29.7069 53.336C29.9573 53.4442 30.2271 53.5 30.4998 53.5C30.7724 53.5 31.0422 53.4442 31.2926 53.336C31.5429 53.2278 31.7685 53.0695 31.9555 52.8709L37 47.5115H36.981L36.989 47.502L36.99 47.501C37.026 47.458 37.062 47.4149 37.0975 47.3709C37.4443 46.9443 37.7491 46.4856 38.0075 46.0003ZM30.5025 45.2592C29.7069 45.2592 28.9438 44.9428 28.3812 44.3798C27.8186 43.8167 27.5025 43.053 27.5025 42.2567C27.5025 41.4604 27.8186 40.6967 28.3812 40.1336C28.9438 39.5706 29.7069 39.2542 30.5025 39.2542C31.2981 39.2542 32.0612 39.5706 32.6238 40.1336C33.1864 40.6967 33.5025 41.4604 33.5025 42.2567C33.5025 43.053 33.1864 43.8167 32.6238 44.3798C32.0612 44.9428 31.2981 45.2592 30.5025 45.2592Z" fill="#2074A4"/>
<path d="M63.7861 36.5337C61.8211 42.4529 60.4288 47.293 59.609 51.0542H56.119C55.6006 48.8361 54.9075 46.2322 54.0395 43.2425C53.1956 40.2889 52.4482 37.8839 51.7972 36.0274H54.4735C54.799 37.4861 55.3294 39.4933 56.0648 42.049C56.8122 44.5927 57.4391 46.5697 57.9454 47.9802C58.4396 46.6541 59.0243 44.7916 59.6994 42.3926C60.3625 40.0418 60.8567 38.0889 61.1822 36.5337H63.7861ZM66.8878 38.559C66.8878 38.9327 66.7371 39.2522 66.4357 39.5174C66.1464 39.7706 65.7907 39.8971 65.3688 39.8971C64.9469 39.8971 64.5852 39.7706 64.2838 39.5174C63.9945 39.2522 63.8498 38.9327 63.8498 38.559C63.8498 38.1853 63.9945 37.8719 64.2838 37.6187C64.5852 37.3535 64.9469 37.2209 65.3688 37.2209C65.7907 37.2209 66.1464 37.3535 66.4357 37.6187C66.7371 37.8719 66.8878 38.1853 66.8878 38.559ZM66.5804 51H64.0488C64.1814 49.8306 64.2477 48.1309 64.2477 45.9006C64.2477 43.6584 64.1814 41.9827 64.0488 40.8736H66.5804C66.4357 42.0189 66.3694 43.6765 66.3814 45.8464C66.3935 47.7993 66.4598 49.5172 66.5804 51ZM74.2181 48.6492C74.1578 49.3725 73.9107 49.9633 73.4767 50.4213C72.9101 51.0241 72.0843 51.3255 70.9993 51.3255C69.83 51.3255 68.968 50.9819 68.4135 50.2948C68.0157 49.8005 67.8168 49.246 67.8168 48.6312V47.6366H69.9686V48.5407C69.9686 48.7698 70.059 48.9687 70.2399 49.1375C70.4327 49.3062 70.6919 49.3906 71.0174 49.3906C71.6563 49.3906 72.0059 49.1435 72.0662 48.6492C72.1144 48.2032 71.7829 47.8114 71.0717 47.4739L69.7516 46.841C68.4738 46.2261 67.8348 45.2436 67.8348 43.8935C67.8348 43.7126 67.8469 43.5197 67.871 43.3148C67.9916 42.3986 68.3713 41.6753 69.0102 41.1449C69.5768 40.6627 70.2399 40.4216 70.9993 40.4216C71.795 40.4216 72.464 40.6807 73.0065 41.1991C73.5972 41.7657 73.8926 42.5312 73.8926 43.4956V44.3817H71.8854V43.4956C71.8854 43.1943 71.795 42.9592 71.6142 42.7904C71.4333 42.6216 71.2103 42.5372 70.9451 42.5372C70.3664 42.5372 70.0229 42.8386 69.9144 43.4414C69.9023 43.5378 69.8963 43.6282 69.8963 43.7126C69.8963 44.1707 70.1434 44.5505 70.6377 44.8518C70.6738 44.876 71.1139 45.0809 71.9577 45.4667C73.5852 46.202 74.3386 47.2629 74.2181 48.6492ZM77.9968 38.559C77.9968 38.9327 77.8461 39.2522 77.5448 39.5174C77.2554 39.7706 76.8998 39.8971 76.4779 39.8971C76.0559 39.8971 75.6943 39.7706 75.3929 39.5174C75.1036 39.2522 74.9589 38.9327 74.9589 38.559C74.9589 38.1853 75.1036 37.8719 75.3929 37.6187C75.6943 37.3535 76.0559 37.2209 76.4779 37.2209C76.8998 37.2209 77.2554 37.3535 77.5448 37.6187C77.8461 37.8719 77.9968 38.1853 77.9968 38.559ZM77.6894 51H75.1578C75.2904 49.8306 75.3567 48.1309 75.3567 45.9006C75.3567 43.6584 75.2904 41.9827 75.1578 40.8736H77.6894C77.5448 42.0189 77.4784 43.6765 77.4905 45.8464C77.5026 47.7993 77.5689 49.5172 77.6894 51ZM86.4844 48.2152C86.4362 48.806 86.2916 49.3123 86.0505 49.7342C85.4477 50.7468 84.3868 51.2532 82.8679 51.2532C81.7588 51.2532 80.9149 50.771 80.3363 49.8065C79.7938 48.9265 79.5527 47.8054 79.613 46.4431C79.6371 45.8645 79.6612 44.7433 79.6853 43.0797C79.1549 43.1038 78.751 43.1279 78.4738 43.1521V40.8736C78.534 40.8857 78.9319 40.9218 79.6672 40.9821C79.6552 40.3311 79.625 39.4391 79.5768 38.3059H82.0903C82.03 39.1497 81.9999 40.0659 81.9999 41.0545C83.2054 41.0545 84.3145 40.9942 85.3271 40.8736V43.1521C83.8685 43.0677 82.7654 43.0255 82.018 43.0255C82.018 43.4715 82.024 44.008 82.0361 44.6348C82.0722 45.551 82.0903 46.1659 82.0903 46.4793C82.1265 48.3599 82.5183 49.3304 83.2657 49.3906C83.9046 49.4389 84.2723 49.0471 84.3688 48.2152H86.4844ZM106.447 51H103.898C103.982 50.0235 104.024 48.7155 104.024 47.076C104.024 45.4968 103.982 44.1587 103.898 43.0616C103.283 44.231 102.638 45.6053 101.963 47.1845C101.589 48.0646 101.095 49.3364 100.48 51H98.2558C98.0147 50.2285 97.6229 49.035 97.0804 47.4196C96.4294 45.6716 95.8026 44.237 95.1998 43.1159C95.1154 44.3455 95.0792 45.9308 95.0913 47.8717C95.1034 49.2701 95.1395 50.5057 95.1998 51.5787H92.6501C92.7466 49.6378 92.7948 47.2327 92.7948 44.3636C92.7948 40.9399 92.7466 38.33 92.6501 36.5337H95.5615C95.9954 38.0165 96.6525 39.8851 97.5325 42.1394C98.304 44.1165 98.9731 45.6776 99.5397 46.8229C100.118 45.5932 100.793 44.014 101.565 42.0852C102.059 40.8555 102.74 39.0051 103.608 36.5337H106.447C106.375 39.8248 106.333 42.3444 106.321 44.0924C106.321 47.4196 106.363 49.7221 106.447 51ZM119.285 36.5337C117.32 42.4529 115.928 47.293 115.108 51.0542H111.618C111.099 48.8361 110.406 46.2322 109.538 43.2425C108.694 40.2889 107.947 37.8839 107.296 36.0274H109.972C110.298 37.4861 110.828 39.4933 111.564 42.049C112.311 44.5927 112.938 46.5697 113.444 47.9802C113.938 46.6541 114.523 44.7916 115.198 42.3926C115.861 40.0418 116.356 38.0889 116.681 36.5337H119.285ZM128.679 40.729C128.679 42.0912 128.312 43.1521 127.576 43.9115C126.925 44.5866 126.148 44.9121 125.244 44.888C123.954 44.8639 122.965 44.8639 122.278 44.888C122.326 47.3955 122.393 49.4328 122.477 51H119.964C120.096 49.0953 120.156 46.63 120.144 43.6041C120.144 41.386 120.084 39.0292 119.964 36.5337C121.253 36.7025 123.013 36.6965 125.244 36.5157C126.208 36.4433 127.022 36.805 127.685 37.6006C128.348 38.3963 128.679 39.4391 128.679 40.729ZM126.528 40.6928C126.54 40.1262 126.335 39.65 125.913 39.2643C125.503 38.8785 124.972 38.6856 124.321 38.6856H122.35C122.302 40.3733 122.278 41.7537 122.278 42.8266C122.579 42.8627 123.261 42.8627 124.321 42.8266C125.021 42.8025 125.539 42.6578 125.877 42.3926C126.299 42.0671 126.516 41.5005 126.528 40.6928Z" fill="#2074A4"/>
<path d="M158.127 73.1826C161.888 73.1819 164.952 70.1137 164.967 66.3476L164.967 66.3473C164.98 62.5237 163.11 60.2433 161.756 58.592L161.731 58.5606L161.73 58.5597L161.515 58.2965C162.415 58.9503 163.523 59.3358 164.721 59.3358C167.737 59.3358 170.183 56.8921 170.183 53.8737C170.183 50.8574 167.738 48.4117 164.721 48.4117C161.704 48.4117 159.259 50.8574 159.259 53.8737C159.259 54.9832 159.589 56.015 160.157 56.8763C160.156 56.875 160.154 56.8737 160.153 56.8723C158.625 54.9346 156.258 53.6798 153.592 53.6798C151.209 53.6798 149.067 54.6822 147.548 56.2761C146.791 56.9365 146.075 57.617 145.594 58.2098C145.594 58.2105 145.593 58.2112 145.593 58.2119L145.308 58.5596L145.307 58.5602L145.283 58.5902C143.928 60.2418 142.057 62.5224 142.071 66.3473L142.071 66.3475C142.085 70.1135 145.149 73.1818 148.912 73.1826M158.127 73.1826C157.082 73.185 156.051 72.946 155.114 72.4843C154.531 72.197 153.994 71.8281 153.519 71.3905C153.044 71.8279 152.507 72.1965 151.924 72.4838C150.987 72.9456 149.956 73.1847 148.912 73.1826M158.127 73.1826C158.126 73.1826 158.126 73.1826 158.126 73.1826V72.1826L158.128 73.1826C158.128 73.1826 158.127 73.1826 158.127 73.1826ZM148.912 73.1826C148.912 73.1826 148.911 73.1826 148.911 73.1826L148.913 72.1826V73.1826C148.913 73.1826 148.912 73.1826 148.912 73.1826ZM152.835 70.6607C153.084 70.4326 153.313 70.1824 153.519 69.9126C153.725 70.1824 153.954 70.4326 154.203 70.6608L152.835 70.6607ZM147.925 53.0021C147.925 49.9856 145.479 47.54 142.462 47.54C139.445 47.54 137 49.9859 137 53.0021C137 56.02 139.445 58.465 142.462 58.465C145.479 58.465 147.925 56.0203 147.925 53.0021Z" fill="#2074A4" stroke="#FFFEFB" stroke-width="2"/>
<path d="M153.901 52.834C157.169 52.834 159.818 50.1849 159.818 46.917C159.818 43.6491 157.169 41 153.901 41C150.633 41 147.984 43.6491 147.984 46.917C147.984 50.1849 150.633 52.834 153.901 52.834Z" fill="#2074A4" stroke="#FFFEFB" stroke-width="2"/>
</svg>
