<svg width="151" height="67" viewBox="0 0 151 67" fill="none" xmlns="http://www.w3.org/2000/svg">
<mask id="path-1-outside-1_885_122711" maskUnits="userSpaceOnUse" x="0" y="1" width="151" height="66" fill="black">
<rect fill="white" y="1" width="151" height="66"/>
<path fill-rule="evenodd" clip-rule="evenodd" d="M37.9593 4.5C39.114 2.5 42.0007 2.5 43.1554 4.5L50.9497 18H101.165L108.959 4.5C110.114 2.5 113.001 2.5 114.155 4.5L121.95 18H125.5C138.479 18 149 28.5213 149 41.5C149 54.4787 138.479 65 125.5 65H25.5C12.5213 65 2 54.4787 2 41.5C2 28.5213 12.5213 18 25.5 18H30.1651L37.9593 4.5Z"/>
</mask>
<path fill-rule="evenodd" clip-rule="evenodd" d="M37.9593 4.5C39.114 2.5 42.0007 2.5 43.1554 4.5L50.9497 18H101.165L108.959 4.5C110.114 2.5 113.001 2.5 114.155 4.5L121.95 18H125.5C138.479 18 149 28.5213 149 41.5C149 54.4787 138.479 65 125.5 65H25.5C12.5213 65 2 54.4787 2 41.5C2 28.5213 12.5213 18 25.5 18H30.1651L37.9593 4.5Z" fill="#FAA685"/>
<path d="M43.1554 4.5L44.8875 3.5V3.5L43.1554 4.5ZM37.9593 4.5L36.2272 3.5V3.5L37.9593 4.5ZM50.9497 18L49.2176 19L49.795 20H50.9497V18ZM101.165 18V20H102.32L102.897 19L101.165 18ZM108.959 4.5L110.691 5.5L110.691 5.49999L108.959 4.5ZM114.155 4.5L112.423 5.5L114.155 4.5ZM121.95 18L120.218 19L120.795 20H121.95V18ZM30.1651 18V20H31.3198L31.8971 19L30.1651 18ZM44.8875 3.5C42.963 0.16667 38.1517 0.166664 36.2272 3.5L39.6913 5.5C40.0762 4.83333 41.0385 4.83333 41.4234 5.5L44.8875 3.5ZM52.6817 17L44.8875 3.5L41.4234 5.5L49.2176 19L52.6817 17ZM101.165 16H50.9497V20H101.165V16ZM107.227 3.5L99.433 17L102.897 19L110.691 5.5L107.227 3.5ZM115.887 3.5C113.963 0.166675 109.152 0.166657 107.227 3.5L110.691 5.49999C111.076 4.83334 112.038 4.83333 112.423 5.5L115.887 3.5ZM123.682 17L115.887 3.5L112.423 5.5L120.218 19L123.682 17ZM125.5 16H121.95V20H125.5V16ZM151 41.5C151 27.4167 139.583 16 125.5 16V20C137.374 20 147 29.6259 147 41.5H151ZM125.5 67C139.583 67 151 55.5833 151 41.5H147C147 53.3741 137.374 63 125.5 63V67ZM25.5 67H125.5V63H25.5V67ZM0 41.5C0 55.5833 11.4167 67 25.5 67V63C13.6259 63 4 53.3741 4 41.5H0ZM25.5 16C11.4167 16 0 27.4167 0 41.5H4C4 29.6259 13.6259 20 25.5 20V16ZM30.1651 16H25.5V20H30.1651V16ZM36.2272 3.5L28.433 17L31.8971 19L39.6913 5.5L36.2272 3.5Z" fill="#A56953" mask="url(#path-1-outside-1_885_122711)"/>
<rect x="2" y="18" width="147" height="47" rx="23.5" fill="#FFFEFC"/>
<path d="M37.9593 4.5C39.114 2.5 42.0007 2.5 43.1554 4.5L53.1147 21.75H28L37.9593 4.5Z" fill="#FFFEFC"/>
<path d="M37.9014 9.50416C39.0559 7.50305 41.9441 7.50305 43.0986 9.50416L48 18H33L37.9014 9.50416Z" fill="#FAA685"/>
<path d="M108.959 4.5C110.114 2.5 113.001 2.5 114.155 4.5L124.115 21.75H99L108.959 4.5Z" fill="#FFFEFC"/>
<path d="M108.901 9.50416C110.056 7.50305 112.944 7.50305 114.099 9.50416L119 18H104L108.901 9.50416Z" fill="#FAA685"/>
<path d="M35.0075 44.0003C35.6613 42.7711 36.0022 41.3995 36 40.007C36 35.3086 32.1945 31.5 27.5 31.5C22.8055 31.5 19 35.3086 19 40.007C18.9966 42.0138 19.7054 43.9566 21 45.489L21.01 45.5015C21.0135 45.5045 21.0165 45.5085 21.019 45.5115H21L26.044 50.8709C26.231 51.0695 26.4566 51.2278 26.7069 51.336C26.9573 51.4442 27.2271 51.5 27.4998 51.5C27.7724 51.5 28.0422 51.4442 28.2926 51.336C28.5429 51.2278 28.7685 51.0695 28.9555 50.8709L34 45.5115H33.981L33.989 45.502L33.99 45.501C34.026 45.458 34.062 45.4149 34.0975 45.3709C34.4443 44.9443 34.7491 44.4856 35.0075 44.0003ZM27.5025 43.2592C26.7069 43.2592 25.9438 42.9428 25.3812 42.3798C24.8186 41.8167 24.5025 41.053 24.5025 40.2567C24.5025 39.4604 24.8186 38.6967 25.3812 38.1336C25.9438 37.5706 26.7069 37.2542 27.5025 37.2542C28.2981 37.2542 29.0612 37.5706 29.6238 38.1336C30.1864 38.6967 30.5025 39.4604 30.5025 40.2567C30.5025 41.053 30.1864 41.8167 29.6238 42.3798C29.0612 42.9428 28.2981 43.2592 27.5025 43.2592Z" fill="#A56953"/>
<path d="M55.726 34.5337C53.7611 40.4529 52.3687 45.293 51.5489 49.0542H48.0589C47.5406 46.8361 46.8474 44.2322 45.9794 41.2425C45.1355 38.2889 44.3881 35.8839 43.7371 34.0274H46.4134C46.7389 35.4861 47.2693 37.4933 48.0047 40.049C48.7521 42.5927 49.379 44.5697 49.8853 45.9802C50.3796 44.6541 50.9642 42.7916 51.6393 40.3926C52.3024 38.0418 52.7966 36.0889 53.1221 34.5337H55.726ZM58.8277 36.559C58.8277 36.9327 58.677 37.2522 58.3756 37.5174C58.0863 37.7706 57.7307 37.8971 57.3087 37.8971C56.8868 37.8971 56.5251 37.7706 56.2238 37.5174C55.9344 37.2522 55.7898 36.9327 55.7898 36.559C55.7898 36.1853 55.9344 35.8719 56.2238 35.6187C56.5251 35.3535 56.8868 35.2209 57.3087 35.2209C57.7307 35.2209 58.0863 35.3535 58.3756 35.6187C58.677 35.8719 58.8277 36.1853 58.8277 36.559ZM58.5203 49H55.9887C56.1213 47.8306 56.1876 46.1309 56.1876 43.9006C56.1876 41.6584 56.1213 39.9827 55.9887 38.8736H58.5203C58.3756 40.0189 58.3093 41.6765 58.3214 43.8464C58.3334 45.7993 58.3997 47.5172 58.5203 49ZM66.158 46.6492C66.0977 47.3725 65.8506 47.9633 65.4166 48.4213C64.85 49.0241 64.0242 49.3255 62.9393 49.3255C61.7699 49.3255 60.908 48.9819 60.3534 48.2948C59.9556 47.8005 59.7567 47.246 59.7567 46.6312V45.6366H61.9085V46.5407C61.9085 46.7698 61.9989 46.9687 62.1798 47.1375C62.3727 47.3062 62.6318 47.3906 62.9573 47.3906C63.5963 47.3906 63.9459 47.1435 64.0061 46.6492C64.0544 46.2032 63.7228 45.8114 63.0116 45.4739L61.6915 44.841C60.4137 44.2261 59.7748 43.2436 59.7748 41.8935C59.7748 41.7126 59.7868 41.5197 59.8109 41.3148C59.9315 40.3986 60.3112 39.6753 60.9501 39.1449C61.5167 38.6627 62.1798 38.4216 62.9393 38.4216C63.7349 38.4216 64.404 38.6807 64.9464 39.1991C65.5372 39.7657 65.8325 40.5312 65.8325 41.4956V42.3817H63.8253V41.4956C63.8253 41.1943 63.7349 40.9592 63.5541 40.7904C63.3732 40.6216 63.1502 40.5372 62.885 40.5372C62.3064 40.5372 61.9628 40.8386 61.8543 41.4414C61.8422 41.5378 61.8362 41.6282 61.8362 41.7126C61.8362 42.1707 62.0833 42.5505 62.5776 42.8518C62.6138 42.876 63.0538 43.0809 63.8976 43.4667C65.5251 44.202 66.2786 45.2629 66.158 46.6492ZM69.9367 36.559C69.9367 36.9327 69.7861 37.2522 69.4847 37.5174C69.1953 37.7706 68.8397 37.8971 68.4178 37.8971C67.9959 37.8971 67.6342 37.7706 67.3328 37.5174C67.0435 37.2522 66.8988 36.9327 66.8988 36.559C66.8988 36.1853 67.0435 35.8719 67.3328 35.6187C67.6342 35.3535 67.9959 35.2209 68.4178 35.2209C68.8397 35.2209 69.1953 35.3535 69.4847 35.6187C69.7861 35.8719 69.9367 36.1853 69.9367 36.559ZM69.6293 49H67.0977C67.2303 47.8306 67.2967 46.1309 67.2967 43.9006C67.2967 41.6584 67.2303 39.9827 67.0977 38.8736H69.6293C69.4847 40.0189 69.4184 41.6765 69.4304 43.8464C69.4425 45.7993 69.5088 47.5172 69.6293 49ZM78.4244 46.2152C78.3761 46.806 78.2315 47.3123 77.9904 47.7342C77.3876 48.7468 76.3268 49.2532 74.8078 49.2532C73.6987 49.2532 72.8549 48.771 72.2762 47.8065C71.7337 46.9265 71.4926 45.8054 71.5529 44.4431C71.577 43.8645 71.6011 42.7433 71.6252 41.0797C71.0948 41.1038 70.6909 41.1279 70.4137 41.1521V38.8736C70.474 38.8857 70.8718 38.9218 71.6071 38.9821C71.5951 38.3311 71.5649 37.4391 71.5167 36.3059H74.0302C73.97 37.1497 73.9398 38.0659 73.9398 39.0545C75.1453 39.0545 76.2544 38.9942 77.2671 38.8736V41.1521C75.8084 41.0677 74.7053 41.0255 73.9579 41.0255C73.9579 41.4715 73.9639 42.008 73.976 42.6348C74.0122 43.551 74.0302 44.1659 74.0302 44.4793C74.0664 46.3599 74.4582 47.3304 75.2056 47.3906C75.8445 47.4389 76.2122 47.0471 76.3087 46.2152H78.4244ZM97.1757 49H94.1016C93.9328 48.3008 93.6917 47.4268 93.3783 46.378C92.45 46.2454 91.4615 46.1851 90.4127 46.1972C89.6171 46.2092 88.731 46.2996 87.7545 46.4684C87.5255 47.1435 87.2181 48.1019 86.8323 49.3436L83.9391 49.3255C85.0964 46.5407 86.0186 44.1357 86.7057 42.1104C87.3808 40.1213 88.1463 37.5958 89.0022 34.5337H92.1306C92.5525 36.0286 93.2939 38.4216 94.3548 41.7126C95.0299 43.6535 95.9702 46.0826 97.1757 49ZM92.6731 44.19C91.9859 42.0683 91.2686 40.0852 90.5212 38.2407C90.1475 39.1569 89.7014 40.3504 89.1831 41.8211C89.0143 42.3395 88.7491 43.1291 88.3874 44.19C88.5321 44.202 88.8817 44.2322 89.4362 44.2804C89.8823 44.3166 90.2379 44.3346 90.5031 44.3346C90.8045 44.3346 91.1782 44.3166 91.6243 44.2804C92.215 44.2201 92.5646 44.19 92.6731 44.19ZM104.792 43.3582H102.603C102.652 42.5866 102.67 41.9718 102.658 41.5137C102.634 40.8989 102.374 40.5915 101.88 40.5915C101.784 40.5915 101.693 40.6035 101.609 40.6277C100.922 40.8567 100.367 41.5077 99.9453 42.5806V43.8464C99.9574 45.8837 100.024 47.6016 100.144 49H97.6307C97.7392 47.8668 97.7995 46.167 97.8115 43.9006C97.8236 41.791 97.7633 40.1153 97.6307 38.8736H100.144C100.108 39.1991 100.072 39.5909 100.036 40.049C100.241 39.6753 100.548 39.3558 100.958 39.0906C101.38 38.8133 101.82 38.6687 102.278 38.6566C103.05 38.6446 103.646 38.9098 104.068 39.4523C104.442 39.9345 104.635 40.5372 104.647 41.2606C104.659 42.0562 104.707 42.7554 104.792 43.3582ZM113.633 43.8464C111.62 43.7138 109.595 43.6957 107.557 43.7921V44.19C107.557 45.1182 107.762 45.8536 108.172 46.3961C108.582 46.9386 109.082 47.2098 109.673 47.2098C110.577 47.2098 111.084 46.4805 111.192 45.0218L113.543 45.2388C113.519 46.2755 113.163 47.1977 112.476 48.0054C111.729 48.8734 110.806 49.3074 109.709 49.3074C108.48 49.3074 107.449 48.8373 106.617 47.8969C105.725 46.8843 105.285 45.5462 105.297 43.8826C105.309 42.2551 105.725 40.9411 106.545 39.9405C107.377 38.9279 108.462 38.4216 109.8 38.4216C111.21 38.4216 112.241 39.0424 112.892 40.2841C113.362 41.2003 113.609 42.3877 113.633 43.8464ZM111.264 42.2551C111.035 41.0375 110.505 40.4287 109.673 40.4287C108.781 40.4287 108.154 41.0255 107.793 42.2189C108.721 42.2672 109.878 42.2792 111.264 42.2551ZM121.896 46.2152C121.848 46.806 121.703 47.3123 121.462 47.7342C120.859 48.7468 119.798 49.2532 118.279 49.2532C117.17 49.2532 116.326 48.771 115.748 47.8065C115.205 46.9265 114.964 45.8054 115.024 44.4431C115.049 43.8645 115.073 42.7433 115.097 41.0797C114.566 41.1038 114.162 41.1279 113.885 41.1521V38.8736C113.945 38.8857 114.343 38.9218 115.079 38.9821C115.067 38.3311 115.036 37.4391 114.988 36.3059H117.502C117.441 37.1497 117.411 38.0659 117.411 39.0545C118.617 39.0545 119.726 38.9942 120.739 38.8736V41.1521C119.28 41.0677 118.177 41.0255 117.429 41.0255C117.429 41.4715 117.435 42.008 117.448 42.6348C117.484 43.551 117.502 44.1659 117.502 44.4793C117.538 46.3599 117.93 47.3304 118.677 47.3906C119.316 47.4389 119.684 47.0471 119.78 46.2152H121.896ZM129.288 34.8592L126.684 37.9695H125.382L127.28 34.8592H129.288ZM130.499 43.8464C128.486 43.7138 126.461 43.6957 124.423 43.7921V44.19C124.423 45.1182 124.628 45.8536 125.038 46.3961C125.448 46.9386 125.948 47.2098 126.539 47.2098C127.443 47.2098 127.95 46.4805 128.058 45.0218L130.409 45.2388C130.385 46.2755 130.029 47.1977 129.342 48.0054C128.594 48.8734 127.672 49.3074 126.575 49.3074C125.346 49.3074 124.315 48.8373 123.483 47.8969C122.591 46.8843 122.151 45.5462 122.163 43.8826C122.175 42.2551 122.591 40.9411 123.411 39.9405C124.243 38.9279 125.328 38.4216 126.666 38.4216C128.076 38.4216 129.107 39.0424 129.758 40.2841C130.228 41.2003 130.475 42.3877 130.499 43.8464ZM128.13 42.2551C127.901 41.0375 127.371 40.4287 126.539 40.4287C125.647 40.4287 125.02 41.0255 124.658 42.2189C125.587 42.2672 126.744 42.2792 128.13 42.2551Z" fill="#A56953"/>
</svg>
