<svg width="172" height="75" viewBox="0 0 172 75" fill="none" xmlns="http://www.w3.org/2000/svg">
<mask id="path-1-outside-1_885_122716" maskUnits="userSpaceOnUse" x="0" y="0" width="157" height="72" fill="black">
<rect fill="white" width="157" height="72"/>
<path fill-rule="evenodd" clip-rule="evenodd" d="M40.9593 6.5C42.114 4.5 45.0007 4.5 46.1554 6.5L53.9497 20H104.165L111.959 6.5C113.114 4.5 116.001 4.5 117.155 6.5L124.95 20H128.5C141.479 20 152 30.5213 152 43.5C152 56.4787 141.479 67 128.5 67H28.5C15.5213 67 5 56.4787 5 43.5C5 30.5213 15.5213 20 28.5 20H33.1651L40.9593 6.5Z"/>
</mask>
<path fill-rule="evenodd" clip-rule="evenodd" d="M40.9593 6.5C42.114 4.5 45.0007 4.5 46.1554 6.5L53.9497 20H104.165L111.959 6.5C113.114 4.5 116.001 4.5 117.155 6.5L124.95 20H128.5C141.479 20 152 30.5213 152 43.5C152 56.4787 141.479 67 128.5 67H28.5C15.5213 67 5 56.4787 5 43.5C5 30.5213 15.5213 20 28.5 20H33.1651L40.9593 6.5Z" fill="#FAA685"/>
<path d="M46.1554 6.5L50.0526 4.25V4.25L46.1554 6.5ZM40.9593 6.5L37.0622 4.25V4.25L40.9593 6.5ZM53.9497 20L50.0526 22.25L51.3516 24.5H53.9497V20ZM104.165 20V24.5H106.763L108.062 22.25L104.165 20ZM111.959 6.5L115.856 8.75L115.856 8.74999L111.959 6.5ZM117.155 6.5L113.258 8.75L117.155 6.5ZM124.95 20L121.053 22.25L122.352 24.5H124.95V20ZM33.1651 20V24.5H35.7631L37.0622 22.25L33.1651 20ZM50.0526 4.25C47.1658 -0.749993 39.9489 -0.750006 37.0622 4.25L44.8564 8.75C44.2791 9.75 42.8357 9.75 42.2583 8.75L50.0526 4.25ZM57.8468 17.75L50.0526 4.25L42.2583 8.75L50.0526 22.25L57.8468 17.75ZM104.165 15.5H53.9497V24.5H104.165V15.5ZM108.062 4.25L100.268 17.75L108.062 22.25L115.856 8.75L108.062 4.25ZM121.053 4.25C118.166 -0.749983 110.949 -0.75002 108.062 4.25001L115.856 8.74999C115.279 9.75002 113.836 9.74999 113.258 8.75L121.053 4.25ZM128.847 17.75L121.053 4.25L113.258 8.75L121.053 22.25L128.847 17.75ZM128.5 15.5H124.95V24.5H128.5V15.5ZM156.5 43.5C156.5 28.036 143.964 15.5 128.5 15.5V24.5C138.993 24.5 147.5 33.0066 147.5 43.5H156.5ZM128.5 71.5C143.964 71.5 156.5 58.964 156.5 43.5H147.5C147.5 53.9934 138.993 62.5 128.5 62.5V71.5ZM28.5 71.5H128.5V62.5H28.5V71.5ZM0.5 43.5C0.5 58.964 13.036 71.5 28.5 71.5V62.5C18.0066 62.5 9.5 53.9934 9.5 43.5H0.5ZM28.5 15.5C13.036 15.5 0.5 28.036 0.5 43.5H9.5C9.5 33.0066 18.0066 24.5 28.5 24.5V15.5ZM33.1651 15.5H28.5V24.5H33.1651V15.5ZM37.0622 4.25L29.268 17.75L37.0622 22.25L44.8564 8.75L37.0622 4.25Z" fill="#2074A4" mask="url(#path-1-outside-1_885_122716)"/>
<rect x="5" y="20" width="147" height="47" rx="23.5" fill="#FFFEFC"/>
<path d="M40.9593 6.5C42.114 4.5 45.0007 4.5 46.1554 6.5L56.1147 23.75H31L40.9593 6.5Z" fill="#FFFEFC"/>
<path d="M40.9014 11.5042C42.0559 9.50305 44.9441 9.50305 46.0986 11.5042L51 20H36L40.9014 11.5042Z" fill="#FAA685"/>
<path d="M111.959 6.5C113.114 4.5 116.001 4.5 117.155 6.5L127.115 23.75H102L111.959 6.5Z" fill="#FFFEFC"/>
<path d="M111.901 11.5042C113.056 9.50305 115.944 9.50305 117.099 11.5042L122 20H107L111.901 11.5042Z" fill="#FAA685"/>
<path d="M38.0075 46.0003C38.6613 44.7711 39.0022 43.3995 39 42.007C39 37.3086 35.1945 33.5 30.5 33.5C25.8055 33.5 22 37.3086 22 42.007C21.9966 44.0138 22.7054 45.9566 24 47.489L24.01 47.5015C24.0135 47.5045 24.0165 47.5085 24.019 47.5115H24L29.044 52.8709C29.231 53.0695 29.4566 53.2278 29.7069 53.336C29.9573 53.4442 30.2271 53.5 30.4998 53.5C30.7724 53.5 31.0422 53.4442 31.2926 53.336C31.5429 53.2278 31.7685 53.0695 31.9555 52.8709L37 47.5115H36.981L36.989 47.502L36.99 47.501C37.026 47.458 37.062 47.4149 37.0975 47.3709C37.4443 46.9443 37.7491 46.4856 38.0075 46.0003ZM30.5025 45.2592C29.7069 45.2592 28.9438 44.9428 28.3812 44.3798C27.8186 43.8167 27.5025 43.053 27.5025 42.2567C27.5025 41.4604 27.8186 40.6967 28.3812 40.1336C28.9438 39.5706 29.7069 39.2542 30.5025 39.2542C31.2981 39.2542 32.0612 39.5706 32.6238 40.1336C33.1864 40.6967 33.5025 41.4604 33.5025 42.2567C33.5025 43.053 33.1864 43.8167 32.6238 44.3798C32.0612 44.9428 31.2981 45.2592 30.5025 45.2592Z" fill="#2074A4"/>
<path d="M58.726 36.5337C56.7611 42.4529 55.3687 47.293 54.5489 51.0542H51.0589C50.5406 48.8361 49.8474 46.2322 48.9794 43.2425C48.1355 40.2889 47.3881 37.8839 46.7371 36.0274H49.4134C49.7389 37.4861 50.2693 39.4933 51.0047 42.049C51.7521 44.5927 52.379 46.5697 52.8853 47.9802C53.3796 46.6541 53.9642 44.7916 54.6393 42.3926C55.3024 40.0418 55.7966 38.0889 56.1221 36.5337H58.726ZM61.8277 38.559C61.8277 38.9327 61.677 39.2522 61.3756 39.5174C61.0863 39.7706 60.7307 39.8971 60.3087 39.8971C59.8868 39.8971 59.5251 39.7706 59.2238 39.5174C58.9344 39.2522 58.7898 38.9327 58.7898 38.559C58.7898 38.1853 58.9344 37.8719 59.2238 37.6187C59.5251 37.3535 59.8868 37.2209 60.3087 37.2209C60.7307 37.2209 61.0863 37.3535 61.3756 37.6187C61.677 37.8719 61.8277 38.1853 61.8277 38.559ZM61.5203 51H58.9887C59.1213 49.8306 59.1876 48.1309 59.1876 45.9006C59.1876 43.6584 59.1213 41.9827 58.9887 40.8736H61.5203C61.3756 42.0189 61.3093 43.6765 61.3214 45.8464C61.3334 47.7993 61.3997 49.5172 61.5203 51ZM69.158 48.6492C69.0977 49.3725 68.8506 49.9633 68.4166 50.4213C67.85 51.0241 67.0242 51.3255 65.9393 51.3255C64.7699 51.3255 63.908 50.9819 63.3534 50.2948C62.9556 49.8005 62.7567 49.246 62.7567 48.6312V47.6366H64.9085V48.5407C64.9085 48.7698 64.9989 48.9687 65.1798 49.1375C65.3727 49.3062 65.6318 49.3906 65.9573 49.3906C66.5963 49.3906 66.9459 49.1435 67.0061 48.6492C67.0544 48.2032 66.7228 47.8114 66.0116 47.4739L64.6915 46.841C63.4137 46.2261 62.7748 45.2436 62.7748 43.8935C62.7748 43.7126 62.7868 43.5197 62.8109 43.3148C62.9315 42.3986 63.3112 41.6753 63.9501 41.1449C64.5167 40.6627 65.1798 40.4216 65.9393 40.4216C66.7349 40.4216 67.404 40.6807 67.9464 41.1991C68.5372 41.7657 68.8325 42.5312 68.8325 43.4956V44.3817H66.8253V43.4956C66.8253 43.1943 66.7349 42.9592 66.5541 42.7904C66.3732 42.6216 66.1502 42.5372 65.885 42.5372C65.3064 42.5372 64.9628 42.8386 64.8543 43.4414C64.8422 43.5378 64.8362 43.6282 64.8362 43.7126C64.8362 44.1707 65.0833 44.5505 65.5776 44.8518C65.6138 44.876 66.0538 45.0809 66.8976 45.4667C68.5251 46.202 69.2786 47.2629 69.158 48.6492ZM72.9367 38.559C72.9367 38.9327 72.7861 39.2522 72.4847 39.5174C72.1953 39.7706 71.8397 39.8971 71.4178 39.8971C70.9959 39.8971 70.6342 39.7706 70.3328 39.5174C70.0435 39.2522 69.8988 38.9327 69.8988 38.559C69.8988 38.1853 70.0435 37.8719 70.3328 37.6187C70.6342 37.3535 70.9959 37.2209 71.4178 37.2209C71.8397 37.2209 72.1953 37.3535 72.4847 37.6187C72.7861 37.8719 72.9367 38.1853 72.9367 38.559ZM72.6293 51H70.0977C70.2303 49.8306 70.2967 48.1309 70.2967 45.9006C70.2967 43.6584 70.2303 41.9827 70.0977 40.8736H72.6293C72.4847 42.0189 72.4184 43.6765 72.4304 45.8464C72.4425 47.7993 72.5088 49.5172 72.6293 51ZM81.4244 48.2152C81.3761 48.806 81.2315 49.3123 80.9904 49.7342C80.3876 50.7468 79.3268 51.2532 77.8078 51.2532C76.6987 51.2532 75.8549 50.771 75.2762 49.8065C74.7337 48.9265 74.4926 47.8054 74.5529 46.4431C74.577 45.8645 74.6011 44.7433 74.6252 43.0797C74.0948 43.1038 73.6909 43.1279 73.4137 43.1521V40.8736C73.474 40.8857 73.8718 40.9218 74.6071 40.9821C74.5951 40.3311 74.5649 39.4391 74.5167 38.3059H77.0302C76.97 39.1497 76.9398 40.0659 76.9398 41.0545C78.1453 41.0545 79.2544 40.9942 80.2671 40.8736V43.1521C78.8084 43.0677 77.7053 43.0255 76.9579 43.0255C76.9579 43.4715 76.9639 44.008 76.976 44.6348C77.0122 45.551 77.0302 46.1659 77.0302 46.4793C77.0664 48.3599 77.4582 49.3304 78.2056 49.3906C78.8445 49.4389 79.2122 49.0471 79.3087 48.2152H81.4244ZM100.176 51H97.1016C96.9328 50.3008 96.6917 49.4268 96.3783 48.378C95.45 48.2454 94.4615 48.1851 93.4127 48.1972C92.6171 48.2092 91.731 48.2996 90.7545 48.4684C90.5255 49.1435 90.2181 50.1019 89.8323 51.3436L86.9391 51.3255C88.0964 48.5407 89.0186 46.1357 89.7057 44.1104C90.3808 42.1213 91.1463 39.5958 92.0022 36.5337H95.1306C95.5525 38.0286 96.2939 40.4216 97.3548 43.7126C98.0299 45.6535 98.9702 48.0826 100.176 51ZM95.6731 46.19C94.9859 44.0683 94.2686 42.0852 93.5212 40.2407C93.1475 41.1569 92.7014 42.3504 92.1831 43.8211C92.0143 44.3395 91.7491 45.1291 91.3874 46.19C91.5321 46.202 91.8817 46.2322 92.4362 46.2804C92.8823 46.3166 93.2379 46.3346 93.5031 46.3346C93.8045 46.3346 94.1782 46.3166 94.6243 46.2804C95.215 46.2201 95.5646 46.19 95.6731 46.19ZM107.792 45.3582H105.603C105.652 44.5866 105.67 43.9718 105.658 43.5137C105.634 42.8989 105.374 42.5915 104.88 42.5915C104.784 42.5915 104.693 42.6035 104.609 42.6277C103.922 42.8567 103.367 43.5077 102.945 44.5806V45.8464C102.957 47.8837 103.024 49.6016 103.144 51H100.631C100.739 49.8668 100.799 48.167 100.812 45.9006C100.824 43.791 100.763 42.1153 100.631 40.8736H103.144C103.108 41.1991 103.072 41.5909 103.036 42.049C103.241 41.6753 103.548 41.3558 103.958 41.0906C104.38 40.8133 104.82 40.6687 105.278 40.6566C106.05 40.6446 106.646 40.9098 107.068 41.4523C107.442 41.9345 107.635 42.5372 107.647 43.2606C107.659 44.0562 107.707 44.7554 107.792 45.3582ZM116.633 45.8464C114.62 45.7138 112.595 45.6957 110.557 45.7921V46.19C110.557 47.1182 110.762 47.8536 111.172 48.3961C111.582 48.9386 112.082 49.2098 112.673 49.2098C113.577 49.2098 114.084 48.4805 114.192 47.0218L116.543 47.2388C116.519 48.2755 116.163 49.1977 115.476 50.0054C114.729 50.8734 113.806 51.3074 112.709 51.3074C111.48 51.3074 110.449 50.8373 109.617 49.8969C108.725 48.8843 108.285 47.5462 108.297 45.8826C108.309 44.2551 108.725 42.9411 109.545 41.9405C110.377 40.9279 111.462 40.4216 112.8 40.4216C114.21 40.4216 115.241 41.0424 115.892 42.2841C116.362 43.2003 116.609 44.3877 116.633 45.8464ZM114.264 44.2551C114.035 43.0375 113.505 42.4287 112.673 42.4287C111.781 42.4287 111.154 43.0255 110.793 44.2189C111.721 44.2672 112.878 44.2792 114.264 44.2551ZM124.896 48.2152C124.848 48.806 124.703 49.3123 124.462 49.7342C123.859 50.7468 122.798 51.2532 121.279 51.2532C120.17 51.2532 119.326 50.771 118.748 49.8065C118.205 48.9265 117.964 47.8054 118.024 46.4431C118.049 45.8645 118.073 44.7433 118.097 43.0797C117.566 43.1038 117.162 43.1279 116.885 43.1521V40.8736C116.945 40.8857 117.343 40.9218 118.079 40.9821C118.067 40.3311 118.036 39.4391 117.988 38.3059H120.502C120.441 39.1497 120.411 40.0659 120.411 41.0545C121.617 41.0545 122.726 40.9942 123.739 40.8736V43.1521C122.28 43.0677 121.177 43.0255 120.429 43.0255C120.429 43.4715 120.435 44.008 120.448 44.6348C120.484 45.551 120.502 46.1659 120.502 46.4793C120.538 48.3599 120.93 49.3304 121.677 49.3906C122.316 49.4389 122.684 49.0471 122.78 48.2152H124.896ZM132.288 36.8592L129.684 39.9695H128.382L130.28 36.8592H132.288ZM133.499 45.8464C131.486 45.7138 129.461 45.6957 127.423 45.7921V46.19C127.423 47.1182 127.628 47.8536 128.038 48.3961C128.448 48.9386 128.948 49.2098 129.539 49.2098C130.443 49.2098 130.95 48.4805 131.058 47.0218L133.409 47.2388C133.385 48.2755 133.029 49.1977 132.342 50.0054C131.594 50.8734 130.672 51.3074 129.575 51.3074C128.346 51.3074 127.315 50.8373 126.483 49.8969C125.591 48.8843 125.151 47.5462 125.163 45.8826C125.175 44.2551 125.591 42.9411 126.411 41.9405C127.243 40.9279 128.328 40.4216 129.666 40.4216C131.076 40.4216 132.107 41.0424 132.758 42.2841C133.228 43.2003 133.475 44.3877 133.499 45.8464ZM131.13 44.2551C130.901 43.0375 130.371 42.4287 129.539 42.4287C128.647 42.4287 128.02 43.0255 127.658 44.2189C128.587 44.2672 129.744 44.2792 131.13 44.2551Z" fill="#2074A4"/>
<path d="M158.127 73.1826C161.888 73.1819 164.952 70.1137 164.967 66.3476L164.967 66.3473C164.98 62.5237 163.11 60.2433 161.756 58.592L161.731 58.5606L161.73 58.5597L161.515 58.2965C162.415 58.9503 163.523 59.3358 164.721 59.3358C167.737 59.3358 170.183 56.8921 170.183 53.8737C170.183 50.8574 167.738 48.4117 164.721 48.4117C161.704 48.4117 159.259 50.8574 159.259 53.8737C159.259 54.9832 159.589 56.015 160.157 56.8763C160.156 56.875 160.154 56.8737 160.153 56.8723C158.625 54.9346 156.258 53.6798 153.592 53.6798C151.209 53.6798 149.067 54.6822 147.548 56.2761C146.791 56.9365 146.075 57.617 145.594 58.2098C145.594 58.2105 145.593 58.2112 145.593 58.2119L145.308 58.5596L145.307 58.5602L145.283 58.5902C143.928 60.2418 142.057 62.5224 142.071 66.3473L142.071 66.3475C142.085 70.1135 145.149 73.1818 148.912 73.1826M158.127 73.1826C157.082 73.185 156.051 72.946 155.114 72.4843C154.531 72.197 153.994 71.8281 153.519 71.3905C153.044 71.8279 152.507 72.1965 151.924 72.4838C150.987 72.9456 149.956 73.1847 148.912 73.1826M158.127 73.1826C158.126 73.1826 158.126 73.1826 158.126 73.1826V72.1826L158.128 73.1826C158.128 73.1826 158.127 73.1826 158.127 73.1826ZM148.912 73.1826C148.912 73.1826 148.911 73.1826 148.911 73.1826L148.913 72.1826V73.1826C148.913 73.1826 148.912 73.1826 148.912 73.1826ZM152.835 70.6607C153.084 70.4326 153.313 70.1824 153.519 69.9126C153.725 70.1824 153.954 70.4326 154.203 70.6608L152.835 70.6607ZM147.925 53.0021C147.925 49.9856 145.479 47.54 142.462 47.54C139.445 47.54 137 49.9859 137 53.0021C137 56.02 139.445 58.465 142.462 58.465C145.479 58.465 147.925 56.0203 147.925 53.0021Z" fill="#2074A4" stroke="#FFFEFB" stroke-width="2"/>
<path d="M153.901 52.834C157.169 52.834 159.818 50.1849 159.818 46.917C159.818 43.6491 157.169 41 153.901 41C150.633 41 147.984 43.6491 147.984 46.917C147.984 50.1849 150.633 52.834 153.901 52.834Z" fill="#2074A4" stroke="#FFFEFB" stroke-width="2"/>
</svg>
