<svg width="151" height="67" viewBox="0 0 151 67" fill="none" xmlns="http://www.w3.org/2000/svg">
<mask id="path-1-outside-1_885_122714" maskUnits="userSpaceOnUse" x="0" y="1" width="151" height="66" fill="black">
<rect fill="white" y="1" width="151" height="66"/>
<path fill-rule="evenodd" clip-rule="evenodd" d="M37.9593 4.5C39.114 2.5 42.0007 2.5 43.1554 4.5L50.9497 18H101.165L108.959 4.5C110.114 2.5 113.001 2.5 114.155 4.5L121.95 18H125.5C138.479 18 149 28.5213 149 41.5C149 54.4787 138.479 65 125.5 65H25.5C12.5213 65 2 54.4787 2 41.5C2 28.5213 12.5213 18 25.5 18H30.1651L37.9593 4.5Z"/>
</mask>
<path fill-rule="evenodd" clip-rule="evenodd" d="M37.9593 4.5C39.114 2.5 42.0007 2.5 43.1554 4.5L50.9497 18H101.165L108.959 4.5C110.114 2.5 113.001 2.5 114.155 4.5L121.95 18H125.5C138.479 18 149 28.5213 149 41.5C149 54.4787 138.479 65 125.5 65H25.5C12.5213 65 2 54.4787 2 41.5C2 28.5213 12.5213 18 25.5 18H30.1651L37.9593 4.5Z" fill="#FAA685"/>
<path d="M43.1554 4.5L44.8875 3.5V3.5L43.1554 4.5ZM37.9593 4.5L36.2272 3.5V3.5L37.9593 4.5ZM50.9497 18L49.2176 19L49.795 20H50.9497V18ZM101.165 18V20H102.32L102.897 19L101.165 18ZM108.959 4.5L110.691 5.5L110.691 5.49999L108.959 4.5ZM114.155 4.5L112.423 5.5L114.155 4.5ZM121.95 18L120.218 19L120.795 20H121.95V18ZM30.1651 18V20H31.3198L31.8971 19L30.1651 18ZM44.8875 3.5C42.963 0.16667 38.1517 0.166664 36.2272 3.5L39.6913 5.5C40.0762 4.83333 41.0385 4.83333 41.4234 5.5L44.8875 3.5ZM52.6817 17L44.8875 3.5L41.4234 5.5L49.2176 19L52.6817 17ZM101.165 16H50.9497V20H101.165V16ZM107.227 3.5L99.433 17L102.897 19L110.691 5.5L107.227 3.5ZM115.887 3.5C113.963 0.166675 109.152 0.166657 107.227 3.5L110.691 5.49999C111.076 4.83334 112.038 4.83333 112.423 5.5L115.887 3.5ZM123.682 17L115.887 3.5L112.423 5.5L120.218 19L123.682 17ZM125.5 16H121.95V20H125.5V16ZM151 41.5C151 27.4167 139.583 16 125.5 16V20C137.374 20 147 29.6259 147 41.5H151ZM125.5 67C139.583 67 151 55.5833 151 41.5H147C147 53.3741 137.374 63 125.5 63V67ZM25.5 67H125.5V63H25.5V67ZM0 41.5C0 55.5833 11.4167 67 25.5 67V63C13.6259 63 4 53.3741 4 41.5H0ZM25.5 16C11.4167 16 0 27.4167 0 41.5H4C4 29.6259 13.6259 20 25.5 20V16ZM30.1651 16H25.5V20H30.1651V16ZM36.2272 3.5L28.433 17L31.8971 19L39.6913 5.5L36.2272 3.5Z" fill="#A56953" mask="url(#path-1-outside-1_885_122714)"/>
<rect x="2" y="18" width="147" height="47" rx="23.5" fill="#FFFEFC"/>
<path d="M37.9593 4.5C39.114 2.5 42.0007 2.5 43.1554 4.5L53.1147 21.75H28L37.9593 4.5Z" fill="#FFFEFC"/>
<path d="M37.9014 9.50416C39.0559 7.50305 41.9441 7.50305 43.0986 9.50416L48 18H33L37.9014 9.50416Z" fill="#FAA685"/>
<path d="M108.959 4.5C110.114 2.5 113.001 2.5 114.155 4.5L124.115 21.75H99L108.959 4.5Z" fill="#FFFEFC"/>
<path d="M108.901 9.50416C110.056 7.50305 112.944 7.50305 114.099 9.50416L119 18H104L108.901 9.50416Z" fill="#FAA685"/>
<path d="M35.0075 44.0003C35.6613 42.7711 36.0022 41.3995 36 40.007C36 35.3086 32.1945 31.5 27.5 31.5C22.8055 31.5 19 35.3086 19 40.007C18.9966 42.0138 19.7054 43.9566 21 45.489L21.01 45.5015C21.0135 45.5045 21.0165 45.5085 21.019 45.5115H21L26.044 50.8709C26.231 51.0695 26.4566 51.2278 26.7069 51.336C26.9573 51.4442 27.2271 51.5 27.4998 51.5C27.7724 51.5 28.0422 51.4442 28.2926 51.336C28.5429 51.2278 28.7685 51.0695 28.9555 50.8709L34 45.5115H33.981L33.989 45.502L33.99 45.501C34.026 45.458 34.062 45.4149 34.0975 45.3709C34.4443 44.9443 34.7491 44.4856 35.0075 44.0003ZM27.5025 43.2592C26.7069 43.2592 25.9438 42.9428 25.3812 42.3798C24.8186 41.8167 24.5025 41.053 24.5025 40.2567C24.5025 39.4604 24.8186 38.6967 25.3812 38.1336C25.9438 37.5706 26.7069 37.2542 27.5025 37.2542C28.2981 37.2542 29.0612 37.5706 29.6238 38.1336C30.1864 38.6967 30.5025 39.4604 30.5025 40.2567C30.5025 41.053 30.1864 41.8167 29.6238 42.3798C29.0612 42.9428 28.2981 43.2592 27.5025 43.2592Z" fill="#A56953"/>
<path d="M56.7856 34.5337C54.8206 40.4529 53.4282 45.293 52.6085 49.0542H49.1185C48.6001 46.8361 47.9069 44.2322 47.039 41.2425C46.1951 38.2889 45.4477 35.8839 44.7967 34.0274H47.4729C47.7984 35.4861 48.3289 37.4933 49.0642 40.049C49.8116 42.5927 50.4385 44.5697 50.9448 45.9802C51.4391 44.6541 52.0238 42.7916 52.6989 40.3926C53.3619 38.0418 53.8562 36.0889 54.1817 34.5337H56.7856ZM59.8872 36.559C59.8872 36.9327 59.7365 37.2522 59.4351 37.5174C59.1458 37.7706 58.7902 37.8971 58.3683 37.8971C57.9463 37.8971 57.5847 37.7706 57.2833 37.5174C56.994 37.2522 56.8493 36.9327 56.8493 36.559C56.8493 36.1853 56.994 35.8719 57.2833 35.6187C57.5847 35.3535 57.9463 35.2209 58.3683 35.2209C58.7902 35.2209 59.1458 35.3535 59.4351 35.6187C59.7365 35.8719 59.8872 36.1853 59.8872 36.559ZM59.5798 49H57.0482C57.1808 47.8306 57.2471 46.1309 57.2471 43.9006C57.2471 41.6584 57.1808 39.9827 57.0482 38.8736H59.5798C59.4351 40.0189 59.3688 41.6765 59.3809 43.8464C59.393 45.7993 59.4593 47.5172 59.5798 49ZM67.2175 46.6492C67.1573 47.3725 66.9101 47.9633 66.4761 48.4213C65.9095 49.0241 65.0838 49.3255 63.9988 49.3255C62.8294 49.3255 61.9675 48.9819 61.413 48.2948C61.0151 47.8005 60.8162 47.246 60.8162 46.6312V45.6366H62.9681V46.5407C62.9681 46.7698 63.0585 46.9687 63.2393 47.1375C63.4322 47.3062 63.6914 47.3906 64.0169 47.3906C64.6558 47.3906 65.0054 47.1435 65.0657 46.6492C65.1139 46.2032 64.7824 45.8114 64.0711 45.4739L62.7511 44.841C61.4732 44.2261 60.8343 43.2436 60.8343 41.8935C60.8343 41.7126 60.8464 41.5197 60.8705 41.3148C60.991 40.3986 61.3708 39.6753 62.0097 39.1449C62.5763 38.6627 63.2393 38.4216 63.9988 38.4216C64.7944 38.4216 65.4635 38.6807 66.006 39.1991C66.5967 39.7657 66.892 40.5312 66.892 41.4956V42.3817H64.8849V41.4956C64.8849 41.1943 64.7944 40.9592 64.6136 40.7904C64.4328 40.6216 64.2098 40.5372 63.9445 40.5372C63.3659 40.5372 63.0223 40.8386 62.9138 41.4414C62.9018 41.5378 62.8957 41.6282 62.8957 41.7126C62.8957 42.1707 63.1429 42.5505 63.6371 42.8518C63.6733 42.876 64.1133 43.0809 64.9572 43.4667C66.5846 44.202 67.3381 45.2629 67.2175 46.6492ZM70.9963 36.559C70.9963 36.9327 70.8456 37.2522 70.5442 37.5174C70.2549 37.7706 69.8993 37.8971 69.4773 37.8971C69.0554 37.8971 68.6937 37.7706 68.3924 37.5174C68.103 37.2522 67.9584 36.9327 67.9584 36.559C67.9584 36.1853 68.103 35.8719 68.3924 35.6187C68.6937 35.3535 69.0554 35.2209 69.4773 35.2209C69.8993 35.2209 70.2549 35.3535 70.5442 35.6187C70.8456 35.8719 70.9963 36.1853 70.9963 36.559ZM70.6889 49H68.1573C68.2899 47.8306 68.3562 46.1309 68.3562 43.9006C68.3562 41.6584 68.2899 39.9827 68.1573 38.8736H70.6889C70.5442 40.0189 70.4779 41.6765 70.49 43.8464C70.502 45.7993 70.5683 47.5172 70.6889 49ZM79.4839 46.2152C79.4357 46.806 79.291 47.3123 79.0499 47.7342C78.4472 48.7468 77.3863 49.2532 75.8673 49.2532C74.7583 49.2532 73.9144 48.771 73.3357 47.8065C72.7933 46.9265 72.5522 45.8054 72.6124 44.4431C72.6365 43.8645 72.6607 42.7433 72.6848 41.0797C72.1543 41.1038 71.7505 41.1279 71.4732 41.1521V38.8736C71.5335 38.8857 71.9313 38.9218 72.6667 38.9821C72.6546 38.3311 72.6245 37.4391 72.5763 36.3059H75.0898C75.0295 37.1497 74.9994 38.0659 74.9994 39.0545C76.2049 39.0545 77.314 38.9942 78.3266 38.8736V41.1521C76.8679 41.0677 75.7649 41.0255 75.0174 41.0255C75.0174 41.4715 75.0235 42.008 75.0355 42.6348C75.0717 43.551 75.0898 44.1659 75.0898 44.4793C75.1259 46.3599 75.5177 47.3304 76.2652 47.3906C76.9041 47.4389 77.2718 47.0471 77.3682 46.2152H79.4839ZM94.6006 37.0473C93.4915 36.9629 92.2558 36.9267 90.8936 36.9388C89.6157 36.9508 88.6393 36.987 87.9642 37.0473C87.928 38.2166 87.9099 39.4824 87.9099 40.8446C88.5247 40.9531 89.2903 41.0014 90.2064 40.9893C91.0503 40.9773 91.8218 40.929 92.5211 40.8446V43.3582C91.9786 43.2979 91.1829 43.2677 90.1341 43.2677C89.3626 43.2677 88.6272 43.2979 87.928 43.3582C87.9521 45.7451 88.0003 47.8306 88.0727 49.6148H85.5411C85.6616 47.2158 85.7279 44.5335 85.74 41.568C85.74 38.7953 85.6737 36.4505 85.5411 34.5337C86.7466 34.6422 88.2173 34.6905 89.9533 34.6784C91.6772 34.6664 93.2263 34.6181 94.6006 34.5337V37.0473ZM102.068 49.2532C101.743 49.3496 101.435 49.3978 101.146 49.3978C100.423 49.3978 99.8318 49.0784 99.3737 48.4394C98.6263 49.1869 97.7704 49.5485 96.806 49.5244C95.8054 49.5003 95.0278 49.1748 94.4733 48.5479C94.0031 48.0175 93.7681 47.4208 93.7681 46.7577C93.7681 46.0706 93.9609 45.4919 94.3467 45.0218C94.8289 44.419 95.5643 44.1176 96.5528 44.1176C97.5172 44.1176 98.337 44.3587 99.0121 44.841V42.7976C99.0121 41.3389 98.4636 40.6096 97.3665 40.6096C96.7638 40.6096 96.2936 40.9652 95.9561 41.6765C95.6909 42.2431 95.5583 42.876 95.5583 43.5752H93.3883C93.3642 42.1647 93.7018 40.9953 94.401 40.0671C95.1604 39.0545 96.2032 38.5481 97.5293 38.5481C100.193 38.5481 101.477 40.0852 101.381 43.1592C101.321 45.0881 101.321 46.3599 101.381 46.9747C101.429 47.4569 101.658 47.698 102.068 47.698V49.2532ZM99.0121 46.8662V46.5769C98.2647 46.2032 97.68 46.0163 97.258 46.0163C96.5709 46.0163 96.2273 46.2996 96.2273 46.8662C96.2273 47.3484 96.595 47.5895 97.3304 47.5895C97.68 47.5895 98.2405 47.3484 99.0121 46.8662ZM111.764 49H109.232C109.292 48.5057 109.329 47.9813 109.341 47.4268C108.895 48.4756 108.027 49.0904 106.737 49.2712C106.532 49.2954 106.327 49.3074 106.122 49.3074C105.266 49.3074 104.549 49.1025 103.97 48.6926C103.319 48.2224 103.012 47.5353 103.048 46.6312C103.096 45.51 103.132 44.3286 103.156 43.0869C103.192 41.2063 103.162 39.8079 103.066 38.8917H105.561C105.441 40.1575 105.393 41.574 105.417 43.1412C105.429 44.2261 105.471 45.2388 105.543 46.1791C105.579 46.6131 105.742 46.9566 106.031 47.2098C106.297 47.4147 106.616 47.5172 106.99 47.5172C107.508 47.5172 108.002 47.3243 108.473 46.9386C108.883 46.589 109.196 46.1489 109.413 45.6185V43.9368C109.413 41.9477 109.353 40.0791 109.232 38.3311H111.764C111.655 39.9465 111.595 41.8754 111.583 44.1176C111.571 45.9621 111.631 47.5895 111.764 49ZM120.033 43.3582H117.845C117.893 42.5866 117.911 41.9718 117.899 41.5137C117.875 40.8989 117.616 40.5915 117.121 40.5915C117.025 40.5915 116.935 40.6035 116.85 40.6277C116.163 40.8567 115.609 41.5077 115.187 42.5806V43.8464C115.199 45.8837 115.265 47.6016 115.386 49H112.872C112.98 47.8668 113.041 46.167 113.053 43.9006C113.065 41.791 113.005 40.1153 112.872 38.8736H115.386C115.349 39.1991 115.313 39.5909 115.277 40.049C115.482 39.6753 115.789 39.3558 116.199 39.0906C116.621 38.8133 117.061 38.6687 117.519 38.6566C118.291 38.6446 118.888 38.9098 119.309 39.4523C119.683 39.9345 119.876 40.5372 119.888 41.2606C119.9 42.0562 119.948 42.7554 120.033 43.3582ZM129.345 49.2532C129.019 49.3496 128.712 49.3978 128.423 49.3978C127.699 49.3978 127.108 49.0784 126.65 48.4394C125.903 49.1869 125.047 49.5485 124.083 49.5244C123.082 49.5003 122.304 49.1748 121.75 48.5479C121.28 48.0175 121.045 47.4208 121.045 46.7577C121.045 46.0706 121.238 45.4919 121.623 45.0218C122.106 44.419 122.841 44.1176 123.829 44.1176C124.794 44.1176 125.614 44.3587 126.289 44.841V42.7976C126.289 41.3389 125.74 40.6096 124.643 40.6096C124.04 40.6096 123.57 40.9652 123.233 41.6765C122.968 42.2431 122.835 42.876 122.835 43.5752H120.665C120.641 42.1647 120.978 40.9953 121.678 40.0671C122.437 39.0545 123.48 38.5481 124.806 38.5481C127.47 38.5481 128.754 40.0852 128.658 43.1592C128.597 45.0881 128.597 46.3599 128.658 46.9747C128.706 47.4569 128.935 47.698 129.345 47.698V49.2532ZM126.289 46.8662V46.5769C125.541 46.2032 124.957 46.0163 124.535 46.0163C123.848 46.0163 123.504 46.2996 123.504 46.8662C123.504 47.3484 123.872 47.5895 124.607 47.5895C124.957 47.5895 125.517 47.3484 126.289 46.8662Z" fill="#A56953"/>
</svg>
