<svg width="234" height="75" viewBox="0 0 234 75" fill="none" xmlns="http://www.w3.org/2000/svg">
<mask id="path-1-outside-1_885_122718" maskUnits="userSpaceOnUse" x="0" y="0" width="223" height="72" fill="black">
<rect fill="white" width="223" height="72"/>
<path fill-rule="evenodd" clip-rule="evenodd" d="M43.9593 6.5C45.114 4.5 48.0007 4.5 49.1554 6.5L56.9497 20H171.165L178.959 6.5C180.114 4.5 183.001 4.5 184.155 6.5L191.95 20H194.5C207.479 20 218 30.5213 218 43.5C218 56.4787 207.479 67 194.5 67H28.5C15.5213 67 5 56.4787 5 43.5C5 30.5213 15.5213 20 28.5 20H36.1651L43.9593 6.5Z"/>
</mask>
<path fill-rule="evenodd" clip-rule="evenodd" d="M43.9593 6.5C45.114 4.5 48.0007 4.5 49.1554 6.5L56.9497 20H171.165L178.959 6.5C180.114 4.5 183.001 4.5 184.155 6.5L191.95 20H194.5C207.479 20 218 30.5213 218 43.5C218 56.4787 207.479 67 194.5 67H28.5C15.5213 67 5 56.4787 5 43.5C5 30.5213 15.5213 20 28.5 20H36.1651L43.9593 6.5Z" fill="#FAA685"/>
<path d="M49.1554 6.5L53.0526 4.25V4.25L49.1554 6.5ZM43.9593 6.5L40.0622 4.25V4.25L43.9593 6.5ZM56.9497 20L53.0526 22.25L54.3516 24.5H56.9497V20ZM171.165 20V24.5H173.763L175.062 22.25L171.165 20ZM178.959 6.5L175.062 4.24999V4.25L178.959 6.5ZM184.155 6.5L180.258 8.74999L180.258 8.75L184.155 6.5ZM191.95 20L188.053 22.25L189.352 24.5H191.95V20ZM36.1651 20V24.5H38.7631L40.0622 22.25L36.1651 20ZM53.0526 4.25C50.1658 -0.749993 42.9489 -0.750006 40.0622 4.25L47.8564 8.75C47.2791 9.75 45.8357 9.75 45.2583 8.75L53.0526 4.25ZM60.8468 17.75L53.0526 4.25L45.2583 8.75L53.0526 22.25L60.8468 17.75ZM171.165 15.5H56.9497V24.5H171.165V15.5ZM175.062 4.25L167.268 17.75L175.062 22.25L182.856 8.75L175.062 4.25ZM188.053 4.25001C185.166 -0.750017 177.949 -0.749982 175.062 4.24999L182.856 8.75001C182.279 9.74998 180.836 9.75002 180.258 8.74999L188.053 4.25001ZM195.847 17.75L188.053 4.25L180.258 8.75L188.053 22.25L195.847 17.75ZM194.5 15.5H191.95V24.5H194.5V15.5ZM222.5 43.5C222.5 28.036 209.964 15.5 194.5 15.5V24.5C204.993 24.5 213.5 33.0066 213.5 43.5H222.5ZM194.5 71.5C209.964 71.5 222.5 58.964 222.5 43.5H213.5C213.5 53.9934 204.993 62.5 194.5 62.5V71.5ZM28.5 71.5H194.5V62.5H28.5V71.5ZM0.5 43.5C0.5 58.964 13.036 71.5 28.5 71.5V62.5C18.0066 62.5 9.5 53.9934 9.5 43.5H0.5ZM28.5 15.5C13.036 15.5 0.5 28.036 0.5 43.5H9.5C9.5 33.0066 18.0066 24.5 28.5 24.5V15.5ZM36.1651 15.5H28.5V24.5H36.1651V15.5ZM40.0622 4.25L32.268 17.75L40.0622 22.25L47.8564 8.75L40.0622 4.25Z" fill="#2074A4" mask="url(#path-1-outside-1_885_122718)"/>
<rect x="5" y="20" width="213" height="47" rx="23.5" fill="#FFFEFC"/>
<path d="M43.9593 6.5C45.114 4.5 48.0007 4.5 49.1554 6.5L59.1147 23.75H34L43.9593 6.5Z" fill="#FFFEFC"/>
<path d="M43.9014 11.5042C45.0559 9.50305 47.9441 9.50305 49.0986 11.5042L54 20H39L43.9014 11.5042Z" fill="#FAA685"/>
<path d="M178.959 6.5C180.114 4.5 183.001 4.5 184.155 6.5L194.115 23.75H169L178.959 6.5Z" fill="#FFFEFC"/>
<path d="M178.901 11.5042C180.056 9.50305 182.944 9.50305 184.099 11.5042L189 20H174L178.901 11.5042Z" fill="#FAA685"/>
<path d="M38.0075 46.0003C38.6613 44.7711 39.0022 43.3995 39 42.007C39 37.3086 35.1945 33.5 30.5 33.5C25.8055 33.5 22 37.3086 22 42.007C21.9966 44.0138 22.7054 45.9566 24 47.489L24.01 47.5015C24.0135 47.5045 24.0165 47.5085 24.019 47.5115H24L29.044 52.8709C29.231 53.0695 29.4566 53.2278 29.7069 53.336C29.9573 53.4442 30.2271 53.5 30.4998 53.5C30.7724 53.5 31.0422 53.4442 31.2926 53.336C31.5429 53.2278 31.7685 53.0695 31.9555 52.8709L37 47.5115H36.981L36.989 47.502L36.99 47.501C37.026 47.458 37.062 47.4149 37.0975 47.3709C37.4443 46.9443 37.7491 46.4856 38.0075 46.0003ZM30.5025 45.2592C29.7069 45.2592 28.9438 44.9428 28.3812 44.3798C27.8186 43.8167 27.5025 43.053 27.5025 42.2567C27.5025 41.4604 27.8186 40.6967 28.3812 40.1336C28.9438 39.5706 29.7069 39.2542 30.5025 39.2542C31.2981 39.2542 32.0612 39.5706 32.6238 40.1336C33.1864 40.6967 33.5025 41.4604 33.5025 42.2567C33.5025 43.053 33.1864 43.8167 32.6238 44.3798C32.0612 44.9428 31.2981 45.2592 30.5025 45.2592Z" fill="#2074A4"/>
<path d="M68.9754 36.5337C67.0104 42.4529 65.618 47.293 64.7982 51.0542H61.3083C60.7899 48.8361 60.0967 46.2322 59.2287 43.2425C58.3849 40.2889 57.6374 37.8839 56.9865 36.0274H59.6627C59.9882 37.4861 60.5186 39.4933 61.254 42.049C62.0014 44.5927 62.6283 46.5697 63.1346 47.9802C63.6289 46.6541 64.2136 44.7916 64.8887 42.3926C65.5517 40.0418 66.046 38.0889 66.3714 36.5337H68.9754ZM72.077 38.559C72.077 38.9327 71.9263 39.2522 71.6249 39.5174C71.3356 39.7706 70.98 39.8971 70.558 39.8971C70.1361 39.8971 69.7745 39.7706 69.4731 39.5174C69.1838 39.2522 69.0391 38.9327 69.0391 38.559C69.0391 38.1853 69.1838 37.8719 69.4731 37.6187C69.7745 37.3535 70.1361 37.2209 70.558 37.2209C70.98 37.2209 71.3356 37.3535 71.6249 37.6187C71.9263 37.8719 72.077 38.1853 72.077 38.559ZM71.7696 51H69.238C69.3706 49.8306 69.4369 48.1309 69.4369 45.9006C69.4369 43.6584 69.3706 41.9827 69.238 40.8736H71.7696C71.6249 42.0189 71.5586 43.6765 71.5707 45.8464C71.5827 47.7993 71.649 49.5172 71.7696 51ZM79.4073 48.6492C79.347 49.3725 79.0999 49.9633 78.6659 50.4213C78.0993 51.0241 77.2735 51.3255 76.1886 51.3255C75.0192 51.3255 74.1573 50.9819 73.6027 50.2948C73.2049 49.8005 73.006 49.246 73.006 48.6312V47.6366H75.1579V48.5407C75.1579 48.7698 75.2483 48.9687 75.4291 49.1375C75.622 49.3062 75.8812 49.3906 76.2067 49.3906C76.8456 49.3906 77.1952 49.1435 77.2555 48.6492C77.3037 48.2032 76.9722 47.8114 76.2609 47.4739L74.9409 46.841C73.663 46.2261 73.0241 45.2436 73.0241 43.8935C73.0241 43.7126 73.0361 43.5197 73.0603 43.3148C73.1808 42.3986 73.5605 41.6753 74.1995 41.1449C74.7661 40.6627 75.4291 40.4216 76.1886 40.4216C76.9842 40.4216 77.6533 40.6807 78.1958 41.1991C78.7865 41.7657 79.0818 42.5312 79.0818 43.4956V44.3817H77.0746V43.4956C77.0746 43.1943 76.9842 42.9592 76.8034 42.7904C76.6226 42.6216 76.3995 42.5372 76.1343 42.5372C75.5557 42.5372 75.2121 42.8386 75.1036 43.4414C75.0916 43.5378 75.0855 43.6282 75.0855 43.7126C75.0855 44.1707 75.3327 44.5505 75.8269 44.8518C75.8631 44.876 76.3031 45.0809 77.147 45.4667C78.7744 46.202 79.5279 47.2629 79.4073 48.6492ZM83.1861 38.559C83.1861 38.9327 83.0354 39.2522 82.734 39.5174C82.4447 39.7706 82.089 39.8971 81.6671 39.8971C81.2452 39.8971 80.8835 39.7706 80.5821 39.5174C80.2928 39.2522 80.1482 38.9327 80.1482 38.559C80.1482 38.1853 80.2928 37.8719 80.5821 37.6187C80.8835 37.3535 81.2452 37.2209 81.6671 37.2209C82.089 37.2209 82.4447 37.3535 82.734 37.6187C83.0354 37.8719 83.1861 38.1853 83.1861 38.559ZM82.8787 51H80.3471C80.4797 49.8306 80.546 48.1309 80.546 45.9006C80.546 43.6584 80.4797 41.9827 80.3471 40.8736H82.8787C82.734 42.0189 82.6677 43.6765 82.6797 45.8464C82.6918 47.7993 82.7581 49.5172 82.8787 51ZM91.6737 48.2152C91.6255 48.806 91.4808 49.3123 91.2397 49.7342C90.6369 50.7468 89.5761 51.2532 88.0571 51.2532C86.948 51.2532 86.1042 50.771 85.5255 49.8065C84.983 48.9265 84.7419 47.8054 84.8022 46.4431C84.8263 45.8645 84.8504 44.7433 84.8745 43.0797C84.3441 43.1038 83.9403 43.1279 83.663 43.1521V40.8736C83.7233 40.8857 84.1211 40.9218 84.8565 40.9821C84.8444 40.3311 84.8143 39.4391 84.7661 38.3059H87.2796C87.2193 39.1497 87.1892 40.0659 87.1892 41.0545C88.3947 41.0545 89.5038 40.9942 90.5164 40.8736V43.1521C89.0577 43.0677 87.9547 43.0255 87.2072 43.0255C87.2072 43.4715 87.2133 44.008 87.2253 44.6348C87.2615 45.551 87.2796 46.1659 87.2796 46.4793C87.3157 48.3599 87.7075 49.3304 88.4549 49.3906C89.0939 49.4389 89.4616 49.0471 89.558 48.2152H91.6737ZM103.101 51.6148C101.45 51.6148 100.232 51.1507 99.4487 50.2224C98.8942 49.5835 98.6169 48.8542 98.6169 48.0344V46.9856H101.094V47.9078C101.094 48.39 101.287 48.7879 101.673 49.1013C102.059 49.4147 102.547 49.5715 103.138 49.5715C104.379 49.5715 105.054 49.0772 105.163 48.0887C105.259 47.2207 104.669 46.4974 103.391 45.9187L101.366 44.9965C99.5693 44.1768 98.6712 42.8446 98.6712 41.0002C98.6712 40.735 98.6893 40.4637 98.7254 40.1865C98.8942 39.0051 99.3764 38.0587 100.172 37.3475C100.98 36.6242 101.932 36.2565 103.029 36.2444C104.271 36.2324 105.265 36.6181 106.013 37.4017C106.772 38.1733 107.152 39.1738 107.152 40.4035V41.3076H104.91V40.4035C104.91 39.8851 104.741 39.4511 104.403 39.1015C104.03 38.7157 103.554 38.5349 102.975 38.559C102.481 38.5831 102.053 38.7459 101.691 39.0473C101.329 39.3366 101.106 39.7344 101.022 40.2407C100.998 40.4095 100.986 40.5662 100.986 40.7109C100.986 41.6753 101.516 42.3986 102.577 42.8808L104.422 43.7126C106.591 44.6891 107.676 45.973 107.676 47.5643C107.676 48.8903 107.248 49.909 106.393 50.6203C105.597 51.2833 104.5 51.6148 103.101 51.6148ZM116.523 47.2388C116.499 48.2755 116.143 49.1977 115.456 50.0054C114.708 50.8734 113.786 51.3074 112.689 51.3074C111.46 51.3074 110.429 50.8373 109.597 49.8969C108.705 48.8843 108.265 47.5462 108.277 45.8826C108.289 44.2551 108.705 42.9411 109.525 41.9405C110.344 40.9399 111.429 40.4336 112.78 40.4216C114.021 40.4095 114.968 40.8254 115.619 41.6693C116.161 42.3805 116.45 43.3088 116.487 44.454L114.262 44.5806C114.238 43.146 113.702 42.4287 112.653 42.4287C111.966 42.4287 111.435 42.7904 111.062 43.5137C110.712 44.1888 110.537 45.0809 110.537 46.19C110.537 47.1182 110.742 47.8536 111.152 48.3961C111.562 48.9386 112.062 49.2098 112.653 49.2098C113.557 49.2098 114.063 48.4805 114.172 47.0218L116.523 47.2388ZM125.581 51.4702H123.086C123.194 50.2767 123.23 48.7035 123.194 46.7505C123.17 45.316 123.134 44.3033 123.086 43.7126C123.049 43.2184 122.856 42.8627 122.507 42.6457C122.169 42.4287 121.784 42.3504 121.35 42.4107C120.843 42.4709 120.313 42.8627 119.758 43.586C119.758 46.1176 119.825 48.589 119.957 51H117.426C117.558 49.3364 117.618 46.8711 117.606 43.6041C117.606 41.386 117.546 39.0292 117.426 36.5337H119.957C119.849 37.8478 119.782 39.6259 119.758 41.8682C120.313 41.1449 121.024 40.729 121.892 40.6205C122.097 40.5964 122.296 40.5843 122.489 40.5843C123.381 40.5843 124.11 40.8013 124.677 41.2353C125.316 41.7175 125.617 42.3926 125.581 43.2606C125.545 44.0321 125.503 45.2135 125.454 46.8048C125.43 48.8662 125.472 50.4213 125.581 51.4702ZM139.727 51.0181H137.231C137.352 49.8728 137.394 48.2996 137.358 46.2985C137.334 45.0929 137.292 44.0803 137.231 43.2606C137.195 42.8145 137.032 42.4709 136.743 42.2298C136.478 42.0249 136.158 41.9224 135.785 41.9224C135.375 41.9224 134.929 42.0671 134.446 42.3564C134.495 42.5614 134.513 42.8025 134.501 43.0797C134.44 44.6107 134.404 45.7921 134.392 46.624C134.368 48.6492 134.404 50.2044 134.501 51.2893H132.023C132.132 50.0959 132.168 48.5227 132.132 46.5697C132.108 45.1472 132.072 44.1346 132.023 43.5318C131.987 43.0978 131.824 42.7603 131.535 42.5192C131.27 42.3142 130.95 42.2118 130.577 42.2118C130.046 42.2118 129.51 42.4167 128.967 42.8266C128.943 43.4534 128.937 44.4962 128.949 45.9549C128.961 47.7391 129.022 49.4208 129.13 51H126.599C126.695 49.5654 126.749 47.8235 126.761 45.7741C126.773 43.4474 126.719 41.621 126.599 40.295H129.13C129.082 40.6687 129.04 41.0545 129.004 41.4523C129.474 40.8495 130.082 40.512 130.83 40.4396C131.011 40.4276 131.192 40.4216 131.372 40.4216C132.469 40.4216 133.265 40.6687 133.759 41.1629C134.326 40.5964 135.091 40.2648 136.056 40.1684C136.249 40.1443 136.436 40.1322 136.616 40.1322C137.533 40.1322 138.268 40.3432 138.823 40.7651C139.461 41.2353 139.763 41.9164 139.727 42.8085C139.678 43.9296 139.642 45.105 139.618 46.3346C139.582 48.384 139.618 49.9452 139.727 51.0181ZM143.541 38.559C143.541 38.9327 143.39 39.2522 143.089 39.5174C142.8 39.7706 142.444 39.8971 142.022 39.8971C141.6 39.8971 141.239 39.7706 140.937 39.5174C140.648 39.2522 140.503 38.9327 140.503 38.559C140.503 38.1853 140.648 37.8719 140.937 37.6187C141.239 37.3535 141.6 37.2209 142.022 37.2209C142.444 37.2209 142.8 37.3535 143.089 37.6187C143.39 37.8719 143.541 38.1853 143.541 38.559ZM143.234 51H140.702C140.835 49.8306 140.901 48.1309 140.901 45.9006C140.901 43.6584 140.835 41.9827 140.702 40.8736H143.234C143.089 42.0189 143.023 43.6765 143.035 45.8464C143.047 47.7993 143.113 49.5172 143.234 51ZM152.029 48.2152C151.981 48.806 151.836 49.3123 151.595 49.7342C150.992 50.7468 149.931 51.2532 148.412 51.2532C147.303 51.2532 146.459 50.771 145.881 49.8065C145.338 48.9265 145.097 47.8054 145.157 46.4431C145.181 45.8645 145.206 44.7433 145.23 43.0797C144.699 43.1038 144.295 43.1279 144.018 43.1521V40.8736C144.078 40.8857 144.476 40.9218 145.212 40.9821C145.199 40.3311 145.169 39.4391 145.121 38.3059H147.635C147.574 39.1497 147.544 40.0659 147.544 41.0545C148.75 41.0545 149.859 40.9942 150.871 40.8736V43.1521C149.413 43.0677 148.31 43.0255 147.562 43.0255C147.562 43.4715 147.568 44.008 147.58 44.6348C147.617 45.551 147.635 46.1659 147.635 46.4793C147.671 48.3599 148.063 49.3304 148.81 49.3906C149.449 49.4389 149.817 49.0471 149.913 48.2152H152.029ZM159.579 48.2152C159.531 48.806 159.386 49.3123 159.145 49.7342C158.542 50.7468 157.481 51.2532 155.962 51.2532C154.853 51.2532 154.009 50.771 153.431 49.8065C152.888 48.9265 152.647 47.8054 152.707 46.4431C152.731 45.8645 152.756 44.7433 152.78 43.0797C152.249 43.1038 151.845 43.1279 151.568 43.1521V40.8736C151.628 40.8857 152.026 40.9218 152.762 40.9821C152.749 40.3311 152.719 39.4391 152.671 38.3059H155.185C155.124 39.1497 155.094 40.0659 155.094 41.0545C156.3 41.0545 157.409 40.9942 158.421 40.8736V43.1521C156.963 43.0677 155.86 43.0255 155.112 43.0255C155.112 43.4715 155.118 44.008 155.13 44.6348C155.167 45.551 155.185 46.1659 155.185 46.4793C155.221 48.3599 155.613 49.3304 156.36 49.3906C156.999 49.4389 157.367 49.0471 157.463 48.2152H159.579ZM175.618 51H173.104C173.152 49.5654 173.189 47.6426 173.213 45.2316C172.248 45.1592 171.314 45.1291 170.41 45.1412C169.578 45.1532 168.77 45.1834 167.987 45.2316C167.999 46.9073 168.047 48.7577 168.131 50.783H165.618C165.726 48.3237 165.787 45.8223 165.799 43.2786C165.799 40.5542 165.738 38.3059 165.618 36.5337H168.131C168.023 38.2456 167.969 40.3673 167.969 42.8989C168.849 42.9351 169.644 42.9592 170.356 42.9712C171.344 42.9833 172.296 42.9592 173.213 42.8989C173.213 39.9695 173.176 37.6549 173.104 35.9551H175.618C175.509 38.3661 175.455 40.735 175.455 43.0616C175.455 46.6179 175.509 49.264 175.618 51ZM185.2 51.2532C184.875 51.3496 184.567 51.3978 184.278 51.3978C183.555 51.3978 182.964 51.0784 182.506 50.4394C181.759 51.1869 180.903 51.5485 179.938 51.5244C178.938 51.5003 178.16 51.1748 177.605 50.5479C177.135 50.0175 176.9 49.4208 176.9 48.7577C176.9 48.0706 177.093 47.4919 177.479 47.0218C177.961 46.419 178.696 46.1176 179.685 46.1176C180.649 46.1176 181.469 46.3587 182.144 46.841V44.7976C182.144 43.3389 181.596 42.6096 180.499 42.6096C179.896 42.6096 179.426 42.9652 179.088 43.6765C178.823 44.2431 178.69 44.876 178.69 45.5752H176.521C176.496 44.1647 176.834 42.9953 177.533 42.0671C178.293 41.0545 179.335 40.5481 180.661 40.5481C183.326 40.5481 184.61 42.0852 184.513 45.1592C184.453 47.0881 184.453 48.3599 184.513 48.9747C184.561 49.4569 184.79 49.698 185.2 49.698V51.2532ZM182.144 48.8662V48.5769C181.397 48.2032 180.812 48.0163 180.39 48.0163C179.703 48.0163 179.36 48.2996 179.36 48.8662C179.36 49.3484 179.727 49.5895 180.463 49.5895C180.812 49.5895 181.373 49.3484 182.144 48.8662ZM188.983 51H186.451C186.584 49.3364 186.644 46.8711 186.632 43.6041C186.632 41.386 186.572 39.0292 186.451 36.5337H188.983C188.838 38.3541 188.772 40.6988 188.784 43.568C188.784 46.1116 188.85 48.589 188.983 51ZM193.46 51H190.929C191.061 49.3364 191.121 46.8711 191.109 43.6041C191.109 41.386 191.049 39.0292 190.929 36.5337H193.46C193.316 38.3541 193.249 40.6988 193.261 43.568C193.261 46.1116 193.328 48.589 193.46 51Z" fill="#2074A4"/>
<path d="M220.127 73.1826C223.888 73.1819 226.952 70.1137 226.967 66.3476L226.967 66.3473C226.98 62.5237 225.11 60.2433 223.756 58.592L223.731 58.5606L223.73 58.5597L223.515 58.2965C224.415 58.9503 225.523 59.3358 226.721 59.3358C229.737 59.3358 232.183 56.8921 232.183 53.8737C232.183 50.8574 229.738 48.4117 226.721 48.4117C223.704 48.4117 221.259 50.8574 221.259 53.8737C221.259 54.9832 221.589 56.015 222.157 56.8763C222.156 56.875 222.154 56.8737 222.153 56.8723C220.625 54.9346 218.258 53.6798 215.592 53.6798C213.209 53.6798 211.067 54.6822 209.548 56.2761C208.791 56.9365 208.075 57.617 207.594 58.2098C207.594 58.2105 207.593 58.2112 207.593 58.2119L207.308 58.5596L207.307 58.5602L207.283 58.5902C205.928 60.2418 204.057 62.5224 204.071 66.3473L204.071 66.3475C204.085 70.1135 207.149 73.1818 210.912 73.1826M220.127 73.1826C219.082 73.185 218.051 72.946 217.114 72.4843C216.531 72.197 215.994 71.8281 215.519 71.3905C215.044 71.8279 214.507 72.1965 213.924 72.4838C212.987 72.9456 211.956 73.1847 210.912 73.1826M220.127 73.1826C220.126 73.1826 220.126 73.1826 220.126 73.1826V72.1826L220.128 73.1826C220.128 73.1826 220.127 73.1826 220.127 73.1826ZM210.912 73.1826C210.912 73.1826 210.911 73.1826 210.911 73.1826L210.913 72.1826V73.1826C210.913 73.1826 210.912 73.1826 210.912 73.1826ZM214.835 70.6607C215.084 70.4326 215.313 70.1824 215.519 69.9126C215.725 70.1824 215.954 70.4326 216.203 70.6608L214.835 70.6607ZM209.925 53.0021C209.925 49.9856 207.479 47.54 204.462 47.54C201.445 47.54 199 49.9859 199 53.0021C199 56.02 201.445 58.465 204.462 58.465C207.479 58.465 209.925 56.0203 209.925 53.0021Z" fill="#2074A4" stroke="#FFFEFB" stroke-width="2"/>
<path d="M215.901 52.834C219.169 52.834 221.818 50.1849 221.818 46.917C221.818 43.6491 219.169 41 215.901 41C212.633 41 209.984 43.6491 209.984 46.917C209.984 50.1849 212.633 52.834 215.901 52.834Z" fill="#2074A4" stroke="#FFFEFB" stroke-width="2"/>
</svg>
