<svg width="172" height="75" viewBox="0 0 172 75" fill="none" xmlns="http://www.w3.org/2000/svg">
<mask id="path-1-outside-1_885_122715" maskUnits="userSpaceOnUse" x="0" y="0" width="157" height="72" fill="black">
<rect fill="white" width="157" height="72"/>
<path fill-rule="evenodd" clip-rule="evenodd" d="M40.9593 6.5C42.114 4.5 45.0007 4.5 46.1554 6.5L53.9497 20H104.165L111.959 6.5C113.114 4.5 116.001 4.5 117.155 6.5L124.95 20H128.5C141.479 20 152 30.5213 152 43.5C152 56.4787 141.479 67 128.5 67H28.5C15.5213 67 5 56.4787 5 43.5C5 30.5213 15.5213 20 28.5 20H33.1651L40.9593 6.5Z"/>
</mask>
<path fill-rule="evenodd" clip-rule="evenodd" d="M40.9593 6.5C42.114 4.5 45.0007 4.5 46.1554 6.5L53.9497 20H104.165L111.959 6.5C113.114 4.5 116.001 4.5 117.155 6.5L124.95 20H128.5C141.479 20 152 30.5213 152 43.5C152 56.4787 141.479 67 128.5 67H28.5C15.5213 67 5 56.4787 5 43.5C5 30.5213 15.5213 20 28.5 20H33.1651L40.9593 6.5Z" fill="#FAA685"/>
<path d="M46.1554 6.5L50.0526 4.25V4.25L46.1554 6.5ZM40.9593 6.5L37.0622 4.25V4.25L40.9593 6.5ZM53.9497 20L50.0526 22.25L51.3516 24.5H53.9497V20ZM104.165 20V24.5H106.763L108.062 22.25L104.165 20ZM111.959 6.5L115.856 8.75L115.856 8.74999L111.959 6.5ZM117.155 6.5L113.258 8.75L117.155 6.5ZM124.95 20L121.053 22.25L122.352 24.5H124.95V20ZM33.1651 20V24.5H35.7631L37.0622 22.25L33.1651 20ZM50.0526 4.25C47.1658 -0.749993 39.9489 -0.750006 37.0622 4.25L44.8564 8.75C44.2791 9.75 42.8357 9.75 42.2583 8.75L50.0526 4.25ZM57.8468 17.75L50.0526 4.25L42.2583 8.75L50.0526 22.25L57.8468 17.75ZM104.165 15.5H53.9497V24.5H104.165V15.5ZM108.062 4.25L100.268 17.75L108.062 22.25L115.856 8.75L108.062 4.25ZM121.053 4.25C118.166 -0.749983 110.949 -0.75002 108.062 4.25001L115.856 8.74999C115.279 9.75002 113.836 9.74999 113.258 8.75L121.053 4.25ZM128.847 17.75L121.053 4.25L113.258 8.75L121.053 22.25L128.847 17.75ZM128.5 15.5H124.95V24.5H128.5V15.5ZM156.5 43.5C156.5 28.036 143.964 15.5 128.5 15.5V24.5C138.993 24.5 147.5 33.0066 147.5 43.5H156.5ZM128.5 71.5C143.964 71.5 156.5 58.964 156.5 43.5H147.5C147.5 53.9934 138.993 62.5 128.5 62.5V71.5ZM28.5 71.5H128.5V62.5H28.5V71.5ZM0.5 43.5C0.5 58.964 13.036 71.5 28.5 71.5V62.5C18.0066 62.5 9.5 53.9934 9.5 43.5H0.5ZM28.5 15.5C13.036 15.5 0.5 28.036 0.5 43.5H9.5C9.5 33.0066 18.0066 24.5 28.5 24.5V15.5ZM33.1651 15.5H28.5V24.5H33.1651V15.5ZM37.0622 4.25L29.268 17.75L37.0622 22.25L44.8564 8.75L37.0622 4.25Z" fill="#2074A4" mask="url(#path-1-outside-1_885_122715)"/>
<rect x="5" y="20" width="147" height="47" rx="23.5" fill="#FFFEFC"/>
<path d="M40.9593 6.5C42.114 4.5 45.0007 4.5 46.1554 6.5L56.1147 23.75H31L40.9593 6.5Z" fill="#FFFEFC"/>
<path d="M40.9014 11.5042C42.0559 9.50305 44.9441 9.50305 46.0986 11.5042L51 20H36L40.9014 11.5042Z" fill="#FAA685"/>
<path d="M111.959 6.5C113.114 4.5 116.001 4.5 117.155 6.5L127.115 23.75H102L111.959 6.5Z" fill="#FFFEFC"/>
<path d="M111.901 11.5042C113.056 9.50305 115.944 9.50305 117.099 11.5042L122 20H107L111.901 11.5042Z" fill="#FAA685"/>
<path d="M38.0075 46.0003C38.6613 44.7711 39.0022 43.3995 39 42.007C39 37.3086 35.1945 33.5 30.5 33.5C25.8055 33.5 22 37.3086 22 42.007C21.9966 44.0138 22.7054 45.9566 24 47.489L24.01 47.5015C24.0135 47.5045 24.0165 47.5085 24.019 47.5115H24L29.044 52.8709C29.231 53.0695 29.4566 53.2278 29.7069 53.336C29.9573 53.4442 30.2271 53.5 30.4998 53.5C30.7724 53.5 31.0422 53.4442 31.2926 53.336C31.5429 53.2278 31.7685 53.0695 31.9555 52.8709L37 47.5115H36.981L36.989 47.502L36.99 47.501C37.026 47.458 37.062 47.4149 37.0975 47.3709C37.4443 46.9443 37.7491 46.4856 38.0075 46.0003ZM30.5025 45.2592C29.7069 45.2592 28.9438 44.9428 28.3812 44.3798C27.8186 43.8167 27.5025 43.053 27.5025 42.2567C27.5025 41.4604 27.8186 40.6967 28.3812 40.1336C28.9438 39.5706 29.7069 39.2542 30.5025 39.2542C31.2981 39.2542 32.0612 39.5706 32.6238 40.1336C33.1864 40.6967 33.5025 41.4604 33.5025 42.2567C33.5025 43.053 33.1864 43.8167 32.6238 44.3798C32.0612 44.9428 31.2981 45.2592 30.5025 45.2592Z" fill="#2074A4"/>
<path d="M59.7856 36.5337C57.8206 42.4529 56.4282 47.293 55.6085 51.0542H52.1185C51.6001 48.8361 50.9069 46.2322 50.039 43.2425C49.1951 40.2889 48.4477 37.8839 47.7967 36.0274H50.4729C50.7984 37.4861 51.3289 39.4933 52.0642 42.049C52.8116 44.5927 53.4385 46.5697 53.9448 47.9802C54.4391 46.6541 55.0238 44.7916 55.6989 42.3926C56.3619 40.0418 56.8562 38.0889 57.1817 36.5337H59.7856ZM62.8872 38.559C62.8872 38.9327 62.7365 39.2522 62.4351 39.5174C62.1458 39.7706 61.7902 39.8971 61.3683 39.8971C60.9463 39.8971 60.5847 39.7706 60.2833 39.5174C59.994 39.2522 59.8493 38.9327 59.8493 38.559C59.8493 38.1853 59.994 37.8719 60.2833 37.6187C60.5847 37.3535 60.9463 37.2209 61.3683 37.2209C61.7902 37.2209 62.1458 37.3535 62.4351 37.6187C62.7365 37.8719 62.8872 38.1853 62.8872 38.559ZM62.5798 51H60.0482C60.1808 49.8306 60.2471 48.1309 60.2471 45.9006C60.2471 43.6584 60.1808 41.9827 60.0482 40.8736H62.5798C62.4351 42.0189 62.3688 43.6765 62.3809 45.8464C62.393 47.7993 62.4593 49.5172 62.5798 51ZM70.2175 48.6492C70.1573 49.3725 69.9101 49.9633 69.4761 50.4213C68.9095 51.0241 68.0838 51.3255 66.9988 51.3255C65.8294 51.3255 64.9675 50.9819 64.413 50.2948C64.0151 49.8005 63.8162 49.246 63.8162 48.6312V47.6366H65.9681V48.5407C65.9681 48.7698 66.0585 48.9687 66.2393 49.1375C66.4322 49.3062 66.6914 49.3906 67.0169 49.3906C67.6558 49.3906 68.0054 49.1435 68.0657 48.6492C68.1139 48.2032 67.7824 47.8114 67.0711 47.4739L65.7511 46.841C64.4732 46.2261 63.8343 45.2436 63.8343 43.8935C63.8343 43.7126 63.8464 43.5197 63.8705 43.3148C63.991 42.3986 64.3708 41.6753 65.0097 41.1449C65.5763 40.6627 66.2393 40.4216 66.9988 40.4216C67.7944 40.4216 68.4635 40.6807 69.006 41.1991C69.5967 41.7657 69.892 42.5312 69.892 43.4956V44.3817H67.8849V43.4956C67.8849 43.1943 67.7944 42.9592 67.6136 42.7904C67.4328 42.6216 67.2098 42.5372 66.9445 42.5372C66.3659 42.5372 66.0223 42.8386 65.9138 43.4414C65.9018 43.5378 65.8957 43.6282 65.8957 43.7126C65.8957 44.1707 66.1429 44.5505 66.6371 44.8518C66.6733 44.876 67.1133 45.0809 67.9572 45.4667C69.5846 46.202 70.3381 47.2629 70.2175 48.6492ZM73.9963 38.559C73.9963 38.9327 73.8456 39.2522 73.5442 39.5174C73.2549 39.7706 72.8993 39.8971 72.4773 39.8971C72.0554 39.8971 71.6937 39.7706 71.3924 39.5174C71.103 39.2522 70.9584 38.9327 70.9584 38.559C70.9584 38.1853 71.103 37.8719 71.3924 37.6187C71.6937 37.3535 72.0554 37.2209 72.4773 37.2209C72.8993 37.2209 73.2549 37.3535 73.5442 37.6187C73.8456 37.8719 73.9963 38.1853 73.9963 38.559ZM73.6889 51H71.1573C71.2899 49.8306 71.3562 48.1309 71.3562 45.9006C71.3562 43.6584 71.2899 41.9827 71.1573 40.8736H73.6889C73.5442 42.0189 73.4779 43.6765 73.49 45.8464C73.502 47.7993 73.5683 49.5172 73.6889 51ZM82.4839 48.2152C82.4357 48.806 82.291 49.3123 82.0499 49.7342C81.4472 50.7468 80.3863 51.2532 78.8673 51.2532C77.7583 51.2532 76.9144 50.771 76.3357 49.8065C75.7933 48.9265 75.5522 47.8054 75.6124 46.4431C75.6365 45.8645 75.6607 44.7433 75.6848 43.0797C75.1543 43.1038 74.7505 43.1279 74.4732 43.1521V40.8736C74.5335 40.8857 74.9313 40.9218 75.6667 40.9821C75.6546 40.3311 75.6245 39.4391 75.5763 38.3059H78.0898C78.0295 39.1497 77.9994 40.0659 77.9994 41.0545C79.2049 41.0545 80.314 40.9942 81.3266 40.8736V43.1521C79.8679 43.0677 78.7649 43.0255 78.0174 43.0255C78.0174 43.4715 78.0235 44.008 78.0355 44.6348C78.0717 45.551 78.0898 46.1659 78.0898 46.4793C78.1259 48.3599 78.5177 49.3304 79.2652 49.3906C79.9041 49.4389 80.2718 49.0471 80.3682 48.2152H82.4839ZM97.6006 39.0473C96.4915 38.9629 95.2558 38.9267 93.8936 38.9388C92.6157 38.9508 91.6393 38.987 90.9642 39.0473C90.928 40.2166 90.9099 41.4824 90.9099 42.8446C91.5247 42.9531 92.2903 43.0014 93.2064 42.9893C94.0503 42.9773 94.8218 42.929 95.5211 42.8446V45.3582C94.9786 45.2979 94.1829 45.2677 93.1341 45.2677C92.3626 45.2677 91.6272 45.2979 90.928 45.3582C90.9521 47.7451 91.0003 49.8306 91.0727 51.6148H88.5411C88.6616 49.2158 88.7279 46.5335 88.74 43.568C88.74 40.7953 88.6737 38.4505 88.5411 36.5337C89.7466 36.6422 91.2173 36.6905 92.9533 36.6784C94.6772 36.6664 96.2263 36.6181 97.6006 36.5337V39.0473ZM105.068 51.2532C104.743 51.3496 104.435 51.3978 104.146 51.3978C103.423 51.3978 102.832 51.0784 102.374 50.4394C101.626 51.1869 100.77 51.5485 99.806 51.5244C98.8054 51.5003 98.0278 51.1748 97.4733 50.5479C97.0031 50.0175 96.7681 49.4208 96.7681 48.7577C96.7681 48.0706 96.9609 47.4919 97.3467 47.0218C97.8289 46.419 98.5643 46.1176 99.5528 46.1176C100.517 46.1176 101.337 46.3587 102.012 46.841V44.7976C102.012 43.3389 101.464 42.6096 100.367 42.6096C99.7638 42.6096 99.2936 42.9652 98.9561 43.6765C98.6909 44.2431 98.5583 44.876 98.5583 45.5752H96.3883C96.3642 44.1647 96.7018 42.9953 97.401 42.0671C98.1604 41.0545 99.2032 40.5481 100.529 40.5481C103.193 40.5481 104.477 42.0852 104.381 45.1592C104.321 47.0881 104.321 48.3599 104.381 48.9747C104.429 49.4569 104.658 49.698 105.068 49.698V51.2532ZM102.012 48.8662V48.5769C101.265 48.2032 100.68 48.0163 100.258 48.0163C99.5709 48.0163 99.2273 48.2996 99.2273 48.8662C99.2273 49.3484 99.595 49.5895 100.33 49.5895C100.68 49.5895 101.241 49.3484 102.012 48.8662ZM114.764 51H112.232C112.292 50.5057 112.329 49.9813 112.341 49.4268C111.895 50.4756 111.027 51.0904 109.737 51.2712C109.532 51.2954 109.327 51.3074 109.122 51.3074C108.266 51.3074 107.549 51.1025 106.97 50.6926C106.319 50.2224 106.012 49.5353 106.048 48.6312C106.096 47.51 106.132 46.3286 106.156 45.0869C106.192 43.2063 106.162 41.8079 106.066 40.8917H108.561C108.441 42.1575 108.393 43.574 108.417 45.1412C108.429 46.2261 108.471 47.2388 108.543 48.1791C108.579 48.6131 108.742 48.9566 109.031 49.2098C109.297 49.4147 109.616 49.5172 109.99 49.5172C110.508 49.5172 111.002 49.3243 111.473 48.9386C111.883 48.589 112.196 48.1489 112.413 47.6185V45.9368C112.413 43.9477 112.353 42.0791 112.232 40.3311H114.764C114.655 41.9465 114.595 43.8754 114.583 46.1176C114.571 47.9621 114.631 49.5895 114.764 51ZM123.033 45.3582H120.845C120.893 44.5866 120.911 43.9718 120.899 43.5137C120.875 42.8989 120.616 42.5915 120.121 42.5915C120.025 42.5915 119.935 42.6035 119.85 42.6277C119.163 42.8567 118.609 43.5077 118.187 44.5806V45.8464C118.199 47.8837 118.265 49.6016 118.386 51H115.872C115.98 49.8668 116.041 48.167 116.053 45.9006C116.065 43.791 116.005 42.1153 115.872 40.8736H118.386C118.349 41.1991 118.313 41.5909 118.277 42.049C118.482 41.6753 118.789 41.3558 119.199 41.0906C119.621 40.8133 120.061 40.6687 120.519 40.6566C121.291 40.6446 121.888 40.9098 122.309 41.4523C122.683 41.9345 122.876 42.5372 122.888 43.2606C122.9 44.0562 122.948 44.7554 123.033 45.3582ZM132.345 51.2532C132.019 51.3496 131.712 51.3978 131.423 51.3978C130.699 51.3978 130.108 51.0784 129.65 50.4394C128.903 51.1869 128.047 51.5485 127.083 51.5244C126.082 51.5003 125.304 51.1748 124.75 50.5479C124.28 50.0175 124.045 49.4208 124.045 48.7577C124.045 48.0706 124.238 47.4919 124.623 47.0218C125.106 46.419 125.841 46.1176 126.829 46.1176C127.794 46.1176 128.614 46.3587 129.289 46.841V44.7976C129.289 43.3389 128.74 42.6096 127.643 42.6096C127.04 42.6096 126.57 42.9652 126.233 43.6765C125.968 44.2431 125.835 44.876 125.835 45.5752H123.665C123.641 44.1647 123.978 42.9953 124.678 42.0671C125.437 41.0545 126.48 40.5481 127.806 40.5481C130.47 40.5481 131.754 42.0852 131.658 45.1592C131.597 47.0881 131.597 48.3599 131.658 48.9747C131.706 49.4569 131.935 49.698 132.345 49.698V51.2532ZM129.289 48.8662V48.5769C128.541 48.2032 127.957 48.0163 127.535 48.0163C126.848 48.0163 126.504 48.2996 126.504 48.8662C126.504 49.3484 126.872 49.5895 127.607 49.5895C127.957 49.5895 128.517 49.3484 129.289 48.8662Z" fill="#2074A4"/>
<path d="M158.127 73.1826C161.888 73.1819 164.952 70.1137 164.967 66.3476L164.967 66.3473C164.98 62.5237 163.11 60.2433 161.756 58.592L161.731 58.5606L161.73 58.5597L161.515 58.2965C162.415 58.9503 163.523 59.3358 164.721 59.3358C167.737 59.3358 170.183 56.8921 170.183 53.8737C170.183 50.8574 167.738 48.4117 164.721 48.4117C161.704 48.4117 159.259 50.8574 159.259 53.8737C159.259 54.9832 159.589 56.015 160.157 56.8763C160.156 56.875 160.154 56.8737 160.153 56.8723C158.625 54.9346 156.258 53.6798 153.592 53.6798C151.209 53.6798 149.067 54.6822 147.548 56.2761C146.791 56.9365 146.075 57.617 145.594 58.2098C145.594 58.2105 145.593 58.2112 145.593 58.2119L145.308 58.5596L145.307 58.5602L145.283 58.5902C143.928 60.2418 142.057 62.5224 142.071 66.3473L142.071 66.3475C142.085 70.1135 145.149 73.1818 148.912 73.1826M158.127 73.1826C157.082 73.185 156.051 72.946 155.114 72.4843C154.531 72.197 153.994 71.8281 153.519 71.3905C153.044 71.8279 152.507 72.1965 151.924 72.4838C150.987 72.9456 149.956 73.1847 148.912 73.1826M158.127 73.1826C158.126 73.1826 158.126 73.1826 158.126 73.1826V72.1826L158.128 73.1826C158.128 73.1826 158.127 73.1826 158.127 73.1826ZM148.912 73.1826C148.912 73.1826 148.911 73.1826 148.911 73.1826L148.913 72.1826V73.1826C148.913 73.1826 148.912 73.1826 148.912 73.1826ZM152.835 70.6607C153.084 70.4326 153.313 70.1824 153.519 69.9126C153.725 70.1824 153.954 70.4326 154.203 70.6608L152.835 70.6607ZM147.925 53.0021C147.925 49.9856 145.479 47.54 142.462 47.54C139.445 47.54 137 49.9859 137 53.0021C137 56.02 139.445 58.465 142.462 58.465C145.479 58.465 147.925 56.0203 147.925 53.0021Z" fill="#2074A4" stroke="#FFFEFB" stroke-width="2"/>
<path d="M153.901 52.834C157.169 52.834 159.818 50.1849 159.818 46.917C159.818 43.6491 157.169 41 153.901 41C150.633 41 147.984 43.6491 147.984 46.917C147.984 50.1849 150.633 52.834 153.901 52.834Z" fill="#2074A4" stroke="#FFFEFB" stroke-width="2"/>
</svg>
