<svg width="217" height="75" viewBox="0 0 217 75" fill="none" xmlns="http://www.w3.org/2000/svg">
<mask id="path-1-outside-1_885_122717" maskUnits="userSpaceOnUse" x="0" y="0" width="206" height="72" fill="black">
<rect fill="white" width="206" height="72"/>
<path fill-rule="evenodd" clip-rule="evenodd" d="M31.9593 6.5C33.114 4.5 36.0007 4.5 37.1554 6.5L44.9497 20H159.165L166.959 6.5C168.114 4.5 171.001 4.5 172.155 6.5L180.027 20.1343C191.817 21.3949 201 31.3751 201 43.5C201 56.4787 190.479 67 177.5 67H28.5C15.5213 67 5 56.4787 5 43.5C5 32.0935 13.1267 22.5851 23.9059 20.4488L31.9593 6.5Z"/>
</mask>
<path fill-rule="evenodd" clip-rule="evenodd" d="M31.9593 6.5C33.114 4.5 36.0007 4.5 37.1554 6.5L44.9497 20H159.165L166.959 6.5C168.114 4.5 171.001 4.5 172.155 6.5L180.027 20.1343C191.817 21.3949 201 31.3751 201 43.5C201 56.4787 190.479 67 177.5 67H28.5C15.5213 67 5 56.4787 5 43.5C5 32.0935 13.1267 22.5851 23.9059 20.4488L31.9593 6.5Z" fill="#FAA685"/>
<path d="M37.1554 6.5L41.0526 4.25V4.25L37.1554 6.5ZM31.9593 6.5L28.0622 4.25V4.25L31.9593 6.5ZM44.9497 20L41.0526 22.25L42.3516 24.5H44.9497V20ZM159.165 20V24.5H161.763L163.062 22.25L159.165 20ZM166.959 6.5L163.062 4.24999V4.25L166.959 6.5ZM172.155 6.5L168.258 8.74999L168.258 8.75L172.155 6.5ZM180.027 20.1343L176.13 22.3843L177.274 24.3656L179.549 24.6088L180.027 20.1343ZM23.9059 20.4488L24.7807 24.863L26.7826 24.4663L27.803 22.6988L23.9059 20.4488ZM41.0526 4.25C38.1658 -0.749993 30.9489 -0.750006 28.0622 4.25L35.8564 8.75C35.2791 9.75 33.8357 9.75 33.2583 8.75L41.0526 4.25ZM48.8468 17.75L41.0526 4.25L33.2583 8.75L41.0526 22.25L48.8468 17.75ZM159.165 15.5H44.9497V24.5H159.165V15.5ZM163.062 4.25L155.268 17.75L163.062 22.25L170.856 8.75L163.062 4.25ZM176.053 4.25001C173.166 -0.750017 165.949 -0.749982 163.062 4.24999L170.856 8.75001C170.279 9.74998 168.836 9.75002 168.258 8.74999L176.053 4.25001ZM183.924 17.8843L176.053 4.25L168.258 8.75L176.13 22.3843L183.924 17.8843ZM205.5 43.5C205.5 29.0504 194.558 17.1623 180.506 15.6598L179.549 24.6088C189.077 25.6275 196.5 33.6998 196.5 43.5H205.5ZM177.5 71.5C192.964 71.5 205.5 58.964 205.5 43.5H196.5C196.5 53.9934 187.993 62.5 177.5 62.5V71.5ZM28.5 71.5H177.5V62.5H28.5V71.5ZM0.5 43.5C0.5 58.964 13.036 71.5 28.5 71.5V62.5C18.0066 62.5 9.5 53.9934 9.5 43.5H0.5ZM23.0311 16.0347C10.1856 18.5804 0.5 29.9041 0.5 43.5H9.5C9.5 34.2829 16.0677 26.5898 24.7807 24.863L23.0311 16.0347ZM28.0622 4.25L20.0088 18.1988L27.803 22.6988L35.8564 8.75L28.0622 4.25Z" fill="#2074A4" mask="url(#path-1-outside-1_885_122717)"/>
<rect x="5" y="20" width="196" height="47" rx="23.5" fill="#FFFEFC"/>
<path d="M31.9593 6.5C33.114 4.5 36.0007 4.5 37.1554 6.5L47.1147 23.75H22L31.9593 6.5Z" fill="#FFFEFC"/>
<path d="M31.9014 11.5042C33.0559 9.50305 35.9441 9.50305 37.0986 11.5042L42 20H27L31.9014 11.5042Z" fill="#FAA685"/>
<path d="M166.959 6.5C168.114 4.5 171.001 4.5 172.155 6.5L182.115 23.75H157L166.959 6.5Z" fill="#FFFEFC"/>
<path d="M166.901 11.5042C168.056 9.50305 170.944 9.50305 172.099 11.5042L177 20H162L166.901 11.5042Z" fill="#FAA685"/>
<path d="M38.0075 46.0003C38.6613 44.7711 39.0022 43.3995 39 42.007C39 37.3086 35.1945 33.5 30.5 33.5C25.8055 33.5 22 37.3086 22 42.007C21.9966 44.0138 22.7054 45.9566 24 47.489L24.01 47.5015C24.0135 47.5045 24.0165 47.5085 24.019 47.5115H24L29.044 52.8709C29.231 53.0695 29.4566 53.2278 29.7069 53.336C29.9573 53.4442 30.2271 53.5 30.4998 53.5C30.7724 53.5 31.0422 53.4442 31.2926 53.336C31.5429 53.2278 31.7685 53.0695 31.9555 52.8709L37 47.5115H36.981L36.989 47.502L36.99 47.501C37.026 47.458 37.062 47.4149 37.0975 47.3709C37.4443 46.9443 37.7491 46.4856 38.0075 46.0003ZM30.5025 45.2592C29.7069 45.2592 28.9438 44.9428 28.3812 44.3798C27.8186 43.8167 27.5025 43.053 27.5025 42.2567C27.5025 41.4604 27.8186 40.6967 28.3812 40.1336C28.9438 39.5706 29.7069 39.2542 30.5025 39.2542C31.2981 39.2542 32.0612 39.5706 32.6238 40.1336C33.1864 40.6967 33.5025 41.4604 33.5025 42.2567C33.5025 43.053 33.1864 43.8167 32.6238 44.3798C32.0612 44.9428 31.2981 45.2592 30.5025 45.2592Z" fill="#2074A4"/>
<path d="M61.2307 36.5337C59.2658 42.4529 57.8734 47.293 57.0536 51.0542H53.5636C53.0453 48.8361 52.3521 46.2322 51.4841 43.2425C50.6402 40.2889 49.8928 37.8839 49.2418 36.0274H51.9181C52.2436 37.4861 52.774 39.4933 53.5094 42.049C54.2568 44.5927 54.8837 46.5697 55.39 47.9802C55.8843 46.6541 56.4689 44.7916 57.144 42.3926C57.8071 40.0418 58.3013 38.0889 58.6268 36.5337H61.2307ZM64.3324 38.559C64.3324 38.9327 64.1817 39.2522 63.8803 39.5174C63.591 39.7706 63.2354 39.8971 62.8134 39.8971C62.3915 39.8971 62.0298 39.7706 61.7285 39.5174C61.4391 39.2522 61.2945 38.9327 61.2945 38.559C61.2945 38.1853 61.4391 37.8719 61.7285 37.6187C62.0298 37.3535 62.3915 37.2209 62.8134 37.2209C63.2354 37.2209 63.591 37.3535 63.8803 37.6187C64.1817 37.8719 64.3324 38.1853 64.3324 38.559ZM64.025 51H61.4934C61.626 49.8306 61.6923 48.1309 61.6923 45.9006C61.6923 43.6584 61.626 41.9827 61.4934 40.8736H64.025C63.8803 42.0189 63.814 43.6765 63.8261 45.8464C63.8381 47.7993 63.9044 49.5172 64.025 51ZM71.6627 48.6492C71.6024 49.3725 71.3553 49.9633 70.9213 50.4213C70.3547 51.0241 69.5289 51.3255 68.444 51.3255C67.2746 51.3255 66.4127 50.9819 65.8581 50.2948C65.4603 49.8005 65.2614 49.246 65.2614 48.6312V47.6366H67.4132V48.5407C67.4132 48.7698 67.5036 48.9687 67.6845 49.1375C67.8774 49.3062 68.1365 49.3906 68.462 49.3906C69.101 49.3906 69.4506 49.1435 69.5108 48.6492C69.5591 48.2032 69.2275 47.8114 68.5163 47.4739L67.1962 46.841C65.9184 46.2261 65.2795 45.2436 65.2795 43.8935C65.2795 43.7126 65.2915 43.5197 65.3156 43.3148C65.4362 42.3986 65.8159 41.6753 66.4548 41.1449C67.0214 40.6627 67.6845 40.4216 68.444 40.4216C69.2396 40.4216 69.9087 40.6807 70.4511 41.1991C71.0419 41.7657 71.3372 42.5312 71.3372 43.4956V44.3817H69.33V43.4956C69.33 43.1943 69.2396 42.9592 69.0588 42.7904C68.8779 42.6216 68.6549 42.5372 68.3897 42.5372C67.8111 42.5372 67.4675 42.8386 67.359 43.4414C67.3469 43.5378 67.3409 43.6282 67.3409 43.7126C67.3409 44.1707 67.588 44.5505 68.0823 44.8518C68.1185 44.876 68.5585 45.0809 69.4023 45.4667C71.0298 46.202 71.7832 47.2629 71.6627 48.6492ZM75.4414 38.559C75.4414 38.9327 75.2908 39.2522 74.9894 39.5174C74.7 39.7706 74.3444 39.8971 73.9225 39.8971C73.5006 39.8971 73.1389 39.7706 72.8375 39.5174C72.5482 39.2522 72.4035 38.9327 72.4035 38.559C72.4035 38.1853 72.5482 37.8719 72.8375 37.6187C73.1389 37.3535 73.5006 37.2209 73.9225 37.2209C74.3444 37.2209 74.7 37.3535 74.9894 37.6187C75.2908 37.8719 75.4414 38.1853 75.4414 38.559ZM75.134 51H72.6024C72.735 49.8306 72.8014 48.1309 72.8014 45.9006C72.8014 43.6584 72.735 41.9827 72.6024 40.8736H75.134C74.9894 42.0189 74.9231 43.6765 74.9351 45.8464C74.9472 47.7993 75.0135 49.5172 75.134 51ZM83.9291 48.2152C83.8808 48.806 83.7362 49.3123 83.4951 49.7342C82.8923 50.7468 81.8315 51.2532 80.3125 51.2532C79.2034 51.2532 78.3596 50.771 77.7809 49.8065C77.2384 48.9265 76.9973 47.8054 77.0576 46.4431C77.0817 45.8645 77.1058 44.7433 77.1299 43.0797C76.5995 43.1038 76.1956 43.1279 75.9184 43.1521V40.8736C75.9787 40.8857 76.3765 40.9218 77.1118 40.9821C77.0998 40.3311 77.0696 39.4391 77.0214 38.3059H79.5349C79.4747 39.1497 79.4445 40.0659 79.4445 41.0545C80.65 41.0545 81.7591 40.9942 82.7718 40.8736V43.1521C81.3131 43.0677 80.21 43.0255 79.4626 43.0255C79.4626 43.4715 79.4686 44.008 79.4807 44.6348C79.5169 45.551 79.5349 46.1659 79.5349 46.4793C79.5711 48.3599 79.9629 49.3304 80.7103 49.3906C81.3492 49.4389 81.7169 49.0471 81.8134 48.2152H83.9291ZM101.758 41.9043C101.312 41.8923 100.468 41.8742 99.2266 41.8501C99.2266 40.9098 98.9372 40.1081 98.3586 39.4451C97.7799 38.77 97.0205 38.4324 96.0802 38.4324C93.6812 38.4324 92.4817 40.2407 92.4817 43.8573C92.4817 45.75 92.8433 47.1664 93.5666 48.1067C94.1573 48.8903 94.953 49.2882 95.9536 49.3002C97.4002 49.3243 98.4068 48.5588 98.9734 47.0037C98.9975 47.0037 99.8595 47.076 101.559 47.2207C100.679 50.0778 98.8107 51.5063 95.9536 51.5063C94.1935 51.5063 92.771 50.8734 91.686 49.6076C90.5046 48.2454 89.9139 46.3166 89.9139 43.8211C89.9139 41.4462 90.5046 39.5536 91.686 38.1431C92.8072 36.805 94.2297 36.1299 95.9536 36.1178C97.6775 36.1058 99.0759 36.6362 100.149 37.7091C101.222 38.77 101.758 40.1684 101.758 41.9043ZM112.268 39.0473C110.701 38.9508 109.417 38.8966 108.416 38.8845C108.247 43.6825 108.272 47.715 108.488 50.9819H105.957C106.126 47.6908 106.15 43.6523 106.029 38.8664C104.486 38.8905 103.208 38.9508 102.196 39.0473V36.5337C104.004 36.6422 105.842 36.6965 107.711 36.6965C109.543 36.6965 111.062 36.6422 112.268 36.5337V39.0473ZM124.681 41.9043C124.235 41.8923 123.391 41.8742 122.149 41.8501C122.149 40.9098 121.86 40.1081 121.282 39.4451C120.703 38.77 119.943 38.4324 119.003 38.4324C116.604 38.4324 115.405 40.2407 115.405 43.8573C115.405 45.75 115.766 47.1664 116.49 48.1067C117.08 48.8903 117.876 49.2882 118.877 49.3002C120.323 49.3243 121.33 48.5588 121.896 47.0037C121.92 47.0037 122.782 47.076 124.482 47.2207C123.602 50.0778 121.734 51.5063 118.877 51.5063C117.116 51.5063 115.694 50.8734 114.609 49.6076C113.428 48.2454 112.837 46.3166 112.837 43.8211C112.837 41.4462 113.428 39.5536 114.609 38.1431C115.73 36.805 117.153 36.1299 118.877 36.1178C120.6 36.1058 121.999 36.6362 123.072 37.7091C124.145 38.77 124.681 40.1684 124.681 41.9043ZM132.84 45.9368C130.658 45.7439 128.175 45.7439 125.39 45.9368V43.7669C126.487 43.8754 127.747 43.9296 129.169 43.9296C130.628 43.9296 131.851 43.8754 132.84 43.7669V45.9368ZM139.313 51.6148C137.662 51.6148 136.444 51.1507 135.66 50.2224C135.106 49.5835 134.829 48.8542 134.829 48.0344V46.9856H137.306V47.9078C137.306 48.39 137.499 48.7879 137.885 49.1013C138.27 49.4147 138.759 49.5715 139.349 49.5715C140.591 49.5715 141.266 49.0772 141.375 48.0887C141.471 47.2207 140.88 46.4974 139.603 45.9187L137.577 44.9965C135.781 44.1768 134.883 42.8446 134.883 41.0002C134.883 40.735 134.901 40.4637 134.937 40.1865C135.106 39.0051 135.588 38.0587 136.384 37.3475C137.191 36.6242 138.144 36.2565 139.241 36.2444C140.483 36.2324 141.477 36.6181 142.225 37.4017C142.984 38.1733 143.364 39.1738 143.364 40.4035V41.3076H141.121V40.4035C141.121 39.8851 140.953 39.4511 140.615 39.1015C140.241 38.7157 139.765 38.5349 139.187 38.559C138.692 38.5831 138.264 38.7459 137.903 39.0473C137.541 39.3366 137.318 39.7344 137.234 40.2407C137.21 40.4095 137.198 40.5662 137.198 40.7109C137.198 41.6753 137.728 42.3986 138.789 42.8808L140.633 43.7126C142.803 44.6891 143.888 45.973 143.888 47.5643C143.888 48.8903 143.46 49.909 142.604 50.6203C141.809 51.2833 140.712 51.6148 139.313 51.6148ZM156.857 43.8211C156.857 46.4974 156.273 48.4865 155.103 49.7885C154.067 50.9337 152.644 51.5063 150.836 51.5063C149.076 51.5063 147.659 50.8734 146.586 49.6076C145.405 48.2454 144.814 46.3166 144.814 43.8211C144.814 41.4462 145.405 39.5536 146.586 38.1431C147.695 36.805 149.112 36.1299 150.836 36.1178C152.692 36.1058 154.139 36.7085 155.176 37.9261C156.297 39.2401 156.857 41.2051 156.857 43.8211ZM154.326 43.8573C154.326 40.2407 153.168 38.4324 150.854 38.4324C148.539 38.4324 147.382 40.2407 147.382 43.8573C147.382 45.75 147.744 47.1664 148.467 48.1067C149.058 48.8783 149.853 49.2761 150.854 49.3002C151.866 49.3243 152.668 48.9325 153.259 48.1248C153.97 47.1966 154.326 45.7741 154.326 43.8573ZM171.795 51H169.246C169.33 50.0235 169.372 48.7155 169.372 47.076C169.372 45.4968 169.33 44.1587 169.246 43.0616C168.631 44.231 167.986 45.6053 167.311 47.1845C166.937 48.0646 166.443 49.3364 165.828 51H163.604C163.363 50.2285 162.971 49.035 162.429 47.4196C161.778 45.6716 161.151 44.237 160.548 43.1159C160.464 44.3455 160.427 45.9308 160.439 47.8717C160.451 49.2701 160.488 50.5057 160.548 51.5787H157.998C158.095 49.6378 158.143 47.2327 158.143 44.3636C158.143 40.9399 158.095 38.33 157.998 36.5337H160.91C161.344 38.0165 162.001 39.8851 162.881 42.1394C163.652 44.1165 164.321 45.6776 164.888 46.8229C165.466 45.5932 166.142 44.014 166.913 42.0852C167.407 40.8555 168.088 39.0051 168.956 36.5337H171.795C171.723 39.8248 171.681 42.3444 171.669 44.0924C171.669 47.4196 171.711 49.7221 171.795 51Z" fill="#2074A4"/>
<path d="M203.127 73.1826C206.888 73.1819 209.952 70.1137 209.967 66.3476L209.967 66.3473C209.98 62.5237 208.11 60.2433 206.756 58.592L206.731 58.5606L206.73 58.5597L206.515 58.2965C207.415 58.9503 208.523 59.3358 209.721 59.3358C212.737 59.3358 215.183 56.8921 215.183 53.8737C215.183 50.8574 212.738 48.4117 209.721 48.4117C206.704 48.4117 204.259 50.8574 204.259 53.8737C204.259 54.9832 204.589 56.015 205.157 56.8763C205.156 56.875 205.154 56.8737 205.153 56.8723C203.625 54.9346 201.258 53.6798 198.592 53.6798C196.209 53.6798 194.067 54.6822 192.548 56.2761C191.791 56.9365 191.075 57.617 190.594 58.2098C190.594 58.2105 190.593 58.2112 190.593 58.2119L190.308 58.5596L190.307 58.5602L190.283 58.5902C188.928 60.2418 187.057 62.5224 187.071 66.3473L187.071 66.3475C187.085 70.1135 190.149 73.1818 193.912 73.1826M203.127 73.1826C202.082 73.185 201.051 72.946 200.114 72.4843C199.531 72.197 198.994 71.8281 198.519 71.3905C198.044 71.8279 197.507 72.1965 196.924 72.4838C195.987 72.9456 194.956 73.1847 193.912 73.1826M203.127 73.1826C203.126 73.1826 203.126 73.1826 203.126 73.1826V72.1826L203.128 73.1826C203.128 73.1826 203.127 73.1826 203.127 73.1826ZM193.912 73.1826C193.912 73.1826 193.911 73.1826 193.911 73.1826L193.913 72.1826V73.1826C193.913 73.1826 193.912 73.1826 193.912 73.1826ZM197.835 70.6607C198.084 70.4326 198.313 70.1824 198.519 69.9126C198.725 70.1824 198.954 70.4326 199.203 70.6608L197.835 70.6607ZM192.925 53.0021C192.925 49.9856 190.479 47.54 187.462 47.54C184.445 47.54 182 49.9859 182 53.0021C182 56.02 184.445 58.465 187.462 58.465C190.479 58.465 192.925 56.0203 192.925 53.0021Z" fill="#2074A4" stroke="#FFFEFB" stroke-width="2"/>
<path d="M198.901 52.834C202.169 52.834 204.818 50.1849 204.818 46.917C204.818 43.6491 202.169 41 198.901 41C195.633 41 192.984 43.6491 192.984 46.917C192.984 50.1849 195.633 52.834 198.901 52.834Z" fill="#2074A4" stroke="#FFFEFB" stroke-width="2"/>
</svg>
