<svg width="428" height="126" viewBox="0 0 428 126" fill="none" xmlns="http://www.w3.org/2000/svg">
<path d="M35.8979 63.252C35.8313 64.0686 35.6313 64.7686 35.298 65.3519C34.4647 66.7518 32.9981 67.4518 30.8982 67.4518C29.3649 67.4518 28.1983 66.7852 27.3983 65.4519C26.6483 64.2353 26.315 62.6853 26.3984 60.8021C26.4317 60.0021 26.465 58.4522 26.4984 56.1523C25.7651 56.1856 25.2067 56.2189 24.8234 56.2523V53.1024C24.9068 53.1191 25.4567 53.1691 26.4734 53.2524C26.4567 52.3524 26.415 51.1192 26.3484 49.5526H29.8232C29.7399 50.7192 29.6982 51.9858 29.6982 53.3524C31.3648 53.3524 32.8981 53.2691 34.298 53.1024V56.2523C32.2814 56.1356 30.7565 56.0773 29.7232 56.0773C29.7232 56.6939 29.7315 57.4356 29.7482 58.3022C29.7982 59.5688 29.8232 60.4188 29.8232 60.8521C29.8732 63.452 30.4149 64.7936 31.4481 64.8769C32.3314 64.9436 32.8397 64.4019 32.9731 63.252H35.8979ZM48.0918 67.7518H44.6419C44.7919 66.1018 44.8419 63.9269 44.7919 61.2271C44.7586 59.2438 44.7086 57.8439 44.6419 57.0272C44.5919 56.3439 44.3253 55.8523 43.8419 55.5523C43.3753 55.2523 42.842 55.144 42.242 55.2273C41.542 55.3106 40.8087 55.8523 40.0421 56.8522C40.0421 60.3521 40.1338 63.7686 40.3171 67.1018H36.8172C37.0006 64.8019 37.0839 61.3937 37.0672 56.8772C37.0672 53.8107 36.9839 50.5525 36.8172 47.1027H40.3171C40.1671 48.9193 40.0754 51.3775 40.0421 54.4774C40.8087 53.4774 41.792 52.9024 42.992 52.7524C43.2753 52.7191 43.5503 52.7024 43.8169 52.7024C45.0502 52.7024 46.0585 53.0024 46.8418 53.6024C47.7251 54.269 48.1418 55.2023 48.0918 56.4023C48.0418 57.4689 47.9834 59.1022 47.9168 61.3021C47.8834 64.1519 47.9418 66.3018 48.0918 67.7518ZM60.5731 59.9771C57.7898 59.7938 54.99 59.7688 52.1734 59.9021V60.4521C52.1734 61.7354 52.4567 62.752 53.0234 63.502C53.59 64.2519 54.2817 64.6269 55.0983 64.6269C56.3482 64.6269 57.0482 63.6186 57.1982 61.602L60.4481 61.902C60.4147 63.3353 59.9231 64.6102 58.9731 65.7269C57.9398 66.9268 56.6649 67.5268 55.1483 67.5268C53.4484 67.5268 52.0234 66.8768 50.8735 65.5769C49.6402 64.1769 49.0319 62.327 49.0486 60.0271C49.0652 57.7772 49.6402 55.9606 50.7735 54.5773C51.9234 53.1774 53.4234 52.4774 55.2733 52.4774C57.2232 52.4774 58.6481 53.3357 59.5481 55.0523C60.1981 56.3189 60.5397 57.9605 60.5731 59.9771ZM57.2982 57.7772C56.9815 56.0939 56.2482 55.2523 55.0983 55.2523C53.865 55.2523 52.9984 56.0773 52.4984 57.7272C53.7817 57.7939 55.3816 57.8105 57.2982 57.7772Z" fill="#2074A4"/>
<path d="M67.5356 46.113C65.1072 46.0474 60.5129 45.9489 53.7528 45.8177C53.7528 40.6984 52.1776 36.3338 49.0273 32.724C45.877 29.0486 41.7421 27.2109 36.6228 27.2109C23.562 27.2109 17.0316 37.0558 17.0316 56.7455C17.0316 67.0497 19.0005 74.7615 22.9385 79.8808C26.1545 84.1469 30.4862 86.3128 35.9337 86.3784C43.8095 86.5097 49.2898 82.342 52.3745 73.8755C52.5058 73.8755 57.1985 74.2693 66.4527 75.0569C61.6615 90.6117 51.4885 98.3891 35.9337 98.3891C26.3514 98.3891 18.6067 94.9434 12.6998 88.052C6.26788 80.6356 3.0519 70.1344 3.0519 56.5486C3.0519 43.619 6.26788 33.3147 12.6998 25.6358C18.8036 18.3506 26.5482 14.6752 35.9337 14.6095C45.3191 14.5439 52.9324 17.4317 58.7737 23.273C64.615 29.0486 67.5356 36.662 67.5356 46.113ZM117.074 97.0108C115.302 97.5359 113.629 97.7984 112.053 97.7984C108.116 97.7984 104.9 96.0592 102.406 92.5807C98.3363 96.6499 93.6765 98.6188 88.4259 98.4876C82.9784 98.3563 78.7451 96.5842 75.726 93.1714C73.1664 90.2835 71.8865 87.0347 71.8865 83.425C71.8865 79.6839 72.9367 76.5336 75.0369 73.9739C77.6622 70.6923 81.6658 69.0515 87.0476 69.0515C92.2982 69.0515 96.7612 70.3641 100.437 72.9894V61.8648C100.437 53.9233 97.4503 49.9525 91.4778 49.9525C88.1962 49.9525 85.6365 51.8887 83.7988 55.761C82.3549 58.8457 81.6329 62.2914 81.6329 66.0981H69.8191C69.6879 58.4191 71.5256 52.0527 75.3322 46.9991C79.4671 41.486 85.1443 38.7294 92.3638 38.7294C106.869 38.7294 113.858 47.0975 113.333 63.8337C113.005 74.3349 113.005 81.2591 113.333 84.6063C113.596 87.2316 114.843 88.5443 117.074 88.5443V97.0108ZM100.437 84.0157V82.4405C96.3674 80.4059 93.1842 79.3886 90.8871 79.3886C87.146 79.3886 85.2755 80.9309 85.2755 84.0157C85.2755 86.6409 87.2773 87.9536 91.2809 87.9536C93.1842 87.9536 96.2361 86.6409 100.437 84.0157ZM162.575 80.4715C162.313 83.6875 161.525 86.4441 160.212 88.7412C156.931 94.2543 151.155 97.0108 142.886 97.0108C136.847 97.0108 132.253 94.3856 129.103 89.135C126.149 84.3438 124.837 78.24 125.165 70.8236C125.296 67.6732 125.427 61.5694 125.559 52.5122C122.671 52.6434 120.472 52.7747 118.963 52.906V40.5015C119.291 40.5671 121.457 40.764 125.46 41.0922C125.395 37.548 125.23 32.6912 124.968 26.5218H138.652C138.324 31.1161 138.16 36.1041 138.16 41.486C144.723 41.486 150.761 41.1578 156.275 40.5015V52.906C148.333 52.4465 142.328 52.2168 138.258 52.2168C138.258 54.6452 138.291 57.5659 138.357 60.9787C138.554 65.9668 138.652 69.314 138.652 71.0205C138.849 81.2591 140.982 86.5425 145.051 86.8707C148.53 87.1332 150.532 85.0001 151.057 80.4715H162.575ZM209.414 67.5748C198.454 66.8528 187.428 66.7544 176.336 67.2794V69.4453C176.336 74.499 177.451 78.5025 179.683 81.456C181.914 84.4095 184.638 85.8862 187.854 85.8862C192.777 85.8862 195.533 81.9154 196.124 73.9739L208.922 75.1553C208.791 80.7997 206.855 85.8205 203.114 90.2179C199.044 94.9434 194.024 97.3062 188.051 97.3062C181.357 97.3062 175.745 94.7465 171.216 89.6272C166.36 84.1141 163.964 76.8289 164.03 67.7717C164.095 58.9113 166.36 51.7574 170.823 46.3099C175.351 40.7968 181.258 38.0403 188.543 38.0403C196.222 38.0403 201.834 41.4203 205.378 48.1804C207.938 53.1685 209.283 59.6333 209.414 67.5748ZM196.518 58.9113C195.271 52.2825 192.383 48.968 187.854 48.968C182.997 48.968 179.584 52.2168 177.615 58.7144C182.669 58.9769 188.97 59.0426 196.518 58.9113ZM261.782 98.1922H248.196C248.787 91.7603 249.016 83.1953 248.885 72.4972C248.82 66.5247 248.59 61.0116 248.196 55.9579C247.999 53.5951 247.113 51.7574 245.538 50.4448C244.16 49.329 242.453 48.7711 240.419 48.7711C237.531 48.7711 234.873 49.7884 232.444 51.823C230.082 53.792 228.31 56.1876 227.128 59.0098V68.1655C227.128 76.9602 227.456 86.1159 228.113 95.6326H214.33C214.921 86.7722 215.249 77.2884 215.314 67.181C215.38 55.1703 215.052 45.227 214.33 37.3511H228.113C227.916 39.1888 227.719 43.1596 227.522 49.2634C229.95 43.4877 234.676 40.1077 241.698 39.1232C242.814 38.9919 243.963 38.9263 245.144 38.9263C250.001 38.9263 253.939 40.1077 256.958 42.4704C260.371 45.0957 261.979 48.7711 261.782 53.4967C261.519 59.6005 261.323 66.0324 261.191 72.7925C260.994 84.0157 261.191 92.4822 261.782 98.1922ZM311.428 67.5748C300.468 66.8528 289.442 66.7544 278.35 67.2794V69.4453C278.35 74.499 279.465 78.5025 281.697 81.456C283.928 84.4095 286.652 85.8862 289.868 85.8862C294.791 85.8862 297.547 81.9154 298.138 73.9739L310.936 75.1553C310.805 80.7997 308.869 85.8205 305.128 90.2179C301.058 94.9434 296.038 97.3062 290.065 97.3062C283.371 97.3062 277.759 94.7465 273.23 89.6272C268.374 84.1141 265.978 76.8289 266.044 67.7717C266.109 58.9113 268.374 51.7574 272.837 46.3099C277.365 40.7968 283.272 38.0403 290.557 38.0403C298.236 38.0403 303.848 41.4203 307.392 48.1804C309.952 53.1685 311.297 59.6333 311.428 67.5748ZM298.532 58.9113C297.285 52.2825 294.397 48.968 289.868 48.968C285.011 48.968 281.599 52.2168 279.63 58.7144C284.683 58.9769 290.984 59.0426 298.532 58.9113ZM361.63 97.0108C359.858 97.5359 358.184 97.7984 356.609 97.7984C352.671 97.7984 349.455 96.0592 346.961 92.5807C342.892 96.6499 338.232 98.6188 332.982 98.4876C327.534 98.3563 323.301 96.5842 320.282 93.1714C317.722 90.2835 316.442 87.0347 316.442 83.425C316.442 79.6839 317.492 76.5336 319.593 73.9739C322.218 70.6923 326.222 69.0515 331.603 69.0515C336.854 69.0515 341.317 70.3641 344.992 72.9894V61.8648C344.992 53.9233 342.006 49.9525 336.034 49.9525C332.752 49.9525 330.192 51.8887 328.355 55.761C326.911 58.8457 326.189 62.2914 326.189 66.0981H314.375C314.244 58.4191 316.081 52.0527 319.888 46.9991C324.023 41.486 329.7 38.7294 336.92 38.7294C351.424 38.7294 358.414 47.0975 357.889 63.8337C357.561 74.3349 357.561 81.2591 357.889 84.6063C358.152 87.2316 359.399 88.5443 361.63 88.5443V97.0108ZM344.992 84.0157V82.4405C340.923 80.4059 337.74 79.3886 335.443 79.3886C331.702 79.3886 329.831 80.9309 329.831 84.0157C329.831 86.6409 331.833 87.9536 335.837 87.9536C337.74 87.9536 340.792 86.6409 344.992 84.0157ZM414.515 98.1922H400.929C401.519 91.7603 401.749 83.1953 401.618 72.4972C401.552 66.5247 401.323 61.0116 400.929 55.9579C400.732 53.5951 399.846 51.7574 398.271 50.4448C396.892 49.329 395.186 48.7711 393.151 48.7711C390.264 48.7711 387.605 49.7884 385.177 51.823C382.814 53.792 381.042 56.1876 379.861 59.0098V68.1655C379.861 76.9602 380.189 86.1159 380.845 95.6326H367.062C367.653 86.7722 367.981 77.2884 368.047 67.181C368.113 55.1703 367.784 45.227 367.062 37.3511H380.845C380.648 39.1888 380.451 43.1596 380.255 49.2634C382.683 43.4877 387.408 40.1077 394.431 39.1232C395.547 38.9919 396.695 38.9263 397.877 38.9263C402.734 38.9263 406.672 40.1077 409.691 42.4704C413.104 45.0957 414.712 48.7711 414.515 53.4967C414.252 59.6005 414.055 66.0324 413.924 72.7925C413.727 84.0157 413.924 92.4822 414.515 98.1922Z" fill="#2074A4"/>
<path d="M64.084 8.59328V30.3625C64.084 33.1291 60.6576 34.4211 58.8309 32.3433L49.5333 21.7673C48.5585 20.6585 48.5354 19.0053 49.4787 17.8696L58.7763 6.6764C60.5706 4.51617 64.084 5.78501 64.084 8.59328Z" fill="#2074A4"/>
<path d="M8.68555 8.6653V30.4345C8.68555 33.2011 12.112 34.4931 13.9387 32.4153L23.2362 21.8393C24.211 20.7305 24.2341 19.0773 23.2908 17.9416L13.9933 6.74842C12.1989 4.5882 8.68555 5.85703 8.68555 8.6653Z" fill="#2074A4"/>
<path d="M412.254 87.7391L411.308 87.1317C407.097 84.4293 401.527 87.1962 401.136 92.1839L400.626 98.6864C400.256 103.404 403.081 107.787 407.529 109.4L408.648 109.805C412.696 111.272 417.22 110.474 420.522 107.71L421.315 107.046C423.888 104.892 425.594 101.877 426.116 98.5618L427.282 91.151C427.428 90.2234 427.292 89.2733 426.891 88.4242L426.226 87.0147C425.687 85.8745 424.435 85.2548 423.202 85.5186C422.088 85.7569 421.241 86.6653 421.081 87.7933L420.145 94.3991C420.068 94.9435 419.834 95.4535 419.471 95.8665C417.842 97.7194 414.788 96.7386 414.542 94.2841L414.206 90.9238C414.076 89.6198 413.357 88.4469 412.254 87.7391Z" fill="#2074A4"/>
</svg>
