<svg width="63" height="63" viewBox="0 0 63 63" fill="none" xmlns="http://www.w3.org/2000/svg">
<circle cx="31.5" cy="31.5523" r="29.6979" fill="#F2DDAF" stroke="#A56953" stroke-width="2.31413"/>
<path d="M20.0733 29.4395L16.7865 20.1995H18.9777L21.1029 27.2615L23.2545 20.1995H25.3137L22.0269 29.4395H20.0733ZM27.049 22.1531C26.7322 22.1531 26.455 22.0387 26.2174 21.8099C25.9798 21.5811 25.861 21.3083 25.861 20.9915C25.861 20.6659 25.9798 20.3887 26.2174 20.1599C26.455 19.9223 26.7322 19.8035 27.049 19.8035C27.3746 19.8035 27.6518 19.9223 27.8806 20.1599C28.1094 20.3887 28.2238 20.6659 28.2238 20.9915C28.2238 21.3171 28.1094 21.5943 27.8806 21.8231C27.6518 22.0431 27.3746 22.1531 27.049 22.1531ZM26.0854 29.4395V23.0771H28.0126V29.4395H26.0854ZM33.9363 27.3011L35.0451 28.2515C34.4467 29.2019 33.4875 29.6551 32.1675 29.6111C31.2259 29.5935 30.4867 29.3119 29.9499 28.7663C29.4219 28.2119 29.1579 27.4331 29.1579 26.4299C29.1579 25.3651 29.4615 24.5115 30.0687 23.8691C30.6847 23.2179 31.4723 22.8923 32.4315 22.8923C33.1795 22.8923 33.7691 23.0727 34.2003 23.4335C34.6315 23.7855 34.8471 24.2783 34.8471 24.9119C34.8471 26.2671 33.6239 26.9843 31.1775 27.0635C31.3359 27.7147 31.7671 28.0403 32.4711 28.0403C33.0783 28.0403 33.5667 27.7939 33.9363 27.3011ZM32.4051 24.4499C32.0443 24.4499 31.7495 24.5775 31.5207 24.8327C31.3007 25.0879 31.1687 25.4487 31.1247 25.9151C32.4183 25.8711 33.0651 25.5807 33.0651 25.0439C33.0651 24.6479 32.8451 24.4499 32.4051 24.4499ZM43.3906 23.0771H45.3574L43.4302 29.4395H41.3446L40.579 26.0339L40.381 24.8195L40.1434 26.0339L39.2722 29.4395H37.2394L35.3122 23.0771H37.3978L38.137 26.3375L38.3878 27.7895L38.6386 26.3375L39.391 23.0771H41.4106L42.1498 26.3375L42.4006 27.7895L42.6514 26.3375L43.3906 23.0771ZM13.9954 42.6111C13.0098 42.6111 12.2354 42.3163 11.6722 41.7267C11.109 41.1371 10.8274 40.3143 10.8274 39.2583C10.8274 38.2023 11.109 37.3795 11.6722 36.7899C12.2354 36.1915 13.0054 35.8923 13.9822 35.8923C14.783 35.8923 15.4078 36.0727 15.8566 36.4335C16.3142 36.7943 16.543 37.3223 16.543 38.0175C16.543 38.3607 16.5034 38.6247 16.4242 38.8095L14.7874 38.8227C14.8314 38.6907 14.8534 38.5279 14.8534 38.3343C14.8534 37.7799 14.5542 37.5027 13.9558 37.5027C13.1638 37.5027 12.7678 38.0703 12.7678 39.2055C12.7678 39.7863 12.8866 40.2307 13.1242 40.5387C13.3706 40.8467 13.7182 41.0007 14.167 41.0007C14.5014 41.0007 14.7698 40.9391 14.9722 40.8159C15.1746 40.6839 15.3638 40.4947 15.5398 40.2483L16.6486 41.2515C16.411 41.6651 16.0634 41.9951 15.6058 42.2415C15.1482 42.4879 14.6114 42.6111 13.9954 42.6111ZM17.8916 42.4395V38.0835C17.8916 37.7227 17.7156 37.5423 17.3636 37.5423V36.0903C17.5484 36.0199 17.8344 35.9847 18.2216 35.9847C18.644 35.9847 18.9696 36.0771 19.1984 36.2619C19.4272 36.4467 19.546 36.6711 19.5548 36.9351L19.568 36.9747C19.6912 36.6491 19.9024 36.3939 20.2016 36.2091C20.5096 36.0155 20.8748 35.9187 21.2972 35.9187C21.7284 35.9187 22.0364 35.9979 22.2212 36.1563L21.548 37.9251C21.3896 37.8195 21.174 37.7667 20.9012 37.7667C20.558 37.7667 20.2896 37.8899 20.096 38.1363C19.9112 38.3827 19.8188 38.7215 19.8188 39.1527V42.4395H17.8916ZM27.1816 40.3011L28.2904 41.2515C27.692 42.2019 26.7328 42.6551 25.4128 42.6111C24.4712 42.5935 23.732 42.3119 23.1952 41.7663C22.6672 41.2119 22.4032 40.4331 22.4032 39.4299C22.4032 38.3651 22.7068 37.5115 23.314 36.8691C23.93 36.2179 24.7176 35.8923 25.6768 35.8923C26.4248 35.8923 27.0144 36.0727 27.4456 36.4335C27.8768 36.7855 28.0924 37.2783 28.0924 37.9119C28.0924 39.2671 26.8692 39.9843 24.4228 40.0635C24.5812 40.7147 25.0124 41.0403 25.7164 41.0403C26.3236 41.0403 26.812 40.7939 27.1816 40.3011ZM25.6504 37.4499C25.2896 37.4499 24.9948 37.5775 24.766 37.8327C24.546 38.0879 24.414 38.4487 24.37 38.9151C25.6636 38.8711 26.3104 38.5807 26.3104 38.0439C26.3104 37.6479 26.0904 37.4499 25.6504 37.4499ZM31.4992 42.6111C30.7424 42.6111 30.1308 42.3075 29.6644 41.7003C29.198 41.0931 28.9648 40.2967 28.9648 39.3111C28.9648 38.2991 29.2244 37.4763 29.7436 36.8427C30.2628 36.2091 30.9228 35.8923 31.7236 35.8923C32.41 35.8923 32.9204 36.1123 33.2548 36.5523V32.8563H35.182V40.4199C35.182 40.6223 35.2216 40.7675 35.3008 40.8555C35.3888 40.9435 35.5252 40.9875 35.71 40.9875V42.4395C35.5252 42.5099 35.2348 42.5451 34.8388 42.5451C34.038 42.5451 33.5892 42.2151 33.4924 41.5551V41.5155C33.1052 42.2459 32.4408 42.6111 31.4992 42.6111ZM32.146 41.0007C32.4364 41.0007 32.6784 40.9127 32.872 40.7367C33.0744 40.5519 33.2152 40.3099 33.2944 40.0107V38.4399C33.2328 38.1847 33.1052 37.9647 32.9116 37.7799C32.7268 37.5951 32.4716 37.5027 32.146 37.5027C31.3276 37.5027 30.9184 38.0967 30.9184 39.2847C30.9184 39.8303 31.024 40.2527 31.2352 40.5519C31.4552 40.8511 31.7588 41.0007 32.146 41.0007ZM37.8513 35.1531C37.5345 35.1531 37.2573 35.0387 37.0197 34.8099C36.7821 34.5811 36.6633 34.3083 36.6633 33.9915C36.6633 33.6659 36.7821 33.3887 37.0197 33.1599C37.2573 32.9223 37.5345 32.8035 37.8513 32.8035C38.1769 32.8035 38.4541 32.9223 38.6829 33.1599C38.9117 33.3887 39.0261 33.6659 39.0261 33.9915C39.0261 34.3171 38.9117 34.5943 38.6829 34.8231C38.4541 35.0431 38.1769 35.1531 37.8513 35.1531ZM36.8877 42.4395V36.0771H38.8149V42.4395H36.8877ZM43.4054 42.5187C42.5254 42.5187 41.8742 42.2855 41.4518 41.8191C41.0382 41.3439 40.8314 40.6179 40.8314 39.6411V37.6215H39.7358V36.0771H40.8842V34.2159H42.7586V36.0771H44.8706V37.6215H42.7586V39.5223C42.7586 40.3671 43.0798 40.7895 43.7222 40.7895C44.0566 40.7895 44.369 40.6883 44.6594 40.4859L45.2534 41.9115C45.0422 42.0875 44.765 42.2327 44.4218 42.3471C44.0786 42.4615 43.7398 42.5187 43.4054 42.5187ZM48.4695 42.6111C47.1935 42.6111 46.1991 42.2723 45.4863 41.5947L46.4499 40.2747C47.0395 40.8379 47.7435 41.1195 48.5619 41.1195C49.2043 41.1195 49.5255 40.9743 49.5255 40.6839C49.5255 40.5167 49.4419 40.4023 49.2747 40.3407C49.1163 40.2791 48.7379 40.1823 48.1395 40.0503C47.8579 39.9887 47.6203 39.9315 47.4267 39.8787C47.2419 39.8171 47.0351 39.7335 46.8063 39.6279C46.5863 39.5135 46.4059 39.3903 46.2651 39.2583C46.1331 39.1175 46.0187 38.9371 45.9219 38.7171C45.8339 38.4971 45.7899 38.2463 45.7899 37.9647C45.7899 37.3487 46.0363 36.8515 46.5291 36.4731C47.0307 36.0859 47.7215 35.8923 48.6015 35.8923C49.4375 35.8923 50.0887 36.0595 50.5551 36.3939C51.0215 36.7195 51.2547 37.1859 51.2547 37.7931C51.2547 38.0219 51.2151 38.2243 51.1359 38.4003H49.3935C49.4287 38.2771 49.4463 38.1407 49.4463 37.9911C49.4463 37.5687 49.1559 37.3575 48.5751 37.3575C47.9591 37.3575 47.6511 37.5511 47.6511 37.9383C47.6511 38.1495 47.7523 38.3035 47.9547 38.4003C48.1571 38.4883 48.5355 38.5895 49.0899 38.7039C49.1515 38.7127 49.1955 38.7215 49.2219 38.7303C49.5387 38.7919 49.7983 38.8579 50.0007 38.9283C50.2119 38.9987 50.4319 39.0999 50.6607 39.2319C50.8983 39.3639 51.0787 39.5443 51.2019 39.7731C51.3251 40.0019 51.3867 40.2747 51.3867 40.5915C51.3867 41.2603 51.1315 41.7663 50.6211 42.1095C50.1195 42.4439 49.4023 42.6111 48.4695 42.6111Z" fill="#A56953"/>
</svg>
