<svg width="80" height="80" viewBox="0 0 80 80" fill="none" xmlns="http://www.w3.org/2000/svg">
<circle cx="40" cy="40" r="38.5" fill="#F2DDAF" stroke="#A56953" stroke-width="3"/>
<path d="M27.7897 36L24.3037 26.2H26.6277L28.8817 33.69L31.1637 26.2H33.3477L29.8617 36H27.7897ZM35.1882 28.272C34.8522 28.272 34.5582 28.1507 34.3062 27.908C34.0542 27.6653 33.9282 27.376 33.9282 27.04C33.9282 26.6947 34.0542 26.4007 34.3062 26.158C34.5582 25.906 34.8522 25.78 35.1882 25.78C35.5335 25.78 35.8275 25.906 36.0702 26.158C36.3128 26.4007 36.4342 26.6947 36.4342 27.04C36.4342 27.3853 36.3128 27.6793 36.0702 27.922C35.8275 28.1553 35.5335 28.272 35.1882 28.272ZM34.1662 36V29.252H36.2102V36H34.1662ZM42.4929 33.732L43.6689 34.74C43.0342 35.748 42.0169 36.2287 40.6169 36.182C39.6182 36.1633 38.8342 35.8647 38.2649 35.286C37.7049 34.698 37.4249 33.872 37.4249 32.808C37.4249 31.6787 37.7469 30.7733 38.3909 30.092C39.0442 29.4013 39.8795 29.056 40.8969 29.056C41.6902 29.056 42.3155 29.2473 42.7729 29.63C43.2302 30.0033 43.4589 30.526 43.4589 31.198C43.4589 32.6353 42.1615 33.396 39.5669 33.48C39.7349 34.1707 40.1922 34.516 40.9389 34.516C41.5829 34.516 42.1009 34.2547 42.4929 33.732ZM40.8689 30.708C40.4862 30.708 40.1735 30.8433 39.9309 31.114C39.6975 31.3847 39.5575 31.7673 39.5109 32.262C40.8829 32.2153 41.5689 31.9073 41.5689 31.338C41.5689 30.918 41.3355 30.708 40.8689 30.708ZM52.5202 29.252H54.6062L52.5622 36H50.3502L49.5382 32.388L49.3282 31.1L49.0762 32.388L48.1522 36H45.9962L43.9522 29.252H46.1642L46.9482 32.71L47.2142 34.25L47.4802 32.71L48.2782 29.252H50.4202L51.2042 32.71L51.4702 34.25L51.7362 32.71L52.5202 29.252ZM21.3435 53.182C20.2981 53.182 19.4768 52.8693 18.8795 52.244C18.2821 51.6187 17.9835 50.746 17.9835 49.626C17.9835 48.506 18.2821 47.6333 18.8795 47.008C19.4768 46.3733 20.2935 46.056 21.3295 46.056C22.1788 46.056 22.8415 46.2473 23.3175 46.63C23.8028 47.0127 24.0455 47.5727 24.0455 48.31C24.0455 48.674 24.0035 48.954 23.9195 49.15L22.1835 49.164C22.2301 49.024 22.2535 48.8513 22.2535 48.646C22.2535 48.058 21.9361 47.764 21.3015 47.764C20.4615 47.764 20.0415 48.366 20.0415 49.57C20.0415 50.186 20.1675 50.6573 20.4195 50.984C20.6808 51.3107 21.0495 51.474 21.5255 51.474C21.8801 51.474 22.1648 51.4087 22.3795 51.278C22.5941 51.138 22.7948 50.9373 22.9815 50.676L24.1575 51.74C23.9055 52.1787 23.5368 52.5287 23.0515 52.79C22.5661 53.0513 21.9968 53.182 21.3435 53.182ZM25.4758 53V48.38C25.4758 47.9973 25.2891 47.806 24.9158 47.806V46.266C25.1118 46.1913 25.4151 46.154 25.8258 46.154C26.2738 46.154 26.6191 46.252 26.8618 46.448C27.1044 46.644 27.2304 46.882 27.2398 47.162L27.2538 47.204C27.3844 46.8587 27.6084 46.588 27.9258 46.392C28.2524 46.1867 28.6398 46.084 29.0878 46.084C29.5451 46.084 29.8718 46.168 30.0678 46.336L29.3538 48.212C29.1858 48.1 28.9571 48.044 28.6678 48.044C28.3038 48.044 28.0191 48.1747 27.8138 48.436C27.6178 48.6973 27.5198 49.0567 27.5198 49.514V53H25.4758ZM35.3288 50.732L36.5048 51.74C35.8702 52.748 34.8528 53.2287 33.4528 53.182C32.4542 53.1633 31.6702 52.8647 31.1008 52.286C30.5408 51.698 30.2608 50.872 30.2608 49.808C30.2608 48.6787 30.5828 47.7733 31.2268 47.092C31.8802 46.4013 32.7155 46.056 33.7328 46.056C34.5262 46.056 35.1515 46.2473 35.6088 46.63C36.0662 47.0033 36.2948 47.526 36.2948 48.198C36.2948 49.6353 34.9975 50.396 32.4028 50.48C32.5708 51.1707 33.0282 51.516 33.7748 51.516C34.4188 51.516 34.9368 51.2547 35.3288 50.732ZM33.7048 47.708C33.3222 47.708 33.0095 47.8433 32.7668 48.114C32.5335 48.3847 32.3935 48.7673 32.3468 49.262C33.7188 49.2153 34.4048 48.9073 34.4048 48.338C34.4048 47.918 34.1715 47.708 33.7048 47.708ZM39.9081 53.182C39.1055 53.182 38.4568 52.86 37.9621 52.216C37.4675 51.572 37.2201 50.7273 37.2201 49.682C37.2201 48.6087 37.4955 47.736 38.0461 47.064C38.5968 46.392 39.2968 46.056 40.1461 46.056C40.8741 46.056 41.4155 46.2893 41.7701 46.756V42.836H43.8141V50.858C43.8141 51.0727 43.8561 51.2267 43.9401 51.32C44.0335 51.4133 44.1781 51.46 44.3741 51.46V53C44.1781 53.0747 43.8701 53.112 43.4501 53.112C42.6008 53.112 42.1248 52.762 42.0221 52.062V52.02C41.6115 52.7947 40.9068 53.182 39.9081 53.182ZM40.5941 51.474C40.9021 51.474 41.1588 51.3807 41.3641 51.194C41.5788 50.998 41.7281 50.7413 41.8121 50.424V48.758C41.7468 48.4873 41.6115 48.254 41.4061 48.058C41.2101 47.862 40.9395 47.764 40.5941 47.764C39.7261 47.764 39.2921 48.394 39.2921 49.654C39.2921 50.2327 39.4041 50.6807 39.6281 50.998C39.8615 51.3153 40.1835 51.474 40.5941 51.474ZM46.6452 45.272C46.3092 45.272 46.0152 45.1507 45.7632 44.908C45.5112 44.6653 45.3852 44.376 45.3852 44.04C45.3852 43.6947 45.5112 43.4007 45.7632 43.158C46.0152 42.906 46.3092 42.78 46.6452 42.78C46.9905 42.78 47.2845 42.906 47.5272 43.158C47.7699 43.4007 47.8912 43.6947 47.8912 44.04C47.8912 44.3853 47.7699 44.6793 47.5272 44.922C47.2845 45.1553 46.9905 45.272 46.6452 45.272ZM45.6232 53V46.252H47.6672V53H45.6232ZM52.5359 53.084C51.6026 53.084 50.9119 52.8367 50.4639 52.342C50.0252 51.838 49.8059 51.068 49.8059 50.032V47.89H48.6439V46.252H49.8619V44.278H51.8499V46.252H54.0899V47.89H51.8499V49.906C51.8499 50.802 52.1906 51.25 52.8719 51.25C53.2266 51.25 53.5579 51.1427 53.8659 50.928L54.4959 52.44C54.2719 52.6267 53.9779 52.7807 53.6139 52.902C53.2499 53.0233 52.8906 53.084 52.5359 53.084ZM57.9069 53.182C56.5535 53.182 55.4989 52.8227 54.7429 52.104L55.7649 50.704C56.3902 51.3013 57.1369 51.6 58.0049 51.6C58.6862 51.6 59.0269 51.446 59.0269 51.138C59.0269 50.9607 58.9382 50.8393 58.7609 50.774C58.5929 50.7087 58.1915 50.606 57.5569 50.466C57.2582 50.4007 57.0062 50.34 56.8009 50.284C56.6049 50.2187 56.3855 50.13 56.1429 50.018C55.9095 49.8967 55.7182 49.766 55.5689 49.626C55.4289 49.4767 55.3075 49.2853 55.2049 49.052C55.1115 48.8187 55.0649 48.5527 55.0649 48.254C55.0649 47.6007 55.3262 47.0733 55.8489 46.672C56.3809 46.2613 57.1135 46.056 58.0469 46.056C58.9335 46.056 59.6242 46.2333 60.1189 46.588C60.6135 46.9333 60.8609 47.428 60.8609 48.072C60.8609 48.3147 60.8189 48.5293 60.7349 48.716H58.8869C58.9242 48.5853 58.9429 48.4407 58.9429 48.282C58.9429 47.834 58.6349 47.61 58.0189 47.61C57.3655 47.61 57.0389 47.8153 57.0389 48.226C57.0389 48.45 57.1462 48.6133 57.3609 48.716C57.5755 48.8093 57.9769 48.9167 58.5649 49.038C58.6302 49.0473 58.6769 49.0567 58.7049 49.066C59.0409 49.1313 59.3162 49.2013 59.5309 49.276C59.7549 49.3507 59.9882 49.458 60.2309 49.598C60.4829 49.738 60.6742 49.9293 60.8049 50.172C60.9355 50.4147 61.0009 50.704 61.0009 51.04C61.0009 51.7493 60.7302 52.286 60.1889 52.65C59.6569 53.0047 58.8962 53.182 57.9069 53.182Z" fill="#A56953"/>
</svg>
