<svg width="267" height="78" viewBox="0 0 267 78" fill="none" xmlns="http://www.w3.org/2000/svg">
<path d="M22.3611 39.141C22.3196 39.6497 22.195 40.0857 21.9874 40.449C21.4683 41.3211 20.5547 41.7571 19.2467 41.7571C18.2916 41.7571 17.5649 41.3418 17.0666 40.5113C16.5995 39.7535 16.3919 38.788 16.4438 37.6149C16.4645 37.1166 16.4853 36.1512 16.5061 34.7186C16.0493 34.7393 15.7015 34.7601 15.4627 34.7809V32.8188C15.5146 32.8292 15.8572 32.8603 16.4905 32.9122C16.4801 32.3517 16.4542 31.5834 16.4126 30.6076H18.5771C18.5252 31.3343 18.4993 32.1233 18.4993 32.9745C19.5374 32.9745 20.4925 32.9226 21.3645 32.8188V34.7809C20.1084 34.7082 19.1585 34.6719 18.5148 34.6719C18.5148 35.056 18.52 35.5179 18.5304 36.0578C18.5615 36.8467 18.5771 37.3762 18.5771 37.6461C18.6083 39.2656 18.9457 40.1013 19.5893 40.1532C20.1395 40.1947 20.4561 39.8573 20.5392 39.141H22.3611ZM29.9566 41.9439H27.8077C27.9011 40.9162 27.9323 39.5614 27.9011 37.8797C27.8804 36.6443 27.8492 35.7723 27.8077 35.2636C27.7766 34.838 27.6105 34.5317 27.3094 34.3449C27.0187 34.158 26.6865 34.0905 26.3128 34.1424C25.8768 34.1943 25.42 34.5317 24.9425 35.1546C24.9425 37.3347 24.9996 39.4628 25.1138 41.5391H22.9337C23.0479 40.1064 23.0998 37.9835 23.0894 35.1702C23.0894 33.26 23.0375 31.2305 22.9337 29.0816H25.1138C25.0203 30.2131 24.9633 31.7443 24.9425 33.6753C25.42 33.0524 26.0325 32.6942 26.78 32.6008C26.9565 32.58 27.1277 32.5697 27.2938 32.5697C28.0621 32.5697 28.6901 32.7565 29.178 33.1302C29.7282 33.5455 29.9878 34.1268 29.9566 34.8743C29.9255 35.5387 29.8892 36.5561 29.8476 37.9264C29.8269 39.7016 29.8632 41.0408 29.9566 41.9439ZM37.7313 37.1011C35.9976 36.9869 34.2535 36.9713 32.4991 37.0544V37.3969C32.4991 38.1963 32.6756 38.8296 33.0286 39.2967C33.3815 39.7639 33.8123 39.9974 34.321 39.9974C35.0996 39.9974 35.5356 39.3694 35.6291 38.1132L37.6534 38.3001C37.6326 39.1929 37.3264 39.9871 36.7347 40.6826C36.091 41.4301 35.2969 41.8038 34.3522 41.8038C33.2933 41.8038 32.4057 41.3989 31.6894 40.5892C30.9212 39.7172 30.5422 38.5648 30.5526 37.1322C30.563 35.7308 30.9212 34.5992 31.6271 33.7375C32.3434 32.8655 33.2777 32.4295 34.43 32.4295C35.6446 32.4295 36.5322 32.9641 37.0928 34.0334C37.4977 34.8224 37.7105 35.8449 37.7313 37.1011ZM35.6913 35.7308C35.4941 34.6822 35.0373 34.158 34.321 34.158C33.5528 34.158 33.013 34.6719 32.7015 35.6996C33.5009 35.7411 34.4975 35.7515 35.6913 35.7308Z" fill="#2074A4"/>
<path d="M42.0681 29.2225C40.5554 29.1816 37.6936 29.1203 33.4827 29.0386C33.4827 25.8497 32.5016 23.131 30.5392 20.8825C28.5769 18.5931 26.0013 17.4484 22.8124 17.4484C14.6768 17.4484 10.609 23.5807 10.609 35.8455C10.609 42.264 11.8355 47.0677 14.2884 50.2566C16.2917 52.9139 18.9899 54.263 22.3832 54.3039C27.2891 54.3857 30.7027 51.7897 32.6242 46.5158C32.706 46.5158 35.6291 46.7611 41.3935 47.2517C38.4091 56.9409 32.0723 61.7854 22.3832 61.7854C16.4143 61.7854 11.5902 59.6391 7.91076 55.3464C3.90428 50.7267 1.90104 44.1855 1.90104 35.7228C1.90104 27.669 3.90428 21.2504 7.91076 16.4672C11.7128 11.9292 16.537 9.63983 22.3832 9.59894C28.2293 9.55806 32.9717 11.3569 36.6103 14.9954C40.2488 18.5931 42.0681 23.3355 42.0681 29.2225ZM72.9259 60.9269C71.822 61.254 70.7795 61.4175 69.7984 61.4175C67.3454 61.4175 65.3422 60.3341 63.7886 58.1673C61.2539 60.702 58.3513 61.9285 55.0807 61.8467C51.6874 61.765 49.0505 60.6612 47.1699 58.5353C45.5755 56.7364 44.7783 54.7128 44.7783 52.4642C44.7783 50.1339 45.4324 48.1716 46.7406 46.5771C48.3759 44.533 50.8698 43.511 54.2221 43.511C57.4927 43.511 60.2727 44.3286 62.5622 45.9639V39.0343C62.5622 34.0875 60.702 31.6142 56.9817 31.6142C54.9376 31.6142 53.3432 32.8202 52.1985 35.2323C51.299 37.1537 50.8493 39.3001 50.8493 41.6712H43.4905C43.4087 36.888 44.5534 32.9224 46.9246 29.7744C49.5002 26.3403 53.0365 24.6233 57.5336 24.6233C66.5686 24.6233 70.9226 29.8358 70.5956 40.2608C70.3912 46.802 70.3912 51.1151 70.5956 53.2001C70.7591 54.8354 71.5359 55.6531 72.9259 55.6531V60.9269ZM62.5622 52.8322V51.851C60.0275 50.5836 58.0447 49.9499 56.6138 49.9499C54.2835 49.9499 53.1183 50.9107 53.1183 52.8322C53.1183 54.4675 54.3652 55.2851 56.8591 55.2851C58.0447 55.2851 59.9457 54.4675 62.5622 52.8322ZM101.268 50.6245C101.105 52.6277 100.614 54.3448 99.7967 55.7757C97.7526 59.2098 94.1549 60.9269 89.0037 60.9269C85.2425 60.9269 82.3807 59.2916 80.4184 56.021C78.5787 53.0366 77.761 49.2345 77.9654 44.6148C78.0472 42.6524 78.129 38.8504 78.2107 33.2086C76.4119 33.2903 75.0423 33.3721 74.102 33.4539V25.7271C74.3065 25.768 75.6556 25.8906 78.1494 26.095C78.1085 23.8874 78.0063 20.8621 77.8428 17.0191H86.3668C86.1624 19.8809 86.0602 22.988 86.0602 26.3403C90.1484 26.3403 93.9096 26.1359 97.3437 25.7271V33.4539C92.397 33.1677 88.6562 33.0246 86.1215 33.0246C86.1215 34.5373 86.1419 36.3565 86.1828 38.4824C86.3055 41.5895 86.3668 43.6745 86.3668 44.7374C86.4894 51.1151 87.8181 54.4061 90.3528 54.6105C92.5196 54.7741 93.7665 53.4454 94.0936 50.6245H101.268ZM130.445 42.5911C123.617 42.1414 116.749 42.0801 109.84 42.4071V43.7563C109.84 46.9042 110.535 49.398 111.925 51.2377C113.315 53.0775 115.012 53.9973 117.015 53.9973C120.081 53.9973 121.798 51.5239 122.166 46.5771L130.138 47.313C130.056 50.8289 128.85 53.9564 126.52 56.6956C123.985 59.6391 120.858 61.1109 117.137 61.1109C112.967 61.1109 109.472 59.5164 106.651 56.3276C103.626 52.8935 102.134 48.3555 102.174 42.7137C102.215 37.1946 103.626 32.7384 106.406 29.3452C109.227 25.911 112.906 24.194 117.444 24.194C122.227 24.194 125.723 26.2994 127.93 30.5103C129.525 33.6174 130.363 37.6443 130.445 42.5911ZM122.411 37.1946C121.634 33.0655 119.836 31.0009 117.015 31.0009C113.989 31.0009 111.864 33.0246 110.637 37.072C113.785 37.2355 117.71 37.2764 122.411 37.1946ZM163.065 61.6628H154.602C154.97 57.6563 155.113 52.3211 155.031 45.6573C154.99 41.937 154.847 38.5029 154.602 35.3549C154.479 33.8831 153.927 32.7384 152.946 31.9208C152.088 31.2258 151.025 30.8783 149.757 30.8783C147.958 30.8783 146.303 31.512 144.79 32.7793C143.318 34.0058 142.214 35.498 141.479 37.2559V42.959C141.479 48.4373 141.683 54.1404 142.092 60.0684H133.507C133.874 54.5492 134.079 48.6417 134.12 42.3458C134.161 34.8643 133.956 28.6706 133.507 23.7647H142.092C141.969 24.9094 141.847 27.3828 141.724 31.1849C143.237 27.5872 146.18 25.4818 150.555 24.8685C151.25 24.7868 151.965 24.7459 152.701 24.7459C155.726 24.7459 158.179 25.4818 160.06 26.9536C162.186 28.5889 163.187 30.8783 163.065 33.8218C162.901 37.6239 162.778 41.6304 162.697 45.8413C162.574 52.8322 162.697 58.106 163.065 61.6628ZM193.989 42.5911C187.162 42.1414 180.294 42.0801 173.385 42.4071V43.7563C173.385 46.9042 174.08 49.398 175.47 51.2377C176.86 53.0775 178.556 53.9973 180.56 53.9973C183.626 53.9973 185.343 51.5239 185.711 46.5771L193.683 47.313C193.601 50.8289 192.395 53.9564 190.065 56.6956C187.53 59.6391 184.402 61.1109 180.682 61.1109C176.512 61.1109 173.017 59.5164 170.196 56.3276C167.171 52.8935 165.678 48.3555 165.719 42.7137C165.76 37.1946 167.171 32.7384 169.951 29.3452C172.771 25.911 176.451 24.194 180.989 24.194C185.772 24.194 189.267 26.2994 191.475 30.5103C193.07 33.6174 193.908 37.6443 193.989 42.5911ZM185.956 37.1946C185.179 33.0655 183.38 31.0009 180.56 31.0009C177.534 31.0009 175.408 33.0246 174.182 37.072C177.33 37.2355 181.255 37.2764 185.956 37.1946ZM225.26 60.9269C224.156 61.254 223.114 61.4175 222.133 61.4175C219.68 61.4175 217.677 60.3341 216.123 58.1673C213.588 60.702 210.686 61.9285 207.415 61.8467C204.022 61.765 201.385 60.6612 199.504 58.5353C197.91 56.7364 197.113 54.7128 197.113 52.4642C197.113 50.1339 197.767 48.1716 199.075 46.5771C200.71 44.533 203.204 43.511 206.556 43.511C209.827 43.511 212.607 44.3286 214.896 45.9639V39.0343C214.896 34.0875 213.036 31.6142 209.316 31.6142C207.272 31.6142 205.677 32.8202 204.533 35.2323C203.633 37.1537 203.184 39.3001 203.184 41.6712H195.825C195.743 36.888 196.888 32.9224 199.259 29.7744C201.835 26.3403 205.371 24.6233 209.868 24.6233C218.903 24.6233 223.257 29.8358 222.93 40.2608C222.725 46.802 222.725 51.1151 222.93 53.2001C223.093 54.8354 223.87 55.6531 225.26 55.6531V60.9269ZM214.896 52.8322V51.851C212.362 50.5836 210.379 49.9499 208.948 49.9499C206.618 49.9499 205.453 50.9107 205.453 52.8322C205.453 54.4675 206.7 55.2851 209.193 55.2851C210.379 55.2851 212.28 54.4675 214.896 52.8322ZM258.202 61.6628H249.739C250.107 57.6563 250.25 52.3211 250.169 45.6573C250.128 41.937 249.985 38.5029 249.739 35.3549C249.617 33.8831 249.065 32.7384 248.084 31.9208C247.225 31.2258 246.162 30.8783 244.895 30.8783C243.096 30.8783 241.44 31.512 239.928 32.7793C238.456 34.0058 237.352 35.498 236.616 37.2559V42.959C236.616 48.4373 236.821 54.1404 237.229 60.0684H228.644C229.012 54.5492 229.216 48.6417 229.257 42.3458C229.298 34.8643 229.094 28.6706 228.644 23.7647H237.229C237.107 24.9094 236.984 27.3828 236.861 31.1849C238.374 27.5872 241.318 25.4818 245.692 24.8685C246.387 24.7868 247.102 24.7459 247.838 24.7459C250.864 24.7459 253.317 25.4818 255.197 26.9536C257.323 28.5889 258.325 30.8783 258.202 33.8218C258.039 37.6239 257.916 41.6304 257.834 45.8413C257.711 52.8322 257.834 58.106 258.202 61.6628Z" fill="#2074A4"/>
<path d="M39.9177 5.17431V18.7344C39.9177 20.4577 37.7834 21.2625 36.6455 19.9682L30.8541 13.3804C30.2469 12.6897 30.2325 11.66 30.8201 10.9526L36.6115 3.98028C37.7293 2.63467 39.9177 3.42504 39.9177 5.17431Z" fill="#2074A4"/>
<path d="M5.41016 5.21924V18.7793C5.41016 20.5027 7.54448 21.3074 8.68234 20.0131L14.4738 13.4253C15.081 12.7347 15.0954 11.7049 14.5078 10.9975L8.71634 4.0252C7.59862 2.67959 5.41016 3.46996 5.41016 5.21924Z" fill="#2074A4"/>
<path d="M256.794 54.4746L256.204 54.0963C253.582 52.413 250.112 54.1365 249.868 57.2433L249.551 61.2937C249.32 64.232 251.08 66.9626 253.851 67.967L254.547 68.2195C257.069 69.1336 259.887 68.6364 261.944 66.9145L262.438 66.5011C264.041 65.159 265.103 63.2815 265.428 61.2161L266.155 56.5999C266.246 56.0221 266.161 55.4303 265.911 54.9014L265.497 54.0234C265.161 53.3132 264.381 52.9272 263.613 53.0915C262.919 53.2399 262.392 53.8058 262.292 54.5084L261.709 58.6231C261.661 58.9623 261.515 59.28 261.289 59.5372C260.275 60.6914 258.372 60.0805 258.219 58.5515L258.01 56.4584C257.929 55.6461 257.481 54.9155 256.794 54.4746Z" fill="#2074A4"/>
</svg>
