<svg width="118" height="115" viewBox="0 0 118 115" fill="none" xmlns="http://www.w3.org/2000/svg">
<g clip-path="url(#clip0_885_124513)">
<rect y="38" width="118" height="77" rx="8" fill="#F9F4EB"/>
<path opacity="0.5" d="M59.3942 84.147L58.9999 84.3162L58.6057 84.147L-69.4077 29.2261L-69.0134 27.3072H187.013L187.408 29.2261L59.3942 84.147Z" fill="#F8EFDC" stroke="#A56953" stroke-width="2"/>
<path d="M51.9309 83.024C51.2203 81.73 50.772 79.9847 51.7534 78.8829C52.7186 77.7979 54.5191 78.0235 55.7608 78.7771C56.9919 79.5223 57.9341 80.6519 58.852 81.7606C59.2153 80.5126 59.7085 79.3036 60.3211 78.1559C60.7389 77.3745 61.2565 76.5819 62.0615 76.21C63.4471 75.5693 65.138 76.4802 65.9442 77.777C66.413 78.5305 66.6774 79.4108 66.7018 80.2981C66.7504 82.0643 65.8744 83.723 64.878 85.1836C64.0024 86.4669 63.0147 87.6736 61.9293 88.7853C61.5632 89.1603 61.1704 89.5344 60.6791 89.7167C59.4184 90.1839 56.8124 88.2003 55.8134 87.458C54.2246 86.2776 52.8845 84.7602 51.9309 83.024Z" fill="#FAA685"/>
</g>
<rect x="1.5" y="39.5" width="115" height="74" rx="6.5" stroke="#A56953" stroke-width="3"/>
<defs>
<clipPath id="clip0_885_124513">
<rect y="38" width="118" height="77" rx="8" fill="white"/>
</clipPath>
</defs>
</svg>
