<svg width="118" height="115" viewBox="0 0 118 115" fill="none" xmlns="http://www.w3.org/2000/svg">
<g clip-path="url(#clip0_885_122459)">
<rect y="38" width="118" height="77" rx="8" fill="#F9F4EB"/>
<path opacity="0.5" d="M58.6053 9.08102L58.9996 8.91187L59.3939 9.08102L187.407 64.0019L187.013 65.9209L-69.0137 65.9209L-69.408 64.0019L58.6053 9.08102Z" fill="#F2DDAF" stroke="#A56953" stroke-width="2"/>
<path d="M51.9309 83.024C51.2203 81.73 50.772 79.9847 51.7534 78.8829C52.7186 77.7979 54.5191 78.0235 55.7608 78.7771C56.9919 79.5223 57.9341 80.6519 58.852 81.7606C59.2153 80.5126 59.7085 79.3036 60.3211 78.1559C60.7389 77.3745 61.2565 76.5819 62.0615 76.21C63.4471 75.5693 65.138 76.4802 65.9442 77.777C66.413 78.5305 66.6774 79.4108 66.7018 80.2981C66.7504 82.0643 65.8744 83.723 64.878 85.1836C64.0024 86.4669 63.0147 87.6736 61.9293 88.7853C61.5632 89.1603 61.1704 89.5344 60.6791 89.7167C59.4184 90.1839 56.8124 88.2003 55.8134 87.458C54.2246 86.2776 52.8845 84.7602 51.9309 83.024Z" fill="#FAA685"/>
</g>
<rect x="1.5" y="39.5" width="115" height="74" rx="6.5" stroke="#A56953" stroke-width="3"/>
<rect x="20" y="1" width="80" height="63" rx="7" fill="white"/>
<rect x="20" y="1" width="80" height="63" rx="7" stroke="#A56953" stroke-width="2"/>
<path opacity="0.5" d="M93 12.1932C92.9193 12.3028 92.8713 12.4364 92.7872 12.4723C91.6727 12.943 90.5787 13.5031 89.429 13.8383C86.9837 14.5513 84.5675 14.2418 82.3787 12.92C80.9218 12.0403 79.4872 11.8109 77.9394 12.2503C76.5898 12.6335 75.2676 13.1318 73.9325 13.5749C72.189 14.1543 70.4687 14.8479 68.6935 15.279C66.1092 15.9054 63.5807 15.5839 61.21 14.2215C60.1135 13.5915 58.9629 13.0784 57.7016 13.1954C56.5416 13.3032 55.3781 13.5049 54.2455 13.796C53.1379 14.0797 52.0568 14.4979 50.9817 14.9096C48.1237 16.003 45.2837 16.0592 42.4411 14.847C41.8585 14.5983 41.2476 14.4242 40.6564 14.1957C39.4029 13.7122 38.1356 13.6735 36.8683 14.0898C35.8044 14.4389 34.7611 14.8626 33.6971 15.2145C32.8529 15.4936 32.0034 15.7801 31.136 15.9459C29.6216 16.2361 27.9648 15.3315 27.2201 13.8918C27.0433 13.551 26.8322 13.1963 27.2132 12.6897C27.3736 12.8481 27.5675 12.9614 27.6551 13.1374C28.441 14.7061 29.7383 15.419 31.3505 15.0496C32.1562 14.8654 32.9352 14.5412 33.7246 14.2768C34.9224 13.8752 36.109 13.4303 37.3196 13.0793C38.4188 12.7606 39.5299 12.8675 40.6153 13.2276C41.6243 13.562 42.6376 13.8872 43.6397 14.2455C45.6312 14.9575 47.626 14.9584 49.6226 14.3054C50.8513 13.9028 52.0559 13.4054 53.2975 13.0572C54.5639 12.7026 55.8526 12.4032 57.1482 12.2181C58.6634 12.0016 60.0989 12.4216 61.4356 13.2064C63.1903 14.2354 65.0796 14.719 67.0513 14.4795C68.431 14.3127 69.7995 13.9295 71.1388 13.5169C72.4267 13.1208 73.6674 12.5543 74.9347 12.079C76.5065 11.4913 78.0981 11.0206 79.7807 11.0003C80.6627 10.9902 81.4778 11.2113 82.2372 11.6829C84.8927 13.3317 87.6692 13.6025 90.5658 12.5377C91.0523 12.359 91.5371 12.1729 92.0313 12.0209C92.3488 11.9233 92.6911 11.8229 93 12.1923V12.1932Z" fill="black"/>
<path opacity="0.5" d="M93 21.1932C92.9193 21.3028 92.8713 21.4364 92.7872 21.4723C91.6727 21.943 90.5787 22.5031 89.429 22.8383C86.9837 23.5513 84.5675 23.2418 82.3787 21.92C80.9218 21.0403 79.4872 20.8109 77.9394 21.2503C76.5898 21.6335 75.2676 22.1318 73.9325 22.5749C72.189 23.1543 70.4687 23.8479 68.6935 24.279C66.1092 24.9054 63.5807 24.5839 61.21 23.2215C60.1135 22.5915 58.9629 22.0784 57.7016 22.1954C56.5416 22.3032 55.3781 22.5049 54.2455 22.796C53.1379 23.0797 52.0568 23.4979 50.9817 23.9096C48.1237 25.003 45.2837 25.0592 42.4411 23.847C41.8585 23.5983 41.2476 23.4242 40.6564 23.1957C39.4029 22.7122 38.1356 22.6735 36.8683 23.0898C35.8044 23.4389 34.7611 23.8626 33.6971 24.2145C32.8529 24.4936 32.0034 24.7801 31.136 24.9459C29.6216 25.2361 27.9648 24.3315 27.2201 22.8918C27.0433 22.551 26.8322 22.1963 27.2132 21.6897C27.3736 21.8481 27.5675 21.9614 27.6551 22.1374C28.441 23.7061 29.7383 24.419 31.3505 24.0496C32.1562 23.8654 32.9352 23.5412 33.7246 23.2768C34.9224 22.8752 36.109 22.4303 37.3196 22.0793C38.4188 21.7606 39.5299 21.8675 40.6153 22.2276C41.6243 22.562 42.6376 22.8872 43.6397 23.2455C45.6312 23.9575 47.626 23.9584 49.6226 23.3054C50.8513 22.9028 52.0559 22.4054 53.2975 22.0572C54.5639 21.7026 55.8526 21.4032 57.1482 21.2181C58.6634 21.0016 60.0989 21.4216 61.4356 22.2064C63.1903 23.2354 65.0796 23.719 67.0513 23.4795C68.431 23.3127 69.7995 22.9295 71.1388 22.5169C72.4267 22.1208 73.6674 21.5543 74.9347 21.079C76.5065 20.4913 78.0981 20.0206 79.7807 20.0003C80.6627 19.9902 81.4778 20.2113 82.2372 20.6829C84.8927 22.3317 87.6692 22.6025 90.5658 21.5377C91.0523 21.359 91.5371 21.1729 92.0313 21.0209C92.3488 20.9233 92.6911 20.8229 93 21.1923V21.1932Z" fill="black"/>
<path opacity="0.5" d="M93 30.4318C92.9193 30.5634 92.8713 30.7237 92.7872 30.7668C91.6727 31.3316 90.5787 32.0037 89.429 32.406C86.9837 33.2616 84.5675 32.8902 82.3787 31.304C80.9218 30.2484 79.4872 29.9731 77.9394 30.5004C76.5898 30.9602 75.2676 31.5582 73.9325 32.0899C72.189 32.7852 70.4687 33.6175 68.6935 34.1348C66.1092 34.8864 63.5807 34.5007 61.21 32.8658C60.1135 32.1098 58.9629 31.4941 57.7016 31.6345C56.5416 31.7638 55.3781 32.0059 54.2455 32.3552C53.1379 32.6956 52.0568 33.1975 50.9817 33.6916C48.1237 35.0036 45.2837 35.071 42.4411 33.6164C41.8585 33.3179 41.2476 33.109 40.6564 32.8349C39.4029 32.2546 38.1356 32.2082 36.8683 32.7078C35.8044 33.1267 34.7611 33.6352 33.6971 34.0574C32.8529 34.3924 32.0034 34.7361 31.136 34.9351C29.6216 35.2833 27.9648 34.1978 27.2201 32.4701C27.0433 32.0611 26.8322 31.6356 27.2132 31.0276C27.3736 31.2178 27.5675 31.3537 27.6551 31.5648C28.441 33.4473 29.7383 34.3028 31.3505 33.8596C32.1562 33.6385 32.9352 33.2494 33.7246 32.9322C34.9224 32.4502 36.109 31.9163 37.3196 31.4952C38.4188 31.1127 39.5299 31.241 40.6153 31.6732C41.6243 32.0744 42.6376 32.4646 43.6397 32.8946C45.6312 33.749 47.626 33.7501 49.6226 32.9664C50.8513 32.4834 52.0559 31.8865 53.2975 31.4687C54.5639 31.0431 55.8526 30.6839 57.1482 30.4617C58.6634 30.2019 60.0989 30.706 61.4356 31.6477C63.1903 32.8824 65.0796 33.4627 67.0513 33.1753C68.431 32.9753 69.7995 32.5154 71.1388 32.0202C72.4267 31.5449 73.6674 30.8651 74.9347 30.2948C76.5065 29.5896 78.0981 29.0247 79.7807 29.0004C80.6627 28.9882 81.4778 29.2535 82.2372 29.8195C84.8927 31.7981 87.6692 32.123 90.5658 30.8452C91.0523 30.6308 91.5371 30.4075 92.0313 30.2251C92.3488 30.108 92.6911 29.9875 93 30.4307V30.4318Z" fill="black"/>
<path opacity="0.5" d="M93 40.1932C92.9193 40.3028 92.8713 40.4364 92.7872 40.4723C91.6727 40.943 90.5787 41.5031 89.429 41.8383C86.9837 42.5513 84.5675 42.2418 82.3787 40.92C80.9218 40.0403 79.4872 39.8109 77.9394 40.2503C76.5898 40.6335 75.2676 41.1318 73.9325 41.5749C72.189 42.1543 70.4687 42.8479 68.6935 43.279C66.1092 43.9054 63.5807 43.5839 61.21 42.2215C60.1135 41.5915 58.9629 41.0784 57.7016 41.1954C56.5416 41.3032 55.3781 41.5049 54.2455 41.796C53.1379 42.0797 52.0568 42.4979 50.9817 42.9096C48.1237 44.003 45.2837 44.0592 42.4411 42.847C41.8585 42.5983 41.2476 42.4242 40.6564 42.1957C39.4029 41.7122 38.1356 41.6735 36.8683 42.0898C35.8044 42.4389 34.7611 42.8626 33.6971 43.2145C32.8529 43.4936 32.0034 43.7801 31.136 43.9459C29.6216 44.2361 27.9648 43.3315 27.2201 41.8918C27.0433 41.551 26.8322 41.1963 27.2132 40.6897C27.3736 40.8481 27.5675 40.9614 27.6551 41.1374C28.441 42.7061 29.7383 43.419 31.3505 43.0496C32.1562 42.8654 32.9352 42.5412 33.7246 42.2768C34.9224 41.8752 36.109 41.4303 37.3196 41.0793C38.4188 40.7606 39.5299 40.8675 40.6153 41.2276C41.6243 41.562 42.6376 41.8872 43.6397 42.2455C45.6312 42.9575 47.626 42.9584 49.6226 42.3054C50.8513 41.9028 52.0559 41.4054 53.2975 41.0572C54.5639 40.7026 55.8526 40.4032 57.1482 40.2181C58.6634 40.0016 60.0989 40.4216 61.4356 41.2064C63.1903 42.2354 65.0796 42.719 67.0513 42.4795C68.431 42.3127 69.7995 41.9295 71.1388 41.5169C72.4267 41.1208 73.6674 40.5543 74.9347 40.079C76.5065 39.4913 78.0981 39.0206 79.7807 39.0003C80.6627 38.9902 81.4778 39.2113 82.2372 39.6829C84.8927 41.3317 87.6692 41.6025 90.5658 40.5377C91.0523 40.359 91.5371 40.1729 92.0313 40.0209C92.3488 39.9233 92.6911 39.8229 93 40.1923V40.1932Z" fill="black"/>
<path opacity="0.5" d="M93 49.1932C92.9193 49.3028 92.8713 49.4364 92.7872 49.4723C91.6727 49.943 90.5787 50.5031 89.429 50.8383C86.9837 51.5513 84.5675 51.2418 82.3787 49.92C80.9218 49.0403 79.4872 48.8109 77.9394 49.2503C76.5898 49.6335 75.2676 50.1318 73.9325 50.5749C72.189 51.1543 70.4687 51.8479 68.6935 52.279C66.1092 52.9054 63.5807 52.5839 61.21 51.2215C60.1135 50.5915 58.9629 50.0784 57.7016 50.1954C56.5416 50.3032 55.3781 50.5049 54.2455 50.796C53.1379 51.0797 52.0568 51.4979 50.9817 51.9096C48.1237 53.003 45.2837 53.0592 42.4411 51.847C41.8585 51.5983 41.2476 51.4242 40.6564 51.1957C39.4029 50.7122 38.1356 50.6735 36.8683 51.0898C35.8044 51.4389 34.7611 51.8626 33.6971 52.2145C32.8529 52.4936 32.0034 52.7801 31.136 52.9459C29.6216 53.2361 27.9648 52.3315 27.2201 50.8918C27.0433 50.551 26.8322 50.1963 27.2132 49.6897C27.3736 49.8481 27.5675 49.9614 27.6551 50.1374C28.441 51.7061 29.7383 52.419 31.3505 52.0496C32.1562 51.8654 32.9352 51.5412 33.7246 51.2768C34.9224 50.8752 36.109 50.4303 37.3196 50.0793C38.4188 49.7606 39.5299 49.8675 40.6153 50.2276C41.6243 50.562 42.6376 50.8872 43.6397 51.2455C45.6312 51.9575 47.626 51.9584 49.6226 51.3054C50.8513 50.9028 52.0559 50.4054 53.2975 50.0572C54.5639 49.7026 55.8526 49.4032 57.1482 49.2181C58.6634 49.0016 60.0989 49.4216 61.4356 50.2064C63.1903 51.2354 65.0796 51.719 67.0513 51.4795C68.431 51.3127 69.7995 50.9295 71.1388 50.5169C72.4267 50.1208 73.6674 49.5543 74.9347 49.079C76.5065 48.4913 78.0981 48.0206 79.7807 48.0003C80.6627 47.9902 81.4778 48.2113 82.2372 48.6829C84.8927 50.3317 87.6692 50.6025 90.5658 49.5377C91.0523 49.359 91.5371 49.1729 92.0313 49.0209C92.3488 48.9233 92.6911 48.8229 93 49.1923V49.1932Z" fill="black"/>
<defs>
<clipPath id="clip0_885_122459">
<rect y="38" width="118" height="77" rx="8" fill="white"/>
</clipPath>
</defs>
</svg>
