<svg width="607" height="234" viewBox="0 0 607 234" fill="none" xmlns="http://www.w3.org/2000/svg">
<g filter="url(#filter0_dd_4599_34760)">
<path d="M387.83 175.369V175.269L380.13 102.369L375.63 59.3688L372.83 32.3688H258.93C259.13 27.4688 259.33 22.5688 259.53 17.6688C259.83 15.2688 259.83 12.1688 258.13 9.36877C250.23 -4.33123 209.43 -2.73123 178.13 12.3688C152.13 24.9688 138.53 44.0688 124.23 57.5688C123.63 58.0688 122.83 58.3688 122.03 58.2688C102.83 55.1688 88.5299 49.2688 78.3299 43.6688V43.4688H77.9299C77.3299 43.1688 76.7299 42.7688 76.1299 42.4688C62.1299 34.3688 44.4299 20.3688 27.3299 20.3688C26.6299 20.3688 25.8299 20.3688 25.1299 20.4688C22.0299 20.6688 12.2299 21.4688 9.1299 27.4688C8.5299 28.5688 8.2299 29.6688 8.1299 30.6688C7.8299 31.6688 8.1299 32.6688 8.2299 33.0688C11.5299 51.4688 14.8299 69.8688 18.1299 88.3688C26.0299 132.369 33.9299 176.469 41.8299 220.469H134.03H220.03H250.43H300.03V175.469H302.23H308.13H310.83H316.73H319.43H325.33H328.03H333.93H336.63H342.53H345.23H351.13H353.83H359.73H362.43H362.83L367.33 220.469H392.73L387.83 175.369ZM18.5299 29.4688C18.4299 29.4688 18.3299 29.3688 18.1299 29.3688C17.7299 29.2688 17.0299 28.9688 16.1299 28.8688C14.4299 28.4688 14.1299 26.1688 15.7299 25.4688C16.5299 25.0688 17.5299 24.7688 18.5299 24.4688V29.4688ZM24.9299 32.1688C23.7299 31.4688 22.4299 30.8688 21.0299 30.2688V23.7688C22.2299 23.5688 23.5299 23.3688 24.9299 23.2688V32.1688ZM31.3299 36.7688C30.1299 35.7688 28.8299 34.7688 27.4299 33.7688V23.2688C28.7299 23.2688 30.0299 23.3688 31.3299 23.5688V36.7688ZM37.7299 42.7688C36.4299 41.4688 35.2299 40.1688 33.8299 38.9688V23.9688C35.1299 24.2688 36.4299 24.5688 37.7299 24.9688V42.7688ZM44.0299 49.2688C43.1299 48.3688 42.1299 47.3688 41.2299 46.3688C40.9299 46.0688 40.5299 45.6688 40.2299 45.2688V25.7688C41.5299 26.2688 42.8299 26.7688 44.1299 27.2688V49.2688H44.0299ZM50.4299 55.6688C49.2299 54.4688 47.9299 53.1688 46.5299 51.7688V28.3688C47.8299 28.9688 49.1299 29.6688 50.4299 30.2688V55.6688ZM56.8299 61.6688C55.6299 60.5688 54.3299 59.3688 52.9299 58.1688V31.6688C54.2299 32.3688 55.5299 33.1688 56.8299 33.8688V61.6688ZM63.1299 66.5688C61.8299 65.7688 60.5299 64.7688 59.2299 63.7688V35.3688C60.5299 36.1688 61.8299 36.9688 63.1299 37.7688V66.5688ZM69.5299 69.8688C69.1299 69.6688 68.6299 69.4688 68.2299 69.2688C67.3299 68.8688 66.5299 68.4688 65.6299 67.9688V39.3688C66.9299 40.1688 68.2299 40.9688 69.5299 41.7688V69.8688ZM75.9299 72.0688C74.6299 71.7688 73.3299 71.3688 72.0299 70.9688V43.3688C72.9299 43.8688 73.8299 44.4688 74.7299 44.9688C75.1299 45.1688 75.5299 45.3688 75.9299 45.6688V72.0688ZM82.2299 73.1688C81.0299 73.0688 79.7299 72.8688 78.3299 72.5688V46.9688C79.6299 47.6688 80.9299 48.2688 82.2299 48.9688V73.1688ZM88.6299 73.4688C87.4299 73.4688 86.1299 73.4688 84.7299 73.3688V50.1688C86.0299 50.7688 87.3299 51.3688 88.6299 51.8688V73.4688ZM95.0299 73.1688C94.1299 73.2688 93.2299 73.3688 92.2299 73.3688C91.9299 73.3688 91.5299 73.3688 91.1299 73.3688V52.8688C92.4299 53.3688 93.7299 53.8688 95.0299 54.3688V73.1688ZM101.33 71.8688C100.03 72.1688 98.8299 72.4688 97.4299 72.7688V55.2688C98.7299 55.6688 100.03 56.1688 101.33 56.5688V71.8688ZM107.73 69.5688C106.43 70.1688 105.23 70.6688 103.83 71.1688V57.2688C105.13 57.6688 106.43 57.9688 107.73 58.3688V69.5688ZM114.13 65.8688C112.83 66.6688 111.53 67.4688 110.23 68.2688V58.9688C111.53 59.2688 112.83 59.5688 114.13 59.8688V65.8688ZM116.63 64.0688V60.2688C117.93 60.4688 119.23 60.7688 120.53 60.9688C119.23 62.0688 117.93 63.1688 116.63 64.0688ZM285.23 102.369V59.3688H290.23L290.63 102.369H285.23ZM293.03 102.369L292.53 59.3688H297.73L298.43 102.369H293.03ZM300.13 59.3688H305.33L306.43 102.369H301.03L300.13 59.3688ZM302.23 166.369L301.83 145.369H307.53L308.03 166.369H302.23ZM307.63 59.3688H312.83L314.33 102.369H308.93L307.63 59.3688ZM310.63 166.369L310.03 145.369H315.73L316.43 166.369H310.63ZM316.83 102.369L315.23 59.3688H320.43L322.23 102.369H316.83ZM319.13 166.369L318.33 145.369H324.03L324.93 166.369H319.13ZM324.73 102.369L322.83 59.3688H328.03L330.23 102.369H324.73ZM327.63 166.369L326.63 145.369H332.33L333.43 166.369H327.63ZM332.63 102.369L330.33 59.3688H335.53L338.13 102.369H332.63ZM336.13 166.369L335.03 145.369H340.73L342.03 166.369H336.13ZM340.53 102.369L337.83 59.3688H343.03L345.93 102.369H340.53ZM344.53 166.369L343.23 145.369H348.93L350.33 166.369H344.53ZM348.53 102.369L345.43 59.3688H350.63L353.93 102.369H348.53ZM353.03 166.369L351.53 145.369H357.23L358.83 166.369H353.03ZM361.53 166.369L360.63 154.769L361.83 166.369H361.53ZM356.43 102.369L353.03 59.3688H358.23L361.93 102.369H356.43ZM364.33 102.369L360.53 59.3688H365.73L369.73 102.369H364.33ZM372.23 102.369L368.03 59.3688H373.23L377.63 102.369H372.23ZM539.83 2.36877L539.63 12.3688H511.23V22.3688H422.73V32.3688H378.33L398.13 220.369H423.23L418.43 175.369H488.23V220.369H502.23V220.469H530.23V220.369H536.13H542.23H594.43L598.13 2.36877H539.83ZM465.33 47.3688L465.93 72.3688H460.53L459.73 47.3688H465.33ZM457.33 47.3688L458.13 72.3688H452.73L451.83 47.3688H457.33ZM449.33 47.3688L450.33 72.3688H444.93L443.83 47.3688H449.33ZM444.53 115.069H439.43L438.13 90.0688H443.43L444.53 115.069ZM441.33 47.3688L442.53 72.3688H437.13L435.83 47.3688H441.33ZM437.03 115.069H431.93L430.43 90.0688H435.73L437.03 115.069ZM433.33 47.3688L434.73 72.3688H429.33L427.83 47.3688H433.33ZM429.63 115.069H424.53L422.83 90.0688H428.13L429.63 115.069ZM425.33 47.3688L426.93 72.3688H421.53L419.83 47.3688H425.33ZM422.13 115.069H417.03L415.13 90.0688H420.43L422.13 115.069ZM417.33 47.3688L419.13 72.3688H413.73L411.83 47.3688H417.33ZM404.83 47.3688H409.33L411.33 72.3688H407.53L404.83 47.3688ZM409.33 90.0688H412.63L414.63 115.069H412.03L409.33 90.0688ZM416.53 157.669L413.83 132.669H415.93L417.93 157.669H416.53ZM420.13 157.669L418.23 132.669H423.33L425.13 157.669H420.13ZM427.33 157.669L425.63 132.669H430.73L432.33 157.669H427.33ZM434.53 157.669L433.03 132.669H438.13L439.53 157.669H434.53ZM441.63 157.669L440.33 132.669H445.43L446.63 157.669H441.63ZM445.73 90.0688H451.03L452.03 115.069H446.93L445.73 90.0688ZM448.83 157.669L447.73 132.669H452.83L453.83 157.669H448.83ZM453.43 90.0688H458.73L459.53 115.069H454.43L453.43 90.0688ZM456.03 157.669L455.13 132.669H460.23L461.03 157.669H456.03ZM461.13 90.0688H466.43L467.03 115.069H461.93L461.13 90.0688ZM463.13 157.669L462.33 132.669H467.43L468.03 157.669H463.13ZM467.83 47.3688H473.33L473.73 72.3688H468.33L467.83 47.3688ZM468.83 90.0688H474.13L474.53 115.069H469.43L468.83 90.0688ZM470.33 157.669L469.73 132.669H474.83L475.23 157.669H470.33ZM475.83 47.3688H481.33L481.53 72.3688H476.13L475.83 47.3688ZM476.43 90.0688H481.73L481.93 115.069H476.83L476.43 90.0688ZM477.53 157.669L477.13 132.669H482.23L482.43 157.669H477.53ZM488.23 157.669H484.73L484.53 132.669H488.23V157.669ZM488.23 115.069H484.33L484.13 90.0688H488.23V115.069ZM488.23 72.3688H484.03L483.83 47.3688H488.23V72.3688ZM522.23 217.969H511.23V212.469H522.23V217.969ZM522.23 209.969H511.23V204.469H522.23V209.969ZM522.23 201.969H511.23V196.469H522.23V201.969ZM522.23 193.969H511.23V188.469H522.23V193.969ZM522.23 185.969H511.23V180.469H522.23V185.969ZM522.23 177.969H511.23V172.469H522.23V177.969ZM522.23 169.969H511.23V164.469H522.23V169.969ZM522.23 161.969H511.23V156.469H522.23V161.969ZM522.23 153.969H511.23V148.469H522.23V153.969ZM522.23 145.969H511.23V140.469H522.23V145.969ZM522.23 137.969H511.23V132.469H522.23V137.969ZM522.23 129.969H511.23V124.469H522.23V129.969ZM522.23 121.969H511.23V116.469H522.23V121.969ZM522.23 113.969H511.23V108.469H522.23V113.969ZM522.23 105.969H511.23V100.469H522.23V105.969ZM522.23 97.9688H511.23V92.4688H522.23V97.9688ZM522.23 89.9688H511.23V84.4688H522.23V89.9688ZM522.23 81.9688H511.23V76.4688H522.23V81.9688ZM522.23 73.9688H511.23V68.4688H522.23V73.9688ZM522.23 65.9688H511.23V60.4688H522.23V65.9688ZM522.23 57.9688H511.23V52.4688H522.23V57.9688ZM522.23 49.9688H511.23V44.4688H522.23V49.9688ZM522.23 41.9688H511.23V36.4688H522.23V41.9688ZM548.53 75.4688L560.33 87.4688L548.13 99.4688L548.53 75.4688ZM547.83 120.169L559.63 132.169L547.43 144.169L547.83 120.169ZM547.03 164.869L558.83 176.869L546.63 188.869L547.03 164.869ZM584.63 210.369H546.33L546.63 192.369L548.43 190.569L560.63 178.569L561.13 178.069H585.13L584.63 210.369ZM585.13 176.869V175.569H561.13L560.63 175.069L548.83 163.069L547.13 161.269L547.33 147.669L549.13 145.869L561.33 133.869L561.83 133.369H585.83L585.13 176.869ZM585.93 132.469V130.869H561.93L547.93 116.569L548.13 102.969L562.13 89.1688L562.63 88.6688H586.63L585.93 132.469ZM586.73 86.2688H562.73L562.23 85.7688L548.63 71.9688L548.93 53.9688H587.23L586.73 86.2688ZM587.43 43.9688H549.13L549.63 12.3688H587.93L587.43 43.9688Z" fill="#FFF9EF"/>
<path d="M547.83 120.169L547.43 144.169L559.63 132.169L547.83 120.169Z" fill="#695D57"/>
<path d="M548.13 99.4688L560.33 87.4688L548.53 75.4688L548.13 99.4688Z" fill="#695D57"/>
<path d="M293.03 102.369H298.43L297.73 59.3687H292.53L293.03 102.369Z" fill="#695D57"/>
<path d="M587.23 53.9688H548.93L548.63 71.9688L562.13 85.6687L562.63 86.2688H586.73L587.23 53.9688Z" fill="#695D57"/>
<path d="M586.63 88.7688H562.63L562.13 89.2688L548.13 103.069L547.83 116.669L561.93 130.869H585.93V132.469L586.63 88.7688Z" fill="#695D57"/>
<path d="M547.03 164.869L546.63 188.869L558.83 176.869L547.03 164.869Z" fill="#695D57"/>
<path d="M585.93 133.369H561.83L561.33 133.969L549.13 145.969L547.33 147.669L547.13 161.269L548.83 163.069L560.63 175.069L561.13 175.569H585.13V176.869L585.93 133.369Z" fill="#695D57"/>
<path d="M546.33 210.369H584.63L585.13 178.069H561.13L560.63 178.569L548.43 190.569L546.63 192.369L546.33 210.369Z" fill="#695D57"/>
<path d="M318.33 102.369V59.3687H315.23L316.83 102.369H318.33Z" fill="#695D57"/>
<path d="M316.83 175.369H310.93H308.23H302.33H300.23V220.369H268.43V220.469H318.33V175.369H316.83Z" fill="#695D57"/>
<path d="M316.53 166.369L315.73 145.369H310.03L310.63 166.369H316.53Z" fill="#695D57"/>
<path d="M308.03 166.369L307.53 145.369H301.83L302.23 166.369H308.03Z" fill="#695D57"/>
<path d="M314.33 102.369L312.83 59.3687H307.63L308.83 102.369H314.33Z" fill="#695D57"/>
<path d="M306.43 102.369L305.33 59.3687H300.13L300.93 102.369H306.43Z" fill="#695D57"/>
<path d="M285.23 102.369H290.53L290.13 59.3687H285.23V102.369Z" fill="#695D57"/>
</g>
<defs>
<filter id="filter0_dd_4599_34760" x="0" y="0" width="606.13" height="233.469" filterUnits="userSpaceOnUse" color-interpolation-filters="sRGB">
<feFlood flood-opacity="0" result="BackgroundImageFix"/>
<feColorMatrix in="SourceAlpha" type="matrix" values="0 0 0 0 0 0 0 0 0 0 0 0 0 0 0 0 0 0 127 0" result="hardAlpha"/>
<feOffset dx="8" dy="13"/>
<feComposite in2="hardAlpha" operator="out"/>
<feColorMatrix type="matrix" values="0 0 0 0 0.352941 0 0 0 0 0.427451 0 0 0 0 0.14902 0 0 0 1 0"/>
<feBlend mode="normal" in2="BackgroundImageFix" result="effect1_dropShadow_4599_34760"/>
<feColorMatrix in="SourceAlpha" type="matrix" values="0 0 0 0 0 0 0 0 0 0 0 0 0 0 0 0 0 0 127 0" result="hardAlpha"/>
<feOffset dx="-8" dy="13"/>
<feComposite in2="hardAlpha" operator="out"/>
<feColorMatrix type="matrix" values="0 0 0 0 0.352941 0 0 0 0 0.427451 0 0 0 0 0.14902 0 0 0 1 0"/>
<feBlend mode="normal" in2="effect1_dropShadow_4599_34760" result="effect2_dropShadow_4599_34760"/>
<feBlend mode="normal" in="SourceGraphic" in2="effect2_dropShadow_4599_34760" result="shape"/>
</filter>
</defs>
</svg>
