<svg width="573" height="332" viewBox="0 0 573 332" fill="none" xmlns="http://www.w3.org/2000/svg">
<g filter="url(#filter0_dd_4599_34762)">
<path d="M8 53.1001H35.8V108.5H8V53.1001ZM8 175.6H35.8V134.1H8V175.6ZM8 242.8H35.8V201.3H8V242.8ZM564.4 53.1001H536.6V108.5H564.4V53.1001ZM564.4 134.1H536.6V175.6H564.4V134.1ZM564.4 201.3H536.6V242.8H564.4V201.3Z" fill="#F2DDAF"/>
<path d="M536.6 74V318.1H393.5V258.2H370.5V318.1H359.4V253.5H340.9V318.1H231.3V253.5H212.8V318.1H201.8V258.2H178.7V318.1H35.8V74H151V14L178.7 37.1V74H248.2V13.8L262 0V74H310V0L323.8 13.8V74H393.7V37.1L421.4 14V74H536.6Z" fill="#FB7807"/>
<path d="M359.9 224.5H212.2V183H359.8V224.5H359.9ZM178.7 200.7V242.2C195.7 242.2 209.5 234.3 209.5 224.5V200.7V183C209.5 192.8 195.7 200.7 178.7 200.7ZM362.8 183V200.7V224.5C362.8 234.3 376.6 242.2 393.6 242.2V200.7C376.5 200.7 362.8 192.8 362.8 183ZM318.5 247.5H253.9V302.9H318.5V247.5ZM195.1 71V108.2C195.1 98.3 203.4 90.3 213.6 90.3H248.2V53.4001H213.6C203.4 53.4001 195.1 61.3 195.1 71ZM358.4 53.4001H323.8V90.3H358.4C368.6 90.3 376.9 98.3 376.9 108.2V71C376.9 61.3 368.6 53.4001 358.4 53.4001ZM213.8 118.1C203.6 118.1 195.3 126.4 195.3 136.6V172.9C195.3 163 203.6 155 213.8 155H248.2V118.1H213.8ZM358.6 118.1H323.8V155H358.6C368.8 155 377.1 163 377.1 172.9V136.6C377.1 126.4 368.8 118.1 358.6 118.1ZM192.5 71.2H178.7V108.1H192.5V71.2ZM393.7 71.2H379.9V108.1H393.7V71.2ZM192.4 136H178.6V172.9H192.4V136ZM393.5 136H379.7V172.9H393.5V136ZM262 13.8V175.3H310V13.8H262ZM21.8 161.8H151V120.3H41.8C30.8 120.3 21.8 129.3 21.8 140.3V161.8ZM21.8 228.9H151V187.4H41.8C30.8 187.4 21.8 196.4 21.8 207.4V228.9ZM530.5 39.2001H421.4V94.6H550.6V59.2001C550.5 48.2001 541.6 39.2001 530.5 39.2001ZM530.5 120.2H421.4V161.7H550.6V140.2C550.5 129.2 541.6 120.2 530.5 120.2ZM530.5 187.4H421.4V228.9H550.6V207.4C550.5 196.4 541.6 187.4 530.5 187.4ZM21.8 94.6H151V39.2001H41.8C30.8 39.2001 21.8 48.2001 21.8 59.2001V94.6Z" fill="#F2DDAF"/>
<path d="M237.1 106.6V118.1H216.8V106.6H237.1ZM54.2 172.7V187.5H137.1V172.7H54.2ZM59.2999 228.9V293.5H73.0999V228.9H59.2999ZM77.8 228.9V293.5H91.5999V228.9H77.8ZM96.1999 228.9V293.5H110V228.9H96.1999ZM151.6 228.9H114.7V256.6H160.8V238.1C160.8 233.1 156.7 228.9 151.6 228.9ZM435.2 172.7V187.5H518.1V172.7H435.2ZM334.9 106.6V118.1H355.2V106.6H334.9ZM513.5 228.9H422C416.5 228.9 412 233.4 412 238.9V293.5H513.5V228.9ZM286.6 145.5H285.7V106.7H286.6V145.5ZM274.6 106.8H273.7V145.6H274.6V106.8ZM298.7 106.8H297.8V145.6H298.7V106.8ZM304.7 106.8H303.8V145.6H304.7V106.8ZM265.5 106.8H264.6V145.6H265.5V106.8ZM307.8 106.8H306.9V145.6H307.8V106.8ZM292.7 106.8H291.8V145.6H292.7V106.8ZM280.6 106.8H279.7V145.6H280.6V106.8ZM268.6 106.8H267.7V145.6H268.6V106.8ZM277.6 106.8H276.7V145.6H277.6V106.8ZM271.6 106.8H270.7V145.6H271.6V106.8ZM289.7 106.8H288.8V145.6H289.7V106.8ZM283.6 106.8H282.7V145.6H283.6V106.8ZM301.7 106.8H300.8V145.6H301.7V106.8ZM295.7 106.8H294.8V145.6H295.7V106.8Z" fill="#695D57"/>
<path d="M41.8 39.2C36.2 39.4 30.9 41.9 27.3 46C25.5 48.1 24.1 50.4 23.3 53C23.1 53.6 23 54.3 22.8 55C22.7 55.7 22.6 56.3 22.5 57C22.4 57.7 22.4 58.4 22.4 59V61.1C22.4 66.7 22.4 72.2 22.3 77.8L22.2 86.1C22 89 22 91.8 21.8 94.6C21.7 91.8 21.6 89 21.6 86.3L21.5 78C21.4 72.4 21.4 66.9 21.4 61.3V59.2C21.4 58.5 21.5 57.8 21.5 57.1C21.6 56.4 21.7 55.7 21.9 55C22.1 54.3 22.2 53.6 22.5 52.9C23.4 50.2 24.9 47.7 26.8 45.6C28.7 43.5 31.1 41.9 33.7 40.8C36.2 39.6 39.1 39.1 41.8 39.2ZM29.3 124.2C25.7 126.9 23.1 130.9 22 135.3C21.4 137.5 21.3 139.8 21.4 142C21.4 144.2 21.4 146.4 21.5 148.6L21.6 155.2C21.7 157.4 21.7 159.6 21.8 161.8C21.9 159.6 22 157.4 22 155.2L22.1 148.6C22.2 146.4 22.1 144.2 22.2 142C22.2 139.8 22.3 137.7 22.9 135.6C23.9 131.4 26.4 127.6 29.7 124.9C31.4 123.5 33.3 122.4 35.3 121.7C37.3 120.9 39.5 120.5 41.7 120.4C37.4 120.1 32.9 121.4 29.3 124.2ZM550.9 77.9C551 72.3 551 66.8 551 61.2V59.1C551 58.4 550.9 57.7 550.9 57C550.8 56.3 550.7 55.6 550.5 54.9C550.3 54.2 550.2 53.5 549.9 52.8C549 50.1 547.5 47.6 545.6 45.5C543.7 43.4 541.3 41.8 538.7 40.7C536.1 39.6 533.3 39.1 530.5 39.2C536.1 39.4 541.4 41.9 545 46C546.8 48.1 548.2 50.4 549 53C549.2 53.6 549.3 54.3 549.5 55C549.6 55.7 549.7 56.3 549.8 57C549.9 57.7 549.9 58.4 549.9 59V61.1C549.9 66.7 549.9 72.2 550 77.8C550.1 83.4 550.2 88.9 550.4 94.5C550.7 89 550.8 83.4 550.9 77.9ZM550.9 148.5C551 146.3 550.9 144.1 551 141.9C551.1 139.7 551 137.4 550.4 135.2C549.3 130.8 546.6 126.8 543.1 124.1C539.5 121.3 535 120 530.6 120.2C532.8 120.3 535 120.8 537 121.5C539.1 122.2 541 123.3 542.6 124.7C545.9 127.4 548.5 131.2 549.4 135.4C550 137.5 550.1 139.6 550.1 141.8C550.1 144 550.1 146.2 550.2 148.4C550.3 152.8 550.4 157.2 550.6 161.6C550.7 157.3 550.8 152.9 550.9 148.5ZM550.9 215.7C551 213.5 550.9 211.3 551 209.1C551.1 206.9 551 204.6 550.4 202.4C549.3 198 546.6 194 543.1 191.3C539.5 188.5 535 187.2 530.6 187.4C532.8 187.5 535 188 537 188.7C539.1 189.4 541 190.5 542.6 191.9C545.9 194.6 548.5 198.4 549.4 202.6C550 204.7 550.1 206.8 550.1 209C550.1 211.2 550.1 213.4 550.2 215.6C550.3 220 550.4 224.4 550.6 228.8C550.7 224.5 550.8 220.1 550.9 215.7ZM29.3 191.4C25.7 194.1 23.1 198.1 22 202.5C21.4 204.7 21.3 207 21.4 209.2C21.4 211.4 21.4 213.6 21.5 215.8L21.6 222.4C21.7 224.6 21.7 226.8 21.8 229C21.9 226.8 22 224.6 22 222.4L22.1 215.8C22.2 213.6 22.1 211.4 22.2 209.2C22.2 207 22.3 204.9 22.9 202.8C23.9 198.6 26.4 194.8 29.7 192.1C31.4 190.7 33.3 189.6 35.3 188.9C37.3 188.1 39.5 187.7 41.7 187.6C37.4 187.3 32.9 188.6 29.3 191.4Z" fill="#FFF9EF"/>
</g>
<defs>
<filter id="filter0_dd_4599_34762" x="0" y="0" width="572.4" height="331.1" filterUnits="userSpaceOnUse" color-interpolation-filters="sRGB">
<feFlood flood-opacity="0" result="BackgroundImageFix"/>
<feColorMatrix in="SourceAlpha" type="matrix" values="0 0 0 0 0 0 0 0 0 0 0 0 0 0 0 0 0 0 127 0" result="hardAlpha"/>
<feOffset dx="8" dy="13"/>
<feComposite in2="hardAlpha" operator="out"/>
<feColorMatrix type="matrix" values="0 0 0 0 0.352941 0 0 0 0 0.427451 0 0 0 0 0.14902 0 0 0 1 0"/>
<feBlend mode="normal" in2="BackgroundImageFix" result="effect1_dropShadow_4599_34762"/>
<feColorMatrix in="SourceAlpha" type="matrix" values="0 0 0 0 0 0 0 0 0 0 0 0 0 0 0 0 0 0 127 0" result="hardAlpha"/>
<feOffset dx="-8" dy="13"/>
<feComposite in2="hardAlpha" operator="out"/>
<feColorMatrix type="matrix" values="0 0 0 0 0.352941 0 0 0 0 0.427451 0 0 0 0 0.14902 0 0 0 1 0"/>
<feBlend mode="normal" in2="effect1_dropShadow_4599_34762" result="effect2_dropShadow_4599_34762"/>
<feBlend mode="normal" in="SourceGraphic" in2="effect2_dropShadow_4599_34762" result="shape"/>
</filter>
</defs>
</svg>
