<svg width="580" height="374" viewBox="0 0 580 374" fill="none" xmlns="http://www.w3.org/2000/svg">
<g filter="url(#filter0_dd_4599_34761)">
<path d="M544.9 359.969V33.9688H571.3V0.46875H544.9H118.3H82.3V34.0687H118.3V72.2688C88.2 42.1688 39.7 41.7687 9.2 71.0687C8.4 71.8688 8 72.8688 8 73.8688V113.169C8 114.069 9 114.469 9.6 113.869C10.6 112.869 11.7 111.969 12.8 111.069C17.3 107.269 22.1 104.069 27.2 101.369C33.3 98.1688 39.8 95.8688 46.4 94.3688C59.1 91.5687 72.3 91.9688 84.8 95.5687C91.5 97.4688 97.9 100.269 104 103.969C109.1 107.069 114 110.869 118.4 115.369V181.569C114 177.169 109.1 173.369 104 170.169C97.9 166.469 91.5 163.669 84.8 161.669C72.3 158.069 59.1 157.669 46.4 160.469C39.8 161.869 33.3 164.269 27.2 167.369C22.1 169.969 17.3 173.169 12.8 177.069C11.6 178.069 10.3 179.169 9.2 180.369C8.5 181.069 8 182.069 8 183.169V202.269C8 203.169 9 203.569 9.6 202.969C10.6 201.969 11.7 201.069 12.8 200.169C17.3 196.369 22.1 193.169 27.2 190.469C33.3 187.269 39.8 184.969 46.4 183.469C59.1 180.669 72.3 181.069 84.8 184.669C91.5 186.569 97.9 189.369 104 193.069C109.1 196.169 114 199.969 118.4 204.469V270.669C114 266.269 109.1 262.469 104 259.269C97.9 255.569 91.5 252.769 84.8 250.769C72.3 247.169 59.1 246.769 46.4 249.569C39.8 250.969 33.3 253.369 27.2 256.469C22.1 259.069 17.3 262.269 12.8 266.169C11.6 267.169 10.3 268.269 9.2 269.469C8.4 270.369 8 271.369 8 272.469V291.569C8 292.369 9 292.869 9.6 292.269C10.6 291.269 11.7 290.369 12.8 289.469C17.3 285.669 22.1 282.469 27.2 279.769C33.3 276.569 39.8 274.269 46.4 272.769C59.1 269.969 72.3 270.369 84.8 273.969C91.5 275.869 97.9 278.669 104 282.369C109.1 285.469 114 289.269 118.4 293.769V359.969M253.8 34.0687H313.8V53.2687H253.8V34.0687ZM157.4 34.0687H217.4V53.2687H157.4V34.0687ZM410.2 53.1688H350.2V34.0687H410.2V53.1688ZM506.6 53.1688H446.6V34.0687H506.6V53.1688Z" fill="#FFF9EF"/>
<path d="M331.6 302.469V283.269H118.3V359.969H362.8V316.869H458.7V359.969H477.9V316.869H525.8V359.969H545V302.469H331.6ZM180.6 340.869H161.4V297.769H180.6V340.869ZM214.1 340.869H195V297.769H214.2V340.869H214.1ZM310 340.869H242.9V297.769H310V340.869Z" fill="#F2DDAF"/>
<path d="M369.9 149.069V264.169H549.7V149.069H369.9ZM362.7 316.869V359.969H458.6V316.869H362.7ZM477.8 316.869V359.969H525.7V316.869H477.8ZM242.9 297.669V340.769H310V297.669H242.9ZM195 297.669V340.769H214.2V297.669H195ZM161.4 297.669V340.769H180.6V297.669H161.4ZM156.6 173.069V198.969H198.8V173.069H156.6ZM205.5 173.069V198.969H247.7V173.069H205.5ZM286 173.069V198.969H328.2V173.069H286ZM205.5 96.3688V122.269H247.7V96.3688H205.5ZM156.6 249.769V275.669H198.8V249.769H156.6ZM205.5 249.769V275.669H247.7V249.769H205.5ZM286 249.769V275.669H328.2V249.769H286ZM286 96.3688V122.269H328.2V96.3688H286ZM334.9 96.3688V110.769H377.1V96.3688H334.9ZM415.5 96.3688V110.769H457.7V96.3688H415.5ZM464.4 96.3688V110.769H506.6V96.3688H464.4ZM156.6 96.3688V122.269H198.8V96.3688H156.6ZM103.9 282.469V360.069H118.3V293.869C113.8 289.369 109 285.569 103.9 282.469ZM46.4001 272.769V359.969H84.8V273.969C72.2001 270.469 59.0001 270.069 46.4001 272.769ZM12.8 289.369V359.969H27.2V279.669C22.1 282.369 17.3 285.569 12.8 289.369ZM103.9 193.269V259.469C109 262.569 113.9 266.369 118.3 270.869V204.669C113.8 200.169 109 196.369 103.9 193.269ZM46.4001 183.569V249.769C59.1001 246.969 72.3 247.369 84.8 250.969V184.769C72.2001 181.169 59.0001 180.769 46.4001 183.569ZM12.8 200.169V266.369C17.3 262.569 22.1 259.369 27.2 256.669V190.469C22.1 193.169 17.3 196.369 12.8 200.169ZM103.9 104.069V170.269C109 173.369 113.9 177.169 118.3 181.669V115.469C113.8 110.969 109 107.169 103.9 104.069ZM46.4001 94.3688V160.569C59.1001 157.769 72.3 158.169 84.8 161.769V95.5687C72.2001 91.9687 59.0001 91.5688 46.4001 94.3688ZM12.8 110.969V177.169C17.3 173.369 22.1 170.169 27.2 167.469V101.269C22.1 103.969 17.3 107.169 12.8 110.969Z" fill="#675C56"/>
<path d="M27.2 101.369V167.469C33.3 164.269 39.8 161.969 46.4 160.569V94.3689C39.7 95.8689 33.3 98.1689 27.2 101.369ZM27.2 190.569V256.769C33.3 253.569 39.8 251.269 46.4 249.869V183.669C39.7 185.069 33.3 187.369 27.2 190.569ZM27.2 279.769V360.069H46.4V272.869C39.7 274.269 33.3 276.569 27.2 279.769ZM84.6999 95.5688V161.769C91.3999 163.669 97.7999 166.469 103.9 170.269V104.069C97.7999 100.269 91.3999 97.4688 84.6999 95.5688ZM84.6999 184.769V250.969C91.3999 252.869 97.7999 255.669 103.9 259.469V193.269C97.7999 189.569 91.3999 186.669 84.6999 184.769ZM84.6999 273.969V359.969H103.9V282.469C97.7999 278.769 91.3999 275.869 84.6999 273.969ZM561.7 72.3689V53.1688H137.4V34.0688H118.2V283.369H137.4V225.869H331.6V302.469H561.7V264.069H369.9V149.069H561.7V110.669H331.6V129.869H137.4V72.3689H561.7ZM331.6 149.069V206.569H137.4V149.069H331.6Z" fill="#FB7807"/>
</g>
<defs>
<filter id="filter0_dd_4599_34761" x="0" y="0.46875" width="579.3" height="372.6" filterUnits="userSpaceOnUse" color-interpolation-filters="sRGB">
<feFlood flood-opacity="0" result="BackgroundImageFix"/>
<feColorMatrix in="SourceAlpha" type="matrix" values="0 0 0 0 0 0 0 0 0 0 0 0 0 0 0 0 0 0 127 0" result="hardAlpha"/>
<feOffset dx="8" dy="13"/>
<feComposite in2="hardAlpha" operator="out"/>
<feColorMatrix type="matrix" values="0 0 0 0 0.352941 0 0 0 0 0.427451 0 0 0 0 0.14902 0 0 0 1 0"/>
<feBlend mode="normal" in2="BackgroundImageFix" result="effect1_dropShadow_4599_34761"/>
<feColorMatrix in="SourceAlpha" type="matrix" values="0 0 0 0 0 0 0 0 0 0 0 0 0 0 0 0 0 0 127 0" result="hardAlpha"/>
<feOffset dx="-8" dy="13"/>
<feComposite in2="hardAlpha" operator="out"/>
<feColorMatrix type="matrix" values="0 0 0 0 0.352941 0 0 0 0 0.427451 0 0 0 0 0.14902 0 0 0 1 0"/>
<feBlend mode="normal" in2="effect1_dropShadow_4599_34761" result="effect2_dropShadow_4599_34761"/>
<feBlend mode="normal" in="SourceGraphic" in2="effect2_dropShadow_4599_34761" result="shape"/>
</filter>
</defs>
</svg>
