<svg width="565" height="442" viewBox="0 0 565 442" fill="none" xmlns="http://www.w3.org/2000/svg">
<g filter="url(#filter0_dd_4599_34764)">
<path d="M556.9 158.9H552H229.5V43.3H236.2C237.8 43.3 239.1 42 239.1 40.4V38.5H229.5H32.1H22.5V41.4C22.5 42.5 23.4 43.3 24.4 43.3H32.1V146.8H8V170.9H32.1V428.5H229.5H552V183H556.8V158.9H556.9Z" fill="#FFF9EF"/>
<path d="M239.1 38.5H22.3999C34.8999 38.5 45.2999 22 47.6999 0H213.9C216.2 22 226.6 38.5 239.1 38.5ZM492.5 245.5H520.2C521.9 245.5 523.2 244.2 523.2 242.5V214.8C523.2 213.1 521.9 211.8 520.2 211.8H492.5C490.8 211.8 489.5 213.1 489.5 214.8V242.5C489.5 244.2 490.8 245.5 492.5 245.5ZM428 242.5V214.8C428 213.1 429.3 211.8 431 211.8H458.7C460.4 211.8 461.7 213.1 461.7 214.8V242.5C461.7 244.2 460.4 245.5 458.7 245.5H431C429.3 245.5 428 244.2 428 242.5ZM366.5 242.5V214.8C366.5 213.1 367.8 211.8 369.5 211.8H397.2C398.9 211.8 400.2 213.1 400.2 214.8V242.5C400.2 244.2 398.9 245.5 397.2 245.5H369.5C367.8 245.5 366.5 244.2 366.5 242.5ZM305 242.5V214.8C305 213.1 306.3 211.8 308 211.8H335.7C337.4 211.8 338.7 213.1 338.7 214.8V242.5C338.7 244.2 337.4 245.5 335.7 245.5H308C306.4 245.5 305 244.2 305 242.5ZM243.5 242.5V214.8C243.5 213.1 244.8 211.8 246.5 211.8H274.2C275.9 211.8 277.2 213.1 277.2 214.8V242.5C277.2 244.2 275.9 245.5 274.2 245.5H246.5C244.9 245.5 243.5 244.2 243.5 242.5ZM182.1 242.5V214.8C182.1 213.1 183.4 211.8 185.1 211.8H212.8C214.5 211.8 215.8 213.1 215.8 214.8V242.5C215.8 244.2 214.5 245.5 212.8 245.5H185.1C183.4 245.5 182.1 244.2 182.1 242.5ZM492.5 303.3H520.2C521.9 303.3 523.2 302 523.2 300.3V272.6C523.2 270.9 521.9 269.6 520.2 269.6H492.5C490.8 269.6 489.5 270.9 489.5 272.6V300.3C489.5 302 490.8 303.3 492.5 303.3ZM428 300.3V272.6C428 270.9 429.3 269.6 431 269.6H458.7C460.4 269.6 461.7 270.9 461.7 272.6V300.3C461.7 302 460.4 303.3 458.7 303.3H431C429.3 303.3 428 302 428 300.3ZM366.5 300.3V272.6C366.5 270.9 367.8 269.6 369.5 269.6H397.2C398.9 269.6 400.2 270.9 400.2 272.6V300.3C400.2 302 398.9 303.3 397.2 303.3H369.5C367.8 303.3 366.5 302 366.5 300.3ZM305 300.3V272.6C305 270.9 306.3 269.6 308 269.6H335.7C337.4 269.6 338.7 270.9 338.7 272.6V300.3C338.7 302 337.4 303.3 335.7 303.3H308C306.4 303.3 305 302 305 300.3ZM243.5 300.3V272.6C243.5 270.9 244.8 269.6 246.5 269.6H274.2C275.9 269.6 277.2 270.9 277.2 272.6V300.3C277.2 302 275.9 303.3 274.2 303.3H246.5C244.9 303.3 243.5 302 243.5 300.3ZM182.1 300.3V272.6C182.1 270.9 183.4 269.6 185.1 269.6H212.8C214.5 269.6 215.8 270.9 215.8 272.6V300.3C215.8 302 214.5 303.3 212.8 303.3H185.1C183.4 303.3 182.1 302 182.1 300.3ZM492.5 428.5H520.2C521.9 428.5 523.2 427.2 523.2 425.5V335.2C523.2 333.5 521.9 332.2 520.2 332.2H492.5C490.8 332.2 489.5 333.5 489.5 335.2V425.5C489.5 427.2 490.8 428.5 492.5 428.5ZM428 425.5V335.2C428 333.5 429.3 332.2 431 332.2H458.7C460.4 332.2 461.7 333.5 461.7 335.2V425.5C461.7 427.2 460.4 428.5 458.7 428.5H431C429.3 428.5 428 427.2 428 425.5ZM366.5 425.5V335.2C366.5 333.5 367.8 332.2 369.5 332.2H397.2C398.9 332.2 400.2 333.5 400.2 335.2V425.5C400.2 427.2 398.9 428.5 397.2 428.5H369.5C367.8 428.5 366.5 427.2 366.5 425.5ZM305 425.5V335.2C305 333.5 306.3 332.2 308 332.2H335.7C337.4 332.2 338.7 333.5 338.7 335.2V425.5C338.7 427.2 337.4 428.5 335.7 428.5H308C306.4 428.5 305 427.2 305 425.5ZM243.5 425.5V335.2C243.5 333.5 244.8 332.2 246.5 332.2H274.2C275.9 332.2 277.2 333.5 277.2 335.2V425.5C277.2 427.2 275.9 428.5 274.2 428.5H246.5C244.9 428.5 243.5 427.2 243.5 425.5ZM182.1 425.5V335.2C182.1 333.5 183.4 332.2 185.1 332.2H212.8C214.5 332.2 215.8 333.5 215.8 335.2V425.5C215.8 427.2 214.5 428.5 212.8 428.5H185.1C183.4 428.5 182.1 427.2 182.1 425.5Z" fill="#675C56"/>
<path d="M424.1 428.5H465.5V414.2C465.5 412.5 464.2 411.2 462.5 411.2H427.1C425.4 411.2 424.1 412.5 424.1 414.2V428.5ZM362.6 428.5H404V414.2C404 412.5 402.7 411.2 401 411.2H365.6C363.9 411.2 362.6 412.5 362.6 414.2V428.5ZM301.2 428.5H342.6V414.2C342.6 412.5 341.3 411.2 339.6 411.2H304.2C302.5 411.2 301.2 412.5 301.2 414.2V428.5ZM239.7 428.5H281.1V414.2C281.1 412.5 279.8 411.2 278.1 411.2H242.7C241 411.2 239.7 412.5 239.7 414.2V428.5ZM178.2 428.5H219.6V414.2C219.6 412.5 218.3 411.2 216.6 411.2H181.2C179.5 411.2 178.2 412.5 178.2 414.2V428.5ZM485.6 356.3V341.9H527V356.3H485.6ZM424.1 356.3H465.5V341.9H424.1V356.3ZM362.6 356.3H404V341.9H362.6V356.3ZM301.2 356.3H342.6V341.9H301.2V356.3ZM239.7 356.3H281.1V341.9H239.7V356.3ZM178.2 356.3H219.6V341.9H178.2V356.3ZM485.6 428.5V414.2C485.6 412.5 486.9 411.2 488.6 411.2H524C525.7 411.2 527 412.5 527 414.2V428.5H485.6ZM32.1 200.8V196.9H16.7V170.9H12.8V257.6C12.8 260.3 15 262.4 17.6 262.4H32V258.5H17.6C17.1 258.5 16.6 258.1 16.6 257.5V231.5H32V227.6H16.7V200.6H32.1V200.8Z" fill="#DE6D20"/>
<path d="M556.9 184.5L148.4 183L556.9 181.5V184.5Z" fill="#675C56"/>
</g>
<defs>
<filter id="filter0_dd_4599_34764" x="0" y="0" width="564.9" height="441.5" filterUnits="userSpaceOnUse" color-interpolation-filters="sRGB">
<feFlood flood-opacity="0" result="BackgroundImageFix"/>
<feColorMatrix in="SourceAlpha" type="matrix" values="0 0 0 0 0 0 0 0 0 0 0 0 0 0 0 0 0 0 127 0" result="hardAlpha"/>
<feOffset dx="8" dy="13"/>
<feComposite in2="hardAlpha" operator="out"/>
<feColorMatrix type="matrix" values="0 0 0 0 0.352941 0 0 0 0 0.427451 0 0 0 0 0.14902 0 0 0 1 0"/>
<feBlend mode="normal" in2="BackgroundImageFix" result="effect1_dropShadow_4599_34764"/>
<feColorMatrix in="SourceAlpha" type="matrix" values="0 0 0 0 0 0 0 0 0 0 0 0 0 0 0 0 0 0 127 0" result="hardAlpha"/>
<feOffset dx="-8" dy="13"/>
<feComposite in2="hardAlpha" operator="out"/>
<feColorMatrix type="matrix" values="0 0 0 0 0.352941 0 0 0 0 0.427451 0 0 0 0 0.14902 0 0 0 1 0"/>
<feBlend mode="normal" in2="effect1_dropShadow_4599_34764" result="effect2_dropShadow_4599_34764"/>
<feBlend mode="normal" in="SourceGraphic" in2="effect2_dropShadow_4599_34764" result="shape"/>
</filter>
</defs>
</svg>
