<svg width="37" height="37" viewBox="0 0 37 37" fill="none" xmlns="http://www.w3.org/2000/svg">
<path d="M23.7965 9.00708H5.9205V32.0071H27.9205V21.7346L32.9205 15.1399V34.5071C32.9204 35.8876 31.801 37.0069 30.4205 37.0071H3.4205C2.03988 37.0071 0.92064 35.8877 0.920502 34.5071V6.50708C0.920502 5.12637 2.03979 4.00708 3.4205 4.00708H27.5504L23.7965 9.00708ZM32.442 1.38403C33.234 0.253363 34.7935 -0.0219669 35.9244 0.769775C37.0551 1.56169 37.3293 3.12032 36.5377 4.25122L20.7525 26.7952C20.3378 27.3873 19.6873 27.7708 18.9684 27.8469C18.2492 27.923 17.5321 27.6842 17.0025 27.1917L9.14609 19.884C8.13529 18.9438 8.07733 17.3618 9.01718 16.3508C9.95753 15.3399 11.5404 15.2826 12.5514 16.2229L18.3053 21.5735L32.442 1.38403Z" fill="#FFFFEC"/>
</svg>
